/* XPM */
static char * exp0_xpm[] = {
"50 50 6 1",
" 	c None",
".	c #FFFFFF",
"+	c #FFFFFE",
"@	c #FFFFF0",
"#	c #FFFFCB",
"$	c #FFFFBD",
"                                                  ",
"                                                  ",
"                                                  ",
"                                                  ",
"                                                  ",
"                                                  ",
"                                                  ",
"                                                  ",
"                                                  ",
"                                                  ",
"                                                  ",
"                                                  ",
"                                                  ",
"                                                  ",
"                     . ......                     ",
"                    ........+.                    ",
"                     ...........                  ",
"                   .. ...........                 ",
"                  ................                ",
"                . ..........@.....                ",
"               .+...........#......               ",
"              ....................                ",
"               ...................                ",
"              .....................               ",
"              ....................                ",
"                ....................              ",
"                ...................               ",
"               ....................               ",
"               ...................                ",
"               $..+..............                 ",
"                   .............                  ",
"                 ................                 ",
"                ................                  ",
"                 ..............                   ",
"                    ..........                    ",
"                     ...  ..                      ",
"                                                  ",
"                                                  ",
"                                                  ",
"                                                  ",
"                                                  ",
"                                                  ",
"                                                  ",
"                                                  ",
"                                                  ",
"                                                  ",
"                                                  ",
"                                                  ",
"                                                  ",
"                                                  "};
