/* XPM */
static char * exp1_xpm[] = {
"50 50 35 1",
" 	c None",
".	c #FFFF9F",
"+	c #FFCC9F",
"@	c #FFFFFF",
"#	c #FFFFAB",
"$	c #FFDEAB",
"%	c #FFFFEE",
"&	c #FFFFFE",
"*	c #FFCCA7",
"=	c #FFFFBB",
"-	c #FFD9B5",
";	c #FFAD00",
">	c #FFBB53",
",	c #FFFFF4",
"'	c #FFC87B",
")	c #FFFEFE",
"!	c #FFFFCE",
"~	c #FFD8B5",
"{	c #FFFFF9",
"]	c #FFCC9C",
"^	c #FFFEFF",
"/	c #FFC899",
"(	c #FFCC5F",
"_	c #FFFFF1",
":	c #FFDEB0",
"<	c #FFFFCB",
"[	c #FFFFB9",
"}	c #FFFFEB",
"|	c #FF5A00",
"1	c #FFD8AA",
"2	c #FFFFC7",
"3	c #FFFFE4",
"4	c #FFFEFD",
"5	c #FFC896",
"6	c #FFFF89",
"                                                  ",
"                                                  ",
"                                                  ",
"                                                  ",
"                                                  ",
"                                                  ",
"                                                  ",
"                                                  ",
"                                                  ",
"                                                  ",
"                                                  ",
"                                                  ",
"                       ..                         ",
"                    +@#@@@@                       ",
"                    $@%@@@@&@@ @*                 ",
"                  @  @@@@@@@@@@&=                 ",
"                 -@@@@@@@@@@@@@@@;                ",
"                >@@@@@@@@@@@@@@@@,                ",
"                '@@@@@@@@@@@@@@@@)                ",
"              !@@@@@@@@@@@@@@@@@@@@               ",
"             $@@@@@@@@@@@@@@@@@@@@@               ",
"             ~@@@@@@@@@@@@@@@@@@@@                ",
"            >@@@@@@@@@@@@@@@@@@@@@                ",
"             @@@@@@@@@@@@@@@@@@{@@                ",
"             ]@@@@@@@@@@@@@@@@@@@@@ ^             ",
"               @@@@@@@@@@@@@@@@@@@@@@>            ",
"              $@@@@@@@@@@@@@@@@@@@@@@             ",
"              /@@@@@@@@@@@@@@@@@@@@@              ",
"             (_@@@@@@@@@@@@@@@@@@@@@$             ",
"             :@@@@@@@@@@@@@@@@@@&@<@+             ",
"              [@@@@@@@@@@@@@@@@@@                 ",
"                 @@@@@@@@@@@@@@@}                 ",
"                @)@@@@@@@@@@@@@@@:                ",
"                |@@@@@@@@@@@@@123(                ",
"                >@&@@@@@@@@@@@                    ",
"                 4 $@@@@5 @@)6                    ",
"                   +@@@@$   @*                    ",
"                       @                          ",
"                                                  ",
"                                                  ",
"                                                  ",
"                                                  ",
"                                                  ",
"                                                  ",
"                                                  ",
"                                                  ",
"                                                  ",
"                                                  ",
"                                                  ",
"                                                  "};
