/* XPM */
static char * exp8_xpm[] = {
"50 50 541 2",
"  	c None",
". 	c #FF9C00",
"+ 	c #FF5100",
"@ 	c #FFCF46",
"# 	c #FFF503",
"$ 	c #FF7200",
"% 	c #FFA417",
"& 	c #FFF304",
"* 	c #FF8B00",
"= 	c #FF2100",
"- 	c #FFD60E",
"; 	c #FFFF08",
"> 	c #FF8C02",
", 	c #FFF800",
"' 	c #FF6B00",
") 	c #FF9600",
"! 	c #FFC82F",
"~ 	c #E44C07",
"{ 	c #FFA500",
"] 	c #FF6900",
"^ 	c #FFB700",
"/ 	c #D73109",
"( 	c #FFED02",
"_ 	c #FFE809",
": 	c #FFFE0B",
"< 	c #FFEF17",
"[ 	c #FFF004",
"} 	c #FF9500",
"| 	c #EE3E04",
"1 	c #FFFF00",
"2 	c #FFC200",
"3 	c #FF6E00",
"4 	c #FF9700",
"5 	c #FFE209",
"6 	c #FF7500",
"7 	c #FF9800",
"8 	c #FEA200",
"9 	c #FF4A00",
"0 	c #FFFC0B",
"a 	c #FFFF3D",
"b 	c #FFFF4D",
"c 	c #FFFF2F",
"d 	c #FFFF1B",
"e 	c #FFAA00",
"f 	c #FFA100",
"g 	c #FFF1A3",
"h 	c #FF7800",
"i 	c #EF5704",
"j 	c #FE5B00",
"k 	c #FFBF2F",
"l 	c #FFCE07",
"m 	c #FFFF07",
"n 	c #FFFF1C",
"o 	c #FFFC00",
"p 	c #FFFB22",
"q 	c #FFB600",
"r 	c #FFBA00",
"s 	c #FFC906",
"t 	c #FFB300",
"u 	c #CE6008",
"v 	c #FFFE35",
"w 	c #FFFF7A",
"x 	c #FFFF64",
"y 	c #FFFF3A",
"z 	c #FFFF32",
"A 	c #FFD700",
"B 	c #FF8800",
"C 	c #FFFC02",
"D 	c #FFA700",
"E 	c #D4000A",
"F 	c #FFF200",
"G 	c #FFB100",
"H 	c #FE8200",
"I 	c #FF8300",
"J 	c #D1150B",
"K 	c #FFD800",
"L 	c #FF9200",
"M 	c #FFC500",
"N 	c #FFF312",
"O 	c #FFFF1D",
"P 	c #FFFF34",
"Q 	c #FFFF14",
"R 	c #FFFF2B",
"S 	c #FFDF04",
"T 	c #FFDE00",
"U 	c #FFE31C",
"V 	c #FFFF0A",
"W 	c #FFE400",
"X 	c #FFFF2C",
"Y 	c #FFFF88",
"Z 	c #FFFF6F",
"` 	c #FFFF61",
" .	c #FFFF49",
"..	c #FFFF15",
"+.	c #FFFF1E",
"@.	c #FFF611",
"#.	c #CB5612",
"$.	c #FFAE0A",
"%.	c #FFFE20",
"&.	c #FFF511",
"*.	c #FFFD13",
"=.	c #FFFF21",
"-.	c #FFBE00",
";.	c #D4560B",
">.	c #FFC103",
",.	c #FFFF41",
"'.	c #FFFF40",
").	c #FFF20E",
"!.	c #FFFF6A",
"~.	c #FFF517",
"{.	c #FFF827",
"].	c #FFFF42",
"^.	c #FFFF94",
"/.	c #FFFF90",
"(.	c #FFFF85",
"_.	c #FFFF47",
":.	c #FFFF4A",
"<.	c #FFFF01",
"[.	c #FFBC0A",
"}.	c #FFFF36",
"|.	c #FFFF38",
"1.	c #FFFF24",
"2.	c #FFFF33",
"3.	c #FFFF3E",
"4.	c #FFE641",
"5.	c #FFFF31",
"6.	c #FFFF5D",
"7.	c #FFFF57",
"8.	c #FFFF4C",
"9.	c #FFFF46",
"0.	c #FFFF93",
"a.	c #FFFFC2",
"b.	c #FFFFC1",
"c.	c #FFFF95",
"d.	c #FFFF7C",
"e.	c #FFFF7B",
"f.	c #FFFF4E",
"g.	c #FFFF25",
"h.	c #FFFF59",
"i.	c #FFFF56",
"j.	c #FFFF58",
"k.	c #FFFF80",
"l.	c #FF9E0E",
"m.	c #FF7300",
"n.	c #FFDC16",
"o.	c #FFFF71",
"p.	c #FFFF7F",
"q.	c #FFFF52",
"r.	c #FFFF5A",
"s.	c #FFFF39",
"t.	c #FFFFE5",
"u.	c #FFFFEC",
"v.	c #FFFFC7",
"w.	c #FFFFA9",
"x.	c #FFFF92",
"y.	c #FFFF68",
"z.	c #FFFF70",
"A.	c #FFFF51",
"B.	c #FFFF79",
"C.	c #FFA30D",
"D.	c #FF9E00",
"E.	c #FFFF0E",
"F.	c #EB3D05",
"G.	c #FFBC00",
"H.	c #FFF300",
"I.	c #FFFFA0",
"J.	c #FFFF9A",
"K.	c #FFFF77",
"L.	c #FFFF7E",
"M.	c #FFFF86",
"N.	c #FFFF63",
"O.	c #FFFF5C",
"P.	c #FFFF8D",
"Q.	c #FFFFC5",
"R.	c #FFFFFF",
"S.	c #FFFFFB",
"T.	c #FFFFDE",
"U.	c #FFFFB8",
"V.	c #FFFF9D",
"W.	c #FFFFB2",
"X.	c #FFFF98",
"Y.	c #FFFFAC",
"Z.	c #FFFF9E",
"`.	c #FFFF72",
" +	c #FEFF05",
".+	c #FFE508",
"++	c #FFBEA0",
"@+	c #FFEB02",
"#+	c #FFFF1F",
"$+	c #FFFFAB",
"%+	c #FFFFAE",
"&+	c #FFFF83",
"*+	c #FFFF81",
"=+	c #FFFF7D",
"-+	c #FFFF66",
";+	c #FFFFFA",
">+	c #FFFFFE",
",+	c #FFFFF9",
"'+	c #FFFFD8",
")+	c #FFFFBD",
"!+	c #FFFFBF",
"~+	c #FFFFAF",
"{+	c #FFFF3C",
"]+	c #FFFD18",
"^+	c #FFD900",
"/+	c #FFB800",
"(+	c #FFA507",
"_+	c #FFFF04",
":+	c #FFFF12",
"<+	c #FFF91A",
"[+	c #FFE80E",
"}+	c #FFFF87",
"|+	c #FFFF9F",
"1+	c #FFFF8C",
"2+	c #FFFF9B",
"3+	c #FFFFB7",
"4+	c #FFFFBE",
"5+	c #FFFFFD",
"6+	c #FFFFDF",
"7+	c #FFFFA5",
"8+	c #FFFFB0",
"9+	c #FFFFB5",
"0+	c #FFFFB1",
"a+	c #FFE700",
"b+	c #FF8F06",
"c+	c #FFFE0C",
"d+	c #FFFB19",
"e+	c #FFF034",
"f+	c #FFF600",
"g+	c #FFFF53",
"h+	c #FFFF9C",
"i+	c #FFFF75",
"j+	c #FFFFE3",
"k+	c #FFFFAD",
"l+	c #FFFFBA",
"m+	c #FFFFC0",
"n+	c #FFFFD9",
"o+	c #FFFFA1",
"p+	c #FFFFB6",
"q+	c #FFFFEF",
"r+	c #FFFFA4",
"s+	c #FFFF69",
"t+	c #D35B09",
"u+	c #FFC005",
"v+	c #FFE900",
"w+	c #FFF608",
"x+	c #FFF000",
"y+	c #FFFF44",
"z+	c #FFFF5F",
"A+	c #FFFF6E",
"B+	c #FFFF60",
"C+	c #FFFFDC",
"D+	c #FFFFA3",
"E+	c #FFFFEE",
"F+	c #FFFFF3",
"G+	c #FF9A0A",
"H+	c #FF9100",
"I+	c #FFFA03",
"J+	c #FFEC01",
"K+	c #FFFE09",
"L+	c #FFFF6B",
"M+	c #FFFF5B",
"N+	c #FFFF96",
"O+	c #FFFFC3",
"P+	c #FFFFB3",
"Q+	c #FFFFD3",
"R+	c #FFFF99",
"S+	c #FFFF8E",
"T+	c #FFFFCE",
"U+	c #FFFFC8",
"V+	c #FFFFB9",
"W+	c #FF7E00",
"X+	c #D44B0A",
"Y+	c #FFFA01",
"Z+	c #FEB300",
"`+	c #FFFD06",
" @	c #FFFF35",
".@	c #FFFF82",
"+@	c #FFFFC4",
"@@	c #FFFFCA",
"#@	c #FFFFA7",
"$@	c #FFFFA6",
"%@	c #FFFFA8",
"&@	c #FFFFCF",
"*@	c #FFFFDB",
"=@	c #FFFFAA",
"-@	c #FFF81E",
";@	c #FFFB8D",
">@	c #D77A0A",
",@	c #FFF303",
"'@	c #FFDB00",
")@	c #FFFF55",
"!@	c #FFFF6D",
"~@	c #FFFFA2",
"{@	c #FFFFBC",
"]@	c #FFFFD6",
"^@	c #FFFF89",
"/@	c #FFFFF8",
"(@	c #FFFFE4",
"_@	c #FFFF8B",
":@	c #FFFF54",
"<@	c #FFA26C",
"[@	c #EF8604",
"}@	c #BA5411",
"|@	c #FF940E",
"1@	c #FFFF8F",
"2@	c #FFFF73",
"3@	c #FFFFEA",
"4@	c #FFFFF0",
"5@	c #FFFF4F",
"6@	c #FFFB24",
"7@	c #C5290C",
"8@	c #FFD804",
"9@	c #FFFF3B",
"0@	c #FFFFD7",
"a@	c #FFFFDD",
"b@	c #FFFFD4",
"c@	c #FFFFBB",
"d@	c #EB8A0A",
"e@	c #A44216",
"f@	c #FFD003",
"g@	c #FFF400",
"h@	c #FF8500",
"i@	c #C00410",
"j@	c #FE7700",
"k@	c #FFFFB4",
"l@	c #FFF324",
"m@	c #FECF1A",
"n@	c #FFAB00",
"o@	c #FF8F00",
"p@	c #C3650F",
"q@	c #C5530F",
"r@	c #AA2F15",
"s@	c #FFAF00",
"t@	c #D54B0A",
"u@	c #FF0000",
"v@	c #EF2E04",
"w@	c #FF7C00",
"x@	c #FFFF76",
"y@	c #FFFFFC",
"z@	c #FFFFD0",
"A@	c #FFFF91",
"B@	c #FFFF37",
"C@	c #FFD30F",
"D@	c #FFDF00",
"E@	c #FFE416",
"F@	c #FFF712",
"G@	c #FFEC00",
"H@	c #FFEF00",
"I@	c #FFF803",
"J@	c #E22607",
"K@	c #EE9604",
"L@	c #FFA800",
"M@	c #FFC300",
"N@	c #FFFF13",
"O@	c #FFFF48",
"P@	c #FFFF65",
"Q@	c #FFFF74",
"R@	c #FFFF8A",
"S@	c #FFFFE1",
"T@	c #FFFF6C",
"U@	c #FFFC08",
"V@	c #FFF403",
"W@	c #F87500",
"X@	c #FFDB06",
"Y@	c #FFD316",
"Z@	c #FFD418",
"`@	c #FFEA02",
" #	c #FFDA00",
".#	c #FFA000",
"+#	c #FFFE00",
"@#	c #FFFF3F",
"##	c #FFFFD2",
"$#	c #FFFFE6",
"%#	c #FFFFF2",
"&#	c #FFFFED",
"*#	c #FFFFDA",
"=#	c #FFFF84",
"-#	c #FFF71C",
";#	c #FFFF0F",
">#	c #FFF313",
",#	c #FFC804",
"'#	c #FFB200",
")#	c #FFD304",
"!#	c #FFFF18",
"~#	c #FFFF78",
"{#	c #FFFFEB",
"]#	c #FFC513",
"^#	c #FF7A00",
"/#	c #FE5F00",
"(#	c #FFFF05",
"_#	c #FFFFE9",
":#	c #FFFFCC",
"<#	c #FFFFCB",
"[#	c #FFE72E",
"}#	c #FFFF27",
"|#	c #FFF701",
"1#	c #FF7600",
"2#	c #97131A",
"3#	c #C7050E",
"4#	c #ED3304",
"5#	c #E59E07",
"6#	c #AA3715",
"7#	c #FFE500",
"8#	c #FFFF43",
"9#	c #FFFFE2",
"0#	c #FFFFF1",
"a#	c #D18613",
"b#	c #F09C11",
"c#	c #FFFB09",
"d#	c #FF8100",
"e#	c #FFEA00",
"f#	c #FF3A00",
"g#	c #FF5C00",
"h#	c #FFE804",
"i#	c #FFA900",
"j#	c #FEFD05",
"k#	c #FFDC08",
"l#	c #EC780E",
"m#	c #FFE000",
"n#	c #FFFA08",
"o#	c #FFFB12",
"p#	c #FFFFCD",
"q#	c #FFFFE7",
"r#	c #F26203",
"s#	c #D77E0A",
"t#	c #FF9400",
"u#	c #FFFF0D",
"v#	c #EB5005",
"w#	c #FFAE15",
"x#	c #FFA300",
"y#	c #FF4000",
"z#	c #FFEA11",
"A#	c #FF0300",
"B#	c #FFFE2A",
"C#	c #E75B06",
"D#	c #E77C06",
"E#	c #D78809",
"F#	c #FFB617",
"G#	c #FFFFC6",
"H#	c #FFFF97",
"I#	c #FFFF45",
"J#	c #FFEE23",
"K#	c #FFDC1D",
"L#	c #FFFF5E",
"M#	c #FFFC10",
"N#	c #FFCF0C",
"O#	c #FFF406",
"P#	c #FFFA04",
"Q#	c #FF2F00",
"R#	c #C4870F",
"S#	c #FFD000",
"T#	c #FFFF2A",
"U#	c #FFFC21",
"V#	c #FFCE00",
"W#	c #FFC504",
"X#	c #FFF92D",
"Y#	c #FFFF62",
"Z#	c #FFEA10",
"`#	c #FFAD00",
" $	c #FFBB00",
".$	c #FFF203",
"+$	c #FFC400",
"@$	c #FFA205",
"#$	c #FFFD27",
"$$	c #E15503",
"%$	c #FFA200",
"&$	c #FFCA00",
"*$	c #FF6000",
"=$	c #FFEE00",
"-$	c #FF2800",
";$	c #CA090D",
">$	c #FFFB0B",
",$	c #D4A50B",
"'$	c #FEFF00",
")$	c #FFF603",
"!$	c #FFFF28",
"~$	c #FFFF02",
"{$	c #FFF80C",
"]$	c #FFFF4B",
"^$	c #FFFE25",
"/$	c #AE630C",
"($	c #FFB111",
"_$	c #FFEA0D",
":$	c #BE0010",
"<$	c #FFE312",
"[$	c #FFFF2D",
"}$	c #EA4905",
"|$	c #D34B0B",
"1$	c #FFDF08",
"2$	c #FF9A00",
"3$	c #FFF003",
"4$	c #FFC900",
"5$	c #F1870E",
"6$	c #FFE0C7",
"7$	c #FE7B00",
"8$	c #FFDC00",
"9$	c #FFCE01",
"0$	c #FFF417",
"a$	c #C48E0E",
"b$	c #C4600A",
"c$	c #FFD72B",
"d$	c #FFC308",
"e$	c #F22503",
"f$	c #BC130E",
"g$	c #E5A807",
"h$	c #FA6401",
"i$	c #EE0004",
"j$	c #990E09",
"k$	c #DC8D09",
"l$	c #FF5800",
"m$	c #FFF102",
"n$	c #FF4B00",
"o$	c #FFC11F",
"p$	c #C9250A",
"q$	c #D5720A",
"r$	c #D1110B",
"s$	c #D0070C",
"t$	c #BB440F",
"u$	c #FF9000",
"v$	c #8B0A1D",
"w$	c #FFD30D",
"x$	c #FFF302",
"y$	c #E53E06",
"z$	c #F06304",
"A$	c #FFAD02",
"B$	c #FFD14B",
"C$	c #FFE300",
"D$	c #DD1709",
"E$	c #E54B07",
"F$	c #E14B07",
"G$	c #E76906",
"H$	c #FF9522",
"I$	c #FFFC04",
"J$	c #FF8903",
"K$	c #FF7107",
"L$	c #FF8C00",
"M$	c #FFB31F",
"N$	c #FFB400",
"O$	c #FFF8A0",
"P$	c #FFE528",
"                                                                                                    ",
"                                                                                                    ",
"                                                                                                    ",
"                                                                                                    ",
"                                                                                                    ",
"                                                                                                    ",
"                                    . +       @ #   $                                               ",
"                                  % & *     = - ; > , '                 )                           ",
"                              ! ~ { ] ^   / ( _ : < [ }               | 1 2                         ",
"                          3 4 5 6 2 7 8 9   0 a b c d e   f g     h   i j   k                       ",
"                      l m n o p { q r s t u v w x y z A B C D   E F G H I J K L                     ",
"                    M N O P Q R 1 S T U V W X Y Z `  ...+.@.#.  $.%.&.*.=.T -.;.                    ",
"                      >.,.n +.,.'.).!.a ~.{.].^./.(.!._.:.R <.[.}.|.1.2.3.4.                        ",
"                        A P 5._.6.b 7.8.1._.9.0.a.b.c.d.e.f.9.g.h.i.b j.k.l.                        ",
"                    m.    n.z o.p.!.q.r.s.:.6.p.t.u.v.w.x.y.z.A.h.B.x 9.C.                          ",
"                  D.E.F.G.H.9.I.J.K.y.L.M.N.O.P.Q.R.S.T.U.V.W.X.Y.Z.`.P  +.+T                       ",
"                ++I @+t H.#+h.$+%+&+*+=+%+p.-+M.Y.;+>+,+'+)+w.!+^.~+L.f.{+]+^+/+                    ",
"              (+_+:+/+<+[+c 3.}+J.|+0.1+!+2+(.0.3+4+5+6+7+8+}+9+0+v.9+p. .O V a+                    ",
"              b+c+d+#++.e+f+g+z.Z.h+i+V.j+j+k+l+9+m+n+|+o+$+/.p+u.q+r+^.s+g.t+                      ",
"          u+v+w+x+1.y+z+:.r.(.-+0.A+B+(.'+j+|+a.C+3+I.M.D+U.7+W.E+F+w.%+ .G+                        ",
"        H+[ I+J+K+ .L+(.w M+I.N+Y M.r+N+O+v.P+a.Q+0+Y.R+S+'+T+U+V+2+K.O.W+                          ",
"        X+Y+Z+1 `+ @`..@+@N+7+l+x.X.@@#@$+c.U.+@$@P+%@#@&@R.*@$+=@e.j.-@;@                          ",
"            >@,@'@2.)@!@7+v.~@#@0.N.p+{@^.b.E+S.]@|+^@(.)+/@(@Z.1+_@:@n <@                          ",
"              [@}@|@O {+x.w.r+1@2@o.k+W.%@3@R.R.4@v.w.h+$+~+D+_@=+P.5@6@                            ",
"                    7@8@9@x .@.@L.P.Y.3+0@t.R.R.R.R.a@b@c@J.k.e.2+2+)@f.d@e@                        ",
"            f@g@h@] i@j@;  .N+k@k@$+M._@j+S.R.R.R.R.;+{@=@~+I.}+|+V.N+N+g+l@m@n@o@p@q@r@  -.        ",
"            o@s@t@u@v@w@w+_.x@o+Z.M.0.4+y@R.;+R.R.R.*@z@@@V+{@W.%@S+)+A@i.r.B@C@D@E@F@G@H@I@7       ",
"              J@K@L@M@N@O@P@w 2+(.Q@R@{@R.R.R.R.R.S@{@&@m+{@~+o+=@@@k@T@i.5@ @U@V@#+W@X@Y@Z@        ",
"              `@ #.#+#@#x@V+##m+d.=+_@%+$#;+%#4@S.O+|+9+A@w.x.p+&#$#*#W.=#x -#;#>#,#                ",
"              H+'#)#!#x ~#Z.T+p+M+x.c@=@W.8+{@O+$#D+1@Y.2+o+R+=@{#@@0.d.`.7.]#1.^#                  ",
"              /#(#..B@y.7.x@o+7+c.2+b._#Q+b.6+O+U.2+$+:#<#o+o.K.Y P@g.[#}#|.|#.#1#2#3#4#5#          ",
"            6#7##+z y 8# @@#g+_@L.*+o+_#F+9#0#,+V+c.~@D+c./.&+S+7.1.v+a#b#'@c#d#e#f#g#r h#i#        ",
"            [ x+j#k#l#m#n#..o#B+g+1+w.p###$+V+q#q+U.c.=@W.2+~@o+` |.V r#  s#  t#t#u#v#  w#          ",
"            x#y#u@    '@z#f+A#; {+~#o+6+3@##Q+=@!+P+X.8+b.e.y.^@O.1.B#C#        D#t                 ",
"                        E#    F#7.(.]@b.G#&@G#S+I.c.R@0+a./.^@H#=+I#J#)                             ",
"                              K#@#i+D+T@.@o+R+r.!.}+M+Q@X.0+Z.=#L#a M#N#{                           ",
"                            1#B+L#z..@L#i+-+~#P@@#i.b N.p.=@*+f.}.1.O#t P#Q#                        ",
"                          R#S#T#_.!.s+O.g+5@A.U#V#h#W#X#Y#o.w g+Z#m `# $.$+$                        ",
"                          @$m n O #$q. @}. @ .$$%$&$*$|.R :@q.I#=$-$  ;$r >$,$                      ",
"                        ) '${ )$!$~$V {$c ]$^$/$($_$:$<$:.9@[$=.m }$    |$f+1$                      ",
"                          2$  H.3$G 4$H.>#1.o@5$6$    7$8$9$0$&.P#a$      b$c$                      ",
"                              s@d$e$f$g$h$'#i$j$R.    k$'$l$m$8$n$                                  ",
"                              o$p$6   q$G@r$s$t$      + u$v$w$x$y$                                  ",
"                                z$A$  B$C$D$E$F$            2 G@G$                                  ",
"                                &$H$        I$J$            K$+.L$                                  ",
"                                M$          N$O$              P$                                    ",
"                                                                                                    ",
"                                                                                                    ",
"                                                                                                    ",
"                                                                                                    "};
