/* XPM */
static char * exp3_xpm[] = {
"50 50 93 2",
"  	c None",
". 	c #FFFFFF",
"+ 	c #FFFFEE",
"@ 	c #FFFFF0",
"# 	c #FFFFE8",
"$ 	c #FFFFB6",
"% 	c #FFFFF6",
"& 	c #FFDAA1",
"* 	c #FFFF9C",
"= 	c #FFFFE2",
"- 	c #FFFFCA",
"; 	c #FFFEFF",
"> 	c #FFFFC3",
", 	c #FFFFD4",
"' 	c #FFFFEF",
") 	c #FFFFB7",
"! 	c #FFFFDE",
"~ 	c #FFFFEB",
"{ 	c #FFFFD9",
"] 	c #FFFFF5",
"^ 	c #FFFFF9",
"/ 	c #FFFFFB",
"( 	c #FFFEFE",
"_ 	c #FFE093",
": 	c #FFFFE1",
"< 	c #FFFFFC",
"[ 	c #FFFFF3",
"} 	c #FFFFF2",
"| 	c #FFFFFE",
"1 	c #FFFFF7",
"2 	c #FFFFD8",
"3 	c #FF8C35",
"4 	c #FFFFD0",
"5 	c #FFFFA7",
"6 	c #FFFF94",
"7 	c #FFFEDE",
"8 	c #FFFEF8",
"9 	c #FFFFCE",
"0 	c #FFFFB9",
"a 	c #FFFFC0",
"b 	c #FFFF98",
"c 	c #FFFFF4",
"d 	c #FFFFF1",
"e 	c #FFFFE6",
"f 	c #FFFFD5",
"g 	c #FFFFE9",
"h 	c #FFFFCD",
"i 	c #FFFFF8",
"j 	c #FFFFAF",
"k 	c #FFD893",
"l 	c #FFFFDF",
"m 	c #FFFFE5",
"n 	c #FFFF93",
"o 	c #FFFEE4",
"p 	c #FFFFB4",
"q 	c #FFFFB0",
"r 	c #FFD68E",
"s 	c #FFFFFA",
"t 	c #FFFFD3",
"u 	c #FFFFFD",
"v 	c #FFFF9B",
"w 	c #FFFFD7",
"x 	c #FFFFE7",
"y 	c #FFFF5D",
"z 	c #FFFFA8",
"A 	c #FFC880",
"B 	c #FFFF96",
"C 	c #FFFFEA",
"D 	c #FFFFC1",
"E 	c #FFFF4C",
"F 	c #FFFF89",
"G 	c #FFFFE4",
"H 	c #FFD8A7",
"I 	c #FFFFC2",
"J 	c #FFD899",
"K 	c #FFFF42",
"L 	c #FFCD30",
"M 	c #FFDA66",
"N 	c #FFDDBC",
"O 	c #FFFEF6",
"P 	c #FFD8B6",
"Q 	c #FFCC90",
"R 	c #FFCC7B",
"S 	c #FFFFED",
"T 	c #FFFFD2",
"U 	c #FFFFBE",
"V 	c #FFCE8D",
"W 	c #FFFFEC",
"X 	c #FFF587",
"Y 	c #FFFFE0",
"Z 	c #FFDE7D",
"` 	c #FFFFDA",
" .	c #FFFFDD",
"                                                                                                    ",
"                                                                                                    ",
"                                                                                                    ",
"                                                                                                    ",
"                                                                                                    ",
"                                                                                                    ",
"                                                                                                    ",
"                                                                                                    ",
"                                                                                                    ",
"                                                                                                    ",
"                                      . +       @ . #                                               ",
"                                      $ %   & . . . .             + .                               ",
"                                      + * = - . . . ; > ,         ' )                               ",
"                              ! ~ + { . ] . . . . . ^ / ( _   : # @ #                               ",
"                            . ] / . < [ } . . . . . . . . . . . . . | ]                             ",
"                            $ ; 1 . . . . . . . . . . . . . . . . . | @                             ",
"                          2 3 : . . . . . . . . . . . . . . . . . . 4                               ",
"                        5 . 6 7 ^ . . . . . . . . . . . . . . . . . 8 .                             ",
"                      9 0 . a . . . . . . . . . . . . . . . . . . . . . .                           ",
"                    b [ . . . . . . . . . . . . . . . . . . . . . . . < c                           ",
"                    ' d . . . . . . . . . . . . . . . . . . . . . . / e                             ",
"                  - . f . . . . . . . . . . . . . . . . . . . . . [ g                               ",
"                  . h . . . . . . . . . . . . . . . . . . . . . . i j                               ",
"                      k | . . . . . . . . . . . . . . . . . . . . . l                               ",
"                      ~ m . . . . . . . . . . . . . . . . . . . . . ^ e n                           ",
"                      h : o . . . . . . . . . . . . . . . . . . . . . . . . p q g                   ",
"                        r . ^ . . . . . . . . . . . . . . . . . . . . . . s . t u v                 ",
"                      9 w x . . . . . . . . . . . . . . . . . . . . . . . < y z {                   ",
"                      A } } . . . . . . . . . . . . . . . . . . . . . . s . B C                     ",
"                      D ; . . . . . . . . . . . . . . . . . . . . . . . % c x } v                   ",
"                    E ; . . | . . . . . . . . . . . . . . . . . . . F d G . h g                     ",
"                      p {   H d . . . . . . . . . . . . . . . . . I     l '                         ",
"                                . . . . . . . . . . . . . . . . . J                                 ",
"                                = . . . . . . . . . . . . . . . . u .                               ",
"                              K . . . . . . . . . . . . . . . l } . . L                             ",
"                              M . < . . . . . . { # . . . . u }   N 8 .                             ",
"                              5 . > O ~ . . . . P   . . < u : 1     4 Q                             ",
"                              R S   T i e . U | V   S . W < X                                       ",
"                                    G = % < Y $ Z     ` C @ s v                                     ",
"                                  v | # . { u d         ! C G                                       ",
"                                    {       . +            .                                        ",
"                                                                                                    ",
"                                                                                                    ",
"                                                                                                    ",
"                                                                                                    ",
"                                                                                                    ",
"                                                                                                    ",
"                                                                                                    ",
"                                                                                                    ",
"                                                                                                    "};
