/* XPM */
static char * exp6_xpm[] = {
"50 50 366 2",
"  	c None",
". 	c #FFEE9E",
"+ 	c #FFB907",
"@ 	c #FFBF95",
"# 	c #FFD224",
"$ 	c #FF6E00",
"% 	c #FFB300",
"& 	c #FFFF43",
"* 	c #FF1400",
"= 	c #FEFFFF",
"- 	c #FFDC22",
"; 	c #FFFF49",
"> 	c #FFCD19",
", 	c #FFFF44",
"' 	c #FFBC13",
") 	c #FF9600",
"! 	c #FFC900",
"~ 	c #FFE495",
"{ 	c #FFFF09",
"] 	c #FFFF23",
"^ 	c #E34603",
"/ 	c #FFFF60",
"( 	c #FFFF67",
"_ 	c #FFFF7B",
": 	c #FFFF6F",
"< 	c #FFFF95",
"[ 	c #FFDD2A",
"} 	c #D4600B",
"| 	c #FFF507",
"1 	c #FFEE13",
"2 	c #FFFFB8",
"3 	c #FFC692",
"4 	c #E37129",
"5 	c #FFBC0B",
"6 	c #FFD12D",
"7 	c #FFFF3D",
"8 	c #FFFE28",
"9 	c #FFC82F",
"0 	c #EA710B",
"a 	c #FFFF4E",
"b 	c #FFFF92",
"c 	c #FFFFA4",
"d 	c #FFFF87",
"e 	c #FFFF79",
"f 	c #FFFF35",
"g 	c #FF6600",
"h 	c #FFFF3A",
"i 	c #E1702B",
"j 	c #FFB410",
"k 	c #FFFF69",
"l 	c #FFFF64",
"m 	c #FFFF2C",
"n 	c #FFFF33",
"o 	c #FFFF4B",
"p 	c #FFF843",
"q 	c #FFFE03",
"r 	c #FFF945",
"s 	c #FFFFB4",
"t 	c #FFFFC0",
"u 	c #FFFF96",
"v 	c #FFFF88",
"w 	c #FFF441",
"x 	c #FFFF51",
"y 	c #FFFF45",
"z 	c #FFFF6C",
"A 	c #FFFF6A",
"B 	c #FFFF66",
"C 	c #FFFF5C",
"D 	c #FFCC0D",
"E 	c #FFFF32",
"F 	c #FFFFB6",
"G 	c #FFFF00",
"H 	c #FFFE6A",
"I 	c #FFFF5A",
"J 	c #FFFF73",
"K 	c #FFFF7A",
"L 	c #FFFFC9",
"M 	c #FFFFD4",
"N 	c #FFFF9E",
"O 	c #FFFF8E",
"P 	c #FFFF8C",
"Q 	c #FFFE88",
"R 	c #FFB70E",
"S 	c #FFD822",
"T 	c #FFFE63",
"U 	c #FFFF75",
"V 	c #FFFF71",
"W 	c #FFFF8A",
"X 	c #FFB830",
"Y 	c #FFFF80",
"Z 	c #FFFF7D",
"` 	c #FFFF9B",
" .	c #FFFF85",
"..	c #FFFFA5",
"+.	c #FFFF7C",
"@.	c #FFFFA0",
"#.	c #FFFFD9",
"$.	c #FFFFC7",
"%.	c #FFFFD0",
"&.	c #FFFFC1",
"*.	c #FFFFC2",
"=.	c #FFFFAD",
"-.	c #FFFF7E",
";.	c #FFFF93",
">.	c #FFFF9C",
",.	c #FF9A1B",
"'.	c #FFFE92",
").	c #FFFFA9",
"!.	c #FFFFBB",
"~.	c #FFFFB0",
"{.	c #FFFFA7",
"].	c #FFFFE8",
"^.	c #FFFFFA",
"/.	c #FFFFFF",
"(.	c #FFFFF4",
"_.	c #FFFFFC",
":.	c #FFFFA8",
"<.	c #FFFFAC",
"[.	c #FFFFDF",
"}.	c #FFFE89",
"|.	c #FFA40D",
"1.	c #E40000",
"2.	c #FFFFA2",
"3.	c #FFFFD2",
"4.	c #FFFFBA",
"5.	c #FFFFD1",
"6.	c #FFFFAE",
"7.	c #FFFFB1",
"8.	c #FFFFA6",
"9.	c #FFFFE7",
"0.	c #FFFFFB",
"a.	c #FFFFE5",
"b.	c #FFFFEC",
"c.	c #FFFFC6",
"d.	c #FFFFC5",
"e.	c #FFFFDA",
"f.	c #FFFFCC",
"g.	c #FFFF4D",
"h.	c #FFFF91",
"i.	c #FFB42D",
"j.	c #FFD835",
"k.	c #FFFF34",
"l.	c #FFFF48",
"m.	c #FFFE68",
"n.	c #FFFFDC",
"o.	c #FFFFB3",
"p.	c #FFFFBD",
"q.	c #FFFFE2",
"r.	c #FFFF98",
"s.	c #FFFFBF",
"t.	c #FFFFF1",
"u.	c #FFFFE6",
"v.	c #FFFFF8",
"w.	c #FFFFED",
"x.	c #FFFFF9",
"y.	c #FFFFFD",
"z.	c #FFFF83",
"A.	c #FFFF89",
"B.	c #FFF604",
"C.	c #FFFF4F",
"D.	c #FFFF82",
"E.	c #FFFFCE",
"F.	c #FFFFC8",
"G.	c #FFFFEF",
"H.	c #FFFFF7",
"I.	c #FFFFD7",
"J.	c #FFFFEE",
"K.	c #FFFFE3",
"L.	c #FFFFEA",
"M.	c #FFFFA3",
"N.	c #FFFF52",
"O.	c #FFFF58",
"P.	c #FFB59C",
"Q.	c #FFDF1A",
"R.	c #FFFE6D",
"S.	c #FFFFF0",
"T.	c #FFFFC3",
"U.	c #FFFFF6",
"V.	c #FFE92D",
"W.	c #FFFF2E",
"X.	c #FFEE2B",
"Y.	c #FFFFCA",
"Z.	c #FFFFE9",
"`.	c #FFFFDD",
" +	c #FFFFE4",
".+	c #FFFFCF",
"++	c #FFFFDE",
"@+	c #FEFE02",
"#+	c #FFFF4A",
"$+	c #FFFF2A",
"%+	c #FFFF63",
"&+	c #FFFFD5",
"*+	c #FFFFCD",
"=+	c #FFFFF2",
"-+	c #FFFFF5",
";+	c #FFF69E",
">+	c #9F5500",
",+	c #FFF31A",
"'+	c #FFFF56",
")+	c #FFFF86",
"!+	c #FFFFB7",
"~+	c #FFFFF3",
"{+	c #FFFFBC",
"]+	c #FFFFA1",
"^+	c #FFEE00",
"/+	c #FFFF76",
"(+	c #FFFFFE",
"_+	c #FFFFD8",
":+	c #FFFFEB",
"<+	c #FFCA05",
"[+	c #FFB406",
"}+	c #FEDC15",
"|+	c #FFFFDB",
"1+	c #FFFF8F",
"2+	c #FFFF5F",
"3+	c #BE2503",
"4+	c #FFE927",
"5+	c #FFFF94",
"6+	c #FFFFB9",
"7+	c #FFFFBE",
"8+	c #FFFFD3",
"9+	c #FFFFB5",
"0+	c #FFFC2E",
"a+	c #FFF165",
"b+	c #FFFF37",
"c+	c #FFED2A",
"d+	c #FFFF42",
"e+	c #FFD816",
"f+	c #FFDD1E",
"g+	c #FFBA1F",
"h+	c #FFD011",
"i+	c #FFE497",
"j+	c #FF9306",
"k+	c #FFEC2D",
"l+	c #FFA800",
"m+	c #FFCB14",
"n+	c #FFCF11",
"o+	c #FFFF99",
"p+	c #FFFF78",
"q+	c #FFFF6D",
"r+	c #FFFD50",
"s+	c #FFB000",
"t+	c #FFB41D",
"u+	c #FFFF28",
"v+	c #FFFE75",
"w+	c #FFFFD6",
"x+	c #FFEF1D",
"y+	c #FFDC21",
"z+	c #FFF41B",
"A+	c #FFFF5B",
"B+	c #FFF71E",
"C+	c #FFFF6B",
"D+	c #FFFF74",
"E+	c #FFFF1D",
"F+	c #FFF914",
"G+	c #FFFF36",
"H+	c #FFFF13",
"I+	c #FFBF00",
"J+	c #FFD15B",
"K+	c #FFB600",
"L+	c #FFFF81",
"M+	c #FFFF9D",
"N+	c #FFFD4B",
"O+	c #FFFF8D",
"P+	c #FFF41D",
"Q+	c #FFBA00",
"R+	c #FFF91A",
"S+	c #FFFF5D",
"T+	c #FFFF1F",
"U+	c #FFFF84",
"V+	c #FFFF8B",
"W+	c #FFE42A",
"X+	c #E86E02",
"Y+	c #D3BB2F",
"Z+	c #FFF80C",
"`+	c #FFFF25",
" @	c #FFE541",
".@	c #D06600",
"+@	c #FFE033",
"@@	c #E39C5B",
"#@	c #FFDB4B",
"$@	c #FFFFCB",
"%@	c #FFFFE0",
"&@	c #FFFC42",
"*@	c #FEFF59",
"=@	c #FF6F00",
"-@	c #FFD02D",
";@	c #FFD61C",
">@	c #FF9149",
",@	c #FFFF9F",
"'@	c #FFFFE1",
")@	c #FFFFB2",
"!@	c #FFD97E",
"~@	c #FFBA1A",
"{@	c #FFFFAA",
"]@	c #FFFEC5",
"^@	c #FFFFC4",
"/@	c #FFFF57",
"(@	c #FFBF12",
"_@	c #FF9A00",
":@	c #FFFF72",
"<@	c #FFFF47",
"[@	c #E5761D",
"}@	c #FFBC0A",
"|@	c #FFFE93",
"1@	c #FFFB41",
"2@	c #FFD91D",
"3@	c #FFFE7C",
"4@	c #FFFFAB",
"5@	c #FFF45D",
"6@	c #D45202",
"7@	c #FFFF5E",
"8@	c #FFDF30",
"9@	c #EB9525",
"0@	c #FFFF77",
"a@	c #FFFE5F",
"b@	c #FFFF55",
"c@	c #FF8400",
"d@	c #FFE00E",
"e@	c #FF8C00",
"f@	c #FFF92F",
"g@	c #E46F19",
"h@	c #FFFF3F",
"i@	c #FFD85B",
"j@	c #FFDF8B",
"k@	c #FF7C00",
"l@	c #FFFB49",
"m@	c #FFFF31",
"n@	c #FFFF4C",
"o@	c #FFBC34",
"p@	c #FF7800",
"q@	c #FF6D00",
"r@	c #FFFF54",
"s@	c #FFF73C",
"t@	c #FFB50C",
"u@	c #FFFB14",
"v@	c #FF9E00",
"w@	c #FFF522",
"x@	c #FFFF2D",
"y@	c #D92F04",
"z@	c #FF6300",
"A@	c #FFFF70",
"B@	c #FFE624",
"C@	c #FFF207",
"D@	c #FFB316",
"E@	c #E10600",
"F@	c #FFFF40",
"G@	c #FFC819",
"H@	c #FFF42E",
"I@	c #D93508",
"J@	c #FFB908",
"K@	c #FFA100",
"L@	c #FFFF61",
"M@	c #FFBA26",
"N@	c #FFFF62",
"O@	c #E39500",
"P@	c #FFA200",
"Q@	c #FFC106",
"R@	c #FF6C00",
"S@	c #FFAC14",
"T@	c #FFB603",
"U@	c #FFCF45",
"V@	c #FFF82C",
"W@	c #FFBE97",
"X@	c #FFD258",
"Y@	c #FFBA23",
"                                                                                                    ",
"                                                                                                    ",
"                                                                                                    ",
"                                                                                                    ",
"                                                                                                    ",
"                                                                                                    ",
"                                                                                                    ",
"                                    . +       @ #   $                                               ",
"                                    % & *   = - ; > , '               ) !                           ",
"                                  ~ { ] ^   / ( _ : < [             } | 1 2                         ",
"                            3 4 5 6 7 8 9 0 a b c d e f   g         ! h i                           ",
"                        j k l m ; n ( o p q r s t u v w x y g   z A B C D E F                       ",
"                      G H : I J A x K ( o A A L M t N O P Q R S T U V V / W                         ",
"                        X W Y Z `  ...e +.O @.#.$.%.&.*.=.` -.J ;.b @.>.;.,.                        ",
"                          x '.@.).!.@.~.c N {.].^./.(._.&.!.:.<.[.<.{.{.}.                          ",
"                    c |.  1.2.3.4.5.6.s 7.7.8.9././.(.0.a.b.c.d.e.f.7.g.h.i.                        ",
"                    j.k.e l.m.4.a.n.o.p.q.s r.s.t./././.u.v.w.x.y.M b z.V (                         ",
"                  A._ B.C.z D...E.w.%.F.G.n.t F.b.H./.^./.I.J.K./.L.c.M.z.N.O.~.                    ",
"              P.Q.R.Z k g.@.W $.S.L.T.a././.].S./.y./.].[.E.*.U././.[.6.@.x V.                      ",
"            -.W.X.o h.W 4.c Y.Z.E.`.=.M /./.Z.x._./.b.Z. +I.K.U././..+++D.@+                        ",
"            #+] $+%+P ).&+4.L Y.b.[.*+*+=+/.S.-+_.b.[.E.#.x././.U.t.3.;+>+                          ",
"          F ,+& '+U )+7.`.u.!+K.5.U.t.G. +b.~+/..+a. +w.S./.H.J.{+]+A.                              ",
"              ^+k.z /+~.c.x.(+`. +L _+_.:+b.(+/.v.`.E..+y./.H.9.L {.z.<+                            ",
"                [+}+h.< o.0.H.|+L.M.c.H.b.v./././.-+I.&.t.0.a.&+*+t 1+2+                            ",
"                    3+4+5+d.6+|+M 7+I.8+]./././././././.J.I.t #.J.&+9+D.0+                          ",
"              a+b+V f c+/+O 6+.+S.=+ +%.S././././././.v.K.t.*+I.S.w.L.#.8.d+a.& K e+f+g+h+          ",
"              i+j+k+l+m+n+o+E.T.K.$.:+0././././././.(+0.0.:+q.K.|+].L.6+<.;.O K )+p+q+r+b+F         ",
"                s+t+u+$+v+2.*.*+w+c.E.S./././././.y.w./.L.x.].u./.0.Z.w+~.5+_ %+x+y+J               ",
"              F z+A+B+( z.$.L./.S.6+M 9.(.^.x.K./.y.q.:+!.b.++-+/./././.&.1+C+D+E+                  ",
"                  F+G+1+{.c.S.~+T.t (././.U.H.S./.e.8+/.3.e.t S./.].f.&.r.N.)+H+I+J+                ",
"                K+L+d M+:.7.p.E.|+Y._+/./._./.0.G.E.#.Z.u.d.4.*.Z.A.N+v v O+O P+Q+R+S+T+            ",
"              %+, U+8.V+O >.2.M+3.=.&+/./.0.U././.~+*+n.`.b.J.I.n.v W+X+Y+y Z+`+ @.@] 7 7.          ",
"              /+D++@@@& O.v+#@A+{+9+E.0./.:+/././.H.$@y.(.%@9.8+c.)+&@t       #+*@F.                ",
"                =@      -@;@  >@,@t :+/.0.y./.'@[.[.u././.(._+Z.)@V+!@          $                   ",
"                              ~@u !+b././.S.:+2 *..+M G.x.u.9.Y.2.5+{@]@                            ",
"                              ..P M+&+E.E.M F.^@^@s <.*.e.].s u )+/@/+C+(@                          ",
"                            _@O+W c ..c s ..{.d.@.-.6.L {+Y.d.Y :@<@u+D.z [@                        ",
"                          }@U ;.U v @.O+6.o+|@1@2@y S+3@O+4@M.L+5@  6@C.7@8@                        ",
"                          9@Z 0@a@b@A+A.6.<.p+c@d@l.e@P M+z.-.Y f@    g@y h@7.                      ",
"                          i@j@k@/+l@m@n@C.J S+o@p@q@  ..1+I u r@s@F                                 ",
"                                t@] u@v@h@w@g.x@y@  z@d+h@A@C B@                                    ",
"                                  C@D@E@F@G@g+H@I@    J@K@_@L@/ M@                                  ",
"                                N@S+O@  + P@Q@a R@          N.b@S@                                  ",
"                                {@T@        U@V@W@          X@Y@                                    ",
"                                                                                                    ",
"                                                                                                    ",
"                                                                                                    ",
"                                                                                                    ",
"                                                                                                    ",
"                                                                                                    "};
