/* XPM */
static char * exp4_xpm[] = {
"50 50 180 2",
"  	c None",
". 	c #FFB443",
"+ 	c #FFD284",
"@ 	c #FF6500",
"# 	c #FFFFF1",
"$ 	c #FFFF76",
"% 	c #FFFFFF",
"& 	c #FFDEA8",
"* 	c #FFD27E",
"= 	c #FFFFA0",
"- 	c #FFFFD2",
"; 	c #FFFFEF",
"> 	c #E26343",
", 	c #FFFFB1",
"' 	c #FFFEBB",
") 	c #FFFFEB",
"! 	c #FFFFE5",
"~ 	c #FFFFD6",
"{ 	c #FFFFBF",
"] 	c #FFDEA2",
"^ 	c #FFD2A6",
"/ 	c #FFF9BC",
"( 	c #FFFEE3",
"_ 	c #FFE356",
": 	c #FFFFAC",
"< 	c #FFFFE8",
"[ 	c #FFFFED",
"} 	c #FFFFFB",
"| 	c #FFC524",
"1 	c #FFFF8A",
"2 	c #FFD877",
"3 	c #FFFED4",
"4 	c #FFFFC4",
"5 	c #FFB436",
"6 	c #FFFFFC",
"7 	c #FFFFE0",
"8 	c #FFFFE3",
"9 	c #FFFF4A",
"0 	c #FFFF7E",
"a 	c #FFFEFF",
"b 	c #FFFFF6",
"c 	c #FFFFE9",
"d 	c #FFFFA9",
"e 	c #FFFFD4",
"f 	c #FFCD47",
"g 	c #FFCC8D",
"h 	c #FFFFAB",
"i 	c #FFFFC7",
"j 	c #FFC57F",
"k 	c #FFDCAE",
"l 	c #FFFFE4",
"m 	c #FFFFC5",
"n 	c #FFFFD7",
"o 	c #FFFFBC",
"p 	c #FFFFDA",
"q 	c #FFFFE2",
"r 	c #FFFFEC",
"s 	c #FFFFE6",
"t 	c #FFFFBE",
"u 	c #FFD895",
"v 	c #FFFFDE",
"w 	c #FFFFD3",
"x 	c #FFFFD1",
"y 	c #FFFECF",
"z 	c #FFFFFE",
"A 	c #FFFFE1",
"B 	c #FFFFF5",
"C 	c #FFFFF9",
"D 	c #FFFFF4",
"E 	c #FFFE93",
"F 	c #FFB453",
"G 	c #FFFFC1",
"H 	c #FFFF7B",
"I 	c #FFFFF8",
"J 	c #FFFFF7",
"K 	c #FFFFE7",
"L 	c #FFCC74",
"M 	c #FFFFB4",
"N 	c #FFFFFD",
"O 	c #FFFFDD",
"P 	c #FFFF73",
"Q 	c #FFFEBD",
"R 	c #FFFF8E",
"S 	c #FFFFAE",
"T 	c #FFFFC3",
"U 	c #FFFFF2",
"V 	c #FFFFC8",
"W 	c #FFCB62",
"X 	c #FFFFC0",
"Y 	c #FFFFF0",
"Z 	c #FFFFD5",
"` 	c #FFCCA9",
" .	c #FFFFD0",
"..	c #FFFFCA",
"+.	c #FFFE9D",
"@.	c #FFFFC6",
"#.	c #FFFFCD",
"$.	c #FFFFDB",
"%.	c #FFD799",
"&.	c #FFB449",
"*.	c #FFFFEE",
"=.	c #FFFF8C",
"-.	c #FFFDFF",
";.	c #FFFFB9",
">.	c #FFBB5B",
",.	c #FFAE5B",
"'.	c #FFD8BF",
").	c #FFFFD8",
"!.	c #FFFF9C",
"~.	c #FFFF83",
"{.	c #FFFFA3",
"].	c #FFD848",
"^.	c #FFE1A5",
"/.	c #FFD2A8",
"(.	c #FFFFB0",
"_.	c #FFFF47",
":.	c #FFFF9F",
"<.	c #FFFFA1",
"[.	c #FFFFA5",
"}.	c #FFFF96",
"|.	c #FFAD06",
"1.	c #FFBF8A",
"2.	c #FFDF8E",
"3.	c #FFAE67",
"4.	c #FFFFD9",
"5.	c #FFFFEA",
"6.	c #FFCB07",
"7.	c #FFCC78",
"8.	c #FFFF92",
"9.	c #FFFFA4",
"0.	c #FFFF60",
"a.	c #FFDC3E",
"b.	c #FFD2A9",
"c.	c #FFFFA7",
"d.	c #FFFFFA",
"e.	c #FFFFF3",
"f.	c #FFF974",
"g.	c #FFFF6F",
"h.	c #FFFFA8",
"i.	c #FFFFCB",
"j.	c #FFFF07",
"k.	c #FFFFC2",
"l.	c #FFBB84",
"m.	c #FFB675",
"n.	c #FFA000",
"o.	c #FFDE9D",
"p.	c #FFFF5A",
"q.	c #FFFFBD",
"r.	c #FFFF80",
"s.	c #FFFFCE",
"t.	c #FFF474",
"u.	c #FFCD51",
"v.	c #FF9A17",
"w.	c #FFFFDF",
"x.	c #FFFFCF",
"y.	c #FFDD8E",
"z.	c #FFFEE1",
"A.	c #FFFFB6",
"B.	c #FFFF02",
"C.	c #FFFF6B",
"D.	c #FFFEAD",
"E.	c #FF9A24",
"F.	c #FFE06C",
"G.	c #FFFF74",
"H.	c #FFFF87",
"I.	c #FFFFB7",
"J.	c #FFC861",
"K.	c #FFFF8B",
"L.	c #FFB45D",
"M.	c #FFFFCC",
"N.	c #FFD285",
"O.	c #FFD8A0",
"P.	c #FFFF2C",
"Q.	c #FFAD7E",
"R.	c #FFFF52",
"S.	c #FFFFB8",
"T.	c #FFB852",
"U.	c #FFD280",
"V.	c #FFB84E",
"W.	c #FF6E00",
"                                                                                                    ",
"                                                                                                    ",
"                                                                                                    ",
"                                                                                                    ",
"                                                                                                    ",
"                                                                                                    ",
"                                                                                                    ",
"                                                                                                    ",
"                                                                                                    ",
"                                      . +   @ # $ % & *                                             ",
"                                    = - ; > , ' ) ! ~ {             ] ^                             ",
"                                      / ( _ : < # [ } | 1         2 3 4                             ",
"                              5 6 7 ~ 8 9 0 a b % 6 c d e f   g - h i j                             ",
"                          ^ k : l m 4 n o p q % % % r r s t u v 7 n 8 w x                           ",
"                          4 y 7 ) ) z % % b b % % % % % % 6 b % b A B < %                           ",
"                            < w < % C 6 D % % % % % % % % % % % % 6 A E                             ",
"                        F G H v # % z I % % J % % % % % % % % % % B K ; L                           ",
"                      9 M ) x c J % % z % % % % % % % % % % % % % N b O P                           ",
"                    M Q R S T r z % % % % % % % % % % % % % % % % % C U x V                         ",
"                  W X i # C Y % % % % % % % % % % % % % % % % % % % % } Z %                         ",
"                ` V  .! I % % % % % % % % % % % % % % % % % % % % % % ..                            ",
"              +.@.#.7 $.r % % % % % % % % % % % % % % % % % % % z b %.                              ",
"                &.*.=.c Y % % % % % % % % % % % % % % % % % % % C % d                               ",
"                  -.;.O q % % % % % % % % % % % % % % % % % % % % % #                               ",
"                    >.,.K % N % % % % % % % % % % % % % % % % % % % } '.                            ",
"                  +.).!.{ K *.% % % % % % % % % % % % % % % % % % % % % % N ~.{.].^./.              ",
"                    (.M _.:.6 % % % % % % % % % % % % % % % % % % % % D # B O n <.o @.              ",
"                  [.X }.@.7 % % % % % % % % % % % % % % % % % % % % % N } p ).T |.1.                ",
"                    2.3.4.5.b % % % % % % % % % % % % % % % % % % % % % D z  .6.                    ",
"                  7.8.9.z 6 D % % % % % % % % % % % % % % % % % % 6 N % < : Y 0.a.b.                ",
"                  c.t < d.% Y b % z e.6 % % % % % % % 6 % % % % 6 {.f.I D O g.h.{ m                 ",
"                  9.7 X x i.v ! % % % % % % % % % % % % % % % % z T   j.h.k.c.  l.                  ",
"                    m.    n.o.p.% % % % % % % % % % % % % % % % % q.        @                       ",
"                              r.Y N % % % % % % z % % % % % % U B O K                               ",
"                                N e.z % % % % U N % % % % % C A s [ % X                             ",
"                              (.s.G 8 6 z % % % z A B % % % ; x @.t.% v u.                          ",
"                            v. .K s.Z w.5.% 6 ; x.k.w N I b 7 K e.  y.z.%                           ",
"                            %  .#.y e ) < [ Y A.B.  C.w e r x.8.D.    ) E.                          ",
"                            E.!   F.;.o e I :.G.H.    ) I.4., J.                                    ",
"                                    h 4.w.5.K.s.A     L.i % M.9.                                    ",
"                                  m *.  N.O.P.M Q.        R.S.b                                     ",
"                                  /.T.      { X ,         U.V.                                      ",
"                                              W.                                                    ",
"                                                                                                    ",
"                                                                                                    ",
"                                                                                                    ",
"                                                                                                    ",
"                                                                                                    ",
"                                                                                                    ",
"                                                                                                    "};
