/* XPM */
static char * exp2_xpm[] = {
"50 50 69 1",
" 	c None",
".	c #FFFEFD",
"+	c #FFFF93",
"@	c #FFFFFF",
"#	c #FFBB53",
"$	c #FFD780",
"%	c #FFFFFE",
"&	c #FFAD00",
"*	c #FFFFFD",
"=	c #FFFFE4",
"-	c #FFFFD9",
";	c #FFFFA7",
">	c #FFFF9F",
",	c #FFDA70",
"'	c #FFC251",
")	c #FFFFEC",
"!	c #FFFFEB",
"~	c #FFFFE5",
"{	c #A90000",
"]	c #FFFFBF",
"^	c #FFFFDE",
"/	c #FFFEFF",
"(	c #FFD571",
"_	c #FFFFC9",
":	c #EBBCB3",
"<	c #FFFFCF",
"[	c #FFFFF7",
"}	c #FFFFD4",
"|	c #FFD8B3",
"1	c #FFFFF2",
"2	c #FFFF74",
"3	c #FFFFBB",
"4	c #FFFFF5",
"5	c #FFFEFE",
"6	c #D41600",
"7	c #FFFF9A",
"8	c #FFFFCC",
"9	c #FFFFF6",
"0	c #FFBB52",
"a	c #FFC68E",
"b	c #FFFFF0",
"c	c #FFFEC7",
"d	c #FFCC9F",
"e	c #FFFFF3",
"f	c #FFDEAB",
"g	c #FFFFCA",
"h	c #FFFFD1",
"i	c #FFFFBD",
"j	c #FFFFF4",
"k	c #FFFFCE",
"l	c #EBB885",
"m	c #FFCD97",
"n	c #FFB200",
"o	c #FFDDBC",
"p	c #FFDEA6",
"q	c #FFFF81",
"r	c #EABF93",
"s	c #FFD35E",
"t	c #FFCD8B",
"u	c #FFFF4F",
"v	c #FFFFF8",
"w	c #FFB46E",
"x	c #FFDAA2",
"y	c #FFCA9B",
"z	c #FFBB51",
"A	c #FFCE5B",
"B	c #FFDCA6",
"C	c #FFDEA0",
"D	c #FFFFAC",
"                                                  ",
"                                                  ",
"                                                  ",
"                                                  ",
"                                                  ",
"                                                  ",
"                                                  ",
"                                                  ",
"                                                  ",
"                                                  ",
"                                                  ",
"                    .  +@+.                       ",
"                   #@$@@%@@&     .                ",
"                    *=@@@@%-;>  ,@'               ",
"                 @+ )@@@@@@@@@!@~@{               ",
"               ]^%@@@@@@@@@@@@@@@/(               ",
"               _@@@@@@@@@@@@@@@@@@:               ",
"               <[@@@@@@@@@@@@@@@@@}               ",
"              |@1@@@@@@@@@@@@@@@@@@2              ",
"            3@@@@@@@@@@@@@@@@@@@@@%@              ",
"            /@@@@@@@@@@@@@@@@@@@@@@               ",
"           %@@@@@@@@@@@@@@@@@@@@@4                ",
"          #@@@@@@@@@@@@@@@@@@@@@@@~               ",
"           .@5@@@@@@@@@@@@@@@@@@@@)               ",
"            6@@@@@@@@@@@@@@@@@@@@@@@7             ",
"            '@@@@@@@@@@@@@@@@@@@@@@@@8@           ",
"             @9@@@@@@@@@@@@@@@@@@@@@@@@#          ",
"            0@@@@@@@@@@@@@@@@@@@@@@@@a.           ",
"             b@@@@@@@@@@@@@@@@@@@@@@c@d           ",
"           #@%@@@@@@@@@@@@@@@@@@@@@@e@f           ",
"            @@g@@@@@@@@@@@@@@@@@@h @i@            ",
"             7 i@@@@@@@@@@@@@@@@@                 ",
"                j@@@@@@@@@@@@@@@@k                ",
"                l@@@@@@@@@@@@@@%/@m               ",
"               n@@@@@@@@@@@@@@| o@p               ",
"               q/h@*@@@@rs@@@@   @                ",
"                @t u@@v@w x/@@y                   ",
"                  z@4@k@A   B@C                   ",
"                   @@@D@f   d@                    ",
"                       %                          ",
"                                                  ",
"                                                  ",
"                                                  ",
"                                                  ",
"                                                  ",
"                                                  ",
"                                                  ",
"                                                  ",
"                                                  ",
"                                                  "};
