/* XPM */
static char * exp9_xpm[] = {
"50 50 577 2",
"  	c None",
". 	c #FFC820",
"+ 	c #FF8501",
"@ 	c #FF8F00",
"# 	c #AC2415",
"$ 	c #C45B0F",
"% 	c #FFE500",
"& 	c #E41607",
"* 	c #FFBC20",
"= 	c #FF5700",
"- 	c #FF9E00",
"; 	c #CB260D",
"> 	c #E43D07",
", 	c #FF6C00",
"' 	c #FFD600",
") 	c #FFA200",
"! 	c #FFCD00",
"~ 	c #A56217",
"{ 	c #FF8000",
"] 	c #FFB400",
"^ 	c #FFC320",
"/ 	c #BB5F11",
"( 	c #FFB900",
"_ 	c #FF3A00",
": 	c #FE3000",
"< 	c #C9000E",
"[ 	c #FFD100",
"} 	c #FFC900",
"| 	c #FFE800",
"1 	c #FFF200",
"2 	c #FFCF00",
"3 	c #EE5E04",
"4 	c #BE0210",
"5 	c #FF9B00",
"6 	c #EB4505",
"7 	c #FFBF32",
"8 	c #FFC522",
"9 	c #FF8700",
"0 	c #EB6705",
"a 	c #FFA600",
"b 	c #FF2300",
"c 	c #FF6D00",
"d 	c #FF3500",
"e 	c #FF4C00",
"f 	c #FF5F00",
"g 	c #B90F0D",
"h 	c #FFDE03",
"i 	c #FFFF2A",
"j 	c #FFFF16",
"k 	c #FFF505",
"l 	c #FFF300",
"m 	c #FFC300",
"n 	c #9F0114",
"o 	c #D6590B",
"p 	c #FF8E00",
"q 	c #FF4800",
"r 	c #FC7001",
"s 	c #A50E16",
"t 	c #CE140C",
"u 	c #9E1B12",
"v 	c #FFAC20",
"w 	c #CD750D",
"x 	c #FFE400",
"y 	c #FFEB00",
"z 	c #FFCB00",
"A 	c #FF9900",
"B 	c #FF9700",
"C 	c #FFAE00",
"D 	c #FF4F00",
"E 	c #FEC200",
"F 	c #FF2F00",
"G 	c #FFFF1A",
"H 	c #FFFF61",
"I 	c #FFFF25",
"J 	c #FFFF29",
"K 	c #FFFF0E",
"L 	c #FFF100",
"M 	c #FFA800",
"N 	c #FFCE00",
"O 	c #E18908",
"P 	c #FF8A00",
"Q 	c #FF9200",
"R 	c #FFC000",
"S 	c #FFB100",
"T 	c #D52A0A",
"U 	c #B38213",
"V 	c #FFFF04",
"W 	c #FFFB05",
"X 	c #FFEC00",
"Y 	c #FFF803",
"Z 	c #FFDF05",
"` 	c #FFC600",
" .	c #FFFE20",
"..	c #FFFF67",
"+.	c #FFFF56",
"@.	c #FFFF45",
"#.	c #FFFF2D",
"$.	c #FFFF05",
"%.	c #FFFF09",
"&.	c #E46703",
"*.	c #FFE200",
"=.	c #FFDC00",
"-.	c #FFF904",
";.	c #FFB500",
">.	c #FF9000",
",.	c #BC0011",
"'.	c #FF8800",
").	c #FFF802",
"!.	c #FFFF11",
"~.	c #FFFB0C",
"{.	c #FFFF35",
"].	c #FFFF24",
"^.	c #FFD500",
"/.	c #FFFF22",
"(.	c #FFFF66",
"_.	c #FFFF84",
":.	c #FFFF78",
"<.	c #FFFF59",
"[.	c #FFFF41",
"}.	c #FEE800",
"|.	c #FFA900",
"1.	c #FFF928",
"2.	c #FFF801",
"3.	c #FFF400",
"4.	c #FFBC00",
"5.	c #FFFE17",
"6.	c #FFFF26",
"7.	c #FFFF34",
"8.	c #FFFF2E",
"9.	c #FFF918",
"0.	c #FFFF06",
"a.	c #FFFF1C",
"b.	c #FFFF37",
"c.	c #FFFF6D",
"d.	c #FFFFB4",
"e.	c #FFFFB0",
"f.	c #FFFF7A",
"g.	c #FFFF6A",
"h.	c #FFFF32",
"i.	c #FFFF0B",
"j.	c #FFFF31",
"k.	c #FFFF27",
"l.	c #FFFF63",
"m.	c #FF9C15",
"n.	c #FFCB21",
"o.	c #FF5E00",
"p.	c #FF1800",
"q.	c #FFC203",
"r.	c #FFF22D",
"s.	c #FFFF58",
"t.	c #FFFF62",
"u.	c #FFFF42",
"v.	c #FFFF3E",
"w.	c #FFFF36",
"x.	c #FFFF47",
"y.	c #FFFFC2",
"z.	c #FFFFEA",
"A.	c #FFFFC0",
"B.	c #FFFFA8",
"C.	c #FFFF71",
"D.	c #FFFF52",
"E.	c #FFFF53",
"F.	c #FFFF4F",
"G.	c #FFFF2F",
"H.	c #FFFF60",
"I.	c #FFFF3A",
"J.	c #FFFF1D",
"K.	c #FF7400",
"L.	c #FFA918",
"M.	c #FFAC00",
"N.	c #FF2800",
"O.	c #FFDD00",
"P.	c #FFFFA6",
"Q.	c #FFFF79",
"R.	c #FFFF50",
"S.	c #FFFF54",
"T.	c #FFFF5C",
"U.	c #FFFF44",
"V.	c #FFFFA4",
"W.	c #FFFFFF",
"X.	c #FFFFF6",
"Y.	c #FFFFD0",
"Z.	c #FFFF8D",
"`.	c #FFFF9A",
" +	c #FFFF9E",
".+	c #FFFF75",
"++	c #FFFF55",
"@+	c #FFFF0F",
"#+	c #FFED00",
"$+	c #FFDA00",
"%+	c #FF5200",
"&+	c #D42D0B",
"*+	c #FFC918",
"=+	c #FF9903",
"-+	c #FF8300",
";+	c #FFD000",
">+	c #FFE601",
",+	c #FFFF1E",
"'+	c #FFFF64",
")+	c #FFFF5F",
"!+	c #FFFF8E",
"~+	c #FFFF43",
"{+	c #FFFF72",
"]+	c #FFFF92",
"^+	c #FFFFE9",
"/+	c #FFFFF1",
"(+	c #FFFFCC",
"_+	c #FFFF80",
":+	c #FFFF8F",
"<+	c #FFFF7D",
"[+	c #FFFF8A",
"}+	c #FFFF76",
"|+	c #FFFF1B",
"1+	c #FFB200",
"2+	c #FFC100",
"3+	c #FF9400",
"4+	c #FFBD00",
"5+	c #FFF603",
"6+	c #FFAB00",
"7+	c #FFE100",
"8+	c #FFE316",
"9+	c #FFFE00",
"0+	c #FFFF81",
"a+	c #FFFF7B",
"b+	c #FFFFA7",
"c+	c #FFFF7E",
"d+	c #FFFF68",
"e+	c #FFFF9F",
"f+	c #FFFFC7",
"g+	c #FFFF8C",
"h+	c #FFFF96",
"i+	c #FFFF73",
"j+	c #FFFFB1",
"k+	c #FFFFBF",
"l+	c #FFFF99",
"m+	c #FFFF39",
"n+	c #FFF208",
"o+	c #FFB518",
"p+	c #E20007",
"q+	c #FFE700",
"r+	c #FFFE13",
"s+	c #FFFF0A",
"t+	c #FFFF21",
"u+	c #FFD905",
"v+	c #FFCA00",
"w+	c #FFFF4E",
"x+	c #FFFF51",
"y+	c #FFFF90",
"z+	c #FFFFC8",
"A+	c #FFFFBD",
"B+	c #FFFF86",
"C+	c #FFFF98",
"D+	c #FFFF97",
"E+	c #FFFF77",
"F+	c #FFFFA0",
"G+	c #FFFF6F",
"H+	c #FFFFCD",
"I+	c #FFFFD4",
"J+	c #FFFF4B",
"K+	c #FFF913",
"L+	c #D3590B",
"M+	c #FFB000",
"N+	c #FFFC05",
"O+	c #FFFD35",
"P+	c #FFFF23",
"Q+	c #FFFF6B",
"R+	c #FFFFBE",
"S+	c #FFFFA5",
"T+	c #FFFFA9",
"U+	c #FFFF69",
"V+	c #FFFFAA",
"W+	c #FFFFD3",
"X+	c #FFFFD5",
"Y+	c #FFFF93",
"Z+	c #FFFF82",
"`+	c #FFF21F",
" @	c #FF8100",
".@	c #FF6A00",
"+@	c #FFBE00",
"@@	c #FFFF49",
"#@	c #FFFF91",
"$@	c #FFFFAB",
"%@	c #FFFFA2",
"&@	c #FFFF87",
"*@	c #FFFFCA",
"=@	c #FFFFC4",
"-@	c #FFFFAF",
";@	c #FE7B00",
">@	c #FEBF00",
",@	c #FFB300",
"'@	c #FFFFAD",
")@	c #FFFF8B",
"!@	c #FFFF7C",
"~@	c #FFFFA3",
"{@	c #FFFF89",
"]@	c #FFFF94",
"^@	c #FFFF88",
"/@	c #FFFFB8",
"(@	c #FFFFFB",
"_@	c #FFFFD6",
":@	c #FFFF6E",
"<@	c #FFFE0C",
"[@	c #56142A",
"}@	c #C26C0F",
"|@	c #FF9600",
"1@	c #FFFF5B",
"2@	c #FFFF7F",
"3@	c #FFFF9C",
"4@	c #FFFFAC",
"5@	c #FFFFDB",
"6@	c #FFFFDA",
"7@	c #FFFF65",
"8@	c #FFFFE6",
"9@	c #FFFF30",
"0@	c #FFF707",
"a@	c #EB8102",
"b@	c #CC5F0D",
"c@	c #BF3B10",
"d@	c #FF6B00",
"e@	c #FEFD00",
"f@	c #FFFB1A",
"g@	c #FFFF95",
"h@	c #FFFFD9",
"i@	c #FFFFFC",
"j@	c #FFFF85",
"k@	c #FFFF70",
"l@	c #FFFF3C",
"m@	c #FFFF02",
"n@	c #D9280A",
"o@	c #FFFFC5",
"p@	c #FFFFCF",
"q@	c #FFFFFA",
"r@	c #FFFFF7",
"s@	c #FFFFC9",
"t@	c #FFFFC1",
"u@	c #FFFFA1",
"v@	c #FFFF20",
"w@	c #C3680C",
"x@	c #7D0920",
"y@	c #FEDB00",
"z@	c #FF5C00",
"A@	c #E61306",
"B@	c #B21313",
"C@	c #A11118",
"D@	c #FF9300",
"E@	c #FFF207",
"F@	c #FFFFED",
"G@	c #FFFF74",
"H@	c #FFFE3A",
"I@	c #FFDD05",
"J@	c #FE6C00",
"K@	c #D49D0B",
"L@	c #DF1108",
"M@	c #D4220B",
"N@	c #E75D06",
"O@	c #FF0000",
"P@	c #FF3200",
"Q@	c #FFB800",
"R@	c #FFA700",
"S@	c #BF340E",
"T@	c #F31A03",
"U@	c #D8000A",
"V@	c #A30F17",
"W@	c #FF6400",
"X@	c #FFF900",
"Y@	c #FFFFEF",
"Z@	c #FFFFF9",
"`@	c #FFFFC3",
" #	c #FFFFB2",
".#	c #FFE000",
"+#	c #FF8500",
"@#	c #FFD800",
"##	c #FFBA00",
"$#	c #FFEA00",
"%#	c #FFA400",
"&#	c #BA090E",
"*#	c #CE430D",
"=#	c #FF6300",
"-#	c #FE8500",
";#	c #FFFF14",
">#	c #FFFF4D",
",#	c #FFFF57",
"'#	c #FFFFF5",
")#	c #FFFFFD",
"!#	c #FFFFB9",
"~#	c #FFFF9B",
"{#	c #FFB600",
"]#	c #FFC800",
"^#	c #FD3101",
"/#	c #FF7A00",
"(#	c #FF8600",
"_#	c #FF5100",
":#	c #FF2A00",
"<#	c #FF9C00",
"[#	c #FFFFDC",
"}#	c #FFFFE0",
"|#	c #FFFFE8",
"1#	c #FFF104",
"2#	c #C35C0F",
"3#	c #EB6F05",
"4#	c #FF7C00",
"5#	c #FFFC0F",
"6#	c #FFFF4C",
"7#	c #FFFFB5",
"8#	c #FFFF83",
"9#	c #FFFFB3",
"0#	c #FFFFD1",
"a#	c #FFFF33",
"b#	c #FFFC0B",
"c#	c #FFEC1A",
"d#	c #E96C03",
"e#	c #F22103",
"f#	c #FF5000",
"g#	c #FFED02",
"h#	c #FFF804",
"i#	c #FFFF2B",
"j#	c #FFFF3D",
"k#	c #FFFFB7",
"l#	c #FFDE05",
"m#	c #FFFB07",
"n#	c #FF8400",
"o#	c #F92602",
"p#	c #2F3434",
"q#	c #9B1919",
"r#	c #D8090A",
"s#	c #F20A03",
"t#	c #EE4904",
"u#	c #FFFC07",
"v#	c #FFFA01",
"w#	c #FFFF1F",
"x#	c #FFFB0F",
"y#	c #FFFFDF",
"z#	c #FFFF40",
"A#	c #FFFA14",
"B#	c #E45507",
"C#	c #D5800A",
"D#	c #FFDF00",
"E#	c #FF8200",
"F#	c #FB2501",
"G#	c #EE0704",
"H#	c #C5170E",
"I#	c #E71906",
"J#	c #FFAA00",
"K#	c #FFE900",
"L#	c #FFE101",
"M#	c #FF7E00",
"N#	c #FF6600",
"O#	c #FFE406",
"P#	c #FFFC2A",
"Q#	c #FFFFBA",
"R#	c #FFFFAE",
"S#	c #FFFFCB",
"T#	c #FFFA08",
"U#	c #FFD400",
"V#	c #C05910",
"W#	c #AF0012",
"X#	c #DD0008",
"Y#	c #F82E02",
"Z#	c #FFC500",
"`#	c #E06908",
" $	c #EE2B04",
".$	c #FF6800",
"+$	c #A72916",
"@$	c #FF3600",
"#$	c #C2470F",
"$$	c #FFE600",
"%$	c #FFE801",
"&$	c #EF6B04",
"*$	c #E52007",
"=$	c #FFA518",
"-$	c #D4380B",
";$	c #FFFF4A",
">$	c #FFD700",
",$	c #FFCE24",
"'$	c #FFA202",
")$	c #FFFF15",
"!$	c #FFF700",
"~$	c #FFC200",
"{$	c #FF7900",
"]$	c #E72B06",
"^$	c #FFF60D",
"/$	c #FFF516",
"($	c #FF7700",
"_$	c #C4160F",
":$	c #FFA000",
"<$	c #FFF303",
"[$	c #FFFF2C",
"}$	c #FFE907",
"|$	c #FFB607",
"1$	c #FFFF10",
"2$	c #FFE707",
"3$	c #FF6E00",
"4$	c #9F2E18",
"5$	c #FFFD00",
"6$	c #FFF317",
"7$	c #FFFE0D",
"8$	c #FFFF0D",
"9$	c #D65909",
"0$	c #FF6900",
"a$	c #FFE207",
"b$	c #FFFF28",
"c$	c #FFFF3F",
"d$	c #E04308",
"e$	c #CA0E0D",
"f$	c #FFD900",
"g$	c #DA7109",
"h$	c #FEA800",
"i$	c #FF9500",
"j$	c #FFEF01",
"k$	c #FFF006",
"l$	c #FFF107",
"m$	c #FFF405",
"n$	c #FFA500",
"o$	c #B5A612",
"p$	c #E46807",
"q$	c #FFC400",
"r$	c #B00C14",
"s$	c #FFFC16",
"t$	c #FFFC06",
"u$	c #C7360E",
"v$	c #89251E",
"w$	c #DF1508",
"x$	c #C9050D",
"y$	c #FFBF00",
"z$	c #FFCE09",
"A$	c #D85F0A",
"B$	c #DC0003",
"C$	c #FE9E20",
"D$	c #FF3D00",
"E$	c #FF9F00",
"F$	c #FFF500",
"G$	c #FFE300",
"H$	c #F06104",
"I$	c #C3840F",
"J$	c #FF9501",
"K$	c #FE3200",
"L$	c #FF7F00",
"M$	c #D90709",
"N$	c #D9300A",
"O$	c #FA2401",
"P$	c #F13A04",
"Q$	c #B10F13",
"R$	c #FA4A01",
"S$	c #FF2B00",
"T$	c #FFBB00",
"U$	c #FF9100",
"V$	c #FF8D00",
"W$	c #F61C02",
"X$	c #C90E0E",
"Y$	c #F82802",
"Z$	c #88641E",
"`$	c #CA0D0D",
" %	c #572A2A",
".%	c #E52D07",
"+%	c #BB0611",
"@%	c #C3180F",
"#%	c #C1400D",
"$%	c #CD160D",
"%%	c #C4460F",
"&%	c #671626",
"*%	c #ED0805",
"=%	c #911A1B",
"-%	c #FF2E00",
";%	c #FFF000",
">%	c #E44F07",
",%	c #F57E02",
"'%	c #FE9A20",
")%	c #FF6000",
"!%	c #9F2818",
"~%	c #FF5D00",
"{%	c #FEDC00",
"]%	c #8D671D",
"^%	c #FFA100",
"/%	c #B35D13",
"(%	c #EA8305",
"_%	c #CD3B0D",
":%	c #FFCA5F",
"                                                                                                    ",
"                                                                                                    ",
"                                                                                                    ",
"                                                                                                    ",
"                                                                                                    ",
"                                                .                                                   ",
"                                  + @ #       $ % & *                                               ",
"                                  = - ;     > , ' ) ! ~                 { ]                         ",
"                              ^ / ( _ :   < [ } | 1 2 3               4 5 6                         ",
"                      7 8 9 0 a b c d e f g h i j k l m n o p     q r s t   u v                     ",
"                    w x y z | m A B C D E F G H I J K L M N O   P Q R P S T 9 a                     ",
"                    U x V W X Y % Z L M ( `  ...+.@.#.$.%.1 &.  9 *.=.l -.;.>.,.                    ",
"                      '.X %.).!.~.X {.].N ^./.(._.:.<.].[.K }.|.$.1.2.G 3.4.                        ",
"                        m 5.J 6.7.8.{.9.0.a.b.c.d.e.f.+.g.h.a.i.I j.k k.l.m.                        ",
"                  n.o.  p.q.r.s.t.u.v.b.h.w.x.H y.z.A.B.C.D.E.F.G.H.I.J.K.  L.                      ",
"                  M.` N.} O.X P.Q.R.S.(.T.U.w.f.V.W.X.Y.B.Z.`. +.+_.++@+#+] $+%+                    ",
"              &+*+=+-+;+$+>+,+C.'+l.)+C.!+H.~+{+]+^+W./+(+d._+:+<+[+}+v.|+X 1+2+3+                  ",
"              4+| 5+6+7+8+9+,+0+:.[+{+a+b+c+d+<+!+e+^+f+g+h+t.i+j+k+l+{+m+n+l A                     ",
"          o+p+4+q+r+s+t+u+v+,+w+[+x+++y+z+A+B+l+y+C+D+E+B+F+G+a+H+I+D+(.J+K+L+                      ",
"          2 M+|.O.N+O+P+b.F.t.u.{+t.U.Q+z+R+f.S+z+T+Z.U+c.S+ +V+W+X+Y+Z+`+ @                        ",
"        .@+@M+' 3.w.++)+@@<.#@}+..}+0+_.$@V+#@b+%@:+C+&@_+*@=@-@D+f.I.u.;@                          ",
"        >@K.,@2+3.k.[.}+]+!+'@#@l.B+-@)@!@_+l+~@{@]@^@^@/@(@_@^@g+:@J+<@*.[@                        ",
"          }@|@[ A t+i 1@)@~@2@h+J+E.3@]+:@4@5@6@=@_.d+7@e+8@f+f.g.i+9@0@a@                          ",
"            D b@c@d@e@f@a+g+Q+<.@.t.g@)@:+h@W.i@H+B.#@_.j@Z.B+E+(.k@l@m@                            ",
"                    n@z h.J+s.E.U+E+!+S+o@p@q@W.W.r@s@t@u@:.7@H.Q.0+I.v@w@x@                        ",
"          >.y@z@A@B@C@D@E@h.B+y+h+B+i+!+h@F@W.W.W.W.F@B.]@ +[+{+H <+G@!@H@I@J@K@L@M@N@O@P@Q@        ",
"            R@S@T@U@V@W@X@u.H g@&@c.E+$@Y@W.Z@W.W.W.`@ #u@`.V.D+_.l.k@a+l@P+I .# @+#@###$#7+%#      ",
"              &#*#=#-#7+;#>#,#:@t.d+g.u@'#W.)#W.W.(+4@!#e+u@b+:.y+g+~#s.i J G $#{#]#^#/#|.(#_#      ",
"            4+2 :#<#3.I H.&@-@<+R.)+U+Y+[#X.}#}#|#4@0+Y+c+l+f.f.`@R+j+E+E.~+$.1#$+2 2#              ",
"              3#4#2 5#6#U+[+7#_+U.8#3@<+-@u@S+9#0#Z.8#:+8#:+&@j@X+Y.k@c.a#b#C c#d#e#                ",
"              f#g#h#i#{.j#s.!@2@f.!@$@o@!#3@t@f+S+j@Z.k#'@)@t.>#++l.s+l#m#0.N n#o#p#q#r#s#          ",
"            t#! u#v#w#x#;#J u.1@t.d+e+y#8@0#h@/@[+E+g+~#<+c.w+T.z#A#' B#C#N D#E#F#G#H#I#@ J#        ",
"          ( K#%#L#M#N#M+X@O#M+P#U.G+D+R+Q#0+R#0#S#!+{+Z+[+!@}+^@l@T#U#V#  W#  X#Y#Z#`# $6 .$        ",
"            5 +$@$  #$$$S 9+e %$6.E.!@s@Y.A.'@Y+-@l+Q.j@V.t.F.'+l@j 7+&$        *$M.%#              ",
"                      =$-$    Z#{.c.k#7#k#k+4@}+)@!+<.!+C+E.;$d+m+v.>$,$                            ",
"                              '$/.B+8#,#i+{@!@[.@.x+@.T.0+#@!+l.9@)$!$~${$                          ",
"                            ]$^$/.H d+P+u.E.H [./$J.8.U.U+~#G+].5.L 1 ($=#b                         ",
"                          _$:$<$|+d+E.[$[$G.6.}$Q <#|$1$S.(.t.i 2$.#Z#3${ o.4$                      ",
"                          W@N 5$6$h.@.w#7$s+8$9$M#4#0$a$k.b$c$P+;+d$  e$d@f$R@                      ",
"                        g$h$i$L % 7+j$k$l$m$n$o$p$q$r$p s$!.$.t$$+u$    v$1++@w$                    ",
"                        |.M.x$| [ 6+5 y$z$+#A$  B$C$  D$E$B F$G$O.H$      I$D@J$                    ",
"                          K$  h$L$M$N$y$O$P$Q$        R$+@S$T$C Q U$                                ",
"                              V$W$X$  Y$= Z$`$ %      .%>.+%W@M @%                                  ",
"                                #%$%  %%.#&%*%=%            -%;%>%                                  ",
"                                n#,%    '%  )%!%            ~%{%]%                                  ",
"                                ^%/%        ^.(%              %#_%                                  ",
"                                            :%                                                      ",
"                                                                                                    ",
"                                                                                                    ",
"                                                                                                    "};
