/* XPM */
static char * exp7_xpm[] = {
"50 50 464 2",
"  	c None",
". 	c #FFDC94",
"+ 	c #FFEC1E",
"@ 	c #FFFFFF",
"# 	c #FFFF20",
"$ 	c #D28F11",
"% 	c #FFDB14",
"& 	c #FFFF34",
"* 	c #FFF800",
"= 	c #FFB514",
"- 	c #FF8500",
"; 	c #FF6E00",
"> 	c #FFE605",
", 	c #FFA801",
"' 	c #D4000B",
") 	c #FF9013",
"! 	c #FFFB2E",
"~ 	c #FFFF52",
"{ 	c #FFF50E",
"] 	c #FFFF45",
"^ 	c #FFE304",
"/ 	c #FFD500",
"( 	c #FFFF1D",
"_ 	c #FFFEFF",
": 	c #FFFF2A",
"< 	c #FF7C00",
"[ 	c #FFFC28",
"} 	c #FFD200",
"| 	c #FFB300",
"1 	c #FF5800",
"2 	c #FFFF4B",
"3 	c #FFFF58",
"4 	c #FFFF5C",
"5 	c #FFFF4E",
"6 	c #FFFF49",
"7 	c #FF9D09",
"8 	c #FF2F00",
"9 	c #FFCC00",
"0 	c #FFD006",
"a 	c #FEC129",
"b 	c #FFB822",
"c 	c #FFDC3B",
"d 	c #FFFF15",
"e 	c #FFD922",
"f 	c #FFE005",
"g 	c #FFFD1E",
"h 	c #FFB920",
"i 	c #D55304",
"j 	c #FFFF39",
"k 	c #FFFF85",
"l 	c #FFFF56",
"m 	c #FFF43C",
"n 	c #EB7302",
"o 	c #FFDF0F",
"p 	c #FFF68D",
"q 	c #FFBE5B",
"r 	c #FF9200",
"s 	c #FFF20B",
"t 	c #D11A0B",
"u 	c #FF7200",
"v 	c #FFFF2F",
"w 	c #FFFF67",
"x 	c #FFFF46",
"y 	c #FFFF4A",
"z 	c #FFFF2C",
"A 	c #FFD900",
"B 	c #FFFF33",
"C 	c #FFFF0A",
"D 	c #FFD508",
"E 	c #FFFFB2",
"F 	c #FFFFA2",
"G 	c #FFFF8A",
"H 	c #FFFF6C",
"I 	c #FFFF2E",
"J 	c #FFFF36",
"K 	c #FFFF28",
"L 	c #FE9C5E",
"M 	c #FFFF55",
"N 	c #FFFE26",
"O 	c #FFFF19",
"P 	c #FFDE00",
"Q 	c #FFFF03",
"R 	c #EB9917",
"S 	c #FFFE4F",
"T 	c #FFFF71",
"U 	c #FFFF21",
"V 	c #FFFF80",
"W 	c #FFFF27",
"X 	c #FFFF47",
"Y 	c #FFFF59",
"Z 	c #FFFFC0",
"` 	c #FFFF9A",
" .	c #FFFFA6",
"..	c #FFFF76",
"+.	c #FFFF6F",
"@.	c #FFFF63",
"#.	c #FFF002",
"$.	c #D0C224",
"%.	c #FFFE47",
"&.	c #FFFF4F",
"*.	c #FFFF48",
"=.	c #FFFF38",
"-.	c #FFFF6A",
";.	c #FFDD48",
">.	c #FFFF41",
",.	c #FFFF6B",
"'.	c #FFFF7F",
").	c #FFFF81",
"!.	c #FFFF7A",
"~.	c #FFFF3F",
"{.	c #FFFF60",
"].	c #FFFF69",
"^.	c #FFFFC1",
"/.	c #FFFFC4",
"(.	c #FFFFA9",
"_.	c #FFFF9F",
":.	c #FFFF94",
"<.	c #FFFF77",
"[.	c #FFFF50",
"}.	c #FFFF89",
"|.	c #FFFF8C",
"1.	c #FFFF87",
"2.	c #FFFF57",
"3.	c #FF9A08",
"4.	c #FFFF86",
"5.	c #FFFF83",
"6.	c #FFFF8B",
"7.	c #FFFF70",
"8.	c #FFFF6D",
"9.	c #FFFF7D",
"0.	c #FFFFBA",
"a.	c #FFFFF8",
"b.	c #FFFFF5",
"c.	c #FFFFE5",
"d.	c #FFFFB7",
"e.	c #FFFF9E",
"f.	c #FFFFA4",
"g.	c #FFFF92",
"h.	c #FFFF7B",
"i.	c #FFB75D",
"j.	c #FFA200",
"k.	c #FFB523",
"l.	c #FFFF9B",
"m.	c #FFFF8F",
"n.	c #FFFFAC",
"o.	c #FFFF8E",
"p.	c #FFFFB0",
"q.	c #FFFFFC",
"r.	c #FFFFEF",
"s.	c #FFFFC5",
"t.	c #FFFFCE",
"u.	c #FFFFAD",
"v.	c #FFFFD6",
"w.	c #FFFF93",
"x.	c #FFEB19",
"y.	c #FFFF30",
"z.	c #FFF39C",
"A.	c #FFA35E",
"B.	c #FFAF01",
"C.	c #FFE100",
"D.	c #FFF30E",
"E.	c #FFFE49",
"F.	c #FFFF5D",
"G.	c #FFFFB5",
"H.	c #FFFFCD",
"I.	c #FFFFA7",
"J.	c #FFFFD9",
"K.	c #FFFFF9",
"L.	c #FFFFF1",
"M.	c #FFFFE0",
"N.	c #FFFFE1",
"O.	c #FFFFCF",
"P.	c #FFFF3E",
"Q.	c #FFCF00",
"R.	c #FFF81F",
"S.	c #FFFF3B",
"T.	c #FFE210",
"U.	c #FFF520",
"V.	c #FFFFBE",
"W.	c #FFFFAB",
"X.	c #FFFFD3",
"Y.	c #FFFFC3",
"Z.	c #FFFFB1",
"`.	c #FFFFD7",
" +	c #FFFFF3",
".+	c #FFFFD0",
"++	c #FFFFCA",
"@+	c #FFFFCB",
"#+	c #FFFFC9",
"$+	c #FFFF96",
"%+	c #FEFF23",
"&+	c #FFFF9D",
"*+	c #FF1B00",
"=+	c #FFC500",
"-+	c #FFFF29",
";+	c #FFFB4D",
">+	c #FFFFE8",
",+	c #FFFFC2",
"'+	c #FFFFCC",
")+	c #FFFFFE",
"!+	c #FFFFF7",
"~+	c #FFFFDD",
"{+	c #FFFFD8",
"]+	c #FFFFEA",
"^+	c #FFFFC6",
"/+	c #FFFFB3",
"(+	c #FFFFBC",
"_+	c #FFFFDA",
":+	c #FFFFF4",
"<+	c #FFFFD1",
"[+	c #FFFF88",
"}+	c #FFFF32",
"|+	c #F09E00",
"1+	c #FFFEC8",
"2+	c #FFBB08",
"3+	c #FFFFAE",
"4+	c #FFFFE7",
"5+	c #FFFFE3",
"6+	c #FFFFB9",
"7+	c #FFFFC8",
"8+	c #FFFFD5",
"9+	c #FFFFBB",
"0+	c #FFAB14",
"a+	c #FFFF01",
"b+	c #FFF706",
"c+	c #FFFD14",
"d+	c #FFFF16",
"e+	c #FFFF4C",
"f+	c #FFFFA0",
"g+	c #FFFF73",
"h+	c #FFFFAF",
"i+	c #FFFFDE",
"j+	c #FFFFF0",
"k+	c #FFFFD2",
"l+	c #FFFFEB",
"m+	c #FFFFE9",
"n+	c #FFFFEC",
"o+	c #FFFFE4",
"p+	c #FFFF74",
"q+	c #E47200",
"r+	c #FFFE02",
"s+	c #FFFA1F",
"t+	c #FFFF2D",
"u+	c #FFFF05",
"v+	c #FFFF5E",
"w+	c #FFFF95",
"x+	c #FFFFB6",
"y+	c #FFFFDB",
"z+	c #FFFFBF",
"A+	c #FFFFDC",
"B+	c #FFF81A",
"C+	c #FFC935",
"D+	c #FFC111",
"E+	c #FFF315",
"F+	c #FFFC29",
"G+	c #FFFF5A",
"H+	c #FFFF6E",
"I+	c #FFFFA3",
"J+	c #FFFFAA",
"K+	c #FFFF61",
"L+	c #FFFF2B",
"M+	c #FFB500",
"N+	c #FFE13E",
"O+	c #F88E0B",
"P+	c #FFFF72",
"Q+	c #FFFFDF",
"R+	c #FFFFD4",
"S+	c #FFFFA1",
"T+	c #FFFF97",
"U+	c #D42A0D",
"V+	c #ED3300",
"W+	c #FFFF23",
"X+	c #FFFF65",
"Y+	c #FFFFF2",
"Z+	c #FFFFBD",
"`+	c #FFFFB8",
" @	c #FFFF7E",
".@	c #FFFEB4",
"+@	c #FFFF17",
"@@	c #FFE70F",
"#@	c #FFCF16",
"$@	c #FF3200",
"%@	c #FFBF16",
"&@	c #FFF826",
"*@	c #FFFF68",
"=@	c #FFFFEE",
"-@	c #FFFF7C",
";@	c #FFF34C",
">@	c #FFF724",
",@	c #FFDD1F",
"'@	c #FFBA34",
")@	c #FFBA15",
"!@	c #D48D0A",
"~@	c #C55F0C",
"{@	c #ED8600",
"]@	c #EDA100",
"^@	c #FF8F0A",
"/@	c #EAB003",
"(@	c #FF6A00",
"_@	c #FFB000",
":@	c #FFFA10",
"<@	c #FFFFE6",
"[@	c #FFFB18",
"}@	c #FFFF64",
"|@	c #FFFF3C",
"1@	c #FFFF9C",
"2@	c #E5AC68",
"3@	c #FFE718",
"4@	c #FA9200",
"5@	c #FFFF1A",
"6@	c #FFEF1F",
"7@	c #FFFF90",
"8@	c #FFFF99",
"9@	c #FFF81C",
"0@	c #FFFD40",
"a@	c #FFB009",
"b@	c #FFDA64",
"c@	c #FFE700",
"d@	c #FFF214",
"e@	c #FFFF53",
"f@	c #FFFF82",
"g@	c #FFFFE2",
"h@	c #FFFF79",
"i@	c #FFF927",
"j@	c #FFFF31",
"k@	c #FFEA44",
"l@	c #E16403",
"m@	c #FFFA11",
"n@	c #FFFF98",
"o@	c #FFFF8D",
"p@	c #FFF445",
"q@	c #FFE410",
"r@	c #FF5900",
"s@	c #E2B743",
"t@	c #FFB862",
"u@	c #FFFB0F",
"v@	c #FFFFFD",
"w@	c #FFFFED",
"x@	c #FFFF3D",
"y@	c #E91802",
"z@	c #FFF400",
"A@	c #FF7800",
"B@	c #EBB90A",
"C@	c #FFD75C",
"D@	c #FFFFA5",
"E@	c #FFDA04",
"F@	c #FFFE53",
"G@	c #FFFFA8",
"H@	c #FFFF84",
"I@	c #FFFD18",
"J@	c #E44A0A",
"K@	c #ED9928",
"L@	c #FFE20C",
"M@	c #FFD101",
"N@	c #FFCB17",
"O@	c #FF6406",
"P@	c #FFFF00",
"Q@	c #FFF310",
"R@	c #FFFF42",
"S@	c #FFE918",
"T@	c #FFDF10",
"U@	c #FFA000",
"V@	c #FFDD11",
"W@	c #FFFF75",
"X@	c #FFE514",
"Y@	c #FFE413",
"Z@	c #FFFF24",
"`@	c #C6376F",
" #	c #D72D03",
".#	c #FFEF5B",
"+#	c #FFF701",
"@#	c #FF3A01",
"##	c #FFF930",
"$#	c #FFFFFB",
"%#	c #FFFFF6",
"&#	c #FFBB5F",
"*#	c #FF9800",
"=#	c #FF7000",
"-#	c #FFBC0F",
";#	c #FF9F07",
">#	c #FFB724",
",#	c #FFEC1B",
"'#	c #FFF318",
")#	c #FF9A0B",
"!#	c #FFFF91",
"~#	c #FFFF62",
"{#	c #FEFF41",
"]#	c #FFFB0D",
"^#	c #FF9410",
"/#	c #E82705",
"(#	c #FFC907",
"_#	c #FFFC32",
":#	c #FFF524",
"<#	c #FF9716",
"[#	c #A23B16",
"}#	c #FFF415",
"|#	c #FFFF22",
"1#	c #FFE81F",
"2#	c #EC9E07",
"3#	c #FFFF51",
"4#	c #FFFF5F",
"5#	c #FFFF78",
"6#	c #F74900",
"7#	c #FFC801",
"8#	c #FF7700",
"9#	c #FFFF66",
"0#	c #FFF60B",
"a#	c #CA4A09",
"b#	c #FFED0E",
"c#	c #FFCE57",
"d#	c #FFF022",
"e#	c #FFE217",
"f#	c #FFC502",
"g#	c #FFFD32",
"h#	c #FFFA2F",
"i#	c #FFE811",
"j#	c #FF8300",
"k#	c #FFAE03",
"l#	c #E84706",
"m#	c #FEF946",
"n#	c #FE8E00",
"o#	c #FFD80E",
"p#	c #FFE500",
"q#	c #FED422",
"r#	c #FFDC00",
"s#	c #FFBE12",
"t#	c #7E0E20",
"u#	c #FFAE06",
"v#	c #FFFE2F",
"w#	c #FFDE22",
"x#	c #FFF711",
"y#	c #EB9618",
"z#	c #FFE120",
"A#	c #FF6200",
"B#	c #D95B0A",
"C#	c #A85516",
"D#	c #FF7E00",
"E#	c #FF9400",
"F#	c #FFA500",
"G#	c #D9400A",
"H#	c #D38F10",
"I#	c #FFE01C",
"J#	c #EA6403",
"K#	c #FFFA18",
"L#	c #FFB50E",
"M#	c #FFEA16",
"N#	c #FECD0E",
"O#	c #FFF518",
"P#	c #7D1420",
"Q#	c #FFF114",
"R#	c #FFF219",
"S#	c #FFEB34",
"T#	c #FFF714",
"U#	c #FFEF28",
"V#	c #FF7D00",
"W#	c #FF8200",
"X#	c #FFB741",
"Y#	c #FFFF0C",
"Z#	c #FFAC1C",
"`#	c #FFDC91",
" $	c #FFEC20",
".$	c #FFF651",
"+$	c #FFDC8F",
"@$	c #FFEC21",
"                                                                                                    ",
"                                                                                                    ",
"                                                                                                    ",
"                                                                                                    ",
"                                                                                                    ",
"                                                                                                    ",
"                                              . +                                                   ",
"                                  @ # $       % & * = -                 ;                           ",
"                                    > , '   ) ! ~ { ] ^               / ( _                         ",
"                              : < [ } | 1   2 3 4 5 6 7             8 9 0 a                         ",
"                          b c # d e f g h i j k k 3 l m n o p     q r s t u v                       ",
"                      w ] x 2 y z A B ] C D 3 E F G H I J K L   } M z N O P Q @                     ",
"                      R S x x T M U V 5 W X Y Z `  ...H +.@.#.$.%.&.*.y =.-.                        ",
"                        ;.>.6 -.,.'.).!.~.{.].^.^./.(._.:.<.[.H }.|.,.1.2.3.                        ",
"                          =.[.4.5.6.4.!.7.8.9.0.a.b.c.d.e.e.6.V f.g.h.).i.                          ",
"                  @ K j.  k.+.l. .f.m._.n.}.o.p.@ @ q.r.s.t./.u.v.d.w.{.x.y.z.                      ",
"                  A.B.C.D.E.F.G.H.p.g.I./.l.4.f.J.@ @ K.L.M.v.N.O.H.}.7.] P.Q.F                     ",
"                R.v S.T.U.6 '.p.d.V.p.W.X.Y.I.Z.O.`.@  +.+H.F ++/.@+#+$+-.v %+&+                    ",
"            *+=+-+S.H & ;+] -. .>+,+&+'+)+!+++~+{+]+K.^+/+(+n._+)+:+<+e.[+}+|+                      ",
"          1+O B 2+5 -.k [+..` I.0.3+5.I.4+@ '+5+a.~+O.6+7+8+G.{+@ @ 9+#+@.0+                        ",
"          a+b+c+d+e+[+f+(.g+G.d.u.Z.h+3+i+j+O.X.4+k+7+u.(.l+m+n+o+^+E p+q+                          ",
"        @ r+s+t+u+v+'.w+++ .(+@+x+x+y+++'+6+`.o+z+^+/.'+m+@ 4+A+h+4.H B+C+                          ",
"            D+E+F+G+H+|.t.4+N.E '+:.^+c.<+H.)+@ c.(+/+I+j+@ ]+V.J+` K+L+                            ",
"              M+N+O+j P+n.++8+(+d.4.6+Q+Y.L.@ @ @ ~+E W.R+y+Y.S+e.T+7.m.                            ",
"              U+    V+W+X+'.f. .F  .7+O.~+n+@ @ @ @ :+Y+{+Z+_. .t.`+G  @j.                          ",
"            .@+@@@#@$@%@&@*@f+#+{+O.G.(.=@@ @ @ @ @ @ ~+7+'+E I+R+/./.Z+-@;@>@,@'@)@!@~@{@          ",
"              ]@^@/@(@_@:@..w+0.`+p.`+<@@ @ @ @ @ @ j+m+~+<+@+H.@+++i+(.h.!.].[@P.}@3 U |@1@        ",
"              2@3@4@5@6@h.7@f+`+x+8@u.J.@ @ @ @ @ L.O.m+O.{+0.z+X.!+0.&+'.8.Y 9@( # 0@a@b@e.        ",
"              -.5@c@d@e@f@9+>+c.u.m.x+^.4+b.!+Y+@ g@Y.X.n.z+`+~+@ @ y+ +&+h@j i@j@k@                ",
"                l@m@W+h@1./+A+8+n@u.o+o+g@7+J.'+a.^.(.A+`+^.1@^.q.J.1@E o@,.p@q@r@s@                ",
"              t@u@P.}@7.!.o@F Y./+,+<+@ v@r.@ w@7+p.Z Q+{+(.1@f.p.).x@*.[.{.I S.y@z@A@B@C@          ",
"            D@E@|@[...x F@ @V $+l.w.Z. +@ w@a.@ q.++6+Z+d.G@,+d.H@X+I@J@K@I L@M@N@O@P@X w           ",
"            o@Q@R@S@T@U@j@X V@-.h.:.9+o+w@.+{+Y+@ J.d.O.Y.z+^+p.4.W@B X@      Y@Z@L+`@A@            ",
"              u  #    .#t++#@###].` H.$#%#L.)+z+k+/.G.:+]+6+F 3+G <.G+&#        *#t+                ",
"                        =#    -#6.e.N.5+<+<@X.D@Z.E (.4+>+`+^.u.o.4.W@;#                            ",
"                              >#g+T+,+z+D@d.F g.f._.V ` Z ^+3+o.@.&.S.,#'#                          ",
"                            )#..T &+7@f@!#g.o@F H@3 w+7@J+(+:.~#e@{#]#W+>.^#                        ",
"                          /#L+] ]...H@!.+.g+~#j (#_#:#{.-.G ` w j@<#[#}#|#1#                        ",
"                          2#x 3#P.J 4#2.T 5#+.6#7#d 8#3 e@T 9#K+0#    a#b#I c#                      ",
"                        ++d#e#f#X t+>.g#x@h#` i#j#k#l#m#M l [.] j@!#    n#-+T+                      ",
"                              o#L+p#q#r## } W@s#    t#u#v#w#X x#y#1@                                ",
"                              n.z#A#B#C#=+D#E#F#G#    H#I#J#O K#                                    ",
"                                L#M#  N#O#E#$@F#P#          Q#R#S#                                  ",
"                                j T#  G@U#  V#W#            X#Y#Z#                                  ",
"                                `# $      @ C .$            +$@$                                    ",
"                                                                                                    ",
"                                                                                                    ",
"                                                                                                    ",
"                                                                                                    ",
"                                                                                                    "};
