/* XPM */
static char * exp5_xpm[] = {
"50 50 280 2",
"  	c None",
". 	c #FFD278",
"+ 	c #FFBC40",
"@ 	c #FFD294",
"# 	c #FFB835",
"$ 	c #FFBC57",
"% 	c #FFD856",
"& 	c #FFFD69",
"* 	c #FFFF89",
"= 	c #FFD60F",
"- 	c #FFFFB8",
"; 	c #FFFF6A",
"> 	c #FFFF9D",
", 	c #FFFFA8",
"' 	c #FFFEAB",
") 	c #FFB227",
"! 	c #FF9F22",
"~ 	c #FFB82C",
"{ 	c #FF6D00",
"] 	c #FFDC34",
"^ 	c #FFFF86",
"/ 	c #FFDA7B",
"( 	c #FFE045",
"_ 	c #FFFE74",
": 	c #FFFFAB",
"< 	c #FFFFD7",
"[ 	c #FFFFBC",
"} 	c #FFFFA6",
"| 	c #FFFF72",
"1 	c #FFFF75",
"2 	c #FFFF6B",
"3 	c #FFFFB2",
"4 	c #FFA500",
"5 	c #FFFF6F",
"6 	c #FFFD1F",
"7 	c #FFFF8A",
"8 	c #FFFFA2",
"9 	c #FFD828",
"0 	c #FFFFAF",
"a 	c #FFFFDA",
"b 	c #FFFF93",
"c 	c #FFFF42",
"d 	c #FFDD6A",
"e 	c #FFB42E",
"f 	c #FFDE65",
"g 	c #FFFF7A",
"h 	c #FFFF8D",
"i 	c #FFDC73",
"j 	c #FFD254",
"k 	c #FFDC3E",
"l 	c #FFFF83",
"m 	c #FFFF85",
"n 	c #FFFF9F",
"o 	c #FFFF62",
"p 	c #FFFF95",
"q 	c #FFFF96",
"r 	c #FFFF99",
"s 	c #FFF243",
"t 	c #FFFF91",
"u 	c #FFFFE6",
"v 	c #FFFFF3",
"w 	c #FFFFE4",
"x 	c #FFFFC9",
"y 	c #FFFFA0",
"z 	c #FFFFAC",
"A 	c #FFC20C",
"B 	c #FFFFAD",
"C 	c #FFFF56",
"D 	c #FFFF80",
"E 	c #FFFF81",
"F 	c #FFFFA3",
"G 	c #FFFF9E",
"H 	c #FFFFB1",
"I 	c #FFFFB7",
"J 	c #FFFF8E",
"K 	c #FFFFCC",
"L 	c #FFFFFF",
"M 	c #FFFFF9",
"N 	c #FFFFD8",
"O 	c #FFFFD3",
"P 	c #FFFFD5",
"Q 	c #FFFFBE",
"R 	c #FFEE62",
"S 	c #FFFFB5",
"T 	c #FFFFA9",
"U 	c #FFFFC6",
"V 	c #FFFFA5",
"W 	c #FFFFC0",
"X 	c #FFCD6C",
"Y 	c #FFFFBA",
"Z 	c #FFFEC2",
"` 	c #FFFFC2",
" .	c #FFFFE1",
"..	c #FFFFD0",
"+.	c #FFFFFE",
"@.	c #FFFFFB",
"#.	c #FFFFFC",
"$.	c #FFFFF2",
"%.	c #FFFFE7",
"&.	c #FFFFC7",
"*.	c #FFFFE2",
"=.	c #FFFFF8",
"-.	c #FFFEB2",
";.	c #FFBB89",
">.	c #FFFFDE",
",.	c #FFFFD4",
"'.	c #FFFFEC",
").	c #FFFFED",
"!.	c #FFFFD9",
"~.	c #FFFFEE",
"{.	c #FFFFE8",
"].	c #FFFFC3",
"^.	c #FFF45C",
"/.	c #FFFF9B",
"(.	c #FFFF78",
"_.	c #FFFFE3",
":.	c #FFFFCE",
"<.	c #FFFFF0",
"[.	c #FFB622",
"}.	c #FFDA76",
"|.	c #FFFF31",
"1.	c #FFFF76",
"2.	c #FFFFAE",
"3.	c #FFFFF6",
"4.	c #FFFFDD",
"5.	c #FFFFF4",
"6.	c #FFFFD2",
"7.	c #FFFF9C",
"8.	c #FFFF9A",
"9.	c #FFFFA4",
"0.	c #FFFFFD",
"a.	c #FFB210",
"b.	c #FFD25B",
"c.	c #FFDC9A",
"d.	c #FFFF20",
"e.	c #FFFFBB",
"f.	c #FFFFE0",
"g.	c #FFFFF1",
"h.	c #FFCB89",
"i.	c #FFFF57",
"j.	c #FFFFEA",
"k.	c #FFFFF7",
"l.	c #D46700",
"m.	c #FFFEAE",
"n.	c #FFFF61",
"o.	c #FFFEA9",
"p.	c #FFFFEF",
"q.	c #FFFFE5",
"r.	c #FFFFD6",
"s.	c #FF6500",
"t.	c #FFFF59",
"u.	c #FFFE9F",
"v.	c #FFFFC1",
"w.	c #FFFFFA",
"x.	c #FFFFC4",
"y.	c #FFFF7C",
"z.	c #FFBB1C",
"A.	c #FFFFCA",
"B.	c #FFFFB3",
"C.	c #FFD01B",
"D.	c #A27B5F",
"E.	c #FFF445",
"F.	c #FFFFC8",
"G.	c #FFDC98",
"H.	c #FEFF99",
"I.	c #FFFF19",
"J.	c #FFFF92",
"K.	c #FFFED8",
"L.	c #FFFFB4",
"M.	c #FFFF94",
"N.	c #FFF463",
"O.	c #FFB629",
"P.	c #FFD277",
"Q.	c #FFD275",
"R.	c #FFE361",
"S.	c #FFFEBA",
"T.	c #FFD726",
"U.	c #FFFF3F",
"V.	c #FFFF7E",
"W.	c #FFFF8F",
"X.	c #FFFF8B",
"Y.	c #FFB326",
"Z.	c #FFFFDF",
"`.	c #FFFFB9",
" +	c #FFFF55",
".+	c #FFDC49",
"++	c #FFDA90",
"@+	c #FFFF82",
"#+	c #FFF04C",
"$+	c #FFFFAA",
"%+	c #FFFF4F",
"&+	c #FFEB48",
"*+	c #FFFFDC",
"=+	c #FFFFEB",
"-+	c #FFED2C",
";+	c #FFE126",
">+	c #FFD6BE",
",+	c #FF6E00",
"'+	c #FFAD09",
")+	c #FFFFF5",
"!+	c #FFFFE9",
"~+	c #FFFFA1",
"{+	c #FFFF65",
"]+	c #FFFF1D",
"^+	c #FFFEAA",
"/+	c #FFFF7D",
"(+	c #FFFEAC",
"_+	c #EA933F",
":+	c #EB9548",
"<+	c #FFFF2A",
"[+	c #FFFF2B",
"}+	c #FFCE6F",
"|+	c #FFB82A",
"1+	c #FFDF8F",
"2+	c #FFCAAE",
"3+	c #FFF880",
"4+	c #FFDC45",
"5+	c #FFB839",
"6+	c #FFD276",
"7+	c #FFD02A",
"8+	c #FFFFCB",
"9+	c #FFFFDB",
"0+	c #FFFFCD",
"a+	c #FFFED3",
"b+	c #FFFF77",
"c+	c #FFFFBF",
"d+	c #FFCD3D",
"e+	c #FFBF21",
"f+	c #FFFFC5",
"g+	c #FFFFB0",
"h+	c #FFFFBD",
"i+	c #FFD743",
"j+	c #FFF68B",
"k+	c #FFFF6D",
"l+	c #FFFE75",
"m+	c #FFFF48",
"n+	c #FFFFB6",
"o+	c #FFDE35",
"p+	c #FFFF88",
"q+	c #FFCE16",
"r+	c #FFAD03",
"s+	c #FFB189",
"t+	c #FFFF5E",
"u+	c #FFF47F",
"v+	c #FFFF30",
"w+	c #FF9E10",
"x+	c #FF9F06",
"y+	c #FFB81A",
"z+	c #FFB163",
"A+	c #FFFF90",
"B+	c #FFFE90",
"C+	c #FFFF32",
"D+	c #FFDD64",
"E+	c #FEFF97",
"F+	c #FFF419",
"G+	c #FF6400",
"H+	c #FFDC23",
"I+	c #FFFF34",
"J+	c #FFFE84",
"K+	c #CF9A0D",
"L+	c #FFFF84",
"M+	c #FFFFA7",
"N+	c #FFFE68",
"O+	c #FFB829",
"P+	c #FFCE2F",
"Q+	c #FFFF4A",
"R+	c #FFE051",
"S+	c #FFB82B",
"T+	c #FF9D20",
"U+	c #FFE026",
"V+	c #FFFF98",
"W+	c #FFB624",
"X+	c #FFD04B",
"Y+	c #FFFE8F",
"Z+	c #FFD847",
"`+	c #FFA526",
" @	c #FFE159",
".@	c #FFBA91",
"+@	c #FFBC59",
"@@	c #FFD252",
"                                                                                                    ",
"                                                                                                    ",
"                                                                                                    ",
"                                                                                                    ",
"                                                                                                    ",
"                                                                                                    ",
"                                                                                                    ",
"                                                                                                    ",
"                                    . +       @ #   $ %                                             ",
"                                    & * =   - ; > , ' )             ! ~                             ",
"                                {   ] ^ / ( _ : < [ } |             1 2 3                           ",
"                            ~ 4 5 6 7 8 1 9 5 0 a < b c d e     f g h i                             ",
"                        j k l m n o p q r s t u v w x y z z   A t B C D E h                         ",
"                        F G H t I , J B : 8 K L M M N O P Q R F S T U V W X                         ",
"                          Y Z I `  ...x Q P U L +.@.L L #.P P $.%.&.*.=.-.                          ",
"                        ;.  >.&.,.'.a ).O !.!.M L L L L M L =.L ~.{.].^.                            ",
"                      /.D (.* ` '.M _.{._.!.:. .L L L L L +.<.L L _.Y T n J                         ",
"                  [.}.|.1.} Y 2.'.L 3.4.L 5.N {.L L L L L @.L L L $.N 6.7.8.                        ",
"                S (.9.m 8.n y x M L $.#.L L L L L L L L L '.$.0.L L ~.!.Y b a.                      ",
"              b.c.d., Q e.u *.+.L 0.{.f.L L #.L L L L +.L <.0.L L L ~.g.q h.                        ",
"              i.q (.- Q _.L j.L L ).L w L L L L L L ~.k.=.0.L L L L k.L l.                          ",
"            m.n.o.b , [ p.L M q.+.+.+.@.@.L L L =.#.@.L +.L L L r.x v                               ",
"              s.t.u.q v.p.L L L +.L $.L +.+.L L @.M p.w.L L L #.f.x.y.Y                             ",
"                  z.t _.A.@.L +.L k.4.L @.+.L L L +.g.g.L L #.3.{.5.B.C.                            ",
"                    D.E.F.5.j.$.L v w 3.+.L L L L L L L L =.q.k.L g.P G.                            ",
"                h H.Q I.0 J.< k.L L L v L L L L L L L L L L ~.L L L 0.'.K.L.[ M.N.D O.P.            ",
"                Q.R.S.T.U.V.p.%.0.p.0.L L L L L L L L L L w.L #.#.L @.*.K [ Y M.8.W.X.W.            ",
"                  Y.J & h Y %.g.M $.Z.L L L L L L L L L L L L #.L #.L p.6.S `. +.+++                ",
"                z @+#+y > Z.3.L L 0.p.L L L L M L L L #.q.#.@.L L L L M L 0 $+y.                    ",
"                  %+&+8 Q *+~.L k.3.L L L L L L L 5.g.L j.'.*.L L =+=.%.A.b Y -+;+>+,+              ",
"                '+V 3 ,._.P F.%.)+=+p.L L L L L L #.$.$.M L !+L L ~+{+3 ..G b ]+C t 7 ^+            ",
"                /+* B.(+F.8 - Q L A._.L L L L L L L !+L 3.L L ~.p.9._+  :+X.<+* [+}+|+              ",
"                P.1+  W.2+1 3+4+w w.L L L w.L L L L 5.L L L L w.k.H 7.        5+6+                  ",
"                          s.  7+W w L L L L L )+p.L 0.L L L =.M 8+9+-                               ",
"                                0+:.@.+.L #.=.>.U '.)+L L L j.8+I Y *.a+                            ",
"                              T _.0 f.p.u +.3.f.&.x r.9+u #.>.z G b+c+U d+                          ",
"                            e+B.~+f+r.[ ..O f.a 8+q g+k.0+<.6.h+i+j+k+2.l++.                        ",
"                          m+D c+e.g+n+$+4.x - J o+M.3 p+W f+, /.q+    %+~+r+                        ",
"                          s+t+u+r k+; W.g+x 8 v+w+,+  8.p A./.V >     x+y+                          ",
"                            z+  A+B+C+D+E+L.M.F+L   G+p L.`.Q H+                                    ",
"                                  I+J+K+L+M+N+J.g+    O+P+M.h Q+                                    ",
"                                g+| R+  S+T+U+V+W+        X+Y+Z+                                    ",
"                                  ~ `+       @E .@          +@@@                                    ",
"                                              ,+                                                    ",
"                                                                                                    ",
"                                                                                                    ",
"                                                                                                    ",
"                                                                                                    ",
"                                                                                                    ",
"                                                                                                    "};
