/* XPM */
static char * exp13_xpm[] = {
"50 50 746 2",
"  	c None",
". 	c #D00A0C",
"+ 	c #AC1315",
"@ 	c #A90F12",
"# 	c #FF1000",
"$ 	c #E50F07",
"% 	c #C8170E",
"& 	c #9B1919",
"* 	c #EF0404",
"= 	c #422828",
"- 	c #9F1718",
"; 	c #EB0B05",
"> 	c #B33413",
", 	c #D3070B",
"' 	c #9F1919",
") 	c #F70C02",
"! 	c #A11617",
"~ 	c #921C1C",
"{ 	c #AD1415",
"] 	c #95191B",
"^ 	c #FF2500",
"/ 	c #B90E12",
"( 	c #C1100F",
"_ 	c #C20E0F",
": 	c #911A1C",
"< 	c #CB0D0D",
"[ 	c #BA0B0E",
"} 	c #EF1505",
"| 	c #2D2D2D",
"1 	c #BE0F10",
"2 	c #831F1F",
"3 	c #5C2A2A",
"4 	c #AD0F10",
"5 	c #F90402",
"6 	c #E81106",
"7 	c #FF0800",
"8 	c #FF1300",
"9 	c #F50702",
"0 	c #FC0A01",
"a 	c #621818",
"b 	c #582A2A",
"c 	c #ED0904",
"d 	c #CE100C",
"e 	c #9D1719",
"f 	c #D7080A",
"g 	c #A61616",
"h 	c #8C1D1D",
"i 	c #6F2424",
"j 	c #3B3030",
"k 	c #6B2626",
"l 	c #701B1B",
"m 	c #F00504",
"n 	c #FF4100",
"o 	c #FF4000",
"p 	c #FF4B00",
"q 	c #FF2B00",
"r 	c #E50506",
"s 	c #672121",
"t 	c #FF0000",
"u 	c #7F2020",
"v 	c #BC1111",
"w 	c #A51616",
"x 	c #FF0C00",
"y 	c #F90F01",
"z 	c #FF3200",
"A 	c #F90E01",
"B 	c #FF2300",
"C 	c #FF2E00",
"D 	c #FF1C00",
"E 	c #F00404",
"F 	c #702424",
"G 	c #612424",
"H 	c #E10707",
"I 	c #712224",
"J 	c #FF3400",
"K 	c #FF7D00",
"L 	c #FF8100",
"M 	c #FF8600",
"N 	c #FF6800",
"O 	c #FF1100",
"P 	c #87171B",
"Q 	c #752323",
"R 	c #B11414",
"S 	c #CE2F0C",
"T 	c #F20803",
"U 	c #8F1C1D",
"V 	c #911618",
"W 	c #EB1405",
"X 	c #432728",
"Y 	c #A31818",
"Z 	c #921B1C",
"` 	c #D5180B",
" .	c #FF3900",
"..	c #FF4C00",
"+.	c #FF5300",
"@.	c #FF4800",
"#.	c #FF8000",
"$.	c #FF2200",
"%.	c #FF3E00",
"&.	c #B40913",
"*.	c #B11313",
"=.	c #F30003",
"-.	c #FFB200",
";.	c #FFD800",
">.	c #FFC800",
",.	c #FFB900",
"'.	c #FF8E00",
").	c #FF5D00",
"!.	c #FF3A00",
"~.	c #FF1D00",
"{.	c #E91006",
"].	c #831D1F",
"^.	c #F40E03",
"/.	c #D5090A",
"(.	c #E20707",
"_.	c #E50B07",
":.	c #FF2900",
"<.	c #871D1E",
"[.	c #422D2D",
"}.	c #CE160C",
"|.	c #FF6000",
"1.	c #FF3F00",
"2.	c #FF6B00",
"3.	c #FF7E00",
"4.	c #FF4900",
"5.	c #FF8200",
"6.	c #FF6500",
"7.	c #FF6D00",
"8.	c #FFE201",
"9.	c #FFFF20",
"0.	c #FFF303",
"a.	c #FFCF00",
"b.	c #FF8C00",
"c.	c #FF9300",
"d.	c #FF7600",
"e.	c #AE0C12",
"f.	c #BB1611",
"g.	c #EF2504",
"h.	c #FB2301",
"i.	c #FF2600",
"j.	c #FE2700",
"k.	c #8D1B1D",
"l.	c #FA1C01",
"m.	c #FF4400",
"n.	c #FF5B00",
"o.	c #FF6200",
"p.	c #FF8300",
"q.	c #FF7700",
"r.	c #FF7F00",
"s.	c #FF5F00",
"t.	c #FF6700",
"u.	c #FF7C00",
"v.	c #FFE000",
"w.	c #FFFF54",
"x.	c #FFFF3E",
"y.	c #FFFB16",
"z.	c #FFCB00",
"A.	c #FF9E00",
"B.	c #FF6A00",
"C.	c #FF5600",
"D.	c #FF5400",
"E.	c #FF5200",
"F.	c #FF8700",
"G.	c #EF1304",
"H.	c #FFA600",
"I.	c #FFC400",
"J.	c #FFAD00",
"K.	c #FF9D00",
"L.	c #FFAA00",
"M.	c #FF8F00",
"N.	c #FF8800",
"O.	c #FFA700",
"P.	c #FFF606",
"Q.	c #FFFF7B",
"R.	c #FFFF77",
"S.	c #FFFF5A",
"T.	c #FFFF23",
"U.	c #FFEE02",
"V.	c #FFA300",
"W.	c #FFB400",
"X.	c #FFB300",
"Y.	c #FFA400",
"Z.	c #FF9F00",
"`.	c #FF7900",
" +	c #FF5500",
".+	c #C53A0F",
"++	c #901A1C",
"@+	c #B91212",
"#+	c #A71616",
"$+	c #981616",
"%+	c #F20D03",
"&+	c #F91301",
"*+	c #FF3300",
"=+	c #FFBC00",
"-+	c #FFAF00",
";+	c #FFC100",
">+	c #FFEF01",
",+	c #FFED03",
"'+	c #FFB700",
")+	c #FFA500",
"!+	c #FFCC00",
"~+	c #FFFF25",
"{+	c #FFFF98",
"]+	c #FFFFB9",
"^+	c #FFFF90",
"/+	c #FFFF62",
"(+	c #FFFF34",
"_+	c #FFF10B",
":+	c #FFED06",
"<+	c #FFFA06",
"[+	c #FFFD0D",
"}+	c #FFDB00",
"|+	c #FF9500",
"1+	c #FF5E00",
"2+	c #B60F0F",
"3+	c #8A1A1B",
"4+	c #FF0E00",
"5+	c #891C1D",
"6+	c #801C1C",
"7+	c #A01818",
"8+	c #F30C03",
"9+	c #FF3D00",
"0+	c #FFA900",
"a+	c #FFB600",
"b+	c #FFC000",
"c+	c #FFE400",
"d+	c #FFD700",
"e+	c #FFF300",
"f+	c #FFFF03",
"g+	c #FFD500",
"h+	c #FFC200",
"i+	c #FFF000",
"j+	c #FFFF57",
"k+	c #FFFFDD",
"l+	c #FFFFA1",
"m+	c #FFFF7D",
"n+	c #FFFF36",
"o+	c #FFFF1E",
"p+	c #FFF706",
"q+	c #FFEB00",
"r+	c #FFE300",
"s+	c #FA3001",
"t+	c #FB0101",
"u+	c #EC0405",
"v+	c #BE1010",
"w+	c #7D2120",
"x+	c #EF1204",
"y+	c #E91406",
"z+	c #841F1F",
"A+	c #D3080B",
"B+	c #FF4E00",
"C+	c #FFF909",
"D+	c #FFFD10",
"E+	c #FFFF0C",
"F+	c #FFE900",
"G+	c #FFF605",
"H+	c #FFFF0F",
"I+	c #FFC300",
"J+	c #FFCE00",
"K+	c #FFF200",
"L+	c #FFFF30",
"M+	c #FFFF8A",
"N+	c #FFFFD6",
"O+	c #FFFFB2",
"P+	c #FFFF73",
"Q+	c #FFFF1F",
"R+	c #FFF908",
"S+	c #FFFF37",
"T+	c #FFFD1D",
"U+	c #FFFF11",
"V+	c #FF9A00",
"W+	c #FF6600",
"X+	c #FF2F00",
"Y+	c #C80B0E",
"Z+	c #E80906",
"`+	c #D30B0B",
" @	c #FF0B00",
".@	c #FF1F00",
"+@	c #FF1700",
"@@	c #FF1900",
"#@	c #FF5700",
"$@	c #FF6C00",
"%@	c #FF9800",
"&@	c #FFFF1D",
"*@	c #FFFB0C",
"=@	c #FFE403",
"-@	c #FFF400",
";@	c #FFFF33",
">@	c #FFFE07",
",@	c #FFFB05",
"'@	c #FFFE0C",
")@	c #FFFD07",
"!@	c #FFFF75",
"~@	c #FFFF53",
"{@	c #FFFF46",
"]@	c #FFFF27",
"^@	c #FFF102",
"/@	c #FFFF3B",
"(@	c #FFFF39",
"_@	c #FFFB10",
":@	c #FF7800",
"<@	c #861C1E",
"[@	c #911B1B",
"}@	c #A41217",
"|@	c #FF1400",
"1@	c #941B1B",
"2@	c #602021",
"3@	c #AF1414",
"4@	c #F20A03",
"5@	c #FF4600",
"6@	c #FF4F00",
"7@	c #FF7300",
"8@	c #FF8900",
"9@	c #FFD000",
"0@	c #FFD200",
"a@	c #FF9600",
"b@	c #FFB800",
"c@	c #FFFE10",
"d@	c #FFFF45",
"e@	c #FFFF2D",
"f@	c #FFFF35",
"g@	c #FFFF17",
"h@	c #FFEE00",
"i@	c #FFF910",
"j@	c #FFFF5D",
"k@	c #FFFF31",
"l@	c #FFE700",
"m@	c #D5110B",
"n@	c #841C1F",
"o@	c #EC1305",
"p@	c #D50A0A",
"q@	c #FF0D00",
"r@	c #F40903",
"s@	c #FC1D01",
"t@	c #FF7200",
"u@	c #FF7400",
"v@	c #FFD205",
"w@	c #FFDF00",
"x@	c #FFD300",
"y@	c #FFEA00",
"z@	c #FFD600",
"A@	c #FFFF3F",
"B@	c #FFFD01",
"C@	c #FFFC0B",
"D@	c #FFFF4B",
"E@	c #FFFF6D",
"F@	c #FFFF69",
"G@	c #FFFA14",
"H@	c #FFBF00",
"I@	c #C84D0E",
"J@	c #E30107",
"K@	c #FD1A00",
"L@	c #CE0C0C",
"M@	c #F90902",
"N@	c #FF4500",
"O@	c #FF6900",
"P@	c #FFB100",
"Q@	c #FFAB00",
"R@	c #FFFF49",
"S@	c #FFFF22",
"T@	c #FFFE0A",
"U@	c #FFFF1B",
"V@	c #FFFF2C",
"W@	c #FFFF1C",
"X@	c #FFFF50",
"Y@	c #FFFF68",
"Z@	c #FFFF3A",
"`@	c #FFFF3C",
" #	c #FFFE0B",
".#	c #FF8D00",
"+#	c #FF2D00",
"@#	c #B01014",
"##	c #8F1B1C",
"$#	c #E40607",
"%#	c #F80702",
"&#	c #FFF701",
"*#	c #FFFA01",
"=#	c #FFFF42",
"-#	c #FFFF41",
";#	c #FFE500",
">#	c #FFFF28",
",#	c #FFEC00",
"'#	c #FFFE12",
")#	c #FFFF2F",
"!#	c #FFFF0B",
"~#	c #FFFF15",
"{#	c #FFFF02",
"]#	c #FFF100",
"^#	c #FFFF72",
"/#	c #FFFC03",
"(#	c #FFB000",
"_#	c #FF5800",
":#	c #FF3100",
"<#	c #C50B0F",
"[#	c #E20907",
"}#	c #CC140D",
"|#	c #AC1215",
"1#	c #FFFC08",
"2#	c #FFED09",
"3#	c #FFFF10",
"4#	c #FFC900",
"5#	c #FFF207",
"6#	c #FFF705",
"7#	c #FFFF18",
"8#	c #FFFF5F",
"9#	c #FFFF7E",
"0#	c #FFFF5B",
"a#	c #FFEB04",
"b#	c #FFFF4E",
"c#	c #FFFF2E",
"d#	c #94151B",
"e#	c #B01211",
"f#	c #C51C0E",
"g#	c #FFC600",
"h#	c #FFFB0A",
"i#	c #FFFB08",
"j#	c #FFFF4F",
"k#	c #FFFF96",
"l#	c #FFFFA9",
"m#	c #FFFF9E",
"n#	c #FFFF71",
"o#	c #FFFF55",
"p#	c #FFFF0E",
"q#	c #FFFC18",
"r#	c #FFF907",
"s#	c #FFFF13",
"t#	c #FFFF08",
"u#	c #FFD900",
"v#	c #FFBA00",
"w#	c #B82212",
"x#	c #382C32",
"y#	c #E20C07",
"z#	c #FF6F00",
"A#	c #FFF401",
"B#	c #FFFF0D",
"C#	c #FFFF60",
"D#	c #FFFF79",
"E#	c #FFFF80",
"F#	c #FFFFB3",
"G#	c #FFFFC6",
"H#	c #FFFFB8",
"I#	c #FFFF5C",
"J#	c #FFFF48",
"K#	c #FFE600",
"L#	c #FFF500",
"M#	c #FFCA00",
"N#	c #CD1E0D",
"O#	c #57242A",
"P#	c #B20E13",
"Q#	c #FF3800",
"R#	c #761F23",
"S#	c #A91316",
"T#	c #FF5000",
"U#	c #FF9000",
"V#	c #FFF505",
"W#	c #FFFF16",
"X#	c #FFFB00",
"Y#	c #FFFE02",
"Z#	c #FFFF93",
"`#	c #FFFFA5",
" $	c #FFFFBF",
".$	c #FFFFD8",
"+$	c #FFFFD9",
"@$	c #FFFFC2",
"#$	c #FFFF86",
"$$	c #FFFF29",
"%$	c #FFFC01",
"&$	c #FFD400",
"*$	c #FFE501",
"=$	c #FFBE00",
"-$	c #FA6101",
";$	c #EC5F05",
">$	c #213737",
",$	c #323434",
"'$	c #393132",
")$	c #A23017",
"!$	c #5A2122",
"~$	c #FFA000",
"{$	c #FFE803",
"]$	c #FFFF26",
"^$	c #FFFF65",
"/$	c #FFFF8C",
"($	c #FFFFCA",
"_$	c #FFFF67",
":$	c #FFFF56",
"<$	c #FFFF2B",
"[$	c #FF8B00",
"}$	c #FF9B00",
"|$	c #F11203",
"1$	c #901B1C",
"2$	c #362D2D",
"3$	c #732222",
"4$	c #E71506",
"5$	c #E41807",
"6$	c #DE1C08",
"7$	c #772122",
"8$	c #C5100F",
"9$	c #FFFF5E",
"0$	c #FFFF9D",
"a$	c #FFFFB5",
"b$	c #FFFFAB",
"c$	c #FFFFAE",
"d$	c #FFFF8D",
"e$	c #FFFF6A",
"f$	c #FFFF1A",
"g$	c #FFFA08",
"h$	c #FFFA00",
"i$	c #FFBD00",
"j$	c #FF6E00",
"k$	c #FF3C00",
"l$	c #AE1214",
"m$	c #861E1E",
"n$	c #512C2C",
"o$	c #751F1F",
"p$	c #AA1716",
"q$	c #891816",
"r$	c #B42513",
"s$	c #AE1414",
"t$	c #961A1A",
"u$	c #642727",
"v$	c #EE1404",
"w$	c #FFF800",
"x$	c #FFE100",
"y$	c #FFFF84",
"z$	c #FFFF9B",
"A$	c #FFFF8E",
"B$	c #FFFA03",
"C$	c #FFF900",
"D$	c #FFFB18",
"E$	c #FFFF59",
"F$	c #F91B02",
"G$	c #A21717",
"H$	c #F30903",
"I$	c #C80D0E",
"J$	c #871C1C",
"K$	c #702324",
"L$	c #FFA200",
"M$	c #FFFF24",
"N$	c #FFDA00",
"O$	c #FFFF21",
"P$	c #FFFF70",
"Q$	c #FFF607",
"R$	c #FFFF2A",
"S$	c #FFCD00",
"T$	c #FF6100",
"U$	c #E21307",
"V$	c #DC1E09",
"W$	c #D0060C",
"X$	c #5B2222",
"Y$	c #881819",
"Z$	c #8B1E1D",
"`$	c #EE1405",
" %	c #FFFF38",
".%	c #FFFF3D",
"+%	c #FFFF32",
"@%	c #FFFF47",
"#%	c #FFF70E",
"$%	c #FFF50A",
"%%	c #F81302",
"&%	c #D10B0C",
"*%	c #BE0C10",
"=%	c #8B421D",
"-%	c #D10A0C",
";%	c #D10F0C",
">%	c #FF7100",
",%	c #FFFD0A",
"'%	c #FFFF92",
")%	c #FFFF9A",
"!%	c #FFFF14",
"~%	c #FFFF0A",
"{%	c #FC2401",
"]%	c #CC190A",
"^%	c #B61012",
"/%	c #F30303",
"(%	c #7E1C1C",
"_%	c #C11010",
":%	c #E20B07",
"<%	c #FF2700",
"[%	c #ED1A04",
"}%	c #F72002",
"|%	c #FFD100",
"1%	c #FFEF00",
"2%	c #FFFF19",
"3%	c #FFFD05",
"4%	c #FFED00",
"5%	c #FFF805",
"6%	c #DF1608",
"7%	c #A11414",
"8%	c #A01819",
"9%	c #C6140E",
"0%	c #E10607",
"a%	c #C30F0F",
"b%	c #9C1919",
"c%	c #801518",
"d%	c #263334",
"e%	c #D40A0B",
"f%	c #CF0B0C",
"g%	c #F11104",
"h%	c #762022",
"i%	c #DA2209",
"j%	c #FF8A00",
"k%	c #FFFC17",
"l%	c #FFFF6C",
"m%	c #FFF402",
"n%	c #FFFD00",
"o%	c #FE1700",
"p%	c #812020",
"q%	c #7C2121",
"r%	c #E90C06",
"s%	c #5B2829",
"t%	c #572A2A",
"u%	c #D8080A",
"v%	c #EC1A05",
"w%	c #552B2B",
"x%	c #772222",
"y%	c #FF0700",
"z%	c #801F20",
"A%	c #FF1A00",
"B%	c #FFAC00",
"C%	c #FFDE02",
"D%	c #FFFF52",
"E%	c #FFFF85",
"F%	c #FFDC00",
"G%	c #FFF804",
"H%	c #9F1418",
"I%	c #A01718",
"J%	c #CB120D",
"K%	c #FF9200",
"L%	c #FFFA13",
"M%	c #FFF60B",
"N%	c #FFC700",
"O%	c #FF3600",
"P%	c #5D2324",
"Q%	c #FFF600",
"R%	c #FFF80D",
"S%	c #FFF201",
"T%	c #FD2E01",
"U%	c #F80002",
"V%	c #5E2928",
"W%	c #622727",
"X%	c #F01004",
"Y%	c #FFA100",
"Z%	c #FFBB00",
"`%	c #FF2C00",
" &	c #FF9700",
".&	c #FFED07",
"+&	c #FFF501",
"@&	c #FF9C00",
"#&	c #FF4200",
"$&	c #F81402",
"%&	c #DA1709",
"&&	c #97181B",
"*&	c #D5080B",
"=&	c #DF0A08",
"-&	c #FFE800",
";&	c #FF3000",
">&	c #D5100B",
",&	c #F41203",
"'&	c #9B1A19",
")&	c #592727",
"!&	c #4A2626",
"~&	c #512828",
"{&	c #3C3131",
"]&	c #F30103",
"^&	c #FE0700",
"/&	c #FF3B00",
"(&	c #DD2E09",
"_&	c #3B3131",
":&	c #672626",
"<&	c #F31203",
"[&	c #FF8500",
"}&	c #880C14",
"|&	c #3B2B2B",
"1&	c #E00608",
"2&	c #BE090D",
"3&	c #F00C04",
"4&	c #FE1300",
"5&	c #FC2601",
"6&	c #FF1500",
"7&	c #E10C08",
"8&	c #BA0F12",
"9&	c #642020",
"0&	c #F40D03",
"a&	c #FF4A00",
"b&	c #E02808",
"c&	c #482D2E",
"d&	c #FF2100",
"e&	c #D50A0B",
"f&	c #6B2425",
"g&	c #F30203",
"h&	c #F40503",
"i&	c #FB1901",
"j&	c #D9080A",
"k&	c #B21313",
"l&	c #A21314",
"m&	c #F30803",
"n&	c #7E2120",
"o&	c #BB0F11",
"p&	c #9F1719",
"q&	c #9F1618",
"r&	c #FF0500",
"s&	c #9D1819",
"t&	c #831B1F",
"u&	c #811D1F",
"v&	c #EB0D05",
"w&	c #E30607",
"x&	c #951817",
"y&	c #9A181A",
"z&	c #911C1C",
"A&	c #222B2B",
"B&	c #472F2F",
"C&	c #5A2727",
"D&	c #322E2E",
"E&	c #7B2222",
"F&	c #E21007",
"G&	c #FD0800",
"H&	c #E41707",
"I&	c #8F1A1C",
"J&	c #462F2F",
"K&	c #682424",
"L&	c #5B2929",
"M&	c #332C2C",
"N&	c #282B2B",
"O&	c #7A2121",
"P&	c #A31717",
"Q&	c #8B1618",
"R&	c #E00508",
"S&	c #C20F10",
"T&	c #881616",
"U&	c #AD1414",
"V&	c #DC0909",
"W&	c #722424",
"X&	c #BE1610",
"Y&	c #4B2323",
"Z&	c #B61212",
"`&	c #E00808",
" *	c #E10908",
".*	c #9C1111",
"+*	c #B41813",
"@*	c #6B2526",
"#*	c #771F1F",
"$*	c #DC0809",
"%*	c #FA1601",
"&*	c #F71302",
"**	c #F81502",
"=*	c #C7140E",
"                                                                                                    ",
"                                                                                                    ",
"                                                                                                    ",
"                                                                                                    ",
"                                  . +         @ #                                                   ",
"                                  $ %         & * = - ;                   > ,                       ",
"                              ' ) ! ~       { ] ^ / ( _                   : <                       ",
"                          [ } | 1 2 3     4 5 6 7 8 9 0                   a b                       ",
"                      c d e f g h i j   k l m n o p q r   s t u     v         w x                   ",
"                  y z A B C D 0 E - F G H I J K L M N O P Q R     S T U V W X Y Z                   ",
"                  `  .B ..+.n @.#.$.%.&.*.=.-.;.>.,.'.).!.~.{.  ].^./.(._.:.<.[.                    ",
"                    }.B |.1.1.2.3.4.5.6._.o 7.8.9.0.a.b.c.d.@.e.f.g.h.$.i.j.k.                      ",
"                      l.m.n.o.#.p.q.r.2.s.t.u.v.w.x.y.;.z.A.B.C.D.s.|.E.).F.                        ",
"                        G.7.H.I.J.K.L.L.M.N.O.P.Q.R.S.T.U.V.c.W.X.Y.Z.`. +.+  ++                    ",
"                @+#+$+%+&+*+=+v.-+;+>+,+'+)+!+~+{+]+^+/+(+_+:+<+[+P.}+|+1+2+3+4+5+                  ",
"                6+7+8+^ z 9+0+a+b+c+d+e+f+g+h+i+j+k+]+l+m+n+o+p+T.q+r+Y.B.s+t+u+v+w+                ",
"            x+y+z+A+# $.B+|.X.C+D+E+F+G+H+I+J+K+L+M+N+O+P+Q+R+K+S+T+U+d+V+W+X+Y+Z+`+                ",
"             @.@+@@@#@$@o.b.%@&@*@=@;.-@;@>@,@'@)@L+!@~@{@]@H+^@/@j+(@_@!+:@J <@[@                  ",
"    }@|@1@2@3@4@J 5@i.6@$@7@8@9@0@a@b@c@d@e@f+~+f@(@g@}+h@g@T.i@9.j@k@v.l@K.m@                      ",
"    n@o@p@q@r@s@t@u@$@t@-+v@w@=+x@y@z@&@A@L+B@f@/@~+Q+'@C@&@D@/+E@F@G@H@-.I@                        ",
"    J@K@L@M@$.N@O@P@Q@Z.v.Q+R@q+w@9.g@S@D+T@U@V@U+W@T.&@]@X@Y@Z@`@ #r+.# ++#@#                      ",
"      ##$#%#x+p t.'.&#*#&@=#-#;#q+>#A@*@,#'#)#)#!#~#{#]#o+^#!@x.H+/#h@(#_#:#<#                      ",
"        [#}#|#o +.u@J.]#1#2#3#;#4#5#f@6#7#8#m+9#0#~#,#w@a#b#w.c#}+F+z@b.n d#                        ",
"                e#f#1+g#v.b@z.;+a.h#S@i#j#k#l#m#n#o#p#q#c+r#s#t#u#w@v#N.w#                          ",
"        x#          y#z#L.=+I.c+A#B#k@C#D#E#F#G#H#l+I#J#c#C+,#K#L#l@M#c.N#O#                        ",
"      P#Q#R#        S#T#U#V#W#~+7#X#Y#~@Z#`# $.$+$@$#$`@f@(+$$g@%$&$I.*$=$6.-$;$  >$      ,$'$      ",
"        )$          !$B ~${$U@g@-@e+]$^$`#]+/$]+($O+_$:$<$s#k@~+7#,#H@B#v.[$}$c.|$1$2$  3$4$q@5$6$  ",
"                7$8$^ O@=+9@h@K#i+v.7#9$0$a$l+b$c$d$e$9$=#f$o+g$g@E+h$~#i$5.O.j$k$l$m$n$o$: p$q$r$  ",
"          s$t$u$v$..K a+r#W@w$x$c+x$L#d@y$z$A$m+d$=#]$V@9.B$h$C$D$E$b#~+,.)+b.s.F$G$H$I$            ",
"          %+J$K$.@n.L$x$Y#M$l@H@N$g@B#L+/+b#k@O$P$e@~#~#Q$q+~#R$~@l+)#S$i$T$U$V$W$X$Y$Z$            ",
"              `$p K }$J.v#w@K#K#y. %k@.%j@U@+%f@@%f@~#!#9.s#7##%$%+%b@F.K %%&%*%=%                  ",
"          -%;%:#T$$@>%7@5.L.>.g+B$,%x.'%)%^$0#)#B#p#]$R$!%~%c+z.i$v.b.{%]%^%m$/%(%                  ",
"        _%:%O X+*+<%[%}%%.@.N@|+|%1%c#'%n#2%{@@%Z@7#!%3#X#3%d+4%5%a@|.6%  t$  7%            8%9%    ",
"        0%a%b%c%  d%e%f%g%h%i%j%'+N$k%A$l%Z@<$9.:$ %m%C$n%F+9@!%K+'. +o%p%          q%r%s%  t%u%    ",
"        v%w%      x%y%z%g   A%z#B%C%D%E%P+C#k@E+V@D+&$F%K+h+H@G%a.d.:#H%              I%            ",
"                    t%      J% +K%L%R@e@~+k@M%r+v.N%L$M#]#x@=+a+P@3.O%<%                            ",
"                            P%C F.Q%w@v#z@-@N%K%z#j%i$P@R%e@S%(#P@$@T%U%V%                          ",
"                          W%X%n L 1%~$U#Y%Z%H.q.`%k$t@ &.&$$+&@&D.#&p $&                            ",
"                          e%|@n.#.N%a+#.j%~$7.%&&&*&=&1+0@0@-&Y.;&>&,&'&)&!&~&{&                    ",
"                        u ]&^&/&k$).L $@`.1+(&    _&:&<&s.M 0+0+[&}&      |&p@1&                    ",
"                      2&x 3&8+4&O B 5&6&7&8&    9&G$  7$0&a&d.O@B+b&      c& @d&e&                  ",
"                      B d&f&g&h&[#i&j&k&n$      l&m&    n&o&# +#!.d&p&      q&r&s&                  ",
"                      t&u&  v&w&x&y&(.z&A&            B&C&D&E&1$F&6&G&                              ",
"                            H&I&J&  K&L&M&              /%  N&O&P&Q&                                ",
"                            R&        S&T&              U&    3@V&                                  ",
"                              W&      X&    Y&                Z&`&                                  ",
"                               *.*          +*@*              #*$*                                  ",
"                              %*            &***                =*                                  ",
"                                                                                                    ",
"                                                                                                    "};
