/* XPM */
static char * exp14_xpm[] = {
"50 50 735 2",
"  	c None",
". 	c #7A2121",
"+ 	c #9C1919",
"@ 	c #712424",
"# 	c #D10C0C",
"$ 	c #7A1C1C",
"% 	c #E00808",
"& 	c #6A2525",
"* 	c #7D1818",
"= 	c #AC1515",
"- 	c #472A2A",
"; 	c #A41212",
"> 	c #CA0D0D",
", 	c #A21818",
"' 	c #782222",
") 	c #AB1515",
"! 	c #582A2A",
"~ 	c #D80A0A",
"{ 	c #7C2121",
"] 	c #4D2A2A",
"^ 	c #851A1A",
"/ 	c #722424",
"( 	c #E40707",
"_ 	c #B51212",
": 	c #961B1B",
"< 	c #9D1919",
"[ 	c #771A1A",
"} 	c #C70E0E",
"| 	c #AD1414",
"1 	c #C31010",
"2 	c #212B2B",
"3 	c #5D2626",
"4 	c #462D2D",
"5 	c #881919",
"6 	c #E70606",
"7 	c #E30E07",
"8 	c #C00F10",
"9 	c #DE0708",
"0 	c #E60606",
"a 	c #D90A0A",
"b 	c #A81616",
"c 	c #9B1919",
"d 	c #E60806",
"e 	c #B41311",
"f 	c #9D1819",
"g 	c #A31717",
"h 	c #822020",
"i 	c #322C2C",
"j 	c #272D2D",
"k 	c #642323",
"l 	c #651F1F",
"m 	c #C40A0F",
"n 	c #FF2C00",
"o 	c #FF1800",
"p 	c #FF1B00",
"q 	c #FF0900",
"r 	c #C40F0F",
"s 	c #2F2F2F",
"t 	c #DD0808",
"u 	c #A61717",
"v 	c #742020",
"w 	c #9E1818",
"x 	c #233737",
"y 	c #8C1D1D",
"z 	c #CF0C0C",
"A 	c #BD1010",
"B 	c #EC0405",
"C 	c #EA0905",
"D 	c #F31303",
"E 	c #FD0F01",
"F 	c #D00B0C",
"G 	c #FA0901",
"H 	c #B20D14",
"I 	c #97181A",
"J 	c #8B1A1E",
"K 	c #5E2625",
"L 	c #612224",
"M 	c #FA4801",
"N 	c #FF5A00",
"O 	c #FF5C00",
"P 	c #FF6600",
"Q 	c #FF4400",
"R 	c #F20903",
"S 	c #6F2022",
"T 	c #7D2121",
"U 	c #7F2020",
"V 	c #871E1E",
"W 	c #5D2525",
"X 	c #E90506",
"Y 	c #831818",
"Z 	c #202E2E",
"` 	c #7F1B1B",
" .	c #BB1011",
"..	c #FA0C01",
"+.	c #FF2400",
"@.	c #F90D02",
"#.	c #FF3E00",
"$.	c #FF7F00",
"%.	c #FF3100",
"&.	c #FF6100",
"*.	c #BB0F11",
"=.	c #BD0C11",
"-.	c #FF7700",
";.	c #FFC700",
">.	c #FFA600",
",.	c #FFA900",
"'.	c #FF7600",
").	c #FF3500",
"!.	c #FF2500",
"~.	c #FF1300",
"{.	c #E80C06",
"].	c #562727",
"^.	c #991A1A",
"/.	c #B41313",
"(.	c #FE0300",
"_.	c #911A1A",
":.	c #BA1111",
"<.	c #E51207",
"[.	c #FF1F00",
"}.	c #FF2200",
"|.	c #FF4600",
"1.	c #FF5E00",
"2.	c #FB6701",
"3.	c #FF1500",
"4.	c #C90A0E",
"5.	c #FF4E00",
"6.	c #FFC500",
"7.	c #FFF701",
"8.	c #FFEC03",
"9.	c #FFB700",
"0.	c #FF7A00",
"a.	c #FF2000",
"b.	c #9E1417",
"c.	c #B11214",
"d.	c #FF0D00",
"e.	c #F30E03",
"f.	c #F11204",
"g.	c #EE0704",
"h.	c #E90906",
"i.	c #CD100C",
"j.	c #FF3F00",
"k.	c #FF4800",
"l.	c #FF5B00",
"m.	c #FF6500",
"n.	c #FF4700",
"o.	c #FF4C00",
"p.	c #FF3A00",
"q.	c #FF6300",
"r.	c #FFC900",
"s.	c #FFFF31",
"t.	c #FFFF30",
"u.	c #FFFC0C",
"v.	c #FFD300",
"w.	c #FFAD00",
"x.	c #FF6F00",
"y.	c #FF5200",
"z.	c #FF3D00",
"A.	c #FF4900",
"B.	c #FF3C00",
"C.	c #FF3900",
"D.	c #FF5900",
"E.	c #F80002",
"F.	c #96191A",
"G.	c #672626",
"H.	c #D01B0C",
"I.	c #FF6A00",
"J.	c #FF8800",
"K.	c #FFA200",
"L.	c #FF8C00",
"M.	c #FF7D00",
"N.	c #FFA700",
"O.	c #FFA400",
"P.	c #FF7B00",
"Q.	c #FF6B00",
"R.	c #FF8F00",
"S.	c #FFE000",
"T.	c #FFFF70",
"U.	c #FFFF47",
"V.	c #FFFF18",
"W.	c #FFE200",
"X.	c #FF8E00",
"Y.	c #FF8B00",
"Z.	c #FF8700",
"`.	c #FF5500",
" +	c #D30B0B",
".+	c #532B2B",
"++	c #DA0909",
"@+	c #C01310",
"#+	c #821C1D",
"$+	c #861C1C",
"%+	c #EE0404",
"&+	c #D50A0A",
"*+	c #FF2D00",
"=+	c #FFB000",
"-+	c #FFA500",
";+	c #FFA300",
">+	c #FFCD00",
",+	c #FFEB00",
"'+	c #FFA100",
")+	c #FFAE00",
"!+	c #FFF90B",
"~+	c #FFFF8E",
"{+	c #FFFFBD",
"]+	c #FFFF7E",
"^+	c #FFFF5C",
"/+	c #FFFF23",
"(+	c #FFEE00",
"_+	c #FFDF00",
":+	c #FFE503",
"<+	c #FFF704",
"[+	c #FFE300",
"}+	c #FFAF00",
"|+	c #A71614",
"1+	c #5B2626",
"2+	c #C01010",
"3+	c #B31313",
"4+	c #452323",
"5+	c #9A1A1A",
"6+	c #D9090A",
"7+	c #F20403",
"8+	c #E80506",
"9+	c #FE1200",
"0+	c #FFAA00",
"a+	c #FF9C00",
"b+	c #FFBC00",
"c+	c #FFBD00",
"d+	c #FFB200",
"e+	c #FFE100",
"f+	c #FFFF4E",
"g+	c #FFFFCD",
"h+	c #FFFFAC",
"i+	c #FFFF21",
"j+	c #FFF500",
"k+	c #FFE400",
"l+	c #FFFF0A",
"m+	c #FFCB00",
"n+	c #FFC100",
"o+	c #FF8600",
"p+	c #FF4F00",
"q+	c #F61402",
"r+	c #E80806",
"s+	c #7B1F1F",
"t+	c #891919",
"u+	c #D20B0B",
"v+	c #DD0909",
"w+	c #642727",
"x+	c #C60D0E",
"y+	c #F80C02",
"z+	c #FF0200",
"A+	c #FF0700",
"B+	c #FFB600",
"C+	c #FFF80C",
"D+	c #FFFB06",
"E+	c #FFE700",
"F+	c #FFD200",
"G+	c #FFEC04",
"H+	c #FFC000",
"I+	c #FFD500",
"J+	c #FFFF10",
"K+	c #FFFF72",
"L+	c #FFFFBF",
"M+	c #FFFF94",
"N+	c #FFFF55",
"O+	c #FFFE0E",
"P+	c #FFD000",
"Q+	c #FFFF17",
"R+	c #FFFD0B",
"S+	c #FFF503",
"T+	c #FFB800",
"U+	c #FF4D00",
"V+	c #FC0A01",
"W+	c #A51617",
"X+	c #A41717",
"Y+	c #EC0605",
"Z+	c #F40E03",
"`+	c #FF6C00",
" @	c #FF7900",
".@	c #FFF702",
"+@	c #FFB900",
"@@	c #FFDE00",
"#@	c #FFFE0A",
"$@	c #FFEA00",
"%@	c #FFE600",
"&@	c #FFF80F",
"*@	c #FFFF57",
"=@	c #FFFF2F",
"-@	c #FFFF19",
";@	c #FFDA00",
">@	c #FFFF1D",
",@	c #FFFF38",
"'@	c #FFFF1A",
")@	c #FFEB01",
"!@	c #FFAB00",
"~@	c #FF1900",
"{@	c #532323",
"]@	c #482B2B",
"^@	c #4F2929",
"/@	c #8B1D1D",
"(@	c #C00E10",
"_@	c #FD1700",
":@	c #FE2100",
"<@	c #FF2F00",
"[@	c #FF4B00",
"}@	c #FF6200",
"|@	c #FFAC00",
"1@	c #FF9500",
"2@	c #FFF002",
"3@	c #FFFE11",
"4@	c #FFE900",
"5@	c #FFFF0D",
"6@	c #FFFF22",
"7@	c #FFFA05",
"8@	c #FFFF05",
"9@	c #FFFF0B",
"0@	c #FFF303",
"a@	c #FFFF0F",
"b@	c #FFFF3A",
"c@	c #FFF715",
"d@	c #FF8A00",
"e@	c #CD0E0D",
"f@	c #841F1F",
"g@	c #C30F0F",
"h@	c #F80202",
"i@	c #FD1001",
"j@	c #FF7000",
"k@	c #FF5400",
"l@	c #FF9D00",
"m@	c #FFC905",
"n@	c #FFC400",
"o@	c #FFBE00",
"p@	c #FFFF09",
"q@	c #FFFF27",
"r@	c #FFFE0F",
"s@	c #FFFF16",
"t@	c #FFFF15",
"u@	c #FFFF02",
"v@	c #FFF100",
"w@	c #FFFB0B",
"x@	c #FFFF36",
"y@	c #FFFF46",
"z@	c #FFFF49",
"A@	c #FFE90E",
"B@	c #FF9100",
"C@	c #D21E0C",
"D@	c #BA1212",
"E@	c #C60F0F",
"F@	c #8F1C1C",
"G@	c #F10304",
"H@	c #FD0700",
"I@	c #FF2900",
"J@	c #FF7800",
"K@	c #FF9200",
"L@	c #FFC800",
"M@	c #FFFD1C",
"N@	c #FFFF33",
"O@	c #FFFD02",
"P@	c #FFFB04",
"Q@	c #FFEF00",
"R@	c #FFFC03",
"S@	c #FFFE08",
"T@	c #FFF200",
"U@	c #FFFC06",
"V@	c #FFFF04",
"W@	c #FFFF39",
"X@	c #FFFF48",
"Y@	c #FFFF1E",
"Z@	c #FFCA00",
"`@	c #FA0601",
" #	c #B51313",
".#	c #632525",
"+#	c #B61212",
"@#	c #C20F0F",
"##	c #F70102",
"$#	c #FF0C00",
"%#	c #FFD100",
"&#	c #FFDD00",
"*#	c #FFFA07",
"=#	c #FFFF2C",
"-#	c #FFFF1B",
";#	c #FFDB00",
">#	c #FFFA0B",
",#	c #FFEC00",
"'#	c #FFD800",
")#	c #FFF605",
"!#	c #FFFC00",
"~#	c #FFF502",
"{#	c #FFE500",
"]#	c #FFFF44",
"^#	c #FFFF50",
"/#	c #FFF400",
"(#	c #FFA000",
"_#	c #FF4A00",
":#	c #94191B",
"<#	c #AA1515",
"[#	c #E10808",
"}#	c #702424",
"|#	c #B71212",
"1#	c #DA0709",
"2#	c #FF2100",
"3#	c #FF4300",
"4#	c #FFC300",
"5#	c #FFCF00",
"6#	c #FFEE01",
"7#	c #FFC200",
"8#	c #FFFF61",
"9#	c #FFFF63",
"0#	c #FFFA03",
"a#	c #FFCC00",
"b#	c #FFC600",
"c#	c #FFFF14",
"d#	c #FF2B00",
"e#	c #931A1B",
"f#	c #901819",
"g#	c #CC130D",
"h#	c #FF9600",
"i#	c #FF9000",
"j#	c #FFB100",
"k#	c #FFFE00",
"l#	c #FFFF82",
"m#	c #FFFF97",
"n#	c #FFFF85",
"o#	c #FFFF56",
"p#	c #FFFF3C",
"q#	c #FFED00",
"r#	c #FFF707",
"s#	c #FFF105",
"t#	c #FFF000",
"u#	c #FF9F00",
"v#	c #B51F13",
"w#	c #E20608",
"x#	c #FF9E00",
"y#	c #FF9400",
"z#	c #FFD400",
"A#	c #FFD600",
"B#	c #FFF901",
"C#	c #FFFF43",
"D#	c #FFFF69",
"E#	c #FFFF73",
"F#	c #FFFF9D",
"G#	c #FFFFAE",
"H#	c #FFFFA5",
"I#	c #FFFF84",
"J#	c #FFFF13",
"K#	c #FFBF00",
"L#	c #FFD700",
"M#	c #BC1911",
"N#	c #51252C",
"O#	c #941B1B",
"P#	c #F10303",
"Q#	c #602323",
"R#	c #B11814",
"S#	c #FF2E00",
"T#	c #FF9300",
"U#	c #FFF404",
"V#	c #FFFE0C",
"W#	c #FFFF8D",
"X#	c #FFFFAA",
"Y#	c #FFFFC6",
"Z#	c #FFFFBE",
"`#	c #FFFF6E",
" $	c #FFFF0C",
".$	c #FA5D01",
"+$	c #EE6004",
"@$	c #5E2021",
"#$	c #FFF601",
"$$	c #FFF803",
"%$	c #FFFF11",
"&$	c #FFFF4F",
"*$	c #FFFF89",
"=$	c #FFFFA6",
"-$	c #FFFF77",
";$	c #FFFFBC",
">$	c #FFFF58",
",$	c #FFFF3E",
"'$	c #FFF900",
")$	c #FFD900",
"!$	c #FF6900",
"~$	c #FF7300",
"{$	c #E70406",
"]$	c #691F1E",
"^$	c #372929",
"/$	c #292C2C",
"($	c #921C1C",
"_$	c #F00404",
":$	c #DA0A0A",
"<$	c #C50F0F",
"[$	c #A71513",
"}$	c #9B1719",
"|$	c #F50E03",
"1$	c #FF4000",
"2$	c #FFB500",
"3$	c #FFFC04",
"4$	c #FFFF4C",
"5$	c #FFFF86",
"6$	c #FFFF9B",
"7$	c #FFFF90",
"8$	c #FFFF9C",
"9$	c #FFFF60",
"0$	c #FFFF2E",
"a$	c #FFFF07",
"b$	c #FFFC01",
"c$	c #FFF700",
"d$	c #FFF600",
"e$	c #FF7E00",
"f$	c #FF5800",
"g$	c #FF1E00",
"h$	c #682626",
"i$	c #412D2D",
"j$	c #542424",
"k$	c #931313",
"l$	c #921818",
"m$	c #831C1C",
"n$	c #232F2F",
"o$	c #1E2B2B",
"p$	c #F31103",
"q$	c #FFFF6B",
"r$	c #FFFF7F",
"s$	c #FFFF75",
"t$	c #FFFF65",
"u$	c #FFFF2A",
"v$	c #FFFF0E",
"w$	c #FFDC00",
"x$	c #FFFF28",
"y$	c #FFF90E",
"z$	c #FF3000",
"A$	c #EE0D04",
"B$	c #6F2424",
"C$	c #B21313",
"D$	c #302727",
"E$	c #632424",
"F$	c #F21203",
"G$	c #FF5700",
"H$	c #FFBB00",
"I$	c #FFFE03",
"J$	c #FFFA00",
"K$	c #FFFF25",
"L$	c #FFF908",
"M$	c #FFFF4D",
"N$	c #FFF300",
"O$	c #FFEC01",
"P$	c #FFFF45",
"Q$	c #FFFF93",
"R$	c #FF6000",
"S$	c #E41007",
"T$	c #BE0E10",
"U$	c #CF0B0C",
"V$	c #3C2929",
"W$	c #8A1A1A",
"X$	c #482A2B",
"Y$	c #F90501",
"Z$	c #FF5300",
"`$	c #FFED02",
" %	c #FFFC07",
".%	c #FFFF12",
"+%	c #FFFF00",
"@%	c #FFF70B",
"#%	c #FFE706",
"$%	c #FFFF29",
"%%	c #FF6D00",
"&%	c #FB1E01",
"*%	c #CE0B0C",
"=%	c #792222",
"-%	c #442F2F",
";%	c #9F1818",
">%	c #C80E0E",
",%	c #FF1A00",
"'%	c #FF3400",
")%	c #FF8100",
"!%	c #FFFF2B",
"~%	c #FFFF5F",
"{%	c #FFFF6C",
"]%	c #FFF602",
"^%	c #FA2201",
"/%	c #A80E13",
"(%	c #851D1C",
"_%	c #5A2828",
":%	c #711E1E",
"<%	c #4D2424",
"[%	c #E50707",
"}%	c #F80902",
"|%	c #FF0A00",
"1%	c #F90D01",
"2%	c #F30003",
"3%	c #DE1F08",
"4%	c #E91106",
"5%	c #F31903",
"6%	c #FF2A00",
"7%	c #FC2301",
"8%	c #FFFE18",
"9%	c #FFF301",
"0%	c #FFBA00",
"a%	c #D8100A",
"b%	c #781A1A",
"c%	c #B01414",
"d%	c #891D1D",
"e%	c #BC1111",
"f%	c #831F1F",
"g%	c #711B1B",
"h%	c #552C2C",
"i%	c #1B3333",
"j%	c #AD1515",
"k%	c #D5170A",
"l%	c #FFF00E",
"m%	c #FFFF67",
"n%	c #FFF804",
"o%	c #FFFF32",
"p%	c #FFF206",
"q%	c #F60802",
"r%	c #A21717",
"s%	c #871C1C",
"t%	c #7B2121",
"u%	c #303434",
"v%	c #742323",
"w%	c #E10707",
"x%	c #403030",
"y%	c #552323",
"z%	c #FF1400",
"A%	c #FFFF40",
"B%	c #FFFF6D",
"C%	c #FFFF51",
"D%	c #FFFF3F",
"E%	c #FF1600",
"F%	c #BC1011",
"G%	c #8D1D1D",
"H%	c #FF7C00",
"I%	c #FFFE14",
"J%	c #FFFC22",
"K%	c #FF8400",
"L%	c #FF9B00",
"M%	c #FF0F00",
"N%	c #DA0809",
"O%	c #5A2526",
"P%	c #FC2001",
"Q%	c #FF5000",
"R%	c #FFF201",
"S%	c #F50002",
"T%	c #CA0E0E",
"U%	c #9B1A19",
"V%	c #FC0601",
"W%	c #FF9800",
"X%	c #FF4500",
"Y%	c #F32603",
"Z%	c #FFE601",
"`%	c #FFFC08",
" &	c #F80D02",
".&	c #FD0C01",
"+&	c #FF0300",
"@&	c #692426",
"#&	c #E40407",
"$&	c #FF4100",
"%&	c #FF6E00",
"&&	c #C90D0E",
"*&	c #9D1719",
"=&	c #841D1F",
"-&	c #D6040B",
";&	c #FF7200",
">&	c #FF0000",
",&	c #8A1D1D",
"'&	c #E60506",
")&	c #FE1E00",
"!&	c #FD1800",
"~&	c #FF4200",
"{&	c #C4180F",
"]&	c #2A2E2E",
"^&	c #FE0000",
"/&	c #FF6800",
"(&	c #74181E",
"_&	c #662727",
":&	c #5B2A2A",
"<&	c #981717",
"[&	c #7D1D1D",
"}&	c #D90909",
"|&	c #ED0505",
"1&	c #F00904",
"2&	c #FE0800",
"3&	c #EE0904",
"4&	c #E41207",
"5&	c #EE1004",
"6&	c #C60B0F",
"7&	c #5A2424",
"8&	c #7F1F20",
"9&	c #FF5600",
"0&	c #C70E0F",
"a&	c #F60502",
"b&	c #991516",
"c&	c #E00E08",
"d&	c #ED1004",
"e&	c #7E2121",
"f&	c #CD0C0C",
"g&	c #DB0909",
"h&	c #DC0909",
"i&	c #891E1E",
"j&	c #5A2A2A",
"k&	c #881E1E",
"l&	c #B91212",
"m&	c #472929",
"n&	c #A31517",
"o&	c #FC1001",
"p&	c #FA1101",
"q&	c #F10203",
"r&	c #EB0505",
"s&	c #D00F0C",
"t&	c #D20A0C",
"u&	c #CB0D0D",
"v&	c #5A2525",
"w&	c #262C2C",
"x&	c #472C2C",
"y&	c #802020",
"z&	c #CE0C0C",
"A&	c #F80302",
"B&	c #BE1010",
"C&	c #A61616",
"D&	c #732323",
"E&	c #252828",
"F&	c #2C3030",
"G&	c #243131",
"H&	c #662020",
"I&	c #971A1A",
"J&	c #FB0001",
"K&	c #D7100A",
"L&	c #692424",
"M&	c #282A2A",
"N&	c #762222",
"O&	c #462929",
"P&	c #772222",
"Q&	c #4F2B2B",
"R&	c #851F1F",
"S&	c #632727",
"T&	c #811D1D",
"U&	c #3A2E2E",
"V&	c #B11414",
"W&	c #911C1C",
"X&	c #C7110E",
"Y&	c #811F1F",
"Z&	c #E80606",
"                                                                                                    ",
"                                                                                                    ",
"                                                                                                    ",
"                                                .                                                   ",
"                                  + @           #                                                   ",
"                                $ % &         * = - ; >                   , '                       ",
"                          ) !   ~ { ]       ^ / ( _ : <                   [ }                       ",
"                          | 1 2 3 4       5 6 7 8 9 0 a     b                                       ",
"                  c   d e f g h i j     k l m n o p q r   s t u     v w   x   y z A                 ",
"                  B C D E q F G H I J K ) L M N O P Q R S T U       V U W X Y Z `                   ",
"                   ...C +.p @.#.$.%.&.*.' =.-.;.>.,.'.).!.~.{.    ]._ ^./.(._.                      ",
"                    :.<.[.}.[.|.1.#.2.3.4.E 5.6.7.8.9.'.0.1.a.b.c.d.e.f.g.h.y                       ",
"                      i.p j.k.l.m.N n.o.p.5.q.r.s.t.u.v.w.x.y.z.n A.B.C.D.E.                        ",
"                F.    G.H.I.J.K.L.M.N.O.P.Q.R.S.T.T.U.V.W.X.Y.J.K.X.Z.`.[. +  .+++                  ",
"                @+#+$+%+&+*+=+-+Z.;+>+,+'+L.)+!+~+{+]+^+/+(+_+:+<+[+}+'.p.|+1+2+3+                  ",
"                4+5+6+7+8+9+0+R.a+b+c+,+(+d+=+e+f+g+h+~+^+i+j+k+l+m+n+o+p+q+r+t s+t+                ",
"            u+v+w+x+y+z+A+o.B+C+D+E+F+[+G+}+H+I+J+K+L+M+N+O+k+P+Q+R+S+T+0.U+V+W+/.X+                ",
"            Y+%+9 Z+z.%.k.`+ @.@v.O.+@@@#@$@%@(+,+&@*@=@-@-@j+;@>@,@'@)@!@N ~@{@]@                  ",
"    ) t X+^@/@(@_@:@<@5.[@}@`+N.|@1@-+2@/+3@4@5@5@6@7@H+P+8@9@0@a@b@c@T+n+d@e@                      ",
"    f@g@X+h@% i@j@O O k@l@m@_+O.n@b+o@p@q@r@@@s@t@D+u@v@(+w@x@y@U.z@A@B@Z.C@                        ",
"    D@E@F@G@H@I@U+J@K@X.L@M@N@o@v.O@P@P@,+Q@R@S@T@7.U@V@a@W@X@6@Y@4@Z@}@p+`@ #                      ",
"      .#+#@###$#~.$.%#&#*#=#-#n@;#>#i+,#'#)#'@Y@!#~#{#v.@@]#^#-@/#[+E+(#_#$#:#                      ",
"      <#[#}#|#1#2#3#L.4#v@5#6#7#+@S.Q+S.S@X@8#9#]#0#a#b#L@6@N@c#6.H+L@X.d#e#                        ",
"                f#g#B.h#6.i#j#N.T+6#k#2@b@l#m#n#o#p#q#r#a#E+s#t#n@d+u#Q.v#                          ",
"                    w#k@x#y#u#z#A#B#-@C#D#E#F#G#H#I#p#=@J#6#K#a#L#H+,.I.M#N#                        ",
"      O#P#Q#        R#S#T#{#U#V#v@_+v@z@]+W#X#Y#Z#h+`#=#Y@Q+ $S+4@B+>.o@=+D..$+$                    ",
"        w           @$o o+&##$$$F+F+%$&$*$=$-$=$;$F#>$,$Q+'$c#a@R@v.,.)$+@!$~$J@{$]$^$  /$($_$:$<$  ",
"                [$}$|$1$>.2$>+6.5#4#3$4$5$6$7$m#8$-$9$4$0$a$b$$@c$d$b#d$l@P e$f$g$:#h$i$  j$s+k$l$  ",
"          m$n$o$p$d#f$h#_+0@%#H+r.Z@L#,@q$r$s$t$K+u$v$O+t@E+w${#7.x$=@y$l@J@q.z$A$B$C$|#            ",
"        2+= D$E$F$G$j@H$W.I$+@l@n@~#J$K$f+u$-@L$M$Q+!#N$O$w$$$6@P$Q$s.'#N.R$S$T$U$V$  W$            ",
"            X$Y$d#Z$Q.L.;+r.c+6.`$c#c#-@p# %V..%u$'@#$Q@T@E++%@%#%$%'#f$%%&%*%=%-%                  ",
"          ;%>%,%'%z.k.`.G$)%+@9.%@v@!%~%{%M$,$t@N$]%l+5@v@,#w$o@h#4#q.^%/%(%_%2+:%                  ",
"        <%[%}%|%1%2%3%4%5%6%7%-.T+z#8%K+x@u.x$a@J+9%j+N$S.w$0%H+k+u#!.a%      b%            ]@c%    ",
"      d%e%X+f%g%h%i%j%y % ! k%Q.a+o@l%m%U.K$t@n%o%c#e+'#P+L@!@p%N$e$z$q%r%            s%5+    t%    ",
"        3+u%      v%w%x%  y%z%D.M.>+A%B%C%D%s@(+8@t#o@H$Z@-+0+A#I+R$E%F%                G%          ",
"                          c.~@1$H%I%&$J%s@%${#r.b#,.K%N.>+N.u#L%X.f$M%N%                            ",
"                            O%P%m.4@k+x#7#A#|@H%Q%o+K.R.&#R%4#Z.K%R$S%T%                            ",
"                          }#U%V%`+'#W%x.$.;+a+X%Y%j.N $.Z%`%'#e$5. &.&+&@&                          ",
"                          X+#&$&l.B+R.I.%&e$`.&&*&=&-&|.0%7#6.;&a.b >&+#                            ",
"                        ,&>%'&)&!&l.`+_#Z$~&{&      ]&^&l./&T#'.N (&_&      :&<&                    ",
"                      [&z }&% |&1&2&3&4&5&6&      7&  8&R *+9&U+$&0&        = a&b&                  ",
"                      c&d&e&f&u+g&h&:.i&j&      k&l&    m&n&o&p&3.q&        O#r& #                  ",
"                      s&t&  ( ) u&D@C$v&          T       w&x&y&z&A&B&        k&C&                  ",
"                            g@D&  Q#O#E&                @     F&G&H&I&                              ",
"                          J&K&        L&M&              b N&  O& #                                  ",
"                                      C&P&                    Q&u+R&                                ",
"                              =%S&          T&                U&V&                                  ",
"                              r W&          X&Y&                u+Z&                                ",
"                                                                                                    ",
"                                                                                                    "};
