/* XPM */
static char * exp12_xpm[] = {
"50 50 724 2",
"  	c None",
". 	c #BE1210",
"+ 	c #FF2000",
"@ 	c #B00E14",
"# 	c #F52603",
"$ 	c #C80B0E",
"% 	c #FB1501",
"& 	c #273131",
"* 	c #A51417",
"= 	c #C2140F",
"- 	c #FF0E00",
"; 	c #EC0A05",
"> 	c #D40C0B",
", 	c #6B2425",
"' 	c #A91515",
") 	c #FF4400",
"! 	c #E30407",
"~ 	c #FF1B00",
"{ 	c #E51406",
"] 	c #F52303",
"^ 	c #B62112",
"/ 	c #FF2700",
"( 	c #E73406",
"_ 	c #4A2D2D",
": 	c #DE1108",
"< 	c #C50D0E",
"[ 	c #8C1D1D",
"} 	c #C90D09",
"| 	c #FF1900",
"1 	c #FA1401",
"2 	c #FF3C00",
"3 	c #FF3700",
"4 	c #FF1E00",
"5 	c #F61B03",
"6 	c #901A1D",
"7 	c #A82116",
"8 	c #A02218",
"9 	c #DA0509",
"0 	c #BB140D",
"a 	c #F31303",
"b 	c #B91011",
"c 	c #951B1A",
"d 	c #C70E0E",
"e 	c #841F1F",
"f 	c #A50D0F",
"g 	c #F51A03",
"h 	c #FF7A00",
"i 	c #FF6400",
"j 	c #FF6E00",
"k 	c #FF5400",
"l 	c #363234",
"m 	c #AA0C10",
"n 	c #FF1700",
"o 	c #E80306",
"p 	c #E92C05",
"q 	c #B32F13",
"r 	c #FF5800",
"s 	c #FF4A00",
"t 	c #FF4900",
"u 	c #FB3B01",
"v 	c #FF3600",
"w 	c #EE0004",
"x 	c #A61516",
"y 	c #941B1B",
"z 	c #B21314",
"A 	c #DA0E09",
"B 	c #742123",
"C 	c #FF4200",
"D 	c #FF9F00",
"E 	c #FF9E00",
"F 	c #FFA800",
"G 	c #FF8700",
"H 	c #8B141A",
"I 	c #AC1315",
"J 	c #D10F0C",
"K 	c #AD1314",
"L 	c #FF2500",
"M 	c #AE1214",
"N 	c #95161B",
"O 	c #A62016",
"P 	c #482424",
"Q 	c #DA180A",
"R 	c #E43207",
"S 	c #C81E0E",
"T 	c #FF6300",
"U 	c #FF4F00",
"V 	c #FF5B00",
"W 	c #FF7C00",
"X 	c #FF7E00",
"Y 	c #FF6200",
"Z 	c #F92302",
"` 	c #FF2F00",
" .	c #EF0004",
"..	c #EF0804",
"+.	c #EE0604",
"@.	c #FFCA00",
"#.	c #FFF212",
"$.	c #FFD100",
"%.	c #FFE100",
"&.	c #FFC000",
"*.	c #FF7F00",
"=.	c #FF4700",
"-.	c #FD2501",
";.	c #622727",
">.	c #F90201",
",.	c #FF2A00",
"'.	c #F60702",
").	c #FF5300",
"!.	c #FF5A00",
"~.	c #A21317",
"{.	c #4E2A2A",
"].	c #F92402",
"^.	c #FF9600",
"/.	c #FF7800",
"(.	c #FF8100",
"_.	c #FF8200",
":.	c #FF7300",
"<.	c #FF8E00",
"[.	c #FFA600",
"}.	c #FF9000",
"|.	c #FF3A00",
"1.	c #FF5C00",
"2.	c #FFA200",
"3.	c #FFEA0F",
"4.	c #FFFF22",
"5.	c #FFFF1E",
"6.	c #FFDF00",
"7.	c #FFAC00",
"8.	c #FF8A00",
"9.	c #FF5700",
"0.	c #C0060D",
"a.	c #DE1A08",
"b.	c #FF3B00",
"c.	c #FF5900",
"d.	c #FF7000",
"e.	c #91191C",
"f.	c #FF3D00",
"g.	c #FF7600",
"h.	c #FF7100",
"i.	c #FFAA00",
"j.	c #FFAF00",
"k.	c #FF8F00",
"l.	c #FF7400",
"m.	c #FF8000",
"n.	c #FF9A00",
"o.	c #FFE90A",
"p.	c #FFFF5A",
"q.	c #FFFF60",
"r.	c #FFFC1D",
"s.	c #FFEA00",
"t.	c #FFDE00",
"u.	c #FFB700",
"v.	c #FF8600",
"w.	c #FF8300",
"x.	c #FFB100",
"y.	c #F93602",
"z.	c #FF9100",
"A.	c #FFC500",
"B.	c #FFDC00",
"C.	c #FFC300",
"D.	c #FFC200",
"E.	c #FFB400",
"F.	c #FFB300",
"G.	c #FFBC00",
"H.	c #FFFB10",
"I.	c #FFFF7D",
"J.	c #FFFF95",
"K.	c #FFFF6C",
"L.	c #FFFF40",
"M.	c #FFFC0F",
"N.	c #FFC700",
"O.	c #FFB900",
"P.	c #FFC100",
"Q.	c #FFD700",
"R.	c #FF9700",
"S.	c #FF9300",
"T.	c #B15A14",
"U.	c #58292A",
"V.	c #F93002",
"W.	c #FF0200",
"X.	c #76191C",
"Y.	c #E12208",
"Z.	c #FF4300",
"`.	c #FF3900",
" +	c #FFE400",
".+	c #FFFF08",
"++	c #FFE200",
"@+	c #FFD800",
"#+	c #FFFF06",
"$+	c #FFF808",
"%+	c #FFE800",
"&+	c #FFFF26",
"*+	c #FFFF9A",
"=+	c #FFFFC9",
"-+	c #FFFF9F",
";+	c #FFFF70",
">+	c #FFFF4C",
",+	c #FFFF12",
"'+	c #FFF50F",
")+	c #FFFD13",
"!+	c #FFFF1C",
"~+	c #FFFF0F",
"{+	c #B30A13",
"]+	c #B71E0F",
"^+	c #FF1500",
"/+	c #FF0F00",
"(+	c #A11215",
"_+	c #BD1011",
":+	c #FE1300",
"<+	c #FF6100",
"[+	c #FFD000",
"}+	c #FFD500",
"|+	c #FFD400",
"1+	c #FFF900",
"2+	c #FFFE04",
"3+	c #FFFF15",
"4+	c #FFE900",
"5+	c #FFD900",
"6+	c #FFFC06",
"7+	c #FFFF61",
"8+	c #FFFFDE",
"9+	c #FFFFCD",
"0+	c #FFFFA2",
"a+	c #FFFF81",
"b+	c #FFFF5D",
"c+	c #FFFF39",
"d+	c #FFFF28",
"e+	c #FFFF34",
"f+	c #FFFA11",
"g+	c #FF8C00",
"h+	c #FF4C00",
"i+	c #F92F02",
"j+	c #FB2401",
"k+	c #A41217",
"l+	c #753222",
"m+	c #E31107",
"n+	c #AD1415",
"o+	c #EB0F05",
"p+	c #FF1200",
"q+	c #FF8400",
"r+	c #FFF207",
"s+	c #FFFE12",
"t+	c #FFFF2B",
"u+	c #FFFD12",
"v+	c #FFFF17",
"w+	c #FFFF30",
"x+	c #FFE500",
"y+	c #FFEC00",
"z+	c #FFFF0B",
"A+	c #FFFF44",
"B+	c #FFFFA0",
"C+	c #FFFFF2",
"D+	c #FFFFC6",
"E+	c #FFFF86",
"F+	c #FFFF41",
"G+	c #FFFF20",
"H+	c #FFFB11",
"I+	c #FFFF36",
"J+	c #FFF000",
"K+	c #FFBA00",
"L+	c #FF5600",
"M+	c #F80302",
"N+	c #FF1800",
"O+	c #FF0500",
"P+	c #FF2900",
"Q+	c #FF6500",
"R+	c #FF8500",
"S+	c #FFCF00",
"T+	c #FFFF37",
"U+	c #FFFE23",
"V+	c #FFF60B",
"W+	c #FFF604",
"X+	c #FFFF14",
"Y+	c #FFFF4F",
"Z+	c #FFFF29",
"`+	c #FFFF25",
" @	c #FFFF49",
".@	c #FFFF9E",
"+@	c #FFFF7E",
"@@	c #FFFC0E",
"#@	c #FFFF66",
"$@	c #FFFF74",
"%@	c #FFFF5C",
"&@	c #FF9400",
"*@	c #FF5500",
"=@	c #DD0408",
"-@	c #94191B",
";@	c #F42C03",
">@	c #CC100D",
",@	c #662627",
"'@	c #E10907",
")@	c #FF5100",
"!@	c #FF6B00",
"~@	c #FF6800",
"{@	c #FFAB00",
"]@	c #FFF700",
"^@	c #FFC800",
"/@	c #FFFF24",
"(@	c #FFFF4B",
"_@	c #FFFF56",
":@	c #FFF904",
"<@	c #FFF914",
"[@	c #FFFF3A",
"}@	c #FFFF21",
"|@	c #FFFF47",
"1@	c #FFFF8D",
"2@	c #FFFC07",
"3@	c #FFFC03",
"4@	c #FE9200",
"5@	c #DB2009",
"6@	c #C2180F",
"7@	c #FF2400",
"8@	c #FF4000",
"9@	c #FF8800",
"0@	c #FF9B00",
"a@	c #FF9C00",
"b@	c #FFD604",
"c@	c #FFEF00",
"d@	c #FFE300",
"e@	c #FFFA0B",
"f@	c #FFF200",
"g@	c #FFFF33",
"h@	c #FFFF6B",
"i@	c #FFFF50",
"j@	c #FFFF55",
"k@	c #FFFF3D",
"l@	c #FFFF1B",
"m@	c #FFFF69",
"n@	c #FFFF75",
"o@	c #FFFF7F",
"p@	c #FFFF80",
"q@	c #FFDE0C",
"r@	c #E74202",
"s@	c #F50F02",
"t@	c #FA0A01",
"u@	c #FFDB00",
"v@	c #FFC600",
"w@	c #FFFB0C",
"x@	c #FFFF2D",
"y@	c #FFFF52",
"z@	c #FFFE14",
"A@	c #FFEE09",
"B@	c #FFFF42",
"C@	c #FFFF3C",
"D@	c #FFFF3E",
"E@	c #FFFF38",
"F@	c #FFFF62",
"G@	c #FFEE07",
"H@	c #FF8B00",
"I@	c #C9270E",
"J@	c #D14B08",
"K@	c #F50903",
"L@	c #FD0F01",
"M@	c #FF6D00",
"N@	c #FF8D00",
"O@	c #FFFB00",
"P@	c #FFF809",
"Q@	c #FFFC0C",
"R@	c #FFFF0C",
"S@	c #FFFF4D",
"T@	c #FFFF48",
"U@	c #FFFF32",
"V@	c #FFFF97",
"W@	c #FFFF8F",
"X@	c #FFFF31",
"Y@	c #FFCE00",
"Z@	c #FE1100",
"`@	c #C00D10",
" #	c #DE1309",
".#	c #FF2200",
"+#	c #FF6700",
"@#	c #FF9800",
"##	c #FFFC11",
"$#	c #FFFE10",
"%#	c #FFFF19",
"&#	c #FFFD1A",
"*#	c #FFFF54",
"=#	c #FFFF6D",
"-#	c #FFFF93",
";#	c #FFFF98",
">#	c #FFFF09",
",#	c #FFFC05",
"'#	c #FFFE28",
")#	c #FFFF71",
"!#	c #FFFF45",
"~#	c #FFF300",
"{#	c #FFFF10",
"]#	c #FFE301",
"^#	c #FFA900",
"/#	c #FF5E00",
"(#	c #9C2719",
"_#	c #9F2A19",
":#	c #AE1812",
"<#	c #D8150A",
"[#	c #FFFE0D",
"}#	c #FFF002",
"|#	c #FFFFA3",
"1#	c #FFFFBF",
"2#	c #FFFFB8",
"3#	c #FFFF88",
"4#	c #FFFF2E",
"5#	c #FFFA01",
"6#	c #FFE000",
"7#	c #FFAE00",
"8#	c #AA2415",
"9#	c #D61D0B",
"0#	c #FFD300",
"a#	c #FFDA00",
"b#	c #FFE700",
"c#	c #FFF701",
"d#	c #FFFF0E",
"e#	c #FFFF2C",
"f#	c #FFFF92",
"g#	c #FFFFD0",
"h#	c #FFFFB7",
"i#	c #FFFF78",
"j#	c #FFFF65",
"k#	c #FFFF1D",
"l#	c #FFFF0A",
"m#	c #FFFF0D",
"n#	c #DC2F09",
"o#	c #602228",
"p#	c #FA3A01",
"q#	c #EE1204",
"r#	c #5B2626",
"s#	c #971114",
"t#	c #FFFF07",
"u#	c #FFFFA8",
"v#	c #FFFFD8",
"w#	c #FFFFF1",
"x#	c #FFFFF0",
"y#	c #FFFFDD",
"z#	c #FFFFA4",
"A#	c #FFFF5F",
"B#	c #FFFF4A",
"C#	c #FFFF43",
"D#	c #FFFF13",
"E#	c #FFF800",
"F#	c #FEEA05",
"G#	c #FF7200",
"H#	c #FF6A00",
"I#	c #EC6005",
"J#	c #2A3636",
"K#	c #512C2C",
"L#	c #771E22",
"M#	c #5F2728",
"N#	c #C4510F",
"O#	c #951016",
"P#	c #871E1E",
"Q#	c #2E2F32",
"R#	c #FF4D00",
"S#	c #FFFF18",
"T#	c #FFFF72",
"U#	c #FFFFBA",
"V#	c #FFFFD4",
"W#	c #FFFFD5",
"X#	c #FFFFE8",
"Y#	c #FFFFCC",
"Z#	c #FFFF6E",
"`#	c #FFF100",
" $	c #FFEE00",
".$	c #FFB600",
"+$	c #9A1A1A",
"@$	c #732323",
"#$	c #502929",
"$$	c #D3140B",
"%$	c #FF3E00",
"&$	c #FF1400",
"*$	c #F60A02",
"=$	c #A72216",
"-$	c #F12004",
";$	c #FF4100",
">$	c #FFC900",
",$	c #FFFF02",
"'$	c #FFFE06",
")$	c #FFFFD7",
"!$	c #FFFFB9",
"~$	c #FFFFC2",
"{$	c #FFFFCA",
"]$	c #FFFF9B",
"^$	c #FFFF77",
"/$	c #FFFF76",
"($	c #FFFF57",
"_$	c #FFB200",
":$	c #FFBF00",
"<$	c #FF3500",
"[$	c #EA0405",
"}$	c #8C1C1D",
"|$	c #911B1C",
"1$	c #B81012",
"2$	c #C5210F",
"3$	c #AF1514",
"4$	c #E34607",
"5$	c #FA3E01",
"6$	c #FF1001",
"7$	c #C40E0F",
"8$	c #F11E03",
"9$	c #FFFE16",
"0$	c #FFFF00",
"a$	c #FFF600",
"b$	c #FFFB09",
"c$	c #FFFFA1",
"d$	c #FFFFB4",
"e$	c #FFFFAB",
"f$	c #FFFF51",
"g$	c #FFFD0E",
"h$	c #FF2100",
"i$	c #E30607",
"j$	c #85111B",
"k$	c #991719",
"l$	c #FF3200",
"m$	c #FFFF46",
"n$	c #FFFF6A",
"o$	c #FFFF23",
"p$	c #FFFF3B",
"q$	c #FFFFB2",
"r$	c #FF7700",
"s$	c #F31E03",
"t$	c #F51D03",
"u$	c #E00C08",
"v$	c #671D1D",
"w$	c #E01408",
"x$	c #FFE801",
"y$	c #FFF50C",
"z$	c #FFFB0E",
"A$	c #FFCB03",
"B$	c #FF8900",
"C$	c #F12204",
"D$	c #D3180B",
"E$	c #5A2B2B",
"F$	c #4E1F22",
"G$	c #EF1E04",
"H$	c #FFA700",
"I$	c #FFEF02",
"J$	c #FFFF7B",
"K$	c #FFFF1F",
"L$	c #FFFF2A",
"M$	c #FFF201",
"N$	c #FFD600",
"O$	c #F21B04",
"P$	c #D50007",
"Q$	c #F71F02",
"R$	c #E50A07",
"S$	c #FD1001",
"T$	c #492B2B",
"U$	c #303131",
"V$	c #3E2727",
"W$	c #E44C04",
"X$	c #E72706",
"Y$	c #F10004",
"Z$	c #FF4B00",
"`$	c #FF3400",
" %	c #F52802",
".%	c #FF6600",
"+%	c #FD4D00",
"@%	c #FFBE00",
"#%	c #FFEF01",
"$%	c #FFFFAD",
"%%	c #FFFF8A",
"&%	c #FFFF67",
"*%	c #FFFF16",
"=%	c #FFFF27",
"-%	c #FFF803",
";%	c #DB2309",
">%	c #DD0608",
",%	c #6E2324",
"'%	c #AF1011",
")%	c #402626",
"!%	c #3A2727",
"~%	c #312C2D",
"{%	c #991A1A",
"]%	c #F40D03",
"^%	c #E60606",
"/%	c #BB1811",
"(%	c #8D1016",
"_%	c #113537",
":%	c #FF2B00",
"<%	c #C51B0E",
"[%	c #F92701",
"}%	c #FFA000",
"|%	c #FFFFAE",
"1%	c #FFFF68",
"2%	c #FFF910",
"3%	c #FFF702",
"4%	c #FF6C00",
"5%	c #821B1E",
"6%	c #BB0711",
"7%	c #3B2E31",
"8%	c #EB0A05",
"9%	c #A21C17",
"0%	c #A01418",
"a%	c #FF2D00",
"b%	c #FFCD00",
"c%	c #FFF008",
"d%	c #FFFF99",
"e%	c #FFF203",
"f%	c #FFF905",
"g%	c #FF5000",
"h%	c #C9100D",
"i%	c #662527",
"j%	c #DB2409",
"k%	c #C10E10",
"l%	c #FFFF3F",
"m%	c #FFF307",
"n%	c #FFF606",
"o%	c #FFFF1A",
"p%	c #FFFC14",
"q%	c #D7000A",
"r%	c #B70912",
"s%	c #FFCC00",
"t%	c #FFF103",
"u%	c #FFF90A",
"v%	c #FFCB00",
"w%	c #FFFC19",
"x%	c #FE0600",
"y%	c #AA2312",
"z%	c #602628",
"A%	c #FF2C00",
"B%	c #FFBB00",
"C%	c #FFFD18",
"D%	c #FF7500",
"E%	c #FF5D00",
"F%	c #F32303",
"G%	c #8D1819",
"H%	c #7E2121",
"I%	c #AF1414",
"J%	c #DA0B09",
"K%	c #E72306",
"L%	c #B71412",
"M%	c #C30B0F",
"N%	c #DF0F08",
"O%	c #F81002",
"P%	c #CF110C",
"Q%	c #C23E0F",
"R%	c #A21717",
"S%	c #D4090B",
"T%	c #4D272C",
"U%	c #9B1519",
"V%	c #F91402",
"W%	c #FF4600",
"X%	c #F03A04",
"Y%	c #5C2929",
"Z%	c #811F1F",
"`%	c #601D28",
" &	c #FFBD00",
".&	c #FF9500",
"+&	c #801319",
"@&	c #5B2A2A",
"#&	c #A64116",
"$&	c #8F1B1C",
"%&	c #E03208",
"&&	c #C4200F",
"*&	c #FF4500",
"=&	c #FB1B01",
"-&	c #FA2101",
";&	c #C8140E",
">&	c #561F21",
",&	c #921B1B",
"'&	c #DE0F08",
")&	c #9A1319",
"!&	c #F61E02",
"~&	c #E02D08",
"{&	c #CE0C0C",
"]&	c #FA0F01",
"^&	c #FA2A01",
"/&	c #AC1115",
"(&	c #FA1601",
"_&	c #F80402",
":&	c #E30207",
"<&	c #DB0609",
"[&	c #A91416",
"}&	c #761E1E",
"|&	c #AA1115",
"1&	c #FE1D00",
"2&	c #3A3131",
"3&	c #B81812",
"4&	c #E20A07",
"5&	c #F30804",
"6&	c #F01C04",
"7&	c #EC1605",
"8&	c #801520",
"9&	c #DE1508",
"0&	c #FF1100",
"a&	c #9C1819",
"b&	c #F10704",
"c&	c #B81112",
"d&	c #472C2C",
"e&	c #472E2E",
"f&	c #512929",
"g&	c #8E1C1D",
"h&	c #C10C0F",
"i&	c #F70D02",
"j&	c #F83702",
"k&	c #F00404",
"l&	c #FC2201",
"m&	c #C0140C",
"n&	c #462F2F",
"o&	c #BA1011",
"p&	c #4E2020",
"q&	c #46282E",
"r&	c #FF2300",
"s&	c #741F1F",
"t&	c #FF0B00",
"u&	c #B80E12",
"v&	c #542022",
"w&	c #8C171A",
"x&	c #F41B03",
"y&	c #881D1E",
"z&	c #FF1D00",
"A&	c #A52B16",
"B&	c #A71317",
"C&	c #E83F06",
"D&	c #8E1C1C",
"E&	c #6B2525",
"F&	c #CA0B0D",
"G&	c #DA0E0A",
"H&	c #F63C02",
"I&	c #C7350E",
"J&	c #18393A",
"K&	c #FF2800",
"L&	c #8F1C1C",
"M&	c #A51917",
"N&	c #F51702",
"O&	c #E83E06",
"                                                                                                    ",
"                                                                                                    ",
"                                                                                                    ",
"                                                                                                    ",
"                                              . +                                                   ",
"                                  @ #         $ % & * =                                             ",
"                                - ; >       , ' ) ! ~ {                   ] ^                       ",
"                          / ( _ : < [     } | 1 2 3 4 5                   6 7                       ",
"                      8 9 0 a b c d e     f g h i j k 4 l m n       o         p p                   ",
"                  q r 4 s t u v w x y z A B C D E F G ) H I J     K L M N O P Q R                   ",
"                  S T U V W X Y X Z `  ...+.@.#.$.%.&.*.) =.-.  ;.>.,.'.).!.~.{.                    ",
"                    ].3 ^./.(._.:.<.[.}.|.1.2.3.4.5.6.[.7.8.9.0.a.b.) c.d.).e.                      ",
"                      f.g.h.<.i.j.2.k.[.l.m.n.o.p.q.r.s.t.u.n.g.n.W v.w.v.x.                        ",
"                        y.z.A.B.$.C.D.&.E.F.G.H.I.J.K.L.M.N.O.P.Q.G.F R.S.T.  U.                    ",
"                V.W.X.Y.Z.`. +.+++@+#+$+$.x.%+&+*+=+-+;+>+,+'+)+!+~+ +[.i {+]+^+/+                  ",
"                (+_+:+c.1.<+[+}+|+#+1+2+3+4+5+6+7+8+9+0+a+b+c+d+e+~+f+u.g+h+i+j+k+                  ",
"            l+m+n+o+p+3 (.q+&.r+s+t+u+v+w+x+y+z+A+B+C+D+E+F+G+H+>+I+t+J+K+v.L+M+N+O+                ",
"            P+d.Q+) X R+v.R.S+T+U+V+W+X+Y+Z+5.Z+`+ @.@+@b+L.G+@@#@$@%@Z+y+&@*@=@-@                  ",
"      ;@>@,@'@N+)@:.i !@~@q+{@t.]@^@$./@K.Y+`+(@(@_@F+:@<@[@T+}@|@1@|@2@3@4@5@                      ",
"      6@7@W.8@P+9@x.0@a@@.b@c@d@y+e@f@g@h@i@~+j@#@ @k@4.l@c+m@n@o@p@d+x+q@r@                        ",
"    s@/ t@,.k (.9@5+u@v@w@x@y@z@A@B@C@D@e+t+k@B@c+c+D@E@c+;+o@b+F@5.G@u.H@I@                        ",
"      J@K@L@| M@N@K+O@`+_@(@K.P@Q@B@%@Z+R@t+S@T@`+U@4.3+>+V@W@7+X@/@$+Y@(.<+Z@                      ",
"        `@N+ #.#+#@#N.##w+$#[@%#%.&#*#,+X@=#-#;#n@U@>#,#'#$@)#!#~#{#]#^#/#(#                        ",
"          _#    :#<#R+B.[#y+}#y+++G+ @l@F@|#1#2#3#h@x@4#5#/@U@l@6#R@ +7#8#                          ",
"                    9#q+0#a#b#c#d#e#|@)#f#W@D+8+g#h#i#j# @k#R@l#m#d#B.x.n#o#                        ",
"        p#q#r#      s#<+7#t#C@B@C@e#.+*#u#2#v#w#x#y#z#A#B#j@C#X@D#E#E#<@F#G#H#I#    J#  K#L#M#N#    ",
"        !.O#P#      Q#R#F t#Z+E@S#~+I+T#U#V#z#W#X#Y#p@Z#!#g@B#|@w+.+`#4# $.$@.R.+ +$@$#$$$%$&$R#*$  ",
"                =$-$;$:.>$f@m#,$d#'$4#$@U#)$!$~${$]$^$/$($E@B@t+`+&+T+x@A._$:$R.<$[$}$|$1$2$3$4$    ",
"          5$6$7$8$/.[.:$9$L.{#0$a$b$l#p.c$d$0+f#e$j@c+f$D@d+&+g$!#T#K.t+Y@G.x.8.h$i$+ =             ",
"          !.j$k$l$_.P.`#G+!#x@`#c#I+w+m$o@n$i@I+f#S@e#e#o$!+F+p$j#q$c+ +6.r$s$t$u$v$$               ",
"              w$_.2.:$K+x$y$G+3+`+|@%@q.+@c+_@>+j#T@Z+F+B#I+t+f+z$e#A$X B$r C$D$+ E$                ",
"          F$G$r B$H$g+&@O.P.6#I$d#}@j@c$1#a+J$i@x@K$p$B#4#L$M$6.N$B.k.O$P$Q$R$S$T$U$      V$W$      ",
"        X$Y$Z$Y ;$`$ %.%1.r +%@%#%m#[@$%%%`+A#$@&%i@k@X@*%=%c@{#-%^#*.;%  >%,%'%  )%!%~%  {%.#]%    ",
"        ~ ^%/%(%  _%/+/ :%<%[%}%t.J+t+|%p@y@B#B@1%($X+G+5.2%3%}@`#E 4%,.            5%b.6%  7%      ",
"                    8%9%0%  a%z.b%c%)#d%1@)#y@4#A+Z+e%2@{#@+++f%%.0@g%h%            i%j%            ",
"                            k%9.O.%#b+w+l%|@K$m%n%c@v@a$o%p%++t.4+@#2 /.q%                          ",
"                            r%H#2.z+W+s%t%u%~#x.9@F 0#v%x@%@w%u@@.9@/#x%y%                          ",
"                          z%A%H#[.S#K+B%|+[+$.m.h+;$D K+C%U@,+s%D%V E%F%G%H%I%                      ",
"                          J%a%+#i.x+a#.$K+G.9@K%L%M%N%M@%+u@l#$.<+O%L P%Q%R%S%T%                    ",
"                        U%V%W%T M@<.n.@#B$w.X%  Y%Z%`%/.D%E :$ &.&+&@&  #&$&:%%&                    ",
"                      &&*&=&-&R#g%s %$Z$`$;&>&  ,&'&  )&!&1.*.H@4%~&      {&]&)                     ",
"                      V ^&/&(&3 _&+ :&<&[&}&    |&1&  2&3&4&<$)./#8@5&      I 6&7&                  ",
"                        8&  9&0&a&-@b&c&d&            e&1$f&g&h&i&j&k&                              ",
"                            l&m&n&  @$o&p&            q&r&  s&t&u&v&                                ",
"                                      ~ w&              x&  y&z&l$                                  ",
"                              A&B&    C&    k$D&            E&F&G&                                  ",
"                              H&I&        J&K&L&              M&N&                                  ",
"                                            O&                  9.                                  ",
"                                                                                                    ",
"                                                                                                    "};
