/* XPM */
static char * exp11_xpm[] = {
"50 50 681 2",
"  	c None",
". 	c #FE6800",
"+ 	c #CB2D0D",
"@ 	c #FF5000",
"# 	c #A91F16",
"$ 	c #FF5200",
"% 	c #283036",
"& 	c #ED1E04",
"* 	c #EA2405",
"= 	c #C92A0D",
"- 	c #F81602",
"; 	c #C10E10",
"> 	c #90611C",
", 	c #B20F13",
"' 	c #FF6000",
") 	c #FF0500",
"! 	c #FF5300",
"~ 	c #A92F16",
"{ 	c #FF4F00",
"] 	c #FFBB00",
"^ 	c #FF4500",
"/ 	c #353033",
"( 	c #FF4700",
"_ 	c #F81E02",
": 	c #D7080A",
"< 	c #442F2F",
"[ 	c #B94412",
"} 	c #FF5100",
"| 	c #FA3401",
"1 	c #FF7000",
"2 	c #FF6D00",
"3 	c #FF4E00",
"4 	c #C6210E",
"5 	c #732020",
"6 	c #FF1900",
"7 	c #F10A04",
"8 	c #FF5600",
"9 	c #EB0405",
"0 	c #FF4D00",
"a 	c #C7080E",
"b 	c #D8050A",
"c 	c #FF1000",
"d 	c #EB1005",
"e 	c #293130",
"f 	c #93251B",
"g 	c #FF9300",
"h 	c #FF8600",
"i 	c #FF8A00",
"j 	c #FF7200",
"k 	c #93131B",
"l 	c #E61506",
"m 	c #DD1608",
"n 	c #5E2626",
"o 	c #CB0D0D",
"p 	c #FF6300",
"q 	c #FF3400",
"r 	c #FF4B00",
"s 	c #FF6800",
"t 	c #FF5E00",
"u 	c #FF7B00",
"v 	c #FF3300",
"w 	c #F41103",
"x 	c #FF1100",
"y 	c #E00608",
"z 	c #BD1111",
"A 	c #FB3601",
"B 	c #7C131D",
"C 	c #FF7D00",
"D 	c #FFC800",
"E 	c #FFBC00",
"F 	c #FFBF00",
"G 	c #FFAB00",
"H 	c #FF7E00",
"I 	c #701720",
"J 	c #EE2005",
"K 	c #FF2E00",
"L 	c #E51A06",
"M 	c #FF4A00",
"N 	c #AD1F15",
"O 	c #AB1815",
"P 	c #A61F16",
"Q 	c #94181B",
"R 	c #FF4300",
"S 	c #FF4000",
"T 	c #FF8500",
"U 	c #FF8200",
"V 	c #FFA100",
"W 	c #FF9D00",
"X 	c #FF7300",
"Y 	c #FFA700",
"Z 	c #FF1600",
"` 	c #E11808",
" .	c #FF3600",
"..	c #FF3F00",
"+.	c #EE0104",
"@.	c #FFC805",
"#.	c #FFFE18",
"$.	c #FFE300",
"%.	c #FFF401",
"&.	c #FFD800",
"*.	c #FF9800",
"=.	c #FF4900",
"-.	c #FE5E00",
";.	c #EB2605",
">.	c #9F2018",
",.	c #FF2600",
"'.	c #FF1C00",
").	c #FF8D00",
"!.	c #A31117",
"~.	c #CD090D",
"{.	c #FF7500",
"].	c #FF9200",
"^.	c #FFA800",
"/.	c #FFA000",
"(.	c #FFA900",
"_.	c #FFA200",
":.	c #FF9C00",
"<.	c #FF7800",
"[.	c #FFBA00",
"}.	c #FFFF32",
"|.	c #FFFF3B",
"1.	c #FFFF30",
"2.	c #FFF410",
"3.	c #FFC200",
"4.	c #FFCB00",
"5.	c #FFB200",
"6.	c #BF1510",
"7.	c #FF8900",
"8.	c #FF7A00",
"9.	c #FFB300",
"0.	c #C3060C",
"a.	c #AF1414",
"b.	c #FF8000",
"c.	c #FFAC00",
"d.	c #FFCE00",
"e.	c #FFCC00",
"f.	c #FFAE00",
"g.	c #FFB800",
"h.	c #FF8E00",
"i.	c #FFAF00",
"j.	c #FFC600",
"k.	c #FFFC18",
"l.	c #FFFF70",
"m.	c #FFFF72",
"n.	c #FFF300",
"o.	c #FFFB02",
"p.	c #FFCF00",
"q.	c #FFA400",
"r.	c #EA5805",
"s.	c #FFD000",
"t.	c #FFF306",
"u.	c #FFE800",
"v.	c #FFEC00",
"w.	c #FFD400",
"x.	c #FFDF00",
"y.	c #FFFF18",
"z.	c #FFFF89",
"A.	c #FFFFAB",
"B.	c #FFFF64",
"C.	c #FFFF43",
"D.	c #FFFF1E",
"E.	c #FFE900",
"F.	c #FFDD00",
"G.	c #FFDE00",
"H.	c #FFDA00",
"I.	c #FFD900",
"J.	c #FFC300",
"K.	c #FFB900",
"L.	c #E97B28",
"M.	c #FF0800",
"N.	c #FF5D00",
"O.	c #601724",
"P.	c #D6300A",
"Q.	c #FF6200",
"R.	c #FFF508",
"S.	c #FFFF39",
"T.	c #FFFF12",
"U.	c #FFFC01",
"V.	c #FFFE10",
"W.	c #FFFF07",
"X.	c #FFFB05",
"Y.	c #FFF402",
"Z.	c #FFFF9C",
"`.	c #FFFFDF",
" +	c #FFFFA0",
".+	c #FFFF7C",
"++	c #FFFF63",
"@+	c #FFFF21",
"#+	c #FFFF28",
"$+	c #FFFF2B",
"%+	c #FFFF3F",
"&+	c #FFF500",
"*+	c #FFC000",
"=+	c #780C1D",
"-+	c #AF1D14",
";+	c #FF3E00",
">+	c #FE7800",
",+	c #FF8700",
"'+	c #FFFF27",
")+	c #FFF700",
"!+	c #FFFF16",
"~+	c #FFFF1D",
"{+	c #FFFF36",
"]+	c #FFF404",
"^+	c #FFFF1C",
"/+	c #FFFF74",
"(+	c #FFFFED",
"_+	c #FFFFDD",
":+	c #FFFFB3",
"<+	c #FFFF9A",
"[+	c #FFFF6E",
"}+	c #FFFF62",
"|+	c #FFFF58",
"1+	c #FFFF5C",
"2+	c #FFFF33",
"3+	c #FFAD00",
"4+	c #C00610",
"5+	c #B12514",
"6+	c #DF6008",
"7+	c #FE0100",
"8+	c #FF2D00",
"9+	c #FF6C00",
"0+	c #FF9B00",
"a+	c #FFD500",
"b+	c #FFFF2E",
"c+	c #FFFF2C",
"d+	c #FFFF31",
"e+	c #FFFF4E",
"f+	c #FFFD0C",
"g+	c #FFFF0E",
"h+	c #FFFF2F",
"i+	c #FFFFB4",
"j+	c #FFFFFF",
"k+	c #FFFFDC",
"l+	c #FFFF9F",
"m+	c #FFFF45",
"n+	c #FFFF5E",
"o+	c #FFFF40",
"p+	c #FFFF54",
"q+	c #FFFE0F",
"r+	c #FFDC00",
"s+	c #FFA500",
"t+	c #F20E03",
"u+	c #E44807",
"v+	c #FF8300",
"w+	c #FF6700",
"x+	c #FFB100",
"y+	c #FFB700",
"z+	c #FFE100",
"A+	c #FFFF3A",
"B+	c #FFFF25",
"C+	c #FFFF38",
"D+	c #FFFF7A",
"E+	c #FFFF44",
"F+	c #FFFF47",
"G+	c #FFFF4D",
"H+	c #FFFF61",
"I+	c #FFFFC5",
"J+	c #FFFF73",
"K+	c #FFFF55",
"L+	c #FFFF92",
"M+	c #FFFFA5",
"N+	c #FFFF49",
"O+	c #FFFE0E",
"P+	c #FFBD00",
"Q+	c #FF0000",
"R+	c #D43B0B",
"S+	c #FF2A00",
"T+	c #84151C",
"U+	c #E51707",
"V+	c #FF8F00",
"W+	c #FFFF08",
"X+	c #FFFF1B",
"Y+	c #FFF200",
"Z+	c #FFFF00",
"`+	c #FFFF8E",
" @	c #FFFF76",
".@	c #FFFF68",
"+@	c #FFFF5A",
"@@	c #FFFF6F",
"#@	c #FFFF5F",
"$@	c #FFFF2A",
"%@	c #FFFF35",
"&@	c #FFFF56",
"*@	c #FFFF6A",
"=@	c #FFFFAF",
"-@	c #FFFF19",
";@	c #FFA300",
">@	c #DD2709",
",@	c #FF1800",
"'@	c #FF8800",
")@	c #FFF104",
"!@	c #FFFE01",
"~@	c #FFFF0D",
"{@	c #FFFF0F",
"]@	c #FFFF24",
"^@	c #FFFF0C",
"/@	c #FFFF41",
"(@	c #FFFF88",
"_@	c #FFFF81",
":@	c #FFFF77",
"<@	c #FFFF50",
"[@	c #FFFF7D",
"}@	c #FFFF8D",
"|@	c #FFFF8C",
"1@	c #FFFF8B",
"2@	c #FFFF4F",
"3@	c #FFEF1C",
"4@	c #FA2101",
"5@	c #FF4600",
"6@	c #FF5B00",
"7@	c #FFEE06",
"8@	c #FFEF04",
"9@	c #FFFB15",
"0@	c #FFFF5B",
"a@	c #FFFF59",
"b@	c #FFFF52",
"c@	c #FFFF4C",
"d@	c #FFFF8A",
"e@	c #FFFFA2",
"f@	c #FFFF71",
"g@	c #FFFD15",
"h@	c #FFD600",
"i@	c #F02804",
"j@	c #F81002",
"k@	c #EF1F04",
"l@	c #FF3C00",
"m@	c #FF4200",
"n@	c #FF9F00",
"o@	c #FFF000",
"p@	c #FFF81B",
"q@	c #FFFF48",
"r@	c #FFFF95",
"s@	c #FFFF20",
"t@	c #FFFF5D",
"u@	c #FFFF53",
"v@	c #FFFFC2",
"w@	c #FFFFB0",
"x@	c #FFFF4B",
"y@	c #FFFF3C",
"z@	c #FFFD07",
"A@	c #FFAA00",
"B@	c #FF3A00",
"C@	c #C7570E",
"D@	c #FF5400",
"E@	c #FF0900",
"F@	c #FFCD03",
"G@	c #FFEB05",
"H@	c #FFFC1D",
"I@	c #FFFF3E",
"J@	c #FFFC05",
"K@	c #FFFF2D",
"L@	c #FFFF69",
"M@	c #FFFF3D",
"N@	c #FFFFAA",
"O@	c #FFFFB1",
"P@	c #FFFFA1",
"Q@	c #FFF609",
"R@	c #742923",
"S@	c #711E24",
"T@	c #931B1B",
"U@	c #AC1312",
"V@	c #F32703",
"W@	c #FEA800",
"X@	c #FFE203",
"Y@	c #FFFF37",
"Z@	c #FFFF22",
"`@	c #FFFF13",
" #	c #FFFB00",
".#	c #FFFFB5",
"+#	c #FFFFCF",
"@#	c #FFFFCD",
"##	c #FFFF57",
"$#	c #FFFF05",
"%#	c #AF2C11",
"&#	c #E00108",
"*#	c #D12B0C",
"=#	c #FFED00",
"-#	c #FFFE0B",
";#	c #FFFD08",
">#	c #FFFF87",
",#	c #FFFFA7",
"'#	c #FFFFD9",
")#	c #FFFFF5",
"!#	c #FFFFE7",
"~#	c #FFFFD1",
"{#	c #FFFF93",
"]#	c #CE340D",
"^#	c #721B23",
"/#	c #F20C03",
"(#	c #FF6B00",
"_#	c #EB0D05",
":#	c #672324",
"<#	c #9A1016",
"[#	c #FFFFBC",
"}#	c #FFFFCC",
"|#	c #FFFFF2",
"1#	c #FFFFBB",
"2#	c #FFFF79",
"3#	c #FFFF6B",
"4#	c #FFFF29",
"5#	c #FFFF17",
"6#	c #FFFF26",
"7#	c #FFF011",
"8#	c #EB6E05",
"9#	c #8B1D1D",
"0#	c #DD0508",
"a#	c #D90C0A",
"b#	c #D4130B",
"c#	c #F21B03",
"d#	c #751D20",
"e#	c #412D2D",
"f#	c #672626",
"g#	c #732023",
"h#	c #FF4100",
"i#	c #FFFFC7",
"j#	c #FFFFE9",
"k#	c #FFFF82",
"l#	c #FFFF60",
"m#	c #FFFF51",
"n#	c #FFFB12",
"o#	c #FFDB00",
"p#	c #FFA600",
"q#	c #FF5500",
"r#	c #E91E06",
"s#	c #AC1515",
"t#	c #C7100E",
"u#	c #FF6600",
"v#	c #F92C02",
"w#	c #D2070C",
"x#	c #DA0909",
"y#	c #F53603",
"z#	c #FF9A00",
"A#	c #FFEF00",
"B#	c #FFFF83",
"C#	c #FFFFF6",
"D#	c #FFFFD3",
"E#	c #FFFFDA",
"F#	c #FFFFE1",
"G#	c #FFEA00",
"H#	c #F91601",
"I#	c #D7150A",
"J#	c #E10707",
"K#	c #D4150B",
"L#	c #FA3F01",
"M#	c #EB3C05",
"N#	c #F60D02",
"O#	c #FF1A00",
"P#	c #F71302",
"Q#	c #FF8400",
"R#	c #FFEE05",
"S#	c #FFFFB6",
"T#	c #FFFFC9",
"U#	c #FFFFBE",
"V#	c #FFFFAC",
"W#	c #FFFFC0",
"X#	c #FFFF84",
"Y#	c #FFFA00",
"Z#	c #FF4800",
"`#	c #FF3900",
" $	c #57272A",
".$	c #D8190A",
"+$	c #E02908",
"@$	c #FF9700",
"#$	c #FFFB14",
"$$	c #FFFF1F",
"%$	c #FFFF90",
"&$	c #FFFF6D",
"*$	c #FFFF4A",
"=$	c #FFFF46",
"-$	c #FFFF86",
";$	c #FFFC04",
">$	c #FFEC0C",
",$	c #FF5900",
"'$	c #FA5D01",
")$	c #E34207",
"!$	c #9B0E15",
"~$	c #F50E02",
"{$	c #DF3308",
"]$	c #FFC100",
"^$	c #FFE400",
"/$	c #FFF805",
"($	c #FFFF1A",
"_$	c #FFFF7F",
":$	c #FFFF78",
"<$	c #FFFF9B",
"[$	c #FFFF75",
"}$	c #FFFF6C",
"|$	c #FFFC19",
"1$	c #FFED06",
"2$	c #FF3100",
"3$	c #F62102",
"4$	c #3D3232",
"5$	c #FFEE00",
"6$	c #FFFF14",
"7$	c #FFFF11",
"8$	c #FFFFC6",
"9$	c #FFFF9D",
"0$	c #FFFF67",
"a$	c #FFFD11",
"b$	c #FFFE05",
"c$	c #FFFE07",
"d$	c #FFEA02",
"e$	c #F62A02",
"f$	c #A63216",
"g$	c #FC2101",
"h$	c #8E1A1D",
"i$	c #731D1D",
"j$	c #B11513",
"k$	c #FC1C01",
"l$	c #E22707",
"m$	c #FF7F00",
"n$	c #FF7100",
"o$	c #FFFC0A",
"p$	c #FFFF94",
"q$	c #FFFF8F",
"r$	c #FFFF42",
"s$	c #FFF913",
"t$	c #FF9900",
"u$	c #E03908",
"v$	c #DC0809",
"w$	c #A62416",
"x$	c #C8120E",
"y$	c #C40A0C",
"z$	c #672727",
"A$	c #AE1215",
"B$	c #662224",
"C$	c #831B1C",
"D$	c #FF2300",
"E$	c #E43607",
"F$	c #801820",
"G$	c #4A2B2D",
"H$	c #FE3B00",
"I$	c #FF5A00",
"J$	c #F10D03",
"K$	c #EB4F05",
"L$	c #FFF901",
"M$	c #FFFFA4",
"N$	c #FFFF66",
"O$	c #FFFC10",
"P$	c #FFFF34",
"Q$	c #FFFC00",
"R$	c #762323",
"S$	c #9D1718",
"T$	c #FC3A01",
"U$	c #FF3500",
"V$	c #56252A",
"W$	c #E72C06",
"X$	c #A72B16",
"Y$	c #D6040A",
"Z$	c #FF9600",
"`$	c #FFFE0D",
" %	c #FFFA02",
".%	c #FFFC02",
"+%	c #EB601E",
"@%	c #6A1425",
"#%	c #FF6400",
"$%	c #FFE000",
"%%	c #FFF712",
"&%	c #FFFF0A",
"*%	c #FFFB07",
"=%	c #FFFE0C",
"-%	c #FFFC08",
";%	c #FFCD00",
">%	c #CB060D",
",%	c #CE0A0D",
"'%	c #FFFF0B",
")%	c #FFE600",
"!%	c #FFFE12",
"~%	c #FFF70F",
"{%	c #FFB000",
"]%	c #FF9500",
"^%	c #FC3401",
"/%	c #B81012",
"(%	c #C91E0E",
"_%	c #FFD704",
":%	c #FFF212",
"<%	c #FFF70B",
"[%	c #FF8B00",
"}%	c #FFCA00",
"|%	c #FF8C00",
"1%	c #F73002",
"2%	c #E61406",
"3%	c #931818",
"4%	c #A41417",
"5%	c #DC3109",
"6%	c #FF6E00",
"7%	c #FF9100",
"8%	c #FFE302",
"9%	c #FFFA1D",
"0%	c #FFD700",
"a%	c #FB2F01",
"b%	c #F50302",
"c%	c #D5180A",
"d%	c #F43502",
"e%	c #FFB309",
"f%	c #FFFF06",
"g%	c #FFFD0D",
"h%	c #FFF600",
"i%	c #D92309",
"j%	c #E20407",
"k%	c #F70302",
"l%	c #F74702",
"m%	c #8A1D1D",
"n%	c #CF3909",
"o%	c #FFC700",
"p%	c #621A22",
"q%	c #A01818",
"r%	c #CE0B0C",
"s%	c #781322",
"t%	c #FFBE00",
"u%	c #FFD200",
"v%	c #8E1119",
"w%	c #841F1F",
"x%	c #EC2205",
"y%	c #D3380B",
"z%	c #B72412",
"A%	c #FF2900",
"B%	c #EB3B05",
"C%	c #FF9400",
"D%	c #FF7600",
"E%	c #9C2619",
"F%	c #A81513",
"G%	c #FF3000",
"H%	c #BA1611",
"I%	c #F73102",
"J%	c #E32C07",
"K%	c #C7200E",
"L%	c #FF6100",
"M%	c #B10813",
"N%	c #F24703",
"O%	c #BF2D10",
"P%	c #D01F0C",
"Q%	c #FF5F00",
"R%	c #FF2200",
"S%	c #FE0000",
"T%	c #D20B0B",
"U%	c #731E21",
"V%	c #FE6A00",
"W%	c #5A2727",
"X%	c #EC1605",
"Y%	c #FF2800",
"Z%	c #FF6A00",
"`%	c #E51A07",
" &	c #DF2505",
".&	c #89181E",
"+&	c #751A1C",
"@&	c #E81106",
"#&	c #C31D0F",
"$&	c #632828",
"%&	c #A31215",
"&&	c #F70F02",
"*&	c #A01518",
"=&	c #E80A06",
"-&	c #FC1201",
";&	c #E21C07",
">&	c #B51D13",
",&	c #FB1601",
"'&	c #BA1511",
")&	c #B43513",
"!&	c #9A1719",
"~&	c #FF7700",
"{&	c #E21707",
"]&	c #662424",
"^&	c #FF8100",
"/&	c #AC4115",
"(&	c #472828",
"_&	c #EE2404",
":&	c #DE1008",
"<&	c #FF1D00",
"[&	c #59292B",
"}&	c #B11113",
"|&	c #F52002",
"1&	c #C7180E",
"2&	c #D6030A",
"3&	c #FF1E00",
"4&	c #F24103",
"5&	c #AE0A14",
"6&	c #D92E09",
"7&	c #E43307",
"8&	c #FF9E00",
"                                                                                                    ",
"                                                                                                    ",
"                                                                                                    ",
"                                                                                                    ",
"                                                .                                                   ",
"                                  + @         # $ % &                                               ",
"                                * = - ;     > , ' ) ! ~                   { ]                       ",
"                            ^ / ( _ : <   [ } | 1 2 3 4                 5 6 7                       ",
"                        8 9 0 a b c d e   f 8 g h i j '   k l       m   n o   p                     ",
"                    q r s t u v w x y z A B C D E F G H I J K     L M N O P Q R (                   ",
"                  S T U H V W X Y Z `  ...+.@.#.$.%.&.*.=.-.;.  >.,.! '.).C !.~.                    ",
"                    {.].^./.(.^._.:./.^.t <.[.}.|.1.2.3.4.5.1 6.} M 7.8.9.1 0.a.                    ",
"                      b.G c.F d.e.f.[.g.h.i.j.k.l.m.1.n.o.p.[.q.5.*.f.(.] p.                        ",
"                        r.g.s.$.t.u.v.$.w.w.x.y.z.A.B.C.D.E.F.G.&.H.I.J.K.L.                        ",
"                M.N.O.P.t Q.R.S.T.U.V.W.X.G.Y.}.Z.`. +.+++@+y.#+$+%+&+*+1 =+-+@                     ",
"                  ;+R >+:.,+4.'+)+!+~+D.{+o.]+^+/+(+_+:+<+[+}+|+1+}.2+w.3+t X 0 4+                  ",
"              5+6+7+8+9+0+G a+b+c+d+1.1.e+f+g+h+}+i+j+k+l+|+m+{+n+o+p+q+r+s+*.=.$ t+                ",
"            u+v+i.w+x+W y+d.z+A+o+2+B+C+D+E+S.F+G+H+I+l+J+K+|.A+L+M+/+N+O+P+).Q+R+                  ",
"        S+T+U+s V+(.j.W 9+V s.W+X+Y+Z+A+`+ @N+.@+@@@#@$@%@++o+&@*@=@#@-@-@;@>@                      ",
"        u ,@0 u '@I.j.J.)@f+!@~@{@]@^@/@(@@@%@l._@:@+@%@S.<@[@}@|@1@2@D.3@@                         ",
"      4@5@..6@Y i.7@W+8@9@%+*@}.@+0@K+a@n+0@p+H+1+b@+@K+c@d@e@/+f@o+g@h@G i@                        ",
"      j@k@l@m@n@5.o@p@q@H+p+r@s@T.t@D+F+/@m+}+.@q@u@C.|.@@v@w@f@x@y@z@I.A@B@                        ",
"        C@D@E@{ ].F@G@H@t@I@u@m+J@K@L@A+M@_@N@O@}@c@d+$+c@P@}@0@y.d+Q@s.].R@                        ",
"          S@T@  U@V@W@X@Y@Z@`@T. #d+B.y@/+.#+#@#Z.[@##C.s@N+c@I@$#c+~@e.%#                          ",
"          &#        *#W =#-#;#~@K@m+}+>#,#e@'#)#!#~#{#(@H+o+$+$@{+2+J@H.]#^#                        ",
"        /#(#_#:#    <#V+p.`@u@#@B.x@1.m.[#}#|#j+j+)#1#2#++3#t@N+4#5#6#b+7#U s 8#      9#0#a#b#      ",
"          c#d#e#f#  g#h#K.^@c@b@S.1.2@(@}#(+i#j#j+`.l+k#+@u@.@l#m#~+c+G+n#o#&+p#q#r#s#t#r 8.u#v#    ",
"            w#  x#y#2 z#A#`@6##+6##+%@B#@#C#D#E#F#P@_@1@[+u@}+F+y@o+}+%@G#H.F.^.8.H#I#J#K#L#M#N#    ",
"          t+q#O#P#Q#] R#b+t@m#~+!+B+I@@@S#T#U#V#W#k#b@*@#@n+x@d+n+X#d@c+Y#F.4.;@Z#`#m@ $            ",
"            .$+${ @$o##$y@L@t@!+$$m#B.b@%$z.&$t@P@3#c@e+*$=$##G+-$[#N+;$>$H ,$'$)$!$~$              ",
"              {$g.]$^$=#/$($%+b+2+#@_$:$<$ @2#[$ @}+<@++}$K+m+$$|$4#1$*.i Q#$ 2$3$4$                ",
"            S {.f.F [.J.w.5$6$7$$+Y@[+S#8$9$9$@@q@o+0@0$m#E+a$b$c$d$i.e$f$g$t { h$      i$j$k$      ",
"          l$9+C m$t } )._.V+n$x.o$S.1+.#p$/@-$%$q$m.<@x@Y@r$g+A+s$J.t$u$  v$w$x$y$z$A$B$C$D$r       ",
"        `#! E$F$  G$H$I$^ J$K$y+L$V.K+O@M$/+}$t@(@N$b+E+e+'+O$P$Q$P+'@s         R$S$T$U$            ",
"          V$        W$X$Y$  ( Z$$.d+|@e@<$q$m.K+a@p+`$6#I@ # %f+.%c.n$+%            @%R             ",
"                              #%$%N+|+=$p+L@%@%%&%y.*%=%m+S.6$-%&%;%9+Z$>%                          ",
"                            ,%m$j.Y@'%)%!%D.$$=#q.3.=#]+m+[$y@~%$%{%]%^%'./%                        ",
"                          (%;+@$_%E+:%e.n.A#<%Y [%H *.}%2+r$4#Y+W |%]%1%2%3%4%                      ",
"                          5%6%7%8%9%&+$%0%}%q.a%b%c%d%e%f%g%6$h%|%_ 8 i%j%k%l%m%                    ",
"                        n%m@n$1 P+J.f.o%(.^.Q.p%q%r%s%Z$C t%4.u%A@v%    w%x%8.y%                    ",
"                      z%|%A%B%s C%u 3 D%u B@E%  F%G%  H%I%6@^.Y *.J%      K%s L%                    ",
"                      M%N%O%P%Q% .S R%S%T%U%      V%  W%X%Y%,$Z%m$1 N#      `%=.                    ",
"                             &D@.&+&@&#&$&            %&&&*&=&-&;&O#                                ",
"                            h#>&      ,&'&            )&D@  !&~&{&                                  ",
"                                ]&    ^&/&  (&              _&6@l@                                  ",
"                              :&<&[&      }&|&1&            2&3&4&                                  ",
"                              ] 0         5&C 6&              7&8&                                  ",
"                                                                                                    ",
"                                                                                                    ",
"                                                                                                    "};
