/* XPM */
static char * exp19_xpm[] = {
"50 50 585 2",
"  	c None",
". 	c #333333",
"+ 	c #2A2A2A",
"@ 	c #512828",
"# 	c #2D2D2D",
"$ 	c #2B2E2E",
"% 	c #262626",
"& 	c #282828",
"* 	c #2B2B2B",
"= 	c #372D2D",
"- 	c #292929",
"; 	c #242424",
"> 	c #372E2E",
", 	c #382A2A",
"' 	c #282C2C",
") 	c #3B3030",
"! 	c #4E2727",
"~ 	c #4A2B2B",
"{ 	c #522B2B",
"] 	c #362D2D",
"^ 	c #4B2C2C",
"/ 	c #2C2E2E",
"( 	c #2B2C2C",
"_ 	c #492C2C",
": 	c #3F2D2D",
"< 	c #652626",
"[ 	c #7D2121",
"} 	c #961A1A",
"| 	c #951B1B",
"1 	c #7F2020",
"2 	c #492E2E",
"3 	c #2E2828",
"4 	c #5A2B2B",
"5 	c #252828",
"6 	c #272C2C",
"7 	c #592A2A",
"8 	c #4D2D2D",
"9 	c #312B2B",
"0 	c #202828",
"a 	c #462C2C",
"b 	c #7C2221",
"c 	c #B60F13",
"d 	c #442E2D",
"e 	c #2F2D2D",
"f 	c #4E2A2A",
"g 	c #D90A0A",
"h 	c #CC0C0D",
"i 	c #CE0B0C",
"j 	c #D10B0C",
"k 	c #A91616",
"l 	c #841F1F",
"m 	c #4A2727",
"n 	c #442828",
"o 	c #332C2C",
"p 	c #392C2C",
"q 	c #472F2F",
"r 	c #2A2C2C",
"s 	c #542B2B",
"t 	c #562A2A",
"u 	c #662626",
"v 	c #792222",
"w 	c #A81616",
"x 	c #F40503",
"y 	c #FF3D00",
"z 	c #F10103",
"A 	c #632727",
"B 	c #512B2B",
"C 	c #A71516",
"D 	c #FF1D00",
"E 	c #FF2900",
"F 	c #FF1800",
"G 	c #E80506",
"H 	c #CC0D0D",
"I 	c #BB1111",
"J 	c #5D2929",
"K 	c #242525",
"L 	c #831F1F",
"M 	c #911B1B",
"N 	c #991A1A",
"O 	c #9C1919",
"P 	c #B51313",
"Q 	c #A91515",
"R 	c #A41417",
"S 	c #981A1A",
"T 	c #9E1818",
"U 	c #C40E0F",
"V 	c #FF4200",
"W 	c #FF8600",
"X 	c #FF6900",
"Y 	c #FF3800",
"Z 	c #FB1301",
"` 	c #FB0A01",
" .	c #CF0C0C",
"..	c #A41717",
"+.	c #522A2A",
"@.	c #412A2A",
"#.	c #7F2121",
"$.	c #692626",
"%.	c #492D2D",
"&.	c #7A2222",
"*.	c #AA1515",
"=.	c #AF1414",
"-.	c #C40F0F",
";.	c #BF1010",
">.	c #D20A0B",
",.	c #DD0509",
"'.	c #C20F0F",
").	c #EE0504",
"!.	c #FF5700",
"~.	c #FFC300",
"{.	c #FFAF00",
"].	c #FF8100",
"^.	c #FF6000",
"/.	c #FF3000",
"(.	c #EF0104",
"_.	c #C90E0E",
":.	c #BA1111",
"<.	c #B51212",
"[.	c #B01414",
"}.	c #A11717",
"|.	c #941B1B",
"1.	c #742323",
"2.	c #2A2929",
"3.	c #2F2727",
"4.	c #B41313",
"5.	c #EB0505",
"6.	c #ED0404",
"7.	c #D40B0B",
"8.	c #E50406",
"9.	c #FF2000",
"0.	c #EE0404",
"a.	c #E30607",
"b.	c #FF2300",
"c.	c #FF6F00",
"d.	c #FFDB00",
"e.	c #FFEF00",
"f.	c #FFD100",
"g.	c #FFB100",
"h.	c #FF7300",
"i.	c #F90901",
"j.	c #FF0B00",
"k.	c #FD0A00",
"l.	c #FF1600",
"m.	c #EB0405",
"n.	c #B61212",
"o.	c #7B2121",
"p.	c #3A2E2E",
"q.	c #482C2C",
"r.	c #5C2929",
"s.	c #F40003",
"t.	c #FA0801",
"u.	c #DB0809",
"v.	c #F30203",
"w.	c #FF1100",
"x.	c #FF3400",
"y.	c #FF6100",
"z.	c #FF2B00",
"A.	c #FF0400",
"B.	c #FF1A00",
"C.	c #FF6200",
"D.	c #FFEA00",
"E.	c #FFFF12",
"F.	c #FFF600",
"G.	c #FFD200",
"H.	c #FF9900",
"I.	c #FF4500",
"J.	c #FF3B00",
"K.	c #FF5300",
"L.	c #FF3E00",
"M.	c #FF0900",
"N.	c #A61616",
"O.	c #8B1D1D",
"P.	c #302C2C",
"Q.	c #222525",
"R.	c #432F2F",
"S.	c #582A2A",
"T.	c #921B1B",
"U.	c #FF5D00",
"V.	c #FF3C00",
"W.	c #FF4700",
"X.	c #FF3A00",
"Y.	c #FF6600",
"Z.	c #FE0300",
"`.	c #FF4300",
" +	c #FFB200",
".+	c #FFFD07",
"++	c #FFFB01",
"@+	c #FFE100",
"#+	c #FFB500",
"$+	c #FF3100",
"%+	c #FF5600",
"&+	c #FF4E00",
"*+	c #FF1700",
"=+	c #C80E0E",
"-+	c #642727",
";+	c #342C2C",
">+	c #2F2A2A",
",+	c #452626",
"'+	c #382B2B",
")+	c #2D2828",
"!+	c #762222",
"~+	c #B11414",
"{+	c #FC1201",
"]+	c #FF9800",
"^+	c #FF7800",
"/+	c #FF4C00",
"(+	c #FF3200",
"_+	c #FF3900",
":+	c #FF7500",
"<+	c #FFA900",
"[+	c #FFD000",
"}+	c #FFB700",
"|+	c #FFA100",
"1+	c #FF7B00",
"2+	c #FF6700",
"3+	c #FF5000",
"4+	c #FF6C00",
"5+	c #FF5A00",
"6+	c #F10303",
"7+	c #B91111",
"8+	c #4B2727",
"9+	c #3B2D2D",
"0+	c #392F2F",
"a+	c #3F2E2E",
"b+	c #991919",
"c+	c #FC0701",
"d+	c #DF1108",
"e+	c #EE0204",
"f+	c #FD1001",
"g+	c #FF1E00",
"h+	c #FF4A00",
"i+	c #FF7200",
"j+	c #FF6A00",
"k+	c #FF5B00",
"l+	c #FF5800",
"m+	c #FF7900",
"n+	c #FF3F00",
"o+	c #FF6800",
"p+	c #FF7100",
"q+	c #432C2C",
"r+	c #242727",
"s+	c #3D2E2E",
"t+	c #612828",
"u+	c #931B1B",
"v+	c #F00404",
"w+	c #F71F02",
"x+	c #F40803",
"y+	c #FF5400",
"z+	c #FF4900",
"A+	c #FE0D00",
"B+	c #FF2C00",
"C+	c #FF4D00",
"D+	c #FF7400",
"E+	c #FF8200",
"F+	c #FF5100",
"G+	c #FF7000",
"H+	c #FF6E00",
"I+	c #FF1F00",
"J+	c #FF0E00",
"K+	c #E11407",
"L+	c #732323",
"M+	c #272727",
"N+	c #342E2E",
"O+	c #3A3030",
"P+	c #3A2F2F",
"Q+	c #4D2C2C",
"R+	c #8E1C1C",
"S+	c #A51616",
"T+	c #ED0405",
"U+	c #FF7F00",
"V+	c #FF8400",
"W+	c #FF3500",
"X+	c #FF5500",
"Y+	c #FF2A00",
"Z+	c #FF6400",
"`+	c #FF7D00",
" @	c #FF8300",
".@	c #FF8700",
"+@	c #FF9B00",
"@@	c #FF9200",
"#@	c #FF8E00",
"$@	c #FF4600",
"%@	c #F91002",
"&@	c #E20607",
"*@	c #A81516",
"=@	c #303232",
"-@	c #5F2828",
";@	c #5E2828",
">@	c #782222",
",@	c #C60E0E",
"'@	c #EB0905",
")@	c #FD0B00",
"!@	c #FF4F00",
"~@	c #FF9400",
"{@	c #FFA200",
"]@	c #FF5200",
"^@	c #FF5C00",
"/@	c #FF5900",
"(@	c #FF6D00",
"_@	c #FF8B00",
":@	c #FFA700",
"<@	c #F30703",
"[@	c #C50F0F",
"}@	c #861E1E",
"|@	c #292A2A",
"1@	c #393131",
"2@	c #7E2020",
"3@	c #FF1000",
"4@	c #FF1B00",
"5@	c #FF4B00",
"6@	c #FF7700",
"7@	c #FF7A00",
"8@	c #FF9300",
"9@	c #FFA400",
"0@	c #FF7E00",
"a@	c #FF6B00",
"b@	c #FFA600",
"c@	c #FFAE00",
"d@	c #FF2D00",
"e@	c #DC0609",
"f@	c #4D2A2A",
"g@	c #242B2B",
"h@	c #5B2A2A",
"i@	c #9B1919",
"j@	c #EB0105",
"k@	c #FF0A00",
"l@	c #FF2500",
"m@	c #FF3700",
"n@	c #FFDD00",
"o@	c #FFC700",
"p@	c #FF1900",
"q@	c #FF9100",
"r@	c #FF8800",
"s@	c #FF2F00",
"t@	c #F50903",
"u@	c #BE1010",
"v@	c #5F2525",
"w@	c #252A2A",
"x@	c #512A2A",
"y@	c #C60D0E",
"z@	c #FE1300",
"A@	c #F80202",
"B@	c #FB0001",
"C@	c #FE0E00",
"D@	c #FF3600",
"E@	c #FF6500",
"F@	c #FF8000",
"G@	c #FFFF05",
"H@	c #FFFF0D",
"I@	c #FFFD0C",
"J@	c #FFAC00",
"K@	c #FF5F00",
"L@	c #FF2800",
"M@	c #6B2525",
"N@	c #F20303",
"O@	c #F10403",
"P@	c #FB0501",
"Q@	c #FD0D01",
"R@	c #FF4100",
"S@	c #FFF700",
"T@	c #FFF100",
"U@	c #FFFF13",
"V@	c #FFFF36",
"W@	c #FFFF23",
"X@	c #FFF301",
"Y@	c #FFB000",
"Z@	c #FF1400",
"`@	c #F70402",
" #	c #D00C0C",
".#	c #891C1C",
"+#	c #552929",
"@#	c #C70E0E",
"##	c #FF4800",
"$#	c #FFFF2C",
"%#	c #FFFF50",
"&#	c #FFFF42",
"*#	c #FFFF28",
"=#	c #FFE900",
"-#	c #FF8F00",
";#	c #FF2100",
">#	c #F80302",
",#	c #FD0000",
"'#	c #D10C0C",
")#	c #C9140D",
"!#	c #E92806",
"~#	c #282A2A",
"{#	c #FF8D00",
"]#	c #FFFF17",
"^#	c #FFFF30",
"/#	c #FFFC09",
"(#	c #FFFF33",
"_#	c #FFFF40",
":#	c #FFFF2A",
"<#	c #FFED01",
"[#	c #FF9E00",
"}#	c #FF8C00",
"|#	c #FB1001",
"1#	c #FE0800",
"2#	c #FF0F00",
"3#	c #E50606",
"4#	c #BC1111",
"5#	c #702525",
"6#	c #242929",
"7#	c #272828",
"8#	c #372F2F",
"9#	c #3B2B2B",
"0#	c #712424",
"a#	c #C10F0F",
"b#	c #FF1200",
"c#	c #FF8500",
"d#	c #FFFF25",
"e#	c #FFFF1E",
"f#	c #FFFF21",
"g#	c #FFF80F",
"h#	c #FFED00",
"i#	c #FFD500",
"j#	c #FFB900",
"k#	c #D30A0B",
"l#	c #AD1515",
"m#	c #7A2121",
"n#	c #352C2C",
"o#	c #602929",
"p#	c #B81212",
"q#	c #E40807",
"r#	c #FF1C00",
"s#	c #FFBD00",
"t#	c #FFF702",
"u#	c #FFF705",
"v#	c #FFFA06",
"w#	c #FFF805",
"x#	c #FFF303",
"y#	c #FFA500",
"z#	c #FF9700",
"A#	c #E40407",
"B#	c #AC1515",
"C#	c #821F1F",
"D#	c #722424",
"E#	c #232929",
"F#	c #302B2B",
"G#	c #2F2B2B",
"H#	c #402929",
"I#	c #7C2121",
"J#	c #DA0909",
"K#	c #FC0001",
"L#	c #FF0800",
"M#	c #FF9500",
"N#	c #FF9000",
"O#	c #FFC900",
"P#	c #FFF807",
"Q#	c #FFFF18",
"R#	c #FFCC00",
"S#	c #FF5E00",
"T#	c #CF080C",
"U#	c #292F2F",
"V#	c #502C2C",
"W#	c #881E1E",
"X#	c #FB0201",
"Y#	c #FF1300",
"Z#	c #FFA000",
"`#	c #FFD103",
" $	c #FFCB03",
".$	c #FB4201",
"+$	c #E61707",
"@$	c #5B2626",
"#$	c #702424",
"$$	c #D20B0B",
"%$	c #E60606",
"&$	c #FF8A00",
"*$	c #B40F13",
"=$	c #572828",
"-$	c #2E2E2E",
";$	c #373030",
">$	c #393030",
",$	c #462F2F",
"'$	c #622828",
")$	c #562626",
"!$	c #AB1515",
"~$	c #DF0E08",
"{$	c #FC1B01",
"]$	c #FFBE00",
"^$	c #FF6300",
"/$	c #FF7C00",
"($	c #E60106",
"_$	c #312D2D",
":$	c #192C2C",
"<$	c #921C1C",
"[$	c #CD0C0D",
"}$	c #FD0E01",
"|$	c #FF9D00",
"1$	c #FD0600",
"2$	c #871E1E",
"3$	c #5F2929",
"4$	c #2E2D2D",
"5$	c #322B2B",
"6$	c #C50F0E",
"7$	c #F80102",
"8$	c #FFAD00",
"9$	c #DE0608",
"0$	c #772222",
"a$	c #442C2C",
"b$	c #332F2F",
"c$	c #592727",
"d$	c #C00E10",
"e$	c #FFA300",
"f$	c #F20203",
"g$	c #FF0C00",
"h$	c #FF1500",
"i$	c #FF2400",
"j$	c #BF0F10",
"k$	c #472B2B",
"l$	c #FA1801",
"m$	c #FF8900",
"n$	c #FF2200",
"o$	c #FA0601",
"p$	c #FC0901",
"q$	c #FC1001",
"r$	c #EC0405",
"s$	c #A21717",
"t$	c #2C2A2A",
"u$	c #372C2C",
"v$	c #8D1D1D",
"w$	c #EC0805",
"x$	c #F20003",
"y$	c #F50A03",
"z$	c #FE1000",
"A$	c #FF0100",
"B$	c #FF0D00",
"C$	c #F50802",
"D$	c #F81702",
"E$	c #FF4400",
"F$	c #DC0709",
"G$	c #6E2424",
"H$	c #343030",
"I$	c #672020",
"J$	c #722323",
"K$	c #E30407",
"L$	c #F51A02",
"M$	c #E00608",
"N$	c #CB0D0D",
"O$	c #C30F0F",
"P$	c #961B1B",
"Q$	c #891E1E",
"R$	c #EA0505",
"S$	c #4F2A2A",
"T$	c #313030",
"U$	c #252525",
"V$	c #392B2B",
"W$	c #482E2E",
"X$	c #D50A0A",
"Y$	c #CD0C0C",
"Z$	c #702121",
"`$	c #DD0709",
" %	c #E90506",
".%	c #4C2727",
"+%	c #312C2C",
"@%	c #2D2E2E",
"#%	c #452C2C",
"$%	c #4C2D2D",
"%%	c #901C1C",
"&%	c #9A1919",
"*%	c #8C1D1D",
"=%	c #362A2A",
"-%	c #A51717",
";%	c #A01818",
">%	c #B91212",
",%	c #9F1818",
"'%	c #422B2B",
")%	c #332D2D",
"!%	c #282929",
"~%	c #232B2B",
"{%	c #252F2F",
"]%	c #412C2C",
"^%	c #412929",
"/%	c #5B2727",
"(%	c #911C1C",
"_%	c #552B2B",
":%	c #323131",
"<%	c #3F2A2A",
"[%	c #322D2D",
"}%	c #602828",
"|%	c #242626",
"1%	c #322F2F",
"2%	c #383333",
"3%	c #362929",
"4%	c #322929",
"                                                                                                    ",
"                                                                                                    ",
"                                                .                                                   ",
"                                                +                                                   ",
"                              @   #                                                                 ",
"                              $                 %     &                     *                       ",
"                          =                 -   ; & > ,                                             ",
"                      *                     ' ) ! ~ { ]     &                     *                 ",
"                  ^ / ( _ :           *     < [ } | 1 2               3                             ",
"                  4 5 6 7 8 9 0 a b c d e f g h i j k l m n o             p q                       ",
"                      r s t u v w x y z A B C D E F G H I } J             K                         ",
"                        L M N O P Q R S M T U V W X Y Z `  ...+.@.#.$.%._                           ",
"                        &.*.=.-.;.*.>.,.H '.).!.~.{.].^./.(._.:.<.[.}.|.1.2.                        ",
"                -     3.J 4.5.6.7.8.9.V 0.a.b.c.d.e.f.g.h.E i.j.k.l.m.n.o.p.                        ",
"                    q.2 r.s.t.u.v.w.x.y.z.A.B.C.D.E.F.G.H.h.I.J.K.L.M.G N.O.$   P.                  ",
"                  Q.R.S.T.B.U.V.W.Y X.Y.V.Z.w.`. +.+++@+#+c.!.$+%+&+*+t.=+..-+;+  >+                ",
"          ,+'+    )+8 !+~+{+]+g.^+/+W.K.&+(+_+!.:+<+[+}+|+1+2+z.3+4+5+z.6+7+1 8+                    ",
"          9+0+* a+t b+c+d+e+c.}+L.f+g+h+i+j+^.k+3+y.4+l+y.i+m+n+V o+p+y j. .| q+                    ",
"    #       r+s+t+u+O v+w+x+y+z+/.A+B+j+^+c.C+D+E+].j+C+L.F+].m+G+H+!.I+J+K+L+                      ",
"    M+  N+O+P+Q+R+S S+T+W.U+V+W+X+_+Y+Z+H+X z+p+^.Z+`+V+ @.@+@@@#@Z+$@%@&@*@                        ",
"    &   =@-@. ;@>@,@'@)@!@~@{@]@^@C.Y.y.`./@(@^.%+U.:+U+_@:@ +(@i+/+L.<@[@}@t+                      ",
"        |@1@/ a+2@7.3@4@X.Z+5@y W.^.6@I.3+7@8@9@0@a@/@$+$@b@c@U+k+B+I.d@e@l f@                      ",
"      +       g@h@i@j@z.k@b.B.F l@h+X m@_@[+n@@+o@^+y _+p@].q@r@$+*+s@t@u@v@                        ",
"                w@x@y@g+z@A@B@C@D@E@2+F@o@G@H@I@[+J@K@p+V 5@5+U.L@k@J+H M@                          ",
"                    N N@O@P@Q@V.R@Z+|+f.S@T@U@V@W@X@Y@H.U+K@/.D@Y Z@`@ #.#                          ",
"                    +#@#c+n+##&+3+3+1+n@H@E.$#%#&#*#=#r@.@-# @a@y+;#>#N@,#'#)#!#                    ",
"      -             ~#i@k@^@%+z+s@&+{#@+]#^#/#(#_#:#<#[#}#p+r@^+^.x.|#1#2#3#4#*.5#6#          P.7#8#",
"                  9#0#a#b#l@$+_+I.V.c#G.H@d#e#f#e#g#h#i#j#V+6@k+5+$@B+l@B.k#l#O.m#n#                ",
"                o#M@p#q#r#4@z.z.V x.##s#t#u#v#w#x#y#z#]+~@]@V K@^+1+.@6@m@A#B#C#D#E#  F#            ",
"        G#    H#I#[ J#K#d@*+3@L#$+]@!.|+o@}#M#M#o@@@].:+o+`.k+N#O#P#Q#R#z#S#T#D#U#                  ",
"              V#W#L u@G J+X#Y#Y+V X F+{#[#j+i+h.<++@c.%+K@y+X #@Z#`# $]@.$+$@$                      ",
"            J 1.#$I#O a#$$%$g+/@h+y.^+|+:@z#&$V+:+F@h.X y+Z+y.y+z.$@$@*$=$                          ",
"        -$;$-+5#>$,$'$)$v !$~${$_+K.&$]$].^$/$Z+3+3+X U.5@]@X.I+x.b.($r.        _$              p   ",
"                          :$<$[$}$n+(@s#|$&$i+k+6@S#n+W+X.y I+l@##1$N.2$                            ",
"    3$4$          3       5$S 6$7$5@c#8$g.Y@V+X i+/+I+F b.p@L@`.!@9$0$a$                  b$        ",
"                          c$C#d$Y+D+{@e$+@M#(@]@$+4@(.f$1$g$h$i$l.j$m#>                             ",
"                            k$N.l$m$h.n+##!@n$6.&@J+o$p$q$x.Y#r$;.s$7 t$                            ",
"                            u$v$w$2+i$x$y$z$A$3#-.B$C$D$5@E$x.F$u@G$H$                              ",
"                            I$J$K$L$M$H N$@#O$P$k v Q$j$*+L@w.R$l#S$T$* -                           ",
"                          U$V$W$u+X$$$Y$[.T.-+        Z$6.`$ %6.B#.%+%                              ",
"                        & @%- #%$%r.%%&%*%#$          =%-%;%4.>%,%f@            +                   ",
"                      '%r+)%7#+%] !%~%{%]%              ^%/%(%N u+W$                                ",
"                      _%        :%*               <%        [%f@}%q |%          1%                  ",
"                            &     M+#                             p 2%                              ",
"                          # -                           3%                                          ",
"                                      -                         %                                   ",
"                                                                                                    ",
"                              &                                 4%                                  ",
"                                            +                                                       ",
"                                                                                                    "};
