/* XPM */
static char * exp18_xpm[] = {
"50 50 636 2",
"  	c None",
". 	c #303232",
"+ 	c #393030",
"@ 	c #313434",
"# 	c #552A2A",
"$ 	c #313333",
"% 	c #453030",
"& 	c #2C2D2D",
"* 	c #282A2A",
"= 	c #362D2D",
"- 	c #392D2D",
"; 	c #502A2A",
"> 	c #312F2F",
", 	c #262828",
"' 	c #333030",
") 	c #422E2E",
"! 	c #3F3030",
"~ 	c #462929",
"{ 	c #212828",
"] 	c #3D2E2E",
"^ 	c #552B2B",
"/ 	c #5B2828",
"( 	c #6E2424",
"_ 	c #762222",
": 	c #592A2A",
"< 	c #612424",
"[ 	c #3D2F2F",
"} 	c #6B2626",
"| 	c #2F2F2F",
"1 	c #512C2C",
"2 	c #652525",
"3 	c #5C2828",
"4 	c #392B2B",
"5 	c #2A2727",
"6 	c #5A2929",
"7 	c #9D1919",
"8 	c #B11414",
"9 	c #B91111",
"0 	c #931B1B",
"a 	c #602828",
"b 	c #2C2C2C",
"c 	c #2F3131",
"d 	c #682626",
"e 	c #6F2424",
"f 	c #702424",
"g 	c #442C2C",
"h 	c #432D2D",
"i 	c #7C2221",
"j 	c #C20C10",
"k 	c #4B2D2D",
"l 	c #293030",
"m 	c #4D2A2A",
"n 	c #D70A0A",
"o 	c #E30807",
"p 	c #E80A06",
"q 	c #E40507",
"r 	c #C70D0E",
"s 	c #991A1A",
"t 	c #492A2A",
"u 	c #4D2929",
"v 	c #482C2C",
"w 	c #532828",
"x 	c #672626",
"y 	c #302E2E",
"z 	c #2E3131",
"A 	c #4B2B2B",
"B 	c #732323",
"C 	c #802020",
"D 	c #821F1F",
"E 	c #BA1111",
"F 	c #C90E0E",
"G 	c #F31503",
"H 	c #FF4B00",
"I 	c #F50403",
"J 	c #662626",
"K 	c #582A2A",
"L 	c #CF090C",
"M 	c #FF3000",
"N 	c #FF3200",
"O 	c #FE0F00",
"P 	c #DE0708",
"Q 	c #CC0D0D",
"R 	c #B21313",
"S 	c #2B2D2D",
"T 	c #263434",
"U 	c #2F2D2D",
"V 	c #232929",
"W 	c #4E2D2D",
"X 	c #2F2E2E",
"Y 	c #392F2F",
"Z 	c #8E1C1C",
"` 	c #A81616",
" .	c #AA1515",
"..	c #C60E0E",
"+.	c #BB1111",
"@.	c #B90F11",
"#.	c #BD0C11",
"$.	c #A81516",
"%.	c #941B1B",
"&.	c #B61212",
"*.	c #DF0508",
"=.	c #FF5A00",
"-.	c #FF9D00",
";.	c #FF8000",
">.	c #FF5000",
",.	c #FF2600",
"'.	c #FF1400",
").	c #E50506",
"!.	c #C01010",
"~.	c #702121",
"{.	c #492B2B",
"].	c #A31717",
"^.	c #901C1C",
"/.	c #722323",
"(.	c #5C2929",
"_.	c #3B2F2F",
":.	c #472C2C",
"<.	c #AE1414",
"[.	c #BF1010",
"}.	c #D9090A",
"|.	c #DA0909",
"1.	c #D20B0B",
"2.	c #D00C0C",
"3.	c #F40803",
"4.	c #EE0604",
"5.	c #D10B0B",
"6.	c #DC0809",
"7.	c #F80C02",
"8.	c #FF6400",
"9.	c #FFE800",
"0.	c #FFCC00",
"a.	c #FFA500",
"b.	c #FF8500",
"c.	c #FF4A00",
"d.	c #F80602",
"e.	c #E50607",
"f.	c #D20A0B",
"g.	c #C20F0F",
"h.	c #CA0C0D",
"i.	c #BE1010",
"j.	c #B51313",
"k.	c #951A1A",
"l.	c #412828",
"m.	c #3D2929",
"n.	c #822020",
"o.	c #E10508",
"p.	c #FA1301",
"q.	c #FA0B01",
"r.	c #ED0304",
"s.	c #F50303",
"t.	c #FF3D00",
"u.	c #FF5B00",
"v.	c #FE1100",
"w.	c #FC0001",
"x.	c #FF4200",
"y.	c #FF8F00",
"z.	c #FFF509",
"A.	c #FFFF0E",
"B.	c #FFEF00",
"C.	c #FFD100",
"D.	c #FF8800",
"E.	c #FF4700",
"F.	c #FF1600",
"G.	c #FF2100",
"H.	c #FF2900",
"I.	c #FF2A00",
"J.	c #FC0F01",
"K.	c #CF0B0C",
"L.	c #9C1919",
"M.	c #422D2D",
"N.	c #622828",
"O.	c #7D2021",
"P.	c #FF1F00",
"Q.	c #FF2500",
"R.	c #F70002",
"S.	c #FF1700",
"T.	c #FF2F00",
"U.	c #FF5600",
"V.	c #FF8400",
"W.	c #FF4E00",
"X.	c #FF3F00",
"Y.	c #FF8A00",
"Z.	c #FFF815",
"`.	c #FFFF48",
" +	c #FFFF1F",
".+	c #FFED01",
"++	c #FFBD00",
"@+	c #FF9000",
"#+	c #FF6700",
"$+	c #FF5500",
"%+	c #FF6C00",
"&+	c #FF7300",
"*+	c #FF4C00",
"=+	c #FF0B00",
"-+	c #CA0D0D",
";+	c #9A1919",
">+	c #2F2B2B",
",+	c #3C2E2E",
"'+	c #412B2B",
")+	c #373131",
"!+	c #5B2929",
"~+	c #792121",
"{+	c #8D1C1D",
"]+	c #FF1800",
"^+	c #FF4900",
"/+	c #FF5100",
"(+	c #FF8600",
"_+	c #FF6600",
":+	c #FF3300",
"<+	c #FF3100",
"[+	c #FF6300",
"}+	c #FFD800",
"|+	c #FFFF38",
"1+	c #FFFF28",
"2+	c #FFFF05",
"3+	c #FFDA00",
"4+	c #FF9100",
"5+	c #FF7700",
"6+	c #FF5300",
"7+	c #FF7B00",
"8+	c #FF6D00",
"9+	c #FF4500",
"0+	c #FF2400",
"a+	c #E00608",
"b+	c #B71212",
"c+	c #911C1C",
"d+	c #2C2B2B",
"e+	c #2E2E2E",
"f+	c #452828",
"g+	c #552929",
"h+	c #2A3030",
"i+	c #6B2525",
"j+	c #8C1D1D",
"k+	c #831F1F",
"l+	c #AF1414",
"m+	c #FC1101",
"n+	c #FF9800",
"o+	c #FFBE00",
"p+	c #FF8700",
"q+	c #FF6900",
"r+	c #FF5900",
"s+	c #FF7800",
"t+	c #FF5400",
"u+	c #FF7000",
"v+	c #FF8C00",
"w+	c #FFDE00",
"x+	c #FFF707",
"y+	c #FFEA00",
"z+	c #FFA200",
"A+	c #FF8100",
"B+	c #FF7600",
"C+	c #FF8D00",
"D+	c #FF7D00",
"E+	c #FF5800",
"F+	c #FE0500",
"G+	c #D30B0B",
"H+	c #A61616",
"I+	c #3A2A2A",
"J+	c #402F2F",
"K+	c #472D2D",
"L+	c #353131",
"M+	c #4D2C2C",
"N+	c #FB0401",
"O+	c #FF1000",
"P+	c #F40E03",
"Q+	c #FFC200",
"R+	c #FF2C00",
"S+	c #FF3A00",
"T+	c #FF9600",
"U+	c #FF8200",
"V+	c #FF7E00",
"W+	c #FF9F00",
"X+	c #FF7A00",
"Y+	c #FF7C00",
"Z+	c #FF9B00",
"`+	c #FF9500",
" @	c #FF6500",
".@	c #FF7100",
"+@	c #FF9900",
"@@	c #FF2000",
"#@	c #E40607",
"$@	c #AD1515",
"%@	c #5F2121",
"&@	c #442D2D",
"*@	c #252929",
"=@	c #322D2D",
"-@	c #871E1E",
";@	c #B41313",
">@	c #FF1A00",
",@	c #FF2B00",
"'@	c #F40203",
")@	c #FF3800",
"!@	c #FF4100",
"~@	c #FF2800",
"{@	c #FF8300",
"]@	c #FFA600",
"^@	c #FF9200",
"/@	c #FFA000",
"(@	c #FFA300",
"_@	c #FF5D00",
":@	c #FF6200",
"<@	c #FF7500",
"[@	c #FF3700",
"}@	c #FF0900",
"|@	c #841F1F",
"1@	c #412D2D",
"2@	c #502C2C",
"3@	c #5D2929",
"4@	c #B31313",
"5@	c #C00F10",
"6@	c #F80D02",
"7@	c #FF7400",
"8@	c #FF4300",
"9@	c #FF8E00",
"0@	c #FF6E00",
"a@	c #FF9400",
"b@	c #FF7F00",
"c@	c #FFB900",
"d@	c #FFB600",
"e@	c #FFB000",
"f@	c #F60502",
"g@	c #A41617",
"h@	c #3B3030",
"i@	c #423030",
"j@	c #6A2525",
"k@	c #7C2121",
"l@	c #ED0705",
"m@	c #F81702",
"n@	c #FFBA00",
"o@	c #FFCE00",
"p@	c #FF6F00",
"q@	c #FF5F00",
"r@	c #FF7200",
"s@	c #FFAB00",
"t@	c #FFBB00",
"u@	c #FFD600",
"v@	c #FF6000",
"w@	c #DC0709",
"x@	c #9B1919",
"y@	c #6C2525",
"z@	c #2D2929",
"A@	c #522B2B",
"B@	c #532B2B",
"C@	c #622727",
"D@	c #FF6800",
"E@	c #FF9A00",
"F@	c #FFB100",
"G@	c #FFBC00",
"H@	c #FF8B00",
"I@	c #FF5200",
"J@	c #FF6100",
"K@	c #FFC000",
"L@	c #F81002",
"M@	c #981A1A",
"N@	c #692626",
"O@	c #342F2F",
"P@	c #352C2C",
"Q@	c #362929",
"R@	c #712424",
"S@	c #F50B03",
"T@	c #FF4600",
"U@	c #FF3900",
"V@	c #FF3C00",
"W@	c #FF4800",
"X@	c #FFE300",
"Y@	c #FFF602",
"Z@	c #FFF903",
"`@	c #FFDF00",
" #	c #FF4F00",
".#	c #FFAF00",
"+#	c #FFA400",
"@#	c #FF4D00",
"##	c #FE1400",
"$#	c #E10807",
"%#	c #6D2121",
"&#	c #3C2C2C",
"*#	c #602626",
"=#	c #CC0B0D",
"-#	c #FF3400",
";#	c #FF1D00",
">#	c #FFA100",
",#	c #FFE600",
"'#	c #FFFF1C",
")#	c #FFFF23",
"!#	c #FFF000",
"~#	c #FFCA00",
"{#	c #FF6B00",
"]#	c #FF7900",
"^#	c #DF0708",
"/#	c #812020",
"(#	c #FE1900",
"_#	c #FF1B00",
":#	c #FFB500",
"<#	c #FFEB00",
"[#	c #FFFF13",
"}#	c #FFFF07",
"|#	c #FFFF39",
"1#	c #FFFF57",
"2#	c #FFFF46",
"3#	c #FFFD17",
"4#	c #FFB700",
"5#	c #FF5700",
"6#	c #FF3500",
"7#	c #9C1718",
"8#	c #332424",
"9#	c #D90809",
"0#	c #FFED04",
"a#	c #FFFF2A",
"b#	c #FFFF30",
"c#	c #FFFF4C",
"d#	c #FFFF68",
"e#	c #FFFF60",
"f#	c #FFFF43",
"g#	c #FFFD10",
"h#	c #FFA800",
"i#	c #FF1E00",
"j#	c #FF1500",
"k#	c #E70906",
"l#	c #F90701",
"m#	c #E12A07",
"n#	c #3C2B2B",
"o#	c #322B2B",
"p#	c #B91011",
"q#	c #FFF603",
"r#	c #FFFF31",
"s#	c #FFFF47",
"t#	c #FFFF56",
"u#	c #FFFA0E",
"v#	c #FFA900",
"w#	c #FFA700",
"x#	c #E70606",
"y#	c #2C2727",
"z#	c #442B2B",
"A#	c #432B2B",
"B#	c #412C2C",
"C#	c #2A2E2E",
"D#	c #7D2121",
"E#	c #DE0908",
"F#	c #FF2E00",
"G#	c #FF5E00",
"H#	c #FF9C00",
"I#	c #FFED00",
"J#	c #FFFF26",
"K#	c #FFFF3D",
"L#	c #FFFF35",
"M#	c #FFFF3A",
"N#	c #FFFF24",
"O#	c #FFFE0F",
"P#	c #FFF300",
"Q#	c #FFD400",
"R#	c #F00204",
"S#	c #D50B0B",
"T#	c #921B1B",
"U#	c #432A2A",
"V#	c #772222",
"W#	c #FD1B00",
"X#	c #FF4000",
"Y#	c #FF4400",
"Z#	c #FFD900",
"`#	c #FFFE13",
" $	c #FFFF19",
".$	c #FFFF0D",
"+$	c #FFBF00",
"@$	c #FA0401",
"#$	c #E10708",
"$$	c #8D1D1D",
"%$	c #3B2E2E",
"&$	c #3E2C2C",
"*$	c #9F1818",
"=$	c #A01818",
"-$	c #EE0304",
";$	c #FF2D00",
">$	c #FFDD00",
",$	c #FFAC00",
"'$	c #FFAE00",
")$	c #FFE100",
"!$	c #FFF600",
"~$	c #FFFF34",
"{$	c #E30607",
"]$	c #672727",
"^$	c #262F2F",
"/$	c #302B2B",
"($	c #742323",
"_$	c #9E1818",
":$	c #D80A0A",
"<$	c #FD0D01",
"[$	c #FFC300",
"}$	c #FF8900",
"|$	c #FFB300",
"1$	c #FFE60C",
"2$	c #FFDA03",
"3$	c #F73D02",
"4$	c #5A2727",
"5$	c #2B2E2E",
"6$	c #772323",
"7$	c #8F1C1C",
"8$	c #891D1D",
"9$	c #B91212",
"0$	c #DB0909",
"a$	c #F00404",
"b$	c #F90D02",
"c$	c #FFC600",
"d$	c #FFC800",
"e$	c #FF9300",
"f$	c #BA0C11",
"g$	c #522929",
"h$	c #482F2F",
"i$	c #8A1D1D",
"j$	c #632727",
"k$	c #6D2525",
"l$	c #C10F10",
"m$	c #E20F07",
"n$	c #FD2001",
"o$	c #E10A08",
"p$	c #722424",
"q$	c #3A3232",
"r$	c #363030",
"s$	c #2A2A2A",
"t$	c #422A2A",
"u$	c #343030",
"v$	c #2A2C2C",
"w$	c #931C1C",
"x$	c #E90205",
"y$	c #FFC400",
"z$	c #FFAD00",
"A$	c #FF3E00",
"B$	c #FD2801",
"C$	c #C80D0E",
"D$	c #881E1E",
"E$	c #2C2E2E",
"F$	c #342B2B",
"G$	c #2F2C2C",
"H$	c #E40707",
"I$	c #FFD000",
"J$	c #FFE000",
"K$	c #FFD500",
"L$	c #FF3B00",
"M$	c #F10504",
"N$	c #A51717",
"O$	c #4C2B2B",
"P$	c #352F2F",
"Q$	c #D8070A",
"R$	c #FFB400",
"S$	c #FF3600",
"T$	c #FF1100",
"U$	c #E00308",
"V$	c #512B2B",
"W$	c #3F2828",
"X$	c #552828",
"Y$	c #AC1515",
"Z$	c #FE2200",
"`$	c #FA0801",
" %	c #F50502",
".%	c #F80302",
"+%	c #EC0205",
"@%	c #7B2121",
"#%	c #472E2E",
"$%	c #372B2B",
"%%	c #F41A03",
"&%	c #FF1900",
"*%	c #C30F0F",
"=%	c #EF0304",
"-%	c #D40B0B",
";%	c #861E1E",
">%	c #5E2828",
",%	c #382F2F",
"'%	c #682323",
")%	c #4F2A2A",
"!%	c #A41717",
"~%	c #F40A03",
"{%	c #E30707",
"]%	c #E60606",
"^%	c #EA0305",
"/%	c #D7090A",
"(%	c #762323",
"_%	c #DC0A09",
":%	c #FF5C00",
"<%	c #F30403",
"[%	c #D10C0B",
"}%	c #482E2E",
"|%	c #652727",
"1%	c #572A2A",
"2%	c #4E2C2C",
"3%	c #851E1E",
"4%	c #A11817",
"5%	c #D40F0B",
"6%	c #FF0700",
"7%	c #EC0905",
"8%	c #C40F0F",
"9%	c #722222",
"0%	c #FB0601",
"a%	c #F91001",
"b%	c #FF1200",
"c%	c #F70802",
"d%	c #CF0C0C",
"e%	c #422929",
"f%	c #442A2A",
"g%	c #333333",
"h%	c #413030",
"i%	c #A21717",
"j%	c #382E2E",
"k%	c #BA1212",
"l%	c #582828",
"m%	c #382525",
"n%	c #333131",
"o%	c #542B2B",
"p%	c #402C2C",
"q%	c #462E2E",
"r%	c #442F2F",
"s%	c #363232",
"t%	c #472828",
"u%	c #4A2727",
"v%	c #452929",
"w%	c #682424",
"x%	c #303535",
"y%	c #292B2B",
"z%	c #2F3030",
"A%	c #4A2A2A",
"B%	c #372C2C",
"C%	c #2E2B2B",
"D%	c #4B2E2E",
"E%	c #3C3131",
"F%	c #272828",
"G%	c #3C2F2F",
"H%	c #3F2A2A",
"I%	c #632525",
"J%	c #7E2121",
"K%	c #382A2A",
"L%	c #3E2B2B",
"M%	c #372F2F",
"N%	c #432929",
"O%	c #382D2D",
"P%	c #332D2D",
"Q%	c #372D2D",
"R%	c #2D2828",
"S%	c #342E2E",
"                                                                                                    ",
"                                                                                                    ",
"                                                                                                    ",
"                                              . +                                                   ",
"                                @ #                   $                                             ",
"                                %               &   * =                     -                       ",
"                          ;                 > , ' ) ! ~                                             ",
"                          {                 ] ^ / ( _ :     <                     [                 ",
"                  } | 1 2 3           4 5   6 7 8 9 0 a               b                             ",
"                  _ c d e f g ~ h i j k l m n o p q r s t u v             w x                       ",
"                  y z A B C D E F G H I J K L M H N O P Q R (     S T U V W X                       ",
"                    A Y Z `  ...+.@.#.$.%.&.*.=.-.;.>.,.'.).!.~.{.].^./.(._.                        ",
"                      :.<.[.}.|.1.2.3.4.5.6.7.8.9.0.a.b.c.d.e.f.g.h.i.j.k.l.                        ",
"                      m.n.o.p.q.r.s.t.u.v.w.x.y.z.A.B.C.D.E.F.G.H.I.J.K.L.M.                        ",
"                |   N.B O.P.Q.R.S.T.U.V.W.Q.X.Y.Z.`. +.+++@+#+$+%+&+*+=+-+;+>+,+'+                  ",
"                  )+!+~+{+]+u.^+U.W./+(+_+:+<+[+}+|+1+2+3+4+5+6+7+8+9+0+a+b+c+d+  e+                ",
"          f+g+  h+i+j+k+l+m+n+o+p+q+r+&+s+>.t+u+v+w+x+y+++z+A+6+B+C+D+E+F+G+H+I+                    ",
"          J+K+L+(.M+H+N+O+P+%+Q+H R+S+#+T+U+V+u+B+y.W+X+Y+Z+`+ @.@+@(+.@@@#@$@%@                    ",
"    &@    *@=@f -@b+;@>@,@'@)@ @!@~@*+{@]@{@5+^@/@(@`+_@:@<@-.+@V.+@Y+:+[@}@|@                      ",
"    z   1@2@3@C 4@[.5@6@8+-.7@8@_+t+c.;.9@C+0@^@a@b@4++@Z+W+c@d@e@4+<@P.f@g@                        ",
"  . h@  i@~+j@k@H+l@m@:+u+n@o@p@&+V.U+p+q@r@{@p+:@7+4+W+s@t@u@4+4+r@v@]+w@x@y@                      ",
"      z@= A@B@C@l+p ,.>.8.y.#+q@5+p+^@D@8+E@F@G@y.H@0@I@J@K@C.z+X+_@r+>.L@M@N@                      ",
"      O@P@    Q@R@[.S@T@U@E.V@U@W@u+(+I@a.X@Y@Z@`@+@u.u. #a..#+#U.t.@###$#%#                        ",
"                &#*#=#-#-#F.;#R+/+D+V+>#,#'#1+)#!#~#D+C+{#{#Y+]#c.I.Q.^#/#                          ",
"                    ;@(#_#_#,@/+[+A+:#<#[#}#|#1#2#3#o@4#W+X+E.I@5#6#>@).7#                          ",
"      8#            f 9#N $+0@u+8+{#^@0#a#b#c#d#e#f#g#a.h#s@h#b.0@x.i#j#'.k#l#m#                    ",
"      n#            o#p#R+7@X+0@/+D@F@q#r#s#'#`.t#2#u#:#v#9@w#+@D+$+,@,@T.w.x#2.c+y#          z#A#B#",
"                C#f D#E#F#t./+J@G#v@H#I#J#K#L#M#|+N#O#P#Q#a.9@&+D+u+8@@#6#R#S#[.T#U#                ",
"              [ V#%.^#W#X#c.Y#T@v@>.q+Z#`#A.[# $.$+$.#s@s@B+:@]#n+W+e@4+*+@$#$ .$$n#  & %$          ",
"        &$    t *$=$-$~@E./+;$@@W..@Y++$>$,$s@'$)$v#n+@+V.G#]#'$!$~$ +Q#H#c.{$]$^$                  ",
"            /$($_$ .:$<$T.;$R+/+q+H@]#]@G@D.4+@+[$.#}$8+D+u+(+|$c@1$2$5#3$O+4$                      ",
"          5$6$7$8$` 9$0$a$b$@#0@p@]#a.c$d$F@'$W+b.^@e$V.0@Y+7+D@N [+ #f$g$h$                        ",
"        m.2@i$s j$k$} j$$$l$m$n$I@u+4#>$+#p+>#V+(+A+D.D+D@7@E+)@J@8@o$p$        q$              1@  ",
"      r$s$  t$_.        u$v$w$x$T.u.4+`@y$z$a@V.+#}$=.=.=.:@A$Y#u+B$C$D$                            ",
"                  E$F$    G$=$H$j# @a.I$J$K$v#Y.@+r@U@t.!@:+L$p@H@M$N$O$                P$          ",
"                  i@      k$l+Q$c.a.Q+[$R$a.U+{#/+S$=+T$R+R+-#t.W@U$$$V$                            ",
"                          W$X$Y$Z$E@v+v@v@%+[@`$ %N I.P.N W.6#.%+%+.@%#%                            ",
"                            $%4@%%X+A$m+]+[@&%p *%>@>@@@q@X+/+=%-%;%>%,%                            ",
"                          '%)%!%~%P.w.{%]%^%/%Y$` (%l+_%6#:%Y#<%[%g$}%:                             ",
"                        |%1%2%3%4%5%6%7%8%9$B         9%0%a%b%c%d%e%f%                              ",
"                        g%a h%x j$@%i%b+L.D$          j%k%&.d%1.i.l%          m%n%                  ",
"                      o%p%q%,+r%1%s%J+t%u%              v%w%R +. .C@x%        y%z%                  ",
"                      d A%  B%C%D%E%F%            G%        H%I%J%_ K%          ,%                  ",
"                            L%    M%P$                            1@)%                              ",
"                          x%N%                          O%                                          ",
"                                      P%                        C%                                  ",
"                                                                                                    ",
"                              Q%            R%                  S%                                  ",
"                                            n#                  q$                                  ",
"                                                                                                    "};
