/* XPM */
static char * exp10_xpm[] = {
"50 50 609 2",
"  	c None",
". 	c #E52F06",
"+ 	c #B53713",
"@ 	c #FF5D00",
"# 	c #B25313",
"$ 	c #FF7D00",
"% 	c #BA2611",
"& 	c #CF1F0C",
"* 	c #FF8F00",
"= 	c #BA260E",
"- 	c #FB4601",
"; 	c #B53613",
"> 	c #EB1005",
", 	c #FF9B00",
"' 	c #FF1900",
") 	c #BA0A11",
"! 	c #D83D0A",
"~ 	c #FF3800",
"{ 	c #FFA900",
"] 	c #FF6D00",
"^ 	c #FFAB00",
"/ 	c #C4360F",
"( 	c #F14104",
"_ 	c #FF9E00",
": 	c #FF4900",
"< 	c #FF9000",
"[ 	c #DD3809",
"} 	c #F81C02",
"| 	c #FF6E00",
"1 	c #FF2D00",
"2 	c #8A1E1D",
"3 	c #FE4400",
"4 	c #FF8B00",
"5 	c #FF9600",
"6 	c #FFC600",
"7 	c #FFAE00",
"8 	c #FF7400",
"9 	c #B20713",
"0 	c #FA1002",
"a 	c #CF360C",
"b 	c #E57707",
"c 	c #D45B0B",
"d 	c #FF7200",
"e 	c #FF5700",
"f 	c #FE7800",
"g 	c #FF5A00",
"h 	c #F72A02",
"i 	c #FA1501",
"j 	c #FF2400",
"k 	c #B32313",
"l 	c #F62E02",
"m 	c #B40013",
"n 	c #FFAF00",
"o 	c #FFFF09",
"p 	c #FFDF00",
"q 	c #FFDB00",
"r 	c #FFA300",
"s 	c #AF0314",
"t 	c #EA4505",
"u 	c #FF3D00",
"v 	c #F06704",
"w 	c #9A1819",
"x 	c #C60D0E",
"y 	c #581D2A",
"z 	c #6A2025",
"A 	c #FF6100",
"B 	c #FFB900",
"C 	c #FFA200",
"D 	c #FFA700",
"E 	c #FFB400",
"F 	c #FF8D00",
"G 	c #FF9C00",
"H 	c #FF4600",
"I 	c #FB4901",
"J 	c #FE1800",
"K 	c #FFD504",
"L 	c #FFFE19",
"M 	c #FFFF08",
"N 	c #FFEE00",
"O 	c #FFD200",
"P 	c #FF7700",
"Q 	c #FF6B00",
"R 	c #FF2C00",
"S 	c #FFB700",
"T 	c #FF9300",
"U 	c #FF6900",
"V 	c #FF9900",
"W 	c #FF8600",
"X 	c #EC0805",
"Y 	c #FF5400",
"Z 	c #FF8A00",
"` 	c #FFC100",
" .	c #FFCF00",
"..	c #FFE500",
"+.	c #FFD900",
"@.	c #FFEC00",
"#.	c #FFA504",
"$.	c #FFC000",
"%.	c #FFEA11",
"&.	c #FFFF51",
"*.	c #FFFF3E",
"=.	c #FFFA0F",
"-.	c #FFFB00",
";.	c #FFE200",
">.	c #FFBF00",
",.	c #FFAA00",
"'.	c #FFC200",
").	c #DF1108",
"!.	c #C60A0E",
"~.	c #FF6400",
"{.	c #FFCD00",
"].	c #FFE000",
"^.	c #FFE100",
"/.	c #FFDF04",
"(.	c #FFDE02",
"_.	c #FFC202",
":.	c #FFF906",
"<.	c #FFCA00",
"[.	c #FFF800",
"}.	c #FFFF3C",
"|.	c #FFFF79",
"1.	c #FFFF7C",
"2.	c #FFFF41",
"3.	c #FFFE0C",
"4.	c #FFFF14",
"5.	c #FFEE03",
"6.	c #FFDD00",
"7.	c #FFAD00",
"8.	c #FFFF00",
"9.	c #FFDC00",
"0.	c #FFD000",
"a.	c #FFC300",
"b.	c #FFF306",
"c.	c #FFFF11",
"d.	c #FFFF12",
"e.	c #FFFF0C",
"f.	c #FFF000",
"g.	c #FFF900",
"h.	c #FFF609",
"i.	c #FFFF32",
"j.	c #FFFFA0",
"k.	c #FFFFAC",
"l.	c #FFFF75",
"m.	c #FFFF52",
"n.	c #FFFE09",
"o.	c #FFFD0D",
"p.	c #FFFE04",
"q.	c #FFF409",
"r.	c #FFFA06",
"s.	c #FFF300",
"t.	c #FFEA00",
"u.	c #FFFF0D",
"v.	c #FF9D1F",
"w.	c #D83F0A",
"x.	c #F85702",
"y.	c #DB7D09",
"z.	c #FF9400",
"A.	c #FFEE16",
"B.	c #FFFF47",
"C.	c #FFFF3B",
"D.	c #FFFF19",
"E.	c #FFFF17",
"F.	c #FFFF15",
"G.	c #FFFF20",
"H.	c #FFFF57",
"I.	c #FFFFAB",
"J.	c #FFFFEA",
"K.	c #FFFFA9",
"L.	c #FFFF93",
"M.	c #FFFF64",
"N.	c #FFFF34",
"O.	c #FFFF2E",
"P.	c #FFFF50",
"Q.	c #FFF200",
"R.	c #FF3A00",
"S.	c #FF4E00",
"T.	c #1F2238",
"U.	c #FF8100",
"V.	c #FF7900",
"W.	c #FF8500",
"X.	c #FFC400",
"Y.	c #FFE101",
"Z.	c #FFFF85",
"`.	c #FFFF40",
" +	c #FFFF45",
".+	c #FFFF46",
"++	c #FFFF4E",
"@+	c #FFFF22",
"#+	c #FFFF59",
"$+	c #FFFF87",
"%+	c #FFFFF7",
"&+	c #FFFFE8",
"*+	c #FFFFBE",
"=+	c #FFFF9C",
"-+	c #FFFF7D",
";+	c #FFFF73",
">+	c #FFFF80",
",+	c #FFFF62",
"'+	c #FFFF56",
")+	c #FFF302",
"!+	c #FFC700",
"~+	c #FF6700",
"{+	c #FF9100",
"]+	c #D4020B",
"^+	c #FF2E00",
"/+	c #FE3B00",
"(+	c #FF4000",
"_+	c #FF8200",
":+	c #FFD300",
"<+	c #FFE700",
"[+	c #FFFF26",
"}+	c #FFFF48",
"|+	c #FFFF69",
"1+	c #FFFF2A",
"2+	c #FFFF2C",
"3+	c #FFFF70",
"4+	c #FFFFE0",
"5+	c #FFFFFF",
"6+	c #FFFFE5",
"7+	c #FFFFB7",
"8+	c #FFFF8C",
"9+	c #FFFF74",
"0+	c #FFFF60",
"a+	c #FFFF68",
"b+	c #FFFF27",
"c+	c #FFEF00",
"d+	c #FFC900",
"e+	c #FF8000",
"f+	c #FF9D00",
"g+	c #FFD100",
"h+	c #FFCB00",
"i+	c #FFFF58",
"j+	c #FFFF53",
"k+	c #FFFF8F",
"l+	c #FFFF5C",
"m+	c #FFFFDA",
"n+	c #FFFF7E",
"o+	c #FFFF6A",
"p+	c #FFFFB0",
"q+	c #FFFFB6",
"r+	c #FFFF8E",
"s+	c #FFFF66",
"t+	c #FF9A00",
"u+	c #F65702",
"v+	c #E63006",
"w+	c #FF4F00",
"x+	c #D21C0B",
"y+	c #FF7800",
"z+	c #FFCC00",
"A+	c #FFC800",
"B+	c #FFD800",
"C+	c #FF7600",
"D+	c #FFB800",
"E+	c #FFFF31",
"F+	c #FFFF28",
"G+	c #FFFF1D",
"H+	c #FFFF63",
"I+	c #FFFFB5",
"J+	c #FFFF97",
"K+	c #FFFF7B",
"L+	c #FFFF4A",
"M+	c #FFFFC3",
"N+	c #FFFF49",
"O+	c #FFFF29",
"P+	c #B82A12",
"Q+	c #FF8900",
"R+	c #FF8300",
"S+	c #FFFA09",
"T+	c #FFF400",
"U+	c #FFFA00",
"V+	c #FFFF3F",
"W+	c #FFFF38",
"X+	c #FFFF2D",
"Y+	c #FFFF9A",
"Z+	c #FFFF4F",
"`+	c #FFFF8A",
" @	c #FFFF98",
".@	c #FFFF6F",
"+@	c #FFFF54",
"@@	c #FFFF76",
"#@	c #FFFFAF",
"$@	c #FFFFA7",
"%@	c #FFFF77",
"&@	c #FFE620",
"*@	c #FF5600",
"=@	c #FF5500",
"-@	c #FF7A00",
";@	c #FFB500",
">@	c #FFFF0E",
",@	c #FFFF35",
"'@	c #FFFF1E",
")@	c #FFFF72",
"!@	c #FFFF6D",
"~@	c #FFFF8B",
"{@	c #FFFF6B",
"]@	c #FFFF81",
"^@	c #FFFF7A",
"/@	c #FFFF6E",
"(@	c #FFFF67",
"_@	c #FFFFAA",
":@	c #FFFFB3",
"<@	c #FFFF83",
"[@	c #FFFF5B",
"}@	c #FFF910",
"|@	c #D4220B",
"1@	c #FF3400",
"2@	c #FB4401",
"3@	c #FF5F00",
"4@	c #FFBA00",
"5@	c #FFFF0F",
"6@	c #FFFFA8",
"7@	c #FFFF99",
"8@	c #FFFF5E",
"9@	c #FFFF96",
"0@	c #FFFFC6",
"a@	c #FFFF84",
"b@	c #FF1F00",
"c@	c #FF4C00",
"d@	c #FFDC02",
"e@	c #FFFF0A",
"f@	c #FFFF25",
"g@	c #FFFF88",
"h@	c #FFFFCC",
"i@	c #FFFE11",
"j@	c #DF7F08",
"k@	c #C5190B",
"l@	c #BC1D0E",
"m@	c #CB390D",
"n@	c #FEBA00",
"o@	c #FFFA0C",
"p@	c #FFFF36",
"q@	c #FFFF1A",
"r@	c #FFFF4C",
"s@	c #FFFF7F",
"t@	c #FFFF5D",
"u@	c #FFFF86",
"v@	c #FFFFC5",
"w@	c #FFFFE4",
"x@	c #FFFFB8",
"y@	c #FFFF95",
"z@	c #FFFF71",
"A@	c #FFFF30",
"B@	c #CB300D",
"C@	c #FFB300",
"D@	c #FFFF07",
"E@	c #FFFF1F",
"F@	c #FFFF33",
"G@	c #FFFFBC",
"H@	c #FFFFB1",
"I@	c #FFFFEE",
"J@	c #FFFFFE",
"K@	c #FFFFF8",
"L@	c #FFFFE1",
"M@	c #FFFFAE",
"N@	c #FFFFA2",
"O@	c #D34808",
"P@	c #9F0D19",
"Q@	c #FF7E00",
"R@	c #FF3500",
"S@	c #53292B",
"T@	c #7A1C21",
"U@	c #FFFFC9",
"V@	c #FFFFE7",
"W@	c #FFFFFC",
"X@	c #FFFFD2",
"Y@	c #FFFF90",
"Z@	c #FFFD1B",
"`@	c #FFA000",
" #	c #FF6500",
".#	c #ED8305",
"+#	c #DC1409",
"@#	c #7F1F20",
"##	c #FF0000",
"$#	c #E81D06",
"%#	c #B54213",
"&#	c #8D261C",
"*#	c #442F2F",
"=#	c #BB0D11",
"-#	c #7D1B21",
";#	c #FF3000",
">#	c #FFFFD9",
",#	c #FFFFDD",
"'#	c #FFFFFA",
")#	c #FFFFF0",
"!#	c #FFFFB2",
"~#	c #FFFF92",
"{#	c #FFFE05",
"]#	c #FFD700",
"^#	c #FF4D00",
"/#	c #FF2300",
"(#	c #F91A02",
"_#	c #FF7C00",
":#	c #B01F14",
"<#	c #FFF500",
"[#	c #FFFF3A",
"}#	c #FFFF4D",
"|#	c #FFFF94",
"1#	c #FFFFDE",
"2#	c #FFFFEF",
"3#	c #FFFFF2",
"4#	c #FFFFF5",
"5#	c #FFFFBD",
"6#	c #FFFF9F",
"7#	c #FFFF43",
"8#	c #FFFF05",
"9#	c #FFC500",
"0#	c #FF8700",
"a#	c #D92109",
"b#	c #FC1101",
"c#	c #EC3305",
"d#	c #FF7100",
"e#	c #FF1000",
"f#	c #FFCE00",
"g#	c #FFFF82",
"h#	c #FFFFE2",
"i#	c #FFFFD0",
"j#	c #FFFFD8",
"k#	c #FFFF6C",
"l#	c #FFFF9D",
"m#	c #FFFA0B",
"n#	c #FF4B00",
"o#	c #E54B06",
"p#	c #FC3801",
"q#	c #FF5300",
"r#	c #FFF10A",
"s#	c #FFFF42",
"t#	c #FFFFA3",
"u#	c #ED4805",
"v#	c #C3470F",
"w#	c #D74A0A",
"x#	c #EC3D05",
"y#	c #FFFF13",
"z#	c #FFFF18",
"A#	c #FFFF9E",
"B#	c #FFFF2B",
"C#	c #FFFF44",
"D#	c #FFA800",
"E#	c #FFED00",
"F#	c #6D2424",
"G#	c #FF7B00",
"H#	c #FFE900",
"I#	c #FFE400",
"J#	c #FFE800",
"K#	c #FFFE08",
"L#	c #FFFFBF",
"M#	c #FFED04",
"N#	c #D24B0B",
"O#	c #D7520A",
"P#	c #FFB100",
"Q#	c #AC0E15",
"R#	c #512829",
"S#	c #4B2A2A",
"T#	c #3E2A2A",
"U#	c #FF2A00",
"V#	c #E45007",
"W#	c #FE1000",
"X#	c #FFA500",
"Y#	c #FE7300",
"Z#	c #FF9200",
"`#	c #FFBE00",
" $	c #FFFD05",
".$	c #FFFF5F",
"+$	c #FFFFAD",
"@$	c #FFA400",
"#$	c #CF4C0C",
"$$	c #D8000A",
"%$	c #E62206",
"&$	c #C01110",
"*$	c #FF0D00",
"=$	c #D5290B",
"-$	c #C2200F",
";$	c #DE0A08",
">$	c #FF6800",
",$	c #FF9F00",
"'$	c #FF5B00",
")$	c #BB0B11",
"!$	c #F60002",
"~$	c #A64514",
"{$	c #FF6F00",
"]$	c #EF2C04",
"^$	c #FFFFBA",
"/$	c #FFFF8D",
"($	c #FFFF89",
"_$	c #FFFF61",
":$	c #B20513",
"<$	c #FF6C00",
"[$	c #E34A07",
"}$	c #EE5704",
"|$	c #D43D0B",
"1$	c #C7230E",
"2$	c #FFFD0A",
"3$	c #FFFF4B",
"4$	c #FFFFB4",
"5$	c #FFFF23",
"6$	c #FFFF1B",
"7$	c #FFE805",
"8$	c #EA701E",
"9$	c #003640",
"0$	c #FFFF24",
"a$	c #FFEA04",
"b$	c #FF9800",
"c$	c #611C28",
"d$	c #E32507",
"e$	c #FFB600",
"f$	c #FFFC01",
"g$	c #FFFF2F",
"h$	c #FFFC00",
"i$	c #FFFF21",
"j$	c #FFF407",
"k$	c #FFFF1C",
"l$	c #C9270E",
"m$	c #8A1D1D",
"n$	c #C91B0E",
"o$	c #FFD500",
"p$	c #FFF802",
"q$	c #FFE801",
"r$	c #FFFF04",
"s$	c #FF3200",
"t$	c #FD1C00",
"u$	c #9F0A18",
"v$	c #DC2209",
"w$	c #FFFC1B",
"x$	c #FFFF02",
"y$	c #F15004",
"z$	c #FF4300",
"A$	c #FF4500",
"B$	c #FFC808",
"C$	c #FFFB0F",
"D$	c #E02C08",
"E$	c #E02708",
"F$	c #E90E06",
"G$	c #E21F07",
"H$	c #FFA100",
"I$	c #9B0C19",
"J$	c #C93C0D",
"K$	c #FF5200",
"L$	c #FF8E00",
"M$	c #FFAC00",
"N$	c #FFD600",
"O$	c #FFDA00",
"P$	c #6D2724",
"Q$	c #FF0E00",
"R$	c #93071B",
"S$	c #FFD400",
"T$	c #FFEB00",
"U$	c #BA220D",
"V$	c #8E2A1C",
"W$	c #FF6A00",
"X$	c #AD3E14",
"Y$	c #FF6600",
"Z$	c #FEB500",
"`$	c #FD5C00",
" %	c #C6100E",
".%	c #C0100C",
"+%	c #CF0E0C",
"@%	c #FF7500",
"#%	c #FFBB00",
"$%	c #EC4405",
"%%	c #C3490F",
"&%	c #FF7300",
"*%	c #E75D06",
"=%	c #E62D06",
"-%	c #FF2900",
";%	c #FF5E00",
">%	c #FF4400",
",%	c #FF1400",
"'%	c #B21E10",
")%	c #C20C0F",
"!%	c #FF6200",
"~%	c #FF1E00",
"{%	c #FF7000",
"]%	c #50222C",
"^%	c #A40617",
"/%	c #E66C06",
"(%	c #F52E03",
"_%	c #B51A13",
":%	c #48292B",
"<%	c #FF1200",
"[%	c #CB070D",
"}%	c #BB0F11",
"|%	c #552B2B",
"1%	c #A63316",
"2%	c #FF6300",
"3%	c #8D121C",
"4%	c #EF1A04",
"5%	c #6F2121",
"6%	c #452C2C",
"7%	c #E21007",
"8%	c #F62D03",
"9%	c #532828",
"0%	c #4D2626",
"a%	c #742323",
"b%	c #E52406",
"c%	c #D6310A",
"d%	c #E51A07",
"e%	c #871C1E",
"f%	c #D92309",
"g%	c #55292B",
"h%	c #E51307",
"i%	c #CB020D",
"j%	c #F25003",
"k%	c #FF9700",
"l%	c #541F2B",
"m%	c #AC4215",
"n%	c #FF4700",
"o%	c #EC5C05",
"p%	c #FC6D01",
"q%	c #CA430D",
"r%	c #D9000A",
"                                                                                                    ",
"                                                                                                    ",
"                                                                                                    ",
"                                                                                                    ",
"                                                                                                    ",
"                                    .         + @                                                   ",
"                                  # $ %       & * = - ;                   >                         ",
"                                , ' @ )     ! ~ { ] ^ /                 ( _ :                       ",
"                            < [ } | 1 2   3 4 5 6 7 , 8     9           0 a                         ",
"                    b c d e f g h i j k l m n o p q 6 r s t ]     u v w x y z A B                   ",
"                    { C D C E F G 8 H I , J K L M o N O P Q R   S , T U V W X Y                     ",
"                    Z `  ...+.O @.#.$.D P ^ %.&.&.*.=.-.;.>.|   D S ,.'.O T ).!.                    ",
"                      ~.{.]...^./.(._.:.r <.[.}.|.1.2.3.4.5.6.7.8.].9.].0.a.                        ",
"                        < {.b.o c.d.e.f.g.h.M i.j.k.l.m.}.n.o.p.q.r.s.t.u.v.                        ",
"                  w.x.  y.z.A.2.B.4.C.D.E.F.G.H.I.J.K.L.M.N.}.*.O.P.d.Q.P   R.S.                    ",
"                T.U.V.W.B X.Y.Z.`.O. +.+++@+u.#+$+%+&+*+=+-+;+>+,+'+ +)+!+~+{+z.]+                  ",
"              ^+Q /+(+_+:+` <+&.[+}+2.++|+1+2+P.3+4+5+6+7+8+'+9+|.0+a+b+c+d+_ V e+                  ",
"            f+_ g+7.7.O h++.4.&.i+#+j+i+k+,+j+l+;+-+m+7+n+o+l+#+p+q+r+s+1+^.t+u+v+                  ",
"        w+w+x+y+z+A+B+t.C+D+s.E+'+F+G+H+I+J+,+K+9+n+9+L+l+1.i+s+$+M+n+N+O+..P+                      ",
"        Q+y+R+e+$.p S+T+U+F+[+V+W+}.X+#+k.Y+Z+`+K. @.@+@++@@8+=+#@$@%@.+&@*@                        ",
"      =@] -@< ;@O >@,@ +'@i+>+#+.+)@3+!@~@$+{@]@^@l.n+/@(@_@:@<@$+[@[+}@C |@                        ",
"        1@2@3@4@6.5@[+9+)@K+6@[@1+l.7@.@#+,+-+<@M.l.o+8@9@6+0@a@!@Z+2+T+d+b@                        ",
"          c@8 $ <.d@e@`.l.H+a+9+f@2.g@(@P.9@*+h@6@o+N+}+.@h@k.l.,@+@i@<+j@                          ",
"            k@l@m@g n@o@l+.+W+p@q@r@s@t@u@v@w@6+x@y@z@s+L+o+(@+@A@+@@+t.                            ",
"                    B@C@D@E@F@W+L++@%@y@G@H@I@J@K@L@M@N@s@i+L+ +'+H.F+T+O@P@                        ",
"          F Q@R@S@  T@e+<+G+)@;+s@.@#+<@U@V@W@5+5+5+X@Y@n+<@@@H+B. +}+'+Z@`@ #.#+#  @###$#A ##      ",
"          w+%#&#*#=#-#;#T+G.Z+z@H+&.M.7@>#5+,#'#5+)#!#~#K+K+>+s@|+`.L+H+'@{#>@]#^#/#(#S.V 7.`@_#    ",
"                :#/+F S <#f@[#}# +Z+`.|#1#5+2#3#4#5#y@6#k+l.n+[@(@/@]@7#8#e.t.9#0# #a#b#c#0#u       ",
"            Q@d#e#Z f#n.}#s+g#}+1+V+'+]@0@h#i#0@j#9@k#>+;+%@0+B.L.Y+l#++2+m#p D+T U n#              ",
"            o#p#q#n r#s#Z+;+y@2.O.|+g@l+t#>+a@K+G@^@s+z@(@l.{@(@_@M+H.,@s#$.d , u#v#w#              ",
"              x#{.].e.y#z#*.0+Z+0+|+r+t#M@>+A#J+y@;+3+$+8+@@j+E+B#C#)+D#E#, F e+}       F#          ",
"            G#`@]#H#I#N J#K#B#[+Z+P.8+U@,#7+L#Y+|+'+3+<@a+#+2+A@@+M#!+N#O#f+P#C+Q#R#S#T#U#V#        ",
"          W#X#n 5 {+Y#Z#` `#t+ $f@#+1.7+$@.$~#L#+$@@&.a+H+l+2.o+O+I#@$#$  $$  %$&$*$=$-$;$>$D+      ",
"          ,$'$)$!$  ~$t+3@{$]$]#e@X+a+^$5#k+/$%@7@($0+_$n+*.,@7#F+{.`#_+        :$-@0#<$            ",
"                    [$}$|$  1$!+2$3$k.4$!#_@y@o+%@|+V+t@3+E@f@5$6$7$7.8$            ##              ",
"                            9$< F.t@,+}#o+^@++b+O+C#E@N.M.t@l+7#0$a$z+b$c$                          ",
"                            d$e$f$8@g$h$F+N.V+i$z+j$ $k$++r+[@i$<#B+!+G l$m$                        ",
"                          n$C+o$p$Z+*.-.>@d.'@'.0#P#t+q$C#'+s#r$o$B `#~.s$t$u$                      ",
"                          v$7.f#c+w$E@x$@.t.f#y$: z$A$B$q@i$A@C$E D$E$F$G$H$<$I$                    ",
"                        J$K$L$M$N$ .X.0.O$ ._+P$Q$Y R$_ S$^.T$^.B U$    V$W$'.X$                    ",
"                      Y$Z${$/#P#{ D y+, L$`$ %  .%w+  +%z$@%{.f##%$%      %%G#F                     ",
"                        &%*%=%< z$-%;%>%,%'%          )%!%~%{%d , $ ]%      ^%/%                    ",
"                            (%z._%:%<%[%}%|%          1%2%3%*@R+E$@%                                ",
"                              4%5%6%  7%8%9%0%a%        b%  R C@c%                                  ",
"                                d%e%  5 f%g%h%              i%d j%                                  ",
"                              -@k%        l%3@m%            n%o%p%                                  ",
"                                :           d#q%              r%X#                                  ",
"                                                                                                    ",
"                                                                                                    ",
"                                                                                                    "};
