/* XPM */
static char * exp16_xpm[] = {
"50 50 673 2",
"  	c None",
". 	c #971717",
"+ 	c #7A2222",
"@ 	c #6C2525",
"# 	c #4B2828",
"$ 	c #5E2828",
"% 	c #752323",
"& 	c #402B2B",
"* 	c #612828",
"= 	c #462B2B",
"- 	c #7C2121",
"; 	c #4B2E2E",
"> 	c #762323",
", 	c #841C1C",
"' 	c #662222",
") 	c #3A2C2C",
"! 	c #262727",
"~ 	c #772222",
"{ 	c #6B2222",
"] 	c #462C2C",
"^ 	c #8F1C1C",
"/ 	c #732323",
"( 	c #672626",
"_ 	c #602424",
": 	c #4A2B2B",
"< 	c #292A2A",
"[ 	c #263030",
"} 	c #861E1E",
"| 	c #981A1A",
"1 	c #7B2121",
"2 	c #A81616",
"3 	c #B71212",
"4 	c #AA1616",
"5 	c #642727",
"6 	c #6C2121",
"7 	c #333131",
"8 	c #9E1919",
"9 	c #7F2020",
"0 	c #8A1E1E",
"a 	c #3D2E2E",
"b 	c #262828",
"c 	c #412828",
"d 	c #672424",
"e 	c #332C2C",
"f 	c #A91415",
"g 	c #D4090B",
"h 	c #E90406",
"i 	c #EB0405",
"j 	c #DC0909",
"k 	c #881E1E",
"l 	c #792323",
"m 	c #3F3030",
"n 	c #4A2727",
"o 	c #662323",
"p 	c #802020",
"q 	c #562B2B",
"r 	c #C40F0F",
"s 	c #8E1C1C",
"t 	c #A21717",
"u 	c #C50F0F",
"v 	c #C60E0E",
"w 	c #5A2A2A",
"x 	c #552929",
"y 	c #7D2121",
"z 	c #B70F13",
"A 	c #4C2B2B",
"B 	c #522C2C",
"C 	c #41292B",
"D 	c #FF3100",
"E 	c #FF2C00",
"F 	c #FF2000",
"G 	c #FF2800",
"H 	c #FC0901",
"I 	c #CF0C0C",
"J 	c #622020",
"K 	c #3F2E2E",
"L 	c #372D2D",
"M 	c #482B2B",
"N 	c #212929",
"O 	c #BB1111",
"P 	c #8B1515",
"Q 	c #752121",
"R 	c #A41717",
"S 	c #D00C0C",
"T 	c #C01010",
"U 	c #D20B0B",
"V 	c #D60A0A",
"W 	c #C50E0E",
"X 	c #F81202",
"Y 	c #FF6D00",
"Z 	c #D90909",
"` 	c #632727",
" .	c #801F20",
"..	c #F82702",
"+.	c #FF7F00",
"@.	c #FF7C00",
"#.	c #FF3800",
"$.	c #FE0D00",
"%.	c #F60F02",
"&.	c #E70706",
"*.	c #B11414",
"=.	c #602323",
"-.	c #4E2D2D",
";.	c #652727",
">.	c #5F2626",
",.	c #B21313",
"'.	c #642121",
").	c #432A2A",
"!.	c #8B1D1D",
"~.	c #D10C0C",
"{.	c #E30707",
"].	c #E40707",
"^.	c #E80506",
"/.	c #DF0808",
"(.	c #F60002",
"_.	c #DE0B08",
":.	c #BE1010",
"<.	c #C70E0E",
"[.	c #E70506",
"}.	c #FA0B01",
"|.	c #FFA200",
"1.	c #FFD300",
"2.	c #FFC200",
"3.	c #FF8200",
"4.	c #FF5700",
"5.	c #FF4C00",
"6.	c #FF2600",
"7.	c #941919",
"8.	c #692323",
"9.	c #D30B0B",
"0.	c #B91212",
"a.	c #4A2E2E",
"b.	c #6F1F1F",
"c.	c #DB0809",
"d.	c #FC0B01",
"e.	c #FF1C00",
"f.	c #FF1E00",
"g.	c #FF1800",
"h.	c #FB0E01",
"i.	c #FE1200",
"j.	c #F80F02",
"k.	c #FF2B00",
"l.	c #FF9100",
"m.	c #FFFF1E",
"n.	c #FFFD0A",
"o.	c #FFED00",
"p.	c #FFC000",
"q.	c #FF7600",
"r.	c #FF3900",
"s.	c #FF1200",
"t.	c #F80402",
"u.	c #F80902",
"v.	c #F40603",
"w.	c #F90402",
"x.	c #E70606",
"y.	c #EE0404",
"z.	c #782222",
"A.	c #323333",
"B.	c #C1110F",
"C.	c #FF3000",
"D.	c #FF4D00",
"E.	c #FF5C00",
"F.	c #FF3C00",
"G.	c #FF3D00",
"H.	c #FF6100",
"I.	c #FF7D00",
"J.	c #FF4200",
"K.	c #FF3B00",
"L.	c #FFC800",
"M.	c #FFFF49",
"N.	c #FFFF53",
"O.	c #FFFF27",
"P.	c #FFF807",
"Q.	c #FFB300",
"R.	c #FF6C00",
"S.	c #FF5300",
"T.	c #FF7400",
"U.	c #FF6300",
"V.	c #FF4600",
"W.	c #FD1201",
"X.	c #CC0C0D",
"Y.	c #672323",
"Z.	c #732424",
"`.	c #292B2B",
" +	c #B21414",
".+	c #B51313",
"++	c #A41617",
"@+	c #FF2700",
"#+	c #FF4400",
"$+	c #FF4000",
"%+	c #FF6500",
"&+	c #FFBD00",
"*+	c #FF5100",
"=+	c #FF7300",
"-+	c #FFCE00",
";+	c #FFFF5C",
">+	c #FFFF7C",
",+	c #FFFF57",
"'+	c #FFFF2B",
")+	c #FFF201",
"!+	c #FFC600",
"~+	c #FFA300",
"{+	c #FFA500",
"]+	c #FFAE00",
"^+	c #FFA000",
"/+	c #FF8300",
"(+	c #FE0900",
"_+	c #B01414",
":+	c #662424",
"<+	c #6A2525",
"[+	c #542A2A",
"}+	c #9B1919",
"|+	c #B41313",
"1+	c #FA1501",
"2+	c #FF6800",
"3+	c #FF8600",
"4+	c #FF8700",
"5+	c #FFCB00",
"6+	c #FFB700",
"7+	c #FF5D00",
"8+	c #FF7000",
"9+	c #FF9D00",
"0+	c #FFFA18",
"a+	c #FFFF8D",
"b+	c #FFFF75",
"c+	c #FFFF46",
"d+	c #FFFF1A",
"e+	c #FFC700",
"f+	c #FFB600",
"g+	c #FFA400",
"h+	c #FF9B00",
"i+	c #FF8D00",
"j+	c #FF6700",
"k+	c #FF1600",
"l+	c #E30807",
"m+	c #CA0D0D",
"n+	c #822020",
"o+	c #1A2929",
"p+	c #9C1616",
"q+	c #9C1919",
"r+	c #5D2727",
"s+	c #4A2828",
"t+	c #941A1B",
"u+	c #DD1408",
"v+	c #EC0205",
"w+	c #F81702",
"x+	c #F82D02",
"y+	c #FFB800",
"z+	c #FFDA00",
"A+	c #FFC100",
"B+	c #FF9C00",
"C+	c #FF9500",
"D+	c #FFB000",
"E+	c #FF8B00",
"F+	c #FFDD00",
"G+	c #FFFF37",
"H+	c #FFFF6A",
"I+	c #FFFF3A",
"J+	c #FFFF09",
"K+	c #FFD800",
"L+	c #FFBC00",
"M+	c #FFA900",
"N+	c #FFD200",
"O+	c #FFDE00",
"P+	c #FF4100",
"Q+	c #F60402",
"R+	c #7D2020",
"S+	c #492B2B",
"T+	c #702222",
"U+	c #821F1F",
"V+	c #E20707",
"W+	c #FD0E01",
"X+	c #FF3600",
"Y+	c #FF1400",
"Z+	c #FF8100",
"`+	c #FFE600",
" @	c #FF9800",
".@	c #FF5F00",
"+@	c #FF6E00",
"@@	c #FFD500",
"#@	c #FFB100",
"$@	c #FFD000",
"%@	c #FFF90F",
"&@	c #FFD700",
"*@	c #FFD400",
"=@	c #FFE100",
"-@	c #FFCC00",
";@	c #FFCF00",
">@	c #FFEE00",
",@	c #FFD900",
"'@	c #FFAC00",
")@	c #FE1900",
"!@	c #572222",
"~@	c #512A2A",
"{@	c #322525",
"]@	c #442D2D",
"^@	c #941B1B",
"/@	c #D40B0B",
"(@	c #F90002",
"_@	c #FF2E00",
":@	c #FF2A00",
"<@	c #FF5600",
"[@	c #FF8C00",
"}@	c #FFBB00",
"|@	c #FFE000",
"1@	c #FFD600",
"2@	c #FF8000",
"3@	c #FFDC00",
"4@	c #FFF100",
"5@	c #FF7700",
"6@	c #FF9200",
"7@	c #A81516",
"8@	c #692626",
"9@	c #393131",
"0@	c #642525",
"a@	c #A51616",
"b@	c #CB0D0D",
"c@	c #F70B02",
"d@	c #FC0601",
"e@	c #FD1001",
"f@	c #FF7B00",
"g@	c #FFA800",
"h@	c #FF9A00",
"i@	c #FF8A00",
"j@	c #FFC400",
"k@	c #FFDB00",
"l@	c #FFF700",
"m@	c #FFF800",
"n@	c #FFFD04",
"o@	c #FFF103",
"p@	c #FFBA00",
"q@	c #FF3500",
"r@	c #C30C0F",
"s@	c #831F1F",
"t@	c #3C2F2F",
"u@	c #602727",
"v@	c #B31313",
"w@	c #C11010",
"x@	c #FA0901",
"y@	c #FF4A00",
"z@	c #FF7900",
"A@	c #FFB200",
"B@	c #FFEB00",
"C@	c #FFF611",
"D@	c #FFB500",
"E@	c #FFBE00",
"F@	c #FF9E00",
"G@	c #FFBF00",
"H@	c #FFCA00",
"I@	c #FFE300",
"J@	c #FFF500",
"K@	c #FFFF0F",
"L@	c #FFE200",
"M@	c #FF9600",
"N@	c #FF0C00",
"O@	c #422828",
"P@	c #811F1F",
"Q@	c #BF1010",
"R@	c #AD1414",
"S@	c #EE0D04",
"T@	c #FC3501",
"U@	c #FFA100",
"V@	c #FFC900",
"W@	c #FFAF00",
"X@	c #FFE900",
"Y@	c #FFC300",
"Z@	c #FFAD00",
"`@	c #FF8900",
" #	c #FF9700",
".#	c #FFFC01",
"+#	c #FFFF0C",
"@#	c #FFA700",
"##	c #FF7A00",
"$#	c #FE2300",
"%#	c #DC0809",
"&#	c #801E1E",
"*#	c #7A1E1E",
"=#	c #4A2929",
"-#	c #392C2C",
";#	c #602525",
">#	c #F70E02",
",#	c #FF4F00",
"'#	c #FF6F00",
")#	c #FF9900",
"!#	c #FF7E00",
"~#	c #FFA600",
"{#	c #FFFF16",
"]#	c #FFFF2C",
"^#	c #FFFF11",
"/#	c #FF8800",
"(#	c #FFDF00",
"_#	c #FFF000",
":#	c #FF9300",
"<#	c #F91302",
"[#	c #831C1C",
"}#	c #4B2A2A",
"|#	c #A91515",
"1#	c #FB0701",
"2#	c #FF7100",
"3#	c #FFFE15",
"4#	c #FFFF4F",
"5#	c #FFFF65",
"6#	c #FFFF5A",
"7#	c #FFFF21",
"8#	c #FFFA07",
"9#	c #B61112",
"0#	c #BE0E10",
"a#	c #FF4300",
"b#	c #FF6200",
"c#	c #FF9000",
"d#	c #FFFF17",
"e#	c #FFFF3E",
"f#	c #FFFF3B",
"g#	c #FFFF6D",
"h#	c #FFFF84",
"i#	c #FFFF73",
"j#	c #FFFA09",
"k#	c #FFF301",
"l#	c #B11614",
"m#	c #392B2B",
"n#	c #9B1A1A",
"o#	c #F70802",
"p#	c #FFB400",
"q#	c #FFFF1F",
"r#	c #FFFF51",
"s#	c #FFFF80",
"t#	c #FFFF98",
"u#	c #FFFF7A",
"v#	c #FFFF43",
"w#	c #FF5900",
"x#	c #FF5B00",
"y#	c #FA3801",
"z#	c #ED6704",
"A#	c #611F1F",
"B#	c #DD0308",
"C#	c #FF6000",
"D#	c #FFFF26",
"E#	c #FFFF63",
"F#	c #FFFF78",
"G#	c #FFFF56",
"H#	c #FFFF76",
"I#	c #FFFF92",
"J#	c #FFFF79",
"K#	c #FFFF3F",
"L#	c #FFF400",
"M#	c #FF3300",
"N#	c #FF2900",
"O#	c #BC1011",
"P#	c #4B2727",
"Q#	c #812020",
"R#	c #682626",
"S#	c #562424",
"T#	c #C50E0F",
"U#	c #FC1101",
"V#	c #FF6600",
"W#	c #FFFF23",
"X#	c #FFFF6C",
"Y#	c #FFFF69",
"Z#	c #FFFF20",
"`#	c #FFFF05",
" $	c #FFAB00",
".$	c #FF0700",
"+$	c #861F1F",
"@$	c #302C2C",
"#$	c #741B1B",
"$$	c #312F2F",
"%$	c #D50A0B",
"&$	c #FF1500",
"*$	c #FFAA00",
"=$	c #FFF810",
"-$	c #FFFF40",
";$	c #FFFF39",
">$	c #FFE700",
",$	c #FFF30F",
"'$	c #FFDF05",
")$	c #FF7500",
"!$	c #EC0405",
"~$	c #552626",
"{$	c #462828",
"]$	c #792222",
"^$	c #562929",
"/$	c #5E2626",
"($	c #F20103",
"_$	c #FF9400",
":$	c #FFED04",
"<$	c #FFFF13",
"[$	c #FFE402",
"}$	c #FFFF10",
"|$	c #FFEF05",
"1$	c #FFFF7B",
"2$	c #FFFF35",
"3$	c #FF5400",
"4$	c #FD0C01",
"5$	c #A11717",
"6$	c #5E2929",
"7$	c #273232",
"8$	c #402A2A",
"9$	c #AA1515",
"0$	c #EC0505",
"a$	c #FB0001",
"b$	c #FF7800",
"c$	c #FF7200",
"d$	c #FF8E00",
"e$	c #FFF603",
"f$	c #FFD100",
"g$	c #FFF801",
"h$	c #FFE406",
"i$	c #FFF522",
"j$	c #FFDF04",
"k$	c #FF4700",
"l$	c #F31403",
"m$	c #8A1B1B",
"n$	c #362D2D",
"o$	c #6B1D1D",
"p$	c #971B1B",
"q$	c #F40303",
"r$	c #FC0101",
"s$	c #FF0F00",
"t$	c #FF2100",
"u$	c #FF4900",
"v$	c #FFEF00",
"w$	c #FFFB0B",
"x$	c #FFFF0B",
"y$	c #FFFB00",
"z$	c #FFF600",
"A$	c #FFC500",
"B$	c #FF8F00",
"C$	c #FF5A00",
"D$	c #DB0409",
"E$	c #771F20",
"F$	c #582525",
"G$	c #2C2C2C",
"H$	c #4D2525",
"I$	c #672222",
"J$	c #9F1818",
"K$	c #C80E0E",
"L$	c #AF1414",
"M$	c #B81212",
"N$	c #BE0F10",
"O$	c #E30507",
"P$	c #F61202",
"Q$	c #FF5000",
"R$	c #FFB900",
"S$	c #FF6900",
"T$	c #FD1500",
"U$	c #9A1A1A",
"V$	c #482626",
"W$	c #7B1E1E",
"X$	c #6F2525",
"Y$	c #791F1F",
"Z$	c #2F3232",
"`$	c #5D2222",
" %	c #452B2B",
".%	c #353333",
"+%	c #432F2F",
"@%	c #393232",
"#%	c #492E2E",
"$%	c #2A3030",
"%%	c #B11314",
"&%	c #FF0E00",
"*%	c #FF5E00",
"=%	c #FFFF24",
"-%	c #FFF706",
";%	c #FFE500",
">%	c #EF0504",
",%	c #4C2A2A",
"'%	c #502C2C",
")%	c #891B1B",
"!%	c #522727",
"~%	c #3F2727",
"{%	c #FF1000",
"]%	c #FFE903",
"^%	c #FFFF25",
"/%	c #FFFF19",
"(%	c #FF8500",
"_%	c #FF6B00",
":%	c #DC0609",
"<%	c #961A1A",
"[%	c #951B1B",
"}%	c #682323",
"|%	c #D8090A",
"1%	c #FF0D00",
"2%	c #FFFF12",
"3%	c #FF5200",
"4%	c #CF0B0C",
"5%	c #742323",
"6%	c #6C2222",
"7%	c #E50207",
"8%	c #FF6400",
"9%	c #FF3A00",
"0%	c #AC1515",
"a%	c #6E2525",
"b%	c #FE1A00",
"c%	c #DF0508",
"d%	c #F51202",
"e%	c #A61616",
"f%	c #602828",
"g%	c #4A2D2D",
"h%	c #FF2500",
"i%	c #FF1D00",
"j%	c #FF2300",
"k%	c #FF3F00",
"l%	c #AD1315",
"m%	c #AE1515",
"n%	c #7E2021",
"o%	c #AC1415",
"p%	c #FE0300",
"q%	c #F00704",
"r%	c #722323",
"s%	c #A91616",
"t%	c #BD1111",
"u%	c #5C2929",
"v%	c #9D1919",
"w%	c #E80E06",
"x%	c #FF0900",
"y%	c #FE0E00",
"z%	c #F20903",
"A%	c #9A191A",
"B%	c #1B3131",
"C%	c #A41417",
"D%	c #EF1504",
"E%	c #5E2121",
"F%	c #3B2C2C",
"G%	c #512C2C",
"H%	c #412C2C",
"I%	c #3C2E2E",
"J%	c #B61212",
"K%	c #C20F0F",
"L%	c #AB1515",
"M%	c #D2090B",
"N%	c #97191A",
"O%	c #E61006",
"P%	c #EC0305",
"Q%	c #FF1900",
"R%	c #F40A03",
"S%	c #BE1111",
"T%	c #9A1919",
"U%	c #562727",
"V%	c #592A2A",
"W%	c #C90D0D",
"X%	c #8A1D1D",
"Y%	c #5A2727",
"Z%	c #5B2727",
"`%	c #312B2B",
" &	c #422A2A",
".&	c #732222",
"+&	c #D50A0A",
"@&	c #F10404",
"#&	c #D70A0A",
"$&	c #2A3535",
"%&	c #931B1B",
"&&	c #1F2D2D",
"*&	c #911C1C",
"=&	c #542B2B",
"-&	c #8C1A1A",
";&	c #4B2626",
">&	c #612727",
",&	c #731E1E",
"'&	c #941818",
")&	c #382D2D",
"!&	c #502828",
"~&	c #642828",
"{&	c #7A2121",
"]&	c #911919",
"^&	c #692424",
"/&	c #2D2929",
"(&	c #632626",
"_&	c #712424",
":&	c #582A2A",
"<&	c #3C3131",
"[&	c #702121",
"}&	c #722222",
"|&	c #682727",
"                                                                                                    ",
"                                                                                                    ",
"                                                                                                    ",
"                                                .                                                   ",
"                                  + @           #     $                                             ",
"                                % &             *   = -                   ; >                       ",
"                          , '   ) !       ~ { ] ^ / ( _                                             ",
"                          : <             [ } | 1 2 3 4                         5                   ",
"                  6 7 8 9 0 a b       c d e f g h i j k     l m     n o   :     p                   ",
"                q r s t u v ^ w x y z A B C D E F G H I : J K       L M N O P                       ",
"                  Q s R S T U V W X Y Z `  ...+.@.@.#.$.%.&.*.    =.-.;.>.,.'.                      ",
"                    ).!.~.{.].^./.(._.:.<.[.}.|.1.2.3.4.5.6.[.7.8.9.W 0.0.t a.                      ",
"                      b.c.d.}.e.f.g.h.i.j.g.k.l.m.n.o.p.q.r.s.X t.u.v.w.x.y.                        ",
"                z.    A.B.C.D.E.F.G.H.I.J.K.Y L.M.N.O.P.Q.R.G.S.T.U.V.W.X.Y.                        ",
"                Z.`. +.+++@+S.#+$+%+l.&+I.*+=+-+;+>+,+'+)+!+~+{+]+^+/+*+(+_+>.:+<+                  ",
"                  [+}+|+|+1++.2+3+3.4+5+6+7+8+9+0+a+b+c+d+e+f+g+5+h+i+j+k+l+m+n+o+p+-.              ",
"            q+r+s+t+u+v+w+x+y+z+A+B+C+D+&+@.E+{+F+G+H+I+J+K+L+M+N+O+2.4+P+Q+9.R+  S+                ",
"          T+s 1 U+V+W+e.X+Y+Z+`+ @.@+@|.@@2.D+#@6+$@%@&@*@=@-@y+;@>@,@'@U.)@V+!@                    ",
"    @ ~@{@]@<+^@{./@(@_@:@k.<@[@+..@8+}@|@*@D+$@1@F+p.2@9+L.3@5+*@4@!+5@6@@+7@                      ",
"    8@9@0@a@O b@c@d@e@@+f@g@Q.5@h@i@+.e+3@j@B+5+k@p.e+A+$@-@l@m@n@o@p@D.q@r@                        ",
"    s@t@u@v@S w@x@_@y@z@A@B@C@h@g+D@A+E@F@D+L+!+~+G@H@*@I@J@K@L@*@D+M@V.N@v 2                       ",
"      O@* P@Q@R@S@T@q.U@Q.I@E@6@]+V@,@W@9+p.X@>@Y@E@Z@`@ #.#+#|@p@C+@###$#%#&#                      ",
"      *#=#-#;#z.b@>#,#+.'#C+)#/+!#{+N+~#N+{#I+]#^#j@C+i+/#(#_#(#:#2@6@4.<#[#                        ",
"                }#|#1#2#Y S.7+Y E+D@L+@@3#4#5#6#7#8#Q.e+|.]+f+A@4+2#H.F 9#                          ",
"                    0#a#S.E.b#c#9+y+|@d#e#f#g#h#i#4#j#k#,@}@/+i+)#z@7+e.l#                          ",
"      !.m#          n#o#2+p#D@2.~#{+2.q#r#5#s#t#t#u#v#L@=@X@&@Y@M++.w#x#.@#.y#z#                    ",
"      @             A#B#C#L+&+&+6@ #O+D#E#F#G#H#I#J#K#L#I@H@3@@@}@M@R.T.2@M#N#G O#P#        x 2 Q#R#",
"                S#!.T#U#V#4+[@:#F@`@N+W#6#X#Y#X#g#4#K#Z#`#,@H@Q.W@'@!# $2#e.M#.$:.+$        @$#$    ",
"              $$Q@%$&$j+:# @[@2@h@[@*$=$f#-$-$f#;$>@O+|@>${+g+A@p#,$'$@@)$D Y+!$w@~${$]$            ",
"          ^$  /${.($K.I._$~+'#2+/#p.L+:$<$[$I@K+}$z+V@E@G@^+!+|$m.1$2$O+#@3$4$5$6$7$  @             ",
"            8$9$0$a$f.3$b$b$c$d$]+z+e+O+e$f$K+-@g$L@f+g+p#g+5+O+h$i$j$D.k$l$m$n$                    ",
"          o$p$V+/@q$r$s$t$u$z@~+g+6+v$w$x$y$z$I@2.A+A$N+Z@A@W@B$C$_$C$D$E$F$  G$H$                  ",
"        I$J$S K$L$4 M$L$N$O$P$Q$/+'@X@W#`+5+X@H@H@R$p.A+M+~+B$S$B++.T$U$      V$W$            X$<+  ",
"      Y$Z$6$`$ %.%  +%@%#%$%%%&%*%3+;@=%-%;%1.&+>@,@^+B+C+:#@.h+j@D.>%~.!.              ,%    '%    ",
"                  )%`$!%  ~%r {%C$i+]%^%/%x$L@A+e+D+f@=+(%_%##'@L+G.:%<%                [%          ",
"                  z.      }%|%1%/+=@2%|@O+F+W@i+`@%+$+3%b$_%_%Y =+t$4%5%                            ",
"                            6%7%5.N+E@I.i@^+j+J.F *+S$D.i+]+8%F.9%y.0%a%                            ",
"                            / b@)@h+f@K.#+=+S$b%c%E F M#~#-+B$r.d%e%,.!.f%                          ",
"                          g%5$T#h%4.P+i%j%k%k+l%m%n%o%p%*% #3+r.q%r%s%t%u%                          ",
"                        $ v%| u w%>#k%x%y%z%A%      B%C%6.k%3$k%D%E%F%G%      H%                    ",
"                      I%R+J%s 2 K%L%M%Q@U r           N%O%P%s.Q%R%S%          T%U%                  ",
"                    V%W%X%Y%@ X%9$}+<+- Z%        `%     &.&+&@&#&W%        $&%&5%                  ",
"                      %&_ &&*&;.e%s@=&L           -&        ;&` _+M$>&        ,&'&                  ",
"                            Q#)&  !&~&                            6%{&                              ",
"                          V%]&                          ^&      /&                                  ",
"                                      (&                        _&:&                                ",
"                                                                K                                   ",
"                              5%<&          [&                  }&|&                                ",
"                                            $                                                       ",
"                                                                                                    "};
