/* XPM */
static char * exp17_xpm[] = {
"50 50 625 2",
"  	c None",
". 	c #652626",
"+ 	c #7E2020",
"@ 	c #6C2525",
"# 	c #3F3030",
"$ 	c #302727",
"% 	c #4C2D2D",
"& 	c #642727",
"* 	c #302D2D",
"= 	c #412E2E",
"- 	c #452A2A",
"; 	c #582828",
"> 	c #512929",
", 	c #712424",
"' 	c #312E2E",
") 	c #5A2929",
"! 	c #372B2B",
"~ 	c #5A2A2A",
"{ 	c #3C2F2F",
"] 	c #6A2323",
"^ 	c #4E2A2A",
"/ 	c #292B2B",
"( 	c #522B2B",
"_ 	c #792222",
": 	c #722323",
"< 	c #782222",
"[ 	c #9E1818",
"} 	c #812020",
"| 	c #702222",
"1 	c #3F2F2F",
"2 	c #732323",
"3 	c #602828",
"4 	c #7B2222",
"5 	c #232C2C",
"6 	c #881E1E",
"7 	c #AC1515",
"8 	c #CC0D0D",
"9 	c #D50A0A",
"0 	c #BA1111",
"a 	c #522A2A",
"b 	c #452F2F",
"c 	c #382929",
"d 	c #382C2C",
"e 	c #2A2F2F",
"f 	c #612525",
"g 	c #522C2C",
"h 	c #9B1919",
"i 	c #462E2E",
"j 	c #861E1E",
"k 	c #9C1919",
"l 	c #622727",
"m 	c #422929",
"n 	c #3A2D2D",
"o 	c #7C2221",
"p 	c #C40C10",
"q 	c #383130",
"r 	c #362C2C",
"s 	c #44292B",
"t 	c #FF1800",
"u 	c #F80B02",
"v 	c #FE0D00",
"w 	c #FD0700",
"x 	c #EB0405",
"y 	c #C01010",
"z 	c #402B2B",
"A 	c #5D2626",
"B 	c #822020",
"C 	c #6E2222",
"D 	c #532929",
"E 	c #413030",
"F 	c #802020",
"G 	c #9D1818",
"H 	c #971A1A",
"I 	c #A41717",
"J 	c #AD1414",
"K 	c #C90D0D",
"L 	c #FA1101",
"M 	c #FF5D00",
"N 	c #E50206",
"O 	c #632727",
"P 	c #EF0B04",
"Q 	c #FF5B00",
"R 	c #FF6A00",
"S 	c #FF5300",
"T 	c #FF2000",
"U 	c #F60402",
"V 	c #E00608",
"W 	c #D30B0B",
"X 	c #921C1C",
"Y 	c #572727",
"Z 	c #3D2929",
"` 	c #392D2D",
" .	c #7F2020",
"..	c #532828",
"+.	c #312F2F",
"@.	c #6A2525",
"#.	c #A61616",
"$.	c #C70E0E",
"%.	c #C20F0F",
"&.	c #C80E0E",
"*.	c #C40F0F",
"=.	c #DD0708",
"-.	c #C5080E",
";.	c #B41313",
">.	c #9D1919",
",.	c #CE0C0C",
"'.	c #F40003",
").	c #FF8000",
"!.	c #FFAE00",
"~.	c #FFA600",
"{.	c #FF6C00",
"].	c #FF3700",
"^.	c #FF2D00",
"/.	c #FE0600",
"(.	c #D90909",
"_.	c #C50E0E",
":.	c #A81616",
"<.	c #AE1414",
"[.	c #5B2929",
"}.	c #4B2828",
"|.	c #722020",
"1.	c #EA0405",
"2.	c #F40203",
"3.	c #F50603",
"4.	c #F40103",
"5.	c #E60506",
"6.	c #F90702",
"7.	c #F01504",
"8.	c #EB0205",
"9.	c #FC0101",
"0.	c #FF7900",
"a.	c #FFFC07",
"b.	c #FFED02",
"c.	c #FFCA00",
"d.	c #FFB400",
"e.	c #FF5E00",
"f.	c #FF1700",
"g.	c #F90501",
"h.	c #E70706",
"i.	c #E20407",
"j.	c #E10408",
"k.	c #E00708",
"l.	c #D00C0C",
"m.	c #BC1111",
"n.	c #841C1C",
"o.	c #4D2D2D",
"p.	c #2E3232",
"q.	c #B91112",
"r.	c #FF1200",
"s.	c #FF3500",
"t.	c #FF2700",
"u.	c #FF1600",
"v.	c #FF5900",
"w.	c #FF6F00",
"x.	c #FF2400",
"y.	c #FF1900",
"z.	c #FF5500",
"A.	c #FFB500",
"B.	c #FFFF23",
"C.	c #FFFF31",
"D.	c #FFFF0B",
"E.	c #FFE700",
"F.	c #FFA000",
"G.	c #FF5A00",
"H.	c #FF2800",
"I.	c #FF3600",
"J.	c #FF4A00",
"K.	c #FF5400",
"L.	c #FF2300",
"M.	c #ED0504",
"N.	c #4E2D2D",
"O.	c #282626",
"P.	c #8C1E1E",
"Q.	c #9F1818",
"R.	c #8A1D1D",
"S.	c #FF1D00",
"T.	c #FF2900",
"U.	c #FF2100",
"V.	c #FF2A00",
"W.	c #FF4200",
"X.	c #FF7000",
"Y.	c #FFA300",
"Z.	c #FF6500",
"`.	c #FF3C00",
" +	c #FF5C00",
".+	c #FFA700",
"++	c #FFFF2D",
"@+	c #FFFF5F",
"#+	c #FFFF43",
"$+	c #FFFF11",
"%+	c #FFDD00",
"&+	c #FFAB00",
"*+	c #FF8600",
"=+	c #FF7D00",
"-+	c #FF8F00",
";+	c #FF9700",
">+	c #FF7100",
",+	c #FF2E00",
"'+	c #EA0305",
")+	c #B51313",
"!+	c #632424",
"~+	c #4A2B2B",
"{+	c #343232",
"]+	c #7A2121",
"^+	c #FF7300",
"/+	c #FF6B00",
"(+	c #FF7500",
"_+	c #FF6800",
":+	c #FFAF00",
"<+	c #FF8C00",
"[+	c #FF4E00",
"}+	c #FF4C00",
"|+	c #FFF008",
"1+	c #FFFF61",
"2+	c #FFFF50",
"3+	c #FFFF2A",
"4+	c #FFF903",
"5+	c #FFAC00",
"6+	c #FF9900",
"7+	c #FF7600",
"8+	c #FFA100",
"9+	c #FF8500",
"0+	c #FF7700",
"a+	c #FF4500",
"b+	c #C60E0E",
"c+	c #5E2828",
"d+	c #412F2F",
"e+	c #841F1F",
"f+	c #6D2525",
"g+	c #5A2424",
"h+	c #292E2E",
"i+	c #652727",
"j+	c #CB0D0D",
"k+	c #CC100D",
"l+	c #CD0D0C",
"m+	c #FC1101",
"n+	c #FFD600",
"o+	c #FF7800",
"p+	c #FF9300",
"q+	c #FF8800",
"r+	c #FFBB00",
"s+	c #FFF30E",
"t+	c #FFFF34",
"u+	c #FFFF10",
"v+	c #FFED00",
"w+	c #FFBD00",
"x+	c #FFA200",
"y+	c #FFBA00",
"z+	c #E80506",
"A+	c #BF1010",
"B+	c #5C2525",
"C+	c #682626",
"D+	c #502C2C",
"E+	c #592A2A",
"F+	c #E21507",
"G+	c #FC2101",
"H+	c #FF1100",
"I+	c #F81002",
"J+	c #FFE900",
"K+	c #FF7A00",
"L+	c #FF3B00",
"M+	c #FF5000",
"N+	c #FF8700",
"O+	c #FFB800",
"P+	c #FFA500",
"Q+	c #FF9C00",
"R+	c #FFC800",
"S+	c #FFA400",
"T+	c #FFBF00",
"U+	c #FFB000",
"V+	c #FF8E00",
"W+	c #FFAA00",
"X+	c #FFC900",
"Y+	c #FFB300",
"Z+	c #F20A03",
"`+	c #4B2525",
" @	c #502A2A",
".@	c #3B2C2C",
"+@	c #252929",
"@@	c #2A2E2E",
"#@	c #452D2D",
"$@	c #AA1515",
"%@	c #B91111",
"&@	c #DF0508",
"*@	c #FF2200",
"=@	c #FF0800",
"-@	c #FF5600",
";@	c #FF4700",
">@	c #FF6200",
",@	c #FF9800",
"'@	c #FFCF00",
")@	c #FFA900",
"!@	c #FF9500",
"~@	c #FFC300",
"{@	c #FFC600",
"]@	c #931B1B",
"^@	c #422F2F",
"/@	c #2A3030",
"(@	c #821F1F",
"_@	c #AF1414",
":@	c #E00808",
"<@	c #DE0808",
"[@	c #ED0405",
"}@	c #FF8100",
"|@	c #FFD000",
"1@	c #FFDA00",
"2@	c #FFC000",
"3@	c #FD1001",
"4@	c #AC1215",
"5@	c #212727",
"6@	c #532C2C",
"7@	c #901C1C",
"8@	c #A31717",
"9@	c #E50707",
"0@	c #F00A04",
"a@	c #FF8A00",
"b@	c #FFCE00",
"c@	c #FFE600",
"d@	c #FF9100",
"e@	c #FF8B00",
"f@	c #FF8400",
"g@	c #FFDB00",
"h@	c #FFF000",
"i@	c #FFBE00",
"j@	c #FFB700",
"k@	c #FF9200",
"l@	c #FF4000",
"m@	c #EE0004",
"n@	c #AB1515",
"o@	c #772222",
"p@	c #4B2D2D",
"q@	c #2F2E2E",
"r@	c #3E3030",
"s@	c #911B1B",
"t@	c #D50B0B",
"u@	c #F50F02",
"v@	c #FF7C00",
"w@	c #FF8900",
"x@	c #FFCB00",
"y@	c #FFD800",
"z@	c #FF6E00",
"A@	c #FFDF00",
"B@	c #FFEE00",
"C@	c #F51A02",
"D@	c #B81212",
"E@	c #3C2929",
"F@	c #352C2C",
"G@	c #DB0609",
"H@	c #FF6D00",
"I@	c #FFA800",
"J@	c #FFB900",
"K@	c #FFF904",
"L@	c #FFFF15",
"M@	c #FFFF14",
"N@	c #FFF702",
"O@	c #FFD100",
"P@	c #FF7200",
"Q@	c #FF3A00",
"R@	c #E80B06",
"S@	c #702121",
"T@	c #582727",
"U@	c #772221",
"V@	c #E70306",
"W@	c #FF4900",
"X@	c #FF9B00",
"Y@	c #FFFB03",
"Z@	c #FFFF35",
"`@	c #FFFF42",
" #	c #FFFF04",
".#	c #FFDE00",
"+#	c #FF9000",
"@#	c #FF9A00",
"##	c #FF6700",
"$#	c #FF4B00",
"%#	c #FF4400",
"&#	c #F70502",
"*#	c #B31213",
"=#	c #FF3200",
"-#	c #FF3F00",
";#	c #FF4D00",
">#	c #FF7F00",
",#	c #FFCC00",
"'#	c #FFF902",
")#	c #FFFF28",
"!#	c #FFFF22",
"~#	c #FFFF58",
"{#	c #FFFF6F",
"]#	c #FFFF2F",
"^#	c #FFE500",
"/#	c #FF5700",
"(#	c #FC0601",
"_#	c #A71716",
":#	c #8D1D1D",
"<#	c #E70406",
"[#	c #FF4800",
"}#	c #FF9600",
"|#	c #FF8D00",
"1#	c #FFF60F",
"2#	c #FFFF40",
"3#	c #FFFF49",
"4#	c #FFFF69",
"5#	c #FFFF81",
"6#	c #FFFF7F",
"7#	c #FFFF5C",
"8#	c #FFFF20",
"9#	c #FFBC00",
"0#	c #FF5F00",
"a#	c #FF3900",
"b#	c #FF3800",
"c#	c #FA2001",
"d#	c #EF5004",
"e#	c #482F2F",
"f#	c #542222",
"g#	c #CE090C",
"h#	c #FF5200",
"i#	c #FFC400",
"j#	c #FFFF4D",
"k#	c #FFFF37",
"l#	c #FFFF75",
"m#	c #FFFF64",
"n#	c #FFFF26",
"o#	c #FFD700",
"p#	c #FFC200",
"q#	c #FFB100",
"r#	c #FF1E00",
"s#	c #FE0E00",
"t#	c #BE1110",
"u#	c #4F2525",
"v#	c #6B2525",
"w#	c #382E2E",
"x#	c #702424",
"y#	c #A01818",
"z#	c #F30103",
"A#	c #FFB600",
"B#	c #FFFF54",
"C#	c #FFFF53",
"D#	c #FFFF5A",
"E#	c #FFFF36",
"F#	c #FFFF1B",
"G#	c #FFFF08",
"H#	c #FFC100",
"I#	c #FF6900",
"J#	c #FC0801",
"K#	c #DD0808",
"L#	c #602727",
"M#	c #492929",
"N#	c #692626",
"O#	c #462C2C",
"P#	c #B31313",
"Q#	c #FC0001",
"R#	c #FFEC03",
"S#	c #FFFF2B",
"T#	c #FFFF21",
"U#	c #FFFF24",
"V#	c #FFC700",
"W#	c #FF8300",
"X#	c #FF9400",
"Y#	c #FF6300",
"Z#	c #FF0C00",
"`#	c #F60602",
" $	c #B01414",
".$	c #4A2727",
"+$	c #C30F0F",
"@$	c #D00B0C",
"#$	c #FFFC01",
"$$	c #FFC500",
"%$	c #FFF803",
"&$	c #FFB200",
"*$	c #FF9E00",
"=$	c #FFFF0A",
"-$	c #EC0205",
";$	c #732424",
">$	c #372D2D",
",$	c #2E3333",
"'$	c #442626",
")$	c #DD0908",
"!$	c #F60102",
"~$	c #FFAD00",
"{$	c #FFD900",
"]$	c #FFFB22",
"^$	c #FFE204",
"/$	c #F95801",
"($	c #F11504",
"_$	c #8E1C1B",
":$	c #B11414",
"<$	c #B21313",
"[$	c #CD0C0C",
"}$	c #DA0909",
"|$	c #F40303",
"1$	c #FF6400",
"2$	c #FFE300",
"3$	c #FFD500",
"4$	c #D5050B",
"5$	c #6C2323",
"6$	c #582525",
"7$	c #4D2A2A",
"8$	c #B71212",
"9$	c #931C1C",
"0$	c #961A1A",
"a$	c #C20E0F",
"b$	c #ED0E05",
"c$	c #FF3300",
"d$	c #FFCD00",
"e$	c #F90E02",
"f$	c #722424",
"g$	c #202A2A",
"h$	c #722121",
"i$	c #622828",
"j$	c #312727",
"k$	c #432929",
"l$	c #552424",
"m$	c #422C2C",
"n$	c #393232",
"o$	c #202929",
"p$	c #2E2929",
"q$	c #4A2E2E",
"r$	c #272C2C",
"s$	c #AA1616",
"t$	c #F70202",
"u$	c #FF4600",
"v$	c #FFFF09",
"w$	c #FFE100",
"x$	c #DD0609",
"y$	c #BB1111",
"z$	c #642424",
"A$	c #402929",
"B$	c #B51212",
"C$	c #F90002",
"D$	c #FF4100",
"E$	c #FFFB04",
"F$	c #FFFD00",
"G$	c #FF6000",
"H$	c #FF6600",
"I$	c #B61212",
"J$	c #7B2121",
"K$	c #831F1F",
"L$	c #5C2727",
"M$	c #F30003",
"N$	c #FB0801",
"O$	c #B11413",
"P$	c #6F2424",
"Q$	c #C00F10",
"R$	c #FF0F00",
"S$	c #FF4F00",
"T$	c #FF4300",
"U$	c #FF0200",
"V$	c #E30607",
"W$	c #572929",
"X$	c #5D2323",
"Y$	c #F71202",
"Z$	c #FF2500",
"`$	c #FF3000",
" %	c #FF5100",
".%	c #F50602",
"+%	c #CD0B0C",
"@%	c #FD2B00",
"#%	c #FF2F00",
"$%	c #FF9D00",
"%%	c #FF7400",
"&%	c #FC0C01",
"*%	c #7D2121",
"=%	c #F00B04",
"-%	c #F60002",
";%	c #FF0E00",
">%	c #EB0305",
",%	c #A91616",
"'%	c #752223",
")%	c #B51213",
"!%	c #EC0705",
"~%	c #FF6100",
"{%	c #D60A0A",
"]%	c #532B2B",
"^%	c #8E1C1C",
"/%	c #3A3131",
"(%	c #C80D0E",
"_%	c #F41603",
":%	c #F50903",
"<%	c #D8090A",
"[%	c #7C2121",
"}%	c #FF1500",
"|%	c #FF3100",
"1%	c #F20103",
"2%	c #612121",
"3%	c #212D2D",
"4%	c #871E1E",
"5%	c #AE1214",
"6%	c #B81112",
"7%	c #B91212",
"8%	c #A71616",
"9%	c #E40607",
"0%	c #ED0204",
"a%	c #F90102",
"b%	c #DF0808",
"c%	c #662424",
"d%	c #672525",
"e%	c #4D2626",
"f%	c #562A2A",
"g%	c #5D2929",
"h%	c #672626",
"i%	c #512B2B",
"j%	c #4C2525",
"k%	c #472929",
"l%	c #562828",
"m%	c #4B2A2A",
"n%	c #2F2C2C",
"o%	c #3F2D2D",
"p%	c #662727",
"q%	c #662626",
"r%	c #363333",
"s%	c #6B2626",
"t%	c #2E2A2A",
"u%	c #592828",
"v%	c #981A1A",
"w%	c #552A2A",
"x%	c #622626",
"y%	c #4E2C2C",
"z%	c #282A2A",
"A%	c #452C2C",
"B%	c #582A2A",
"C%	c #5A2525",
"D%	c #6B2323",
"E%	c #2D3535",
"F%	c #2D2929",
"G%	c #612727",
"H%	c #2C3535",
"                                                                                                    ",
"                                                                                                    ",
"                                                                                                    ",
"                                              . +                                                   ",
"                                  @ #           $     %                                             ",
"                                & *             =   - ;                     >                       ",
"                          ,     '           ) ! ~ { ] ^                                             ",
"                          /                 ( _ : < [ }                                             ",
"                  | 1 2 3 4 5           >   6 7 8 9 0 _     a b     c d         e f                 ",
"                g h i j k 7 l m n o p q r s t u v w x y z A a             B C                       ",
"                  D E F G H I J K L M N O O P Q R S T U V W X     Y Z ` i  ...                      ",
"                    +.@.#.$.%.&.*.=.-.;.>.,.'.).!.~.{.].^./.(.+ g _.:.<.h [.}.                      ",
"                      |.&.1.2.3.4.5.6.7.8.9.t 0.a.b.c.d.e.f.g.h.i.j.k.l.m.n.                        ",
"                o.    p.q.r.s.t.r.u.v.w.x.y.z.A.B.C.D.E.F.G.H.I.J.K.L.M.0 A                         ",
"                N.O.P.Q.R.S.T.U.V.W.X.Y.Z.`. +.+++@+#+$+%+&+*+=+-+;+>+,+'+)+> !+~+                  ",
"                  {+]+[ G f.^+/+(+_+R :+<+[+}+).|+1+2+3+4+5+6+7+8+9+0+a+6.b+;.c+  d+e+              ",
"            f+g+h+i+j+k+l+m+:+n+d.o+0+p+6+{.^+q+r+s+t+u+v+w+x+^+&+y+x+{.t.z+A+B+                    ",
"          A C+D+E+6 F+G+H+I+w.J+K+L+M+N+O+P+;+q+Q+A.R+S+5+T+U+V+W+X+Y+9+a+Z+$.`+                    ",
"     @.@+@@@#@$@%@m.&@,+*@=@J.0+-@;@>@,@'@)@!@!.~@{@Y.7+=+.+~@O+U+O+8+K.M+U.]@                      ",
"    ^@/@c+(@6 _@:@<@[@G+ +:+!@w.0.>+>@F.d.W+}@U+O+F..+5+:+5+|@1@n+2@8+,+3@4@                        ",
"  & E+5@6@7@8@]@9@0@s.Q a@b@c@d@e@,@~.P+f@p+~.P+9+6+Y+r+~@g@h@i@j@k@(+l@m@n@o@p@                    ",
"      q@r@f+s@s@t@u@{.v@*+j@!@(+w@.+j@*+q+U+x@y@!.P+-+z@0.A@B@2@,@0+}@R C@D@@.                      ",
"      ) E@d F@f+k G@T.H@;@{.R Q Z.w@I@^+J@K@L@M@N@5+(+w.{.i@O@~@P@Z.^+Q@R@S@                        ",
"                T@U@V@Q G.s.W.W@P@;+X@O+Y@Z@`@#+ #.#6+)@9+a@+#@###$#%#&#I                           ",
"                    *#=#I.-#;#z@>#,@,#'#)#!#~#{#@+]#^#.#r+X@R X.o+/#Q@(#_#                          ",
"      i+            :#<#[#9+V+}#|#N+.+1#2#3#4#5#6#7#8#{@9#x@2@x+d@0#-#a#b#S.c#d#                    ",
"      e#            f#g#h#6+X@6+>+N+i#M@j#7#k#@+l#m#n#o#w+)@p#q#,@0+;#J.G.r#s#M.t#u#        F@v#F   ",
"                w#x#y#z#;@Z.H@K+v@0+A#$+2#B#2+C#D#E#F#G#J+H#:+k@-+k@I#7+S /.J#K#7 L#          M#N#  ",
"              O#y#P#Q#Q@z@>+Z.M v@^+q+R#)#S#)#T#U#y@{@X+V#<+W#X#F.1@o#A.Y#Z#`#W  $.$  ~+            ",
"        A     A +$@$f.h#0.z@$#}+H@X#@#n+#$i#$$,#%$2@&$~.*$).Q+1@=${#E#c@)@Y#-$;$>$    ,$            ",
"            '$6 A+)$!$s./#-@[+R p+&$*$p#A@I@~$5+A@c.x+a@6+9+)@2@{$]$^$/$L+($_$                      ",
"          Z >.:$<$[$}$|$v r#1$}#<+*$c.c@2$3$x@~@.+q#&+W++#}#k@).[#K+0#4$5$6$                        ",
"        7$7@$@8$e+< 9$0$<.a$b$c$R -+|@ #d$x+R+x+I@F.x+P+w@k@7+ +H@>@e$}         f$            g$h$  ",
"      i$j$k$l$m$n$  o$p$q$r$s$t$u$H@U+v$w$T+T+8+9#&+*+o+K+).v.I#N+a#x$y$&                           ",
"                  z$A$    E@B$C$D$H@~@E$F$h@x@S+W+e@G$G._+;#H$e@@#L.I$J$                = K$        ",
"                  @       L$D@M$0.y@J+%+b@T+,@}@>+z.T s.h#J.z.K.K.N$O$P$                            ",
"                            S@Q$-#c.)@^+o+N+h#x.R$S$T$`./#}@}+U.U$V$7@W$                            ",
"                            X$y$Y$-+H$Z$`$S$ %.%+%Z$@%#%-+$%%%&%<@_@k i$                            ",
"                          3 *%:.=%Q@Z$-%9.;%>%,%:$'%)%!%e.z@~%u.{%]%} ^%/%                          ",
"                        [.O K$y#(%_%#%:%:@<%[%        ^%}%y.|%x.1%2%Z                               ",
"                      3%C+0$ .*%4%[ 5%6%7%8%          8@<.9%0%a%b%c%          d%e%                  ",
"                      6 3 f%3 g%h%h%o.i%j%              k%5$0 8 b+s@          l%m%                  ",
"                      :#  n%3 o%p%q%r%          s%3         t%u%v%7 w%          x%                  ",
"                            y%z%  A%B%                            C%D%                              ",
"                          E% @                          l%                                          ",
"                                      >                         m$                                  ",
"                                                                F%                                  ",
"                              &             l%                  G%&                                 ",
"                                            H%                  ]+                                  ",
"                                                                                                    "};
