/* XPM */
static char * exp15_xpm[] = {
"50 50 711 2",
"  	c None",
". 	c #6A2525",
"+ 	c #AA1515",
"@ 	c #B31414",
"# 	c #722020",
"$ 	c #9F1818",
"% 	c #951A1A",
"& 	c #741C1C",
"* 	c #971A1A",
"= 	c #3E2929",
"- 	c #3E2A2A",
"; 	c #6F2424",
"> 	c #412B2B",
", 	c #552727",
"' 	c #A31717",
") 	c #991A1A",
"! 	c #941818",
"~ 	c #742323",
"{ 	c #A91616",
"] 	c #432E2E",
"^ 	c #6B2121",
"/ 	c #672424",
"( 	c #C40F0F",
"_ 	c #9B1919",
": 	c #732323",
"< 	c #772020",
"[ 	c #562828",
"} 	c #662424",
"| 	c #252E2E",
"1 	c #6F2020",
"2 	c #BD1010",
"3 	c #B51313",
"4 	c #B41313",
"5 	c #C90E0E",
"6 	c #CA0D0D",
"7 	c #CC0D0D",
"8 	c #961A1A",
"9 	c #901C1C",
"0 	c #5C2929",
"a 	c #672626",
"b 	c #D50A0A",
"c 	c #951B1B",
"d 	c #802020",
"e 	c #6C2525",
"f 	c #422E2E",
"g 	c #3B2A2A",
"h 	c #582626",
"i 	c #322C2C",
"j 	c #8E1B1C",
"k 	c #F90402",
"l 	c #FF0D00",
"m 	c #FF0200",
"n 	c #F00404",
"o 	c #A01818",
"p 	c #931B1B",
"q 	c #931C1C",
"r 	c #422B2B",
"s 	c #8A1B1B",
"t 	c #AD1515",
"u 	c #802121",
"v 	c #E30707",
"w 	c #C70E0E",
"x 	c #CF0C0C",
"y 	c #D90909",
"z 	c #DE0808",
"A 	c #BB1111",
"B 	c #C30F0F",
"C 	c #A81516",
"D 	c #682626",
"E 	c #AD1215",
"F 	c #5C2727",
"G 	c #502A2C",
"H 	c #FF2B00",
"I 	c #FF4A00",
"J 	c #FF3E00",
"K 	c #FF3F00",
"L 	c #FF2300",
"M 	c #EA0505",
"N 	c #4F2A2A",
"O 	c #5E2626",
"P 	c #5E2929",
"Q 	c #512C2C",
"R 	c #672727",
"S 	c #412A2A",
"T 	c #6C1D1D",
"U 	c #B01414",
"V 	c #AF1414",
"W 	c #DF0808",
"X 	c #FF0600",
"Y 	c #E00708",
"Z 	c #E40607",
"` 	c #FE0300",
" .	c #FF3000",
"..	c #FA2501",
"+.	c #FF6800",
"@.	c #CE0C0C",
"#.	c #532B2B",
"$.	c #B70F12",
"%.	c #FF5C00",
"&.	c #FF9B00",
"*.	c #FF9900",
"=.	c #FF8900",
"-.	c #FF5A00",
";.	c #FF1900",
">.	c #FF1000",
",.	c #F90A01",
"'.	c #D30B0B",
").	c #3C2E2E",
"!.	c #692525",
"~.	c #8F1C1C",
"{.	c #831F1F",
"].	c #E60606",
"^.	c #7B1F1F",
"/.	c #F60C02",
"(.	c #FC0701",
"_.	c #F50602",
":.	c #FF2100",
"<.	c #FF1700",
"[.	c #F83102",
"}.	c #EE0104",
"|.	c #C40D0F",
"1.	c #EF0504",
"2.	c #FF3500",
"3.	c #FFBC00",
"4.	c #FFF000",
"5.	c #FFD200",
"6.	c #FF9F00",
"7.	c #FF5E00",
"8.	c #FF3B00",
"9.	c #F90902",
"0.	c #96191A",
"a.	c #971818",
"b.	c #E00C08",
"c.	c #E00608",
"d.	c #D50A0B",
"e.	c #D50C0B",
"f.	c #6D2525",
"g.	c #A81616",
"h.	c #FF1200",
"i.	c #FF2200",
"j.	c #FF4700",
"k.	c #FF4300",
"l.	c #FF3A00",
"m.	c #FF2900",
"n.	c #FF3200",
"o.	c #FF4C00",
"p.	c #FFA600",
"q.	c #FFFF33",
"r.	c #FFFE1E",
"s.	c #FFF205",
"t.	c #FFC900",
"u.	c #FF9000",
"v.	c #FF5800",
"w.	c #FE1F00",
"x.	c #F92001",
"y.	c #FF1F00",
"z.	c #FB1D01",
"A.	c #FB1601",
"B.	c #E50406",
"C.	c #B51414",
"D.	c #602828",
"E.	c #BC0F11",
"F.	c #FF7400",
"G.	c #FF7F00",
"H.	c #FF5F00",
"I.	c #FF6200",
"J.	c #FF8400",
"K.	c #FF9400",
"L.	c #FF6000",
"M.	c #FF5600",
"N.	c #FF7800",
"O.	c #FFDB00",
"P.	c #FFFF56",
"Q.	c #FFFF63",
"R.	c #FFFF3D",
"S.	c #FFFE0F",
"T.	c #FFCA00",
"U.	c #FF8800",
"V.	c #FF6A00",
"W.	c #FF8000",
"X.	c #FF5500",
"Y.	c #FF2E00",
"Z.	c #F80402",
"`.	c #692222",
" +	c #AF1515",
".+	c #283232",
"++	c #971B1B",
"@+	c #BC1111",
"#+	c #FF2D00",
"$+	c #FF7200",
"%+	c #FFB000",
"&+	c #FFD700",
"*+	c #FF8300",
"=+	c #FF6100",
"-+	c #FF8F00",
";+	c #FFF200",
">+	c #FFFF87",
",+	c #FFFFA7",
"'+	c #FFFF71",
")+	c #FFFF48",
"!+	c #FFFC0F",
"~+	c #FFC000",
"{+	c #FFDD00",
"]+	c #FFB800",
"^+	c #FF8C00",
"/+	c #FF5300",
"(+	c #C20E10",
"_+	c #6C2121",
":+	c #9A1A1A",
"<+	c #9D1919",
"[+	c #C10F0F",
"}+	c #D10C0C",
"|+	c #F61B02",
"1+	c #FF8B00",
"2+	c #FFA100",
"3+	c #FF9A00",
"4+	c #FFE000",
"5+	c #FFD800",
"6+	c #FF8700",
"7+	c #FF8100",
"8+	c #FFBA00",
"9+	c #FFFF39",
"0+	c #FFFFAF",
"a+	c #FFFF91",
"b+	c #FFFF69",
"c+	c #FFFF40",
"d+	c #FFF80B",
"e+	c #FFD600",
"f+	c #FFC400",
"g+	c #FFFA02",
"h+	c #FFB300",
"i+	c #FFA200",
"j+	c #FF3300",
"k+	c #EE0E04",
"l+	c #D40B0B",
"m+	c #7B2121",
"n+	c #652727",
"o+	c #632323",
"p+	c #881E1E",
"q+	c #4F2D2D",
"r+	c #C10F10",
"s+	c #E71A06",
"t+	c #EE1304",
"u+	c #FC1101",
"v+	c #FA3401",
"w+	c #FFE602",
"x+	c #FFE300",
"y+	c #FFB100",
"z+	c #FFDA00",
"A+	c #FF9100",
"B+	c #FFA900",
"C+	c #FFB500",
"D+	c #FFF305",
"E+	c #FFFF50",
"F+	c #FFFF97",
"G+	c #FFFF6B",
"H+	c #FFFF36",
"I+	c #FFE800",
"J+	c #FFD000",
"K+	c #FFBD00",
"L+	c #FFF001",
"M+	c #FFF503",
"N+	c #FFE100",
"O+	c #E80506",
"P+	c #821F1F",
"Q+	c #911C1C",
"R+	c #8E1D1D",
"S+	c #851F1F",
"T+	c #BF1010",
"U+	c #B71212",
"V+	c #AC1515",
"W+	c #D9060A",
"X+	c #FB4201",
"Y+	c #FF1800",
"Z+	c #FF7900",
"`+	c #FFE700",
" @	c #FFBF00",
".@	c #FFF300",
"+@	c #FFD900",
"@@	c #FFED03",
"#@	c #FFFF2B",
"$@	c #FFF30F",
"%@	c #FFF201",
"&@	c #FFF700",
"*@	c #FFDE00",
"=@	c #FFCE00",
"-@	c #FFF002",
";@	c #FFFF10",
">@	c #FFFA00",
",@	c #FFCF00",
"'@	c #FF7B00",
")@	c #FF3D00",
"!@	c #FA0201",
"~@	c #631F1F",
"{@	c #9A1616",
"]@	c #752323",
"^@	c #3D2C2C",
"/@	c #C20D0F",
"(@	c #F70D02",
"_@	c #FD1C01",
":@	c #FF3800",
"<@	c #FF6C00",
"[@	c #FF6F00",
"}@	c #FFFF03",
"|@	c #FFEF00",
"1@	c #FFCC00",
"2@	c #FFF302",
"3@	c #FFF100",
"4@	c #FFFB01",
"5@	c #FFDF00",
"6@	c #FFB600",
"7@	c #FFE500",
"8@	c #FFEC00",
"9@	c #FFFF1A",
"0@	c #FFE601",
"a@	c #FF9800",
"b@	c #FFA000",
"c@	c #FF6B00",
"d@	c #B50D13",
"e@	c #632727",
"f@	c #921B1B",
"g@	c #8D1C1C",
"h@	c #F71402",
"i@	c #FFC500",
"j@	c #FFE001",
"k@	c #FFA700",
"l@	c #FFA800",
"m@	c #FFE900",
"n@	c #FFF600",
"o@	c #FFEE00",
"p@	c #FFBB00",
"q@	c #FFE200",
"r@	c #FFE600",
"s@	c #FFEA00",
"t@	c #FFFF1D",
"u@	c #FFFF15",
"v@	c #FFFF2C",
"w@	c #FFFF1C",
"x@	c #FFD802",
"y@	c #FF6600",
"z@	c #BF1410",
"A@	c #9C1919",
"B@	c #7E2020",
"C@	c #DD0909",
"D@	c #E40707",
"E@	c #F00C04",
"F@	c #FF6700",
"G@	c #FF7600",
"H@	c #FFFD0B",
"I@	c #FFBE00",
"J@	c #FFCB00",
"K@	c #FFEB00",
"L@	c #FFFC00",
"M@	c #FFFF30",
"N@	c #FFFC09",
"O@	c #FFF800",
"P@	c #FFD500",
"Q@	c #FF5900",
"R@	c #FF2A00",
"S@	c #ED0404",
"T@	c #A11818",
"U@	c #313030",
"V@	c #7D2121",
"W@	c #D00C0C",
"X@	c #FFAC00",
"Y@	c #FFFF0C",
"Z@	c #FFF203",
"`@	c #FFFE00",
" #	c #FFF90A",
".#	c #FFFE09",
"+#	c #FFFF21",
"@#	c #FFFF2D",
"##	c #FFFB06",
"$#	c #FFC600",
"%#	c #FFC300",
"&#	c #FF9200",
"*#	c #FA0001",
"=#	c #7E1D1D",
"-#	c #7D2020",
";#	c #A61616",
">#	c #4C2A2A",
",#	c #7E2121",
"'#	c #C90D0D",
")#	c #EC1005",
"!#	c #FE2800",
"~#	c #FF6E00",
"{#	c #FF9700",
"]#	c #FFC800",
"^#	c #FFF500",
"/#	c #FFE804",
"(#	c #FFFF32",
"_#	c #FFFF4E",
":#	c #FFFF47",
"<#	c #FFFF28",
"[#	c #FFA300",
"}#	c #FFFB0A",
"|#	c #FFFF0F",
"1#	c #FFAD00",
"2#	c #FF6D00",
"3#	c #FF1500",
"4#	c #203939",
"5#	c #682323",
"6#	c #CD0B0C",
"7#	c #F82002",
"8#	c #FFAB00",
"9#	c #FFFF78",
"0#	c #FFFF6E",
"a#	c #FFFF1E",
"b#	c #FFB900",
"c#	c #FF7C00",
"d#	c #FF4500",
"e#	c #CC090D",
"f#	c #C30C0F",
"g#	c #FF4200",
"h#	c #FF8D00",
"i#	c #FF8200",
"j#	c #FFF406",
"k#	c #FFFF2E",
"l#	c #FFFF5A",
"m#	c #FFFF53",
"n#	c #FFFF9B",
"o#	c #FFFF8F",
"p#	c #FFFF13",
"q#	c #FFFA01",
"r#	c #FFD300",
"s#	c #FF7D00",
"t#	c #FF3C00",
"u#	c #C9120E",
"v#	c #2D3235",
"w#	c #991717",
"x#	c #6C2424",
"y#	c #9E1819",
"z#	c #FF1B00",
"A#	c #FF7300",
"B#	c #FFE400",
"C#	c #FFC700",
"D#	c #FFFF6F",
"E#	c #FFFF77",
"F#	c #FFFF96",
"G#	c #FFFFB4",
"H#	c #FFFFB1",
"I#	c #FFFF93",
"J#	c #FFFC07",
"K#	c #FFFF00",
"L#	c #FFF901",
"M#	c #FFF301",
"N#	c #FF7E00",
"O#	c #FA3C01",
"P#	c #EE6504",
"Q#	c #652020",
"R#	c #FF0900",
"S#	c #FF7000",
"T#	c #FFD400",
"U#	c #FFDC00",
"V#	c #FFB700",
"W#	c #FFF501",
"X#	c #FFFF3F",
"Y#	c #FFFF89",
"Z#	c #FFFF6C",
"`#	c #FFFF8C",
" $	c #FFFFA4",
".$	c #FFFF8E",
"+$	c #FFFF52",
"@$	c #FFFF17",
"#$	c #FFF903",
"$$	c #FF9D00",
"%$	c #FF4F00",
"&$	c #FF5700",
"*$	c #DB0509",
"=$	c #5F2121",
"-$	c #3B2929",
";$	c #B11414",
">$	c #8C1A1A",
",$	c #9F1717",
"'$	c #DF0608",
")$	c #FF2700",
"!$	c #FFEC02",
"~$	c #FFFF38",
"{$	c #FFFF73",
"]$	c #FFFF7F",
"^$	c #FFFF7E",
"/$	c #FFFF82",
"($	c #FFFF84",
"_$	c #FFFF66",
":$	c #FFFF1B",
"<$	c #FFCD00",
"[$	c #FFD100",
"}$	c #FF8E00",
"|$	c #FF5400",
"1$	c #FF3100",
"2$	c #F20903",
"3$	c #721F1F",
"4$	c #2D2A2A",
"5$	c #6D1F1F",
"6$	c #731B1B",
"7$	c #A01919",
"8$	c #E60807",
"9$	c #FF0B00",
"0$	c #FF2800",
"a$	c #FFC200",
"b$	c #FFB200",
"c$	c #FFFF57",
"d$	c #FFFF5E",
"e$	c #FFFF5C",
"f$	c #FFFF51",
"g$	c #FFFB12",
"h$	c #FFF502",
"i$	c #FFFF01",
"j$	c #FFF817",
"k$	c #FFF017",
"l$	c #FFE903",
"m$	c #FF9600",
"n$	c #FF4B00",
"o$	c #D20B0B",
"p$	c #722424",
"q$	c #492D2D",
"r$	c #692424",
"s$	c #512929",
"t$	c #EE0604",
"u$	c #FF8A00",
"v$	c #FFFC12",
"w$	c #FFF40C",
"x$	c #FFED05",
"y$	c #FFFF29",
"z$	c #FFEF07",
"A$	c #FFFF09",
"B$	c #FFFF8A",
"C$	c #FF4E00",
"D$	c #F00D04",
"E$	c #A01718",
"F$	c #652323",
"G$	c #4B2929",
"H$	c #FF0A00",
"I$	c #FFAF00",
"J$	c #FFF802",
"K$	c #FFF906",
"L$	c #FFFF24",
"M$	c #FFFB03",
"N$	c #FFF703",
"O$	c #FFE409",
"P$	c #FFFB28",
"Q$	c #E81506",
"R$	c #5A2929",
"S$	c #363333",
"T$	c #641E1E",
"U$	c #CB0E0E",
"V$	c #FB0401",
"W$	c #FB0501",
"X$	c #FFFF0D",
"Y$	c #FFF601",
"Z$	c #FFAE00",
"`$	c #E70406",
" %	c #961518",
".%	c #542525",
"+%	c #502C2C",
"@%	c #B81212",
"#%	c #771D1D",
"$%	c #5C2424",
"%%	c #C50F0F",
"&%	c #EC0505",
"*%	c #E50607",
"=%	c #DA0D0A",
"-%	c #D4080B",
";%	c #D1090C",
">%	c #EC1205",
",%	c #F51702",
"'%	c #FFA400",
")%	c #FFC100",
"!%	c #FFFB0B",
"~%	c #FFFF46",
"{%	c #FFFF08",
"]%	c #FFED00",
"^%	c #B71112",
"/%	c #2B3535",
"(%	c #701F1F",
"_%	c #981A1A",
":%	c #891E1E",
"<%	c #722323",
"[%	c #7E1E1E",
"}%	c #5A2626",
"|%	c #263838",
"1%	c #163131",
"2%	c #762323",
"3%	c #532929",
"4%	c #323232",
"5%	c #CA0B0D",
"6%	c #FFE701",
"7%	c #FFFF4C",
"8%	c #FFFE03",
"9%	c #FFFF0B",
"0%	c #FFF101",
"a%	c #FF0700",
"b%	c #A71616",
"c%	c #4D2525",
"d%	c #622424",
"e%	c #4B2D2D",
"f%	c #652626",
"g%	c #5E2828",
"h%	c #492525",
"i%	c #EC0405",
"j%	c #FFFD1D",
"k%	c #FFFA03",
"l%	c #FFEA02",
"m%	c #FF9C00",
"n%	c #FFAA00",
"o%	c #FF8500",
"p%	c #FF9300",
"q%	c #FF5D00",
"r%	c #EE0004",
"s%	c #672222",
"t%	c #9B1616",
"u%	c #7A2222",
"v%	c #F50002",
"w%	c #FF7A00",
"x%	c #FFF00C",
"y%	c #FFFB0D",
"z%	c #FFF801",
"A%	c #F60902",
"B%	c #8C1D1D",
"C%	c #931818",
"D%	c #F80502",
"E%	c #FFEC01",
"F%	c #FF9E00",
"G%	c #FF2000",
"H%	c #C60C0E",
"I%	c #712424",
"J%	c #DE0608",
"K%	c #FF9500",
"L%	c #EF0D04",
"M%	c #FF2C00",
"N%	c #DB0709",
"O%	c #C01010",
"P%	c #2F3434",
"Q%	c #9E1818",
"R%	c #F60602",
"S%	c #FF4100",
"T%	c #FF6900",
"U%	c #FF2500",
"V%	c #B81512",
"W%	c #AC1415",
"X%	c #7C2021",
"Y%	c #C60C0F",
"Z%	c #FF2600",
"`%	c #FF4D00",
" &	c #FC1501",
".&	c #E60707",
"+&	c #BE1010",
"@&	c #EC0C05",
"#&	c #FE2600",
"$&	c #FF2400",
"%&	c #B91112",
"&&	c #183535",
"*&	c #D2030B",
"=&	c #6A1D1F",
"-&	c #632424",
";&	c #701E1E",
">&	c #642424",
",&	c #A21717",
"'&	c #C80E0E",
")&	c #D50B0B",
"!&	c #E40907",
"~&	c #E40C07",
"{&	c #D9110A",
"]&	c #DD0709",
"^&	c #C50E0F",
"/&	c #7F1F20",
"(&	c #F31003",
"_&	c #F60102",
":&	c #FF3700",
"<&	c #CD0F0D",
"[&	c #751C1C",
"}&	c #8D1717",
"|&	c #E80606",
"1&	c #562A2A",
"2&	c #B91111",
"3&	c #891D1D",
"4&	c #7F2020",
"5&	c #532C2C",
"6&	c #772222",
"7&	c #871E1E",
"8&	c #E60A06",
"9&	c #F50403",
"0&	c #F50103",
"a&	c #572A2A",
"b&	c #BA1111",
"c&	c #921C1C",
"d&	c #792222",
"e&	c #911B1B",
"f&	c #A11717",
"g&	c #7C2121",
"h&	c #292F2F",
"i&	c #6B2525",
"j&	c #462828",
"k&	c #572727",
"l&	c #6E2525",
"m&	c #5D2222",
"n&	c #702222",
"o&	c #C11010",
"p&	c #582A2A",
"q&	c #B91212",
"r&	c #442525",
"s&	c #323333",
"t&	c #622222",
"u&	c #7A2121",
"v&	c #302E2E",
"w&	c #B61212",
"x&	c #582323",
"y&	c #622828",
"z&	c #452F2F",
"A&	c #A01717",
"B&	c #AE1414",
"                                                                                                    ",
"                                                                                                    ",
"                                                                                                    ",
"                                                .                                                   ",
"                                  + @         # $     %                                             ",
"                                & * =         - ; > , '                   ) !                       ",
"                          ~     { ]         ^ / ( _ : <                     [                       ",
"                      .   ) }   |         1 2 3 4 5 6 7     8                   9                   ",
"                  0 a b c d e f g       h i j k l m n o     p q     r s         t u                 ",
"                  v w x y z A B C D E F 8 G H I J K L M N O P       Q R S 3 T                       ",
"                  U V W X Y Z `  ...+.@.#.$.%.&.*.=.-.;.>.,.'.    ).!.~.{.].^.                      ",
"                    $ x /.(._.L :.<.[.}.|.1.2.3.4.5.6.7.+.8.9.0.a.b.c.d.e.4 f.                      ",
"                      g.h.i.L j.k.l.m.n.L 8.o.p.q.r.s.t.u.v.H w.x.y.;.z.A.B.                        ",
"                C.    D.E.8.F.G.H.I.J.K.L.M.N.O.P.Q.R.S.T.U.-.V.u.W.X.Y.Z.`.    ~                   ",
"                 +.+++v @+#+u.$+H.J.%+&+*+=+-+;+>+,+'+)+!+5.t.~+{+]+^+/+:.(+_+:+<+                  ",
"                  f.[+6 }+|+1+N.U.2+3+4+5+6+7+8+9+0+a+b+c+d+e+f+g+h+i+$+j+k+l+m+n+o+                ",
"            4 p+q+r+s+t+u+v+]+w+x+~+y+t.z+A+B+C+D+E+F+G+H+I+J+K+L+M+N+i+%.;.O+P+Q+R+                ",
"          S+T+U+V+W+X+Y+ .j.Z+`+3.N.K. @.@+@J+J+J+@@#@$@%@&@*@=@-@;@>@,@'@)@!@~@                    ",
"    {@d ]@^@m+/@(@,._@:@o. .<@6.&.[@1+5+}@|@1@2@3@4@5@i+6@7@.@7@8@9@0@a@b@c@d@                      ",
"    e@f@g@7 l+h@Y.H Y.l.-+i@j@U.k@l@3+m@n@o@p@n@.@q@r@+@&+s@t@u@v@w@x@y@L.z@                        ",
"    A@9 B@C@D@E@y.F@G@N.~+H@!+y+I@5+{+*@J@J@{+N+J@x+x+K@L@t@M@N@O@P@p.Q@R@S@T@                      ",
"      U@V@@+W@W <.%.p.X@4+Y@Z@i+f+I+`@T.h+q@ #.#N+5.1@p.p@+#@###$#%#1@&#k.*#=#                      ",
"      -#;#>#,#'#)#!#~#{#a@y+J@6.*.]#^#]+/#(#_#:#<#*@C+k@[#}#|#D+1#l@p.2#3#p+                        ",
"              4#5#6#7#$+8#$+7+1+[#5.+@e+<#G+9#0#9+a#5.I+b#t.&+5.X@1+c#d#e#                          ",
"                    f#g#h#~#i#6@I@T.j#k#l#m#>+n#o#b+a#p#q#r#[#X@b#&.s#t#u#v#                        ",
"      w#x#          y#z#A#T.O.B#J@C#m@q.D#E#F#G#H#I#l#J#K#L#M#z+1@[#N#6+K.t#O#P#                    ",
"                    Q#R#S#T#s@U#X@V#W#X#9#Y#Z#`# $.$+$@$#$U#L#o@N+8+h#k@$$%$&$/+*$=$      -$U ;$4   ",
"                >$,$'$)$6+i+K+2+V#l@!$~${$]$^$/$($_$P.9+:$4.m@<$[$J+8#[$}$j.|$1$2$3$4$      5$6$7$  ",
"                8$9$0$7+a$=@b$$$%+l@I@9@c$d$e$f$P.g$h$h$i$$#]+T.{+j$k$l$m$n$J 9$o$1 p$_             ",
"        q$r$  s$t$y./+i+$#<$^+u$b@+@P@v$q.w$x$q@y$z$N+&+T#K+U#A$k#B$@#*@2+C$D$E$t     F$            ",
"            G$d.H$1$g#~#-+3+m$I$]#J$4.K$L$8@J$#$p#M$q@T.[$~+7@N$O$P$[$H.7.Q$A@R$S$                  ",
"          T$U$V$W$h.H t#t#Q@{#[#T.J+X$(#X#@#@$Y$z+O.|@o@,@J+i@Z$F.%+V.`$ %.%+%@%#%                  ",
"        $%%%&%*%W =%-%;%d.>%,%F@'%)%!%~%@$8@{%4.]%P@q@{+~+i@[#h#~+=.)$^%    /%(%              _%    ",
"      :%9 <%[%}%|%1%2%e@3%4%5%k.N#$$6%7%y$8%3@4+9%0%f+8+b$I$a@C#*@F@a%1.b%            c%d%    t     ",
"        !.e%      f%' g%  h%i%1$2#[#j%~%R.L$k%5+l%=@m%K.n%o%p%%#]#q%r%A               s%t%          ",
"                          u%v%1$w%{%(#x%y%z%T.'%Z$}$V.Z+[#U.6+Z+N.n$A%B%                            ",
"                            C%D%X.E%*@u$F%K+u$%$t#7+-+V.b#]#=.+.+.G%H%V+                            ",
"                          _ I%J%J b$K%M.y@6+7+8.L%M%8.Q@&+{+6@+.y.N%W O%P%                          ",
"                          Q%V+R%S%i#T%8.o.H.U%V%W%X%Y%Z%K%i+k@`% &S+@..&                            ",
"                        u%}++&D@@&#&j.R@y.$&%&      &&*&7.%$$+T%$&=&-&        ;&                    ",
"                      >&,&'&4 @+)&!&~&{&]&^&          /&(&_&2.:&:.<&        [&o$}&                  ",
"                      |&6 1&~.4 B 2&3&4&5&      6&7&    S 8 8&9&0&W@        a&b&c&                  ",
"                      [+d&  U+e&5 f&g&h&          i&        j&u%O%x g&        e%~                   ",
"                            T@k&  p$l&                  m&        n&o&                              ",
"                          p&q&        r&                p+s&    t&                                  ",
"                                      u&s&                    v&w&~.                                ",
"                              x&                                y&                                  ",
"                              f@z&          A&                  B&1&                                ",
"                                            9                                                       ",
"                                                                                                    "};
