/* XPM */
static char * exp29_xpm[] = {
"50 50 173 2",
"  	c None",
". 	c #242424",
"+ 	c #282828",
"@ 	c #292929",
"# 	c #262626",
"$ 	c #272727",
"% 	c #2A2A2A",
"& 	c #2D2D2D",
"* 	c #313232",
"= 	c #2E2E2E",
"- 	c #2B2B2B",
"; 	c #313131",
"> 	c #3D3131",
", 	c #393232",
"' 	c #353232",
") 	c #363131",
"! 	c #2C2C2C",
"~ 	c #333232",
"{ 	c #4C2D2D",
"] 	c #3F3030",
"^ 	c #2F3131",
"/ 	c #323333",
"( 	c #383131",
"_ 	c #413030",
": 	c #502C2C",
"< 	c #4F2C2C",
"[ 	c #452F2F",
"} 	c #303232",
"| 	c #2F2F2F",
"1 	c #373131",
"2 	c #343232",
"3 	c #363030",
"4 	c #373232",
"5 	c #3E3030",
"6 	c #462E2E",
"7 	c #4B2D2D",
"8 	c #552A2A",
"9 	c #492E2E",
"0 	c #452E2E",
"a 	c #3A3131",
"b 	c #363232",
"c 	c #442F2F",
"d 	c #422F2F",
"e 	c #3D3030",
"f 	c #412F2F",
"g 	c #512B2B",
"h 	c #492D2D",
"i 	c #323131",
"j 	c #303030",
"k 	c #393131",
"l 	c #4A2D2D",
"m 	c #383232",
"n 	c #4D2C2C",
"o 	c #482E2E",
"p 	c #532B2B",
"q 	c #572A2A",
"r 	c #522B2B",
"s 	c #303333",
"t 	c #4D2D2D",
"u 	c #403030",
"v 	c #4E2C2C",
"w 	c #5B2929",
"x 	c #662626",
"y 	c #5F2828",
"z 	c #5C2929",
"A 	c #542B2B",
"B 	c #3B3131",
"C 	c #2F3030",
"D 	c #323232",
"E 	c #432F2F",
"F 	c #582A2A",
"G 	c #6C2525",
"H 	c #6D2525",
"I 	c #6A2525",
"J 	c #5D2828",
"K 	c #8B1D1D",
"L 	c #8F1C1C",
"M 	c #6B2525",
"N 	c #602828",
"O 	c #622727",
"P 	c #8A1D1D",
"Q 	c #AD1515",
"R 	c #C10F0F",
"S 	c #B91111",
"T 	c #A01818",
"U 	c #343333",
"V 	c #252525",
"W 	c #642727",
"X 	c #7F2020",
"Y 	c #B61212",
"Z 	c #CF0C0C",
"` 	c #EF0404",
" .	c #E00808",
"..	c #BD1111",
"+.	c #9C1919",
"@.	c #343131",
"#.	c #562A2A",
"$.	c #812020",
"%.	c #A91515",
"&.	c #C90E0E",
"*.	c #DE0808",
"=.	c #FF0600",
"-.	c #FC0401",
";.	c #D90A0A",
">.	c #CC0D0D",
",.	c #921B1B",
"'.	c #652626",
").	c #333030",
"!.	c #841F1F",
"~.	c #E60606",
"{.	c #F70102",
"].	c #FF0B00",
"^.	c #FF1200",
"/.	c #FE0700",
"(.	c #F70602",
"_.	c #BC1111",
":.	c #7B2121",
"<.	c #CA0D0D",
"[.	c #F10304",
"}.	c #FF0400",
"|.	c #F50203",
"1.	c #FF1000",
"2.	c #FF2400",
"3.	c #FE0400",
"4.	c #D40B0B",
"5.	c #722323",
"6.	c #7E2020",
"7.	c #C90D0D",
"8.	c #FB0101",
"9.	c #EE0404",
"0.	c #FF0A00",
"a.	c #E20707",
"b.	c #AB1515",
"c.	c #682626",
"d.	c #B41313",
"e.	c #DC0909",
"f.	c #E10808",
"g.	c #E40707",
"h.	c #F20303",
"i.	c #891E1E",
"j.	c #792121",
"k.	c #702424",
"l.	c #592A2A",
"m.	c #2F2E2E",
"n.	c #B71212",
"o.	c #981A1A",
"p.	c #9E1818",
"q.	c #CE0C0C",
"r.	c #941B1B",
"s.	c #6F2424",
"t.	c #303131",
"u.	c #612727",
"v.	c #861E1E",
"w.	c #931B1B",
"x.	c #672626",
"y.	c #A41717",
"z.	c #891D1D",
"A.	c #373333",
"B.	c #772222",
"C.	c #7D2121",
"D.	c #712323",
"E.	c #652727",
"F.	c #512C2C",
"G.	c #592929",
"H.	c #552B2B",
"I.	c #313030",
"J.	c #3C3131",
"K.	c #232323",
"L.	c #2C2D2D",
"M.	c #442D2D",
"N.	c #5E2828",
"O.	c #522D2D",
"P.	c #282B2B",
"                                                                                                    ",
"                                                                                                    ",
"                                                                                                    ",
"                                                                                                    ",
"                                                                                                    ",
"                                                                                                    ",
"                                                                                                    ",
"                                                                                                    ",
"                                                                                                    ",
"                                                                                                    ",
"                                                                                                    ",
"                                              . + @ # .                                             ",
"                                          . $ % & * = & - + #                                       ",
"                                      # $ @ + @ ; > , ' ) & - @ .                                   ",
"                                    $ % @ ! - & ~ > { { ] ^ = % + .                                 ",
"                                  $ - % ; = ; / ( _ : < [ ] } | @ $                                 ",
"                              . $ % = ; 1 2 3 4 5 6 7 8 9 0 _ * = % .                               ",
"                              @ % & ; 2 a b / 5 c ] d e f g h ] ( i % .                             ",
"                            . - & j 2 k l m e c n d 9 o 6 p q r { ( = @                             ",
"                            # & | j s { l c o t u v { 8 w x y z A B C $                             ",
"                            . j * D ( : h E x F < l q F F G H I { , !                               ",
"                            # ! k , d 0 J I K L M q 6 l p N O y { , !                               ",
"                            @ & m u a 6 P Q R S T I b U * 9 F { [ * &                               ",
"                          V % = ( < W X Y Z `  ...+.N o , / { E > D = V                             ",
"                          + - @.B #.$.%.&.*.=.-.;.>.,.'.A 6 b 4 m * & .                             ",
"                        . = ; ).a A !.R ~.{.].^./.(._.:.z #.d 5 b ( & .                             ",
"                        . & j ; ] t !.<.[.}.|.1.2.3.4.,.5.y p E e m = V                             ",
"                        V % - ; b [ 6.7.` 8.9.=.0.a.&.b.K x p u 5 d ; @                             ",
"                          $ = ! ) k c.d.e.a.f.g.h.b.i.j.k.l.d c o u j @                             ",
"                          . ! m.a k x +.n.b.o.p.q.r.s.A #.] c d e f i %                             ",
"                            @ t.d 6 u.v.w.x.N 5.y.z.O l u d 5 2 2 A.j +                             ",
"                            + = ' d w B.C.x k.s.j.D.w o 4 D C = = | $                               ",
"                            @ - = k p E.x O s.F.< { A B ' | - % % $                                 ",
"                          % % + @ i n #.G.F z u H.9 6 ) | - + $ +                                   ",
"                                + I.u t : < < 7 #.{ k ' ! @ # V                                     ",
"                                  ; D m 9 E J.u t A , D ! $ K.                                      ",
"                                  + + - j I.% L.).u L.+ # #                                         ",
"                                        #       M.N.2 @                                             ",
"                                                O.H.P.                                              ",
"                                                                                                    ",
"                                                                                                    ",
"                                                                                                    ",
"                                                                                                    ",
"                                                                                                    ",
"                                                                                                    ",
"                                                                                                    ",
"                                                                                                    ",
"                                                                                                    ",
"                                                                                                    ",
"                                                                                                    "};
