/* XPM */
static char * exp22_xpm[] = {
"50 50 513 2",
"  	c None",
". 	c #282828",
"+ 	c #272727",
"@ 	c #292929",
"# 	c #2F2F2F",
"$ 	c #2C3030",
"% 	c #4B2E2E",
"& 	c #3F2F2F",
"* 	c #332F2F",
"= 	c #282A2A",
"- 	c #282C2C",
"; 	c #4B2C2C",
"> 	c #7C2221",
", 	c #B50F13",
"' 	c #722121",
") 	c #552727",
"! 	c #472C2C",
"~ 	c #7E2020",
"{ 	c #722323",
"] 	c #891D1D",
"^ 	c #831F1F",
"/ 	c #702424",
"( 	c #522B2B",
"_ 	c #332B2B",
": 	c #292B2B",
"< 	c #2A2A2A",
"[ 	c #423030",
"} 	c #8F1C1C",
"| 	c #F40103",
"1 	c #F62502",
"2 	c #DF0608",
"3 	c #612828",
"4 	c #3C2F2F",
"5 	c #6E2424",
"6 	c #A21717",
"7 	c #C10F0F",
"8 	c #C90D0D",
"9 	c #A71616",
"0 	c #812020",
"a 	c #752323",
"b 	c #562B2B",
"c 	c #262B2B",
"d 	c #2D2D2D",
"e 	c #2E2F2F",
"f 	c #373232",
"g 	c #3D3030",
"h 	c #6A2525",
"i 	c #7F2020",
"j 	c #712323",
"k 	c #682626",
"l 	c #6F2424",
"m 	c #861E1E",
"n 	c #DC0709",
"o 	c #F51002",
"p 	c #FC0701",
"q 	c #E90405",
"r 	c #CF0C0C",
"s 	c #A81616",
"t 	c #8B1D1D",
"u 	c #5B2929",
"v 	c #3B2C2C",
"w 	c #282E2E",
"x 	c #2F2D2D",
"y 	c #2B2B2B",
"z 	c #602828",
"A 	c #652727",
"B 	c #662626",
"C 	c #881E1E",
"D 	c #9F1818",
"E 	c #A51717",
"F 	c #971A1A",
"G 	c #9B1919",
"H 	c #C01010",
"I 	c #F90D01",
"J 	c #FF3A00",
"K 	c #FF3400",
"L 	c #FF2200",
"M 	c #FF0C00",
"N 	c #DC0809",
"O 	c #B31313",
"P 	c #9E1818",
"Q 	c #7C2121",
"R 	c #851F1F",
"S 	c #622727",
"T 	c #532B2B",
"U 	c #353232",
"V 	c #2C2D2D",
"W 	c #542B2B",
"X 	c #981A1A",
"Y 	c #851E1E",
"Z 	c #AC1515",
"` 	c #BA1111",
" .	c #C30F0F",
"..	c #B61212",
"+.	c #B51212",
"@.	c #D50A0A",
"#.	c #FF0700",
"$.	c #FF4200",
"%.	c #FF5500",
"&.	c #FF3E00",
"*.	c #FF3500",
"=.	c #FA0501",
"-.	c #E20707",
";.	c #C50E0E",
">.	c #B71212",
",.	c #BB1111",
"'.	c #A61616",
").	c #692525",
"!.	c #3E2F2F",
"~.	c #272828",
"{.	c #252D2D",
"].	c #961A1A",
"^.	c #C20F0F",
"/.	c #DC0909",
"(.	c #E70606",
"_.	c #D00C0C",
":.	c #FC0001",
"<.	c #FF3C00",
"[.	c #FF6100",
"}.	c #FF5900",
"|.	c #FF5200",
"1.	c #FF2600",
"2.	c #F90402",
"3.	c #E10808",
"4.	c #D70A0A",
"5.	c #CB0D0D",
"6.	c #B41313",
"7.	c #9A1919",
"8.	c #362F2F",
"9.	c #262A2A",
"0.	c #592929",
"a.	c #DE0508",
"b.	c #E61006",
"c.	c #F60802",
"d.	c #DA0909",
"e.	c #DF0808",
"f.	c #DD0909",
"g.	c #ED0404",
"h.	c #BC1111",
"i.	c #EF0304",
"j.	c #FF2800",
"k.	c #FF5700",
"l.	c #FF6000",
"m.	c #FF5D00",
"n.	c #FF4100",
"o.	c #F90602",
"p.	c #F20303",
"q.	c #E00808",
"r.	c #E50606",
"s.	c #C70E0E",
"t.	c #B51313",
"u.	c #5C2929",
"v.	c #2F3232",
"w.	c #412C2C",
"x.	c #941B1B",
"y.	c #CF0B0C",
"z.	c #FF2A00",
"A.	c #FF7900",
"B.	c #FF3D00",
"C.	c #F60002",
"D.	c #E60606",
"E.	c #F10303",
"F.	c #F60202",
"G.	c #FF0900",
"H.	c #FF3900",
"I.	c #FF3000",
"J.	c #FF1D00",
"K.	c #FF0800",
"L.	c #DD0808",
"M.	c #DB0909",
"N.	c #F80202",
"O.	c #A11717",
"P.	c #652626",
"Q.	c #353030",
"R.	c #272E2E",
"S.	c #FB0901",
"T.	c #E00A08",
"U.	c #D6040A",
"V.	c #FF7600",
"W.	c #FF4400",
"X.	c #DF0508",
"Y.	c #F10403",
"Z.	c #FB0501",
"`.	c #FD0000",
" +	c #FC0601",
".+	c #F30103",
"++	c #FA0301",
"@+	c #FA0701",
"#+	c #EC0505",
"$+	c #F00304",
"%+	c #FF0A00",
"&+	c #FF1C00",
"*+	c #EB0405",
"=+	c #EF0404",
"-+	c #EE0404",
";+	c #AD1515",
">+	c #8C1D1D",
",+	c #3A3030",
"'+	c #242424",
")+	c #272D2D",
"!+	c #DF0708",
"~+	c #EC0905",
"{+	c #F61102",
"]+	c #FF2F00",
"^+	c #CE0C0C",
"/+	c #F90701",
"(+	c #F60402",
"_+	c #F30303",
":+	c #FE0B00",
"<+	c #FF1800",
"[+	c #FF0E00",
"}+	c #FE0A00",
"|+	c #F40303",
"1+	c #EA0405",
"2+	c #FC0201",
"3+	c #FF1F00",
"4+	c #F90801",
"5+	c #FF0600",
"6+	c #D80A0A",
"7+	c #1F2D2D",
"8+	c #252525",
"9+	c #3B2D2D",
"0+	c #562A2A",
"a+	c #BE1010",
"b+	c #FA1601",
"c+	c #E90606",
"d+	c #FE0700",
"e+	c #FC0301",
"f+	c #FE0600",
"g+	c #FD0201",
"h+	c #FF1E00",
"i+	c #FF2000",
"j+	c #FF3800",
"k+	c #FF3300",
"l+	c #FD0401",
"m+	c #CA0D0D",
"n+	c #871F1F",
"o+	c #462F2F",
"p+	c #782222",
"q+	c #B81212",
"r+	c #FD0400",
"s+	c #FF2C00",
"t+	c #FD0301",
"u+	c #FF0F00",
"v+	c #FD0B00",
"w+	c #FF0400",
"x+	c #F50102",
"y+	c #FE0F00",
"z+	c #FE0400",
"A+	c #FD0001",
"B+	c #FF1500",
"C+	c #FF3200",
"D+	c #FF4E00",
"E+	c #FF5300",
"F+	c #FF2300",
"G+	c #FC0401",
"H+	c #492B2B",
"I+	c #292A2A",
"J+	c #232323",
"K+	c #432D2D",
"L+	c #B11313",
"M+	c #EF0204",
"N+	c #E00708",
"O+	c #DE0808",
"P+	c #FF0D00",
"Q+	c #F40403",
"R+	c #F30503",
"S+	c #FF4D00",
"T+	c #FF1000",
"U+	c #E50607",
"V+	c #F10503",
"W+	c #FF3F00",
"X+	c #FF4900",
"Y+	c #F70202",
"Z+	c #D50B0B",
"`+	c #3E2A2A",
" @	c #3E2D2D",
".@	c #911B1B",
"+@	c #AB1515",
"@@	c #C60E0E",
"#@	c #C40F0F",
"$@	c #D90909",
"%@	c #F50202",
"&@	c #FB0301",
"*@	c #F20003",
"=@	c #FF7C00",
"-@	c #FF9000",
";@	c #FF9100",
">@	c #FF6500",
",@	c #E80506",
"'@	c #E30707",
")@	c #D30B0B",
"!@	c #FF0B00",
"~@	c #E10708",
"{@	c #632727",
"]@	c #302C2C",
"^@	c #5A2A2A",
"/@	c #AE1414",
"(@	c #B91212",
"_@	c #CD0C0C",
":@	c #E80606",
"<@	c #F90101",
"[@	c #FF1600",
"}@	c #FF7F00",
"|@	c #FFB100",
"1@	c #FFC600",
"2@	c #FFB300",
"3@	c #FF7800",
"4@	c #FD0B01",
"5@	c #EE0204",
"6@	c #E40707",
"7@	c #F70302",
"8@	c #F60102",
"9@	c #4E2D2D",
"0@	c #363333",
"a@	c #911C1C",
"b@	c #A91515",
"c@	c #FF8600",
"d@	c #FFA900",
"e@	c #FFA400",
"f@	c #FFDF00",
"g@	c #FFC300",
"h@	c #FFA200",
"i@	c #E70506",
"j@	c #652525",
"k@	c #762222",
"l@	c #CC0D0D",
"m@	c #E90505",
"n@	c #F90201",
"o@	c #FF2500",
"p@	c #FFC000",
"q@	c #FFCA00",
"r@	c #FFD900",
"s@	c #FFF800",
"t@	c #FFEF00",
"u@	c #FFD100",
"v@	c #FF9400",
"w@	c #FF3100",
"x@	c #FF2E00",
"y@	c #FF1B00",
"z@	c #FE0800",
"A@	c #F80402",
"B@	c #D60A0A",
"C@	c #B01414",
"D@	c #742323",
"E@	c #332C2C",
"F@	c #BF1010",
"G@	c #EB0505",
"H@	c #F70602",
"I@	c #FF3700",
"J@	c #FF9300",
"K@	c #FFCF00",
"L@	c #FFDE00",
"M@	c #FFB600",
"N@	c #FFE400",
"O@	c #FFF300",
"P@	c #FFE300",
"Q@	c #FF9E00",
"R@	c #FF5600",
"S@	c #FF2B00",
"T@	c #802020",
"U@	c #552B2B",
"V@	c #D40B0B",
"W@	c #EA0505",
"X@	c #FFBB00",
"Y@	c #FFCE00",
"Z@	c #FFC700",
"`@	c #FFD000",
" #	c #FFD800",
".#	c #FFB700",
"+#	c #FFA800",
"@#	c #FF8100",
"##	c #FF5B00",
"$#	c #FA0B01",
"%#	c #2C2E2E",
"&#	c #262626",
"*#	c #252929",
"=#	c #572A2A",
"-#	c #C90E0E",
";#	c #E50707",
">#	c #F50B02",
",#	c #FF7400",
"'#	c #FFA300",
")#	c #FFAE00",
"!#	c #FFA700",
"~#	c #FF5000",
"{#	c #FF3600",
"]#	c #F80302",
"^#	c #FF1200",
"/#	c #FD1900",
"(#	c #F80902",
"_#	c #DE0A08",
":#	c #9C1919",
"<#	c #2C2C2C",
"[#	c #3D2F2F",
"}#	c #6B2525",
"|#	c #AF1414",
"1#	c #F80B02",
"2#	c #FF7B00",
"3#	c #FF4700",
"4#	c #FF8000",
"5#	c #FF2D00",
"6#	c #FA0C01",
"7#	c #F70502",
"8#	c #FF2900",
"9#	c #FF7300",
"0#	c #FF7D00",
"a#	c #FF5A00",
"b#	c #F80802",
"c#	c #602929",
"d#	c #2A2B2B",
"e#	c #403131",
"f#	c #6D2525",
"g#	c #AA1515",
"h#	c #FE0200",
"i#	c #FF4600",
"j#	c #FF5400",
"k#	c #FF1A00",
"l#	c #FF1700",
"m#	c #FF5E00",
"n#	c #FF4C00",
"o#	c #F90102",
"p#	c #FE0E00",
"q#	c #FF3B00",
"r#	c #FF4A00",
"s#	c #FF6700",
"t#	c #F92A01",
"u#	c #CD0A0C",
"v#	c #AF1515",
"w#	c #262828",
"x#	c #482D2D",
"y#	c #FE0000",
"z#	c #FF4800",
"A#	c #FF2400",
"B#	c #FE0C00",
"C#	c #FF0300",
"D#	c #DD0609",
"E#	c #EC0405",
"F#	c #EE0804",
"G#	c #901B1C",
"H#	c #3D2D2D",
"I#	c #3A2B2B",
"J#	c #D20B0B",
"K#	c #F00404",
"L#	c #F00604",
"M#	c #FF5100",
"N#	c #FC0F01",
"O#	c #FF2100",
"P#	c #FD1201",
"Q#	c #FB0601",
"R#	c #FE0500",
"S#	c #C50F0F",
"T#	c #D10B0B",
"U#	c #512A2A",
"V#	c #202A2A",
"W#	c #692626",
"X#	c #FD0101",
"Y#	c #FD0100",
"Z#	c #642727",
"`#	c #352E2E",
" $	c #572B2B",
".$	c #8A1D1D",
"+$	c #FF4500",
"@$	c #FF0200",
"#$	c #C80E0E",
"$$	c #B91111",
"%$	c #402E2E",
"&$	c #2E3030",
"*$	c #4D2D2D",
"=$	c #7D2020",
"-$	c #FC0901",
";$	c #FB0701",
">$	c #F90202",
",$	c #BD1010",
"'$	c #2A2F2F",
")$	c #262D2D",
"!$	c #F70402",
"~$	c #FA0201",
"{$	c #8D1D1D",
"]$	c #7A2222",
"^$	c #222929",
"/$	c #402F2F",
"($	c #BD1111",
"_$	c #FF0000",
":$	c #D90A0A",
"<$	c #951A1A",
"[$	c #772222",
"}$	c #362C2C",
"|$	c #821F1F",
"1$	c #841F1F",
"2$	c #861F1F",
"3$	c #4E2A2A",
"4$	c #792222",
"5$	c #A91616",
"6$	c #382C2C",
"7$	c #592A2A",
"8$	c #712424",
"9$	c #3A2F2F",
"0$	c #302D2D",
"a$	c #333131",
"b$	c #871E1E",
"c$	c #931B1B",
"d$	c #582A2A",
"e$	c #322D2D",
"f$	c #333030",
"g$	c #462727",
"h$	c #492C2C",
"i$	c #432F2F",
"j$	c #413030",
"k$	c #402C2C",
"l$	c #403030",
"m$	c #502C2C",
"n$	c #2A2D2D",
"                                                                                                    ",
"                                                                                                    ",
"                                                                                                    ",
"                                                                                                    ",
"                                                                                                    ",
"                                                                            .                       ",
"                                                                                                    ",
"                                                +                                 +                 ",
"                        @                   # $ % & * =                                             ",
"                              - ; > , ' ) ! ~ { ] ^ / ( _ :                 @                       ",
"                            < [ } | 1 2 3 4 5 6 7 8 9 0 a b c                                       ",
"                        d e f g h i ^ j k l m n o p q r s t u v w e x                               ",
"                        y g z A B C D E F G H I J K L M N O P Q R S T U                             ",
"                        V W X t Y Z `  ...+.@.#.$.%.&.*.=.-.;.>.,.'.6 ).!.~.                        ",
"                      < {.i ].F O ^./.(._.H r :.<.[.}.|.1.2.3.4.4.5.6.7.l 8.                        ",
"                      9.0.a.b.c.d.e.f.g.-.h.7 i.j.k.l.m.n.o.p.q.-.r.s.t.R u.v.                      ",
"                    w.x.y.z.A.B.C.D.4.D.E.N q.F.G.j.n.H.I.J.K.L.M.N.(.5.O.P.Q.                      ",
"                  R.D S.T.U.V.W.X.s.@.Y.M Z.`. +.+++@+#+$+%+&+*+/.=+-+/.;+>+,+                      ",
"                '+)+/ !+~+{+]+%+e.^+e./+1.(+_+:+<+[+}+|+1+2+3+J.4+5+#+6+ .6.7+                      ",
"                8+9+0+a+M $.b+p.=+$+c+N.d+e+E.K.f+g+h+i+j+*.n.k+<+l+(.m+>.n+                        ",
"                  o+p+q+r+s+J.E.t+u+v+w+(.x+y+z+A+K.B+&+C+D+E+F+G+g.d.>.C H+I+J+                    ",
"                  K+G L+-.M+N+O+$+G.P+Q+R+1.J S+J.T+5+U+V+W+X+i+Y+d.Z+8 m `+                        ",
"                   @.@+@h.@@#@H $@%@&@*@C+=@-@;@>@3+,@'@)@!@s+<+~@m+7 '.{@]@                        ",
"                  c ^@q+O /@(@_@:@<@[@W+}@|@1@2@3@m.4@P+5@6@7@8@^+#@6.} 9@                          ",
"                  @ 0@a@b@q+7 e.p.T+S+c@d@e@1@f@g@h@%.]+[@7@i@/.'@5./@>+j@                          ",
"                    4 k@6.l@-.m@p.n@o@-@p@q@r@s@t@u@v@w@z.x@y@z@A@B@C@D G D@3                       ",
"                    E@h F@O+(.G@-.H@I@J@K@L@M@N@O@P@Q@R@H.y@S@B+K.6@a+C@O T@U@:                   '+",
"                    8.>+(@B@V@-.W@1+j.c@X@Y@Z@`@ #.#+#@###1.&+$#z+g.4.@.7 >+^@%#&#                  ",
"                  *#=#} ..>.-#V@;#L.>#,#'#'#+#)#!#k.~#n.{#]#*+#.[+^#/#(#_#:#( d <#                  ",
"              &#@ [#}#'.|#>.;.5.B@g.1#l.2#|.n.3#4#n.5#o@6#O+7#8#~#9#0#a#b#4.c#                      ",
"                d#e#f#].O.g# .$@(.h##.i#j#k#l#<+m#n#^#:.o#m@p#x@q#r#s#t#u#v#<                       ",
"            8+  &#w#x#l k@} ^.;#y#p#i+n#z#B.w@A#]+z.k#B#o#w+G.C#D#E#F#G#H#                          ",
"            @       y I#w.A g#J#K#L#5#M#j.N#O#P#z@Q#R#w+K#%@=+Z+S#T#x.U#        8+                  ",
"                          V#W#x.-#(.P+i#H.y@[@X#[@Y#(.e.d.-.B@6+O+5.Z#`#                            ",
"                             $.$+@E#T+C++$K J.@$8#]#^+^.-#_.#$e.(.$$%$.                   .         ",
"                          &$*$=$@@_+u+J.8#j.-$;$>$g.t.L+F@,$^+)@m+D '$                              ",
"                            )$/ C@N.&@5@!$~$r F@F@c+@@..q+#@L+6 {$]$^$                              ",
"                              /$X 6+r O h.s.,...($_$V@@@^+:$L+<$[$W                                 ",
"                              }$k 6 } |$^ 1$}#2$s ]$3$4$5$T#6 |$B 6$                                ",
"                                $ 7$8$8$3 9$0$        a$b$c$^ ^ d$                                  ",
"                                    %#e$f$.           g$v.h$i$j$k$                                  ",
"                                                          = l$m$n$                                  ",
"                    .                             8+          d <                                   ",
"                                                                    +                               ",
"                                                                                                    ",
"                          +                             @                                           ",
"                                                                                                    ",
"                                                                                                    ",
"                                            .                                                       ",
"                                                                                                    "};
