/* XPM */
static char * exp20_xpm[] = {
"50 50 566 2",
"  	c None",
". 	c #292929",
"+ 	c #2E2E2E",
"@ 	c #282828",
"# 	c #2F2828",
"$ 	c #252525",
"% 	c #242424",
"& 	c #292A2A",
"* 	c #302D2D",
"= 	c #322E2E",
"- 	c #2F3030",
"; 	c #222323",
"> 	c #272727",
", 	c #312B2B",
"' 	c #352C2C",
") 	c #322A2A",
"! 	c #262626",
"~ 	c #3D2D2D",
"{ 	c #4A2E2E",
"] 	c #821F1F",
"^ 	c #702424",
"/ 	c #642727",
"( 	c #3C3030",
"_ 	c #3F2D2D",
": 	c #313030",
"< 	c #2F2F2F",
"[ 	c #252828",
"} 	c #4B2C2C",
"| 	c #7C2221",
"1 	c #B60F13",
"2 	c #532525",
"3 	c #3A2A2A",
"4 	c #4D2B2B",
"5 	c #921B1B",
"6 	c #B91111",
"7 	c #B51313",
"8 	c #C50E0E",
"9 	c #9B1919",
"0 	c #6C2525",
"a 	c #452828",
"b 	c #2D2D2D",
"c 	c #292B2B",
"d 	c #393232",
"e 	c #362E2E",
"f 	c #3B3030",
"g 	c #442D2D",
"h 	c #891D1D",
"i 	c #F80502",
"j 	c #FF2D00",
"k 	c #E70306",
"l 	c #612828",
"m 	c #402F2F",
"n 	c #9D1818",
"o 	c #FB0001",
"p 	c #FB0D01",
"q 	c #D4090B",
"r 	c #A51616",
"s 	c #A51717",
"t 	c #851E1E",
"u 	c #462D2D",
"v 	c #522C2C",
"w 	c #7C2121",
"x 	c #6D2525",
"y 	c #772222",
"z 	c #8A1D1D",
"A 	c #8D1C1D",
"B 	c #94191B",
"C 	c #831F1F",
"D 	c #881E1E",
"E 	c #8B1D1D",
"F 	c #AB1515",
"G 	c #FF1B00",
"H 	c #FF5B00",
"I 	c #FF4500",
"J 	c #FE1F00",
"K 	c #F40F03",
"L 	c #EC0405",
"M 	c #B01414",
"N 	c #871E1E",
"O 	c #552929",
"P 	c #342B2B",
"Q 	c #562B2B",
"R 	c #572828",
"S 	c #2E2F2F",
"T 	c #272929",
"U 	c #5B2A2A",
"V 	c #971A1A",
"W 	c #A31717",
"X 	c #981A1A",
"Y 	c #A11717",
"Z 	c #C80D0E",
"` 	c #BD1011",
" .	c #B21313",
"..	c #B31313",
"+.	c #DD0608",
"@.	c #FF3800",
"#.	c #FF9B00",
"$.	c #FF9200",
"%.	c #FF7100",
"&.	c #FF4D00",
"*.	c #FF1700",
"=.	c #D30A0B",
"-.	c #B81212",
";.	c #AC1515",
">.	c #991A1A",
",.	c #8C1D1D",
"'.	c #742323",
").	c #4B2E2E",
"!.	c #2F2727",
"~.	c #602929",
"{.	c #C11010",
"].	c #BF1010",
"^.	c #CB0D0D",
"/.	c #D00C0C",
"(.	c #F60602",
"_.	c #FF0F00",
":.	c #E00708",
"<.	c #D40A0B",
"[.	c #FF0E00",
"}.	c #FF5000",
"|.	c #FFBA00",
"1.	c #FFCB00",
"2.	c #FFA700",
"3.	c #FF8500",
"4.	c #FF4F00",
"5.	c #FF1600",
"6.	c #E50506",
"7.	c #F00704",
"8.	c #EF0304",
"9.	c #E50607",
"0.	c #CC0D0D",
"a.	c #2A2C2C",
"b.	c #3F3232",
"c.	c #5B2424",
"d.	c #F10303",
"e.	c #CC0B0D",
"f.	c #DB0809",
"g.	c #DC0809",
"h.	c #F00304",
"i.	c #FF1500",
"j.	c #FF3100",
"k.	c #FE0C00",
"l.	c #EE0404",
"m.	c #FC0601",
"n.	c #FF4600",
"o.	c #FFAE00",
"p.	c #FFD800",
"q.	c #FFB900",
"r.	c #FF7700",
"s.	c #FF4E00",
"t.	c #FF2A00",
"u.	c #FF1800",
"v.	c #FF2100",
"w.	c #FF0C00",
"x.	c #E40707",
"y.	c #D30B0B",
"z.	c #682727",
"A.	c #2A2929",
"B.	c #383030",
"C.	c #692626",
"D.	c #F10003",
"E.	c #FF3700",
"F.	c #FF1300",
"G.	c #FF3A00",
"H.	c #FF1A00",
"I.	c #EA0505",
"J.	c #F50003",
"K.	c #FF2400",
"L.	c #FF8A00",
"M.	c #FFC400",
"N.	c #FFC500",
"O.	c #FFB700",
"P.	c #FF3600",
"Q.	c #FF3000",
"R.	c #FF2600",
"S.	c #F90701",
"T.	c #E50806",
"U.	c #B11313",
"V.	c #2A2727",
"W.	c #412C2C",
"X.	c #8F1C1C",
"Y.	c #FF9800",
"Z.	c #FF9E00",
"`.	c #FF1D00",
" +	c #FF2C00",
".+	c #FF1100",
"++	c #FF2200",
"@+	c #FF5800",
"#+	c #FF7500",
"$+	c #FF8F00",
"%+	c #FF7D00",
"&+	c #FF5200",
"*+	c #FF4900",
"=+	c #FF1E00",
"-+	c #FF2900",
";+	c #FF4100",
">+	c #FE0F00",
",+	c #D60A0A",
"'+	c #9A1919",
")+	c #2B3131",
"!+	c #242525",
"~+	c #313232",
"{+	c #2C3535",
"]+	c #9E1818",
"^+	c #FA0801",
"/+	c #DF0A08",
"(+	c #E90106",
"_+	c #FF7800",
":+	c #FF8E00",
"<+	c #FF2300",
"[+	c #F60302",
"}+	c #FC0A01",
"|+	c #FF5300",
"1+	c #FF4C00",
"2+	c #FF3C00",
"3+	c #FF3900",
"4+	c #FF3300",
"5+	c #FF3B00",
"6+	c #FF6000",
"7+	c #FF3F00",
"8+	c #E60506",
"9+	c #A71616",
"0+	c #812020",
"a+	c #492C2C",
"b+	c #5F2828",
"c+	c #F00404",
"d+	c #F31003",
"e+	c #F61202",
"f+	c #FD1101",
"g+	c #F80602",
"h+	c #FF4400",
"i+	c #FF5D00",
"j+	c #FF5500",
"k+	c #FF5F00",
"l+	c #FF2500",
"m+	c #FF2F00",
"n+	c #FF5C00",
"o+	c #FF5600",
"p+	c #FF4B00",
"q+	c #FF0800",
"r+	c #F30203",
"s+	c #D20B0B",
"t+	c #622626",
"u+	c #2A2B2B",
"v+	c #292C2C",
"w+	c #7A2121",
"x+	c #941B1B",
"y+	c #FF5900",
"z+	c #FF3200",
"A+	c #FD1501",
"B+	c #FF3E00",
"C+	c #FF4000",
"D+	c #FF5E00",
"E+	c #FF6700",
"F+	c #FF6D00",
"G+	c #FF6E00",
"H+	c #FF7A00",
"I+	c #FF4300",
"J+	c #F40903",
"K+	c #C30F0F",
"L+	c #9D1919",
"M+	c #262727",
"N+	c #403131",
"O+	c #2B2E2E",
"P+	c #3D2E2E",
"Q+	c #4C2C2C",
"R+	c #A21717",
"S+	c #F10203",
"T+	c #FF4700",
"U+	c #FF5A00",
"V+	c #FF7400",
"W+	c #FF5100",
"X+	c #E50407",
"Y+	c #A41717",
"Z+	c #432D2D",
"`+	c #2B2D2D",
" @	c #4E2A2A",
".@	c #961A1A",
"+@	c #DB0909",
"@@	c #F60902",
"#@	c #FF1000",
"$@	c #FF2B00",
"%@	c #FF6500",
"&@	c #FF7B00",
"*@	c #FF8000",
"=@	c #FD2000",
"-@	c #FF8300",
";@	c #FF6200",
">@	c #FE0400",
",@	c #FB0801",
"'@	c #BD1010",
")@	c #242A2A",
"!@	c #861F1F",
"~@	c #D70A0A",
"{@	c #F40403",
"]@	c #FB0301",
"^@	c #F50103",
"/@	c #F90401",
"(@	c #FA0E01",
"_@	c #FFB200",
":@	c #FF2700",
"<@	c #FF1200",
"[@	c #F80402",
"}@	c #FD1400",
"|@	c #FC0001",
"1@	c #FC0901",
"2@	c #592626",
"3@	c #532929",
"4@	c #A61616",
"5@	c #FF0300",
"6@	c #DC0909",
"7@	c #E80606",
"8@	c #FF6C00",
"9@	c #FFEA00",
"0@	c #FFF100",
"a@	c #FFEE00",
"b@	c #FFB000",
"c@	c #FF9700",
"d@	c #FF2800",
"e@	c #FF3400",
"f@	c #F91001",
"g@	c #EB0505",
"h@	c #EF0504",
"i@	c #B61212",
"j@	c #6F2424",
"k@	c #E80506",
"l@	c #F60202",
"m@	c #FF7F00",
"n@	c #FFB800",
"o@	c #FFDB00",
"p@	c #FFD100",
"q@	c #FFFD04",
"r@	c #FFFF1A",
"s@	c #FFF507",
"t@	c #FFDA00",
"u@	c #FF9000",
"v@	c #FF7E00",
"w@	c #FF1400",
"x@	c #FB0201",
"y@	c #E50606",
"z@	c #792020",
"A@	c #432E2E",
"B@	c #AA1515",
"C@	c #E80406",
"D@	c #FF1900",
"E@	c #FF2E00",
"F@	c #FFF806",
"G@	c #FFFF0C",
"H@	c #FFFF2C",
"I@	c #FFFF28",
"J@	c #FFFF0B",
"K@	c #FF6B00",
"L@	c #FF6800",
"M@	c #FE0800",
"N@	c #E10808",
"O@	c #CF0C0C",
"P@	c #DF0808",
"Q@	c #B11414",
"R@	c #C4150F",
"S@	c #BB3411",
"T@	c #2A2A2A",
"U@	c #2A2D2D",
"V@	c #ED0805",
"W@	c #FF1F00",
"X@	c #FFC800",
"Y@	c #FFFB03",
"Z@	c #FFF000",
"`@	c #FFFF16",
" #	c #FFFF26",
".#	c #FFFF0E",
"+#	c #FFD500",
"@#	c #FF8700",
"##	c #FF6A00",
"$#	c #FF1C00",
"%#	c #F20503",
"&#	c #EF0404",
"*#	c #E70606",
"=#	c #C80E0E",
"-#	c #861E1E",
";#	c #7B2121",
">#	c #232525",
",#	c #412E2E",
"'#	c #652727",
")#	c #AD1414",
"!#	c #E70406",
"~#	c #FF6400",
"{#	c #FFF801",
"]#	c #FFFB07",
"^#	c #FFFF05",
"/#	c #FFFD0B",
"(#	c #FFEA04",
"_#	c #FFDC00",
":#	c #FFBE00",
"<#	c #FF0900",
"[#	c #FC0E01",
"}#	c #F70302",
"|#	c #BE1010",
"1#	c #722323",
"2#	c #3E2E2E",
"3#	c #2C2C2C",
"4#	c #422F2F",
"5#	c #4C2D2D",
"6#	c #911B1B",
"7#	c #C20F0F",
"8#	c #F40303",
"9#	c #FE0200",
"0#	c #FF0A00",
"a#	c #FF9A00",
"b#	c #FFE000",
"c#	c #FFDF00",
"d#	c #FFE300",
"e#	c #FFDE00",
"f#	c #FF8100",
"g#	c #FD1E00",
"h#	c #CD090D",
"i#	c #682626",
"j#	c #472F2F",
"k#	c #312C2C",
"l#	c #582A2A",
"m#	c #D80A0A",
"n#	c #F70202",
"o#	c #F20303",
"p#	c #F90101",
"q#	c #FF7C00",
"r#	c #FF8200",
"s#	c #FFAB00",
"t#	c #FF6900",
"u#	c #FF9C00",
"v#	c #FFCC00",
"w#	c #FFA500",
"x#	c #FF9D00",
"y#	c #FF4A00",
"z#	c #B90E11",
"A#	c #592727",
"B#	c #3E2C2C",
"C#	c #562A2A",
"D#	c #782222",
"E#	c #A01818",
"F#	c #C70E0E",
"G#	c #D90909",
"H#	c #FA0601",
"I#	c #FF8C00",
"J#	c #FF8D00",
"K#	c #FFA800",
"L#	c #FE3600",
"M#	c #E41707",
"N#	c #622424",
"O#	c #442E2E",
"P#	c #482E2E",
"Q#	c #4E2C2C",
"R#	c #602828",
"S#	c #B71212",
"T#	c #C40F0F",
"U#	c #FF6100",
"V#	c #FF6600",
"W#	c #FF6300",
"X#	c #FF4800",
"Y#	c #FF4200",
"Z#	c #FC1D01",
"`#	c #4B2728",
" $	c #2F3131",
".$	c #4D2D2D",
"+$	c #362F2F",
"@$	c #2D3131",
"#$	c #462A2A",
"$$	c #482929",
"%$	c #5A2828",
"&$	c #921C1C",
"*$	c #DA0709",
"=$	c #F70D02",
"-$	c #FF3500",
";$	c #FF0500",
">$	c #FA0501",
",$	c #F50A02",
"'$	c #CB0A0D",
")$	c #572B2B",
"!$	c #2B2B2B",
"~$	c #192B2B",
"{$	c #891E1E",
"]$	c #BA1111",
"^$	c #FF9500",
"/$	c #FF3D00",
"($	c #FD0800",
"_$	c #5C2A2A",
":$	c #312A2A",
"<$	c #242D2D",
"[$	c #AD1515",
"}$	c #FF8400",
"|$	c #FF9400",
"1$	c #FF8B00",
"2$	c #FA0101",
"3$	c #F70102",
"4$	c #FE0300",
"5$	c #5E2828",
"6$	c #2D2929",
"7$	c #442828",
"8$	c #FF7600",
"9$	c #FF7300",
"0$	c #E90505",
"a$	c #FD0D00",
"b$	c #E90706",
"c$	c #282B2B",
"d$	c #402E2E",
"e$	c #FC1801",
"f$	c #FA1401",
"g$	c #DD0708",
"h$	c #F80002",
"i$	c #E30707",
"j$	c #EE0504",
"k$	c #931B1B",
"l$	c #3C2F2F",
"m$	c #822020",
"n$	c #DA1309",
"o$	c #E90406",
"p$	c #F40603",
"q$	c #EB0405",
"r$	c #CE0C0C",
"s$	c #BC1111",
"t$	c #FF0D00",
"u$	c #F61802",
"v$	c #F00204",
"w$	c #F90E01",
"x$	c #732323",
"y$	c #262C2C",
"z$	c #7E2121",
"A$	c #D10B0B",
"B$	c #E90605",
"C$	c #C2100F",
"D$	c #901C1C",
"E$	c #A81616",
"F$	c #7A2222",
"G$	c #5E2929",
"H$	c #F21303",
"I$	c #FC0301",
"J$	c #4E2B2B",
"K$	c #232323",
"L$	c #302B2B",
"M$	c #462F2F",
"N$	c #762222",
"O$	c #AE1414",
"P$	c #8E1C1C",
"Q$	c #692525",
"R$	c #652424",
"S$	c #C70D0E",
"T$	c #C90E0D",
"U$	c #332F2F",
"V$	c #222222",
"W$	c #352D2D",
"X$	c #3C2E2E",
"Y$	c #6B2626",
"Z$	c #7F2020",
"`$	c #662727",
" %	c #4C2E2E",
".%	c #3E2929",
"+%	c #682525",
"@%	c #8D1C1C",
"#%	c #2E2C2C",
"$%	c #522A2A",
"%%	c #851F1F",
"&%	c #272D2D",
"*%	c #322B2B",
"=%	c #332C2C",
"-%	c #3F2B2B",
";%	c #4A2D2D",
">%	c #2B2C2C",
",%	c #302929",
"                                                                                                    ",
"                                                                                                    ",
"                                                                                                    ",
"                                                .                                                   ",
"                                                      +                                             ",
"                              @                                             #                       ",
"                          .                 $       .                                               ",
"                      .                     % & * = - ;     >                     ,                 ",
"                  '   % )             !     ~ { ] ^ / (                                             ",
"                  _     : <   [ } | 1 2 3 4 5 6 7 8 9 0 a b c               d                       ",
"                        e f f g h i j k l m n o i p q r s t u                                       ",
"                        v w x y z A B C D E F G H I J K L M N O P Q R S T                           ",
"                        U C V W X Y Z `  ...+.@.#.$.%.&.*.=.-.;.>.V ,.'.).!.                        ",
"                >       ~.{.].^.-./.(._.:.<.[.}.|.1.2.3.4.5.6.7.8.9.0.Y l a.    .                   ",
"                  > & b.c.d.e.f.g.h.i.j.k.l.m.n.o.p.q.2.r.s.t.u.v.w.x.y.5 z.                        ",
"                    A.B.C.D.4.E.u.F.*.G.H.I.J.K.L.M.N.O.$.4.P.5.Q.R.S.T.U.,.u                       ",
"          V.e       W.X.].v.Y.Z.s.j u.`. +.+++P.@+#+Z.$+%+&+*+=+-+;+j.>+,+'+0 )+                    ",
"          # !+  ~+{+]+^+/+(+_+:+<+[+}+j.|+1+2+3+4+E.&.Q.5+&.6+t.5.G.7+R.8+9+0+                      ",
"    $           a+b+N c+d+e+G.G.f+g+w.h+i+j+++j+k+H }.E.l+m+n+o+&.p+4+q+r+s+t+                      ",
"        . u+> v+Q w+x+9.i.y+&.K.z+K.A+B+p+C+4+&.I ;+D+E+F+G+H+r.6+I+<+J+K+L+                        ",
"  b     M+N+O+P+Q+R+{.S+G @+%.P.7+T+h+B+l+j.&.&.z+I+U+n+V+:+:+n+W+l+H.X+Y+^ Z+b                     ",
"          `+@ +  @.@+@@@#@m+K.u.$@C+y+K.z+%@&@*@n+&+;+_.=@-@$+;@7+>@5.,@'@C.)@                      ",
"      >         - !@~@{@8.]@^@/@(@Q.}.i.F+_@M.N.2.H :@<@[@n+V+D+}@|@1@g.W 2@                        ",
"                  3@4@5@I.6@7@i 5.B+I 8@o.9@0@a@b@c@n.4.:@d@5+e@f@g@h@i@j@                          ",
"                  3 ^ ~@6@k@l@H.t.&.m@n@o@p@q@r@s@t@u@v@y+5+#@w@u.x@y@i@z@                          ",
"                    A@B@C@D@G m+E@e@@+M.0@F@G@H@I@J@1.K@L@K@n+&+4+M@N@O@P@Q@R@S@                    ",
"      T@            U@x+V@E@$@d@W@j.%.X@Y@r@Z@`@ #.#+#@#K@y+##U+&.$#%#&#*#=#-#;#).>#            . ,#",
"                  + '#)#!#<@.+u.l+H.~#|.{#.#]#^#/#(#_#:##.%@U+C+B+z+<#[#}#|#;#1#2#3#                ",
"                4#5#6#7#8#r+9#0#v..+Q.a#b#c#d#e#t@L.f#m@r.j.R.h+|+&.F+}.g#h#5 i#j#                  ",
"        .     k#l#C.Y+m#n#o#p#r+w@t.B+:+_@H+q#r#s#&@t#;@I <#E.K@u#v#9@w#x#y#z#A#                    ",
"              B#C#D#E#F#g@G#H#<#d@2+7+V+I#1+j+y+J#r#@+5+@. +1+r.@#K#w#L#I M#N#                      ",
"            O#P#Q#R#] W S#T#F.E@G.2+U#3.r#v@_+##V#W#W+X#e@Y#I+e@Z#e@m+B `#                          ",
"        !  $.$+$@$N+#$$$%$&$*$=$u.z+%.x#V#*+%@h+E.-$n.3+Q.e@u.;$>$,$'$)$        .               !$  ",
"            O+            ~${$]$S+D@p+^$*@F+U+/$y+T+u.#@W@D@[@($.+*#,._$                            ",
"      :$                  <$;#[$C@W@H }$|$1$~#*+U+e@2$3$4$x@o G 5.T#5$6$                  b         ",
"                          7$C. .H.n+H+8$9$L@W+@.$##@~@G#g@0$x@a$b$F 5$c$                            ",
"                            d$E e$##|+:@t.E@f$x.g$*.h$i$j$m.8.G#9+k$l$                              ",
"                              m$n$Y#,@g$o$p$q$r$s$t$u$v$`.v.w$K+4@x$y$                              ",
"                              z$A$B$C$i@Q@U.9 D$E$F$G$F p$H$I$-..@J$K$  L$                          ",
"                              M$N$O$S#i@P$Q$Q         R$T#S$T$]$W U$@                               ",
"                              V$W$X$Y$Z$`$ %          .%+%;#@%@%0 !$                                ",
"                      #%  >   K$                          $%x %%C.&%                                ",
"                      B#        T@                *%        =%-%;%>%                                ",
"                                                                  b U$                              ",
"                          @                             T@                                          ",
"                                      @                                                             ",
"                                                                                                    ",
"                              ,%                                                                    ",
"                                            !$                  +                                   ",
"                                                                                                    "};
