/* XPM */
static char * exp28_xpm[] = {
"50 50 221 2",
"  	c None",
". 	c #282828",
"+ 	c #252525",
"@ 	c #262626",
"# 	c #2C2C2C",
"$ 	c #2A2A2A",
"% 	c #2D2E2E",
"& 	c #272727",
"* 	c #292929",
"= 	c #2E2E2E",
"- 	c #383030",
"; 	c #393030",
"> 	c #372E2E",
", 	c #333232",
"' 	c #3E3131",
") 	c #2E2F2F",
"! 	c #2D2D2D",
"~ 	c #2F2F2F",
"{ 	c #442F2F",
"] 	c #582A2A",
"^ 	c #5B2929",
"/ 	c #502C2C",
"( 	c #552A2A",
"_ 	c #472E2E",
": 	c #423030",
"< 	c #393131",
"[ 	c #323333",
"} 	c #2B2C2C",
"| 	c #303030",
"1 	c #363131",
"2 	c #313131",
"3 	c #383131",
"4 	c #462E2E",
"5 	c #572A2A",
"6 	c #692626",
"7 	c #742323",
"8 	c #722323",
"9 	c #6A2525",
"0 	c #522B2B",
"a 	c #4E2C2C",
"b 	c #422F2F",
"c 	c #393232",
"d 	c #242424",
"e 	c #303131",
"f 	c #353131",
"g 	c #353232",
"h 	c #492D2D",
"i 	c #343232",
"j 	c #4A2D2D",
"k 	c #5C2929",
"l 	c #6D2424",
"m 	c #792222",
"n 	c #7C2121",
"o 	c #6C2525",
"p 	c #5D2929",
"q 	c #4F2C2C",
"r 	c #4B2D2D",
"s 	c #3A3131",
"t 	c #313030",
"u 	c #3C3131",
"v 	c #432F2F",
"w 	c #482E2E",
"x 	c #632727",
"y 	c #6F2424",
"z 	c #821F1F",
"A 	c #642727",
"B 	c #492E2E",
"C 	c #5D2828",
"D 	c #552B2B",
"E 	c #592929",
"F 	c #682626",
"G 	c #662626",
"H 	c #5A2929",
"I 	c #6E2424",
"J 	c #5F2828",
"K 	c #333030",
"L 	c #452E2E",
"M 	c #612727",
"N 	c #672626",
"O 	c #652727",
"P 	c #5E2828",
"Q 	c #602828",
"R 	c #7D2121",
"S 	c #772222",
"T 	c #3B3131",
"U 	c #363232",
"V 	c #4D2D2D",
"W 	c #612828",
"X 	c #652626",
"Y 	c #6B2525",
"Z 	c #811F1F",
"` 	c #562A2A",
" .	c #312E2E",
"..	c #2C2D2D",
"+.	c #702424",
"@.	c #692525",
"#.	c #732323",
"$.	c #8A1D1D",
"%.	c #8D1D1D",
"&.	c #7B2121",
"*.	c #512C2C",
"=.	c #3C2F2F",
"-.	c #2B2B2B",
";.	c #373232",
">.	c #512B2B",
",.	c #A51717",
"'.	c #871E1E",
").	c #7F2020",
"!.	c #622727",
"~.	c #303232",
"{.	c #232323",
"].	c #313232",
"^.	c #9C1919",
"/.	c #C80E0E",
"(.	c #DE0808",
"_.	c #DA0909",
":.	c #B81212",
"<.	c #861E1E",
"[.	c #762222",
"}.	c #313333",
"|.	c #383232",
"1.	c #9E1818",
"2.	c #C90D0D",
"3.	c #EE0404",
"4.	c #FD0801",
"5.	c #F70402",
"6.	c #D50B0B",
"7.	c #B21313",
"8.	c #542B2B",
"9.	c #921B1B",
"0.	c #C70E0E",
"a.	c #EA0505",
"b.	c #F60002",
"c.	c #FF2400",
"d.	c #FF1B00",
"e.	c #F10303",
"f.	c #EC0405",
"g.	c #B41313",
"h.	c #752323",
"i.	c #D20B0B",
"j.	c #FF0100",
"k.	c #FF1500",
"l.	c #FF3000",
"m.	c #FF3300",
"n.	c #FF1700",
"o.	c #D9090A",
"p.	c #991919",
"q.	c #292A2A",
"r.	c #3E3030",
"s.	c #9F1818",
"t.	c #FF1100",
"u.	c #FF2500",
"v.	c #FF3700",
"w.	c #FF3E00",
"x.	c #F40303",
"y.	c #AE1414",
"z.	c #8C1D1D",
"A.	c #3D3131",
"B.	c #333131",
"C.	c #9A1919",
"D.	c #DB0909",
"E.	c #FF0A00",
"F.	c #FF2100",
"G.	c #FF2900",
"H.	c #F90601",
"I.	c #E90505",
"J.	c #CD0C0C",
"K.	c #B01414",
"L.	c #831F1F",
"M.	c #CE0C0C",
"N.	c #F10403",
"O.	c #FB0501",
"P.	c #F90502",
"Q.	c #FF0500",
"R.	c #C60E0E",
"S.	c #941B1B",
"T.	c #782222",
"U.	c #3F3030",
"V.	c #B51313",
"W.	c #B71212",
"X.	c #BA1111",
"Y.	c #E50606",
"Z.	c #AA1515",
"`.	c #3B3232",
" +	c #2F3030",
".+	c #851E1E",
"++	c #8E1C1C",
"@+	c #C10F0F",
"#+	c #A31717",
"$+	c #7E2020",
"%+	c #532B2B",
"&+	c #3B2D2D",
"*+	c #323030",
"=+	c #911B1B",
"-+	c #9D1919",
";+	c #891D1D",
">+	c #901C1C",
",+	c #891E1E",
"'+	c #592A2A",
")+	c #3A3232",
"!+	c #2E3030",
"~+	c #262727",
"{+	c #343131",
"]+	c #712424",
"^+	c #403030",
"/+	c #2A2B2B",
"(+	c #7A2121",
"_+	c #6D2525",
":+	c #2A2C2C",
"<+	c #712323",
"[+	c #4C2D2D",
"}+	c #413030",
"|+	c #352C2C",
"1+	c #452F2F",
"2+	c #373131",
"3+	c #3D2F2F",
"4+	c #2C2E2E",
"5+	c #402E2E",
"6+	c #2F2828",
"7+	c #512D2D",
"8+	c #272929",
"                                                                                                    ",
"                                                                                                    ",
"                                                                                                    ",
"                                                                                                    ",
"                                                                                                    ",
"                                                                                                    ",
"                                                                                                    ",
"                                                                                                    ",
"                                                                                                    ",
"                                                                                                    ",
"                                              .                                                     ",
"                                          + @ # $ . $ % &                                           ",
"                                      & * # = - ; > , ' ) ! # #                                     ",
"                                  & @ = ~ ~ ) { ] ^ / ( _ : < [ }                                   ",
"                              + * = | 1 , 2 3 4 5 6 7 8 9 0 a b c = d                               ",
"                              ! e e f g h i j j k l m n o p q r s e . d                             ",
"                            * t u g v _ k w / 0 x y m z 7 A x q u < # * &                           ",
"                            ~ f b s B ^ C D q E F G ^ H D I F J / r K ! *                           ",
"                          + ~ , L h r J M H ^ J N O P Q Q l R S N 0 T K #                           ",
"                            ~ U r a V p W Q X Y N Q N 7 S Z z Z Y ` b  .$                           ",
"                          + ..s a 5 P ^ P Q n +.@.Y I o #.$.%.&.O *.=.-.                            ",
"                          & ~ ;.>.] W M +.$.,.,.'.y 9 k A ).Z #.!.*.~..                             ",
"                        {.* ].u r ( k o ^./.(._.:.<.] 0 r x [.F k _ }.&                             ",
"                        {.# ].|.V A [.1.2.3.4.5.6.7.R N 0 ^ ] X 8.B }.&                             ",
"                        * t |.4 / o 9.0.a.b.c.d.e.f.g.z o A 5 8.V 4 ~.&                             ",
"                      + ! < w j ` h.9.i.j.k.l.m.l.n.o.p.&.I x ^ 8.a f q.                            ",
"                      d = s r.v ] X s.(.t.u.n.v.w.u.x.y.z.#.8 +.J q A.q.                            ",
"                        ! B.1 u q k C.D.E.F.t.F.G.H.I.J.K.L.#.J P 8.r.) .                           ",
"                        -.| ]., B >.L.M.N.O.5.P.Q.R.,.S.9.T.H ^ 9 ] U.].-.                          ",
"                        & -.B.U *.` &.V.6.0.W.X.Y.Z.z.8 @.^ ^ N I ] a `.=                           ",
"                        d .  +v P ^ S s.y..+).++@+#+$+Q ` ] H J !.0 %+&+d                           ",
"                          -.*+A.q E y =+-+<.;+>+,+<.T.G ^ '+0 / / )+!+~+                            ",
"                          -.| {+b q Y .+n n .+]+N x o H ^ B ^+{ { ]..                               ",
"                          $ * /+~.j A S (+I 8 A _+P W 8./ r.s T g *                                 ",
"                                :+B x 7 #.F !.O I <+'+a r T i U q.                                  ",
"                                -.u 0 P o '+/ 5 l 9 [+}+3 U ]...                                    ",
"                                  |+i ;.1+T 2+3+P y ^+| = ! ! &                                     ",
"                                  + @ $  . +-.4+] T.5+..@   d                                       ",
"                                              6+7+D 8+                                              ",
"                                                                                                    ",
"                                                                                                    ",
"                                                                                                    ",
"                                                                                                    ",
"                                                                                                    ",
"                                                                                                    ",
"                                                                                                    ",
"                                                                                                    ",
"                                                                                                    ",
"                                                                                                    ",
"                                                                                                    "};
