/* XPM */
static char * exp26_xpm[] = {
"50 50 301 2",
"  	c None",
". 	c #2D2D2D",
"+ 	c #562929",
"@ 	c #322D2D",
"# 	c #252525",
"$ 	c #262626",
"% 	c #282828",
"& 	c #4B2F2F",
"* 	c #7B2121",
"= 	c #522A2A",
"- 	c #2A2D2D",
"; 	c #292929",
"> 	c #322F2F",
", 	c #303131",
"' 	c #353131",
") 	c #2B2D2D",
"! 	c #2C2D2D",
"~ 	c #252828",
"{ 	c #313232",
"] 	c #323131",
"^ 	c #4B2D2D",
"/ 	c #4C2D2D",
"( 	c #472E2E",
"_ 	c #4E2D2D",
": 	c #4A2E2E",
"< 	c #393131",
"[ 	c #2E2E2E",
"} 	c #2A2A2A",
"| 	c #242424",
"1 	c #313030",
"2 	c #3B2F2F",
"3 	c #472D2D",
"4 	c #492E2E",
"5 	c #662626",
"6 	c #6C2525",
"7 	c #6F2424",
"8 	c #722323",
"9 	c #5F2828",
"0 	c #672626",
"a 	c #592A2A",
"b 	c #3F3030",
"c 	c #393030",
"d 	c #333030",
"e 	c #232323",
"f 	c #2F3030",
"g 	c #302E2E",
"h 	c #382F2F",
"i 	c #3C3131",
"j 	c #522B2B",
"k 	c #542B2B",
"l 	c #652626",
"m 	c #811F1F",
"n 	c #891E1E",
"o 	c #921B1B",
"p 	c #851F1F",
"q 	c #911C1C",
"r 	c #7F2020",
"s 	c #742323",
"t 	c #622727",
"u 	c #682626",
"v 	c #3E3030",
"w 	c #292C2C",
"x 	c #4A2D2D",
"y 	c #582A2A",
"z 	c #512C2C",
"A 	c #5C2929",
"B 	c #532B2B",
"C 	c #632727",
"D 	c #A01818",
"E 	c #B01414",
"F 	c #A41717",
"G 	c #A31717",
"H 	c #9C1919",
"I 	c #881E1E",
"J 	c #802020",
"K 	c #772222",
"L 	c #5B2929",
"M 	c #303030",
"N 	c #272B2B",
"O 	c #472F2F",
"P 	c #612727",
"Q 	c #6E2424",
"R 	c #792222",
"S 	c #702424",
"T 	c #821F1F",
"U 	c #A91616",
"V 	c #B41313",
"W 	c #BF1010",
"X 	c #BE1010",
"Y 	c #951B1B",
"Z 	c #951A1A",
"` 	c #7D2020",
" .	c #5A2929",
"..	c #432F2F",
"+.	c #252727",
"@.	c #871E1E",
"#.	c #8D1C1C",
"$.	c #831F1F",
"%.	c #7E2020",
"&.	c #961A1A",
"*.	c #A11717",
"=.	c #A91515",
"-.	c #B81212",
";.	c #B11414",
">.	c #AA1515",
",.	c #9B1919",
"'.	c #8C1D1D",
").	c #642727",
"!.	c #572A2A",
"~.	c #3D2F2F",
"{.	c #2E2C2C",
"].	c #8F1C1C",
"^.	c #782222",
"/.	c #981A1A",
"(.	c #8B1D1D",
"_.	c #8D1D1D",
":.	c #941B1B",
"<.	c #9F1818",
"[.	c #931B1B",
"}.	c #9E1818",
"|.	c #A81616",
"1.	c #7A2121",
"2.	c #6B2525",
"3.	c #602828",
"4.	c #4B2E2E",
"5.	c #272929",
"6.	c #342E2E",
"7.	c #712424",
"8.	c #991A1A",
"9.	c #8E1C1C",
"0.	c #9A1919",
"a.	c #A61616",
"b.	c #AC1515",
"c.	c #971A1A",
"d.	c #812020",
"e.	c #2A2E2E",
"f.	c #552B2B",
"g.	c #6A2525",
"h.	c #A11818",
"i.	c #901C1C",
"j.	c #CA0D0D",
"k.	c #462F2F",
"l.	c #272828",
"m.	c #332E2E",
"n.	c #861E1E",
"o.	c #B61212",
"p.	c #C80E0E",
"q.	c #CD0C0C",
"r.	c #692626",
"s.	c #492D2D",
"t.	c #2B2E2E",
"u.	c #3A3232",
"v.	c #4D2D2D",
"w.	c #D90909",
"x.	c #D70A0A",
"y.	c #B71212",
"z.	c #A71616",
"A.	c #8A1D1D",
"B.	c #752222",
"C.	c #3D3030",
"D.	c #2B2B2B",
"E.	c #343131",
"F.	c #512B2B",
"G.	c #C70E0E",
"H.	c #F50802",
"I.	c #FF1000",
"J.	c #FF0D00",
"K.	c #E90506",
"L.	c #AD1414",
"M.	c #991919",
"N.	c #2F2F2F",
"O.	c #3A3131",
"P.	c #4D2C2C",
"Q.	c #792121",
"R.	c #D10B0C",
"S.	c #FA0A01",
"T.	c #FF2800",
"U.	c #FF3D00",
"V.	c #FF3A00",
"W.	c #FE0400",
"X.	c #EA0505",
"Y.	c #383232",
"Z.	c #352F2F",
"`.	c #5D2929",
" +	c #6D2525",
".+	c #D80A0A",
"++	c #F80802",
"@+	c #FF2C00",
"#+	c #FF2A00",
"$+	c #FF5800",
"%+	c #FF5C00",
"&+	c #FF3E00",
"*+	c #FF2700",
"=+	c #DE0608",
"-+	c #652727",
";+	c #3B3131",
">+	c #252626",
",+	c #392F2F",
"'+	c #7C2121",
")+	c #FD1001",
"!+	c #FF4500",
"~+	c #FF5B00",
"{+	c #FF7500",
"]+	c #FF7D00",
"^+	c #FF7600",
"/+	c #FF5F00",
"(+	c #FE0F00",
"_+	c #B51212",
":+	c #732323",
"<+	c #3D3131",
"[+	c #2C2E2E",
"}+	c #7D2121",
"|+	c #D20B0B",
"1+	c #FF1B00",
"2+	c #FF4D00",
"3+	c #FF6D00",
"4+	c #FF4700",
"5+	c #FF6900",
"6+	c #FF7E00",
"7+	c #FF6400",
"8+	c #FF3100",
"9+	c #E30507",
"0+	c #AE1414",
"a+	c #373232",
"b+	c #552A2A",
"c+	c #CD0C0D",
"d+	c #FF1300",
"e+	c #FF4000",
"f+	c #FF5600",
"g+	c #FF4B00",
"h+	c #FF6300",
"i+	c #FF2300",
"j+	c #F70402",
"k+	c #DB0909",
"l+	c #BB1111",
"m+	c #4C2C2C",
"n+	c #2B2C2C",
"o+	c #333131",
"p+	c #AB1515",
"q+	c #F50502",
"r+	c #FF2F00",
"s+	c #FF2600",
"t+	c #FF3C00",
"u+	c #F40303",
"v+	c #D90809",
"w+	c #C50E0E",
"x+	c #2C2F2F",
"y+	c #E80506",
"z+	c #FF0B00",
"A+	c #EC0405",
"B+	c #E40407",
"C+	c #E40307",
"D+	c #FF0F00",
"E+	c #D8090A",
"F+	c #BC1111",
"G+	c #841F1F",
"H+	c #A51717",
"I+	c #482E2E",
"J+	c #363232",
"K+	c #5E2828",
"L+	c #D00C0C",
"M+	c #C01010",
"N+	c #F10303",
"O+	c #D50B0B",
"P+	c #AF1414",
"Q+	c #372F2F",
"R+	c #2E2D2D",
"S+	c #5D2828",
"T+	c #CC0D0D",
"U+	c #D40B0B",
"V+	c #C11010",
"W+	c #BD1111",
"X+	c #272727",
"Y+	c #403030",
"Z+	c #752323",
"`+	c #AD1515",
" @	c #9D1818",
".@	c #452F2F",
"+@	c #C50F0F",
"@@	c #B21313",
"#@	c #A51616",
"$@	c #592929",
"%@	c #452E2E",
"&@	c #6D2424",
"*@	c #4E2C2C",
"=@	c #3F2F2F",
"-@	c #313131",
";@	c #442F2F",
">@	c #562A2A",
",@	c #762222",
"'@	c #312F2F",
")@	c #5A2A2A",
"!@	c #343333",
"~@	c #2D2F2F",
"{@	c #2E2F2F",
"]@	c #362F2F",
"^@	c #7C2222",
"/@	c #322C2C",
"(@	c #2D2E2E",
"_@	c #363030",
":@	c #2C2C2C",
"                                                                                                    ",
"                                                                                                    ",
"                                                                                                    ",
"                                                                                                    ",
"                                                                                                    ",
"                                                                                                    ",
"                                                                                                    ",
"                                                                                                    ",
"                                                                                                    ",
"                                      . + @   # $ %                                                 ",
"                                    & * = - ; > , ' ) ! %                                           ",
"                                  # ~ { ] ) , ^ / ( _ : < [ }                                       ",
"                                | } 1 2 3 4 5 6 7 8 9 0 a / b c d                                   ",
"                            e f g h i 4 j k l m n o p q r s 5 t u v ! ;                             ",
"                            w 3 x y z A 6 B C * D E F G H I J K 8 L v M |                           ",
"                          N O P Q K Q Q R t S T U V W X V Y Z ` S u  ...)                           ",
"                        +.+ @.#.T K J $.m %.$.&.*.=.-.;.;.>.,.'.K 6 ).!.~.;                         ",
"                        {.y n ].^.s J ]./.(._.:.<.[.Z (.(.}.|._.R 1.2.3.4.5.                        ",
"                        6.7 7.$.I ` J Z 8.9.(.0.a.Z :./.o D -.b.c.d.7 P : $                         ",
"                        e.f.g.* $.'.^.(.0.&.o h.i.,.a.F V -.j.W D n R t k.l.                        ",
"                        m.z C K n.Z Z 9.I q o.a.&.*.<.D b.p.q.>.0.d.r.s.t.                          ",
"                      % u.v.L Q n.Y D c.H b.w.x.y.z.:.A.o y.W >.0.B. .C.}                           ",
"                      D.E.F.3.u ^.(.c.o G.H.I.J.K.L.I r ^.M.;.G (.Q  .'                             ",
"                      N.O.P.t r.Q./.U R.S.T.U.V.W.X.E M.I I i.c.* 6  .Y.                            ",
"                    e Z.v.`.7  +I D .+++@+#+$+%+&+*+=+V >.M.@.m J -+k ;+>+                          ",
"                      ,+0 2.S '+i.,.j.)+!+~+{+]+^+/+(+G._+>.}.c.#.:+L <+[+                          ",
"                      ,+L 6 S J }+&.|+1+2+3+4+5+6+7+8+9+W =.o.0+H %.2.^ a+#                         ",
"                      2 b+0 2.K m A.c+d+e+f+g+/+h+U.i+j+k+l+b.}.[.J 7.9 m+n+                        ",
"                      o+/ y 5 7 K T p+q+r+s+U.&+t+u+v+j.w+F A.}.<._.n.s k x+                        ",
"                      N.C.^  .6 ^.p |.y+z+A+B+C+D+E+F+z.D G+#.F H+a.0+/.I+D.                        ",
"                      } J+s.K+r.` q z.L+X.M+y.X N+O+P+9.#.'.Z F *.b.>.c.Q+#                         ",
"                      e R+i S+Q %.(.G T+U+V+M+X W+o.U &.(.q M.o @.[._.A                             ",
"                        X+Y.Y+C Z+d.H+T+`+V ;.H+&. @&.q A.9.(.n Q R u 2                             ",
"                          l.d .@).` D +@@@M.}.[.#@<.A._.%.n.1.s Q g.,                               ",
"                            X+E.^ 0 '.p+l+P+h.Y L.:.'+n.7 s 2.3.$@%@+.                              ",
"                              . b y ^.q c.&.(.[.a.0.&@g.5 2.A *@=@R+                                ",
"                              e -@;@>@S Q ,@2.:+&.o.s A B F.F.C.'@|                                 ",
"                                $ M v z ^ $@3.-+#@.+%.)@^ a+;+!@}                                   ",
"                                    ! ~@{@M ]@;@R ^@/@~ ) (@_@l.                                    ",
"                                                        # X+:@                                      ",
"                                                                                                    ",
"                                                                                                    ",
"                                                                                                    ",
"                                                                                                    ",
"                                                                                                    ",
"                                                                                                    ",
"                                                                                                    ",
"                                                                                                    ",
"                                                                                                    ",
"                                                                                                    "};
