/* XPM */
static char * exp24_xpm[] = {
"50 50 385 2",
"  	c None",
". 	c #2A2C2C",
"+ 	c #2A2B2B",
"@ 	c #A81717",
"# 	c #B21014",
"$ 	c #782020",
"% 	c #532A2A",
"& 	c #302C2C",
"* 	c #412C2C",
"= 	c #542929",
"- 	c #552B2B",
"; 	c #472D2D",
"> 	c #402E2E",
", 	c #2E2D2D",
"' 	c #282828",
") 	c #423131",
"! 	c #F60002",
"~ 	c #F22603",
"{ 	c #CE0A0C",
"] 	c #542B2B",
"^ 	c #3B3030",
"/ 	c #662626",
"( 	c #911C1C",
"_ 	c #861E1E",
": 	c #762222",
"< 	c #752323",
"[ 	c #522B2B",
"} 	c #472F2F",
"| 	c #2F2D2D",
"1 	c #272727",
"2 	c #242424",
"3 	c #293131",
"4 	c #7A2121",
"5 	c #5C2929",
"6 	c #562A2A",
"7 	c #402F2F",
"8 	c #442F2F",
"9 	c #572A2A",
"0 	c #941B1B",
"a 	c #A41717",
"b 	c #A11717",
"c 	c #971A1A",
"d 	c #8D1C1C",
"e 	c #742323",
"f 	c #383030",
"g 	c #2D2F2F",
"h 	c #282929",
"i 	c #2A2A2A",
"j 	c #373131",
"k 	c #333232",
"l 	c #612828",
"m 	c #6C2525",
"n 	c #7B2121",
"o 	c #732323",
"p 	c #8B1D1D",
"q 	c #A51616",
"r 	c #B91111",
"s 	c #C50E0E",
"t 	c #BA1111",
"u 	c #B61212",
"v 	c #991A1A",
"w 	c #7F2020",
"x 	c #6A2525",
"y 	c #512C2C",
"z 	c #3B2F2F",
"A 	c #302D2D",
"B 	c #2C2E2E",
"C 	c #422F2F",
"D 	c #4A2D2D",
"E 	c #532B2B",
"F 	c #6F2424",
"G 	c #802020",
"H 	c #8F1C1C",
"I 	c #831F1F",
"J 	c #821F1F",
"K 	c #931B1B",
"L 	c #B91212",
"M 	c #CE0C0C",
"N 	c #DD0808",
"O 	c #D70A0A",
"P 	c #DD0909",
"Q 	c #BB1111",
"R 	c #A01818",
"S 	c #871E1E",
"T 	c #901C1C",
"U 	c #792121",
"V 	c #712424",
"W 	c #3F2E2E",
"X 	c #262727",
"Y 	c #292A2A",
"Z 	c #4C2B2B",
"` 	c #811F1F",
" .	c #8C1D1D",
"..	c #911B1B",
"+.	c #981A1A",
"@.	c #991919",
"#.	c #B31313",
"$.	c #DC0909",
"%.	c #EB0505",
"&.	c #F30503",
"*.	c #F30303",
"=.	c #DF0808",
"-.	c #C10F0F",
";.	c #9E1818",
">.	c #9F1818",
",.	c #921B1B",
"'.	c #382F2F",
").	c #292929",
"!.	c #412D2D",
"~.	c #AA1515",
"{.	c #A21717",
"].	c #A61616",
"^.	c #A71616",
"/.	c #961A1A",
"(.	c #B41313",
"_.	c #E00808",
":.	c #F50403",
"<.	c #FC0201",
"[.	c #FF0600",
"}.	c #D30B0B",
"|.	c #C11010",
"1.	c #AE1414",
"2.	c #7E2020",
"3.	c #4F2C2C",
"4.	c #333131",
"5.	c #362C2C",
"6.	c #DA0909",
"7.	c #EF0B04",
"8.	c #E70506",
"9.	c #A31717",
"0.	c #B51313",
"a.	c #AF1414",
"b.	c #B51212",
"c.	c #C40F0F",
"d.	c #DB0909",
"e.	c #E70606",
"f.	c #F50203",
"g.	c #F50303",
"h.	c #D60A0A",
"i.	c #B01414",
"j.	c #B11414",
"k.	c #403030",
"l.	c #4D2C2C",
"m.	c #AC1515",
"n.	c #FB0B01",
"o.	c #9A1919",
"p.	c #A91616",
"q.	c #C01010",
"r.	c #CD0D0D",
"s.	c #CB0D0D",
"t.	c #CD0C0C",
"u.	c #BC1111",
"v.	c #BD1010",
"w.	c #D00C0C",
"x.	c #E30707",
"y.	c #B21313",
"z.	c #5D2929",
"A.	c #2A2D2D",
"B.	c #242626",
"C.	c #502C2C",
"D.	c #BD1111",
"E.	c #D40A0B",
"F.	c #CA0D0D",
"G.	c #D40B0B",
"H.	c #C20F0F",
"I.	c #BF1010",
"J.	c #D20B0B",
"K.	c #D50B0B",
"L.	c #C90E0E",
"M.	c #C70E0E",
"N.	c #E90606",
"O.	c #D10B0B",
"P.	c #B11313",
"Q.	c #4E2C2C",
"R.	c #272A2A",
"S.	c #A11818",
"T.	c #C30F0F",
"U.	c #B71212",
"V.	c #CC0D0D",
"W.	c #C90D0D",
"X.	c #C80E0E",
"Y.	c #CF0C0C",
"Z.	c #EE0404",
"`.	c #F40303",
" +	c #FA0101",
".+	c #F10303",
"++	c #502A2A",
"@+	c #343030",
"#+	c #652727",
"$+	c #C50F0F",
"%+	c #E40707",
"&+	c #FE0400",
"*+	c #FF0900",
"=+	c #9B1919",
"-+	c #272B2B",
";+	c #632727",
">+	c #951B1B",
",+	c #9D1818",
"'+	c #AB1515",
")+	c #C60E0E",
"!+	c #DD0609",
"~+	c #FA0D01",
"{+	c #FD0C01",
"]+	c #ED0404",
"^+	c #F00304",
"/+	c #FA0201",
"(+	c #E90505",
"_+	c #812020",
":+	c #4E2D2D",
"<+	c #3D2D2D",
"[+	c #642727",
"}+	c #782222",
"|+	c #891E1E",
"1+	c #F50902",
"2+	c #FF3200",
"3+	c #FF5600",
"4+	c #FF4F00",
"5+	c #FF2300",
"6+	c #EA0405",
"7+	c #E60606",
"8+	c #672626",
"9+	c #363131",
"0+	c #7D2020",
"a+	c #8A1D1D",
"b+	c #E00708",
"c+	c #FB0A01",
"d+	c #FF3B00",
"e+	c #FF6B00",
"f+	c #FF8800",
"g+	c #FF6700",
"h+	c #FF2000",
"i+	c #D1090B",
"j+	c #B81212",
"k+	c #851E1E",
"l+	c #602828",
"m+	c #342E2E",
"n+	c #252929",
"o+	c #6D2525",
"p+	c #FF0D00",
"q+	c #FF4700",
"r+	c #FF6C00",
"s+	c #FF8E00",
"t+	c #FF9E00",
"u+	c #FF8C00",
"v+	c #FE1B00",
"w+	c #EF0304",
"x+	c #DE0808",
"y+	c #7C2121",
"z+	c #622727",
"A+	c #372F2F",
"B+	c #262929",
"C+	c #F00004",
"D+	c #FF5300",
"E+	c #FF8700",
"F+	c #FF9600",
"G+	c #FFAC00",
"H+	c #FFBD00",
"I+	c #FFB200",
"J+	c #FF9700",
"K+	c #FF4D00",
"L+	c #F70302",
"M+	c #EA0505",
"N+	c #A81616",
"O+	c #212626",
"P+	c #4A2525",
"Q+	c #F80502",
"R+	c #FF5800",
"S+	c #FF8600",
"T+	c #FFA400",
"U+	c #FF8300",
"V+	c #FFA500",
"W+	c #FFB300",
"X+	c #FFA300",
"Y+	c #FF6400",
"Z+	c #FE1400",
"`+	c #D90909",
" @	c #E80606",
".@	c #3F3030",
"+@	c #AD1414",
"@@	c #F20603",
"#@	c #FF5500",
"$@	c #FF7900",
"%@	c #FF9400",
"&@	c #FF8D00",
"*@	c #FF9900",
"=@	c #FF7D00",
"-@	c #FF4000",
";@	c #FF1200",
">@	c #2B2C2C",
",@	c #322C2C",
"'@	c #DB0609",
")@	c #FF3800",
"!@	c #FF7700",
"~@	c #FF7B00",
"{@	c #FF7800",
"]@	c #FF2100",
"^@	c #FE0E00",
"/@	c #FA0601",
"(@	c #F60502",
"_@	c #5E2828",
":@	c #392E2E",
"<@	c #D6090A",
"[@	c #FF2700",
"}@	c #FF5200",
"|@	c #FC1801",
"1@	c #FD1800",
"2@	c #FD1500",
"3@	c #EF0404",
"4@	c #E10707",
"5@	c #F40203",
"6@	c #FE0800",
"7@	c #292C2C",
"8@	c #232323",
"9@	c #313030",
"0@	c #692626",
"a@	c #772222",
"b@	c #9D1919",
"c@	c #FD0A00",
"d@	c #E60506",
"e@	c #E90406",
"f@	c #FD0301",
"g@	c #E20707",
"h@	c #F50503",
"i@	c #F30703",
"j@	c #ED0805",
"k@	c #363030",
"l@	c #4C2D2D",
"m@	c #692525",
"n@	c #FF0A00",
"o@	c #F90102",
"p@	c #F00404",
"q@	c #F70202",
"r@	c #F90302",
"s@	c #EC0505",
"t@	c #2C2F2F",
"u@	c #303131",
"v@	c #3A3131",
"w@	c #841F1F",
"x@	c #E80506",
"y@	c #E90405",
"z@	c #D50A0A",
"A@	c #D10C0C",
"B@	c #3B2D2D",
"C@	c #262828",
"D@	c #A91515",
"E@	c #FA0701",
"F@	c #EE0304",
"G@	c #D80A0A",
"H@	c #AD1515",
"I@	c #8D1D1D",
"J@	c #3C3131",
"K@	c #272929",
"L@	c #302F2F",
"M@	c #F80302",
"N@	c #F20303",
"O@	c #2F3131",
"P@	c #292B2B",
"Q@	c #472E2E",
"R@	c #851F1F",
"S@	c #8E1C1C",
"T@	c #292E2E",
"U@	c #7D2121",
"V@	c #881E1E",
"W@	c #6B2525",
"X@	c #222828",
"Y@	c #6E2424",
"Z@	c #432F2F",
"`@	c #3E2F2F",
" #	c #462D2D",
".#	c #592A2A",
"+#	c #492D2D",
"@#	c #432C2C",
"##	c #7B2222",
"$#	c #512A2A",
"%#	c #422D2D",
"&#	c #353030",
"*#	c #2E2E2E",
"=#	c #322F2F",
"-#	c #252727",
";#	c #2F2C2C",
">#	c #4A2E2E",
",#	c #412F2F",
"'#	c #2E2B2B",
")#	c #442626",
"!#	c #413030",
"                                                                                                    ",
"                                                                                                    ",
"                                                                                                    ",
"                                                                                                    ",
"                                                                                                    ",
"                                                                                                    ",
"                                                                                                    ",
"                                                                                                    ",
"                                                . +                                                 ",
"                                  @ # $ % & * = - ; > , '                                           ",
"                                ) ! ~ { ] ^ / ( _ : < [ } |                                         ",
"                            1 2 3 4 5 6 7 8 9 0 a b c d e 9 f g h                                   ",
"                          i + j k l m n < o p q r s t u v w x l y z A                               ",
"                          B C D E F G H I J K L M N O P Q R S H T U V W X                           ",
"                        Y Z / x `  ...+.0 H @.#.$.%.&.*.=.-.a ;.>.,.I x '.).                        ",
"                        !.G ~.{.].^.;.].>._ /.(._.:.<.[.*.}.|.^.{.1.+.2.3.4.                        ",
"                      5./.6.7.8.Q 9.a 0.t a.b.c.d.e.f.f.g.$.h.i.9.j.9. ./ k.h                       ",
"                      l.m.m.n.%.m.o.p.q.M r.s.c.r.M t.u.v.w.x.y.i.a.a./.G z.A.                      ",
"                    B.C.~.D.E.O i.{.m.F.G.H.I.J.K.J.L.M.I.w.N.O O.q.P.{.c Q..                       ",
"                    R.m S.s.0.-.T.U.i.V.W.X.s Y.L.M.P d.Z.`. +.+N s (./.` ++                        ",
"                    @+#+9.u.u.r c.L.O.V.U.T._.t.$+O.6.K.%+&+*+e.O r =+4 6 -+                        ",
"                    ^ ;+>+o.,+'+u T.K.)+s.!+~+{+]+O w.i.$+^+/+(+V.'++._+:+                          ",
"                    <+[+}+|+..H >.(.)+u.1+2+3+4+5+6+P.(.a O 7+d.U.@._ 8+9+                          ",
"                    g m w 0+a+0 j.W.b+c+d+e+f+g+d+h+i+r.j+u )+v.q ,.k+l+m+                          ",
"                    n+o+J _+_ b j+$.p+q+r+e+s+t+u+g+v+w+x+V.(.o.y.o.y+z+A+                          ",
"                    B+;+ .c =+j.Q s.C+D+E+F+G+H+I+J+K+L+M+_.N J.X.N+_ m 5 k O+P+                    ",
"                      l+0 {.a 1.y.H.Q+R+S+T+U+V+W+X+Y+Z+.+`+%. @V.y.,.2.F .@.                       ",
"                    . #+T o.;.+@j+U.@@#@$@%@&@*@t+=@e+-@;@w+=.w.s.r R K U 8 >@                      ",
"                    ,@9 p S T =+i.m.'@)@e+r+!@~@{@]@^@/@(@K.b.V.G.G.M.(.,+_@-+                      ",
"                    :@[+n 2.p H 9.u <@[@}@|@1@2@K+c+3@4@w.1.q.%+5@6@[.(+b.=+7@                      ",
"                  8@9@Q.0@a@p b@y.X.6.c@]@d@x+e@[@f@g@T.c.U.J.x+h@i@j@K.a.l.                        ",
"                    i k@l@m@0 N+Q V.P c+n@o@p@q@r@s@x.F.I.)+O F.H.T.1.e t@                          ",
"                        u@v@w@o.t u.x@*+y@x. @z@c.q.A@s.q.c.Q a.a >.[+B@                            ",
"                          C@} m@v D@d.E@F@G@M H.d.w.r (.i.H@N+9.{.I@J@K@                            ",
"                            L@l+I b V.e.M@N@=.O.e.}.{.>.o./.=+R @.2.O@                              ",
"                            P@Q@k+{.j+r.g@x+A@M h.X.o...R@..d S@0 x T@                              ",
"                              k 8+,.H@(.I.c.,+0 u O.a+p U@V@4 }+8+W@X@                              ",
"                                > : w@4 I@{.2.p L.(+m.,+R w Y@V Z@`@                                ",
"                                B+ #[ _@.#+#W @#}+##$#%#4 o+m Z@&#K@                                ",
"                                  K@*#*#=#-#          ;#>#l+- ,#'#                                  ",
"                                                      )#!#j B+i                                     ",
"                                                          8@2 '                                     ",
"                                                                                                    ",
"                                                                                                    ",
"                                                                                                    ",
"                                                                                                    ",
"                                                                                                    ",
"                                                                                                    ",
"                                                                                                    ",
"                                                                                                    "};
