/* XPM */
static char * exp27_xpm[] = {
"50 50 267 2",
"  	c None",
". 	c #282828",
"+ 	c #262626",
"@ 	c #272727",
"# 	c #2A2A2A",
"$ 	c #242424",
"% 	c #252525",
"& 	c #292929",
"* 	c #2B2C2C",
"= 	c #313232",
"- 	c #2E3131",
"; 	c #313131",
"> 	c #332F2F",
", 	c #323232",
"' 	c #2D2D2D",
") 	c #2C2C2C",
"! 	c #353333",
"~ 	c #452F2F",
"{ 	c #532B2B",
"] 	c #502C2C",
"^ 	c #4B2D2D",
"/ 	c #482E2E",
"( 	c #4A2D2D",
"_ 	c #402F2F",
": 	c #363131",
"< 	c #342F2F",
"[ 	c #2E2F2F",
"} 	c #232323",
"| 	c #2E2E2E",
"1 	c #292A2A",
"2 	c #333232",
"3 	c #3C3131",
"4 	c #403030",
"5 	c #452E2E",
"6 	c #602828",
"7 	c #722323",
"8 	c #702424",
"9 	c #6E2424",
"0 	c #6D2525",
"a 	c #632727",
"b 	c #5F2828",
"c 	c #4E2C2C",
"d 	c #472E2E",
"e 	c #3E2F2F",
"f 	c #2C2F2F",
"g 	c #332D2D",
"h 	c #343131",
"i 	c #432F2F",
"j 	c #462E2E",
"k 	c #831F1F",
"l 	c #921B1B",
"m 	c #8A1D1D",
"n 	c #8B1D1D",
"o 	c #871E1E",
"p 	c #6F2424",
"q 	c #652626",
"r 	c #4F2C2C",
"s 	c #462F2F",
"t 	c #2D2E2E",
"u 	c #292D2D",
"v 	c #492D2D",
"w 	c #5A2929",
"x 	c #4C2D2D",
"y 	c #552A2A",
"z 	c #622727",
"A 	c #4D2D2D",
"B 	c #512B2B",
"C 	c #6B2525",
"D 	c #841F1F",
"E 	c #931B1B",
"F 	c #9E1818",
"G 	c #9B1919",
"H 	c #7F2020",
"I 	c #762222",
"J 	c #6A2525",
"K 	c #572A2A",
"L 	c #353232",
"M 	c #2A2C2C",
"N 	c #5D2929",
"O 	c #5C2929",
"P 	c #712424",
"Q 	c #642727",
"R 	c #662626",
"S 	c #732323",
"T 	c #851E1E",
"U 	c #971A1A",
"V 	c #9D1818",
"W 	c #802020",
"X 	c #712323",
"Y 	c #3F3030",
"Z 	c #363232",
"` 	c #382D2D",
" .	c #5B2929",
"..	c #692525",
"+.	c #7B2121",
"@.	c #742323",
"#.	c #792222",
"$.	c #861E1E",
"%.	c #7D2020",
"&.	c #652727",
"*.	c #582A2A",
"=.	c #422F2F",
"-.	c #3A3030",
";.	c #592A2A",
">.	c #7C2121",
",.	c #811F1F",
"'.	c #752222",
").	c #792121",
"!.	c #7E2020",
"~.	c #991919",
"{.	c #8F1C1C",
"].	c #562A2A",
"^.	c #393232",
"/.	c #242525",
"(.	c #352E2E",
"_.	c #542B2B",
":.	c #612828",
"<.	c #7A2121",
"[.	c #891D1D",
"}.	c #851F1F",
"|.	c #901C1C",
"1.	c #961A1A",
"2.	c #A71616",
"3.	c #A01818",
"4.	c #6D2424",
"5.	c #423030",
"6.	c #2F3030",
"7.	c #302F2F",
"8.	c #3E3030",
"9.	c #752323",
"0.	c #8D1D1D",
"a.	c #941B1B",
"b.	c #A51616",
"c.	c #AE1414",
"d.	c #323030",
"e.	c #313030",
"f.	c #682626",
"g.	c #C60E0E",
"h.	c #BB1111",
"i.	c #891E1E",
"j.	c #9D1919",
"k.	c #A21717",
"l.	c #8C1D1D",
"m.	c #2D2F2F",
"n.	c #772222",
"o.	c #B11313",
"p.	c #E60606",
"q.	c #F30303",
"r.	c #F20203",
"s.	c #CF0C0C",
"t.	c #5D2828",
"u.	c #881E1E",
"v.	c #442F2F",
"w.	c #373131",
"x.	c #522B2B",
"y.	c #B41313",
"z.	c #E90505",
"A.	c #FF0700",
"B.	c #FF2600",
"C.	c #FF1500",
"D.	c #E80406",
"E.	c #CA0D0D",
"F.	c #951B1B",
"G.	c #812020",
"H.	c #592929",
"I.	c #413030",
"J.	c #303232",
"K.	c #5E2828",
"L.	c #B31313",
"M.	c #DE0708",
"N.	c #FF0A00",
"O.	c #FE1900",
"P.	c #FF4400",
"Q.	c #FF3C00",
"R.	c #FF1700",
"S.	c #FF0B00",
"T.	c #C90D0E",
"U.	c #6C2525",
"V.	c #672626",
"W.	c #3D3030",
"X.	c #312F2F",
"Y.	c #2F2F2F",
"Z.	c #AC1515",
"`.	c #EC0405",
" +	c #FF2000",
".+	c #FF3B00",
"++	c #FF4E00",
"@+	c #FF5C00",
"#+	c #FF5700",
"$+	c #FF3600",
"%+	c #EE0404",
"&+	c #B01414",
"*+	c #821F1F",
"=+	c #363333",
"-+	c #B51212",
";+	c #F60902",
">+	c #FF3000",
",+	c #FF4700",
"'+	c #FF3100",
")+	c #FF5100",
"!+	c #FF5E00",
"~+	c #FF4B00",
"{+	c #FF1300",
"]+	c #C90E0E",
"^+	c #A61616",
"/+	c #552B2B",
"(+	c #2B2B2B",
"_+	c #AF1414",
":+	c #F60602",
"<+	c #FF2500",
"[+	c #FF2F00",
"}+	c #FF4800",
"|+	c #FF2300",
"1+	c #FC0E01",
"2+	c #E50606",
"3+	c #C70E0E",
"4+	c #333131",
"5+	c #343333",
"6+	c #DD0808",
"7+	c #FF0C00",
"8+	c #FF1400",
"9+	c #FF1000",
"0+	c #FF1D00",
"a+	c #E20407",
"b+	c #BF1010",
"c+	c #AA1515",
"d+	c #3F2F2F",
"e+	c #373232",
"f+	c #911C1C",
"g+	c #CD0D0D",
"h+	c #CD0C0C",
"i+	c #CD0C0D",
"j+	c #FD0000",
"k+	c #3B3131",
"l+	c #B51313",
"m+	c #CC0D0D",
"n+	c #A31717",
"o+	c #9C1919",
"p+	c #DC0909",
"q+	c #782222",
"r+	c #552929",
"s+	c #B91212",
"t+	c #A41717",
"u+	c #AB1515",
"v+	c #692626",
"w+	c #981A1A",
"x+	c #3B3030",
"y+	c #303030",
"z+	c #302E2E",
"A+	c #262828",
"B+	c #3D3131",
"C+	c #7D2121",
"D+	c #512C2C",
"E+	c #3A3232",
"F+	c #2C2E2E",
"G+	c #323333",
"H+	c #323434",
"I+	c #343232",
"J+	c #2C2D2D",
"K+	c #393030",
"L+	c #372F2F",
"M+	c #3E3131",
"N+	c #951A1A",
"O+	c #C80E0E",
"P+	c #433030",
"Q+	c #7C2222",
"R+	c #3E2929",
"                                                                                                    ",
"                                                                                                    ",
"                                                                                                    ",
"                                                                                                    ",
"                                                                                                    ",
"                                                                                                    ",
"                                                                                                    ",
"                                                                                                    ",
"                                                                                                    ",
"                                          .                                                         ",
"                                      + @ # @ $ % @ @ % %                                           ",
"                                      + & + * = - ; > , ' @ %                                       ",
"                                    % ) ! = ~ { ] ^ / ( _ : < [ )                                   ",
"                              } & | 1 2 3 4 5 6 7 8 9 0 a b c d e f                                 ",
"                            $ g h ^ 3 / ] i j 6 k l m n o p q b r s t +                             ",
"                            u v d w x y z A B C D E F G l H I J K d L ' @                           ",
"                          M { b w N b O P Q R S T l U V E n W X z c Y Z |                           ",
"                          ` y a  .O ..p +.7 8 @.W D 7 @.#.m $.%.&.*.v =.=                           ",
"                          -.v ;.z b 6 >.H I @.%.o ,.'.).W !.~.{.%.C ].( ^./.                        ",
"                          (.5 _.z 9 :.P +.).<.[.@.>.}.|.1.V 2.3.{.4.N 5.6.                          ",
"                        $ 7.8.{ q #.!.'.C 9.V 0.<.D k T a.b.c.n <.b / d.@                           ",
"                        & e.4 B f.'.H <.H ~.g.h.G i.).P +.j.k.l.#.6 ( m.                            ",
"                        # 2 i { 6 p '.n.o.p.q.r.s.~.p R t.!.E u.p ].v.[                             ",
"                      % ) w.j x.Q @.n y.z.A.B.C.D.E.F.G.7 J 9.>. .H.I.7.                            ",
"                      . J.j { K.0 k L.M.N.O.P.Q.R.S.T.V u.!.U.V.b y W.X.                            ",
"                      Y.4 r H.Q @.>.Z.`. +.+++@+#+$+%+&+U [.*+n.9.w I.7.+                           ",
"                      & =+] H.K ..,.-+;+>+,+'+)+!+~+{+]+^+0.l.m k a /+= (+                          ",
"                      # ! x.y O C 9 _+:+<+$+[+.+}+|+1+2+3+3.0.>.W V.*.v.4+$                         ",
"                      @ 5+Y j B b 7 a.6+7+8+N.9+0+a+b+_+c+i.'.#.$.'.a *.d+/.                        ",
"                      @ e.e+8._./+8 f+g+%+6+h+i+j+h.2.m *+X 9 D n ,.C a ~                           ",
"                      $ ) , k+/+6 S m l+m+n+o+3.p+h.|.q+9.8 ).D *+T '.r+7.                          ",
"                        @ t ~ _.z 8 m c.s+^+n+t+u+n+m #.>.I q+@.0 8 &.7.                            ",
"                          1 4 d *.v+l.Z.U 1.w+D u.H o n.@.0 f.J O x x++                             ",
"                          & y+z+=.K.*+2.|.$.$.<.}.W 8 X C V.Q w x w.A+                              ",
"                              # B+r C+a.E T C+!.0.i.9 R w :.c =.^.(+                                ",
"                                = D+p I D ).f.q+%.k z D+A ] =.E+F+                                  ",
"                                (+G+Y *.y ].^ ].I 1.t.4 H+8.I+J+%                                   ",
"                                  (+6.K+L+M+-.d N+O+X P+[ | ' )                                     ",
"                                    % % + 1 ) 8.#.Q+R+    $ & $                                     ",
"                                                                                                    ",
"                                                                                                    ",
"                                                                                                    ",
"                                                                                                    ",
"                                                                                                    ",
"                                                                                                    ",
"                                                                                                    ",
"                                                                                                    ",
"                                                                                                    ",
"                                                                                                    ",
"                                                                                                    "};
