/* XPM */
static char * exp21_xpm[] = {
"50 50 523 2",
"  	c None",
". 	c #252525",
"+ 	c #232525",
"@ 	c #2A2D2D",
"# 	c #2A2C2C",
"$ 	c #272727",
"% 	c #2D2B2B",
"& 	c #312D2D",
"* 	c #262E2E",
"= 	c #4F2D2D",
"- 	c #5F2828",
"; 	c #502C2C",
"> 	c #412F2F",
", 	c #322E2E",
"' 	c #292929",
") 	c #262626",
"! 	c #282B2B",
"~ 	c #4B2C2C",
"{ 	c #7C2221",
"] 	c #B50F13",
"^ 	c #6E2020",
"/ 	c #462828",
"( 	c #4D2B2B",
"_ 	c #7B2121",
": 	c #9F1818",
"< 	c #9E1818",
"[ 	c #A41717",
"} 	c #861E1E",
"| 	c #5D2929",
"1 	c #392A2A",
"2 	c #2E2C2C",
"3 	c #2E2E2E",
"4 	c #292B2B",
"5 	c #3C3131",
"6 	c #901C1C",
"7 	c #F80602",
"8 	c #FF2D00",
"9 	c #E50407",
"0 	c #5E2929",
"a 	c #3B2F2F",
"b 	c #7F2020",
"c 	c #D00B0C",
"d 	c #DA0809",
"e 	c #DF0708",
"f 	c #B61212",
"g 	c #961A1A",
"h 	c #831F1F",
"i 	c #6A2525",
"j 	c #343030",
"k 	c #302F2F",
"l 	c #492E2E",
"m 	c #4F2C2C",
"n 	c #672626",
"o 	c #951A1A",
"p 	c #8C1B1D",
"q 	c #871E1E",
"r 	c #7E2020",
"s 	c #F21003",
"t 	c #FF3500",
"u 	c #FF1900",
"v 	c #F90C02",
"w 	c #E40507",
"x 	c #C11010",
"y 	c #9B1919",
"z 	c #712323",
"A 	c #3E2D2D",
"B 	c #2F2C2C",
"C 	c #343232",
"D 	c #352E2E",
"E 	c #432F2F",
"F 	c #612828",
"G 	c #841F1F",
"H 	c #A81616",
"I 	c #AD1414",
"J 	c #A71616",
"K 	c #D20B0B",
"L 	c #FF1A00",
"M 	c #FF7200",
"N 	c #FF6C00",
"O 	c #FF4900",
"P 	c #FF2B00",
"Q 	c #F70502",
"R 	c #C01010",
"S 	c #AA1515",
"T 	c #9A1919",
"U 	c #712424",
"V 	c #292C2C",
"W 	c #472F2F",
"X 	c #8F1C1C",
"Y 	c #AE1414",
"Z 	c #B51212",
"` 	c #DC0909",
" .	c #E80606",
"..	c #CA0D0D",
"+.	c #C40F0F",
"@.	c #EE0204",
"#.	c #FF3700",
"$.	c #FF8500",
"%.	c #FF8E00",
"&.	c #FF7300",
"*.	c #FF5800",
"=.	c #F90301",
"-.	c #CF0C0C",
";.	c #D90909",
">.	c #D10B0B",
",.	c #BF1010",
"'.	c #8C1D1D",
").	c #472D2D",
"!.	c #222626",
"~.	c #242424",
"{.	c #2C2C2C",
"].	c #3F2C2C",
"^.	c #C30F0F",
"/.	c #B11313",
"(.	c #B41313",
"_.	c #DA0909",
":.	c #F00304",
"<.	c #FF0900",
"[.	c #EA0405",
"}.	c #E90406",
"|.	c #FF2300",
"1.	c #FF7B00",
"2.	c #FF9B00",
"3.	c #FF8700",
"4.	c #FF7800",
"5.	c #FF4D00",
"6.	c #FF2900",
"7.	c #FD0900",
"8.	c #EF0304",
"9.	c #F70202",
"0.	c #EE0404",
"a.	c #D00C0C",
"b.	c #772222",
"c.	c #242D2D",
"d.	c #F50003",
"e.	c #F42403",
"f.	c #F80702",
"g.	c #FE0200",
"h.	c #F00204",
"i.	c #FF1600",
"j.	c #F50603",
"k.	c #D40B0B",
"l.	c #FF0500",
"m.	c #FF6400",
"n.	c #FF9200",
"o.	c #FF8C00",
"p.	c #FF6800",
"q.	c #FF3000",
"r.	c #FF1200",
"s.	c #F60402",
"t.	c #FE0700",
"u.	c #E40707",
"v.	c #CC0D0D",
"w.	c #702424",
"x.	c #353131",
"y.	c #412C2C",
"z.	c #8E1D1D",
"A.	c #CB0D0D",
"B.	c #FF2100",
"C.	c #FF2700",
"D.	c #FF0800",
"E.	c #F50202",
"F.	c #FD0400",
"G.	c #FF0F00",
"H.	c #F30403",
"I.	c #FA0501",
"J.	c #FF3D00",
"K.	c #FF5200",
"L.	c #FF6500",
"M.	c #FF5000",
"N.	c #F90201",
"O.	c #F90402",
"P.	c #FF1B00",
"Q.	c #FF0200",
"R.	c #E90606",
"S.	c #BA1111",
"T.	c #4B2D2D",
"U.	c #312C2C",
"V.	c #9D1818",
"W.	c #FA0801",
"X.	c #E00908",
"Y.	c #D0070C",
"Z.	c #FF6B00",
"`.	c #FF6300",
" +	c #F90902",
".+	c #EB0405",
"++	c #FF1300",
"@+	c #FF1E00",
"#+	c #FF1700",
"$+	c #FF1C00",
"%+	c #FF2200",
"&+	c #FD1100",
"*+	c #F90D01",
"=+	c #FB0001",
"-+	c #FF1500",
";+	c #F70102",
">+	c #931B1B",
",+	c #582A2A",
"'+	c #2A2B2B",
")+	c #442F2F",
"!+	c #7D2121",
"~+	c #F90F02",
"{+	c #F70E02",
"]+	c #F30E03",
"^+	c #FF2E00",
"/+	c #E60606",
"(+	c #FF4400",
"_+	c #FF0400",
":+	c #FF3C00",
"<+	c #FF2800",
"[+	c #FE1800",
"}+	c #FB0F01",
"|+	c #FF1000",
"1+	c #FD0D01",
"2+	c #F50203",
"3+	c #E20707",
"4+	c #5A2727",
"5+	c #323030",
"6+	c #552A2A",
"7+	c #E91205",
"8+	c #FF3E00",
"9+	c #FF2A00",
"0+	c #FF0E00",
"a+	c #F10403",
"b+	c #FF1100",
"c+	c #FF2500",
"d+	c #FF4E00",
"e+	c #FF4F00",
"f+	c #FF5600",
"g+	c #FF4000",
"h+	c #D8090A",
"i+	c #CD0D0D",
"j+	c #9A1A1A",
"k+	c #2E2D2D",
"l+	c #7A2121",
"m+	c #E41207",
"n+	c #FF0300",
"o+	c #FF0D00",
"p+	c #FF1F00",
"q+	c #FF2000",
"r+	c #FF0C00",
"s+	c #FF2400",
"t+	c #FF5300",
"u+	c #FF3A00",
"v+	c #FF2C00",
"w+	c #F30303",
"x+	c #CD0C0C",
"y+	c #991919",
"z+	c #3B2D2D",
"A+	c #382A2A",
"B+	c #232929",
"C+	c #B91111",
"D+	c #DB0A09",
"E+	c #EC0705",
"F+	c #F90901",
"G+	c #FF0A00",
"H+	c #FF3900",
"I+	c #FB0D01",
"J+	c #FF5700",
"K+	c #FF4100",
"L+	c #F80002",
"M+	c #FA0D01",
"N+	c #FF6200",
"O+	c #FF6D00",
"P+	c #EA0505",
"Q+	c #DE0808",
"R+	c #4C2C2C",
"S+	c #252828",
"T+	c #672727",
"U+	c #D60A0A",
"V+	c #EF0404",
"W+	c #FE0400",
"X+	c #FF4B00",
"Y+	c #FF9900",
"Z+	c #FFA900",
"`+	c #FFA400",
" @	c #F40103",
".@	c #E40407",
"+@	c #F30803",
"@@	c #E50606",
"#@	c #DD0808",
"$@	c #BB1111",
"%@	c #3F2E2E",
"&@	c #C70E0E",
"*@	c #E50707",
"=@	c #FC0101",
"-@	c #FF9000",
";@	c #FFCF00",
">@	c #FFDC00",
",@	c #FFD100",
"'@	c #FF7500",
")@	c #FF2F00",
"!@	c #FC0601",
"~@	c #FD0901",
"{@	c #EC0305",
"]@	c #D30B0B",
"^@	c #2C2B2B",
"/@	c #662626",
"(@	c #B21313",
"_@	c #D10C0C",
":@	c #DD0809",
"<@	c #FE0D00",
"[@	c #FF6100",
"}@	c #FF9D00",
"|@	c #FFBF00",
"1@	c #FFBD00",
"2@	c #FFE500",
"3@	c #FFFD02",
"4@	c #FFE000",
"5@	c #FF7700",
"6@	c #FF5B00",
"7@	c #FF3B00",
"8@	c #FF1800",
"9@	c #F50302",
"0@	c #E00808",
"a@	c #632525",
"b@	c #402F2F",
"c@	c #911C1C",
"d@	c #FF0B00",
"e@	c #FFAC00",
"f@	c #FFDB00",
"g@	c #FFE200",
"h@	c #FFF200",
"i@	c #FFFF13",
"j@	c #FFFF09",
"k@	c #FFEC00",
"l@	c #FFAF00",
"m@	c #FF4C00",
"n@	c #C50E0E",
"o@	c #B01414",
"p@	c #802020",
"q@	c #761E22",
"r@	c #B13712",
"s@	c #792222",
"t@	c #FD0700",
"u@	c #F80102",
"v@	c #FE1100",
"w@	c #FFAD00",
"x@	c #FFEA00",
"y@	c #FFF600",
"z@	c #FFD500",
"A@	c #FFF802",
"B@	c #FFFF12",
"C@	c #FFF900",
"D@	c #FFB600",
"E@	c #FF3600",
"F@	c #991A1A",
"G@	c #812020",
"H@	c #2F2D2D",
"I@	c #2F2B2B",
"J@	c #502B2B",
"K@	c #D10B0C",
"L@	c #F10404",
"M@	c #F50303",
"N@	c #F60202",
"O@	c #FF0600",
"P@	c #FA0101",
"Q@	c #FF4A00",
"R@	c #FF9C00",
"S@	c #FFD900",
"T@	c #FFE700",
"U@	c #FFF000",
"V@	c #FFF100",
"W@	c #FFCE00",
"X@	c #FFBC00",
"Y@	c #FF7C00",
"Z@	c #F40003",
"`@	c #EE0604",
" #	c #A11717",
".#	c #762222",
"+#	c #393232",
"@#	c #362D2D",
"##	c #2A2A2A",
"$#	c #342F2F",
"%#	c #D50A0A",
"&#	c #FE0100",
"*#	c #FC0501",
"=#	c #FC1101",
"-#	c #FF8300",
";#	c #FFC000",
">#	c #FFC900",
",#	c #FFC600",
"'#	c #FFCD00",
")#	c #FF7000",
"!#	c #FF5A00",
"~#	c #FF3300",
"{#	c #F60902",
"]#	c #B31213",
"^#	c #6E2424",
"/#	c #393030",
"(#	c #302D2D",
"_#	c #373030",
":#	c #8D1C1C",
"<#	c #FF7A00",
"[#	c #FF9800",
"}#	c #FF9600",
"|#	c #FF5D00",
"1#	c #FF4200",
"2#	c #ED0304",
"3#	c #FF7900",
"4#	c #FF9F00",
"5#	c #E91F06",
"6#	c #9D1919",
"7#	c #313232",
"8#	c #5B2929",
"9#	c #851F1F",
"0#	c #A91515",
"a#	c #BD1111",
"b#	c #EE0304",
"c#	c #FF6E00",
"d#	c #FF7400",
"e#	c #FF6000",
"f#	c #FF3400",
"g#	c #FF6600",
"h#	c #FF7F00",
"i#	c #FF8400",
"j#	c #FE3E00",
"k#	c #F62502",
"l#	c #B91212",
"m#	c #672323",
"n#	c #2D2D2D",
"o#	c #332E2E",
"p#	c #6D2525",
"q#	c #941B1B",
"r#	c #AB1515",
"s#	c #FF4700",
"t#	c #FF5900",
"u#	c #FF1D00",
"v#	c #FC1E01",
"w#	c #F30D03",
"x#	c #98181A",
"y#	c #3D2D2D",
"z#	c #313131",
"A#	c #282A2A",
"B#	c #402929",
"C#	c #532B2B",
"D#	c #E00608",
"E#	c #FF7600",
"F#	c #FF3100",
"G#	c #FF4300",
"H#	c #FF2600",
"I#	c #FF1400",
"J#	c #FE0600",
"K#	c #472E2E",
"L#	c #1C2A2A",
"M#	c #782222",
"N#	c #A11818",
"O#	c #F90602",
"P#	c #FF3F00",
"Q#	c #FA0901",
"R#	c #FB0101",
"S#	c #F80202",
"T#	c #E80506",
"U#	c #E70606",
"V#	c #FB0301",
"W#	c #482F2F",
"X#	c #292D2D",
"Y#	c #642727",
"Z#	c #9C1919",
"`#	c #FB1201",
" $	c #FF5C00",
".$	c #E70506",
"+$	c #E10808",
"@$	c #DB0909",
"#$	c #FD0100",
"$$	c #BC1111",
"%$	c #452C2C",
"&$	c #382F2F",
"*$	c #EE0504",
"=$	c #FF5400",
"-$	c #FC1501",
";$	c #F50D03",
">$	c #C60E0E",
",$	c #A51717",
"'$	c #383333",
")$	c #242525",
"!$	c #312F2F",
"~$	c #7D2020",
"{$	c #FD1000",
"]$	c #CE0B0C",
"^$	c #D8080A",
"/$	c #F50C02",
"($	c #E00708",
"_$	c #8E1C1C",
":$	c #332F2F",
"<$	c #4B2E2E",
"[$	c #C20F0F",
"}$	c #EC0A05",
"|$	c #D30A0B",
"1$	c #FF0000",
"2$	c #E50607",
"3$	c #F20303",
"4$	c #F50403",
"5$	c #A61616",
"6$	c #652626",
"7$	c #262B2B",
"8$	c #552929",
"9$	c #951B1B",
"0$	c #851E1E",
"a$	c #981A1A",
"b$	c #C90D0D",
"c$	c #821F1F",
"d$	c #4A2D2D",
"e$	c #921B1B",
"f$	c #742323",
"g$	c #4E2D2D",
"h$	c #372E2E",
"i$	c #5D2626",
"j$	c #232E2E",
"k$	c #272929",
"l$	c #4D2A2A",
"m$	c #4A2A2A",
"n$	c #3A3232",
"o$	c #2E2F2F",
"p$	c #3E2929",
"q$	c #722222",
"r$	c #522B2B",
"s$	c #622727",
"t$	c #722323",
"u$	c #6F2424",
"v$	c #282E2E",
"w$	c #3A2C2C",
"x$	c #232323",
"                                                                                                    ",
"                                                                                                    ",
"                                                                                                    ",
"                                                                                                    ",
"                                                                                                    ",
"                                                                            .                       ",
"                                                                                                    ",
"                                              + @ # .                             $                 ",
"                  %     &                   * = - ; > ,                                             ",
"                  '     )     ! ~ { ] ^ / ( _ : < [ } | 1 2                 3                       ",
"                          4 2 5 6 7 8 9 0 a b c d e f g h i j                                       ",
"                        k l m n - o p q r r o s t u v w x y z A B C D                               ",
"                        E F _ G b : : H I J K L M N O P Q R S T G b U = V                           ",
"                        W X Y H [ Z `  ...+.@.#.$.%.&.*.P =.-.;.>.+.,.'.).!.                        ",
"                    ~.{.].^./.(..._.:.<.[._.}.|.1.2.3.4.5.6.7.8.9.0.a.f b.~                         ",
"                      c.n d.e.L f.g.h.i.j.k._.l.m.n.n.o.p.q.r.s.t.<.u.v.: w.x.                      ",
"            $       y.z.A.B.&.M C.D.E.F.G.H.I.G.J.K.M L.M.#.|.N.O.P.Q.R.S.b T.                      ",
"                  U.V.W.X.Y.Z.`. +_..+++q.@+P.i.#+$+%+&+*+q.J.7.=+P.-+;+K >+,+                      ",
"                '+)+!+~+{+]+^+++=./+h.C.(+^+_+6.:+#.<+[+}+|+(+J.%+P 1+2+3+Z 4+                      ",
"        ~.      5+6+U 7+-+8+9+2+0+<.a+L <+@+b+P B.c+:+O d+e+`.f+g+%+D.h+i+j+                        ",
"          {.  . k+l+: m+n+9+t o+p+C.q+p+Q.r+P s+$+C.J.8+t+Z.M u+v+n+w+x+y+= z+A+                    ",
"                B+_ C+D+E+0+F+2+G+c+H+I+G.O J+m.K+#.L L+M+N+O+8+i.P+9.Q+[ R+S+                      ",
"                  T+S ;.k.P+U+3+V+o+q+W+X+Y+Z+`+o.:+=+ @.@^+M.u++@@@#@$@G z+                        ",
"                  %@h Q+A.&@K *@=@p+6.f+-@;@>@,@-@'@)@^+!@~@P.L {@k.]@J |                           ",
"                  ^@/@(@^._@:@N.<@<+[@}@|@1@2@3@4@1@5@6@7@8@9@=@=@0@A.J a@                          ",
"                    b@c@&@2+9.d@|+-+J.e@f@g@h@i@j@k@l@5.(+m@g+^+++/+n@C+o@p@q@r@                    ",
"                    @ s@_.G+t@g.u@v@f+w@x@y@z@A@B@C@D@&.5.E@m@:+q.L+;.a...F@G@> H@                {.",
"                  I@J@V.K@L@M@N@O@P@Q@R@S@x@T@U@V@W@X@}@Y@O :+%+s+G.Z@`@d  #.#+#@#'                 ",
"                ##$#s@Y %#k.*@L@&#*#=#-#;#>#,#'#|@)#O+[@!#b+G+q+#.H+~#C.{#]#^#C /#                  ",
"              (#_#; :#o@U+U+ .#@;+o+#+<#[#N+N+N }#|#d+1#q+2#u X+3#4#Z+-@J+5#6#b@                    ",
"              {.7#8#9#0#x a#Q+b#O@B.q+*.c#t t E@d#e#f#8@8@d@^+Q@g#h#i#j#k#l#m#                      ",
"            n#3 o#a p#} q#r#/+b+-+|.s#g#m.t#J+d+s#X+v+9+d@u#8 P.s.v#w#x#y#                          ",
"            z#.   A#y.B#C#!+>.D#n+I+M.E#(+F#G#6.8@u H#c+r.I#J#8.K @@C+K#                            ",
"                          L#M#N#Q+O#v+O+f+P#K+u#q.u#Q#L+R#S#T#U#V#A.r W#                            ",
"                          X#Y#Z#..`#F#6@L. $P#P 7@P..$_.+$U#@$#$G+$$%$                    $         ",
"                          &$| F@*$~#G#m@=$X+9+i.-$;$>$,.U+K  .0.P+,$'$)$                            ",
"                            !$~$[.H+^+{$P.G.V+]$^$/$($a.-. .-.,.y _$:$                              ",
"                              <$[$0+}$U+|$_.` x x 1$_+2$3$4$@$5$>+6$7$                              ",
"                              8$X ..5$y+Z#9$0$a$H s@0 6#b$ .k.T c$@#    ~.                          ",
"                              B+d$G@g e$f$g$h$        i$n@r#: 0#G@j$  .                             ",
"                                k$'+l$m$n$o$          p$q$r$s$t$0                                   ",
"                                                          3 8#u$E                                   ",
"                      .                           )         v$w$!$$                                 ",
"                                                                    $                               ",
"                                                                                                    ",
"                          n#                            {.                                          ",
"                                                                                                    ",
"                              .                                                                     ",
"                                            .                   x$                                  ",
"                                                                                                    "};
