/* XPM */
static char * exp25_xpm[] = {
"50 50 341 2",
"  	c None",
". 	c #252525",
"+ 	c #402626",
"@ 	c #931719",
"# 	c #752323",
"$ 	c #542A2A",
"% 	c #312D2D",
"& 	c #262929",
"* 	c #3B3030",
"= 	c #333030",
"- 	c #2D2E2E",
"; 	c #272828",
"> 	c #262626",
", 	c #6E2323",
"' 	c #CE1E0C",
") 	c #CA0B0D",
"! 	c #4A2B2B",
"~ 	c #3E3030",
"{ 	c #452F2F",
"] 	c #592A2A",
"^ 	c #562A2A",
"/ 	c #462F2F",
"( 	c #373232",
"_ 	c #3E2F2F",
": 	c #2F2F2F",
"< 	c #282828",
"[ 	c #242424",
"} 	c #462C2C",
"| 	c #3A3030",
"1 	c #442F2F",
"2 	c #393131",
"3 	c #363131",
"4 	c #432F2F",
"5 	c #722323",
"6 	c #782222",
"7 	c #6D2424",
"8 	c #642727",
"9 	c #672626",
"0 	c #5B2929",
"a 	c #423030",
"b 	c #302F2F",
"c 	c #272727",
"d 	c #2C2D2D",
"e 	c #373333",
"f 	c #512C2C",
"g 	c #602828",
"h 	c #742323",
"i 	c #8A1D1D",
"j 	c #981A1A",
"k 	c #931B1B",
"l 	c #8C1D1D",
"m 	c #622727",
"n 	c #5B2A2A",
"o 	c #373030",
"p 	c #2A2E2E",
"q 	c #242525",
"r 	c #323131",
"s 	c #343131",
"t 	c #442E2E",
"u 	c #502C2C",
"v 	c #5E2828",
"w 	c #632727",
"x 	c #6B2525",
"y 	c #702424",
"z 	c #7F2020",
"A 	c #A11717",
"B 	c #A91616",
"C 	c #AD1515",
"D 	c #AA1515",
"E 	c #991919",
"F 	c #7D2121",
"G 	c #7E2020",
"H 	c #772222",
"I 	c #403131",
"J 	c #2B2D2D",
"K 	c #282A2A",
"L 	c #5C2929",
"M 	c #792121",
"N 	c #802020",
"O 	c #991A1A",
"P 	c #BA1111",
"Q 	c #C20F0F",
"R 	c #C80E0E",
"S 	c #CB0D0D",
"T 	c #B91111",
"U 	c #A31717",
"V 	c #9A1919",
"W 	c #8F1C1C",
"X 	c #8E1C1C",
"Y 	c #5F2828",
"Z 	c #482E2E",
"` 	c #2C2E2E",
" .	c #3D2F2F",
"..	c #841F1F",
"+.	c #901C1C",
"@.	c #861E1E",
"#.	c #891D1D",
"$.	c #6F2424",
"%.	c #9E1818",
"&.	c #C40F0F",
"*.	c #D40B0B",
"=.	c #E20707",
"-.	c #E10808",
";.	c #D70A0A",
">.	c #B31313",
",.	c #A71616",
"'.	c #921B1B",
").	c #881E1E",
"!.	c #7D2020",
"~.	c #2A2A2A",
"{.	c #9B1919",
"].	c #C60E0E",
"^.	c #BE1010",
"/.	c #A01818",
"(.	c #911C1C",
"_.	c #9F1818",
":.	c #971A1A",
"<.	c #B41313",
"[.	c #B81212",
"}.	c #D30B0B",
"|.	c #D10C0C",
"1.	c #BF1010",
"2.	c #BD1010",
"3.	c #891E1E",
"4.	c #4F2C2C",
"5.	c #2A2D2D",
"6.	c #542B2B",
"7.	c #7B2121",
"8.	c #C90E0E",
"9.	c #951A1A",
"0.	c #851E1E",
"a.	c #A81616",
"b.	c #B51212",
"c.	c #A61616",
"d.	c #B51313",
"e.	c #B01414",
"f.	c #BB1111",
"g.	c #941B1B",
"h.	c #7A2121",
"i.	c #393232",
"j.	c #282B2B",
"k.	c #652727",
"l.	c #9D1818",
"m.	c #AE1414",
"n.	c #951B1B",
"o.	c #AF1414",
"p.	c #AC1515",
"q.	c #A41717",
"r.	c #B21313",
"s.	c #BC1111",
"t.	c #8B1D1D",
"u.	c #812020",
"v.	c #6C2525",
"w.	c #392F2F",
"x.	c #362D2D",
"y.	c #612727",
"z.	c #8D1D1D",
"A.	c #A51717",
"B.	c #AB1515",
"C.	c #B11313",
"D.	c #A91515",
"E.	c #C11010",
"F.	c #C01010",
"G.	c #DD0808",
"H.	c #E60606",
"I.	c #DB0909",
"J.	c #612828",
"K.	c #312E2E",
"L.	c #392E2E",
"M.	c #5D2929",
"N.	c #E70606",
"O.	c #EB0505",
"P.	c #CC0D0D",
"Q.	c #871E1E",
"R.	c #323232",
"S.	c #3F3030",
"T.	c #911B1B",
"U.	c #AD1414",
"V.	c #BD1111",
"W.	c #ED0305",
"X.	c #ED0604",
"Y.	c #C50E0E",
"Z.	c #D50B0B",
"`.	c #CA0D0D",
" +	c #B91212",
".+	c #2E3030",
"++	c #4E2C2C",
"@+	c #9D1919",
"#+	c #E40507",
"$+	c #FE1300",
"%+	c #FF3900",
"&+	c #FF2A00",
"*+	c #FC0901",
"=+	c #CD0D0C",
"-+	c #A21717",
";+	c #732323",
">+	c #472F2F",
",+	c #292A2A",
"'+	c #522B2B",
")+	c #512B2B",
"!+	c #6D2525",
"~+	c #7C2121",
"{+	c #C70E0E",
"]+	c #E60406",
"^+	c #FF2000",
"/+	c #FF4E00",
"(+	c #FF5D00",
"_+	c #FF1C00",
":+	c #FD0800",
"<+	c #712323",
"[+	c #4C2D2D",
"}+	c #252626",
"|+	c #252727",
"1+	c #ED0304",
"2+	c #FF1B00",
"3+	c #FF5600",
"4+	c #FF4700",
"5+	c #FF6D00",
"6+	c #FF8000",
"7+	c #FF6F00",
"8+	c #FF4800",
"9+	c #F30603",
"0+	c #D00C0C",
"a+	c #4E2D2D",
"b+	c #242727",
"c+	c #413030",
"d+	c #B61212",
"e+	c #D8080A",
"f+	c #FF2B00",
"g+	c #FF6800",
"h+	c #FF7700",
"i+	c #FF9000",
"j+	c #FF9D00",
"k+	c #FF9300",
"l+	c #FF7900",
"m+	c #FF2600",
"n+	c #792222",
"o+	c #572A2A",
"p+	c #292929",
"q+	c #E60506",
"r+	c #FF3200",
"s+	c #FF6B00",
"t+	c #FF8900",
"u+	c #FF6300",
"v+	c #FF8A00",
"w+	c #FF9800",
"x+	c #FF8100",
"y+	c #FF4A00",
"z+	c #F60702",
"A+	c #D20B0B",
"B+	c #2D2F2F",
"C+	c #2B2C2C",
"D+	c #821F1F",
"E+	c #E30507",
"F+	c #FF2E00",
"G+	c #FF5800",
"H+	c #FF7200",
"I+	c #FF7F00",
"J+	c #FF7E00",
"K+	c #FF5E00",
"L+	c #FF4300",
"M+	c #FF1E00",
"N+	c #F10204",
"O+	c #C50F0F",
"P+	c #9C1919",
"Q+	c #FF1800",
"R+	c #FF4C00",
"S+	c #FF5500",
"T+	c #FF5700",
"U+	c #FD1000",
"V+	c #EC0205",
"W+	c #E90406",
"X+	c #A51616",
"Y+	c #762222",
"Z+	c #3B3232",
"`+	c #682626",
" @	c #831F1F",
".@	c #FC0201",
"+@	c #FF3A00",
"@@	c #F20803",
"#@	c #F30A03",
"$@	c #F10B03",
"%@	c #FF2D00",
"&@	c #F30303",
"*@	c #D80A0A",
"=@	c #CE0C0C",
"-@	c #B71212",
";@	c #353232",
">@	c #5A2929",
",@	c #EC0305",
"'@	c #FF0B00",
")@	c #FF0400",
"!@	c #EE0404",
"~@	c #DA0909",
"{@	c #C30F0F",
"]@	c #363030",
"^@	c #961A1A",
"/@	c #C10F0F",
"(@	c #E80606",
"_@	c #EF0404",
":@	c #DE0808",
"<@	c #DF0808",
"[@	c #D90A0A",
"}@	c #532C2C",
"|@	c #403030",
"1@	c #EA0505",
"2@	c #CF0C0C",
"3@	c #A11818",
"4@	c #362E2E",
"5@	c #592929",
"6@	c #E00808",
"7@	c #D10B0B",
"8@	c #B11414",
"9@	c #692525",
"0@	c #D60A0A",
"a@	c #252828",
"b@	c #342F2F",
"c@	c #662626",
"d@	c #522C2C",
"e@	c #2B2B2B",
"f@	c #6E2424",
"g@	c #422F2F",
"h@	c #353030",
"i@	c #3C3131",
"j@	c #383030",
"k@	c #383131",
"l@	c #3F3131",
"m@	c #412D2D",
"n@	c #3D2E2E",
"o@	c #7A2222",
"p@	c #7B2222",
"q@	c #4F2D2D",
"r@	c #3B3131",
"s@	c #262C2C",
"t@	c #402F2F",
"u@	c #3A2F2F",
"v@	c #3F2E2E",
"w@	c #362F2F",
"x@	c #462525",
"y@	c #382C2C",
"z@	c #282929",
"                                                                                                    ",
"                                                                                                    ",
"                                                                                                    ",
"                                                                                                    ",
"                                                                                                    ",
"                                                                                                    ",
"                                                                                                    ",
"                                                                                                    ",
"                                                .                                                   ",
"                                  + @ # $ % & * = - ; >                                             ",
"                                  , ' ) ! ~ { ] ^ / ( _ : <                                         ",
"                                [ } | 1 2 3 4 5 6 7 8 9 0 a b &                                     ",
"                            . c d e ^ f g g h i j k i l h m f n o p q                               ",
"                            r s t u v w x y z A B C C D E l F G H ^ I J                             ",
"                          K 1 0 L 5 y M G 5 N O P Q R S T U V W X # Y Z `                           ",
"                           ...X +.l @.#.i $.@.%.&.*.=.-.;.>.,.'.).l !.8 3 ~.                        ",
"                        * {.].^./.(.'.O _.:.%.<.[.].;.}.|.1.2.{.W 3.#.h 4.5..                       ",
"                        6.7.].8.9.0.'.a.b.c.,.[.>.d.e.B O f.Q c.g.g.W h.m i.<                       ",
"                      j.k.:.l.m.A W n.o.[.p.q.f.Q b.r.>.q.s.*.Q o.A t.u.v.w.                        ",
"                      x.y.z.l %.,.A.%.B.C.o.D s.d.D.E.F.8.G.H.I.E.B X N J.K.                        ",
"                      L.M.z l O q.<.>.D U B S 2.r.f.f.^.].N.O.P.P /.Q.k.R.                          ",
"                    c S.8 h h.T.l.U.V.C >.].W.X.S Y.p.A.,.Z.-.`. +k N 0 .+                          ",
"                    c  .++5 h M X @+m.U #+$+%+&+*+=+-+V l <.`.E.c.z ;+>+~.                          ",
"                    ,+'+)+!+M ~+g.C {+]+^+/+(+/+_+:+Y.C._._.e.,.k F <+[+}+                          ",
"                    |+4.8 h.0.Q.A V.1+2+3+4+5+6+7+8+9+0+{+>.U g.j ..# a+b+                          ",
"                    > c+M ..@.g.q.d+e+f+g+h+i+j+k+l+m+=.S Y.E.>.,.l n+o+= p+                        ",
"                    [ c+z ).t.%.V o.q+r+s+t+u+v+w+x+y+z+A+{+P.S >.j G m 4.B+[                       ",
"                    C+4 H D+0.g.j c.E+F+G+H+5+I+J+K+L+M+N+;.O+d.o.O i N ^ ( .                       ",
"                    ~.{ v.;+6 #.W P+`.Q+R+/+3+S+T+U+V+W+I.2.a.<.2.X+a.l.Y+c+>                       ",
"                    ,+Z+v `+<+N  @A P .@+@@@#@$@%@&@*@{+[.j A.O+=@}.G.-@u.} <                       ",
"                    > ;@4.>@5  @(.m.E.,@'@*@&.}.)@!@=@U.D._.d+1.P.~@{@a.k.                          ",
"                      C+]@M.x l ^@B./@(@_@:@*@<@[@0+1. +U m.-@m.U >._.}@                            ",
"                        < |@k...z.-+R 1@P.R 2@<.a.a.>.d.c.B 3@V t.+.y 4@                            ",
"                          < w.5@D+%.V.6@7@[.<.8@[.>.3@O V :.+.X D+H s                               ",
"                            ,+|@9@0.e.0+0@0+].1.].U.T.t.i ..u. @G }@a@                              ",
"                            [ b@M.~+j d+f.P r.r.Y.[. @n+n+G H ;+c@d@                                ",
"                              e@L.c@@.l E %.3.@.O B.N 7.<+f@J.J.g@h@                                ",
"                                e@i@0 9@y h.g v.q.;._.N ;+w )+[+j@c                                 ",
"                                  ,+k@c+l@m@b@n@o@p@q@h@{ 4 u r@>                                   ",
"                                      }+> .           s@t@u@v@w@                                    ",
"                                                      x@y@z@                                        ",
"                                                                                                    ",
"                                                                                                    ",
"                                                                                                    ",
"                                                                                                    ",
"                                                                                                    ",
"                                                                                                    ",
"                                                                                                    ",
"                                                                                                    ",
"                                                                                                    "};
