/* XPM */
static char * exp23_xpm[] = {
"50 50 448 2",
"  	c None",
". 	c #242424",
"+ 	c #232525",
"@ 	c #333131",
"# 	c #2F3232",
"$ 	c #262828",
"% 	c #252A2A",
"& 	c #522A2A",
"* 	c #7B2222",
"= 	c #B50F13",
"- 	c #6F2322",
"; 	c #532A2A",
"> 	c #302D2D",
", 	c #422F2F",
"' 	c #4C2D2D",
") 	c #7E2020",
"! 	c #5F2828",
"~ 	c #552B2B",
"{ 	c #332F2F",
"] 	c #2D2A2A",
"^ 	c #422A2A",
"/ 	c #871E1E",
"( 	c #F50002",
"_ 	c #E92805",
": 	c #D4090B",
"< 	c #532B2B",
"[ 	c #383030",
"} 	c #712424",
"| 	c #971A1A",
"1 	c #A61616",
"2 	c #AC1515",
"3 	c #921B1B",
"4 	c #672626",
"5 	c #582A2A",
"6 	c #422E2E",
"7 	c #242626",
"8 	c #252525",
"9 	c #303030",
"0 	c #2F2E2E",
"a 	c #403030",
"b 	c #8A1D1D",
"c 	c #5E2828",
"d 	c #542B2B",
"e 	c #502C2C",
"f 	c #702424",
"g 	c #B71212",
"h 	c #DE0808",
"i 	c #DD0808",
"j 	c #C30F0F",
"k 	c #AE1414",
"l 	c #A11818",
"m 	c #6C2525",
"n 	c #472F2F",
"o 	c #2D2E2E",
"p 	c #2A2C2C",
"q 	c #2B2B2B",
"r 	c #282828",
"s 	c #343131",
"t 	c #312F2F",
"u 	c #4D2D2D",
"v 	c #841F1F",
"w 	c #861E1E",
"x 	c #9F1818",
"y 	c #D30B0B",
"z 	c #FC0201",
"A 	c #FB0001",
"B 	c #EB0505",
"C 	c #DB0909",
"D 	c #BF1010",
"E 	c #9C1919",
"F 	c #682626",
"G 	c #562B2B",
"H 	c #362F2F",
"I 	c #2A2B2B",
"J 	c #2B2C2C",
"K 	c #662626",
"L 	c #6B2525",
"M 	c #8C1D1D",
"N 	c #AB1515",
"O 	c #B21313",
"P 	c #A31717",
"Q 	c #B31313",
"R 	c #D90A0A",
"S 	c #FB0A01",
"T 	c #FF1700",
"U 	c #FF0700",
"V 	c #FE0300",
"W 	c #E00708",
"X 	c #C40F0F",
"Y 	c #A51717",
"Z 	c #A01818",
"` 	c #A71616",
" .	c #821F1F",
"..	c #322F2F",
"+.	c #272F2F",
"@.	c #752323",
"#.	c #7D2121",
"$.	c #831F1F",
"%.	c #9A1919",
"&.	c #A81616",
"*.	c #C60E0E",
"=.	c #B01414",
"-.	c #FF0E00",
";.	c #FF2100",
">.	c #FF2500",
",.	c #FF1F00",
"'.	c #FC0401",
").	c #E10707",
"!.	c #B61212",
"~.	c #9E1818",
"{.	c #802020",
"].	c #292C2C",
"^.	c #262A2A",
"/.	c #642727",
"(.	c #C70E0E",
"_.	c #D90809",
":.	c #D8090A",
"<.	c #B91212",
"[.	c #C20F0F",
"}.	c #CC0D0D",
"|.	c #AA1515",
"1.	c #D50A0A",
"2.	c #F70D02",
"3.	c #FF2700",
"4.	c #FF3B00",
"5.	c #FF3200",
"6.	c #FF1C00",
"7.	c #EF0304",
"8.	c #DC0909",
"9.	c #BE1010",
"0.	c #CA0D0D",
"a.	c #991919",
"b.	c #3E2F2F",
"c.	c #762323",
"d.	c #C60D0E",
"e.	c #FF3300",
"f.	c #FB1C01",
"g.	c #D60A0A",
"h.	c #C11010",
"i.	c #D70A0A",
"j.	c #F60302",
"k.	c #FC0A01",
"l.	c #FF1300",
"m.	c #FF1200",
"n.	c #FF0B00",
"o.	c #F90101",
"p.	c #F00404",
"q.	c #C01010",
"r.	c #D20B0B",
"s.	c #C10F0F",
"t.	c #2D2F2F",
"u.	c #482C2C",
"v.	c #D3060B",
"w.	c #FF3D00",
"x.	c #FE1C00",
"y.	c #DD0909",
"z.	c #EF0404",
"A.	c #E10808",
"B.	c #E00808",
"C.	c #E90606",
"D.	c #E30707",
"E.	c #D40B0B",
"F.	c #DA0909",
"G.	c #FF0100",
"H.	c #D10B0B",
"I.	c #CF0C0C",
"J.	c #BB1111",
"K.	c #6E2424",
"L.	c #392F2F",
"M.	c #A91616",
"N.	c #F00A04",
"O.	c #F10203",
"P.	c #F90802",
"Q.	c #F50302",
"R.	c #C90E0E",
"S.	c #B11313",
"T.	c #E90505",
"U.	c #FB0101",
"V.	c #EC0505",
"W.	c #F20303",
"X.	c #EA0505",
"Y.	c #EC0305",
"Z.	c #FA0801",
"`.	c #F80302",
" +	c #E60606",
".+	c #B41313",
"++	c #792222",
"@+	c #252C2C",
"#+	c #292929",
"$+	c #3A2E2E",
"%+	c #A51616",
"&+	c #F20203",
"*+	c #FD1200",
"=+	c #ED0304",
"-+	c #CD0D0D",
";+	c #DF0808",
">+	c #EE0404",
",+	c #E20707",
"'+	c #ED0404",
")+	c #E70606",
"!+	c #FC0101",
"~+	c #FB0501",
"{+	c #FF0C00",
"]+	c #FF1D00",
"^+	c #FF0D00",
"/+	c #F10304",
"(+	c #D10C0C",
"_+	c #AF1414",
":+	c #9D1818",
"<+	c #622828",
"[+	c #2C2E2E",
"}+	c #4B2D2D",
"|+	c #EE0504",
"1+	c #D80A0A",
"2+	c #E40707",
"3+	c #F80202",
"4+	c #E50506",
"5+	c #F60202",
"6+	c #F20603",
"7+	c #FF2E00",
"8+	c #FF3000",
"9+	c #FE0100",
"0+	c #6D2424",
"a+	c #2E2F2F",
"b+	c #262626",
"c+	c #322C2C",
"d+	c #891D1D",
"e+	c #E80606",
"f+	c #F10404",
"g+	c #DF0708",
"h+	c #F40703",
"i+	c #FF2800",
"j+	c #F90B02",
"k+	c #F40203",
"l+	c #C80E0E",
"m+	c #DE0708",
"n+	c #FC0701",
"o+	c #E50707",
"p+	c #9D1919",
"q+	c #A91515",
"r+	c #A41717",
"s+	c #FF5E00",
"t+	c #FF6D00",
"u+	c #FF7200",
"v+	c #FF4800",
"w+	c #FA0D01",
"x+	c #D00C0C",
"y+	c #B81212",
"z+	c #F50103",
"A+	c #FF0500",
"B+	c #F70102",
"C+	c #BC1111",
"D+	c #851E1E",
"E+	c #4A2D2D",
"F+	c #272929",
"G+	c #393232",
"H+	c #8D1C1C",
"I+	c #9B1919",
"J+	c #B51313",
"K+	c #F40A03",
"L+	c #FF6000",
"M+	c #FF9400",
"N+	c #FFA200",
"O+	c #FF8B00",
"P+	c #FF3A00",
"Q+	c #EA0405",
"R+	c #BA1111",
"S+	c #AD1515",
"T+	c #7C2121",
"U+	c #3E2E2E",
"V+	c #2A2F2F",
"W+	c #A21717",
"X+	c #F50403",
"Y+	c #FF3100",
"Z+	c #FF6400",
"`+	c #FF9300",
" @	c #FF8300",
".@	c #FFAE00",
"+@	c #FFBC00",
"@@	c #FFAC00",
"#@	c #FF8400",
"$@	c #FF0900",
"%@	c #E50606",
"&@	c #8F1C1C",
"*@	c #7B2121",
"=@	c #382F2F",
"-@	c #2A2E2E",
";@	c #B51212",
">@	c #FD0701",
",@	c #FFA800",
"'@	c #FFC600",
")@	c #FFDA00",
"!@	c #FFCD00",
"~@	c #FFB800",
"{@	c #FF6F00",
"]@	c #FF1400",
"^@	c #FB0401",
"/@	c #F50203",
"(@	c #712323",
"_@	c #4E2D2D",
":@	c #432F2F",
"<@	c #572A2A",
"[@	c #FF1600",
"}@	c #FF7300",
"|@	c #FFBF00",
"1@	c #FF9B00",
"2@	c #FFC500",
"3@	c #FFD500",
"4@	c #FFC300",
"5@	c #FF3500",
"6@	c #FF1A00",
"7@	c #F90202",
"8@	c #FF0F00",
"9@	c #F90002",
"0@	c #CD0C0C",
"a@	c #941B1B",
"b@	c #8B1D1D",
"c@	c #5D2828",
"d@	c #303131",
"e@	c #322E2E",
"f@	c #CB0D0D",
"g@	c #FC1201",
"h@	c #FF9D00",
"i@	c #FFB100",
"j@	c #FFA900",
"k@	c #FFB300",
"l@	c #FFB700",
"m@	c #FF8C00",
"n@	c #FF3400",
"o@	c #FF0300",
"p@	c #F70302",
"q@	c #BD1010",
"r@	c #B91111",
"s@	c #991A1A",
"t@	c #652727",
"u@	c #3D3131",
"v@	c #232323",
"w@	c #222323",
"x@	c #3C2F2F",
"y@	c #FF5B00",
"z@	c #FF8100",
"A@	c #FF9200",
"B@	c #FF8800",
"C@	c #FF8F00",
"D@	c #FF1800",
"E@	c #EC0405",
"F@	c #F30203",
"G@	c #F10503",
"H@	c #F60502",
"I@	c #392C2C",
"J@	c #2B2D2D",
"K@	c #981A1A",
"L@	c #A11717",
"M@	c #F00204",
"N@	c #FF4600",
"O@	c #FF6500",
"P@	c #FF2400",
"Q@	c #FB0701",
"R@	c #EA0705",
"S@	c #FD0201",
"T@	c #FF1E00",
"U@	c #FF3E00",
"V@	c #FF4400",
"W@	c #F70C02",
"X@	c #432929",
"Y@	c #4F2C2C",
"Z@	c #6F2424",
"`@	c #EE0304",
" #	c #FF2B00",
".#	c #FA0201",
"+#	c #F40303",
"@#	c #F70602",
"##	c #FF2A00",
"$#	c #F10103",
"%#	c #F30303",
"&#	c #FE0200",
"*#	c #FF2200",
"=#	c #F11304",
"-#	c #C70C0E",
";#	c #881D1D",
">#	c #342C2C",
",#	c #7F2020",
"'#	c #FD0600",
")#	c #FF1B00",
"!#	c #F50402",
"~#	c #ED0505",
"{#	c #CD0C0D",
"]#	c #DD0809",
"^#	c #CF0B0C",
"/#	c #242727",
"(#	c #6B2626",
"_#	c #FC0601",
":#	c #F00304",
"<#	c #FD0400",
"[#	c #F20403",
"}#	c #D50A0B",
"|#	c #D50B0B",
"1#	c #851F1F",
"2#	c #422B2B",
"3#	c #212929",
"4#	c #572B2B",
"5#	c #F70402",
"6#	c #FF1500",
"7#	c #FA0001",
"8#	c #F70202",
"9#	c #2F2B2B",
"0#	c #442F2F",
"a#	c #6A2525",
"b#	c #951A1A",
"c#	c #C50E0E",
"d#	c #ED0405",
"e#	c #FF1000",
"f#	c #FD0000",
"g#	c #3D2E2E",
"h#	c #272727",
"i#	c #2E3131",
"j#	c #FE0A00",
"k#	c #F80002",
"l#	c #302F2F",
"m#	c #CE0C0C",
"n#	c #931B1B",
"o#	c #5E2929",
"p#	c #222626",
"q#	c #FF0000",
"r#	c #901C1C",
"s#	c #3A2F2F",
"t#	c #762222",
"u#	c #592A2A",
"v#	c #592929",
"w#	c #AB1616",
"x#	c #7A2222",
"y#	c #492C2C",
"z#	c #532C2C",
"A#	c #961A1A",
"B#	c #392B2B",
"C#	c #3B2F2F",
"D#	c #5A2A2A",
"E#	c #292F2F",
"F#	c #2D2D2D",
"G#	c #612828",
"H#	c #732323",
"I#	c #6D2525",
"J#	c #452727",
"K#	c #373030",
"L#	c #2F2F2F",
"M#	c #353232",
"N#	c #2C2D2D",
"O#	c #323030",
"                                                                                                    ",
"                                                                                                    ",
"                                                                                                    ",
"                                                                                                    ",
"                                                                                                    ",
"                                                                                                    ",
"                                                                                                    ",
"                                                                                                    ",
"                        .                     + @ # $                                               ",
"                              % & * = - ; > , ' ) ! ~ { ]                                           ",
"                              ^ / ( _ : < [ } | 1 2 3 4 5 6 7                                       ",
"                          8 9 0 a b < c d e f g h i j k l m n o p 7 q                               ",
"                        r s t u 5 ) v w 3 / x y z A B C D E w F } G H I                             ",
"                        J , 5 K L M N O P | Q R S T U V W X Y Z ` 3  .u ..                          ",
"                        +.@.#.$.%.&.Q *.O &.=.i -.;.>.,.'.).j !.D g ~.{.e ].                        ",
"                      ^./.(._.:.<.[.j }.D Z |.1.2.3.4.5.6.7.8.9.j 0.|.a.m b.r                       ",
"                    +.c.d.-.e.f.g.D h.*.i.*.}.8.j.k.l.m.n.o.p.q.<.r.s.1 v e t.                      ",
"                    u.` y v.w.x.(.N [.y.z.A.B.).C.D.W E.F.B G.0.H.I.0.J.| K.t.                      ",
"                  8 L.M.N.O.P.Q.R.S.X T.U.i.g.V.W.X.X.C y Y.Z.`. +8.I..+` ++@+                      ",
"                  #+$+%+&+*+=+ +g.y -+;+>+,+E.'+)+D.!+~+{+]+6.^+/+B.(+_+:+<+                        ",
"                  [+}+Z i.|+>+1+ +V.T.2+H.E.3+4+B.X.5+6+{+7+8+9+D.1+s.%.0+a+b+                      ",
"                  c+K d+X 0.q.s.E.e+f+h g+h+>.i+j+k+e+l+m+l.;.n+o+(.N x K.o                         ",
"                  ^.G / p+q+r+1 D E.e+: T s+t+u+v+w+x+*.y+z+A+B+C+O r+D+E+F+                        ",
"                    G+H+E I+~.J+*. +K+i+L+M+N+O+s+P+Q+C.E.H.A.1+R+S+| T+U+                          ",
"                    V+{.I+E W+[.F.X+Y+Z+`+ @.@+@@@#@8+$@3+%@0.9.0.O &@*@=@                          ",
"                    -@K =.;@C+l+1+2+>@u+,@.@'@)@!@~@{@]@$@U ^@/@i 9.%.{.(@_@:@                      ",
"                    I <@;@(.[.0.R.,+[@}@.@|@1@2@3@4@ @5@6@7@8@9@>+0@&.a@b@c@d@                      ",
"                    e@F .+S+J.q.x+f@g@{@h@i@j@k@l@h@m@L+n@o@p@)+o+i.q@r@s@t@u@v@                    ",
"                  w@x@} N I+k !.l+j X.y@z@A@m@B@C@w.Y+]+D@E@I. +F@G@H@ +0.#.I@b+                    ",
"                  J@_@D+K@| ` L@<.I.M@N@O@5@3.8+Z+P@^+Q@R@h.).S@T@U@V@m.W@q.X@                      ",
"                  [+Y@Z@D+3 &.S.H.o+`@ #4..#+#@#V@##$#).i.I.%#&#m.*#i+=#-#;#                        ",
"                  r >#' c ,#2 l+g.B '#8+3.)#-.^+]@n.!#~#;+ +X. +{#]#^#*@>#                          ",
"            .         /#=@(#|.J.*.8.^+7+_#:#<#[#B }#W.B.i.).|#l+=.g 1#2#                            ",
"                          3#4#T+|.(.5#)#6#7#8#h 8#o+x+l+C+l+R+r@g &.d 9#                            ",
"                            0#a#b#c#d#n.T@e#~+e+f#T.J..+k 2 .+9.C+I+g#                              ",
"                          h#i#F l }.D.F@j#k#:#;+G@h x Y x W+!.O k D+l#                              ",
"                              <@v q.m#H.o+i..+M.*.2+L@E :+W+n#&@*@o#p#                              ",
"                              e@4 P N ~.W+Q ~.x [.q#k O g &.r#$.a#s#                                ",
"                                x@t#f ) f 4 u#v#w#x#y#z#K@A#/ m ! B#                                ",
"                                  C#D#u@, E#          F#u#G#H#I#0#                                  ",
"                                      h#b+            J#K#L#{ M#a+                                  ",
"                                                          v@N#O#8                                   ",
"                                                            b+                                      ",
"                                                                                                    ",
"                                                                                                    ",
"                                                                                                    ",
"                                                                                                    ",
"                                                                                                    ",
"                                                                                                    ",
"                                                                                                    "};
