/* XPM */
static char * exp30_xpm[] = {
"50 50 145 2",
"  	c None",
". 	c #242424",
"+ 	c #292929",
"@ 	c #282828",
"# 	c #2D2D2D",
"$ 	c #272727",
"% 	c #262626",
"& 	c #252525",
"* 	c #2A2A2A",
"= 	c #2C2C2C",
"- 	c #2F2F2F",
"; 	c #2B2B2B",
"> 	c #2E2E2E",
", 	c #313232",
"' 	c #303131",
") 	c #363131",
"! 	c #313131",
"~ 	c #303030",
"{ 	c #353131",
"] 	c #403030",
"^ 	c #343131",
"/ 	c #323030",
"( 	c #333333",
"_ 	c #373030",
": 	c #343333",
"< 	c #353232",
"[ 	c #3F3030",
"} 	c #492D2D",
"| 	c #3C3131",
"1 	c #323232",
"2 	c #363232",
"3 	c #432F2F",
"4 	c #482E2E",
"5 	c #4A2D2D",
"6 	c #393131",
"7 	c #343232",
"8 	c #472E2E",
"9 	c #532B2B",
"0 	c #752323",
"a 	c #6C2525",
"b 	c #4B2D2D",
"c 	c #383131",
"d 	c #3D3030",
"e 	c #383232",
"f 	c #313030",
"g 	c #2F3030",
"h 	c #692525",
"i 	c #931B1B",
"j 	c #A41717",
"k 	c #A21717",
"l 	c #861E1E",
"m 	c #572A2A",
"n 	c #2C2F2F",
"o 	c #333232",
"p 	c #323131",
"q 	c #452E2E",
"r 	c #6A2525",
"s 	c #951B1B",
"t 	c #B71212",
"u 	c #D50B0B",
"v 	c #C60E0E",
"w 	c #821F1F",
"x 	c #432E2E",
"y 	c #333131",
"z 	c #3E3030",
"A 	c #682626",
"B 	c #911B1B",
"C 	c #AC1515",
"D 	c #C30F0F",
"E 	c #E30707",
"F 	c #DA0909",
"G 	c #BA1111",
"H 	c #B41313",
"I 	c #722323",
"J 	c #4C2D2D",
"K 	c #A71616",
"L 	c #CB0D0D",
"M 	c #E80606",
"N 	c #F10404",
"O 	c #EB0505",
"P 	c #DC0909",
"Q 	c #A31717",
"R 	c #672626",
"S 	c #402F2F",
"T 	c #323333",
"U 	c #6F2424",
"V 	c #B21313",
"W 	c #ED0404",
"X 	c #FD0400",
"Y 	c #E40707",
"Z 	c #7A2121",
"` 	c #5A2929",
" .	c #333434",
"..	c #6B2525",
"+.	c #D90A0A",
"@.	c #E50707",
"#.	c #EC0505",
"$.	c #C90E0E",
"%.	c #A61616",
"&.	c #7F2020",
"*.	c #5F2828",
"=.	c #552A2A",
"-.	c #991919",
";.	c #C50E0E",
">.	c #C90D0D",
",.	c #CC0D0D",
"'.	c #D30B0B",
").	c #8C1D1D",
"!.	c #742323",
"~.	c #5E2828",
"{.	c #4F2C2C",
"].	c #2E3030",
"^.	c #9E1818",
"/.	c #961A1A",
"(.	c #851F1F",
"_.	c #AF1414",
":.	c #732323",
"<.	c #6E2424",
"[.	c #712323",
"}.	c #522B2B",
"|.	c #442F2F",
"1.	c #592929",
"2.	c #831F1F",
"3.	c #373131",
"4.	c #3D3131",
"5.	c #642727",
"6.	c #502C2C",
"7.	c #5C2929",
"8.	c #4E2C2C",
"9.	c #3E3131",
"0.	c #322F2F",
"a.	c #452F2F",
"b.	c #232323",
"c.	c #3A3232",
"d.	c #413030",
"e.	c #2E2F2F",
"f.	c #312F2F",
"g.	c #2D2E2E",
"h.	c #3B2F2F",
"i.	c #2C2D2D",
"j.	c #3A3030",
"k.	c #442E2E",
"l.	c #522C2C",
"m.	c #552B2B",
"n.	c #2A2C2C",
"                                                                                                    ",
"                                                                                                    ",
"                                                                                                    ",
"                                                                                                    ",
"                                                                                                    ",
"                                                                                                    ",
"                                                                                                    ",
"                                                                                                    ",
"                                                                                                    ",
"                                                                                                    ",
"                                                                                                    ",
"                                                                                                    ",
"                                                  . + @                                             ",
"                                                . @ + # $                                           ",
"                                          . % & + * = - * $ &                                       ",
"                                        % @ + ; ; # > , = ; @ .                                     ",
"                                      . @ * ; # > > ' ) ! > ; $ %                                   ",
"                                  . & $ * # = ! ' = = ~ , { - > * $                                 ",
"                                % $ @ * - ! - - { ~ ' { ! ] ^ ~ > * @                               ",
"                                % @ ; - { / ' ( , _ : < [ } | < ' - $                               ",
"                              . & + # < _ 1 [ [ ) 1 2 [ 3 4 5 ] 6 < %                               ",
"                              % + = > 7 8 9 0 a b [ , c d e [ 6 ^ f %                               ",
"                              + > ! g ) h i j k l m n = > o 7 - - = $                               ",
"                            & @ - p q r s t u v j w x o # = y = # ; @                               ",
"                            & = - z A B C D E F G H I J , ~ - # # * $                               ",
"                          $ + ; ~ _ r K L F M N O P Q R S T - > = = $                               ",
"                          @ @ ; - ) U V P W L O X Y V Z ` d  .~ = # =                               ",
"                          . $ * # 7 ..V +.E +.@.#.$.%.&.*.4 { # > ; +                               ",
"                            $ $ #  .=.-.;.>.L ,.'.).!.~.{.[ ].> ; @ $                               ",
"                            . * ~ T b &.^./.&.(._.:.m ] c , - * $ $ &                               ",
"                              @ - 7 4 <.[.}.|.1.2.I } 3.> # @ % @ @ .                               ",
"                              & * p 4.5.*.6.b 7.m 8.9.0.; $ @ % %                                   ",
"                                $ # p a.|.J 8 [ 7 2 ) = @ % .                                       ",
"                                b.* - { c.d.z ' ) ~ e.* %                                           ",
"                                  + ; - < < ( ! T ~ # + &                                           ",
"                                  & $ ; f.f.g.! | h.i.%                                             ",
"                                      . + b.& @ j.{.].@                                             ",
"                                              b.k.5.7 *                                             ",
"                                                l.m.n.                                              ",
"                                                                                                    ",
"                                                                                                    ",
"                                                                                                    ",
"                                                                                                    ",
"                                                                                                    ",
"                                                                                                    ",
"                                                                                                    ",
"                                                                                                    ",
"                                                                                                    ",
"                                                                                                    ",
"                                                                                                    "};
