/* XPM */
static char * exp32_xpm[] = {
"50 50 86 1",
" 	c None",
".	c #252525",
"+	c #292929",
"@	c #272727",
"#	c #262626",
"$	c #282828",
"%	c #242424",
"&	c #2B2B2B",
"*	c #2C2E2E",
"=	c #313131",
"-	c #383131",
";	c #302E2E",
">	c #2A2A2A",
",	c #262525",
"'	c #353131",
")	c #552B2B",
"!	c #6B2525",
"~	c #662626",
"{	c #472E2E",
"]	c #323030",
"^	c #323232",
"/	c #742323",
"(	c #931B1B",
"_	c #881E1E",
":	c #6E2424",
"<	c #442F2F",
"[	c #302F2F",
"}	c #492E2E",
"|	c #6C2525",
"1	c #8F1C1C",
"2	c #A51616",
"3	c #A01818",
"4	c #841F1F",
"5	c #782222",
"6	c #482E2E",
"7	c #2E2E2E",
"8	c #232323",
"9	c #2F3131",
"0	c #642727",
"a	c #8E1C1C",
"b	c #A41717",
"c	c #AB1515",
"d	c #AD1515",
"e	c #B21313",
"f	c #9A1919",
"g	c #692626",
"h	c #312F2F",
"i	c #6D2424",
"j	c #A11717",
"k	c #B01414",
"l	c #981A1A",
"m	c #BB1111",
"n	c #3D3131",
"o	c #2B2C2C",
"p	c #352F2F",
"q	c #722323",
"r	c #A21717",
"s	c #A91515",
"t	c #871E1E",
"u	c #5E2828",
"v	c #3B3131",
"w	c #2F3030",
"x	c #352E2E",
"y	c #6A2525",
"z	c #8C1D1D",
"A	c #911C1C",
"B	c #901C1C",
"C	c #8B1D1D",
"D	c #5B2929",
"E	c #363333",
"F	c #2D2E2E",
"G	c #2C2C2C",
"H	c #2A2C2C",
"I	c #522C2C",
"J	c #602828",
"K	c #5D2929",
"L	c #4D2D2D",
"M	c #502C2C",
"N	c #292A2A",
"O	c #393131",
"P	c #2E2D2D",
"Q	c #2A2B2B",
"R	c #2A2D2D",
"S	c #402F2F",
"T	c #323131",
"U	c #2D2D2D",
"                                                  ",
"                                                  ",
"                                                  ",
"                                                  ",
"                                                  ",
"                                                  ",
"                                                  ",
"                                                  ",
"                                                  ",
"                                                  ",
"                                                  ",
"                                                  ",
"                                                  ",
"                                                  ",
"                                                  ",
"                                                  ",
"                                                  ",
"                        ..+@                      ",
"                       .#@@@@                     ",
"                      ##@##@$.                    ",
"                    .%+##@@$$#%                   ",
"                    &*=-;>#$@%.%                  ",
"                   ,')!~{]#++#%#                  ",
"                 .$^)/(_:<*@$$#@                  ",
"                 @[}|1234567##$+8                 ",
"                 +90abcdefgh$##%                  ",
"                8$'ijklcmb/no@#                   ",
"                8$pqjdrsctuvw+.                   ",
"                8+xy_zABCDEFG@                    ",
"                 $HIJKLM~<G$#.                    ",
"                  NO-PQRST@.                      ",
"                  %oG&>UoG                        ",
"                    $++&..                        ",
"                     .$                           ",
"                                                  ",
"                                                  ",
"                                                  ",
"                                                  ",
"                        U                         ",
"                                                  ",
"                                                  ",
"                                                  ",
"                                                  ",
"                                                  ",
"                                                  ",
"                                                  ",
"                                                  ",
"                                                  ",
"                                                  ",
"                                                  "};
