/* XPM */
static char * exp34_xpm[] = {
"50 50 54 1",
" 	c None",
".	c #262626",
"+	c #292929",
"@	c #282828",
"#	c #2B2B2B",
"$	c #302F2F",
"%	c #2E2F2F",
"&	c #2C2C2C",
"*	c #2D2D2D",
"=	c #3C3131",
"-	c #4B2D2D",
";	c #472E2E",
">	c #353131",
",	c #2A2A2A",
"'	c #252525",
")	c #272727",
"!	c #333030",
"~	c #422F2F",
"{	c #5C2929",
"]	c #5B2929",
"^	c #4A2D2D",
"/	c #313131",
"(	c #2A2929",
"_	c #303232",
":	c #4C2D2D",
"<	c #602828",
"[	c #6D2424",
"}	c #732323",
"|	c #6E2424",
"1	c #532B2B",
"2	c #333131",
"3	c #5F2828",
"4	c #722323",
"5	c #742323",
"6	c #792222",
"7	c #7A2121",
"8	c #622727",
"9	c #383131",
"0	c #3C3030",
"a	c #6F2424",
"b	c #672626",
"c	c #632727",
"d	c #413030",
"e	c #2D2F2F",
"f	c #353030",
"g	c #452F2F",
"h	c #552B2B",
"i	c #4F2C2C",
"j	c #2C2F2F",
"k	c #242424",
"l	c #2D2C2C",
"m	c #2C2D2D",
"n	c #2E2E2E",
"o	c #232323",
"                                                  ",
"                                                  ",
"                                                  ",
"                                                  ",
"                                                  ",
"                                                  ",
"                                                  ",
"                                                  ",
"                                                  ",
"                                                  ",
"                                                  ",
"                                                  ",
"                                                  ",
"                                                  ",
"                                                  ",
"                                                  ",
"                                                  ",
"                                                  ",
"                                                  ",
"                                                  ",
"                                                  ",
"                      .+. ..                      ",
"                    @#$%&+.@.                     ",
"                   +*=-;>,'))                     ",
"                  '*!~{]^/('.                     ",
"                  ._:<[}|12'.                     ",
"                  .>3456789.'                     ",
"                  )03abacde)                      ",
"                  'fgh]i;jk'                      ",
"                   lm_/n%)                        ",
"                   k.'o')                         ",
"                                                  ",
"                                                  ",
"                                                  ",
"                                                  ",
"                                                  ",
"                                                  ",
"                                                  ",
"                                                  ",
"                                                  ",
"                                                  ",
"                                                  ",
"                                                  ",
"                                                  ",
"                                                  ",
"                                                  ",
"                                                  ",
"                                                  ",
"                                                  ",
"                                                  "};
