/* XPM */
static char * exp33_xpm[] = {
"50 50 67 1",
" 	c None",
".	c #242424",
"+	c #232323",
"@	c #282828",
"#	c #292929",
"$	c #272727",
"%	c #262626",
"&	c #2A2A2A",
"*	c #2C2D2D",
"=	c #2C2C2C",
"-	c #313030",
";	c #4D2D2D",
">	c #423030",
",	c #313131",
"'	c #2B2B2B",
")	c #252525",
"!	c #3C3131",
"~	c #502C2C",
"{	c #702424",
"]	c #6A2525",
"^	c #452F2F",
"/	c #303232",
"(	c #373030",
"_	c #4A2D2D",
":	c #6F2424",
"<	c #7E2020",
"[	c #812020",
"}	c #622727",
"|	c #542B2B",
"1	c #422F2F",
"2	c #6D2424",
"3	c #871E1E",
"4	c #8A1D1D",
"5	c #8F1C1C",
"6	c #8E1C1C",
"7	c #7B2121",
"8	c #492E2E",
"9	c #262727",
"0	c #2A2B2B",
"a	c #821F1F",
"b	c #951A1A",
"c	c #861E1E",
"d	c #981A1A",
"e	c #971A1A",
"f	c #522C2C",
"g	c #2A2C2C",
"h	c #2B2C2C",
"i	c #4C2D2D",
"j	c #841F1F",
"k	c #851F1F",
"l	c #632727",
"m	c #2D2E2E",
"n	c #412F2F",
"o	c #692626",
"p	c #742323",
"q	c #722323",
"r	c #752323",
"s	c #642727",
"t	c #402F2F",
"u	c #2D2D2D",
"v	c #353131",
"w	c #472E2E",
"x	c #3D3131",
"y	c #403030",
"z	c #393030",
"A	c #2C2E2E",
"B	c #303131",
"                                                  ",
"                                                  ",
"                                                  ",
"                                                  ",
"                                                  ",
"                                                  ",
"                                                  ",
"                                                  ",
"                                                  ",
"                                                  ",
"                                                  ",
"                                                  ",
"                                                  ",
"                                                  ",
"                                                  ",
"                                                  ",
"                                                  ",
"                                                  ",
"                         ..                       ",
"                        +@#                       ",
"                      ..#@$$%                     ",
"                    %&**=$@&&                     ",
"                    *-;>,'#''@                    ",
"                  )&!~{]^/'#&#)                   ",
"                  &(_:<[}|-$@#)                   ",
"                 $$123456789$%                    ",
"                 )0;abcdecfg#%                    ",
"                  hij5c6kl!m#                     ",
"                 +&nopqrstu#.                     ",
"                  $vwxyz^A$                       ",
"                   =*#$$B@.                       ",
"                   ..$))&)                        ",
"                                                  ",
"                                                  ",
"                                                  ",
"                                                  ",
"                                                  ",
"                                                  ",
"                                                  ",
"                                                  ",
"                                                  ",
"                                                  ",
"                                                  ",
"                                                  ",
"                                                  ",
"                                                  ",
"                                                  ",
"                                                  ",
"                                                  ",
"                                                  "};
