/* XPM */
static char * exp31_xpm[] = {
"50 50 113 2",
"  	c None",
". 	c #242424",
"+ 	c #262626",
"@ 	c #252525",
"# 	c #272727",
"$ 	c #292929",
"% 	c #2A2A2A",
"& 	c #2B2B2B",
"* 	c #2C2C2C",
"= 	c #282828",
"- 	c #232323",
"; 	c #2D2D2D",
"> 	c #2E2E2E",
", 	c #303030",
"' 	c #333232",
") 	c #2F2F2F",
"! 	c #323030",
"~ 	c #302D2D",
"{ 	c #3E3030",
"] 	c #542B2B",
"^ 	c #462F2F",
"/ 	c #3A2F2F",
"( 	c #312F2F",
"_ 	c #2D2F2F",
": 	c #4F2C2C",
"< 	c #6F2424",
"[ 	c #8B1D1D",
"} 	c #802020",
"| 	c #682626",
"1 	c #412E2E",
"2 	c #2A2B2B",
"3 	c #472E2E",
"4 	c #762222",
"5 	c #931B1B",
"6 	c #B41313",
"7 	c #A91616",
"8 	c #881E1E",
"9 	c #6D2525",
"0 	c #313131",
"a 	c #2E2F2F",
"b 	c #423030",
"c 	c #712424",
"d 	c #A21717",
"e 	c #C40F0F",
"f 	c #BF1010",
"g 	c #A01818",
"h 	c #971A1A",
"i 	c #622727",
"j 	c #383131",
"k 	c #3B3131",
"l 	c #AA1515",
"m 	c #BC1111",
"n 	c #C80E0E",
"o 	c #CA0D0D",
"p 	c #CD0C0C",
"q 	c #841F1F",
"r 	c #492E2E",
"s 	c #2E3030",
"t 	c #2C2D2D",
"u 	c #4B2D2D",
"v 	c #8A1D1D",
"w 	c #BE1010",
"x 	c #D00C0C",
"y 	c #AF1414",
"z 	c #D20B0B",
"A 	c #DB0909",
"B 	c #C60E0E",
"C 	c #632727",
"D 	c #3C3131",
"E 	c #2F3030",
"F 	c #2B2C2C",
"G 	c #502C2C",
"H 	c #8F1C1C",
"I 	c #AC1515",
"J 	c #652727",
"K 	c #333030",
"L 	c #432D2D",
"M 	c #811F1F",
"N 	c #A81616",
"O 	c #AD1515",
"P 	c #B01414",
"Q 	c #752222",
"R 	c #562A2A",
"S 	c #393131",
"T 	c #373131",
"U 	c #6E2424",
"V 	c #7E2020",
"W 	c #7C2121",
"X 	c #6B2525",
"Y 	c #8E1C1C",
"Z 	c #592A2A",
"` 	c #373232",
" .	c #313232",
"..	c #5C2929",
"+.	c #522B2B",
"@.	c #303232",
"#.	c #402F2F",
"$.	c #4A2D2D",
"%.	c #422F2F",
"&.	c #353333",
"*.	c #333333",
"=.	c #363232",
"-.	c #3D3030",
";.	c #353232",
">.	c #302F2F",
",.	c #323232",
"'.	c #2C2E2E",
").	c #2E2D2D",
"!.	c #4D2B2B",
"~.	c #2E2929",
"{.	c #522C2C",
"].	c #552B2B",
"^.	c #292C2C",
"                                                                                                    ",
"                                                                                                    ",
"                                                                                                    ",
"                                                                                                    ",
"                                                                                                    ",
"                                                                                                    ",
"                                                                                                    ",
"                                                                                                    ",
"                                                                                                    ",
"                                                                                                    ",
"                                                                                                    ",
"                                                                                                    ",
"                                                                                                    ",
"                                                                                                    ",
"                                                                                                    ",
"                                                  . + +                                             ",
"                                            @ + # $ % % # @                                         ",
"                                          . % $ $ & & * * = @                                       ",
"                                        - $ $ & * = $ & ; > # @                                     ",
"                                      - = & & & ; > ; > > , % = +                                   ",
"                                    - $ $ * ' * > * * > ) ! ) * $ +                                 ",
"                                  . + * ~ { ] ^ / ( & * ; > > % $ +                                 ",
"                                @ = & _ : < [ } | 1 2 & & % $ # = @                                 ",
"                                + & ( 3 4 5 6 7 8 9 0 ) % % = $ $ +                                 ",
"                              + # a b c [ d e f g h i j & = & & $ @                                 ",
"                              + $ a k 8 l m n o p m q r s % = $ = @                                 ",
"                              . = t u v w x y z A B h C D E * # + .                                 ",
"                              @ $ F G H w n f B p I v J k K * +                                     ",
"                              + $ & L M N O O P P Q R S D ) & .                                     ",
"                                & % T U V W | X Y Z ` ; ; $ +                                       ",
"                                + *  ...+.S @.#.C $.! * = @                                         ",
"                                  = * %.&.*.=.T -.;.> = @                                           ",
"                                  @ = >., ! ,., ; > = .                                             ",
"                                    @ $ $ * > * % $ .                                               ",
"                                        @ % % $ % # .                                               ",
"                                          # # = $ =                                                 ",
"                                            . + '.).                                                ",
"                                              @ u !.~.                                              ",
"                                                {.].^.                                              ",
"                                                                                                    ",
"                                                                                                    ",
"                                                                                                    ",
"                                                                                                    ",
"                                                                                                    ",
"                                                                                                    ",
"                                                                                                    ",
"                                                                                                    ",
"                                                                                                    ",
"                                                                                                    ",
"                                                                                                    "};
