/* XPM */
static char * blueship10_xpm[] = {
"50 50 367 2",
"  	c None",
". 	c #08167B",
"+ 	c #0A198E",
"@ 	c #0A1A93",
"# 	c #0A1A94",
"$ 	c #08167C",
"% 	c #0A1A92",
"& 	c #071471",
"* 	c #0A1A97",
"= 	c #07136D",
"- 	c #0A1B96",
"; 	c #0D24CF",
"> 	c #0E27E3",
", 	c #091783",
"' 	c #0A1A90",
") 	c #0C20B6",
"! 	c #0F28E9",
"~ 	c #0D24CD",
"{ 	c #0A198F",
"] 	c #0E23CA",
"^ 	c #0F28EB",
"/ 	c #0D21BD",
"( 	c #0C1FB0",
"_ 	c #0F28EC",
": 	c #08146D",
"< 	c #0A1A96",
"[ 	c #0E26D9",
"} 	c #0C1DA6",
"| 	c #0A1A91",
"1 	c #0F27E4",
"2 	c #0F29EC",
"3 	c #0B1CA3",
"4 	c #0A1B94",
"5 	c #0F27E0",
"6 	c #0F27E6",
"7 	c #0B1EA7",
"8 	c #0D24D0",
"9 	c #0C22C1",
"0 	c #0A1992",
"a 	c #828280",
"b 	c #464D8C",
"c 	c #0B25EB",
"d 	c #0F27E7",
"e 	c #091887",
"f 	c #0A1B98",
"g 	c #0E27E4",
"h 	c #0F28EA",
"i 	c #0A1C9E",
"j 	c #0A1B99",
"k 	c #0F27DF",
"l 	c #081578",
"m 	c #091886",
"n 	c #000F86",
"o 	c #979694",
"p 	c #BABABB",
"q 	c #C0BFBB",
"r 	c #4550AA",
"s 	c #0A24EB",
"t 	c #09188A",
"u 	c #0A1B97",
"v 	c #0F28E7",
"w 	c #0C1EAB",
"x 	c #0D22C0",
"y 	c #0F28E8",
"z 	c #0B1DA7",
"A 	c #09198B",
"B 	c #061058",
"C 	c #0A1A95",
"D 	c #252F7F",
"E 	c #B8B8B7",
"F 	c #B7B7B7",
"G 	c #C1C0BC",
"H 	c #4750A1",
"I 	c #0E27E8",
"J 	c #091885",
"K 	c #0E26D5",
"L 	c #0B1B98",
"M 	c #0F29ED",
"N 	c #0E26DD",
"O 	c #071263",
"P 	c #0A1785",
"Q 	c #091990",
"R 	c #2233C0",
"S 	c #B9B9B8",
"T 	c #B9B9B7",
"U 	c #485197",
"V 	c #0E27EA",
"W 	c #0C20B5",
"X 	c #0E23C7",
"Y 	c #0B1B9A",
"Z 	c #091782",
"` 	c #0A1887",
" .	c #0F27E3",
"..	c #0D25D8",
"+.	c #242F84",
"@.	c #B3B3B2",
"#.	c #B6B6B7",
"$.	c #BABAB8",
"%.	c #4651AA",
"&.	c #0E24D3",
"*.	c #0A1A8F",
"=.	c #0E26DA",
"-.	c #091884",
";.	c #0A1A98",
">.	c #0F2AF2",
",.	c #0B1EA8",
"'.	c #0C1FB1",
").	c #0F27E1",
"!.	c #0D22C1",
"~.	c #0F25D3",
"{.	c #2B3BB8",
"].	c #B3B2AD",
"^.	c #878682",
"/.	c #0E25DC",
"(.	c #0B1C9C",
"_.	c #0F29F0",
":.	c #0B1FAE",
"<.	c #08167A",
"[.	c #081577",
"}.	c #0D22C3",
"|.	c #0E24CF",
"1.	c #0F26DB",
"2.	c #0A1C99",
"3.	c #0C1FAC",
"4.	c #0B1C9D",
"5.	c #232D82",
"6.	c #0A1C9D",
"7.	c #0E24D4",
"8.	c #061263",
"9.	c #0B1DA3",
"0.	c #0F29EB",
"a.	c #0F29EE",
"b.	c #0F25D7",
"c.	c #0B1DA2",
"d.	c #0A1C9B",
"e.	c #0D21BA",
"f.	c #091993",
"g.	c #132189",
"h.	c #0F27E2",
"i.	c #0D23C6",
"j.	c #07146D",
"k.	c #0B1FAC",
"l.	c #0B1DA8",
"m.	c #0A1B95",
"n.	c #0C1FAF",
"o.	c #07136B",
"p.	c #0F26DD",
"q.	c #0C20B4",
"r.	c #0B1B99",
"s.	c #0D23CA",
"t.	c #091781",
"u.	c #091888",
"v.	c #061161",
"w.	c #0C1EA8",
"x.	c #0E24D1",
"y.	c #0B1A94",
"z.	c #09198D",
"A.	c #0D21C0",
"B.	c #161888",
"C.	c #091784",
"D.	c #0C1EAA",
"E.	c #0A1997",
"F.	c #0A189A",
"G.	c #0A119A",
"H.	c #0E24D2",
"I.	c #09177E",
"J.	c #0C21BE",
"K.	c #08167F",
"L.	c #0C1FAE",
"M.	c #0A1996",
"N.	c #091788",
"O.	c #0B4056",
"P.	c #0E5F3A",
"Q.	c #0F7326",
"R.	c #15AE28",
"S.	c #0B1D8C",
"T.	c #0A188A",
"U.	c #060F57",
"V.	c #09198E",
"W.	c #071261",
"X.	c #0E25D3",
"Y.	c #0E24D0",
"Z.	c #0A3956",
"`.	c #11A003",
" +	c #13AC0B",
".+	c #15BD0D",
"++	c #1BF411",
"@+	c #19D713",
"#+	c #0A1891",
"$+	c #0B1B97",
"%+	c #0A1C9C",
"&+	c #050E50",
"*+	c #0B1B9D",
"=+	c #091786",
"-+	c #0A198D",
";+	c #0B1CA0",
">+	c #0F29F1",
",+	c #0A1797",
"'+	c #10821B",
")+	c #13A80B",
"!+	c #14B00C",
"~+	c #1AEB10",
"{+	c #1BF110",
"]+	c #1BF310",
"^+	c #16BC19",
"/+	c #0A1793",
"(+	c #091785",
"_+	c #0A1B9A",
":+	c #071160",
"<+	c #0E26D8",
"[+	c #0A178C",
"}+	c #10811A",
"|+	c #13A809",
"1+	c #17CD0E",
"2+	c #1BF210",
"3+	c #1CF80E",
"4+	c #0D5D39",
"5+	c #0A1995",
"6+	c #06115B",
"7+	c #0C20B7",
"8+	c #0E761A",
"9+	c #13AB0B",
"0+	c #19DD0F",
"a+	c #1BF410",
"b+	c #1AE40E",
"c+	c #09138D",
"d+	c #061057",
"e+	c #0B1DA4",
"f+	c #081781",
"g+	c #0A1A8D",
"h+	c #0F28ED",
"i+	c #0F6057",
"j+	c #14AD0B",
"k+	c #1AED10",
"l+	c #1BF60F",
"m+	c #118336",
"n+	c #0D21BB",
"o+	c #081472",
"p+	c #0C1FAB",
"q+	c #091889",
"r+	c #071265",
"s+	c #0D4870",
"t+	c #13AA08",
"u+	c #1BEA10",
"v+	c #17C511",
"w+	c #091095",
"x+	c #0B1EA9",
"y+	c #0B1C9B",
"z+	c #0F26DC",
"A+	c #0D21B7",
"B+	c #06105A",
"C+	c #0E28D6",
"D+	c #129E10",
"E+	c #1AE510",
"F+	c #17CC11",
"G+	c #0A1F82",
"H+	c #0C1EA9",
"I+	c #0E25D8",
"J+	c #0E27DE",
"K+	c #07136E",
"L+	c #0D23C9",
"M+	c #0B1CA1",
"N+	c #0E25D7",
"O+	c #071264",
"P+	c #0C1EAC",
"Q+	c #0F26F3",
"R+	c #0E6833",
"S+	c #19E00E",
"T+	c #1BF40F",
"U+	c #18D115",
"V+	c #091689",
"W+	c #0D21B6",
"X+	c #0D21BC",
"Y+	c #060F54",
"Z+	c #0B1DA1",
"`+	c #0E25D4",
" @	c #0E25D5",
".@	c #09188B",
"+@	c #081679",
"@@	c #0D29A6",
"#@	c #14B50A",
"$@	c #14A625",
"%@	c #0B1BA7",
"&@	c #0F26D9",
"*@	c #0F27E5",
"=@	c #0C1FAD",
"-@	c #07105B",
";@	c #0A1C9A",
">@	c #0D21BF",
",@	c #0F28E6",
"'@	c #0E23CD",
")@	c #0C1FAA",
"!@	c #0B1C9E",
"~@	c #060F58",
"{@	c #0A296F",
"]@	c #1BF306",
"^@	c #10676B",
"/@	c #0F23ED",
"(@	c #0B1CA5",
"_@	c #0F29EF",
":@	c #0B1EAC",
"<@	c #0D22C2",
"[@	c #0B1DA0",
"}@	c #09178D",
"|@	c #15B319",
"1@	c #1CFB0C",
"2@	c #1BF607",
"3@	c #15AD32",
"4@	c #0D31B2",
"5@	c #0E23E2",
"6@	c #0D20B9",
"7@	c #0B1B96",
"8@	c #091780",
"9@	c #0E23CC",
"0@	c #0C20B8",
"a@	c #0F26DA",
"b@	c #071575",
"c@	c #0C21BA",
"d@	c #0A1597",
"e@	c #092B57",
"f@	c #0F26F6",
"g@	c #0D22BE",
"h@	c #081576",
"i@	c #0A1991",
"j@	c #050E4B",
"k@	c #0B1C9F",
"l@	c #081575",
"m@	c #0E26DC",
"n@	c #0E23CE",
"o@	c #0A1990",
"p@	c #0A198C",
"q@	c #050D4B",
"r@	c #081579",
"s@	c #0E24CD",
"t@	c #0C1DA8",
"u@	c #08167D",
"v@	c #0B1B9C",
"w@	c #0C1FB2",
"x@	c #081678",
"y@	c #0D21BE",
"z@	c #0C1EA7",
"A@	c #050D4C",
"B@	c #091A8E",
"C@	c #0E27E1",
"D@	c #0B1DA5",
"E@	c #0D24CA",
"F@	c #0B1C9A",
"G@	c #071057",
"H@	c #0B1EAF",
"I@	c #0F29EA",
"J@	c #0D22BF",
"K@	c #06105F",
"L@	c #060E4E",
"M@	c #0F28E4",
"N@	c #0C20B3",
"O@	c #0E22C6",
"P@	c #0F26E0",
"Q@	c #071368",
"R@	c #0B1DA6",
"S@	c #040C41",
"T@	c #1029ED",
"U@	c #0B1D9C",
"V@	c #09188C",
"W@	c #050D48",
"X@	c #081574",
"Y@	c #1322B9",
"Z@	c #1028DF",
"                              .                                                                     ",
"                            + @ #                                                                   ",
"                          $ # @ @ %                                                                 ",
"                          % @ @ @ #                                                                 ",
"                        & @ @ @ @ @ %                                                               ",
"                        * @ @ @ @ @ @ @                                                             ",
"                      = @ @ @ @ @ @ - ; >                                                           ",
"                      , @ @ @ @ ' ) ! ~ % {                                                         ",
"                      - @ @ @ @ ] ^ / { @ ( _                                                       ",
"                    : < @ @ < [ ! } @ @ | 1 2 3                                                     ",
"                    , # @ 4 5 6 7 % @ % 8 ^ 9 % @ 0                 a b c d                         ",
"                    e @ f g h i @ @ @ j ! k ' @ @ # +       l m n o p q r s d                       ",
"                    t u v ! w @ @ @ | x y z @ @ @ @ # A B - @ @ C D E F G H I d                     ",
"                    J K y } % @ @ @ L M N % @ @ @ f O P @ @ @ @ @ Q R S F T U V                     ",
"                    W M X @ @ @ @ @ / y Y @ @ @ { Z ` @ @ @ % + )  ...+.@.#.$.%.                    ",
"                    &.k *.@ @ @ @ ' N =.@ @ C -.;.>.,.| ' f '.).^ !.*.~.{.].F ^.                    ",
"                    /.(.@ @ @ @ @ ,._.:.@ @ <.[.x h 6 }.|.h y 1.2.% 3.h 4.5.S                       ",
"                    6.% @ @ @ @ @ 7. .{ @ 8.9.@ | [ h 0.a.b.c.@ @ d.h e.| f.g.                      ",
"                    A @ @ @ @ @ @ h.i.@ j.}.j @ @ @ k.l.m.{ @ @ | i.1 @ @ @ #                       ",
"                    t @ @ @ @ @ - h n.o.p.q.% @ @ @ @ @ @ @ @ @ r.M s.@ @ # t.                      ",
"                    u.@ @ @ @ @ 9._.v.w.! C @ @ @ @ @ @ @ @ @ @ x.h y.@ @ %                         ",
"                    z.@ @ @ @ | A.B.C.y D.% @ @ # E.F.G.@ @ @ % 5 H.| @ @ I.                        ",
"                    { @ @ @ @ # J.K.L.1 % @ M.N.O.P.Q.R.S.@ @ # y s.% @ T.U.                        ",
"                    V.@ @ @ @ u.W.% X.Y.@ % Z.`. +.+++@+#+@ @ $+!  .%+u &+*+=+                      ",
"                    -+@ @ @ # B @ ;+>+4.,+'+)+!+~+{+]+^+/+@ @ @ 1.y h (+e @ @ %                     ",
"                    | @ @ _+:+- @ x.<+[+}+|+1+2+{+{+3+4+5+@ @ @ C e.i.m # @ @ @                     ",
"                    | @ @ 6+{ @ # ).7+8+9+0+a+{+{+{+b+c+@ @ @ @ | % d+@ @ @ @ % e+                  ",
"                    @ # f+g+@ @ ;+h+i+j+k+{+{+{+{+l+m+# @ @ @ # n+o+< @ @ @ @ p+h !                 ",
"                    # q+r+@ @ | N s+t+u+{+{+{+{+{+v+w+@ @ { x+h & @ @ @ % y+z+! a.A+@               ",
"                  B+(.U.u @ ' '.C+D+E+{+{+{+{+2+F+G+% { H+I+J+K+% @ ' _+L+2 2 x.M+' | N+            ",
"                  J O+-.@ @ P+Q+R+S+2+{+{+{+T+U+V+y+W+h.v X+Y+C @ Z+L+M v `+;+' @ % X+ @-+          ",
"                  .@+@@ @ r.h @@#@{+{+{+{+a+$@%@&@! *@=@' -@;@>@,@y ! '@f @ @ @ @ )@! !@@ #         ",
"                  ~@m.@ y+^ P+{@0+2+{+{+]@^@/@a.H.,.C z.(@1 0._@ @:@f | @ @ @ @ 9.M <@% @ @ @ 0     ",
"                  - @ [@h :@| }@|@1@2@3@4@5@6@7@{ C 8@q+9@0@k.# { @ @ @ @ @ @ 4.,@a@' @ @ @ @ @ @   ",
"                b@@ @ v c@% @ @ d@e@C f@g@*.@ @ C h@o.{ % @ @ @ @ @ @ @ @ @ u h.).| @ @ @ @ @ @ @ u.",
"                < i@).x @ @ @ @ @ i 0.n+@ @ @ @ j@e @ @ @ @ @ @ @ @ @ @ @ k@y 2 k@@ @ @ @ @ @ @ < l@",
"              h@% m@n@o@@ @ @ % k@M D.| @ @ p@q@A # @ @ @ @ @ @ @ @ @ % 9.,@h k@% @ @ @ @ @ u r@    ",
"              % s@ @% @ @ @ | D.M t@| @ u u@O+v@@ @ @ @ @ @ @ @ @ @ % w@0.,@k@@ @ @ @ # @ t.        ",
"            x@y@ .@ @ @ @ @ '.M z@% @ % A@B@@ @ @ @ @ @ @ @ @ @ @ u `+! C@y+@ @ @ % @ <.            ",
"            D@h Y @ @ @ % E@v F@@ @ C.G@| # # # # < C C < < < < H@I@a.J@f < J +@K@                  ",
"          L@M@N@% @ @ # O@P@!@@ f d+Q@=+Q@o+                                                        ",
"          R@N++ @ @ f x.m@% # C.S@                                                                  ",
"          T@(.@ @ U@*@|.' V@W@                                                                      ",
"          N | % |._ q.X@                                                                            ",
"          Y@s.Z@n.h@                                                                                ",
"                                                                                                    ",
"                                                                                                    ",
"                                                                                                    ",
"                                                                                                    ",
"                                                                                                    "};
