/* XPM */
static char * blueship11_xpm[] = {
"50 50 364 2",
"  	c None",
". 	c #09188A",
"+ 	c #0A1A94",
"@ 	c #0A1A93",
"# 	c #0F27E4",
"$ 	c #0A1A97",
"% 	c #0A1A91",
"& 	c #3241BF",
"* 	c #1127D8",
"= 	c #0C26EB",
"- 	c #0F28E9",
"; 	c #0A1A96",
"> 	c #0A1A92",
", 	c #B4B4B4",
"' 	c #B7B7B7",
") 	c #B8B7B3",
"! 	c #585D92",
"~ 	c #0D23D5",
"{ 	c #0E26DA",
"] 	c #071168",
"^ 	c #0A1A95",
"/ 	c #0A1A90",
"( 	c #0F27E2",
"_ 	c #0A1991",
": 	c #4F547A",
"< 	c #B9B8B0",
"[ 	c #BABAB8",
"} 	c #B1B1AF",
"| 	c #8E91AB",
"1 	c #2736A6",
"2 	c #08146D",
"3 	c #0E24D1",
"4 	c #0D23CC",
"5 	c #0B1C9C",
"6 	c #0F28EC",
"7 	c #061796",
"8 	c #071580",
"9 	c #4C59BB",
"0 	c #8F91A5",
"a 	c #BEBEB6",
"b 	c #B8B8B7",
"c 	c #B8B8B8",
"d 	c #AFAFA9",
"e 	c #081572",
"f 	c #0C20B2",
"g 	c #0F29EE",
"h 	c #0A1B96",
"i 	c #0D21BF",
"j 	c #0F28EB",
"k 	c #0D22C5",
"l 	c #0A198F",
"m 	c #0B1DA6",
"n 	c #04179C",
"o 	c #1C2BA8",
"p 	c #878BAD",
"q 	c #AFAFB0",
"r 	c #9E9E9D",
"s 	c #09157B",
"t 	c #0A1B97",
"u 	c #0F28E7",
"v 	c #0D22C2",
"w 	c #0E25D4",
"x 	c #0B1CA2",
"y 	c #09177D",
"z 	c #1029F0",
"A 	c #0C1B8F",
"B 	c #232A68",
"C 	c #081474",
"D 	c #0D22BC",
"E 	c #0A1B9A",
"F 	c #0F27E0",
"G 	c #0F29EC",
"H 	c #061056",
"I 	c #0F26DC",
"J 	c #0F27DF",
"K 	c #0B1EA9",
"L 	c #0F29E9",
"M 	c #0A198E",
"N 	c #081372",
"O 	c #0B1C9B",
"P 	c #0D23C9",
"Q 	c #0A198D",
"R 	c #091578",
"S 	c #0E26DE",
"T 	c #0B1C9F",
"U 	c #0D23C7",
"V 	c #0F26DD",
"W 	c #091781",
"X 	c #0D22BE",
"Y 	c #0F27E5",
"Z 	c #0F27E3",
"` 	c #0C20B8",
" .	c #0B1B98",
"..	c #0C1EAA",
"+.	c #0D25D3",
"@.	c #0E26D9",
"#.	c #0E26DB",
"$.	c #0F28E3",
"%.	c #0D23CA",
"&.	c #071470",
"*.	c #102AF2",
"=.	c #0F28E6",
"-.	c #0C1EAE",
";.	c #0E26DD",
">.	c #0E25D5",
",.	c #0A1990",
"'.	c #081578",
").	c #091785",
"!.	c #0C1FB1",
"~.	c #0F29EF",
"{.	c #0C20B3",
"].	c #0F28E4",
"^.	c #09198D",
"/.	c #081574",
"(.	c #0F2AEF",
"_.	c #0F27DC",
":.	c #0B1DA4",
"<.	c #071266",
"[.	c #07136F",
"}.	c #0A1A8E",
"|.	c #0D22C4",
"1.	c #07115E",
"2.	c #0B1DA0",
"3.	c #0B1C9D",
"4.	c #0E27DF",
"5.	c #0A1C9C",
"6.	c #061059",
"7.	c #0E24CF",
"8.	c #0F28E5",
"9.	c #0D22C6",
"0.	c #0C20B6",
"a.	c #0F29ED",
"b.	c #0B1DA1",
"c.	c #09198C",
"d.	c #081370",
"e.	c #0F28EA",
"f.	c #0D21BD",
"g.	c #0D23C6",
"h.	c #081577",
"i.	c #0A1698",
"j.	c #0A1B93",
"k.	c #0F27E1",
"l.	c #0A1A8F",
"m.	c #0F26E1",
"n.	c #091886",
"o.	c #0B1EA8",
"p.	c #0E23CE",
"q.	c #081475",
"r.	c #0A1598",
"s.	c #0A2C67",
"t.	c #15A124",
"u.	c #0A1690",
"v.	c #081576",
"w.	c #0C1FAF",
"x.	c #0D24D4",
"y.	c #081473",
"z.	c #0E23CB",
"A.	c #0E22C0",
"B.	c #0A1C87",
"C.	c #0E6629",
"D.	c #16C309",
"E.	c #1DFB0D",
"F.	c #0A2A7A",
"G.	c #0B1A94",
"H.	c #0F27E7",
"I.	c #0F28E8",
"J.	c #0B1FAF",
"K.	c #0C21BD",
"L.	c #0D20B7",
"M.	c #060E50",
"N.	c #0E26D8",
"O.	c #0C1FB3",
"P.	c #0A1693",
"Q.	c #119112",
"R.	c #13AF0C",
"S.	c #1BF210",
"T.	c #1BF310",
"U.	c #0E575E",
"V.	c #0B1DA8",
"W.	c #091881",
"X.	c #0E25D8",
"Y.	c #0D20BC",
"Z.	c #0E25D7",
"`.	c #0E25D6",
" +	c #12136A",
".+	c #0C1FB0",
"++	c #0A1793",
"@+	c #108116",
"#+	c #13A70A",
"$+	c #1AE60F",
"%+	c #1BF110",
"&+	c #0F723D",
"*+	c #0A1997",
"=+	c #07136E",
"-+	c #0E24CD",
";+	c #0B1C9E",
">+	c #091783",
",+	c #091682",
"'+	c #0A1993",
")+	c #091A93",
"!+	c #0D21B8",
"~+	c #0A1995",
"{+	c #0A3A56",
"]+	c #13A90B",
"^+	c #17D20E",
"/+	c #10763F",
"(+	c #0A1897",
"_+	c #0E24D2",
":+	c #081472",
"<+	c #0D24CE",
"[+	c #081782",
"}+	c #081471",
"|+	c #08177F",
"1+	c #0E27E1",
"2+	c #0D21BC",
"3+	c #091292",
"4+	c #119706",
"5+	c #13AC0B",
"6+	c #1BF010",
"7+	c #0F674D",
"8+	c #0E24CE",
"9+	c #0E24D0",
"0+	c #091786",
"a+	c #0B375C",
"b+	c #13AF09",
"c+	c #1AE410",
"d+	c #1BF60F",
"e+	c #0D436B",
"f+	c #060E4F",
"g+	c #0D21BA",
"h+	c #0F26D8",
"i+	c #0D22BF",
"j+	c #0A198B",
"k+	c #081780",
"l+	c #071164",
"m+	c #0E26DC",
"n+	c #0E21CC",
"o+	c #0E7223",
"p+	c #15B30C",
"q+	c #1BF40A",
"r+	c #091C84",
"s+	c #091889",
"t+	c #0E22C4",
"u+	c #0F29F1",
"v+	c #050E50",
"w+	c #0A1B98",
"x+	c #0E1DE8",
"y+	c #119802",
"z+	c #19D70E",
"A+	c #0F7B2E",
"B+	c #0A1596",
"C+	c #0B1DA7",
"D+	c #08136F",
"E+	c #0F29EA",
"F+	c #0D23C5",
"G+	c #050E53",
"H+	c #091782",
"I+	c #0C27AB",
"J+	c #14B402",
"K+	c #1BF610",
"L+	c #1AEB10",
"M+	c #0A2184",
"N+	c #0B1CA1",
"O+	c #081679",
"P+	c #0D22C9",
"Q+	c #0C1EA8",
"R+	c #0B1DA5",
"S+	c #060F55",
"T+	c #08167C",
"U+	c #0D574D",
"V+	c #18CF0C",
"W+	c #1BF410",
"X+	c #15B11E",
"Y+	c #0C1EAD",
"Z+	c #07126A",
"`+	c #0D24CB",
" @	c #0A198A",
".@	c #071262",
"+@	c #11822A",
"@@	c #19E40F",
"#@	c #19E10C",
"$@	c #0D1DDE",
"%@	c #0A198C",
"&@	c #0B1CA0",
"*@	c #0C20B4",
"=@	c #081678",
"-@	c #060D4D",
";@	c #0F29E8",
">@	c #119120",
",@	c #1BEF10",
"'@	c #1CF80E",
")@	c #117564",
"!@	c #0F27E8",
"~@	c #050F51",
"{@	c #0F28E2",
"]@	c #091787",
"^@	c #060F53",
"/@	c #0C1FB4",
"(@	c #0F27DE",
"_@	c #118E18",
":@	c #16BE17",
"<@	c #0E1EEC",
"[@	c #0B1B99",
"}@	c #08177C",
"|@	c #0E25CF",
"1@	c #050E52",
"2@	c #071265",
"3@	c #08167E",
"4@	c #0A1988",
"5@	c #0A3D37",
"6@	c #1BFA0B",
"7@	c #1CF90F",
"8@	c #18D309",
"9@	c #0E2BCF",
"0@	c #0D22C1",
"a@	c #0A1B9B",
"b@	c #071058",
"c@	c #0C1FB5",
"d@	c #0A1B99",
"e@	c #0A169A",
"f@	c #0B3961",
"g@	c #0D574E",
"h@	c #091194",
"i@	c #1029EE",
"j@	c #071263",
"k@	c #08167B",
"l@	c #071264",
"m@	c #0D21BB",
"n@	c #0D20B9",
"o@	c #081575",
"p@	c #050C48",
"q@	c #050D4C",
"r@	c #07136B",
"s@	c #0C1FAD",
"t@	c #0B1EAC",
"u@	c #0F26D7",
"v@	c #09167B",
"w@	c #09198E",
"x@	c #0C1FB2",
"y@	c #09167D",
"z@	c #08167D",
"A@	c #0C20B5",
"B@	c #071369",
"C@	c #0E25D3",
"D@	c #020726",
"E@	c #091784",
"F@	c #0C1EAC",
"G@	c #0F26DE",
"H@	c #040A39",
"I@	c #050F53",
"J@	c #0A1B9C",
"K@	c #0B1EAB",
"L@	c #071268",
"M@	c #0B1EAA",
"N@	c #08136C",
"O@	c #0B1EAE",
"P@	c #07136C",
"Q@	c #0E20A7",
"R@	c #0C1FAC",
"S@	c #0B1FB1",
"T@	c #1329D7",
"U@	c #0C1EAB",
"V@	c #07136D",
"W@	c #1520AF",
"                                                                                                    ",
"                                                                                                    ",
"                                                                                                    ",
"        . + @                                           #                                           ",
"        $ @ @ + %                                     & * = -                                       ",
"        ; @ @ @ @ >                                 , ' ) ! ~ - {                                   ",
"      ] ^ @ @ @ @ @ / (                         _ : < [ ' [ } | 1                                   ",
"      2 ^ @ @ @ @ / 3 4 > 5 6                 % @ 7 8 9 0 a b c d                                   ",
"      e + @ @ @ > f g h @ i j k @ >         l @ @ @ m j n o p q r                                   ",
"      s @ @ @ @ t u v % > w g x @ @ @ @ ; y @ @ @ h j v % z + A B                                   ",
"      C + @ @ / D 6 E @ @ F G _ @ @ @ % H + @ @ / I J > K L M @ ^ y                                 ",
"      N ^ @ @ O j P / @ @ J ( Q @ @ ^ R > @ @ ^ S - T @ U V l @ @ W                                 ",
"        t @ > X Y > @ @ + Z { M @ @ M ^ ` +  .S - ..@ @ +.@.l @ @ s                                 ",
"        ; @ Q # #.@ @ @ ^ $.%.% @ + &.*.- Z =.j -.> @ @ ;.>.,.@ + '.                                ",
"        ).@ !.~.{.@ @ @ ^ ].v > @ ^./...].(._.:.> @ @ + F >.,.@ ; <.                                ",
"        [.@ #.# }.@ @ @ ^ Z |.% @ 1.2.@ M 3.}.@ @ @ @ + 4.#.M @ 5.6.@                               ",
"          @ Z 7.% @ @ @ ^ 8.9.% > 0.% @ @ @ @ @ @ @ @ @ >.a.b.+ c.d.@ @ +                           ",
"          E e.f.@ @ @ @ + Z g.> h.3 M @ @ @ @ @ i.j.@ @ {.j u k.. l.@ @ @ > m.                      ",
"          n.g o.@ @ @ @ @ ( p.. q.4 / @ @ @ r.s.t.u.@ @ % P L G v.t @ @ > w.e.4.>                   ",
"            Z > @ @ @ @ > x.@.y.z.A.% @ @ B.C.D.E.F.@ @ @ % l G./.+ @ @ h H.I.T > J.v               ",
"            K./ @ @ @ @ @ L.g M.N.O.> @ P.Q.R.S.T.U.+ @ @ @ > V.W.@ @ % X.j Y.@ l Z.{.> @ @ @ + Q   ",
"              h @ @ @ @ @ O `. +I .+> ++@+#+$+%+%+&+*+@ @ @ T =+> @ > -+G k > @ ^ g ;+@ @ @ @ @ + >+",
"              ,+@ @ @ @ @ l '+)+X.!+~+{+]+^+T.%+%+/+(+@ @ + _+:++ / {.- <+Q @ @ 0.u % @ @ @ @ @ + [+",
"              }++ @ @ @ @ > |+@ 1+2+3+4+5+6+%+%+S.7+~+@ > 8+.+^ > O.6 V > @ @ > 9+{ @ @ @ @ @ @ 0+  ",
"                $ @ @ @ @ > /.% # 2+a+b+c+%+%+%+d+e+@ @ |.=.f+@ g+j h++ @ @ @ l.- i+@ @ @ @ @ j+    ",
"                k+@ @ @ @ l+j+% m+n+o+p+S.%+%+%+q+r+/ L.a.v.s+t+6 7.> @ @ @ @ .+u+5 @ @ @ @ h       ",
"                  @ @ @ @ v+w+% w x+y+z+%+%+%+T.A+B+X e.C+D+8+E+F+l @ @ @ @ + Z `.M @ @ @ @ G+      ",
"                  @ @ @ l H++ % 9+I+J+K+%+%+%+L+M+U j N+O+P+# Q+> @ @ @ @ > R+e.!.@ @ @ > S+        ",
"                  T++ @ Q c.@ % >.U+V+%+%+%+W+X+9+(.Y+> Z+`+^ @ @ @ @ @ @ + ( G + @ @  @            ",
"                    ,.^ .@,.@ % ( +@@@%+%+%+#@$@E+V.% %@&@/ @ @ @ @ @ @ > *@- ` % + =@              ",
"                    s+t -@+ @ N+;@>@,@%+%+'@)@!@;+> + ~@@ @ @ @ @ @ @ @ h a.{@h %@                  ",
"                    ]@@ ^@+ > /@(@_@T.%+%+:@<@[@@ @ }@,.@ @ @ @ @ @ @ @ |@e.5 1@                    ",
"                    2@3@4@@ }.Z 5 5@6@7@8@9@0@@ @ a@b@+ @ @ @ @ @ @ + T c@                          ",
"                      h.d@@ ..F % e@f@g@h@i@d@@ @ j@W @ @ @ @ @ ^ W k@                              ",
"                      l@^ > _+m@@ @ @ > `+n@> @ ^ o@+ @ @ + > l                                     ",
"                      p@@ % i@t @ @ @ w+e.3.@ @ q@; @ @ ^ /.                                        ",
"                      r@@ s@>.l @ @ > t@u@% + v@w@+ l y.                                            ",
"                      /.+ J x@@ @ @ + j ;+@ % H ,.y@                                                ",
"                      z@t - O @ @ @ A@#.@ + B@^                                                     ",
"                      W !.C@/ @ @ M I.Q+@ s+D@                                                      ",
"                      E@#.F@> @ @ *@G@}.w+H@                                                        ",
"                      M j t @ @ @ # F@+ I@                                                          ",
"                      J@# + @ > K@m+@ L@                                                            ",
"                      M@C@> @ t - m N@                                                              ",
"                      O@Y.@ l P Z.P@                                                                ",
"                      Q@R@> S@=.d.                                                                  ",
"                      T@U@2.~.V@                                                                    ",
"                        W@O@                                                                        ",
"                                                                                                    ",
"                                                                                                    "};
