/* XPM */
static char * blueship07_xpm[] = {
"50 50 360 2",
"  	c None",
". 	c #07105E",
"+ 	c #07136D",
"@ 	c #081476",
"# 	c #071368",
"$ 	c #060E50",
"% 	c #081783",
"& 	c #09188A",
"* 	c #0A1990",
"= 	c #0A1A95",
"- 	c #0A1B95",
"; 	c #0A1A96",
"> 	c #0A1A94",
", 	c #0A1A92",
"' 	c #091887",
") 	c #0A1B9A",
"! 	c #0B1DA5",
"~ 	c #0A1A90",
"{ 	c #0A1A93",
"] 	c #0C22C2",
"^ 	c #0F29ED",
"/ 	c #0F28E8",
"( 	c #0F28EA",
"_ 	c #0F28EB",
": 	c #0E25DC",
"< 	c #0B1DA1",
"[ 	c #08136D",
"} 	c #0A198F",
"| 	c #0A1B96",
"1 	c #0A1C9D",
"2 	c #0C1FB3",
"3 	c #0E25D5",
"4 	c #0F29EC",
"5 	c #0F28E9",
"6 	c #0F27E3",
"7 	c #0D22C2",
"8 	c #0A1A91",
"9 	c #071575",
"0 	c #091888",
"a 	c #0D20B3",
"b 	c #0E24CF",
"c 	c #0D21C1",
"d 	c #08157B",
"e 	c #09198F",
"f 	c #0E25D2",
"g 	c #0F28E7",
"h 	c #0B1EA8",
"i 	c #050D4B",
"j 	c #081680",
"k 	c #0B1B94",
"l 	c #0E24D3",
"m 	c #0D23C9",
"n 	c #1027DA",
"o 	c #1127D4",
"p 	c #0D23CC",
"q 	c #0D21BE",
"r 	c #0C1EA9",
"s 	c #0A198B",
"t 	c #09198C",
"u 	c #091889",
"v 	c #061266",
"w 	c #050E4E",
"x 	c #061058",
"y 	c #091886",
"z 	c #0A1B9B",
"A 	c #0A1C9A",
"B 	c #0D24CB",
"C 	c #0F26DE",
"D 	c #101FAD",
"E 	c #0C1EAE",
"F 	c #0B1EAD",
"G 	c #0C20B7",
"H 	c #0D23C5",
"I 	c #0E26DA",
"J 	c #1029EE",
"K 	c #0E25D6",
"L 	c #0D21BC",
"M 	c #0B1C9B",
"N 	c #0A1B99",
"O 	c #081577",
"P 	c #071267",
"Q 	c #08136C",
"R 	c #071366",
"S 	c #08146F",
"T 	c #0A1B98",
"U 	c #0A198E",
"V 	c #0A1A8F",
"W 	c #0C22C0",
"X 	c #0B1DA3",
"Y 	c #0D20B5",
"Z 	c #0F29EA",
"` 	c #0B1EAA",
" .	c #0A198C",
"..	c #061059",
"+.	c #09167D",
"@.	c #0B1B9B",
"#.	c #0D21B8",
"$.	c #0D24CE",
"%.	c #0E27E3",
"&.	c #0F29EE",
"*.	c #0F28EC",
"=.	c #0E26DE",
"-.	c #0F26DD",
";.	c #0E23CC",
">.	c #0C20B4",
",.	c #0B1C9E",
"'.	c #1029EF",
").	c #0C1DA8",
"!.	c #0F26DC",
"~.	c #0E26DB",
"{.	c #0B1CA0",
"].	c #091885",
"^.	c #06115F",
"/.	c #0B1CA1",
"(.	c #0F29E9",
"_.	c #0E27DF",
":.	c #0E24D4",
"<.	c #0D22C8",
"[.	c #0D23C7",
"}.	c #0D23C6",
"|.	c #0A1B94",
"1.	c #0A1C9B",
"2.	c #0C1EAC",
"3.	c #0F27E4",
"4.	c #0B1C9F",
"5.	c #0B1680",
"6.	c #071262",
"7.	c #07115F",
"8.	c #0B1B97",
"9.	c #0B1B98",
"0.	c #07136C",
"a.	c #0D20B7",
"b.	c #0A1A8E",
"c.	c #0C1AAA",
"d.	c #0D1DD6",
"e.	c #0F21F0",
"f.	c #0E21E2",
"g.	c #0E23D7",
"h.	c #0E24CE",
"i.	c #0E23CE",
"j.	c #0E26D8",
"k.	c #0F27DE",
"l.	c #0E25D4",
"m.	c #0E26D6",
"n.	c #091788",
"o.	c #081573",
"p.	c #071470",
"q.	c #0B1CA4",
"r.	c #0F26DA",
"s.	c #0C1EAD",
"t.	c #0A1B97",
"u.	c #0B1896",
"v.	c #0B5131",
"w.	c #119E03",
"x.	c #119C06",
"y.	c #0F7C1D",
"z.	c #0C495B",
"A.	c #0E32B8",
"B.	c #0E2CD1",
"C.	c #0D21C8",
"D.	c #0D22C4",
"E.	c #0C22C1",
"F.	c #0C21BD",
"G.	c #0C1FB2",
"H.	c #0C21B8",
"I.	c #0E24D1",
"J.	c #081889",
"K.	c #0F27E0",
"L.	c #0C484E",
"M.	c #1CFA0D",
"N.	c #1BF110",
"O.	c #1BF010",
"P.	c #17D10E",
"Q.	c #12A60B",
"R.	c #13A80D",
"S.	c #108911",
"T.	c #0A2660",
"U.	c #0A1899",
"V.	c #081471",
"W.	c #06105D",
"X.	c #0E25CD",
"Y.	c #0D22BF",
"Z.	c #0D5B36",
"`.	c #1CFC0F",
" +	c #1BF310",
".+	c #19DF0F",
"++	c #15BB0C",
"@+	c #13A907",
"#+	c #119213",
"$+	c #0B4348",
"%+	c #0A159A",
"&+	c #0D22C3",
"*+	c #0C1FB0",
"=+	c #061055",
"-+	c #0B1EA6",
";+	c #0D23C8",
">+	c #0A14A3",
",+	c #17C917",
"'+	c #1BF610",
")+	c #19DE0F",
"!+	c #14B40C",
"~+	c #14AF08",
"{+	c #0D6F22",
"]+	c #091A88",
"^+	c #0C1FAE",
"/+	c #0A188A",
"(+	c #071264",
"_+	c #09177E",
":+	c #03082F",
"<+	c #0F28E6",
"[+	c #0D20D7",
"}+	c #17C71B",
"|+	c #1BF10F",
"1+	c #17CC0E",
"2+	c #13AB0B",
"3+	c #108814",
"4+	c #0A1892",
"5+	c #0A1A97",
"6+	c #091678",
"7+	c #040D45",
"8+	c #060F52",
"9+	c #0F596D",
"0+	c #1BF207",
"a+	c #1AE80F",
"b+	c #13AB0A",
"c+	c #0F6E24",
"d+	c #0A1993",
"e+	c #08136E",
"f+	c #071268",
"g+	c #0B1B99",
"h+	c #0F26EE",
"i+	c #0E26D4",
"j+	c #129130",
"k+	c #1BF908",
"l+	c #1BF410",
"m+	c #1BF210",
"n+	c #1BEE10",
"o+	c #16C10D",
"p+	c #091F80",
"q+	c #0E25D7",
"r+	c #0A1991",
"s+	c #05115E",
"t+	c #0F28E5",
"u+	c #0D1DD1",
"v+	c #081977",
"w+	c #128937",
"x+	c #18D513",
"y+	c #1BF30B",
"z+	c #1CF80E",
"A+	c #1CF70F",
"B+	c #1CF80F",
"C+	c #1CF70B",
"D+	c #19DB12",
"E+	c #0F6745",
"F+	c #0A1797",
"G+	c #0D21BB",
"H+	c #091780",
"I+	c #07136B",
"J+	c #0B1DA8",
"K+	c #0E23C8",
"L+	c #0A1396",
"M+	c #09157D",
"N+	c #0C4F47",
"O+	c #0F7038",
"P+	c #0D6238",
"Q+	c #0A2670",
"R+	c #0A1397",
"S+	c #0A1996",
"T+	c #0C1EAB",
"U+	c #091996",
"V+	c #787A88",
"W+	c #09198D",
"X+	c #09188C",
"Y+	c #061054",
"Z+	c #081576",
"`+	c #0A1994",
" @	c #0A1995",
".@	c #0A1C9C",
"+@	c #0F28E4",
"@@	c #0F27E5",
"#@	c #0B1DA2",
"$@	c #0E1A77",
"%@	c #B9B9B5",
"&@	c #B4B4B4",
"*@	c #09167F",
"=@	c #091781",
"-@	c #0C1DA5",
";@	c #0C20B5",
">@	c #0D21BF",
",@	c #0D26EB",
"'@	c #7C80A0",
")@	c #B9B9B8",
"!@	c #B5B5AE",
"~@	c #0F24C4",
"{@	c #0C1FAB",
"]@	c #081574",
"^@	c #0E25D1",
"/@	c #0B1C9C",
"(@	c #12219A",
"_@	c #B6B7B7",
":@	c #B7B7B7",
"<@	c #8488A8",
"[@	c #0E28EF",
"}@	c #081472",
"|@	c #08167C",
"1@	c #0F27E2",
"2@	c #0F27DC",
"3@	c #0F26D9",
"4@	c #0E27DB",
"5@	c #0F27E1",
"6@	c #0E28ED",
"7@	c #3B48AE",
"8@	c #C0C0BB",
"9@	c #3844AF",
"0@	c #091989",
"a@	c #071573",
"b@	c #09167A",
"c@	c #03138E",
"d@	c #A8A8A9",
"e@	c #A2A19B",
"f@	c #061EE1",
"g@	c #0C21BF",
"h@	c #08146E",
"i@	c #081578",
"j@	c #1029F2",
"k@	c #0D25D3",
"l@	c #313B87",
"m@	c #BFBEBD",
"n@	c #4853AC",
"o@	c #0E28EE",
"p@	c #061161",
"q@	c #091A95",
"r@	c #585C7D",
"s@	c #A9A9A9",
"t@	c #B3B3B1",
"u@	c #1A2DC7",
"v@	c #0E26DF",
"w@	c #0C20B8",
"x@	c #040B3F",
"y@	c #07105D",
"z@	c #081268",
"A@	c #081575",
"B@	c #0D24CD",
"C@	c #0C21BA",
"D@	c #091990",
"E@	c #0B1DA7",
"F@	c #0E25D3",
"G@	c #0F28ED",
"H@	c #0E26D9",
"I@	c #0E26DC",
"J@	c #0F29F1",
"K@	c #0C20B2",
"L@	c #0C21B7",
"M@	c #0B1CA2",
"N@	c #0E25D9",
"O@	c #0B1DA0",
"P@	c #0F26E2",
"Q@	c #0B1DA6",
"R@	c #0E23CB",
"S@	c #081886",
"                                                                                                    ",
"                                                                                                    ",
"                                                                                                    ",
"                                                                          . + @ # $                 ",
"                                                                @ % & * = - = = = ; = > , '         ",
"                                                            ) ! ) ~ , { { { { { { { { { { =         ",
"                                                        ] ^ / ( _ : < > { { { { { { { { { >         ",
"                                                  [ } { > | 1 2 3 4 5 6 7 8 { { { { { { >           ",
"                                            9 0 { = { { { { { , } - a b ^ 6 c 8 { { { >             ",
"                                        d e = { { { { { { { { { { { { * - f g / h 8 { {             ",
"                                i j = = { { { { { { { { { { { { { { { { { { k l ( m {               ",
"    n o p q r s & t t u 0 v w x y z = > { { { { { { { { { { { { { { { { { { { , A B C               ",
"  D E F G H I J K L M } , = N 8 O P Q R S 8 T > { { { { , } U ~ , ~ { ~ V U U ~ , *                 ",
"  W X , { , * , Y 3 Z C ` M 8 { { { = A  .P ..+.' @.1 X #.$.%.( &.*.&.( / =.-.;.>.,.                ",
"    '.F , { { { { { { ).!._ ~.{., { { { { { { - ].^./.(./ _.:.<.[.}.}.f 6 / ( 5 5                   ",
"    v / f |.{ { { { { , , 1.2._.3.[.4.} 8 8 8 } U 8 0 5.6.7.8.8 8 8 8 8 , { 9.4.G                   ",
"      0.p 5 a.= , { { { { { { b.c.d.e.f.g.h.i.j.k.I l.K m.c n.o.t ; { { { { { { ,                   ",
"        p.q.r.5 s.t., { { { { u.v.w.x.y.z.A.B.C.D.E.F.G.H.}.I.3.J.0.U > { { { { >                   ",
"          P > M K./ a.8 { { { L.M.N.N.O.P.Q.R.S.T.U.{ { { { { { > , V...N { { >                     ",
"            W.= , X X.5 Y.{ 8 Z.`.N.N.N. +O..+++@+#+$+%+{ { { { { { &+g *+6.T }                     ",
"              =+8 { ~ -+h.5 ;+>+,+ +N.N.N.N.N.'+)+!+~+{+]+{ { { { | g / ^+/+(+_+                    ",
"                :+' > { , 8 q <+[+}+|+N.N.N.N.N.N. +1+2+3+4+{ { { /.5 I.~ { 5+6+                    ",
"                  7+8+; { { { - 2 5 9+0+N.N.N.N.N.N.N.a+b+c+d+{ { { 6 / ~ { { { }                   ",
"                    0 e+f+g+{ { 8 {.h+i+j+k+l+N.N.N.N.m+n+o+p+{ { { h &.q+r+{ { { ~                 ",
"                      > 0 s+t > { , {.t+u+v+w+x+y+z+A+B+C+D+E+F+{ { 8 G+_ q+- { { {                 ",
"                      H+> ; I+V.{ { { J+^ K+{ L+M+N+O+P+Q+R+S+{ { { { 8 T+g r.{ { U+V+              ",
"                        W+{ > X+Y+Z+; , 2.&.7 8 { `+ @ @> { { { { { { { { .@+@@@#@$@%@&@            ",
"                        *@{ { { t.=@R Q | -@^ ;@} { { { { { { , U } V U } 8 { >@,@'@)@!@~@          ",
"                          > { { { { t.{@]@H+/.4 >@8 { { { { g+G+q+5 g K.^@7 ` /@(@_@:@<@[@_         ",
"                          }@{ { { { { 8 }.g ..|@t+3 > { { > 1@/ / 2@3@I 4@5@g 6@7@:@8@9@5           ",
"                            > { { { { { > g l.0@a@b@+@4., t.g 1@| , 8 , , , > c@d@:@e@f@(           ",
"                             .{ { { { { , h _ g@8 > h@& i@9.j@k@} { { { { { { l@m@:@n@o@            ",
"                              { { { { { { , m &.G 8 { t.= 7.p@/.=@& { > > > q@r@s@t@u@v@            ",
"                              W+{ { { { { { , l ( w@{ { { { { |.* 0.x@  y@z@                        ",
"                              A@; { { { { { { , B@5 C@* { { { { { D@                                ",
"                                E@V { { { { { { { F@G@m { { { { {                                   ",
"                                [.H@M { { { { { { 8 f 5 I@T { { >                                   ",
"                                  J@/ L , { { { { { { q _ g K@{                                     ",
"                                  T 2@^ 5@g@{ , { { { 8 K@^ _ I                                     ",
"                                  p@} H.~.&.( L@{.~ 8 { 8 M@N@                                      ",
"                                    ~ { * O@H@<+4 P@G+T > , }                                       ",
"                                      , { { { | Q@l 4 ( 3.R@                                        ",
"                                      H+= { { { , ~ > {.h G.                                        ",
"                                        0 { { { { { { { {                                           ",
"                                          > { { { { { { {                                           ",
"                                            5+{ { { { { {                                           ",
"                                              U { { { { >                                           ",
"                                                t > { { >                                           ",
"                                                  S@{ > *                                           ",
"                                                                                                    "};
