/* XPM */
static char * blueship12_xpm[] = {
"50 50 355 2",
"  	c None",
". 	c #0B1EB1",
"+ 	c #0F28EA",
"@ 	c #0F28E9",
"# 	c #0F28E8",
"$ 	c #2D399D",
"% 	c #2D39A3",
"& 	c #2E3BA5",
"* 	c #2D3AA4",
"= 	c #2D3BA4",
"- 	c #1F2866",
"; 	c #C3C3BE",
"> 	c #BFBFBA",
", 	c #A7A7A5",
"' 	c #A4A39F",
") 	c #BABAB6",
"! 	c #B9B9B6",
"~ 	c #B9B9B4",
"{ 	c #B9B9B5",
"] 	c #BEBDBA",
"^ 	c #081680",
"/ 	c #0B197E",
"( 	c #0D1879",
"_ 	c #0D1B8A",
": 	c #1025C7",
"< 	c #0D1C96",
"[ 	c #0F23BD",
"} 	c #0C1877",
"| 	c #0D1979",
"1 	c #0A198A",
"2 	c #0A1A93",
"3 	c #0A1A92",
"4 	c #0C20BB",
"5 	c #0E24D6",
"6 	c #0A1C9E",
"7 	c #0F28EB",
"8 	c #0A1A91",
"9 	c #0A1A94",
"0 	c #0A198D",
"a 	c #08157A",
"b 	c #0A1A90",
"c 	c #0F27E0",
"d 	c #0C20B8",
"e 	c #0A198E",
"f 	c #1029EE",
"g 	c #0B1DA2",
"h 	c #0A1B97",
"i 	c #0B1C9B",
"j 	c #0F29ED",
"k 	c #0B1CA2",
"l 	c #0F26DD",
"m 	c #0D23CE",
"n 	c #071471",
"o 	c #091786",
"p 	c #091990",
"q 	c #081268",
"r 	c #0A1B98",
"s 	c #0D20BA",
"t 	c #0F28E5",
"u 	c #0A1B96",
"v 	c #0C21BA",
"w 	c #0F28E7",
"x 	c #0A1A8F",
"y 	c #09167E",
"z 	c #08167F",
"A 	c #0A1992",
"B 	c #0E25D4",
"C 	c #0A1B99",
"D 	c #0A198C",
"E 	c #0F28E4",
"F 	c #0F27E5",
"G 	c #0A1A96",
"H 	c #08146E",
"I 	c #0A1A95",
"J 	c #0E27E0",
"K 	c #0F26DE",
"L 	c #0B1DA4",
"M 	c #0B1FAA",
"N 	c #081576",
"O 	c #0C20BA",
"P 	c #0C1FAD",
"Q 	c #0B1B97",
"R 	c #0F29E9",
"S 	c #0A198F",
"T 	c #0E25D3",
"U 	c #0A1C9A",
"V 	c #07136A",
"W 	c #0F29EF",
"X 	c #0F26DF",
"Y 	c #07136C",
"Z 	c #0D22C6",
"` 	c #0B1C9D",
" .	c #0D21BF",
"..	c #09198C",
"+.	c #0B1EA9",
"@.	c #0C1DA1",
"#.	c #0B1B9E",
"$.	c #0B1B9D",
"%.	c #0A1C9B",
"&.	c #0F28E6",
"*.	c #0D21BA",
"=.	c #0D23C6",
"-.	c #0C20B4",
";.	c #071472",
">.	c #0E26DA",
",.	c #0C1FB0",
"'.	c #0F27E2",
").	c #071263",
"!.	c #08136F",
"~.	c #0C21BB",
"{.	c #0B1EA8",
"].	c #0C22C2",
"^.	c #091788",
"/.	c #0D23C9",
"(.	c #0F29EC",
"_.	c #0D1FB2",
":.	c #09167F",
"<.	c #0F27E1",
"[.	c #0C1EAD",
"}.	c #0D22C4",
"|.	c #0E26DF",
"1.	c #07146C",
"2.	c #0B1DA9",
"3.	c #0E25D7",
"4.	c #0C21B8",
"5.	c #0A1B9A",
"6.	c #0D24CB",
"7.	c #0C20B6",
"8.	c #0B1DA6",
"9.	c #0B1B9B",
"0.	c #091783",
"a.	c #0E23CB",
"b.	c #0E27DF",
"c.	c #0F28EC",
"d.	c #0B1CA0",
"e.	c #0B1894",
"f.	c #081474",
"g.	c #09198D",
"h.	c #0E24CF",
"i.	c #081578",
"j.	c #0A1990",
"k.	c #0E25D5",
"l.	c #0E25D8",
"m.	c #0D20B7",
"n.	c #06105B",
"o.	c #09178D",
"p.	c #0D5C48",
"q.	c #0A1797",
"r.	c #0B1CA3",
"s.	c #091781",
"t.	c #0E24D2",
"u.	c #0B1C9E",
"v.	c #0E26D8",
"w.	c #060F58",
"x.	c #0C21BC",
"y.	c #0A1B90",
"z.	c #118A17",
"A.	c #1BF70D",
"B.	c #0C5054",
"C.	c #0C1EAE",
"D.	c #0B1EAC",
"E.	c #0F29EE",
"F.	c #0B1EAD",
"G.	c #0B1DA3",
"H.	c #071470",
"I.	c #0E26DE",
"J.	c #0C1EAA",
"K.	c #061058",
"L.	c #0C5139",
"M.	c #15BA0C",
"N.	c #1BF310",
"O.	c #19E211",
"P.	c #091A83",
"Q.	c #0C20B9",
"R.	c #0E25D6",
"S.	c #060F55",
"T.	c #1029EC",
"U.	c #091D7D",
"V.	c #14AE04",
"W.	c #18D70F",
"X.	c #1BF210",
"Y.	c #1BF60F",
"Z.	c #108327",
"`.	c #0A1894",
" +	c #0C1FB4",
".+	c #0A1CA3",
"++	c #060F59",
"@+	c #0F29EB",
"#+	c #0B1C9A",
"$+	c #050E4D",
"%+	c #0C4550",
"&+	c #13AC0B",
"*+	c #1BEE10",
"=+	c #1BF110",
"-+	c #1AE712",
";+	c #0A1D8B",
">+	c #0A198B",
",+	c #091782",
"'+	c #0A1B95",
")+	c #0B1EA7",
"!+	c #0A188A",
"~+	c #07136B",
"{+	c #0E24CE",
"]+	c #0F27E3",
"^+	c #0E27DE",
"/+	c #050F51",
"(+	c #0E24CD",
"_+	c #0A1898",
":+	c #0D6334",
"<+	c #13AD0B",
"[+	c #1BEF10",
"}+	c #1BED11",
"|+	c #0B2884",
"1+	c #071368",
"2+	c #0B1CA4",
"3+	c #0C1EAB",
"4+	c #0C1FAF",
"5+	c #09198E",
"6+	c #0D22C2",
"7+	c #0B1EA6",
"8+	c #081265",
"9+	c #0C1FAC",
"0+	c #0A159D",
"a+	c #0F8510",
"b+	c #14B00B",
"c+	c #0B366A",
"d+	c #0D21BC",
"e+	c #060F56",
"f+	c #0E26D7",
"g+	c #0B1DA0",
"h+	c #111681",
"i+	c #0D22C1",
"j+	c #0A149C",
"k+	c #108610",
"l+	c #15B70D",
"m+	c #0A3869",
"n+	c #0B1CA1",
"o+	c #061059",
"p+	c #102AEF",
"q+	c #0F26DC",
"r+	c #071267",
"s+	c #0B1FB2",
"t+	c #0C1FB5",
"u+	c #09188A",
"v+	c #0C20B3",
"w+	c #0A15A1",
"x+	c #17C40D",
"y+	c #0B3668",
"z+	c #0D21BD",
"A+	c #06115C",
"B+	c #0D21C0",
"C+	c #0A1993",
"D+	c #091681",
"E+	c #091885",
"F+	c #0A1B9B",
"G+	c #0C19B8",
"H+	c #0F860E",
"I+	c #17C50D",
"J+	c #0B3662",
"K+	c #0F26E0",
"L+	c #0E25D0",
"M+	c #061160",
"N+	c #0A1C9C",
"O+	c #081577",
"P+	c #0D22C7",
"Q+	c #0F25F1",
"R+	c #0E712C",
"S+	c #17C60D",
"T+	c #0E36AD",
"U+	c #081579",
"V+	c #081573",
"W+	c #0E5B61",
"X+	c #17C50E",
"Y+	c #1AED12",
"Z+	c #0F32D5",
"`+	c #06115F",
" @	c #091888",
".@	c #0A1C99",
"+@	c #07136D",
"@@	c #0E4A7F",
"#@	c #17C70D",
"$@	c #1AE713",
"%@	c #0F2BDE",
"&@	c #06105D",
"*@	c #091889",
"=@	c #0C1FAE",
"-@	c #0E3AAB",
";@	c #15BD0A",
">@	c #18CC18",
",@	c #0E24E1",
"'@	c #081471",
")@	c #08136B",
"!@	c #091886",
"~@	c #071367",
"{@	c #0B1DA1",
"]@	c #0E22E0",
"^@	c #12AC01",
"/@	c #1BF010",
"(@	c #1CF80D",
"_@	c #0F5F63",
":@	c #0E24D9",
"<@	c #091780",
"[@	c #071266",
"}@	c #1028F3",
"|@	c #0A403B",
"1@	c #1AE40F",
"2@	c #18D90E",
"3@	c #0C1DC3",
"4@	c #091887",
"5@	c #08146F",
"6@	c #091A91",
"7@	c #071164",
"8@	c #0B3A57",
"9@	c #0E6341",
"0@	c #0A2977",
"a@	c #0D22C3",
"b@	c #061162",
"c@	c #081470",
"d@	c #0A1897",
"e@	c #0C20B0",
"f@	c #060C47",
"g@	c #08167C",
"h@	c #050D4C",
"i@	c #081783",
"j@	c #07115D",
"k@	c #0C1FB1",
"l@	c #0D23C3",
"m@	c #071261",
"n@	c #051058",
"o@	c #0D23C8",
"p@	c #0D20BB",
"q@	c #091784",
"r@	c #020623",
"s@	c #081472",
"t@	c #081881",
"u@	c #0B1C9C",
"v@	c #0E26DC",
"w@	c #040B42",
"x@	c #0E26D9",
"y@	c #091680",
"z@	c #0D24CE",
"A@	c #0C1FB2",
"B@	c #09167B",
"C@	c #0E23C8",
"D@	c #0B1B98",
"E@	c #0B1C9F",
"F@	c #081575",
"G@	c #06105C",
"H@	c #1123AC",
"I@	c #0C1FB3",
"J@	c #0A1A8E",
"K@	c #1129E6",
"L@	c #040A33",
"M@	c #0F27DF",
"N@	c #0D22C5",
"                                                                                                    ",
"                                            . + @ @ @ #                                             ",
"                                            $ % & % * = -                                           ",
"                                            ; > > > > > ,                                           ",
"                                          ' ) ! ~ { ~ { ]                                           ",
"                                        ^ / ( _ : < [ } | 1                                         ",
"                                        2 2 3 4 5 6 7 8 9 2 0                                       ",
"                                      a 2 2 b c d e f g 2 2 3                                       ",
"                                      h 2 2 i j k 0 l m 3 2 9 n                                     ",
"  o 2 p                           e q r 2 3 s t u 3 v w r 2 2 x y z                           2 A   ",
"  9 2 2 2 3 3 e B C D E F u 2 2 2 G H I 2 0 J K 2 2 L @ M 3 2 I N 9 2 2 3 O # P e B Q 2 3 2 2 2 2 3 ",
"  9 2 2 2 2 2 I R 9 S T w r 2 2 2 U V 2 2 P W v 2 2 I @ X b 2 3 Y I 2 2 8 Z # ` 8  . .3 2 2 2 2 2 ..",
"  3 2 2 2 2 2 +.F 9 3 v # @.2 2 2 G #.$.%.&.F S 2 2 3 *.@ =.h -.;.h 2 2 e >.&.h 3 ,.'.3 2 2 2 2 I ).",
"  !.9 2 2 2 2 ~.'.9 2 {.+ ].8 2 2 ^./.# # (._.2 2 2 2 9 '.# w @ :.h 2 2 2 j <.2 2 [.# r 2 2 2 2 b   ",
"    2 2 2 2 3 }.|.9 2 3 # # 3 2 2 1.2.3.X 4.8 2 2 2 2 2 5.B K 6.V u 2 2 7.j ,.2 2 8.# 9.2 2 2 2 0.  ",
"    S 2 2 2 8 a.b.2 2 8  .c.d.2 2 Y 3 e e 3 2 2 9 e.2 2 2 S e 8 f.g.2 2 h.&.S 2 2 L # ` 2 2 2 9 N   ",
"    i.9 2 2 j.k.l.2 2 2 C w m.2 2 n.{.2 2 2 2 2 o.p.q.2 2 2 2 2 r.s.2 b <.t.3 2 2 u.# r.2 2 2 I     ",
"      S 2 2 j.v.k.2 2 2 9 c b.0 2 w.x.2 2 2 2 y.z.A.B.2 2 2 2 2 C.s.2 D.E.F.2 2 2 u.# G.2 2 2 H.    ",
"      i.9 2 j.3.I.2 2 2 2 P W J.2 K.B 8 2 2 q.L.M.N.O.P.2 2 2 G Q.s.2 b.c 0 2 2 2 G.# G.2 2 2       ",
"        x 2 j.3.|.2 2 2 2 j.<.R.3 S.T.x 2 2 U.V.W.X.Y.Z.`.2 3  +.+0.u.w -.3 2 2 2 G.# G.2 9 ++      ",
"          9 j.3.X 9 2 2 2 2 x.@+#+$++ L 2 9 %+&+*+=+=+-+;+2 3 c >+,+k.7 '+2 2 2 2 )+# L 2 !+        ",
"          ~+3 {+]+I 2 2 2 2 8 I.^+/+(+h.2 _+:+<+[+=+=+}+|+2 5.@ 1+2+@+3+3 2 2 2 3 4+# u.5+          ",
"            ^ 6+w I 2 2 2 2 2 7++ 8+9+@ 9 0+a+b+=+=+=+=+c+3 d+^+e+<.f+2 2 2 2 2 b /.# 9.            ",
"              L @+g+2 2 2 2 2 8 6+h+x J i+j+k+l+=+=+=+=+m+h E.n+o+p+2 2 2 2 2 2 e q+]+r+            ",
"                s+t+3 2 2 2 2 2 9 u+8 v+@ w+a+x+=+=+=+=+y+z+]+3 A+B+2 2 2 2 2 2 b #                 ",
"                  C+9 2 2 2 2 2 2 D+E+F+@ G+H+I+=+=+=+=+J+K+L+2 M+N+2 2 2 2 2 2 8                   ",
"                    ,+9 2 2 2 2 2 O+,+3 P+Q+R+S+=+=+=+[+T+(.2 2 w.C 2 2 2 2 2 S                     ",
"                      U+2 2 2 2 2 g.V+2 2 c.W+X+=+=+=+Y+Z+P+8 2 `+h 2 2 2 2 3                       ",
"                         @2 2 2 2 .@+@2 2 R.@@#@=+=+=+$@%@G.2 2 ).u 2 2 2 9 &@                      ",
"                          *@9 2 2 .@H 2 2 =@-@;@=+=+X.>@,@x 2 9 '@I 2 2 u )@                        ",
"                            !@2 2 r ~@9 2 {@]@^@/@=+(@_@:@S 2 '+<@2 2 9 [@                          ",
"                              b 2 I [@u 2 k }@|@1@=+2@3@3.S 2 S 4@2 9 5@                            ",
"                                6@2 7@C 2 2 &.0 8@9@0@,.a@8 9 b@j.G H                               ",
"                                  2 c@..2 3 &.S I d@3 e@a@8 I f@G 0.                                ",
"                                  ~@s.g@2 3 &.S 2 2 3 ,.a@8 '+h@b                                   ",
"                                    i@j@2 3 w S 2 2 3 k@l@8 b m@                                    ",
"                                      n@2 b (.j.2 2 8 o@p@8 q@e+                                    ",
"                                      r@2 0 &.b 2 2 8 o@P 3 y                                       ",
"                                        2 0 @ $.2 2 b ^+=@9 s@                                      ",
"                                        t@S b.u@2 2 b v@L r                                         ",
"                                        w@8 x@+.2 2 8 t d.y@                                        ",
"                                          4@z@A@2 2 3 @ u@V                                         ",
"                                          B@o@C@2 2 D@7 E@                                          ",
"                                            4 3.2 2 E@# F@                                          ",
"                                            0 F 9 2 3+J                                             ",
"                                            G@7 u 8 }.-.                                            ",
"                                              H@I@J@K@L@                                            ",
"                                                M@N@m.                                              ",
"                                                                                                    ",
"                                                                                                    "};
