/* XPM */
static char * blueship14_xpm[] = {
"50 50 343 2",
"  	c None",
". 	c #091780",
"+ 	c #08146E",
"@ 	c #0A1991",
"# 	c #0A1A93",
"$ 	c #071264",
"% 	c #09188A",
"& 	c #0A1A92",
"* 	c #0A1A95",
"= 	c #08146F",
"- 	c #09198C",
"; 	c #0E26E0",
"> 	c #0B1DA5",
", 	c #0A1A90",
"' 	c #0A1A91",
") 	c #0C1FB0",
"! 	c #0F29EC",
"~ 	c #0D24CA",
"{ 	c #0B1B97",
"] 	c #0E24CF",
"^ 	c #0B1B9A",
"/ 	c #0F28E5",
"( 	c #0F27E2",
"_ 	c #0A1C9C",
": 	c #071162",
"< 	c #0F29EA",
"[ 	c #0F28E9",
"} 	c #0C1FB3",
"| 	c #0A1B93",
"1 	c #0F27E0",
"2 	c #0F28E6",
"3 	c #0C1DA7",
"4 	c #08167E",
"5 	c #0F28EA",
"6 	c #1A2BB3",
"7 	c #9C9B96",
"8 	c #0B1C9C",
"9 	c #0F28E7",
"0 	c #0F28E4",
"a 	c #0A1B98",
"b 	c #0D24CF",
"c 	c #0C1EAD",
"d 	c #182DC8",
"e 	c #A7A6A8",
"f 	c #B8B8B8",
"g 	c #B5B5B4",
"h 	c #2A3275",
"i 	c #091887",
"j 	c #09167D",
"k 	c #0A1A94",
"l 	c #0D22C4",
"m 	c #0F29ED",
"n 	c #0C21B9",
"o 	c #0E26DB",
"p 	c #0F29EE",
"q 	c #0C1EAE",
"r 	c #0A1A96",
"s 	c #182DD2",
"t 	c #B2B2B1",
"u 	c #B7B7B7",
"v 	c #B9B9B8",
"w 	c #676981",
"x 	c #071891",
"y 	c #091781",
"z 	c #060F55",
"A 	c #0A198E",
"B 	c #0F27E3",
"C 	c #0E27E0",
"D 	c #0F27DF",
"E 	c #0F29EB",
"F 	c #0C1DA8",
"G 	c #192CC8",
"H 	c #B2B1B1",
"I 	c #BEBEBC",
"J 	c #636AA1",
"K 	c #06105B",
"L 	c #091988",
"M 	c #0C1FB5",
"N 	c #0A1B9A",
"O 	c #212FA2",
"P 	c #A6A7A8",
"Q 	c #BDBDB9",
"R 	c #5D628D",
"S 	c #061BBF",
"T 	c #0F29F0",
"U 	c #0D23C7",
"V 	c #0B1CA2",
"W 	c #081474",
"X 	c #0A1B99",
"Y 	c #0B1DA4",
"Z 	c #0E26DA",
"` 	c #081576",
" .	c #646AA0",
"..	c #0821E3",
"+.	c #0D22C0",
"@.	c #0B1CA0",
"#.	c #0E24D1",
"$.	c #07105A",
"%.	c #0C1EAA",
"&.	c #0F28E8",
"*.	c #0B1DA1",
"=.	c #989897",
"-.	c #686A81",
";.	c #091990",
">.	c #0E24D2",
",.	c #0E26D5",
"'.	c #0A1990",
").	c #0E26DC",
"!.	c #0D21C1",
"~.	c #0E26D8",
"{.	c #0F27DD",
"].	c #050E51",
"^.	c #0E22C9",
"/.	c #0F27DE",
"(.	c #081890",
"_.	c #0B1C9E",
":.	c #0F29EF",
"<.	c #0D23C6",
"[.	c #0F28EC",
"}.	c #0B1DA0",
"|.	c #081472",
"1.	c #0D23CC",
"2.	c #0A1B97",
"3.	c #08157A",
"4.	c #0D22C5",
"5.	c #0A1B96",
"6.	c #0B1DA3",
"7.	c #0B1EAD",
"8.	c #08167D",
"9.	c #0A1C9B",
"0.	c #0C1EAC",
"a.	c #0C20B6",
"b.	c #102AF1",
"c.	c #060F58",
"d.	c #0F27E1",
"e.	c #0D22C3",
"f.	c #0E26DF",
"g.	c #0D23C4",
"h.	c #0E26D9",
"i.	c #040B3D",
"j.	c #0E24CE",
"k.	c #0C1EA8",
"l.	c #0C1EAB",
"m.	c #0B1696",
"n.	c #0A149A",
"o.	c #0A1698",
"p.	c #1029EE",
"q.	c #0B1B98",
"r.	c #081471",
"s.	c #1028E9",
"t.	c #0A198F",
"u.	c #091785",
"v.	c #071266",
"w.	c #0D21BF",
"x.	c #0A1996",
"y.	c #10624C",
"z.	c #14AA23",
"A.	c #129333",
"B.	c #0F654E",
"C.	c #0A2878",
"D.	c #0A1598",
"E.	c #0E25D5",
"F.	c #091886",
"G.	c #091579",
"H.	c #09167A",
"I.	c #09167C",
"J.	c #0D23C3",
"K.	c #0C4751",
"L.	c #1AEA0F",
"M.	c #1BF110",
"N.	c #1BF210",
"O.	c #1BF70B",
"P.	c #118A25",
"Q.	c #0A1D8A",
"R.	c #0A1994",
"S.	c #091782",
"T.	c #081470",
"U.	c #081370",
"V.	c #081368",
"W.	c #102AF4",
"X.	c #0B1CA1",
"Y.	c #0C3E60",
"Z.	c #14B10B",
"`.	c #1BF010",
" +	c #1BEB11",
".+	c #0B2E6D",
"++	c #0D22C2",
"@+	c #091783",
"#+	c #081573",
"$+	c #0B1C9F",
"%+	c #092176",
"&+	c #14B007",
"*+	c #19DA0F",
"=+	c #1AE40F",
"-+	c #0A2F68",
";+	c #0D20B7",
">+	c #081574",
",+	c #08167C",
"'+	c #081577",
")+	c #0C1FB4",
"!+	c #07115E",
"~+	c #0A1499",
"{+	c #0E7815",
"]+	c #13A80A",
"^+	c #1AEB10",
"/+	c #1AE80E",
"(+	c #0A2D74",
"_+	c #0B1EAB",
":+	c #061058",
"<+	c #09198D",
"[+	c #0B1B9B",
"}+	c #09227B",
"|+	c #13A60B",
"1+	c #15BD0D",
"2+	c #1BF410",
"3+	c #1AE50E",
"4+	c #0E27D9",
"5+	c #0D24CD",
"6+	c #0A1B9B",
"7+	c #081575",
"8+	c #0F27E4",
"9+	c #0B1FB1",
"0+	c #0A1989",
"a+	c #0D23CA",
"b+	c #0C542F",
"c+	c #13AD09",
"d+	c #17C90E",
"e+	c #14A629",
"f+	c #0F1FF5",
"g+	c #091889",
"h+	c #08167A",
"i+	c #0B1EA8",
"j+	c #09177C",
"k+	c #0C21BA",
"l+	c #0D602F",
"m+	c #14B209",
"n+	c #19D90F",
"o+	c #1CFB0C",
"p+	c #0F5A7D",
"q+	c #07136B",
"r+	c #0E27DD",
"s+	c #0F26DA",
"t+	c #0C1EA9",
"u+	c #0B1B99",
"v+	c #0F28EB",
"w+	c #0B1DA2",
"x+	c #0A149B",
"y+	c #0D5E2B",
"z+	c #13AC09",
"A+	c #19DE0F",
"B+	c #18D811",
"C+	c #0E20E8",
"D+	c #060F53",
"E+	c #0E25DA",
"F+	c #0E24D4",
"G+	c #0C21B8",
"H+	c #0E24D0",
"I+	c #081578",
"J+	c #09177F",
"K+	c #0E25D8",
"L+	c #0C1FBC",
"M+	c #0B414C",
"N+	c #13A50A",
"O+	c #19DB0F",
"P+	c #1CF80E",
"Q+	c #0E6249",
"R+	c #0F27E6",
"S+	c #0C20B7",
"T+	c #0E1269",
"U+	c #0F28EF",
"V+	c #0D32AB",
"W+	c #11930A",
"X+	c #17CF0E",
"Y+	c #1BF510",
"Z+	c #119020",
"`+	c #0A1A97",
" @	c #0D21BE",
".@	c #020622",
"+@	c #0C20B8",
"@@	c #0E20DE",
"#@	c #0F674F",
"$@	c #14AF04",
"%@	c #19DF0B",
"&@	c #19DC0A",
"*@	c #09226F",
"=@	c #0D21BA",
"-@	c #06115E",
";@	c #071160",
">@	c #0F28ED",
",@	c #0D1BCD",
"'@	c #082453",
")@	c #081084",
"!@	c #0B1EA6",
"~@	c #0A198D",
"{@	c #060F54",
"]@	c #0B1C9D",
"^@	c #0D21BC",
"/@	c #0B1FAA",
"(@	c #07136A",
"_@	c #0E25D1",
":@	c #0D21BD",
"<@	c #07136F",
"[@	c #0B1B96",
"}@	c #0D22BF",
"|@	c #0C1EAF",
"1@	c #0E25D6",
"2@	c #0E24CC",
"3@	c #09167B",
"4@	c #081369",
"5@	c #0B1A94",
"6@	c #0C20B5",
"7@	c #07105D",
"8@	c #050D48",
"9@	c #0B1B95",
"0@	c #0F27E5",
"a@	c #0E24D3",
"b@	c #050C45",
"c@	c #081473",
"d@	c #0C1DA9",
"e@	c #0D23C9",
"f@	c #08177A",
"g@	c #061262",
"h@	c #0E25D7",
"i@	c #0F26E2",
"j@	c #0D24CE",
"k@	c #061059",
"l@	c #07146E",
"m@	c #08136C",
"n@	c #06105F",
"o@	c #0D24CB",
"p@	c #010311",
"q@	c #08167B",
"r@	c #0C22BF",
"s@	c #0B1DA6",
"t@	c #0E26DD",
"u@	c #111B67",
"v@	c #0B1B9C",
"w@	c #0E26DE",
"x@	c #0C20B4",
"y@	c #0E21B8",
"z@	c #1027D7",
"A@	c #0E21C0",
"B@	c #0D167D",
"                                                                    . +                             ",
"                                                                  @ # # $                           ",
"                                                                  # # # %                           ",
"                                                                & # # # * =                         ",
"                                                              - # # # # # %                         ",
"                                                              # # # # # # * =                       ",
"                                                            ; > , # # # # # @                       ",
"                                                          ' ) ! ~ { # # # # &                       ",
"                                                        ] ' & ^ / ( _ # # # # :                     ",
"                                                    # < [ } # # | 1 2 3 & # # 4                     ",
"                          5 6 7                   # # 8 9 0 & # # a b < c ' # &                     ",
"                        5 d e f g h i j         k # # # l m n # # # & o p q & r                     ",
"                      [ s t u v w x # # k y z & # # # # A B C # # # # ' D E F k                     ",
"                    o G H u I J * & # # # # , K L k # # # M ! q & # # # & 2 9 N                     ",
"                    O P u Q R S T U r ' # # # k V W X # # , C 9 # # # # # Y E Z `                   ",
"                      u v  ...# > ( E +.@.' & # / #.$.k # # %.&.*.# # # # , l m                     ",
"                      =.-.;.>.,.# '.l [ [ ).!.~.&.{.& ].'.# a [ ^., # # # # k /.                    ",
"                        (.# _.:.} & & N <.[.! 5 :.@.# }.|.A ' 1.! & # # # # # 2.                    ",
"                      3.# # '.4.9 5.# # ' ' 6.7.^ & # # ).8.'.9.m 0.# # # # # k                     ",
"                        * # # @.[ a.& # # # # # # # # # * b.c.'.d.e.# # # # # *                     ",
"                        % # # ' f.! k # # # # # # # # # & g.h.i.~.j.& # # # # *                     ",
"                          # # & k.! l.# # # m.n.o.* # # # 5.p.q.r.s.t.# # # # k                     ",
"                        u.v.5.# ^ 5 w.# # x.y.z.A.B.C.D.# ' +.E.A F._ # # # # k G.                  ",
"                        * H.I.2.b &.J.& # k K.L.M.N.O.P.Q.R.*.[ 9.S.T.# # # # k U.                  ",
"                      # # k V.W.&.p X.# # # Y.Z.`.M.M.N. +.+| 9 ++' i @+k # # k #+                  ",
"                    & # # # & . j.$+& # # # %+&+*+N.M.M.M.=+-+;+m ' k >+,+# # # '+                  ",
"                  )+# # # # # % !+# # # # # ~+{+]+^+M.M.M.`./+(+[._+# k :+<+# # '+                  ",
"                  &.U # # # # # A [+5.# # # k }+|+1+2+M.M.M.M.3+4+5+& # 6+z k # 7+                  ",
"                *.5 [ 8+9+, # # # 0+6+a+A # # R.b+c+d+M.M.M.M.M.e+f+# # # g+T.k h+                  ",
"              $+# 5.!.&.m h.i+A # # j+> 2 k+& ' D.l+m+n+N.M.M.M.o+p+E.' # * q+, 3.                  ",
"            } r+' # & & e.( p s+t+2.# W u+D v+l w+x+y+z+A+N.M.M.M.B+C+1.& # & D+,                   ",
"        ;.# t.E+F+# # # # ' G+/ &.[ H+V I+J+_.K+&.0 L+M+N+O+M.M.M.P+Q+R+S+& # 2.=                   ",
"    A # # # # w+T e.'.# # # & # Y 4.v+p / k+T+k $+e.2 U+V+W+X+Y+M.Y+Z+`+(  @& # ` .@                ",
"  ' # # # # # ' } [.+@, # # # # # , , *.} <.+@8.* ' t.c #.@@#@$@%@&@*@# a d.=@# a -@                ",
"  # # # # # # # & 1.p t+& # # # # # # # # # , @ ;@' # # ' X.>@,@'@)@# # # 8 [ !@& ~@                ",
"  r # # # # # # # & ~.[ !.& # # # # # # # # # # # {@A # # # ]@R+^@, # # # # _ [ /@k T.              ",
"    (@, k # # # # # # _@[ :@, # # # # # # # # # # 2.+ <@k # & [@B }@'.# # # # |@! ]@k               ",
"        |.A * # # # # # 1@[.2@^ # # # # # # # # # # r 3@4@' # # 5@(  @& # # # & 6@5 * 7@            ",
"            (@# ' # # # # 5+[ 2 w+# # # # # # # # # # # 6+8@A # # 9@0@a@# # # # , e.( @             ",
"                  b@c@@+* 5.d@[ p e@5.r `+`+k * r k k * k # f@g@2.# * h@i@& # # # # h.j@k@          ",
"                                                        l@m@3.#+n@A # , o@d.$+# # # k [ &           ",
"                                                                  p@q@' t.r@5 > ' # # 6@h@          ",
"                                                                        I+# s@5 n & # '.t@u@        ",
"                                                                            -@v@d.w@$+'.x@y@        ",
"                                                                                ;@6+z@E.A@B@        ",
"                                                                                                    ",
"                                                                                                    ",
"                                                                                                    ",
"                                                                                                    ",
"                                                                                                    "};
