/* XPM */
static char * blueship03_xpm[] = {
"50 50 344 2",
"  	c None",
". 	c #0C1DA2",
"+ 	c #0E1C9D",
"@ 	c #0E25D7",
"# 	c #0D22C5",
"$ 	c #0A1B9C",
"% 	c #0E25D9",
"& 	c #0D22C4",
"* 	c #0E24D2",
"= 	c #0A1A92",
"- 	c #0B1C9C",
"; 	c #0F28E3",
"> 	c #0B1DA4",
", 	c #0F28E7",
"' 	c #0A1A94",
") 	c #0A1A93",
"! 	c #0B1CA2",
"~ 	c #0F27E3",
"{ 	c #0A198D",
"] 	c #0F28E4",
"^ 	c #0C1EAD",
"/ 	c #0B1EAB",
"( 	c #0F27E1",
"_ 	c #0D21BD",
": 	c #0E25D5",
"< 	c #0A1A91",
"[ 	c #0C21BE",
"} 	c #0E24CE",
"| 	c #0B1EA8",
"1 	c #0A198F",
"2 	c #0E26DB",
"3 	c #0C1EAA",
"4 	c #08167F",
"5 	c #0E25D2",
"6 	c #0A198E",
"7 	c #0A1B96",
"8 	c #0F28EA",
"9 	c #071265",
"0 	c #0A1A95",
"a 	c #0A1B97",
"b 	c #0B1DA3",
"c 	c #0C20B8",
"d 	c #0E25D8",
"e 	c #08167E",
"f 	c #050E4A",
"g 	c #0E27DC",
"h 	c #0C20B5",
"i 	c #0A1A90",
"j 	c #091783",
"k 	c #091781",
"l 	c #0F29ED",
"m 	c #0B1DA0",
"n 	c #0A1990",
"o 	c #1029EF",
"p 	c #081575",
"q 	c #0A1A96",
"r 	c #0A1B99",
"s 	c #07105A",
"t 	c #0C20B3",
"u 	c #0E25DA",
"v 	c #0D23CC",
"w 	c #0A198C",
"x 	c #071163",
"y 	c #0C1FAE",
"z 	c #0F27E6",
"A 	c #0C1EAC",
"B 	c #081579",
"C 	c #0B1B94",
"D 	c #081578",
"E 	c #0B1C9B",
"F 	c #0F28EB",
"G 	c #0A1B98",
"H 	c #061264",
"I 	c #08146E",
"J 	c #050D49",
"K 	c #0C1CC4",
"L 	c #0A2967",
"M 	c #0B3368",
"N 	c #0A1794",
"O 	c #0D21B9",
"P 	c #0D23C8",
"Q 	c #060D4B",
"R 	c #0A1C9F",
"S 	c #091780",
"T 	c #0A1A8F",
"U 	c #0F24ED",
"V 	c #11774A",
"W 	c #1DFF0D",
"X 	c #1CFB0D",
"Y 	c #0C5D2C",
"Z 	c #0A1796",
"` 	c #060F51",
" .	c #07146E",
"..	c #091680",
"+.	c #0E26DE",
"@.	c #0F29EC",
"#.	c #050E49",
"$.	c #0F26DE",
"%.	c #117356",
"&.	c #1BF60E",
"*.	c #1BF110",
"=.	c #15C005",
"-.	c #0A17A4",
";.	c #0F27DF",
">.	c #081577",
",.	c #0A1992",
"'.	c #0A1991",
").	c #0D22C0",
"!.	c #0F28E9",
"~.	c #0B1EAD",
"{.	c #081470",
"].	c #0E2DCB",
"^.	c #1AE810",
"/.	c #15C002",
"(.	c #0D21C7",
"_.	c #081576",
":.	c #091886",
"<.	c #0A1C9D",
"[.	c #0E25DB",
"}.	c #0B1EA9",
"|.	c #071264",
"1.	c #0E25D3",
"2.	c #0F21F0",
"3.	c #14B01B",
"4.	c #1BF310",
"5.	c #14B500",
"6.	c #0D1EDB",
"7.	c #07136B",
"8.	c #081471",
"9.	c #0E25D0",
"0.	c #0A1C9E",
"a.	c #091889",
"b.	c #0A1A8E",
"c.	c #0F28E5",
"d.	c #0F27E7",
"e.	c #0E4E76",
"f.	c #1BF410",
"g.	c #1BEE10",
"h.	c #0E7514",
"i.	c #0F24EF",
"j.	c #06105A",
"k.	c #091782",
"l.	c #091786",
"m.	c #0E24D0",
"n.	c #0A1B95",
"o.	c #0D23CE",
"p.	c #08167C",
"q.	c #0F27E0",
"r.	c #0A10A0",
"s.	c #16C30D",
"t.	c #15BD0D",
"u.	c #0D4F62",
"v.	c #0F26E5",
"w.	c #08136D",
"x.	c #091888",
"y.	c #0D21BB",
"z.	c #0F29EF",
"A.	c #0C1EA9",
"B.	c #0B1DA7",
"C.	c #0F28E8",
"D.	c #0B1CA1",
"E.	c #09177D",
"F.	c #0E26D8",
"G.	c #0E27E1",
"H.	c #0B3B5E",
"I.	c #1CFE0D",
"J.	c #1BEC10",
"K.	c #13A80B",
"L.	c #0F39B2",
"M.	c #071160",
"N.	c #091679",
"O.	c #0D24CD",
"P.	c #0B1EAC",
"Q.	c #0F26DD",
"R.	c #050C40",
"S.	c #0F26DC",
"T.	c #0A1995",
"U.	c #14A72A",
"V.	c #1BF210",
"W.	c #19D90E",
"X.	c #13AA0A",
"Y.	c #0C25A3",
"Z.	c #0F28E6",
"`.	c #071263",
" +	c #09198A",
".+	c #0A1B9B",
"++	c #0E26DA",
"@+	c #0D22C3",
"#+	c #0E27E2",
"$+	c #0A159A",
"%+	c #18D90F",
"&+	c #1BF010",
"*+	c #13AD0B",
"=+	c #0D671D",
"-+	c #0B1CAC",
";+	c #071261",
">+	c #0F28EC",
",+	c #0B1B99",
"'+	c #0C20B7",
")+	c #0E27DE",
"!+	c #071267",
"~+	c #0A1B9A",
"{+	c #091878",
"]+	c #1BF60B",
"^+	c #17CB0D",
"/+	c #12A507",
"(+	c #091A82",
"_+	c #0B1DA8",
":+	c #08136A",
"<+	c #0F27DD",
"[+	c #0E26D7",
"}+	c #0C1FAD",
"|+	c #091784",
"1+	c #09275F",
"2+	c #1AEC10",
"3+	c #13AA0B",
"4+	c #0F821C",
"5+	c #06105C",
"6+	c #0C1EAE",
"7+	c #0A1B94",
"8+	c #0C1DA6",
"9+	c #0B1C9E",
"0+	c #081473",
"a+	c #09265F",
"b+	c #14B00B",
"c+	c #12A506",
"d+	c #091182",
"e+	c #0C1887",
"f+	c #0C1FB4",
"g+	c #0C20B4",
"h+	c #0B1CA0",
"i+	c #0B1C9D",
"j+	c #081679",
"k+	c #080E8C",
"l+	c #1BF109",
"m+	c #13AE0A",
"n+	c #0A365A",
"o+	c #0E26D9",
"p+	c #0C1DAA",
"q+	c #09198E",
"r+	c #0B1EA7",
"s+	c #0E26E0",
"t+	c #0B1EAA",
"u+	c #0A188B",
"v+	c #081572",
"w+	c #0A1697",
"x+	c #17C918",
"y+	c #19E10F",
"z+	c #12A504",
"A+	c #0A2E65",
"B+	c #0A1896",
"C+	c #0F27E2",
"D+	c #0E26DC",
"E+	c #0D22C2",
"F+	c #071059",
"G+	c #0E23C8",
"H+	c #138F34",
"I+	c #0E5F46",
"J+	c #091489",
"K+	c #0C20B1",
"L+	c #0C21BC",
"M+	c #091577",
"N+	c #0F29F0",
"O+	c #0A1C9A",
"P+	c #071268",
"Q+	c #0D22C1",
"R+	c #0C1795",
"S+	c #0D23C9",
"T+	c #0E27E4",
"U+	c #0E25D1",
"V+	c #0F29EE",
"W+	c #0B1DA2",
"X+	c #0C1EAB",
"Y+	c #0C1FB1",
"Z+	c #09167C",
"`+	c #0B1C9F",
" @	c #07136D",
".@	c #09188A",
"+@	c #0D21C1",
"@@	c #0F27E4",
"#@	c #0C1FB0",
"$@	c #0B1EA6",
"%@	c #0B1B9A",
"&@	c #0E24CD",
"*@	c #0B1A95",
"=@	c #0F29EB",
"-@	c #0B1FAF",
";@	c #0F26DF",
">@	c #0C1FB2",
",@	c #0A1887",
"'@	c #0E22C5",
")@	c #050E4F",
"!@	c #071266",
"~@	c #071370",
"{@	c #0C21BA",
"]@	c #091785",
"^@	c #0E24D1",
"/@	c #0E26DD",
"(@	c #09177F",
"_@	c #0E1868",
":@	c #0B1A8E",
"<@	c #07136C",
"[@	c #0C1DA4",
"}@	c #09188B",
"|@	c #8C8B8A",
"1@	c #AFAFB0",
"2@	c #8285A0",
"3@	c #1627AD",
"4@	c #05169D",
"5@	c #0E23CE",
"6@	c #07115E",
"7@	c #09198D",
"8@	c #A09F9B",
"9@	c #B9B9B9",
"0@	c #B8B8B8",
"a@	c #C1C1B9",
"b@	c #8A8DA0",
"c@	c #4553BC",
"d@	c #04127B",
"e@	c #071895",
"f@	c #0B1B9B",
"g@	c #333F9A",
"h@	c #9295A8",
"i@	c #B1B1AF",
"j@	c #B9B9B8",
"k@	c #B7B7B7",
"l@	c #BABAB8",
"m@	c #BBBAB5",
"n@	c #52577D",
"o@	c #07168B",
"p@	c #08167A",
"q@	c #0F27E5",
"r@	c #0E25D6",
"s@	c #132ADA",
"t@	c #5B6191",
"u@	c #B8B7B2",
"v@	c #747474",
"w@	c #0E27E0",
"x@	c #0D26EC",
"y@	c #1228D5",
"z@	c #3948BC",
"A@	c #727485",
"B@	c #060F5B",
"C@	c #0C22C5",
"                                                                                                    ",
"                                                                                                    ",
"                                                                                                    ",
"                                                                                                    ",
"                                                                        . +                         ",
"                                                                      @ # $ %                       ",
"                                                                    & * = - ;                       ",
"                                                                  > , ' ) ! ~                       ",
"                                                                { ] ^ ) ) / (                       ",
"                                                              = _ : < ) = [ }                       ",
"                                                            { < , | ) ) 1 2 3                       ",
"                                                          4 < _ 5 6 ) ) 7 8 {                       ",
"                                                        9 0 a 8 b ) ) ) c d 1                       ",
"                                                    e f < ) 3 g = ) ) = d h i                       ",
"                                                9 j j k ) = l m ) ) ) n o a 1                       ",
"                                              p q r s ' ) t u ) ) ) = h v i 6                       ",
"                                          w ) ) ) x 6 ) < d y ) ) ) ' z A ) w                       ",
"                                    B { ' ) ) ) C D ' ) E ~ 1 ) ) ) r F G 0 H                       ",
"                                I 6 ' ) ) ) ) < J ' ) ) % K L M N < O P < a Q                       ",
"                            R 0 ' ) ) ) ) ) ' S T ) ) G U V W X Y Z 8 q ) = `  .                    ",
"                      ..+.@.a ) ) ) ) ) ) ) a #.) ) ) $.%.&.*.*.=.-.;.) ) >.,.'.                    ",
"                  k 6 ).!.~.= ) ) ) ) ) ) ) {.= ) n * ].^.*.*.*./.(.# ) ) _.a 0                     ",
"                :.' <.@.[.' ) ) ) ) ) ) ) }.|.) ' 1.2.3.4.*.*.*.5.6.= ) 0 7.0 '                     ",
"            8.a ) ) 9.!.0.) ) ) ) ) ) ) 0.a.b.a c.d.e.f.*.*.*.g.h.i.1 ) r j.) ) k.                  ",
"          l.) ) ) n c.m.= ) ) ) ) ) n.o.8 p.0 q.!.r.s.*.*.*.4.t.u.v.n ) = w.) ) '                   ",
"        x.) ) ) = y.z.A.) ) ) ) ) B.q.C.D.E.F.G.7 H.I.*.*.*.J.K.L.;.1 ) M.q ) ) ' N.                ",
"      k ) ) ) ) ' , O.1 ) ) ) = P.8 Q.E R.S.F.n T.U.*.*.*.V.W.X.Y.Z.1 ' `.a ) ) )  +                ",
"    >.0 ) ) ) ) .+, | ) ) ) ) / !.++= k.@+#+= ) $+%+*.*.*.&+*+=+-+l 6 q _.) ) ) ) '                 ",
"  ;+) ) ) ) ) < c >+,+) ) ) '+!.)+' a !+@.~+) ) {+]+*.*.V.^+/+(+_+F 6 :+' ) ) ) ) ' >.              ",
"  7 ) ) ) ) ) 6 <+[+i ) = }+!.d i ) |+_+b = ) ' 1+X *.*.2+3+4+) | Z.i 5+6+) ) ) ) ) '               ",
"  ) ) ) ) ) ) 7+z.8+= = 9+C.c.i ) ) 0+} ) ) ) ' a+X *.*.b+c+d+) <.C.e+f+g+) ) ) ) ) ) `.            ",
"  x.) ) ) ) ) h+, 0 ) i+8 8 ! ) ) G j+< ) ) ) ) k+l+4.s.m+n+' ) R Z.k.o+P < ) ) ) ) ) p+            ",
"            q+r+s+) n <+C.t+= ) ) u+v+6 < ) ) ) w+x+y+z+A+B+) ) t+~ f P C+6 ) ) ) ) ) D+            ",
"                  < E+F : ) ) ) ) F+C.] G+a ) ) ' H+I+J+0 ) ) ) K+L+M+y.N+< ) ) ) ) ' ( f+          ",
"                      , O+) ) ) ) P+@.Z.C.Q+< ) ) R+' ) ) ) ) ) S+x.0 6+N+G ) ) ) ) ' !.).          ",
"                          ) ) ) < k q - , T+{ ) ) ) ) ) ) ) ) ) U+!+) 6+V+W+) ) ) = X+F Y+Z+        ",
"                              1 i k.) < m.V+n.) ) ) ) < i 6 = ) P+7 ) X+z.`+) ) ) i @ z.a w         ",
"                                 @.@) = ).z.r ) ) ) ' +@@.@@#@) j+' ) $@z.W+) ) ) %@8 &@n {         ",
"                                  < ) = Q+z.< ) ) *@, C.c.C.=@`.< ) ) Y+z.`+) ) ) -@C.h+) '         ",
"                                  ' ) = & !.{ ) 6 ;@C.P.a >@d ,@) ) = '@z..+) ) 1 * C.) ) ' )@      ",
"                                  ' ) = S+2 1 ) o+F / = ) a !@) ) ) = 5 z.< ) ) }.l Y+= ) ' ~@      ",
"                                  ) ) < 2 @+1 {@8 X+= ) ) 8.]@) ) ) = ~ V+6 ) < ^@/@< ) ) ) (@      ",
"                                  _@:@) , t+W+=@/ = ) ) G <@) ) ) ) 7 c.c.6 ) [@z.#@) ) ) ) }@      ",
"                                  |@1@2@3@4@<+5@) ) ) ) 6@    7@) ) E , @ 1 ) ++1.i ) ) ) ) x.      ",
"                                  8@9@0@a@b@c@d@e@) ' _.            / ~ h = 9+8 f@) ) ) ) ' _.      ",
"                                  g@h@i@j@k@l@m@n@o@p@                      q@h+) ) ) ) ) ' P+      ",
"                                  r@, s@t@u@0@k@v@                              = ) ) ) ) ' x       ",
"                                    w@, x@y@z@A@                                    ) ) ) ' B@      ",
"                                          , C@                                        < ' )         ",
"                                                                                        S           "};
