/* XPM */
static char * blueship05_xpm[] = {
"50 50 365 2",
"  	c None",
". 	c #0E20B8",
"+ 	c #1129E2",
"@ 	c #1025C7",
"# 	c #0A1B9A",
"$ 	c #0B1FB3",
"% 	c #1028E0",
"& 	c #071262",
"* 	c #1129DD",
"= 	c #0B1C9D",
"- 	c #0A1A90",
"; 	c #0C21BB",
"> 	c #0F27E2",
", 	c #06105D",
"' 	c #0E26DC",
") 	c #0B1DA3",
"! 	c #0A1A93",
"~ 	c #0F26E0",
"{ 	c #0D22C2",
"] 	c #071161",
"^ 	c #0D24CF",
"/ 	c #0C1FB4",
"( 	c #0A1A92",
"_ 	c #0A1B98",
": 	c #0F28E9",
"< 	c #0B1CA0",
"[ 	c #071369",
"} 	c #0D20B6",
"| 	c #0D23CF",
"1 	c #0A1A8F",
"2 	c #0D23CA",
"3 	c #0D23CC",
"4 	c #0A1A91",
"5 	c #050F57",
"6 	c #0B1B9A",
"7 	c #0F29ED",
"8 	c #0A1A96",
"9 	c #0F29EC",
"0 	c #0B1B97",
"a 	c #0A1C97",
"b 	c #050C44",
"c 	c #0A1B97",
"d 	c #0F27E3",
"e 	c #0C1EA8",
"f 	c #0D21C0",
"g 	c #0E26D9",
"h 	c #091A96",
"i 	c #0A1A97",
"j 	c #0E24CE",
"k 	c #0D22C1",
"l 	c #0B1C9E",
"m 	c #0A1B96",
"n 	c #071371",
"o 	c #071266",
"p 	c #0B1C9F",
"q 	c #0F28E6",
"r 	c #0A198F",
"s 	c #0D22C5",
"t 	c #061058",
"u 	c #091782",
"v 	c #0A1A95",
"w 	c #0A198E",
"x 	c #0F28E5",
"y 	c #0B1EA6",
"z 	c #0F28EB",
"A 	c #071574",
"B 	c #081470",
"C 	c #09198E",
"D 	c #0D22BF",
"E 	c #0E24CF",
"F 	c #0D23CB",
"G 	c #06105B",
"H 	c #091888",
"I 	c #0A1992",
"J 	c #081477",
"K 	c #071472",
"L 	c #0A1A94",
"M 	c #0B1DA5",
"N 	c #0F28E7",
"O 	c #06115E",
"P 	c #0A1990",
"Q 	c #09167F",
"R 	c #040B3F",
"S 	c #0F27E1",
"T 	c #0E26DA",
"U 	c #0C1FB3",
"V 	c #091680",
"W 	c #07136C",
"X 	c #0A1A98",
"Y 	c #081681",
"Z 	c #0C1FAD",
"` 	c #0E25D8",
" .	c #092F5F",
"..	c #08284E",
"+.	c #0C20B3",
"@.	c #08146C",
"#.	c #091785",
"$.	c #061266",
"%.	c #091885",
"&.	c #091989",
"*.	c #0F29EB",
"=.	c #0A18A2",
"-.	c #118C27",
";.	c #1BF40E",
">.	c #19E30E",
",.	c #0F8517",
"'.	c #0E20EA",
").	c #0C1EAA",
"!.	c #0A198D",
"~.	c #071160",
"{.	c #0C20B8",
"].	c #0C22C0",
"^.	c #09167E",
"/.	c #09177F",
"(.	c #0E25D4",
"_.	c #0C15CA",
":.	c #19DD07",
"<.	c #1BF110",
"[.	c #1BF210",
"}.	c #18D90D",
"|.	c #0F6D3C",
"1.	c #0F26EF",
"2.	c #0B1B98",
"3.	c #081471",
"4.	c #0F26E1",
"5.	c #0E27E4",
"6.	c #071269",
"7.	c #0E1AF0",
"8.	c #18DB0A",
"9.	c #1BF510",
"0.	c #15BD05",
"a.	c #0C378A",
"b.	c #0F27E6",
"c.	c #0B1B99",
"d.	c #0A1B93",
"e.	c #071265",
"f.	c #0B1DA6",
"g.	c #0E24D2",
"h.	c #091887",
"i.	c #081268",
"j.	c #0E1EED",
"k.	c #17C418",
"l.	c #19DE0F",
"m.	c #129B13",
"n.	c #0F28E4",
"o.	c #0F27E5",
"p.	c #0A1B99",
"q.	c #06125F",
"r.	c #0B1DA0",
"s.	c #0F28EA",
"t.	c #0B1EAA",
"u.	c #071470",
"v.	c #091788",
"w.	c #09198F",
"x.	c #0E25E5",
"y.	c #149448",
"z.	c #13AB0B",
"A.	c #0C553A",
"B.	c #0E22D9",
"C.	c #0B1CA4",
"D.	c #0D23C5",
"E.	c #091886",
"F.	c #081574",
"G.	c #0E26DE",
"H.	c #115E88",
"I.	c #1BF60F",
"J.	c #19D50E",
"K.	c #13AC04",
"L.	c #091A80",
"M.	c #0B1B9B",
"N.	c #0F136D",
"O.	c #0E27DF",
"P.	c #0E26DB",
"Q.	c #0B1CA2",
"R.	c #0E23CA",
"S.	c #0F29EF",
"T.	c #081575",
"U.	c #0A1C9A",
"V.	c #061261",
"W.	c #0E26DD",
"X.	c #0E36AD",
"Y.	c #1CFD0A",
"Z.	c #1BEF10",
"`.	c #13AC0B",
" +	c #0C4353",
".+	c #0D25D0",
"++	c #0B1DA2",
"@+	c #061057",
"#+	c #0E27DD",
"$+	c #0F29EE",
"%+	c #0C1FB6",
"&+	c #0A1B95",
"*+	c #0F28E8",
"=+	c #0E24CB",
"-+	c #0A1A99",
";+	c #0A1993",
">+	c #081267",
",+	c #0E26E0",
"'+	c #0B16B9",
")+	c #18D40B",
"!+	c #15B00B",
"~+	c #0F8610",
"{+	c #0A139B",
"]+	c #0E24D0",
"^+	c #0D23C8",
"/+	c #081473",
"(+	c #0F27E4",
"_+	c #0C1FB9",
":+	c #0D4B54",
"<+	c #17C60D",
"[+	c #14AE02",
"}+	c #091482",
"|+	c #0E24CD",
"1+	c #0D23CE",
"2+	c #081571",
"3+	c #0B1DA9",
"4+	c #0F29F0",
"5+	c #081472",
"6+	c #0B1EA5",
"7+	c #0A218A",
"8+	c #19E10F",
"9+	c #13AF07",
"0+	c #093059",
"a+	c #0F26DE",
"b+	c #0C22C1",
"c+	c #0E22C6",
"d+	c #08167F",
"e+	c #0A1994",
"f+	c #0B1EA8",
"g+	c #0C20B1",
"h+	c #0A1894",
"i+	c #107F2E",
"j+	c #1BF50F",
"k+	c #1BF410",
"l+	c #14AF09",
"m+	c #0B4649",
"n+	c #0C21BE",
"o+	c #0E23C9",
"p+	c #0D22C3",
"q+	c #0C20B6",
"r+	c #0E25D2",
"s+	c #09198A",
"t+	c #0A1797",
"u+	c #17C918",
"v+	c #14B30A",
"w+	c #0B4548",
"x+	c #0E26D8",
"y+	c #0F29EA",
"z+	c #0B1DA4",
"A+	c #0D23C9",
"B+	c #050D49",
"C+	c #0E27E3",
"D+	c #0C1EAE",
"E+	c #091E7D",
"F+	c #17D010",
"G+	c #16C005",
"H+	c #092172",
"I+	c #081264",
"J+	c #0F27E0",
"K+	c #0E27E2",
"L+	c #0E25D7",
"M+	c #0E25D3",
"N+	c #07105C",
"O+	c #0E25D6",
"P+	c #0C1FB5",
"Q+	c #0A1B94",
"R+	c #091C80",
"S+	c #15AD26",
"T+	c #1BF20D",
"U+	c #13A80F",
"V+	c #091097",
"W+	c #08167E",
"X+	c #091781",
"Y+	c #0B1CA3",
"Z+	c #0F28EC",
"`+	c #0C21BC",
" @	c #0A1B91",
".@	c #0D22C8",
"+@	c #0C21BF",
"@@	c #0A1996",
"#@	c #0A296D",
"$@	c #0F6D43",
"%@	c #0A1798",
"&@	c #102BF6",
"*@	c #08167B",
"=@	c #0C21BA",
"-@	c #0D22C0",
";@	c #08136F",
">@	c #0B1992",
",@	c #0F28E3",
"'@	c #0A188C",
")@	c #081372",
"!@	c #0B1C9B",
"~@	c #0D21BE",
"{@	c #081572",
"]@	c #0E27E0",
"^@	c #0B1B9C",
"/@	c #0E25D1",
"(@	c #081576",
"_@	c #0C20B5",
":@	c #0A1C9E",
"<@	c #0C21BD",
"[@	c #07146D",
"}@	c #0B1D9E",
"|@	c #0D23C4",
"1@	c #0A1C98",
"2@	c #0E23CC",
"3@	c #060D4B",
"4@	c #0D22C7",
"5@	c #0E27DE",
"6@	c #0C1FAF",
"7@	c #0E23D0",
"8@	c #0D24CC",
"9@	c #0E25D5",
"0@	c #091889",
"a@	c #0C1EA7",
"b@	c #07105D",
"c@	c #0D21BB",
"d@	c #060F56",
"e@	c #0A1B92",
"f@	c #07136B",
"g@	c #081370",
"h@	c #0F25D5",
"i@	c #0F26DF",
"j@	c #071579",
"k@	c #061160",
"l@	c #0C1FB0",
"m@	c #0E27E6",
"n@	c #021290",
"o@	c #28317B",
"p@	c #54587D",
"q@	c #0D21BD",
"r@	c #0B1EAB",
"s@	c #0B1EAD",
"t@	c #0A25EB",
"u@	c #0F1E92",
"v@	c #4856C2",
"w@	c #959598",
"x@	c #C1C0BC",
"y@	c #A0A0A0",
"z@	c #0A1A8E",
"A@	c #152389",
"B@	c #656C9F",
"C@	c #BCBCB6",
"D@	c #B9B9B8",
"E@	c #B7B7B7",
"F@	c #B8B8B7",
"G@	c #99989A",
"H@	c #05105B",
"I@	c #8B8B90",
"J@	c #B5B5B5",
"K@	c #BABAB9",
"L@	c #B3B2A9",
"M@	c #485199",
"N@	c #1125BC",
"O@	c #BCBCBD",
"P@	c #C1C0B5",
"Q@	c #80829A",
"R@	c #3645BC",
"S@	c #0C24D8",
"T@	c #0D27ED",
"U@	c #5D5F6A",
"V@	c #1829BA",
"W@	c #0823EE",
"X@	c #091B96",
"                                                                                                    ",
"                                                                                                    ",
"                                                                                                    ",
"                                                                                                    ",
"                        . +                                                                         ",
"                      @ # $ % &                                                                     ",
"                      * = - ; > ,                                                                   ",
"                      ' ) ! ! ~ { ]                                                                 ",
"                      ^ / ( ! _ : < [                                                               ",
"                      } | 1 ! ! 2 3 4 5                                                             ",
"                      6 7 ! ! ! 8 9 0 a b                                                           ",
"                      c d e ! ! ( f g ! h                                                           ",
"                      i j k ( ! ! l 9 m ! n o                                                       ",
"                      i p q r ! ! - f s 4 m t u                                                     ",
"                      v w x y ! ! ! # z = ! r A _ B                                                 ",
"                      C ! D E ! ! ! ( F ; ( ! G H ! I J                                             ",
"                      K L M q ( ! ! ! 8 N - ! i O _ ! v P Q                                         ",
"                      R v r S l ! ! v v T U ! ! V W ! ! ! L X Y                                     ",
"                      5 ( ( Z ` 4 !  ...+.d 1 ! 8 @.8 ! ! ! ! ! 8 #.                                ",
"                    $.%.&.! _ *.=.-.;.>.,.'.).! ! !.~.L ! ! ! ! ! ! L {.].                          ",
"                    ^.! /.L 4 (._.:.<.[.}.|.1.2.! v 3.1 ! ! ! ! ! ! ! P 4.5.w                       ",
"                    L ( 6.8 ! M 7.8.<.<.9.0.a.b.c.! d.e.v ! ! ! ! ! ! ! f.z g.L h.                  ",
"                  i.i ! ~._ ! ( j.k.<.<.<.l.m.n.o.p.! q.r.! ! ! ! ! ! ! - s s.t.! 8 u.              ",
"                  v.! ! G w.! ! x.y.<.<.<.[.z.A.B.: C.v p.D.r ! ! ! ! ! ! c q (.w ! v E.            ",
"                  P ! ! #.F.! ! G.H.I.<.<.[.J.K.L.j s.M.N.O.P.Q.- ! ! ! ! ( R.S.l ! ! L w           ",
"                T.v ! ! U.V.L ! W.X.Y.<.<.<.Z.`. +L .+*.++@+#+$+%+( ! ! ! ! &+*+=+! ! ! ! -+        ",
"                ;+! ! ! ! >+# ( ,+'+)+<.<.<.<.!+~+{+! { *+T.m ]+z F ! ! ! ! ! ^+d - ! ! ! ! r       ",
"                ! ! ! ! ! /+h.( (+_+:+<.<.<.[.<+[+}+! - |+1+2+( k 9 ^+- ! ! ! 3+4+l ! ! ! ! L #.    ",
"              5+L ! ! ! ! 6+~.( > +.7+Z.<.<.<.8+9+0+! ! 4 a+, v 1 b+z c+P ! ! w d ^ ( ! ! ! ! v d+  ",
"              e+! ! ! ! ! f+X ! ,+g+h+i+j+<.<.k+l+m+! ! ! 6 n+H ! ( o+z { ( ! 4 p+q v ! ! ! ! ! L   ",
"            5+L ! ! ! ! ! q+r+s+> ).! t+u+<.<.9.v+w+! ! ! ! < ^.L ! ! x+y++.! ! z+: _ ! ! ! ! ! !   ",
"            U ! ! ! ! ! ( A+P.B+C+D+! ! E+F+[.k+G+H+! ! ! ! ( I+p.! ! m J+: f.( L y+M.! v v L L     ",
"            K+4 ! ! ! ! - L+M+N+O+P+! ! Q+R+S+T+U+V+! ! ! ( l W+X+! ! ! Y+Z+z # - 1+)               ",
"          `+z  @! ! ! ! w o..@8 q++@! ! ! ! @@#@$@%@! ! p.b.s.&@*@! ! ! 4 =@: F P                   ",
"          U $+).! ! ! ! 1 : -@! ;@g.( ! ! ! ! L >@! ! ( o+: y+,@'@8 ! ! ! c d                       ",
"        )@!@$+|+( ! ! ! 4 9 ~@! {@U 4 ! ! ! ! ! ! ! ! P T d ! w W p.L L !                           ",
"        r w ]@> L ! ! ! - 9 n+! # X+- ( ^@++L ! ! ! ! w N /@! ! (@w.r                               ",
"        L ( _@*+:@! ! ! ! 7 <@! ! [@}@|@y+*+o.1@! ! ! r *+2@! ! 1 3@                                ",
"        ( ! p.9 { 4 ! ! r : 4@! ! v & : 9 5@$+*+6@( ! w S 7@! ! 8                                   ",
"        ! ! - 8@*.L ! ! w q 9@! ! ! 0@9@a@!.:@J+z z+! - g j ! ! m b@                                ",
"      [ ! ! ! # *+c@( ! w > T ! ! ! ! d@! ! ! e@]@(+v 4 j M+! ! &+f@                                ",
"      g@! ! ! ! h@(+1 ! w ]@O.( ! ! ! ! [@L ! ! m n.i@! D ' ! ! v                                   ",
"      j@! ! ! ! L s.p+! - (.o.( ! ! L L k@H ! ! ! p *.l@M m@n@o@p@                                  ",
"      3.! ! ! ! ! q@(+( ( ^+Z+r@( v         ! ! ! 4 s@t@u@v@w@x@y@                                  ",
"      & ! ! ! ! ! z@x+<@( _@                  ! ! 4 A@B@C@D@E@F@G@                                  ",
"      H@! ! ! ! ! ! c z                           I@J@F@E@K@L@M@N@                                  ",
"        ! ! ! ! v !                                 O@P@Q@R@S@T@1+                                  ",
"        ( ! ! !                                     U@V@W@z z                                       ",
"        ( ! L                                         X@7                                           ",
"                                                                                                    "};
