/* XPM */
static char * blueship02_xpm[] = {
"50 50 335 2",
"  	c None",
". 	c #08167A",
"+ 	c #122AE4",
"@ 	c #0F28E8",
"# 	c #1324C8",
"$ 	c #071262",
"% 	c #0A1A8F",
"& 	c #0E25D6",
"* 	c #0F28E7",
"= 	c #0B1CA3",
"- 	c #0A1A93",
"; 	c #0D22C0",
"> 	c #07136B",
", 	c #09188A",
"' 	c #0C1FB0",
") 	c #0F29EC",
"! 	c #0D22C3",
"~ 	c #0A198F",
"{ 	c #0A198D",
"] 	c #0F28E5",
"^ 	c #061059",
"/ 	c #0A1A96",
"( 	c #0A1A92",
"_ 	c #0D21BB",
": 	c #0F28E9",
"< 	c #0C1EA8",
"[ 	c #0A1A91",
"} 	c #0D21BE",
"| 	c #0D22C1",
"1 	c #040B40",
"2 	c #081473",
"3 	c #091784",
"4 	c #040A34",
"5 	c #0A1B96",
"6 	c #0E23CD",
"7 	c #0F27E2",
"8 	c #0A1B99",
"9 	c #0F28EA",
"0 	c #091883",
"a 	c #071474",
"b 	c #091888",
"c 	c #091782",
"d 	c #0B1DA2",
"e 	c #0D23CC",
"f 	c #0E25D9",
"g 	c #0B1EA8",
"h 	c #091887",
"i 	c #091886",
"j 	c #091889",
"k 	c #09198B",
"l 	c #09198C",
"m 	c #0A1A94",
"n 	c #0A1B98",
"o 	c #09167B",
"p 	c #081470",
"q 	c #0E25D5",
"r 	c #0F26DD",
"s 	c #0A1A95",
"t 	c #0D22C4",
"u 	c #071368",
"v 	c #081575",
"w 	c #0A1990",
"x 	c #0F29EB",
"y 	c #0F28E6",
"z 	c #0C1EAE",
"A 	c #0A1B97",
"B 	c #071265",
"C 	c #081471",
"D 	c #0E25D8",
"E 	c #0E24D1",
"F 	c #0E26DC",
"G 	c #091884",
"H 	c #06105A",
"I 	c #0F26D8",
"J 	c #060F55",
"K 	c #0F27E0",
"L 	c #0D24CE",
"M 	c #0D20B8",
"N 	c #0F27E4",
"O 	c #0A1A90",
"P 	c #050D4D",
"Q 	c #061264",
"R 	c #0C1FB5",
"S 	c #06105B",
"T 	c #0A1886",
"U 	c #0F27E1",
"V 	c #0C20B7",
"W 	c #0B1B97",
"X 	c #091785",
"Y 	c #0F29ED",
"Z 	c #0C20BA",
"` 	c #0A1B9B",
" .	c #061058",
"..	c #091885",
"+.	c #0B1C9E",
"@.	c #0E27E1",
"#.	c #0C21BC",
"$.	c #0B1CA0",
"%.	c #0F29EE",
"&.	c #0C1EA9",
"*.	c #0E23CB",
"=.	c #0B1FAE",
"-.	c #060F56",
";.	c #0B1DA1",
">.	c #0F27EF",
",.	c #0A2878",
"'.	c #091690",
").	c #0C1DA7",
"!.	c #0D20B7",
"~.	c #0C1FB4",
"{.	c #0C1EAD",
"].	c #0D22C2",
"^.	c #060E52",
"/.	c #0F26E7",
"(.	c #0E5C6B",
"_.	c #1BF70E",
":.	c #1BF60F",
"<.	c #14A61C",
"[.	c #0A1697",
"}.	c #0A1991",
"|.	c #0B1EAA",
"1.	c #0B1B95",
"2.	c #0E26DE",
"3.	c #0F27E5",
"4.	c #07136D",
"5.	c #0D37A1",
"6.	c #17C81C",
"7.	c #1BF50E",
"8.	c #1BF110",
"9.	c #1AEA0C",
"0.	c #082B4D",
"a.	c #08136C",
"b.	c #0E24CE",
"c.	c #0C1FB1",
"d.	c #0D24D1",
"e.	c #0F29EF",
"f.	c #0E25D2",
"g.	c #0C21BB",
"h.	c #091781",
"i.	c #0B1DA5",
"j.	c #0D23C6",
"k.	c #0F28E3",
"l.	c #0D1FC7",
"m.	c #116679",
"n.	c #1AEC0E",
"o.	c #1BF210",
"p.	c #18D608",
"q.	c #0A256F",
"r.	c #0F28E4",
"s.	c #081369",
"t.	c #0D21C0",
"u.	c #0E26DB",
"v.	c #0A198C",
"w.	c #0C1FAE",
"x.	c #0F28EB",
"y.	c #0F27DF",
"z.	c #081577",
"A.	c #0C1FAF",
"B.	c #0A1691",
"C.	c #107C35",
"D.	c #1CF70F",
"E.	c #1BF010",
"F.	c #108A18",
"G.	c #0F23F4",
"H.	c #060E4A",
"I.	c #0D21BC",
"J.	c #0B1DA6",
"K.	c #071269",
"L.	c #0C21B9",
"M.	c #0D21C1",
"N.	c #0A1997",
"O.	c #12912E",
"P.	c #1BF310",
"Q.	c #15BC09",
"R.	c #0D3F86",
"S.	c #0E25D4",
"T.	c #071261",
"U.	c #0B1C9F",
"V.	c #0C20B2",
"W.	c #071260",
"X.	c #0D23CB",
"Y.	c #0D22C5",
"Z.	c #0A1B9C",
"`.	c #0A1893",
" +	c #12932D",
".+	c #1BF40E",
"++	c #15B70C",
"@+	c #0E653D",
"#+	c #0F23EB",
"$+	c #091780",
"%+	c #0E24D0",
"&+	c #081574",
"*+	c #0C1FB3",
"=+	c #0B1CA2",
"-+	c #0B3370",
";+	c #15BD0C",
">+	c #119111",
",+	c #0E24E4",
"'+	c #0D20BA",
")+	c #08167E",
"!+	c #091392",
"~+	c #16C108",
"{+	c #1BEF10",
"]+	c #15BB0C",
"^+	c #12A10B",
"/+	c #091C83",
"(+	c #0F29F0",
"_+	c #060F57",
":+	c #0B1C99",
"<+	c #0D1FB2",
"[+	c #0C4266",
"}+	c #1AEB10",
"|+	c #13AD0B",
"1+	c #12A403",
"2+	c #091D74",
"3+	c #0E23CA",
"4+	c #0F26DF",
"5+	c #08167D",
"6+	c #106F49",
"7+	c #1CF410",
"8+	c #17CA0D",
"9+	c #13A80B",
"0+	c #12A500",
"a+	c #0A2770",
"b+	c #0A1B9A",
"c+	c #0C20B3",
"d+	c #09198A",
"e+	c #081579",
"f+	c #09198D",
"g+	c #07105D",
"h+	c #0A1797",
"i+	c #118A37",
"j+	c #19DD0F",
"k+	c #14AF0B",
"l+	c #13A807",
"m+	c #0F7B24",
"n+	c #091489",
"o+	c #07105B",
"p+	c #0C21BA",
"q+	c #0A139A",
"r+	c #15A926",
"s+	c #15B510",
"t+	c #13A10E",
"u+	c #0D691A",
"v+	c #091C78",
"w+	c #0A1995",
"x+	c #0E25D3",
"y+	c #0D22BF",
"z+	c #050D4E",
"A+	c #0B1C9D",
"B+	c #0B208A",
"C+	c #0A1B8C",
"D+	c #0A1895",
"E+	c #121474",
"F+	c #0D25D4",
"G+	c #0F27E3",
"H+	c #0E23CC",
"I+	c #0E24CD",
"J+	c #0B1DA7",
"K+	c #0B1FAD",
"L+	c #0B1B9B",
"M+	c #0F27E7",
"N+	c #071264",
"O+	c #0B1B99",
"P+	c #0F25D4",
"Q+	c #07136A",
"R+	c #04138B",
"S+	c #0B1DA4",
"T+	c #0A198E",
"U+	c #858483",
"V+	c #1F2A7F",
"W+	c #091990",
"X+	c #0E26D9",
"Y+	c #0E24D2",
"Z+	c #08136A",
"`+	c #0B1C9B",
" @	c #0C20B8",
".@	c #BBBBBB",
"+@	c #B8B8B6",
"@@	c #1E2EAA",
"#@	c #0E27E7",
"$@	c #0B1D9F",
"%@	c #0B1DA3",
"&@	c #0B1C9A",
"*@	c #0E24CF",
"=@	c #060F54",
"-@	c #0B1C9C",
";@	c #535885",
">@	c #BFBFBD",
",@	c #B7B7B7",
"'@	c #B8B8B8",
")@	c #1E2A89",
"!@	c #0A1B95",
"~@	c #0B1DA0",
"{@	c #08167C",
"]@	c #0A23E5",
"^@	c #4B55A7",
"/@	c #B0B0B0",
"(@	c #2536BF",
"_@	c #0D21BD",
":@	c #0B1CA1",
"<@	c #0B1B9A",
"[@	c #0F27E6",
"}@	c #0A24EB",
"|@	c #4F579E",
"1@	c #B9B9B7",
"2@	c #B6B6B7",
"3@	c #B1B0AC",
"4@	c #1E2982",
"5@	c #091993",
"6@	c #06115E",
"7@	c #0F26DB",
"8@	c #0C1DA9",
"9@	c #0E27E8",
"0@	c #535B96",
"a@	c #BABAB8",
"b@	c #B7B7B6",
"c@	c #152288",
"d@	c #050E52",
"e@	c #091783",
"f@	c #0A1992",
"g@	c #0D27E9",
"h@	c #4E59A7",
"i@	c #969694",
"j@	c #0E26DD",
"k@	c #0E26D6",
"l@	c #0C1EAB",
"m@	c #0F27DE",
"n@	c #0C1EAC",
"o@	c #0D23CA",
"p@	c #0C1DA8",
"q@	c #091786",
"r@	c #07105A",
"s@	c #071160",
"t@	c #091677",
"                                                                                                    ",
"                                                                                                    ",
"                                                                                                    ",
"                                                                                                    ",
"                                                                                                    ",
"                                                                                  . + @ #           ",
"                                                                            $ % & * = - ;           ",
"                                                                        > , ' ) ! ~ - { ]           ",
"                                                                    ^ / ( _ : < [ - - } |           ",
"                                                          1 2 3 4 5 - [ 6 7 8 - - - - 9 0           ",
"                    a 3 b c d e f g b h i j k b b k k l m n o p m - [ q r 5 - - - s r t             ",
"            u v w / s - ( t x y z [ - - - - - - - - - - A B C m - n D E - - - - [ ! F G             ",
"        H / m - - - - - I : D s - - - - - - - - - - m , J s - - - K L - - - - ( M N O P             ",
"    Q w - - - - - - { D : R - - - - - - - - - - - n S T - - - [ U } ( - - - - V @ W m               ",
"  X s - - - - - - w & Y Z ( - - - - - - - - - - `  ...- - ( +.@.#.O - - - ( $.%.&.m H               ",
"v - - - - - - - ( *.: =.( - - - - - - - - ( [ O -.( - - [ ;.>.! ,.'.- - - +.%.).[ j                 ",
"  - - - - - - ( !.@ ~.( - - - - - - - m m {.].^.- - - s *./.(._.:.<.[.- - * } ( 5 S                 ",
"    }.- - - - |.x R ( - - - - [ 1.t 2.3.) L 4.- ( | F : 5.6.7.8.8.9.0.( N #.( - a.                  ",
"        O - O 7 b.( - - ( }.c.d.e.Y f.g.h.B i.j.%.k.l.m.n.o.8.8.o.p.q.r.g.~ - [ s.                  ",
"          [ t.u.v.- ( s w.* x.y.].( ( z.h u.: u.A.B.C.D.8.8.8.8.E.F.G.b.w - - H.i                   ",
"            y n - ( I.@ @ x J.- - - K.L.9 M.( - N.O.P.8.8.8.8.8.Q.R.S.- - / T.{ u                   ",
"              ~ U.2.: : V.m ( - - W.X.Y.Z.[ - `. +.+8.8.8.8.8.++@+#+O - - $+o - 2                   ",
"                : 9 %+5 ( - - s &+*+=+O - - s -+E.8.8.8.8.8.;+>+,+! ( - / H s m                     ",
"                  '+[ - - - - c )+- - - - - !+~+8.8.8.8.{+]+^+/+(+U.- m _+:+- s                     ",
"                    - - - - n j <+[ - - - - [+D.8.8.o.}+|+1+2+3+4+~ m B b - - m                     ",
"                    ~ - - 8 5+* 9 q - - - s 6+o.8.7+8+9+0+a+b+: c+( d+e+m - - s                     ",
"                      f+m g+v.c.3.9 ' - - h+i+P.j+k+l+m+n+m |.: n b o+- - - - m                     ",
"                        j $+- ( p+9 ' - - q+r+s+t+u+v+w+- w x+y+m , w - - - - m                     ",
"                        z+- - [ | %.A+- - - B+C+~ D+- - - U.9 A E+F+[ - - - - s                     ",
"                        ~ - - m * G+[ - - - - - - - - - [ H+I+H u.; - - - - - s                     ",
"                        m - - J+@ K+( - - - - - - - - - L+M+N+O+y *+- - - - - /                     ",
"                      h.- - ~ P+r.s - - - - ( ( - - - - G+Q+s w.e.A+- - - - - m                     ",
"                      R+m - &.%.S+- ( [ ].u.N y D - ( &.C ( [ 4+U T+- - - - - +.                    ",
"                      U+V+W+X+b.( - V ] %.u.Y+3.@ #.{ Z+- - `+@  @( - - - - - N                     ",
"                      .@+@@@#@( $@y * X+%@~ [ &@: *@=@s - [ Z @ -@- - - - ( ].%.                    ",
"                    ;@>@,@'@)@} @ E !@- - - - s ~@{@- - - [ x F [ - - - - J+: f.                    ",
"                    ]@^@>@,@/@(@i.[ - - - - f+S h m - - - _@9 :@- - - - / * @ <@                    ",
"                    [@}@|@1@2@3@4@5@- - s $+6@b+- - - - - @ 7@- - - - A y.: 8@s                     ",
"                      3.9@0@a@,@b@c@[ { d@    e@- - - - *@) A.- - - m ] 9 ' - f@                    ",
"                        N g@h@i@                ~ - - `+@ j@~ - - m k@x.l@( - $+                    ",
"                          *+                        8 y x {.- - 5 m@: n@[ - - K.                    ",
"                                                      * 3+O ( +.: 7 +.- - - -                       ",
"                                                        - - < : D - - - - - [                       ",
"                                                          o@N p@- - - - - - q@                      ",
"                                                            T+- - - - - - / r@                      ",
"                                                              ( - - - - - c                         ",
"                                                                ( - - - 5 s@                        ",
"                                                                [ - - - c                           ",
"                                                                  - - s                             ",
"                                                                    O t@                            "};
