/* XPM */
static char * blueship00_xpm[] = {
"50 50 332 2",
"  	c None",
". 	c #0A1567",
"+ 	c #0B1569",
"@ 	c #0A1A93",
"# 	c #0A1A96",
"$ 	c #091785",
"% 	c #050D4C",
"& 	c #09198A",
"* 	c #0A1A94",
"= 	c #0A1990",
"- 	c #091889",
"; 	c #050F51",
"> 	c #091783",
", 	c #0A1B98",
"' 	c #08136B",
") 	c #0A1A92",
"! 	c #091887",
"~ 	c #0A1A90",
"{ 	c #0A198F",
"] 	c #0A198E",
"^ 	c #0C1EA7",
"/ 	c #0C20B8",
"( 	c #0D22C2",
"_ 	c #0E24D0",
": 	c #0E25D3",
"< 	c #0F27DE",
"[ 	c #0F26DD",
"} 	c #0E26DD",
"| 	c #0E25D7",
"1 	c #0D23CA",
"2 	c #0C20B6",
"3 	c #0F28E6",
"4 	c #0F27E5",
"5 	c #0F27E1",
"6 	c #0E26DF",
"7 	c #0E25D9",
"8 	c #0D24D0",
"9 	c #0E26DA",
"0 	c #0F27E0",
"a 	c #0F27E4",
"b 	c #0F28E8",
"c 	c #0A1A95",
"d 	c #0B1B97",
"e 	c #0B1D9F",
"f 	c #0C21BD",
"g 	c #0A1A91",
"h 	c #0F28E4",
"i 	c #0F27DF",
"j 	c #0D23CD",
"k 	c #0C1FB2",
"l 	c #0A1B99",
"m 	c #0A188C",
"n 	c #0F26DE",
"o 	c #0F28E5",
"p 	c #0F28E7",
"q 	c #0F28E9",
"r 	c #0F29EC",
"s 	c #0E26D8",
"t 	c #0B1DA4",
"u 	c #0A1B96",
"v 	c #0A1B9A",
"w 	c #0C1FAE",
"x 	c #0E25D8",
"y 	c #0F29ED",
"z 	c #0F28EA",
"A 	c #0D23C9",
"B 	c #0A1B97",
"C 	c #0B1EAA",
"D 	c #0D23C8",
"E 	c #0F28EB",
"F 	c #0E24CE",
"G 	c #0A1C9D",
"H 	c #08146F",
"I 	c #0D23C6",
"J 	c #0F27E2",
"K 	c #0F29EE",
"L 	c #0D21BD",
"M 	c #071267",
"N 	c #0D22C6",
"O 	c #0E27DF",
"P 	c #07136D",
"Q 	c #0A1B9B",
"R 	c #091680",
"S 	c #09167E",
"T 	c #050E51",
"U 	c #060F54",
"V 	c #081475",
"W 	c #081370",
"X 	c #081470",
"Y 	c #071162",
"Z 	c #050E50",
"` 	c #050E4B",
" .	c #07105A",
"..	c #08167D",
"+.	c #08157B",
"@.	c #081781",
"#.	c #06115E",
"$.	c #091784",
"%.	c #06115D",
"&.	c #071268",
"*.	c #0D22C8",
"=.	c #0B1C9B",
"-.	c #0B1B9C",
";.	c #0C1FAF",
">.	c #1029F2",
",.	c #0D22BD",
"'.	c #0A1B94",
").	c #08167A",
"!.	c #071269",
"~.	c #071264",
"{.	c #081571",
"].	c #081574",
"^.	c #09188A",
"/.	c #08146E",
"(.	c #081471",
"_.	c #0F28EC",
":.	c #0B1C9F",
"<.	c #0C21BC",
"[.	c #0E26DE",
"}.	c #0B1CA1",
"|.	c #0A198D",
"1.	c #07136A",
"2.	c #050D4B",
"3.	c #04092F",
"4.	c #0F29EB",
"5.	c #0B1DA3",
"6.	c #0B1DA5",
"7.	c #0B1DA1",
"8.	c #0A1B92",
"9.	c #061263",
"0.	c #9E9E9E",
"a.	c #646987",
"b.	c #0B1DA2",
"c.	c #0F26DC",
"d.	c #0E24D3",
"e.	c #0A1897",
"f.	c #09109C",
"g.	c #090F9C",
"h.	c #0A11AA",
"i.	c #0D1CDF",
"j.	c #0F27F3",
"k.	c #0F25E2",
"l.	c #0D22C4",
"m.	c #0B1EA8",
"n.	c #091781",
"o.	c #06105C",
"p.	c #1228CE",
"q.	c #AFB0B5",
"r.	c #BBBBBB",
"s.	c #70738E",
"t.	c #0C1FB3",
"u.	c #0F25D8",
"v.	c #0D21BF",
"w.	c #0A1996",
"x.	c #091885",
"y.	c #0E5458",
"z.	c #118438",
"A.	c #16C312",
"B.	c #17CD0C",
"C.	c #16BF13",
"D.	c #138C4F",
"E.	c #12815E",
"F.	c #115896",
"G.	c #0E34C0",
"H.	c #0F20EE",
"I.	c #0F27E3",
"J.	c #1029ED",
"K.	c #0E27E0",
"L.	c #0F26D9",
"M.	c #0D24CF",
"N.	c #081474",
"O.	c #142CE6",
"P.	c #ACADB1",
"Q.	c #B9B9B9",
"R.	c #6F749B",
"S.	c #0D22C1",
"T.	c #0A1993",
"U.	c #0B3B59",
"V.	c #1BF507",
"W.	c #1BF410",
"X.	c #1BF110",
"Y.	c #1BF50F",
"Z.	c #1CFB0A",
"`.	c #14B312",
" +	c #0A1D81",
".+	c #0A1991",
"++	c #0B1A95",
"@+	c #0C1EA9",
"#+	c #0C20B5",
"$+	c #0E23C8",
"%+	c #0F27DA",
"&+	c #111C77",
"*+	c #142CE5",
"=+	c #ACADB2",
"-+	c #B9B9B8",
";+	c #7279AF",
">+	c #0D24D1",
",+	c #0D21B9",
"'+	c #091790",
")+	c #119126",
"!+	c #1BF20F",
"~+	c #1BF310",
"{+	c #15BA0F",
"]+	c #091592",
"^+	c #0A1B9C",
"/+	c #07157A",
"(+	c #132CE5",
"_+	c #71759C",
":+	c #0D2D7C",
"<+	c #16BE09",
"[+	c #19DC0E",
"}+	c #1BED10",
"|+	c #1BF510",
"1+	c #1BF210",
"2+	c #18D70B",
"3+	c #09158E",
"4+	c #0C1DA7",
"5+	c #0E1A93",
"6+	c #7177A8",
"7+	c #0F29F0",
"8+	c #0B1C9D",
"9+	c #091389",
"0+	c #0F7E1E",
"a+	c #13AA07",
"b+	c #15B70C",
"c+	c #17CE0E",
"d+	c #19DB0F",
"e+	c #19E30F",
"f+	c #1AE810",
"g+	c #1AEA0F",
"h+	c #1AE70F",
"i+	c #19E10C",
"j+	c #15BC08",
"k+	c #09343E",
"l+	c #0A1994",
"m+	c #0B1EA9",
"n+	c #0D21C0",
"o+	c #1028D6",
"p+	c #0F26E1",
"q+	c #0B1A93",
"r+	c #0D20B7",
"s+	c #0F26D7",
"t+	c #0A1997",
"u+	c #093050",
"v+	c #10920D",
"w+	c #14A50D",
"x+	c #13A80B",
"y+	c #13A70A",
"z+	c #13A60B",
"A+	c #13A50E",
"B+	c #12A40F",
"C+	c #108E12",
"D+	c #0E5551",
"E+	c #0C1FC0",
"F+	c #0C21BA",
"G+	c #0C21BB",
"H+	c #0E24CF",
"I+	c #0D22C0",
"J+	c #061059",
"K+	c #858689",
"L+	c #B5B5B5",
"M+	c #747792",
"N+	c #0B1B9D",
"O+	c #0E22C6",
"P+	c #0C1FB0",
"Q+	c #0A1890",
"R+	c #0A1E89",
"S+	c #0A2779",
"T+	c #0A2774",
"U+	c #0A2775",
"V+	c #0A2771",
"W+	c #0D2C9C",
"X+	c #0F2CD8",
"Y+	c #0F2ADA",
"Z+	c #0F26E7",
"`+	c #0D23D0",
" @	c #0E23CF",
".@	c #0D21BB",
"+@	c #0D21BA",
"@@	c #0C1EA8",
"#@	c #0C1DA6",
"$@	c #0B1B9B",
"%@	c #0B1C9E",
"&@	c #09167F",
"*@	c #050C44",
"=@	c #0E26D7",
"-@	c #1029EF",
";@	c #0E24CC",
">@	c #07146D",
",@	c #0A1786",
"'@	c #0F29E9",
")@	c #0B1B9A",
"!@	c #0B1FB1",
"~@	c #0E25D4",
"{@	c #0A1C9E",
"]@	c #08167C",
"^@	c #081473",
"/@	c #040B3B",
"(@	c #060F57",
"_@	c #0A1B95",
":@	c #0B1FAE",
"<@	c #0C1EAC",
"[@	c #050C43",
"}@	c #050D4A",
"|@	c #061260",
"1@	c #091883",
"2@	c #081577",
"3@	c #071368",
"4@	c #08146C",
"5@	c #091782",
"6@	c #09157C",
"7@	c #07146E",
"8@	c #061161",
"9@	c #101058",
"0@	c #071473",
"a@	c #061056",
"b@	c #071365",
"c@	c #091780",
"d@	c #09198C",
"e@	c #0D24CD",
"f@	c #0F29EF",
"g@	c #0B1CA0",
"h@	c #0E26DB",
"i@	c #071262",
"j@	c #081573",
"k@	c #0D23CC",
"l@	c #0C1FB4",
"m@	c #0B1DA6",
"n@	c #0B1DA7",
"o@	c #091994",
"p@	c #09167C",
"q@	c #081576",
"                  . +                                                                               ",
"                  @ @ # $ %                                                                         ",
"                & @ @ @ @ * = - ;                                                                   ",
"                  @ @ @ @ @ @ @ # >                                                                 ",
"                  @ @ @ @ @ @ @ @ @ , '                                                             ",
"                  ) @ @ @ @ @ @ @ @ @ @ !                                                           ",
"                  ~ @ @ @ ) ~ ~ { { { { = ]                                                         ",
"                    * ^ / ( _ : < [ } [ | 1 2                                                       ",
"                    3 4 5 6 } 7 8 9 } } 0 a b a                                                     ",
"                    c c * * @ @ @ @ @ @ * c d e f                                                   ",
"                    ] ~ @ @ @ @ @ @ @ @ @ @ @ @ g =                                                 ",
"                  h i j k l ~ ) @ @ @ @ @ @ @ @ @ @ m                                               ",
"                  n o p q r s t u @ @ @ @ @ @ @ @ @ @ *                                             ",
"                  c , v w x y z a A # ) @ @ @ @ @ @ @ @ @                                           ",
"                  @ @ @ ) { B C D y E F G g @ @ @ @ @ @ @ ] H                                       ",
"                  @ @ @ @ @ @ @ g u I J K L @ @ @ @ @ @ @ @ @ M                                     ",
"                  @ @ @ @ @ @ @ @ @ @ ) N b O u @ @ @ @ @ @ @ @ P                                   ",
"                  l Q R S T U V W X Y Z `  ...+.@.#.$.$.l l # @ @ R                                 ",
"                %.#.&.c *.5 =.-.;.D O >.9 ,.l '.{ ) ).X !.~.{.X &.].^./.                            ",
"            (.c c * @ * _.E :.@ @ ) = @ <.[._.A }.* @ @ @ @ * B v |.1.2.3.                          ",
"          @ @ @ @ @ @ * 4.z 5.@ @ @ @ @ @ @ 6.} b O 7.) @ @ @ @ @ @ @ @ @ ) 8.9.                    ",
"      0.a.@ @ @ @ { b.c.q d.) @ @ @ @ * e.f.g.f.h.i.j.k.l.m.C , u B u B ] |.|.~ |.n.o.              ",
"  p.q.r.s.) { l t.u.K b v.g @ @ @ w.x.y.z.A.B.B.B.C.D.E.F.G.H.I.J I.I.r q J.J.K.L.M.( 6.N.          ",
"a O.P.Q.R./ } K 3 5 S.@ @ @ @ @ T.U.V.W.X.X.X.X.X.X.X.X.Y.Z.`. +.+= ~ ] |.@ ++d @+#+$+n b %+&+      ",
"a *+=+-+;+>+,+}.B * @ @ @ @ @ '+)+!+X.X.X.X.X.X.X.X.X.X.X.X.~+{+]+@ @ @ @ @ @ @ @ @ @ @ # ^+: /+    ",
"a (+P.Q._+m.B |.= @ @ @ @ @ * :+<+[+}+|+1+X.X.X.X.X.X.X.X.X.W.2+3+@ @ @ @ @ @ @ @ @ @ @ g ] 4+5+    ",
"4 (+=+Q.6+0 7+z F ;.8+~ @ @ @ * 9+0+a+b+c+d+e+f+g+g+g+g+h+i+j+k+l+) ) g g ~ = ~ * l :.m+n+J o+      ",
"p+*+=+Q.s.) q+r+a p E s+* @ @ @ @ t+u+v+w+x+x+y+y+z+A+B+C+D+E+F+F+F+G+H+M.n a 4 4.q b J I+J+        ",
"    K+L+M+@ @ ) @ N+O+y 3 P+g @ @ @ * Q+R+S+T+U+V+W+X+Y+Z+`+ @.@.@+@+@+@@@4+#@8+$@%@&@*@            ",
"          * @ @ @ @ = @+z y 8+@ @ @ @ @ @ @ @ t.=@-@;@C = = ~ g g g g g ) * B $.>@                  ",
"          ,@] * * @ @ { '@z 5.@ @ @ ) g )@!@b o ~@{@g @ @ @ @ * c # ] $ ]@^@/@                      ",
"              (@>@|._@b.z y _@@ @ * :@O b h <@) @ @ @ @ @ '.g ~.[@}@|@]@                            ",
"                  x.1@R 2@3@Y 4@2@5@{ 6@7@8@9@#.0@a@b@(.R c@n.{ c .+1.                              ",
"                  @ @ * u B , B , B @ d@8+e@f@F )@, u c @ @ @ * !                                   ",
"                  @ @ @ @ @ @ @ @ ) v I 4.h g@) @ @ @ @ @ @ @ $.                                    ",
"                  @ @ @ @ @ @ g %@h@p E f * @ @ @ @ @ @ @ * >                                       ",
"                  ) g ] ) P+F < r p G+$@g @ @ @ @ @ @ @ * ]@                                        ",
"                  2 D 9 r y b ~@/ { ) @ @ @ @ @ @ @ @ * &@                                          ",
"                  p+b 3 I.#+@ ) @ @ @ @ @ @ @ @ @ @ * 2@                                            ",
"                    8+, @ @ @ @ @ @ @ @ @ @ @ @ @ B i@                                              ",
"                    ~ g ) ) @ @ @ @ @ @ ) ~ ] ] g@j@                                                ",
"                    k@v.l@;.6.6.}.6.m@n@t.D [ z S.                                                  ",
"                    4+>+b b b b b b b b b p b o@                                                    ",
"                  g @ g @ B -.8+g@g@g@g@%@8+p@                                                      ",
"                  = @ @ @ @ @ @ @ @ @ @ * X                                                         ",
"                  @ @ @ @ @ @ @ @ @ * d@                                                            ",
"                  @ @ @ @ @ @ @ @ # &.                                                              ",
"                  @ @ @ @ @ * * q@                                                                  ",
"                > @ @ c ) R 2@                                                                      ",
"                  |.|.>@                                                                            "};
