/* XPM */
static char * blueship08_xpm[] = {
"50 50 352 2",
"  	c None",
". 	c #081470",
"+ 	c #091780",
"@ 	c #06105A",
"# 	c #08167E",
"$ 	c #0A1A96",
"% 	c #0A1A94",
"& 	c #0A1A93",
"* 	c #091783",
"= 	c #081577",
"- 	c #0A1991",
"; 	c #0A198D",
"> 	c #0A1A95",
", 	c #081473",
"' 	c #0A198F",
") 	c #0A1A8E",
"! 	c #0A198E",
"~ 	c #0B1A8F",
"{ 	c #0A1A91",
"] 	c #0C1EAD",
"^ 	c #0D24D1",
"/ 	c #0F27DF",
"( 	c #0F28E8",
"_ 	c #0F28EA",
": 	c #0F28E9",
"< 	c #0F28EB",
"[ 	c #0F29EC",
"} 	c #0E27DF",
"| 	c #0F26DE",
"1 	c #0E25D3",
"2 	c #0D22C3",
"3 	c #0C1FAF",
"4 	c #0A1B94",
"5 	c #0C20B9",
"6 	c #0F27E2",
"7 	c #0E26DB",
"8 	c #0E25D5",
"9 	c #0E23CB",
"0 	c #0D23CC",
"a 	c #0C21BB",
"b 	c #0C21B8",
"c 	c #0D23CB",
"d 	c #0D24CC",
"e 	c #0E25D8",
"f 	c #0E27E0",
"g 	c #0F27E6",
"h 	c #08157A",
"i 	c #0A1B9C",
"j 	c #0A1A92",
"k 	c #081679",
"l 	c #0B1B95",
"m 	c #08167A",
"n 	c #0A1990",
"o 	c #0A1B96",
"p 	c #0C1EB0",
"q 	c #0D23CA",
"r 	c #0F27E5",
"s 	c #091887",
"t 	c #0B1CA1",
"u 	c #0D24CF",
"v 	c #0F29EB",
"w 	c #0F28E7",
"x 	c #0F27E4",
"y 	c #0F27E3",
"z 	c #091888",
"A 	c #0A1A90",
"B 	c #0D21BC",
"C 	c #0F29ED",
"D 	c #0F26DD",
"E 	c #0C1FB0",
"F 	c #0B1B98",
"G 	c #091889",
"H 	c #0F29F0",
"I 	c #0C1EAC",
"J 	c #0A1B98",
"K 	c #09198F",
"L 	c #0C1DA6",
"M 	c #0D24D0",
"N 	c #0B1CA0",
"O 	c #0D22C6",
"P 	c #0E26D9",
"Q 	c #09188E",
"R 	c #07136D",
"S 	c #0A1C98",
"T 	c #0A1B9A",
"U 	c #081781",
"V 	c #081266",
"W 	c #06105B",
"X 	c #070F55",
"Y 	c #081574",
"Z 	c #071268",
"` 	c #13136A",
" .	c #071262",
"..	c #081161",
"+.	c #081575",
"@.	c #091574",
"#.	c #07146F",
"$.	c #071472",
"%.	c #071369",
"&.	c #050F4E",
"*.	c #08136C",
"=.	c #0A1889",
"-.	c #0A1A97",
";.	c #071470",
">.	c #07136C",
",.	c #07115C",
"'.	c #08136A",
").	c #081573",
"!.	c #09167C",
"~.	c #0A1B95",
"{.	c #0B1FB1",
"].	c #0E26D5",
"^.	c #1029EE",
"/.	c #0F27E1",
"(.	c #0D23C8",
"_.	c #0C1FB2",
":.	c #0B1C9D",
"<.	c #0B1B97",
"[.	c #0B1DA6",
"}.	c #0F29EF",
"|.	c #0F26D8",
"1.	c #081576",
"2.	c #071266",
"3.	c #030A3B",
"4.	c #0B1C9A",
"5.	c #0B1C9E",
"6.	c #0D22C2",
"7.	c #0F28E6",
"8.	c #0D22C4",
"9.	c #0D21BB",
"0.	c #061059",
"a.	c #0A1B99",
"b.	c #0E24D0",
"c.	c #0C20B4",
"d.	c #0E24CB",
"e.	c #050D47",
"f.	c #09177D",
"g.	c #09188A",
"h.	c #0A1B97",
"i.	c #0B1C9C",
"j.	c #0B1EA8",
"k.	c #0B1EA9",
"l.	c #0C1EA9",
"m.	c #0C20B8",
"n.	c #0C22C1",
"o.	c #0E26DF",
"p.	c #0F26F6",
"q.	c #0E22F2",
"r.	c #0A13A3",
"s.	c #090F8D",
"t.	c #090F8B",
"u.	c #090F8C",
"v.	c #0A129B",
"w.	c #0A179B",
"x.	c #0E25D4",
"y.	c #0B1CA2",
"z.	c #021394",
"A.	c #949495",
"B.	c #A2A2A2",
"C.	c #08136D",
"D.	c #0B1DA0",
"E.	c #0E23CC",
"F.	c #0E25D9",
"G.	c #0F27E0",
"H.	c #1028E8",
"I.	c #0F28E5",
"J.	c #0F27DB",
"K.	c #0E25D7",
"L.	c #0E26D7",
"M.	c #0E24E0",
"N.	c #0D29C9",
"O.	c #0E498B",
"P.	c #0D555D",
"Q.	c #0F752D",
"R.	c #0F8416",
"S.	c #12A601",
"T.	c #13A602",
"U.	c #12A602",
"V.	c #13A802",
"W.	c #11900B",
"X.	c #0E7224",
"Y.	c #0B4057",
"Z.	c #091786",
"`.	c #0E25DA",
" +	c #0C20B3",
".+	c #0A1C9C",
"++	c #011291",
"@+	c #9E9D9F",
"#+	c #B9B9B9",
"$+	c #808294",
"%+	c #0920D2",
"&+	c #1326C2",
"*+	c #0F26DC",
"=+	c #0C1EAA",
"-+	c #0A4634",
";+	c #14B702",
">+	c #17C80D",
",+	c #19E00F",
"'+	c #19DF0E",
")+	c #1ADF0E",
"!+	c #1ADF0F",
"~+	c #18D10E",
"{+	c #17C40D",
"]+	c #15B40C",
"^+	c #13AD0B",
"/+	c #129C0B",
"(+	c #0B2A6E",
"_+	c #0A1994",
":+	c #0D20BA",
"<+	c #0E26DE",
"[+	c #0E27E2",
"}+	c #041AC2",
"|+	c #9E9FAA",
"1+	c #B8B8B8",
"2+	c #7E7F90",
"3+	c #0B25EA",
"4+	c #0B1DA3",
"5+	c #0A257C",
"6+	c #1AE50F",
"7+	c #1BF110",
"8+	c #1BF010",
"9+	c #1BED10",
"0+	c #19DB0E",
"a+	c #16BD0D",
"b+	c #0C4B54",
"c+	c #0A1796",
"d+	c #0B1B9C",
"e+	c #0B1EAF",
"f+	c #051CCB",
"g+	c #9E9FA8",
"h+	c #7E7F92",
"i+	c #0B25EB",
"j+	c #0E21BC",
"k+	c #0B1DA5",
"l+	c #0A2A7B",
"m+	c #1BF210",
"n+	c #1CFB0E",
"o+	c #117F3B",
"p+	c #0B188F",
"q+	c #0B1C9B",
"r+	c #041AC1",
"s+	c #9E9FA4",
"t+	c #7E8091",
"u+	c #0F26D1",
"v+	c #0B20AE",
"w+	c #0B1B9D",
"x+	c #0B1B9A",
"y+	c #139628",
"z+	c #1AEE0A",
"A+	c #1CF70E",
"B+	c #1BF410",
"C+	c #19E010",
"D+	c #0E5E4D",
"E+	c #0A1697",
"F+	c #0B1EAA",
"G+	c #0E23C7",
"H+	c #051ED6",
"I+	c #7F8091",
"J+	c #0D21C0",
"K+	c #0E28E5",
"L+	c #0D25CF",
"M+	c #0E26DC",
"N+	c #0D21CC",
"O+	c #116D59",
"P+	c #14A523",
"Q+	c #1AE613",
"R+	c #1AEB13",
"S+	c #1BEE11",
"T+	c #1BEF10",
"U+	c #1BEF12",
"V+	c #1ADF11",
"W+	c #0E6738",
"X+	c #08118A",
"Y+	c #011293",
"Z+	c #7F7F91",
"`+	c #0B24E9",
" @	c #050E4C",
".@	c #091886",
"+@	c #0A1B9B",
"@@	c #0B1DA1",
"#@	c #0D20B7",
"$@	c #0D20C3",
"%@	c #0F25E7",
"&@	c #0F28E2",
"*@	c #0F2BD9",
"=@	c #0C2E93",
"-@	c #0B2980",
";@	c #0B2A82",
">@	c #0A2288",
",@	c #0A1895",
"'@	c #0B1EA4",
")@	c #011294",
"!@	c #9C9C9D",
"~@	c #989898",
"{@	c #52535E",
"]@	c #081471",
"^@	c #0E25D2",
"/@	c #1029EF",
"(@	c #0E24D3",
"_@	c #040B3F",
":@	c #071368",
"<@	c #09167F",
"[@	c #0F28E3",
"}@	c #0B1B99",
"|@	c #0C20B6",
"1@	c #0A198A",
"2@	c #07105A",
"3@	c #050E4D",
"4@	c #0C20B2",
"5@	c #0B1B93",
"6@	c #0C1DA5",
"7@	c #08157C",
"8@	c #06115E",
"9@	c #08167C",
"0@	c #09167D",
"a@	c #081675",
"b@	c #08136B",
"c@	c #09177E",
"d@	c #061055",
"e@	c #071163",
"f@	c #091785",
"g@	c #091787",
"h@	c #08157D",
"i@	c #071264",
"j@	c #091883",
"k@	c #0B1DA2",
"l@	c #0E26D8",
"m@	c #102AF6",
"n@	c #09198C",
"o@	c #0D21BE",
"p@	c #09198D",
"q@	c #0D22C1",
"r@	c #0D24CD",
"s@	c #0B1B96",
"t@	c #0C21BA",
"u@	c #0F26E0",
"v@	c #0E25D6",
"w@	c #0A188B",
"x@	c #0D20BC",
"y@	c #091884",
"z@	c #0A1A8F",
"A@	c #0D25D7",
"B@	c #0C1FAE",
"C@	c #0C1DA3",
"D@	c #0E26E0",
"E@	c #091781",
"F@	c #0B1C9F",
"G@	c #091680",
"H@	c #061369",
"I@	c #09167B",
"J@	c #07146E",
"K@	c #061365",
"                                                                          . +                       ",
"                                                                    @ # $ % & $                     ",
"                                                                * % & & & & & %                     ",
"                                                            = - % & & & & & & %                     ",
"                                                          ; > & & & & & & & & &                     ",
"                                                      , % & & & & & & & & & &                       ",
"                                                    * ' ' ) ! ~ ' ! ' { & & &                       ",
"                                                  ] ^ / ( _ : < [ } | 1 2 3 4                       ",
"                                                5 _ 6 7 8 9 0 a b c d e e f g                       ",
"                                              h i % j & & & & & & & & & & & &                       ",
"                                            k % & & & & & & & & & & & & { ; l                       ",
"                                          m $ & & & & & & & & & & n o p q r [                       ",
"                                        s % & & & & & & & & j > t u v _ w x y                       ",
"                                      z & & & & & & & & & A B x : C D E F > %                       ",
"                                    G % & & & & & & & A 2 x H 8 I J n j & & & {                     ",
"                                  K % & & & & & & { L y : M N ! & & & & & & & %                     ",
"                                $ & & & & & & & % O < P F { & & & & & & & & & Q                     ",
"                            R & % S T % U V W X Y Z `  ...+.@.#.$.%.&.%.*.=.J -.                    ",
"                          ;.>.Z ,.Z '.).!.; j J % ~.{.].^./.(._.:.<.[.}.|.1.;.#.2.                  ",
"                      3.W 1.> 4.T % & & & & { 5.6._ 7.8.F ' j & & { 9.( b j & % > % m               ",
"                0.K & & & & & & & & & & & a.b._ w c.j & & & & & & { 9.( d.' & & & & & %             ",
"          e.f.g.n ! h.h.i.j.k.l.j.m.B n.o.p.q.r.s.t.u.v.w.% & & & & a.7.< x.y.! & & & z.A.B.        ",
"      C.D.E.F.G.[ H.C I.y J.K.L.K.M.N.O.P.Q.R.S.T.U.V.W.X.Y.Z.% & & & j (.: }.`. +.+' ++@+#+$+%+    ",
"    &+_ *+8.=+4.> ' ' ' ' { { { n -+;+>+,+'+'+)+!+~+{+]+^+^+/+(+_+& & & j ~.:+<+7.[ [+}+|+1+2+3+    ",
"  u 4+> & & & & & & & & & & & & 5+6+7+7+7+7+7+7+7+7+7+7+8+9+0+a+b+c+& & & & & & o d+e+f+g+1+h+i+    ",
"  j+k+! { & & & & & & & & & & % l+8+7+7+7+7+7+7+7+7+7+7+7+7+m+n+o+p+& & & & & { ' q+3 r+s+1+t+i+    ",
"    u+6 8.v+4+w+x+% % { A { A A ! y+z+A+B+7+7+7+7+7+7+7+7+A+C+D+E+& & & { J F+G+( H 6 H+|+1+I+3+    ",
"      >.J+G.w _ _ _ v K+y K.u b.L+M+N+O+P+Q+R+S+T+T+T+U+V+W+X+& & & & % B v ( w 2 h.{ Y+@+1+Z+`+    ",
"           @.@+@T T :.5.@@l.l.l.l.#@9.$@%@&@*@=@-@;@;@>@' ,@& & & & o | : *+'@o j & & )@!@~@{@      ",
"                ]@s J > & j j j j j { { { ] ^@/@x.E { j & & & & & j m.( (@{ & & & & & &             ",
"                    _@:@<@.@; A > % & & & & ' j.L.w [@=+}@j j & & { B ( |@j & % % { ;               ",
"                          1@#.2@3@ .+ > h.> % & & j 4@g _ M+c.5@j & 6@( y j & 7@8@                  ",
"                            C.a.o { .@9@0@a@. b@c@. 2.d@e@]@f@g@h@2.i@# j@0@9@s                     ",
"                              b@A & & & & % > > k@l@m@q @@$ h.h.h.a.a.h.% % & n@                    ",
"                                  n & & & & & & & { 3 w C o@o j & & & & & & & &                     ",
"                                    p@& & & & & & & & o d [ 7.l@i.n j & & & & &                     ",
"                                      G & & & & & & & & A 5.q@w C | r@3 s@; '                       ",
"                                        ; & & & & & & & & & { { t@e w C C u@v@                      ",
"                                          w@& & & & & & & & & & & j & x@y w (                       ",
"                                            <@& & & & & & & & & & & & j & a.:.                      ",
"                                              y@y.> ! z@{ j j & & j j { { ' '                       ",
"                                                A@}.I.0 9.B@3 C@y.B@E q@q@K.D@                      ",
"                                                  t@7.v _ : _ ( : _ < : v@E 4                       ",
"                                                    E@a.F@F@F@F@F@a.J & { j &                       ",
"                                                      G@> & & & & & & & & & &                       ",
"                                                        H@j % & & & & & & & & %                     ",
"                                                            Y > & & & & & & & &                     ",
"                                                                0@J % & & & & %                     ",
"                                                                    I@.@j > & >                     ",
"                                                                          J@K K@                    "};
