/* XPM */
static char * blueship09_xpm[] = {
"50 50 359 2",
"  	c None",
". 	c #091784",
"+ 	c #081782",
"@ 	c #0A1888",
"# 	c #0A1A94",
"$ 	c #0A198D",
"% 	c #0A1A92",
"& 	c #0A1A93",
"* 	c #0A1A95",
"= 	c #06115F",
"- 	c #071164",
"; 	c #08167B",
"> 	c #0A198F",
", 	c #0A1A91",
"' 	c #0B1CA1",
") 	c #0C20B5",
"! 	c #0D22C3",
"~ 	c #071264",
"{ 	c #0A1B97",
"] 	c #0A1A8F",
"^ 	c #0B1CA0",
"/ 	c #0C20B4",
"( 	c #0E24D1",
"_ 	c #0F29ED",
": 	c #0F29EE",
"< 	c #0E26DA",
"[ 	c #0D22C1",
"} 	c #0B1EA4",
"| 	c #0F28E7",
"1 	c #0F26DC",
"2 	c #0D21BB",
"3 	c #0B1A91",
"4 	c #071368",
"5 	c #0A1990",
"6 	c #0C21BE",
"7 	c #0F27E6",
"8 	c #0F28E9",
"9 	c #0F27E7",
"0 	c #0C1FAD",
"a 	c #0B1C9E",
"b 	c #0E26DD",
"c 	c #0B1DA7",
"d 	c #0E26DE",
"e 	c #0F26DD",
"f 	c #0C1FB1",
"g 	c #0C21B8",
"h 	c #0F28E8",
"i 	c #0F28EB",
"j 	c #0E25D9",
"k 	c #0D21BC",
"l 	c #0A1A90",
"m 	c #0F28EA",
"n 	c #0C21BA",
"o 	c #0C20B8",
"p 	c #0D23C9",
"q 	c #0E27E1",
"r 	c #0A1B98",
"s 	c #0C1EAD",
"t 	c #0E25D4",
"u 	c #0F29EC",
"v 	c #0D24CC",
"w 	c #08167D",
"x 	c #0E24CF",
"y 	c #091783",
"z 	c #0D23CB",
"A 	c #0D21B7",
"B 	c #09198B",
"C 	c #07136C",
"D 	c #060F5A",
"E 	c #07136B",
"F 	c #0C1FB3",
"G 	c #091987",
"H 	c #071266",
"I 	c #091780",
"J 	c #3B406B",
"K 	c #A0A0A0",
"L 	c #ABABA9",
"M 	c #192BBD",
"N 	c #0F26E0",
"O 	c #0B1FAE",
"P 	c #0D23C5",
"Q 	c #0A1B99",
"R 	c #091782",
"S 	c #07126B",
"T 	c #0A1887",
"U 	c #091886",
"V 	c #0F2AF0",
"W 	c #0C197D",
"X 	c #BCBAB3",
"Y 	c #B9B9B8",
"Z 	c #7A7D90",
"` 	c #0923EA",
" .	c #0F27E3",
"..	c #0E25D5",
"+.	c #091884",
"@.	c #081573",
"#.	c #0B1DA8",
"$.	c #0C1FAF",
"%.	c #0B1B9B",
"&.	c #0B1C9D",
"*.	c #0A1991",
"=.	c #071899",
"-.	c #797D9C",
";.	c #B7B7B7",
">.	c #BFBEB9",
",.	c #192ECC",
"'.	c #08157D",
").	c #0D23C8",
"!.	c #1028E3",
"~.	c #060F55",
"{.	c #081471",
"].	c #0F28E4",
"^.	c #0E25DA",
"/.	c #0E26DB",
"(.	c #0F29EB",
"_.	c #0E26D6",
":.	c #0E24D0",
"<.	c #0E24D2",
"[.	c #0E25D8",
"}.	c #0F27E5",
"|.	c #3645BD",
"1.	c #BCBCBA",
"2.	c #4D57AD",
"3.	c #0E28ED",
"4.	c #071268",
"5.	c #0E1781",
"6.	c #0A1CA2",
"7.	c #0D22BE",
"8.	c #0E26DF",
"9.	c #0E27DD",
"0.	c #0D24CD",
"a.	c #0D20B4",
"b.	c #041490",
"c.	c #AAAAAC",
"d.	c #A3A29E",
"e.	c #031DE0",
"f.	c #0F28EC",
"g.	c #081678",
"h.	c #071267",
"i.	c #081472",
"j.	c #0B1DA4",
"k.	c #0C21BC",
"l.	c #0A198E",
"m.	c #0D27EA",
"n.	c #3E4AA7",
"o.	c #C1C0BB",
"p.	c #3946AB",
"q.	c #0B1DA9",
"r.	c #0A1992",
"s.	c #08136F",
"t.	c #0C1DA5",
"u.	c #0A1995",
"v.	c #0F25D4",
"w.	c #121F8A",
"x.	c #B4B4B4",
"y.	c #B6B6B6",
"z.	c #7E7F83",
"A.	c #08136D",
"B.	c #071160",
"C.	c #0E23C6",
"D.	c #0A1997",
"E.	c #09158D",
"F.	c #092562",
"G.	c #09344E",
"H.	c #0A334B",
"I.	c #09197C",
"J.	c #0A1897",
"K.	c #081892",
"L.	c #7C7D8A",
"M.	c #091887",
"N.	c #06105B",
"O.	c #0F28E6",
"P.	c #0E23D6",
"Q.	c #091188",
"R.	c #0C513F",
"S.	c #108F16",
"T.	c #12A308",
"U.	c #13AA07",
"V.	c #13A908",
"W.	c #13AB09",
"X.	c #15B508",
"Y.	c #14AE15",
"Z.	c #138A42",
"`.	c #0C1EAB",
" +	c #0A1C9B",
".+	c #061483",
"++	c #081470",
"@+	c #07115F",
"#+	c #0A1C99",
"$+	c #0A1C9D",
"%+	c #0F27E9",
"&+	c #0E24DB",
"*+	c #0C5A33",
"=+	c #13A403",
"-+	c #14B10A",
";+	c #15B70C",
">+	c #17C90D",
",+	c #19DD0F",
"'+	c #1AEE10",
")+	c #1CF310",
"!+	c #1BF510",
"~+	c #1CFB0B",
"{+	c #0C415C",
"]+	c #0B1B9A",
"^+	c #0F27E1",
"/+	c #0A1C9C",
"(+	c #050E53",
"_+	c #0A1B95",
":+	c #0C1EA9",
"<+	c #0C3F80",
"[+	c #129F03",
"}+	c #14AD0B",
"|+	c #18D00E",
"1+	c #1BF310",
"2+	c #1BF110",
"3+	c #14A824",
"4+	c #0A139C",
"5+	c #0F26DF",
"6+	c #081166",
"7+	c #020725",
"8+	c #0A198B",
"9+	c #0C1FB4",
"0+	c #0F26E3",
"a+	c #118624",
"b+	c #15BA0B",
"c+	c #1AE610",
"d+	c #1BF010",
"e+	c #1BF210",
"f+	c #19E209",
"g+	c #0A1F7D",
"h+	c #0A1A96",
"i+	c #060F56",
"j+	c #0E25D3",
"k+	c #0C1EA7",
"l+	c #118B19",
"m+	c #19DA0E",
"n+	c #1CF70F",
"o+	c #16C811",
"p+	c #0A237B",
"q+	c #0A1996",
"r+	c #0C1EAC",
"s+	c #061266",
"t+	c #061058",
"u+	c #0D23CA",
"v+	c #0C4C42",
"w+	c #19E10F",
"x+	c #1BF60E",
"y+	c #19E311",
"z+	c #128933",
"A+	c #090B9A",
"B+	c #091781",
"C+	c #0A1A97",
"D+	c #071263",
"E+	c #0B1B95",
"F+	c #0F27DD",
"G+	c #0D22C2",
"H+	c #0F6849",
"I+	c #1BF410",
"J+	c #1BF311",
"K+	c #1AE40F",
"L+	c #0C5742",
"M+	c #0A1890",
"N+	c #0B1B98",
"O+	c #08136B",
"P+	c #0B1C9F",
"Q+	c #0E25D6",
"R+	c #0D20BA",
"S+	c #0B1B9C",
"T+	c #091A8A",
"U+	c #12A110",
"V+	c #1BF805",
"W+	c #1BF402",
"X+	c #18D409",
"Y+	c #139634",
"Z+	c #105392",
"`+	c #0F3DB3",
" @	c #0B1EAE",
".@	c #0C1EB4",
"+@	c #0C1EAA",
"@@	c #0B1DA5",
"#@	c #0C1FB2",
"$@	c #0D24CF",
"%@	c #081577",
"&@	c #071573",
"*@	c #08136C",
"=@	c #0D23C6",
"-@	c #0B1B97",
";@	c #0A14A1",
">@	c #0B1BB9",
",@	c #0D1DDC",
"'@	c #0D1BE5",
")@	c #0E21E8",
"!@	c #0E26DC",
"~@	c #09188D",
"{@	c #071369",
"]@	c #0D24D1",
"^@	c #0F26DB",
"/@	c #091888",
"(@	c #061057",
"_@	c #050E4C",
":@	c #0A1A8D",
"<@	c #0A1B96",
"[@	c #0C1EAF",
"}@	c #0F28E5",
"|@	c #0C20B1",
"1@	c #07115E",
"2@	c #081575",
"3@	c #0E26D9",
"4@	c #0F26DA",
"5@	c #0E24CC",
"6@	c #0D21BD",
"7@	c #0D1FB3",
"8@	c #0C1FB0",
"9@	c #0D21B9",
"0@	c #0F27E2",
"a@	c #0F27E8",
"b@	c #0F26D4",
"c@	c #0B1EA8",
"d@	c #0C1DA6",
"e@	c #0C22C0",
"f@	c #0B1EA9",
"g@	c #08177D",
"h@	c #061159",
"i@	c #081572",
"j@	c #0F29F1",
"k@	c #0F29F0",
"l@	c #0F2AF1",
"m@	c #0F27DE",
"n@	c #0C20B9",
"o@	c #0E22C1",
"p@	c #0B1DA3",
"q@	c #0D22C4",
"r@	c #091889",
"s@	c #09167D",
"t@	c #081579",
"u@	c #08136A",
"v@	c #050F54",
"w@	c #0A1B9B",
"x@	c #0A1B9A",
"y@	c #071370",
"z@	c #112AED",
"A@	c #0A1B94",
"B@	c #050F52",
"C@	c #050E4F",
"D@	c #08146F",
"E@	c #07136F",
"F@	c #09198D",
"G@	c #081476",
"H@	c #0D24CE",
"I@	c #05105C",
"J@	c #0C1EA8",
"K@	c #08157A",
"L@	c #0A1B9E",
"M@	c #0D22C6",
"N@	c #0B1EAB",
"O@	c #08167E",
"P@	c #061162",
"Q@	c #07136A",
"R@	c #061163",
"                                                        . +                                         ",
"                                                      @ # # $                                       ",
"                                                    % & & & *                                       ",
"                                                = & & & & & #                                       ",
"                                              - * & & & & & *                                       ",
"                                              % & & & & & & #                                       ",
"                                            # & & & & & & & &                                       ",
"                                          ; & & & & & > , ' ) !                                     ",
"                                        ~ { & & ] ^ / ( _ : < [                                     ",
"                                        $ % * } < _ | 1 2 3 , & #                                   ",
"                                      4 5 6 7 8 9 0 { & & & & a b                                   ",
"                                      c d _ e f { % & & & % g h i j                                 ",
"                                      i | k l & & & & & % g m 7 n >                                 ",
"                                    o < * & & & & & & l p h q r & & &                               ",
"                                    s % & & & & & & 5 t u v * & & & &                               ",
"                                  w % & & & & & & & x _ 2 > & & & & & >                             ",
"                                  y & & & & & & , z 8 A l & & & # & B B C   D                       ",
"                                E * & & & & & % ! m F % & & * G H I w & , & & & & J K L M N         ",
"                                $ & & & & & & O _ P % Q R S T U V u & & & & & & & W X Y Z ` h       ",
"                                & & & & & & #  ...+.@.w #.$.% %.: h &.5 l l l l *.=.-.;.>.,.h       ",
"                              '.& & & & & , ).!.~.{.].^.& & & > /.h (._.x :.<.[.}.u |.1.;.2.3.      ",
"                              * & & & & # 0 4.5.6.8 [ & & & & & { 7.8.u : h 9.0.a.a b.c.;.d.e.f.    ",
"                            g.& & & * U h.i.r j.m k., & & & & & & , l.& # ] > 5 l.F m.n.;.o.p.q.    ",
"                            r.& # ] s.E { % t.i ! ] & # u.u.# & & & & & & & % { v.m o w.x.y.z.      ",
"                          I & # A.B.# & & j.8 C.l D.E.F.G.H.I.J.& & & & & & &.8 8 a & K.L.          ",
"                          # M.N.M.* & & ' O.P.Q.R.S.T.U.V.W.X.Y.Z.& & & % `.|  . +% & & .+          ",
"                        *.++@+#+& & % $+%+&+*+=+-+;+>+,+'+)+!+~+{+& & & ]+8 ^+/+& & & #             ",
"                      D (+_+& & & # :+| <+[+}+|+1+1+2+2+2+2+2+3+4+& & l 5+m j.& & & _+6+            ",
"                    7+8+# & & l.9+O.0+a+b+c+d+e+2+2+2+2+2+2+f+g+& & & j.i | , & & h+                ",
"                  i+% & > a P h j+k+l+m+1+2+2+2+2+2+2+2+n+o+p+q+& & & ]+_ m r+* 4 s+                ",
"                t+# % &.z (.u+{ % v+w+2+2+2+2+2+2+2+x+y+z+A+& & & & & l k _ <.{.B+C+                ",
"              D+& E+F+h G+* & & # H+I+2+2+2+2+2+J+K+L+M+& & & & & & & % N+++M.& & &                 ",
"            O+P+Q+h R+S+% & & & & T+U+V+W+X+Y+Z+`+ @.@$.+@' @@#@k.$@<.%@&@l.# & & & &               ",
"          *@=@: G+-@, & & & & & & l ;@>@,@'@)@8.F+}.8 |  .O.O.!@O ~@{@# # & & & & & &               ",
"        - O.j % & & & & & & % * $+]@m ^@$.l.] ] ] > l.] l./@(@_@:@* & & & % % % # <@a               ",
"        m [@& & & & & & > ]+0.O.}@|@<@& & & & & & h+r 1@2@3@4@5@6@7@8@$.s 9@$@3@0@}.h a@            ",
"      b@c@% & % , l.d@e@ .h 7.f@, % & & # { Q g@h@*@i@P+8@o v 0@: j@k@l@j@k@: u m m@x n@            ",
"      o@S+&.p@$.q@h }.:.0 ] % & * * r@s@t@u@v@2@]+* & & & % , $ l <@w@x@a N+# , l l.l %             ",
"      y@z@8  .j ! S+, & & A@# U B@C@D@h+# & & & & & & & & & & & & & & & & & & & & & % @@9           ",
"                                  E@y@F@h+# & & & & & & & & & & & & & & & & & & ] 8@!@h a           ",
"                                          G@r@* # & & & & & & & & & & & & % l.$.j+k@H@* & %         ",
"                                                R , # & & & & & & & % & ]+s e i N p@l & & #         ",
"                                                    I@R h+& & % l N+n < | m ^+J@# & & & & & &       ",
"                                                          K@o 3@^+u : (.P p@, % & & & & & & & &     ",
"                                                              L@z M@N@% , & & & & & & & & & & &     ",
"                                                                    O@* % & & & & & & & & & & %     ",
"                                                                            P@%@w r@R g.*@Q@R@      ",
"                                                                                                    ",
"                                                                                                    ",
"                                                                                                    "};
