/* XPM */
static char * blueship13_xpm[] = {
"50 50 352 2",
"  	c None",
". 	c #0A1990",
"+ 	c #0A1A93",
"@ 	c #091888",
"# 	c #0F28E5",
"$ 	c #0F28E7",
"% 	c #0D28EF",
"& 	c #091ECC",
"* 	c #0A1A91",
"= 	c #0E26DD",
"- 	c #0F28EB",
"; 	c #0B25E6",
"> 	c #1D32D4",
", 	c #4E57A3",
"' 	c #AEADA2",
") 	c #B3B3B3",
"! 	c #0A1A94",
"~ 	c #0F28E3",
"{ 	c #1C2DB5",
"] 	c #898993",
"^ 	c #BABAB9",
"/ 	c #B7B7B7",
"( 	c #969695",
"_ 	c #061059",
": 	c #9A9BA7",
"< 	c #B8B8B4",
"[ 	c #B8B8B8",
"} 	c #C1C0BB",
"| 	c #9B9CA2",
"1 	c #353C7F",
"2 	c #111F8C",
"3 	c #0A198C",
"4 	c #0B1DA2",
"5 	c #0A1A92",
"6 	c #0E24CC",
"7 	c #0D22C5",
"8 	c #0A198F",
"9 	c #06105A",
"0 	c #A7A7A7",
"a 	c #BDBDBC",
"b 	c #B5B5B2",
"c 	c #767CB0",
"d 	c #2A3592",
"e 	c #061FE2",
"f 	c #0A1B9D",
"g 	c #09188A",
"h 	c #0C1FB2",
"i 	c #0F28E9",
"j 	c #0D21BB",
"k 	c #0B1B98",
"l 	c #0F28EA",
"m 	c #0C1EAB",
"n 	c #081572",
"o 	c #85878F",
"p 	c #5D6083",
"q 	c #021186",
"r 	c #0D27ED",
"s 	c #0B1C9B",
"t 	c #0D23C6",
"u 	c #0F28E2",
"v 	c #08167B",
"w 	c #08146E",
"x 	c #09198B",
"y 	c #0A1B9B",
"z 	c #0E25D3",
"A 	c #0D25D1",
"B 	c #0F28E6",
"C 	c #0A1A90",
"D 	c #08167D",
"E 	c #0F28E8",
"F 	c #0B1EAB",
"G 	c #0A1B95",
"H 	c #0F28EC",
"I 	c #0E24D3",
"J 	c #0A1A95",
"K 	c #060F55",
"L 	c #0A1B99",
"M 	c #0A1B96",
"N 	c #0F27E1",
"O 	c #0A198D",
"P 	c #0A1A96",
"Q 	c #0D22C8",
"R 	c #081577",
"S 	c #0D22C1",
"T 	c #0B1EA4",
"U 	c #061055",
"V 	c #0F27E4",
"W 	c #0F27E5",
"X 	c #0E23CB",
"Y 	c #0F27E2",
"Z 	c #0B1A93",
"` 	c #08136B",
" .	c #06105B",
"..	c #0F25D8",
"+.	c #0E24D4",
"@.	c #0D21BD",
"#.	c #0F29EC",
"$.	c #0E24CB",
"%.	c #0B1B9A",
"&.	c #0C20B7",
"*.	c #0F29EB",
"=.	c #0A1B9A",
"-.	c #0F29ED",
";.	c #0D22C2",
">.	c #061056",
",.	c #050D4D",
"'.	c #0E25D6",
").	c #0F27E6",
"!.	c #0C21BC",
"~.	c #07115E",
"{.	c #0F29EE",
"].	c #0E23C8",
"^.	c #040936",
"/.	c #0E25D4",
"(.	c #0A1A8F",
"_.	c #0C1FB3",
":.	c #0E26DA",
"<.	c #0B1B97",
"[.	c #091786",
"}.	c #0D22BE",
"|.	c #0F29F0",
"1.	c #0B1EAA",
"2.	c #0C1EA6",
"3.	c #091889",
"4.	c #091887",
"5.	c #0E25D5",
"6.	c #0B1CA0",
"7.	c #0C1FB0",
"8.	c #071267",
"9.	c #0A1B98",
"0.	c #0D21BA",
"a.	c #0F29EF",
"b.	c #09198E",
"c.	c #0A1991",
"d.	c #091785",
"e.	c #0F26DF",
"f.	c #0A198E",
"g.	c #0B1CA7",
"h.	c #09177F",
"i.	c #0A1B93",
"j.	c #091783",
"k.	c #0D22C0",
"l.	c #0E25D7",
"m.	c #0E23C9",
"n.	c #0F27E0",
"o.	c #081473",
"p.	c #0D20BA",
"q.	c #0C1FAF",
"r.	c #0E26DE",
"s.	c #0B1EA7",
"t.	c #071263",
"u.	c #102AF3",
"v.	c #0F2AEE",
"w.	c #0B1DA1",
"x.	c #0E4B58",
"y.	c #080E91",
"z.	c #0D24CB",
"A.	c #0A1A97",
"B.	c #0E22C6",
"C.	c #0A1A8E",
"D.	c #0C1FB1",
"E.	c #0C20BA",
"F.	c #0D22C3",
"G.	c #0C1FAC",
"H.	c #0B1DA9",
"I.	c #0C20B5",
"J.	c #0A1798",
"K.	c #15B51D",
"L.	c #18D711",
"M.	c #0F6350",
"N.	c #0A1595",
"O.	c #0D21C3",
"P.	c #071367",
"Q.	c #0B1B9E",
"R.	c #0C1EAD",
"S.	c #0F27DE",
"T.	c #0D22C4",
"U.	c #0A1C9A",
"V.	c #081470",
"W.	c #091684",
"X.	c #15BD07",
"Y.	c #1BF410",
"Z.	c #1BF60F",
"`.	c #118924",
" +	c #0A1892",
".+	c #040D48",
"++	c #0F27DF",
"@+	c #0E24CE",
"#+	c #0B1CA4",
"$+	c #0D20B8",
"%+	c #091781",
"&+	c #0A394B",
"*+	c #14B109",
"=+	c #1CF610",
"-+	c #1BF110",
";+	c #1BF210",
">+	c #118630",
",+	c #0A179A",
"'+	c #0F27E3",
")+	c #07136A",
"!+	c #0C1EAA",
"~+	c #081573",
"{+	c #0A1994",
"]+	c #0B4741",
"^+	c #13AB09",
"/+	c #1CF410",
"(+	c #1BF60C",
"_+	c #0D4557",
":+	c #0E26DC",
"<+	c #0B1DA6",
"[+	c #09198D",
"}+	c #0E26D7",
"|+	c #0B1DA4",
"1+	c #081474",
"2+	c #09304C",
"3+	c #13AB08",
"4+	c #1AE60F",
"5+	c #1BF010",
"6+	c #18D517",
"7+	c #0A1995",
"8+	c #0C21B7",
"9+	c #0B1DA5",
"0+	c #091782",
"a+	c #0B1FB2",
"b+	c #0B1C9D",
"c+	c #0B1CA2",
"d+	c #071471",
"e+	c #0B1FAD",
"f+	c #081381",
"g+	c #13AA05",
"h+	c #18D00E",
"i+	c #1BF30D",
"j+	c #09266D",
"k+	c #0C20BC",
"l+	c #0F28E4",
"m+	c #09167E",
"n+	c #050C44",
"o+	c #0C1EAC",
"p+	c #0A1B97",
"q+	c #0A1497",
"r+	c #11990B",
"s+	c #15BE0C",
"t+	c #1BF310",
"u+	c #15B615",
"v+	c #0C1CBD",
"w+	c #09157A",
"x+	c #07136B",
"y+	c #0E25D8",
"z+	c #0D22BF",
"A+	c #050D44",
"B+	c #0D21B8",
"C+	c #0B1EAF",
"D+	c #0E6830",
"E+	c #14B10C",
"F+	c #1BF50F",
"G+	c #0E30BE",
"H+	c #071059",
"I+	c #081472",
"J+	c #0C20B3",
"K+	c #0C20BB",
"L+	c #0B1780",
"M+	c #0C1FB5",
"N+	c #09216D",
"O+	c #14AE05",
"P+	c #19E410",
"Q+	c #0F41B5",
"R+	c #061160",
"S+	c #0C22BF",
"T+	c #0C1BBA",
"U+	c #0E7618",
"V+	c #14B30C",
"W+	c #127C57",
"X+	c #0E23DE",
"Y+	c #091885",
"Z+	c #0D23C9",
"`+	c #0C21B9",
" @	c #0D2BBC",
".@	c #14AF06",
"+@	c #1AEC10",
"@@	c #14AB1F",
"#@	c #0E1EE6",
"$@	c #071262",
"%@	c #081475",
"&@	c #081575",
"*@	c #0F26F1",
"=@	c #0D5B46",
"-@	c #17CF0B",
";@	c #19E502",
">@	c #0E1AEC",
",@	c #0B1B99",
"'@	c #0B1EA9",
")@	c #0D23C7",
"!@	c #08167A",
"~@	c #0F27E9",
"{@	c #129216",
"]@	c #1AE80F",
"^@	c #1AEE02",
"/@	c #0D1AD4",
"(@	c #0E24CD",
"_@	c #081576",
":@	c #0A198B",
"<@	c #081784",
"[@	c #060F54",
"}@	c #0C21BB",
"|@	c #0C23BE",
"1@	c #14AC07",
"2@	c #15B40D",
"3@	c #0B14AF",
"4@	c #081579",
"5@	c #07105B",
"6@	c #08167E",
"7@	c #09198C",
"8@	c #081780",
"9@	c #0B288D",
"0@	c #0D6D17",
"a@	c #118C25",
"b@	c #0A2280",
"c@	c #061057",
"d@	c #09167D",
"e@	c #060E50",
"f@	c #0A169B",
"g@	c #0A159A",
"h@	c #0C1FAE",
"i@	c #050C46",
"j@	c #071265",
"k@	c #0F29E9",
"l@	c #0B1C9C",
"m@	c #071162",
"n@	c #08146F",
"o@	c #0E24D0",
"p@	c #0D20B9",
"q@	c #0E26D9",
"r@	c #07136C",
"s@	c #071470",
"t@	c #040A3C",
"u@	c #071264",
"v@	c #0C1DA6",
"w@	c #0F26E0",
"x@	c #0C20B4",
"y@	c #0E26D8",
"z@	c #0C1EA8",
"A@	c #091886",
"B@	c #0C21BE",
"C@	c #09167F",
"D@	c #0D23C8",
"E@	c #0B1CA1",
"F@	c #1028E0",
"G@	c #1027DD",
"H@	c #101A6F",
"I@	c #1029EA",
"J@	c #0C20B8",
"K@	c #071266",
"                                                                                                    ",
"                                                                                                    ",
"                                                                                      . + @         ",
"                                      # $ % &                                       * + + +         ",
"                                  = - ; > , ' )                                   + + + + !         ",
"                                  ~ { ] ^ / / / (                             ! + + + + + ! _       ",
"                                  : < [ / } | 1 2 + 3                   4 5 6 7 8 + + + + ! 9       ",
"                                  0 a b c d e f + + ! g           8 h i j 5 k l m + + + + ! n       ",
"                                  o p q r s t u ! + + + v w x ! + + y $ z 8 + A B C + + + + D       ",
"                                  * + ! E F G H I * + + J K L + + + M B N O + P $ Q + + + + R       ",
"                                  ! + 5 N S . T l 6 8 + + . U + + + + V W O + 5 X Y Z + + ! `       ",
"                                 .! + * ..+.8 5 @.#.$.* * %.&.J + + 5 = *.8 + + =.-.;.5 + ! >.      ",
"                                ,.! + * '.~ O + 5 6 l ).!.W ).~.! + 5 X {.* + + C ].i P + +         ",
"                                ^.* + * /.- (.+ + + _.#.i i :.<.[.+ 5 }.|.P + + + 1.E 2.+ 8         ",
"                              3.O 4.+ * 5.-.C + + + * 6.!.7.5 + 8.9.5 0.a.+ + + + M l :.8 b.        ",
"                          c.! + + d.5 + $ e.f.+ + + + + 5 + + + g.h.5 0.|.i.+ + + * /.{.9.j.        ",
"                        5 + + + 5 j.k.l.E m.C + + + + + + + + + n.o.+ p.a.5 + + + 5 1.#.q.          ",
"                    r.l s.+ + + + t.u.i v.w.+ + ! x.y.! + + + + z.A.=.B.- C.+ + + + P E D.          ",
"              E.F.+ G.#.V ! + + + R H.I.%.5 + + J.K.L.M.N.+ + + @.O.P.+.= f.+ + + + + V Q.          ",
"      C . 5 + R.S.+ 8 T.i z.5 + + U.V.+ + + + + W.X.Y.Z.`. ++ + D.r..+++@+. + + + + + /.            ",
"  ! + + + + + #+E J + 5 I i $+5 + J %+M + + + ! &+*+=+-+;+>+,++ H.r.h.'+D.+ + + + + + )+            ",
"R + + + + + + M |.h 5 + ! N l !++ + ~+t * + + {+]+^+/+-+-+(+_++ 7.:+x F <++ + + + + !               ",
"  [++ + + + + 8 :.}+C + + 5 n.B |+5 9.1+S * + ! 2+3+4+-+-+5+6+7+8+e.* K 9++ + + + + 0+              ",
"    c.+ + + + 5 a+- b++ + + A.Y l c+J d+$ e+5 + f+g+h+-+-+-+i+j+k+l+8 m+0++ + + + !                 ",
"    n+! + + + + y $ o++ + + + 9.E i o+d.p+#.9++ q+r+s+-+-+-+t+u+v+Y f.p+w++ + + + O                 ",
"      x+p++ + + + Y e.* + + + + J y+#.z+A+B+#.C+! D+E+Y.-+-+-+F+G+l.* + H+L + + + j.                ",
"        I+! + + 5 e+{.J++ + + + + (.T.l K+L+M+#.e+N+O+P+-+-+-+-+Q+l.* + R+8 + + J                   ",
"          ~.5 + + C N '.5 + + + + + 5 U.V R ! S+- T+U+V+;+-+-+-+W+X+* + O R++ + Y+                  ",
"              @ + + Z+*.1.+ + + + + + + ! J+I+5 `+-  @.@+@-+-+-+@@#@(.+ =.$@+ ! %@                  ",
"                &@! * # $ ! + + + + + + + M t.J C D.*@=@-@t+-+-+;@>@,@+ J V.! M                     ",
"                    j.'@*.)@* + + + + + + + !@Y++ * q.~@{@]@-+-+^@/@(@+ + _@p+:@                    ",
"                        <@# |++ + + + + + + p+[@5 + 5 }@|@1@;+-+2@3@'+! + 4@* 5@                    ",
"                              6@G + + + + + + 7@8@! + G l 9@0@a@b@* '+b++ 5 c@                      ",
"                                  d@8 ! + + + ! e@* + + m.T.f@g@+ 5 h@5.C p+i@                      ",
"                                      &@8 + + + 9.j@J + + k@8 + + + p+i l@J )+                      ",
"                                          m@f.! + n@_@+ * o@p@+ + + + N G.+ O                       ",
"                                                4.=.j@A.+ F V * + + + F q@f.C                       ",
"                                                  r@j.` ! . e.R.5 + + 5 -.l@c.                      ",
"                                                      s@3.+ |+B M + + + z @.c.                      ",
"                                                        t@9.! i !++ + + $+y+8                       ",
"                                                          u@P v@n.5 + + 5 -.8                       ",
"                                                            _@5 w@x@+ + 8 y@z@                      ",
"                                                              A@h@W 8 + 5 B@)@                      ",
"                                                                C@'.D@+ + R.l.                      ",
"                                                                  A@H E@5 9+F@                      ",
"                                                                    + i =.|+G@                      ",
"                                                                      H@I@J@K@                      ",
"                                                                                                    ",
"                                                                                                    ",
"                                                                                                    "};
