/* XPM */
static char * blueship06_xpm[] = {
"50 50 362 2",
"  	c None",
". 	c #0A1A93",
"+ 	c #1225B5",
"@ 	c #0A1351",
"# 	c #0B1DA4",
"$ 	c #0B1C9B",
"% 	c #0C1FB1",
"& 	c #0F28E7",
"* 	c #0E25D5",
"= 	c #091888",
"- 	c #040B3F",
"; 	c #1126C3",
"> 	c #0B1DA5",
", 	c #0A1A91",
"' 	c #0A1A95",
") 	c #0D21C0",
"! 	c #0F28EC",
"~ 	c #0C20B6",
"{ 	c #091680",
"] 	c #07136C",
"^ 	c #0C1766",
"/ 	c #0F26DF",
"( 	c #0A1A92",
"_ 	c #0B1DA3",
": 	c #0F28E8",
"< 	c #0C21C0",
"[ 	c #0A1A94",
"} 	c #09188C",
"| 	c #061059",
"1 	c #0E26DE",
"2 	c #0C20B4",
"3 	c #0E27E4",
"4 	c #020623",
"5 	c #050E4E",
"6 	c #0B1B9A",
"7 	c #0F29EC",
"8 	c #0B1A98",
"9 	c #0E24D3",
"0 	c #0F27E2",
"a 	c #0B1A95",
"b 	c #081472",
"c 	c #071266",
"d 	c #0A198F",
"e 	c #0A198E",
"f 	c #091784",
"g 	c #0A188B",
"h 	c #091884",
"i 	c #08167C",
"j 	c #09167F",
"k 	c #081882",
"l 	c #081473",
"m 	c #061267",
"n 	c #091576",
"o 	c #08136C",
"p 	c #0B1FB3",
"q 	c #0B1CA2",
"r 	c #09188A",
"s 	c #09157B",
"t 	c #081471",
"u 	c #061162",
"v 	c #050F56",
"w 	c #0D22C5",
"x 	c #0F26E0",
"y 	c #0A1A90",
"z 	c #0D22C6",
"A 	c #0F27E0",
"B 	c #0B1C9F",
"C 	c #0A1A96",
"D 	c #09177F",
"E 	c #071061",
"F 	c #0C1EAF",
"G 	c #0F28EA",
"H 	c #0F29ED",
"I 	c #0C23C7",
"J 	c #09198D",
"K 	c #081579",
"L 	c #091886",
"M 	c #0E24D1",
"N 	c #0E25D8",
"O 	c #0D21BF",
"P 	c #0F28E9",
"Q 	c #0B1C9D",
"R 	c #0A1B97",
"S 	c #050E52",
"T 	c #091783",
"U 	c #0A1B96",
"V 	c #0E26DB",
"W 	c #0F27DD",
"X 	c #0A1A98",
"Y 	c #060F59",
"Z 	c #081475",
"` 	c #0A1B95",
" .	c #0F27E3",
"..	c #0D22C2",
"+.	c #0B1DA6",
"@.	c #0B1C9E",
"#.	c #081577",
"$.	c #07115B",
"%.	c #0C22BF",
"&.	c #0F28E1",
"*.	c #0A1A8C",
"=.	c #0F29E9",
"-.	c #0C21B9",
";.	c #0C1EAA",
">.	c #060E50",
",.	c #0A1B94",
"'.	c #0C1EAC",
").	c #0F29EE",
"!.	c #0E27E1",
"~.	c #09198A",
"{.	c #071264",
"].	c #0F28E6",
"^.	c #0C20B2",
"/.	c #0A1798",
"(.	c #0C1BB7",
"_.	c #0F29F2",
":.	c #0C1EAE",
"<.	c #07105C",
"[.	c #0B1EA8",
"}.	c #0C1EA9",
"|.	c #0A1C8D",
"1.	c #0C562B",
"2.	c #0E6D15",
"3.	c #0C3A88",
"4.	c #0F2AE2",
"5.	c #0C20B7",
"6.	c #0A1B98",
"7.	c #071265",
"8.	c #0A1B9A",
"9.	c #0B1B97",
"0.	c #0E24D2",
"a.	c #040B3B",
"b.	c #0B1EA5",
"c.	c #0A1599",
"d.	c #0F7D25",
"e.	c #1BF210",
"f.	c #1BF110",
"g.	c #17CD0D",
"h.	c #129913",
"i.	c #0D24BC",
"j.	c #0D24D3",
"k.	c #0B21BE",
"l.	c #0F26E1",
"m.	c #0D23C5",
"n.	c #0C1EAB",
"o.	c #0D23C8",
"p.	c #050D47",
"q.	c #09177E",
"r.	c #0C1EA8",
"s.	c #0B14A8",
"t.	c #15B70C",
"u.	c #1BF310",
"v.	c #1AE50F",
"w.	c #13A903",
"x.	c #0E4B72",
"y.	c #0E20EE",
"z.	c #0F29F0",
"A.	c #0F27E1",
"B.	c #0F157A",
"C.	c #0E24CE",
"D.	c #0F29EA",
"E.	c #0D23CB",
"F.	c #0B1C9C",
"G.	c #06115D",
"H.	c #0A188A",
"I.	c #0C1FAF",
"J.	c #0F27F3",
"K.	c #0F6262",
"L.	c #1BF10F",
"M.	c #1AE60F",
"N.	c #14B205",
"O.	c #0E7318",
"P.	c #0A1897",
"Q.	c #0A1A8F",
"R.	c #07115E",
"S.	c #0B1B93",
"T.	c #0D23CF",
"U.	c #0F28E5",
"V.	c #0F29EF",
"W.	c #0E25D7",
"X.	c #0C22C2",
"Y.	c #07105F",
"Z.	c #0D21BB",
"`.	c #0F2DDD",
" +	c #1BE715",
".+	c #14AA0B",
"++	c #108410",
"@+	c #0A198D",
"#+	c #0B1CA0",
"$+	c #0E25D3",
"%+	c #0F28EB",
"&+	c #0C20BA",
"*+	c #06105B",
"=+	c #0D21BA",
"-+	c #0F27E6",
";+	c #0C1FB4",
">+	c #060F57",
",+	c #0E22C7",
"'+	c #0C3594",
")+	c #1CF709",
"!+	c #13A70B",
"~+	c #0F8215",
"{+	c #09138F",
"]+	c #0A1C9A",
"^+	c #081677",
"/+	c #0D22BF",
"(+	c #0A1B99",
"_+	c #091782",
":+	c #0F26ED",
"<+	c #128354",
"[+	c #1CFA0E",
"}+	c #19D90F",
"|+	c #13AC0A",
"1+	c #0D5C38",
"2+	c #0A1998",
"3+	c #0B1DA8",
"4+	c #0B1EAA",
"5+	c #081578",
"6+	c #0A1B9B",
"7+	c #0E24CB",
"8+	c #0C21BA",
"9+	c #0A198B",
"0+	c #050D49",
"a+	c #0F26DC",
"b+	c #0D19E0",
"c+	c #16C50F",
"d+	c #15BC0C",
"e+	c #13AE03",
"f+	c #091D6E",
"g+	c #09167E",
"h+	c #0C21BB",
"i+	c #0F27E7",
"j+	c #061157",
"k+	c #1029EE",
"l+	c #091B84",
"m+	c #19DF0D",
"n+	c #14AF0B",
"o+	c #10801E",
"p+	c #07136F",
"q+	c #0A1990",
"r+	c #0A1989",
"s+	c #071161",
"t+	c #0C20BB",
"u+	c #0A2086",
"v+	c #19D710",
"w+	c #18D30E",
"x+	c #129C0F",
"y+	c #0A1B93",
"z+	c #0E24D4",
"A+	c #09198B",
"B+	c #0A1991",
"C+	c #091785",
"D+	c #071470",
"E+	c #0E26D9",
"F+	c #091881",
"G+	c #139B2B",
"H+	c #1CFE0B",
"I+	c #14B00B",
"J+	c #0A1B87",
"K+	c #0E25D4",
"L+	c #07115F",
"M+	c #091989",
"N+	c #0A1499",
"O+	c #0A3B55",
"P+	c #17CA1B",
"Q+	c #1AE611",
"R+	c #1BF10E",
"S+	c #1BEB0D",
"T+	c #092379",
"U+	c #081573",
"V+	c #091780",
"W+	c #0E24D0",
"X+	c #0A1B8F",
"Y+	c #0A217B",
"Z+	c #0B3A63",
"`+	c #0F2475",
" @	c #0F25D8",
".@	c #081369",
"+@	c #09167D",
"@@	c #0A1995",
"#@	c #0C1FB5",
"$@	c #0B1EAB",
"%@	c #06105C",
"&@	c #071473",
"*@	c #0F27E5",
"=@	c #0D22C4",
"-@	c #0D21BE",
";@	c #08167E",
">@	c #050E4D",
",@	c #0C20B1",
"'@	c #06105A",
")@	c #0D23CA",
"!@	c #0E27DD",
"~@	c #0E23CA",
"{@	c #0B1CA4",
"]@	c #0D23C7",
"^@	c #0C1EAD",
"/@	c #0E26D5",
"(@	c #0E27DF",
"_@	c #0A1C9B",
":@	c #081996",
"<@	c #202A7D",
"[@	c #0B1FB7",
"}@	c #0E27E0",
"|@	c #0A198C",
"1@	c #0F29EB",
"2@	c #0F27E4",
"3@	c #0B1DA1",
"4@	c #0C20B9",
"5@	c #0F27DE",
"6@	c #0D25D9",
"7@	c #263081",
"8@	c #BEBDB5",
"9@	c #999999",
"0@	c #0B1EAC",
"a@	c #0D21C1",
"b@	c #0F26DB",
"c@	c #0C22C0",
"d@	c #1D2EAD",
"e@	c #B8B8B6",
"f@	c #B7B7B7",
"g@	c #B9B9BA",
"h@	c #0E25D0",
"i@	c #0C1FAE",
"j@	c #0A198A",
"k@	c #0B1B9C",
"l@	c #0B1DA2",
"m@	c #0E26E6",
"n@	c #B2B2B2",
"o@	c #BAB9B5",
"p@	c #3742A4",
"q@	c #0A1DAE",
"r@	c #051059",
"s@	c #08157C",
"t@	c #091996",
"u@	c #263083",
"v@	c #B8B7B1",
"w@	c #BCBBB3",
"x@	c #4650A8",
"y@	c #0D28EC",
"z@	c #0E26DC",
"A@	c #071371",
"B@	c #08146F",
"C@	c #242E7E",
"D@	c #BCBBB4",
"E@	c #B9B9B5",
"F@	c #0D28F1",
"G@	c #0D22C0",
"H@	c #A5A5A5",
"I@	c #B9B9B8",
"J@	c #3743A5",
"K@	c #0E27ED",
"L@	c #0B1EAE",
"M@	c #0B20BB",
"N@	c #081781",
"O@	c #0B1EAD",
"P@	c #0E25D6",
"Q@	c #0D23C6",
"R@	c #0E24CD",
"S@	c #061264",
"T@	c #061163",
"U@	c #071578",
"                                                                                                    ",
"                                                                                                    ",
"                                                                                                    ",
"                                                                                                    ",
"          . + @                                                                                     ",
"        # $ % & * = -                                                                               ",
"        ; > , ' ) ! ~ { ]                                                                           ",
"        ^ / ( . ( _ : < [ } |                                                                       ",
"          1 2 . . . [ 3 * ( . . 4 5                                                                 ",
"          6 7 8 . . . [ 9 0 a . [ b c d d e f g h i j k l m n o p q r s t u                         ",
"          v w x y . . . y z A B . C D E . . [ . [ ' [ [ [ C ' ' F G H I ' C ' J i K                 ",
"            L M N ( . . . d O P Q ( . R S T U . . . . . . . . . . C V P W U . . . [ X r Y           ",
"            Z `  ...y . . . ( +.G @.. . . #.$.[ . . . . . . . . . . . %.G &.. . . . . . . *.        ",
"              ' R =.-., . . . ( ;.: q . . ' J >.,.. . . . . . . . . . , '.).!.U . . . . . . [ ~.    ",
"              {.. @.].^.. . . . /.(._.:., . . R <.L ( . . . . . . . . . , [.& A ( . . . . . . . d   ",
"                [ . }.: Q . . |.1.2.3.4.5.R ( . 6.7.@.8.' . ( . . . . . . . 9.& 0.y . . . . . . ,   ",
"                a.' . b.G B c.d.e.f.g.h.i.G j.$ y . T k.G l.m.q y . . . . . . n.).o.. . . . . C     ",
"                p.q.[ ( r.: s.t.f.f.u.v.w.x.y.z.A.... B.j C.D.z.A.E.F.d . . . , -.! @.. . '         ",
"                  G.H.. . I.J.K.L.f.f.f.M.N.O.P.m.A.! ..Q.R.S.n.T.U.V.W.}., ( . d X.0 . .           ",
"                  ' Y.6.. ( Z.`. +f.f.f.f.M..+++@+, #+$+%+&+*+[ . , =+-+G A.# [ . ( V ;+            ",
"                  d ( >+. . , ,+'+)+f.f.f.f.M.!+~+{+. ( ]+C.9 ^+' . ( C /+H P / _ . (+              ",
"                  d . _+= [ . (+:+<+[+f.f.f.e.}+|+1+2+. . y 3+4+5+' . . y 6+7+%+: 8+                ",
"                  9+. ' 0+, . . a+b+c+e.f.f.f.e.d+e+f+. . . . e L g+. . . . , h+i+                  ",
"                  @+. . C j+R . }.k+l+m+f.f.f.f.u.n+o+( . . . . [ p+q+. . . . [                     ",
"                  H.. . . r+s+[ y : t+u+v+u.f.f.f.w+x+y+. . . Q.z+G A+B+. . .                       ",
"                  C+[ . . . q.D+. E.E+, F+G+H+f.f.e.I+J+. . . K+P U.o.L+R [ '                       ",
"                  L . . . . . R M+F.).U . N+O+P+Q+R+S+T+[ . . 0 H F.( = U+q+                        ",
"                  r . . . . . Q R V+W+w ( . . y+X+Y+Z+`+[ . .  @H , . . .@                          ",
"                  { [ . . . . R %++@[ P R . . . . [ @@[ . . . #@).$@. . [ %@                        ",
"                  &@' . . . . [ *@=@| 0.-@y . . . . . . . . . , *@* ( . . g                         ",
"                  ;@[ . . . . ( $+A., >@-+@.. . . . . ( . . . . ..P ` . . ,                         ",
"                  #.' . . . . . ,@z.#+. '@)@y . Q.W+!@~@+.q+. . , P C.( . '                         ",
"                  ..{@. . . . . , ].]@. U t ^@( /@G H V.H (@~ d ( ^@G _@:@<@                        ",
"                  [@A , . . . . ( $+}@y . (+| |@1@2@3@(+4@V 7 5@_ Q.W+6@7@8@9@                      ",
"                  _@).$+. . . . . }.V.}.. . ' o 0@a@. . . , Q b@! c@[ d@e@f@g@                      ",
"                  C+h@: i@( . . . d 0  .[ . . [ j@%@k@. . . . . l@m@d@n@f@o@p@q@                    ",
"                  K (+& : 3@( . . . % P % , . . . Q.r@s@C . . . t@u@v@f@w@x@y@z@                    ",
"                  A@' $ ].7 Q . . . [ : : ' . . . [ [   B@e . [ C@D@f@E@x@F@%+                      ",
"                    C . 6.].A B+. . ( % P G@( . . '               H@I@J@K@%+                        ",
"                    , . . Q P  .Q ( . ' 2@G L@[                       M@].                          ",
"                    N@. . . 6.a+G O@y . % %+*@                                                      ",
"                    g+. . . . ( P@).% ( , Q@                                                        ",
"                      C . . . . . 4+D.R@'                                                           ",
"                      ( . . . . . ( U a@                                                            ",
"                      S@. . . . . . [                                                               ",
"                        ( . . . . '                                                                 ",
"                        T@' . . .                                                                   ",
"                          |@. . [                                                                   ",
"                          U@B+,                                                                     ",
"                                                                                                    "};
