/* XPM */
static char * blueship_xpm[] = {
"50 50 334 2",
"  	c None",
". 	c #091B9A",
"+ 	c #0E1886",
"@ 	c #1223A9",
"# 	c #0C1EAC",
"$ 	c #0C20B8",
"% 	c #0F23BD",
"& 	c #07115D",
"* 	c #0F29ED",
"= 	c #0A1A96",
"- 	c #0A1A92",
"; 	c #0F27E5",
"> 	c #040A38",
", 	c #0A198F",
"' 	c #0F26DF",
") 	c #0A1A93",
"! 	c #0A1990",
"~ 	c #0E25D4",
"{ 	c #0B1CA1",
"] 	c #0E23C8",
"^ 	c #0D23C6",
"/ 	c #0C21BA",
"( 	c #0E24CE",
"_ 	c #081577",
": 	c #0E25D8",
"< 	c #0C1EA7",
"[ 	c #0B1DA7",
"} 	c #0F28E5",
"| 	c #071160",
"1 	c #091887",
"2 	c #0F28E4",
"3 	c #0B1B99",
"4 	c #0B1DA3",
"5 	c #0F28E6",
"6 	c #0B1C9B",
"7 	c #050E4E",
"8 	c #1029F0",
"9 	c #0A198E",
"0 	c #0B1C9E",
"a 	c #0F28E7",
"b 	c #0A1B99",
"c 	c #071265",
"d 	c #0A1A90",
"e 	c #0A198D",
"f 	c #0F28E9",
"g 	c #0B1B98",
"h 	c #0F28E8",
"i 	c #081576",
"j 	c #0B1C9C",
"k 	c #0B1B97",
"l 	c #0B1B9C",
"m 	c #0A1A95",
"n 	c #040936",
"o 	c #0B1C9F",
"p 	c #0F27E4",
"q 	c #0A1B97",
"r 	c #060F53",
"s 	c #060F51",
"t 	c #0B1CA0",
"u 	c #0F26DE",
"v 	c #0A1A91",
"w 	c #0F28EA",
"x 	c #081573",
"y 	c #07115F",
"z 	c #081471",
"A 	c #0C1FAF",
"B 	c #0E26DA",
"C 	c #091782",
"D 	c #081473",
"E 	c #071162",
"F 	c #07136A",
"G 	c #0A1B9A",
"H 	c #0C1FB0",
"I 	c #0E25D2",
"J 	c #0E25D5",
"K 	c #091784",
"L 	c #091785",
"M 	c #060F55",
"N 	c #071268",
"O 	c #0A1B98",
"P 	c #0E26D6",
"Q 	c #0A198C",
"R 	c #08136A",
"S 	c #0A1C91",
"T 	c #0A1B91",
"U 	c #040A36",
"V 	c #091781",
"W 	c #0A1B96",
"X 	c #08146E",
"Y 	c #0A1A94",
"Z 	c #0C20B6",
"` 	c #0E24D7",
" .	c #0A3C52",
"..	c #19D815",
"+.	c #16C614",
"@.	c #0A3D44",
"#.	c #0E26D9",
"$.	c #050D47",
"%.	c #09167D",
"&.	c #081470",
"*.	c #0D22C1",
"=.	c #0D27CC",
"-.	c #1AEE04",
";.	c #1BF110",
">.	c #1CF510",
",.	c #13A109",
"'.	c #0F25ED",
").	c #0D20B4",
"!.	c #0A198B",
"~.	c #081676",
"{.	c #07136C",
"].	c #071367",
"^.	c #0D22C3",
"/.	c #115A93",
"(.	c #1BF50F",
"_.	c #1BF210",
":.	c #18D609",
"<.	c #0C328A",
"[.	c #0D20B6",
"}.	c #0A1A8E",
"|.	c #091780",
"1.	c #081574",
"2.	c #0E26DB",
"3.	c #117161",
"4.	c #19E20D",
"5.	c #0D563C",
"6.	c #0E24D8",
"7.	c #09177C",
"8.	c #071264",
"9.	c #060F54",
"0.	c #0F22F3",
"a.	c #15B128",
"b.	c #19E10F",
"c.	c #129C11",
"d.	c #0F26E8",
"e.	c #081571",
"f.	c #060E52",
"g.	c #0D22C8",
"h.	c #0F21F8",
"i.	c #16BE17",
"j.	c #13A211",
"k.	c #0E26E1",
"l.	c #0D21C0",
"m.	c #08167C",
"n.	c #071266",
"o.	c #0A0DA7",
"p.	c #1BFA07",
"q.	c #13A50C",
"r.	c #0D29B4",
"s.	c #1028EB",
"t.	c #08136B",
"u.	c #081572",
"v.	c #081788",
"w.	c #071267",
"x.	c #0C20BC",
"y.	c #070681",
"z.	c #1CFF09",
"A.	c #0A2281",
"B.	c #0E27DF",
"C.	c #0E23CA",
"D.	c #0A1A99",
"E.	c #0C1EAB",
"F.	c #0B1EAD",
"G.	c #09188B",
"H.	c #0C1FB3",
"I.	c #061161",
"J.	c #0D22BE",
"K.	c #07057E",
"L.	c #19DE0F",
"M.	c #0A2284",
"N.	c #0D22C0",
"O.	c #071474",
"P.	c #0A188D",
"Q.	c #0E24CF",
"R.	c #0F27E3",
"S.	c #0A1C9C",
"T.	c #0F29EC",
"U.	c #061160",
"V.	c #07057F",
"W.	c #18D80E",
"X.	c #13A60C",
"Y.	c #1029EC",
"Z.	c #10115F",
"`.	c #0F2AF1",
" +	c #0F29EF",
".+	c #0E26DC",
"++	c #07136B",
"@+	c #050E4F",
"#+	c #0F27DE",
"$+	c #0F26DC",
"%+	c #0D24D0",
"&+	c #0E23CD",
"*+	c #080A8F",
"=+	c #1AEA07",
"-+	c #1BF310",
";+	c #17C90E",
">+	c #13A50D",
",+	c #0A1F87",
"'+	c #0D21BF",
")+	c #0F27E0",
"!+	c #0F27E1",
"~+	c #071369",
"{+	c #0D20B9",
"]+	c #0F29EB",
"^+	c #071263",
"/+	c #1029ED",
"(+	c #0B1B9A",
"_+	c #0A129B",
":+	c #15BA17",
"<+	c #1BF410",
"[+	c #15B70C",
"}+	c #13A60F",
"|+	c #0A178F",
"1+	c #06105A",
"2+	c #0F28EB",
"3+	c #0C1EB0",
"4+	c #0E25D7",
"5+	c #09167C",
"6+	c #0F6F44",
"7+	c #13AA0A",
"8+	c #0B532A",
"9+	c #0A1995",
"0+	c #071164",
"a+	c #0D21BA",
"b+	c #0B1B9B",
"c+	c #0D23C8",
"d+	c #0C20B5",
"e+	c #0C1DA7",
"f+	c #0D23C7",
"g+	c #0A2776",
"h+	c #1BF40D",
"i+	c #18D90F",
"j+	c #12A008",
"k+	c #080F87",
"l+	c #0A1C9E",
"m+	c #0D21BB",
"n+	c #060E4C",
"o+	c #0C21BE",
"p+	c #0E26D8",
"q+	c #0A1797",
"r+	c #0E5F43",
"s+	c #17C90C",
"t+	c #0D5E37",
"u+	c #0E25D6",
"v+	c #0C1FB2",
"w+	c #0F29F1",
"x+	c #0C1FB4",
"y+	c #0A1C9B",
"z+	c #0C20B3",
"A+	c #0B1CA4",
"B+	c #0A1893",
"C+	c #15B61B",
"D+	c #108032",
"E+	c #0A1595",
"F+	c #0C20B4",
"G+	c #0F29EE",
"H+	c #0B1EA8",
"I+	c #0B1DA8",
"J+	c #0A188C",
"K+	c #09168D",
"L+	c #0B2085",
"M+	c #0D23CB",
"N+	c #050B40",
"O+	c #0F26E0",
"P+	c #071161",
"Q+	c #08136C",
"R+	c #08146F",
"S+	c #0D21B7",
"T+	c #0E24D1",
"U+	c #08167E",
"V+	c #0D22C2",
"W+	c #0B1DA1",
"X+	c #0E23CB",
"Y+	c #081578",
"Z+	c #050E4C",
"`+	c #102AF5",
" @	c #0E25D3",
".@	c #0F27E6",
"+@	c #0B1EAC",
"@@	c #0E27E1",
"#@	c #0E24D2",
"$@	c #0E23CC",
"%@	c #0E26DE",
"&@	c #0B1DA4",
"*@	c #0F27DF",
"=@	c #0F27E2",
"-@	c #0A1B95",
";@	c #0F29EA",
">@	c #0B1FAF",
",@	c #050E50",
"'@	c #0B1773",
")@	c #0B1C9D",
"!@	c #091679",
"~@	c #08167A",
"{@	c #0C1EAA",
"]@	c #0B1EA9",
"^@	c #0A177F",
"/@	c #08146A",
"(@	c #09188C",
"_@	c #09188A",
":@	c #0D22C6",
"<@	c #061056",
"[@	c #091888",
"}@	c #0D22C5",
"|@	c #050D49",
"1@	c #0A1C9F",
"2@	c #09198B",
"3@	c #081895",
"4@	c #071792",
"5@	c #0B22D0",
"6@	c #0A1EBD",
"7@	c #0A20C5",
"8@	c #0B22D4",
"9@	c #071895",
"0@	c #6B6F8C",
"a@	c #757993",
"b@	c #777EAF",
"c@	c #767CA7",
"d@	c #767CA5",
"e@	c #777DAE",
"f@	c #757995",
"g@	c #7B7E99",
"h@	c #A8A8A8",
"i@	c #B7B7B7",
"j@	c #8F8F8F",
"k@	c #7E7E7D",
"l@	c #BFBEBA",
"m@	c #BBBBB7",
"n@	c #626261",
"o@	c #081FD0",
"p@	c #0820D7",
"q@	c #081FD6",
"r@	c #0B1EAF",
"s@	c #0C21C4",
"                                                                                                    ",
"                                                . +                                                 ",
"                                              @ # $ %                                               ",
"                                            & * = - ; >                                             ",
"                                            , ' ) ! ~ {                                             ",
"                                            ] ^ ) - / (                                             ",
"                                          _ : < ) ) [ } |                                           ",
"                                          1 2 3 ) ) 4 5 6                                           ",
"                                        7 , 8 9 ) ) 0 a b c                                         ",
"                                        d e f , ) ) g h b i                                         ",
"                                        - j a , ) ) k f l m                                         ",
"                                      n ) o p ! ) ) m f j q r                                       ",
"                                      s ) t u v ) ) ! w j ) x                                       ",
"                                    y z ) A B v ) ) ! a t ) C D                                     ",
"                                  E F G ) H I - ) ) v J t ) K L M                                   ",
"                                  e N O ) H I - ) ) v P t ) Q R 9                                   ",
"                                Q ) F O ) H I - S T ! P t ) = U m V                                 ",
"                              V ) W X Y ) Z `  ...+.@.#.[ ) m $.= Y K                               ",
"                            %.m ) q &.) ) *.=.-.;.>.,.'.).- Y R !.) Y ~.                            ",
"                          {.m ) ) - ].) ) ^./.(.;._.:.<.[.- ) }.|.) ) Y z                           ",
"                        1.) ) ) ) i V ) ) 2.3.;.;.;.4.5.6.! ) ) |.) ) ) Y 7.                        ",
"                      8.Y ) ) ) ) 9.- ) ) 0.a.;.;.;.b.c.d.o ) ) |.) ) ) ) Y e.                      ",
"                    & O ) ) ) ) ) f.O v g.h.i.;.;.;.b.j.k.l.- ) m.) ) ) ) ) ) n.                    ",
"                  | m ) ) ) ) ) ) r q G h o.p.;.;.;.b.q.r.s.m ) t.m ) ) ) ) ) m u.                  ",
"                v.q ) ) ) ) ) ) Y w.m x.w y.z.;.;.;.b.q.A.B.C.) D.Y ) ) ) ) ) ) E.F.                ",
"              G.* = ) ) ) ) ) - H.I.) h J.K.z.;.;.;.L.q.M.N.B.) O.l.) ) ) ) ) ) 0 w P.              ",
"            D Q.R.m ) ) ) ) ) S.T.U.# h - V.z.;.;.;.W.X.M.b Y.l Z.`.q ) ) ) ) ) 9  +.+++            ",
"          @+d #+u Y ) ) ) ) , $+p f.%+&+) *+=+;.;.-+;+>+,+v '+J @+)+!+Y ) ) ) ) , .+a q ~+          ",
"          ) e T..+) ) ) ) ) {+]+t ^+/+(+) _+:+;.;.<+[+}+|+) o h 1+A 2+3+- ) ) ) d &+a (+9           ",
"        |.) e  +^ ) ) ) ) 9 )+4+v 5+R., ) = 6+;.;._.7+8+9+) Y a 0+Y : f m ) ) ) - a+a b+Y 1         ",
"      n.= ) e  +c+) ) ) ) d+ +e+- Y f+- ) ) g+h+;.i+j+k+) ) - ] z q l+h A ) ) ) v m+a b+) Y n+      ",
"      Q ) ) e  +o+) ) ) ) !+p+, - t A ) ) ) q+r+_.s+t+) ) ) ) 0 ++O ) p u+, ) ) - v+a b+) ) Y       ",
"    V Y ) ) e w+x+) ) ) y+f z+) - A+q ) ) ) ) B+C+D+E+) ) ) ) ) 0+O - F+G+H+) ) ) I+a b+) ) ) c     ",
"    , ) ) ) 9 5 ^.) ) v f+T.b ) - J+) ) ) ) ) ) K+L+) ) ) ) ) ) y O ) , 5 M+) ) - [.a q ) ) ) )     ",
"  N+Y ) ) ) , !+f+) ) ) * O+, ) ) P+b+0 0 Y ) ) ) ) ) ) Y 0 0 O Q+m ) - 4+)+d ) v a+a W ) ) ) W E   ",
"  R+) ) ) ) ! J B ) ) H+f S+- ) ) ++* h h T+, ) ) ) ) ) u+h h 5 U+m ) ) V+T.W+) d X+a v ) ) ) ) Y+  ",
"  = ) ) ) ) v c+B ) v f+a b ) ) ) Z+`+ @.@]+d+) ) ) - +@h @@#@* e ) ) ) 4 * : - d $@ @- ) ) ) ) Q   ",
"  Y ) ) ) ) ) x+%@) 9 R.p W ) ) ) M &@, d *@=@d ) ) = G+=@-@, S.C ) ) ) Q ;@; m , #.>@- ) ) ) ) m ,@",
"'@) ) ) ) ) ) )@R.Y - G+R.m ) ) ) !@~@) ) d+G+{@) ) ]@f e+- ) v V ) ) ) 9 #+5 O 9 !+v ) ) ) ) ) Y ^@",
"/@Y ) ) v (@            J _@v ) Y b P+) ) , 5 4+- v :@5 q ) m <@Y Y ) ! [@}@            1 v ) ) = ].",
"                                    ~+Y ) - '+R.m Q h C.- ) Y |@                                    ",
"                                      W ) ) &@f O t  +W ) ) v                                       ",
"                                      C ) ) v * 1@A !+v ) ) 2@                                      ",
"                                        ) 3@4@5@6@7@8@9@9@W                                         ",
"                                          0@a@b@c@d@e@f@g@                                          ",
"                                          h@i@i@i@i@i@i@j@                                          ",
"                                          k@l@m@m@m@m@m@n@                                          ",
"                                            o@p@p@p@p@q@                                            ",
"                                            r@R.R.R.p s@                                            ",
"                                                                                                    "};
