/* XPM */
static char * blueship15_xpm[] = {
"50 50 335 2",
"  	c None",
". 	c #0A166F",
"+ 	c #0A1A95",
"@ 	c #0A1A93",
"# 	c #0A198F",
"$ 	c #0A1A91",
"% 	c #050D48",
"& 	c #0A1A94",
"* 	c #07136A",
"= 	c #0A1A92",
"- 	c #0A1A96",
"; 	c #0A1A90",
"> 	c #081367",
", 	c #0C20B8",
"' 	c #0C1FAD",
") 	c #0B1DA3",
"! 	c #0A198B",
"~ 	c #0D23C7",
"{ 	c #0F26DE",
"] 	c #0F28E7",
"^ 	c #0F29EE",
"/ 	c #0E26D7",
"( 	c #0C1FB0",
"_ 	c #0A1B9A",
": 	c #071265",
"< 	c #0C20B4",
"[ 	c #0F26DC",
"} 	c #0F28EB",
"| 	c #0F27E2",
"1 	c #0C1EA9",
"2 	c #0E26DD",
"3 	c #0C1EAB",
"4 	c #0A1990",
"5 	c #0B1C9D",
"6 	c #0C1EAD",
"7 	c #0E27E1",
"8 	c #0F27E0",
"9 	c #0D23C6",
"0 	c #081575",
"a 	c #0F28EC",
"b 	c #0D22C1",
"c 	c #0C20B5",
"d 	c #0E25D9",
"e 	c #0F29EC",
"f 	c #0F28E6",
"g 	c #0C1EAA",
"h 	c #0F27E4",
"i 	c #0F28E9",
"j 	c #0E25D2",
"k 	c #0F28E5",
"l 	c #0A1A97",
"m 	c #0E24CF",
"n 	c #0F27E1",
"o 	c #0A1B96",
"p 	c #0E23CA",
"q 	c #0E26DC",
"r 	c #0C21BC",
"s 	c #0E26DE",
"t 	c #0A1B99",
"u 	c #0B1DA7",
"v 	c #091888",
"w 	c #0A1B97",
"x 	c #091884",
"y 	c #060F5A",
"z 	c #08136D",
"A 	c #0B1EA7",
"B 	c #0F28EA",
"C 	c #0F27E3",
"D 	c #0F25D0",
"E 	c #AEAEAC",
"F 	c #A5A5A5",
"G 	c #73747D",
"H 	c #081894",
"I 	c #091889",
"J 	c #091783",
"K 	c #0B1B9F",
"L 	c #06105B",
"M 	c #07115C",
"N 	c #0B1DA6",
"O 	c #0F29ED",
"P 	c #0F26DA",
"Q 	c #08146E",
"R 	c #2C3DC2",
"S 	c #B7B7B7",
"T 	c #BABABA",
"U 	c #555B8E",
"V 	c #0C21BB",
"W 	c #1029F2",
"X 	c #0C1EAC",
"Y 	c #081576",
"Z 	c #09198C",
"` 	c #07136B",
" .	c #0D21BD",
"..	c #0E26E3",
"+.	c #0923ED",
"@.	c #7B7D94",
"#.	c #BEBEBA",
"$.	c #0D1A86",
"%.	c #0D24D0",
"&.	c #0F28E8",
"*.	c #0C1EA8",
"=.	c #091786",
"-.	c #0D22C4",
";.	c #192BBC",
">.	c #C2C1B9",
",.	c #686D9E",
"'.	c #0B26EF",
").	c #0E25D7",
"!.	c #0E25D3",
"~.	c #0B1B9A",
"{.	c #050E4C",
"].	c #0E26DA",
"^.	c #656DAD",
"/.	c #B8B8B8",
"(.	c #B7B7B8",
"_.	c #202E97",
":.	c #0B1C9E",
"<.	c #0B1EAA",
"[.	c #0D22C5",
"}.	c #0E25D4",
"|.	c #0F28E4",
"1.	c #0D23C8",
"2.	c #0B1DA1",
"3.	c #0C1FB1",
"4.	c #0F29EF",
"5.	c #0C1FB2",
"6.	c #09177F",
"7.	c #0B1EAD",
"8.	c #0A1B98",
"9.	c #071267",
"0.	c #081FDB",
"a.	c #A4A4A5",
"b.	c #A7A7AD",
"c.	c #0D26E6",
"d.	c #0D22C2",
"e.	c #0A198D",
"f.	c #0A1A8F",
"g.	c #0A198E",
"h.	c #0C20B2",
"i.	c #081470",
"j.	c #071266",
"k.	c #09167B",
"l.	c #B1B1B1",
"m.	c #BBBBB9",
"n.	c #313773",
"o.	c #091B9C",
"p.	c #0B1CA1",
"q.	c #0A1994",
"r.	c #0C1FAF",
"s.	c #0C21BD",
"t.	c #091882",
"u.	c #050C40",
"v.	c #09188A",
"w.	c #838386",
"x.	c #091993",
"y.	c #0E24D0",
"z.	c #0C20B6",
"A.	c #0A1698",
"B.	c #091584",
"C.	c #0B4150",
"D.	c #0D5D47",
"E.	c #0B444E",
"F.	c #081082",
"G.	c #0A1396",
"H.	c #0C1FB4",
"I.	c #09177E",
"J.	c #06105A",
"K.	c #0A198C",
"L.	c #0E24CE",
"M.	c #0A1995",
"N.	c #0D3A60",
"O.	c #17C91C",
"P.	c #1BF20A",
"Q.	c #1CF90E",
"R.	c #1CF80E",
"S.	c #1CFA0E",
"T.	c #1BF30A",
"U.	c #18D710",
"V.	c #128F36",
"W.	c #092071",
"X.	c #0C19BF",
"Y.	c #0C1FAE",
"Z.	c #071369",
"`.	c #08167C",
" +	c #061162",
".+	c #0D20B6",
"++	c #091790",
"@+	c #14B011",
"#+	c #1AEB10",
"$+	c #1BF210",
"%+	c #1BF110",
"&+	c #1BF310",
"*+	c #1CFD09",
"=+	c #139F20",
"-+	c #0E30C6",
";+	c #0F26F3",
">+	c #081573",
",+	c #07136C",
"'+	c #0C513D",
")+	c #13AC09",
"!+	c #19E20F",
"~+	c #1BF50C",
"{+	c #11754E",
"]+	c #0F26E9",
"^+	c #0D21BC",
"/+	c #071161",
"(+	c #060F54",
"_+	c #0A1797",
":+	c #0D6E21",
"<+	c #13AB0B",
"[+	c #16C50D",
"}+	c #1BF40E",
"|+	c #18D517",
"1+	c #0C26BA",
"2+	c #040A3A",
"3+	c #091886",
"4+	c #0A1C9C",
"5+	c #0B1DA5",
"6+	c #09188F",
"7+	c #0D612B",
"8+	c #13AD08",
"9+	c #14B10C",
"0+	c #19DB0E",
"a+	c #1BF610",
"b+	c #1AE50E",
"c+	c #0B1F96",
"d+	c #061160",
"e+	c #071264",
"f+	c #0A1799",
"g+	c #093652",
"h+	c #119612",
"i+	c #13A808",
"j+	c #15B80C",
"k+	c #19E10F",
"l+	c #1BEF10",
"m+	c #13A60E",
"n+	c #0A1594",
"o+	c #0D21BB",
"p+	c #07136D",
"q+	c #071268",
"r+	c #092267",
"s+	c #10840F",
"t+	c #13AA0B",
"u+	c #13A80B",
"v+	c #17CC0E",
"w+	c #139E1A",
"x+	c #0A1696",
"y+	c #0B1DA0",
"z+	c #08146F",
"A+	c #091781",
"B+	c #0F27DF",
"C+	c #0D23CA",
"D+	c #0C21BE",
"E+	c #0B1DA8",
"F+	c #0C20B7",
"G+	c #0C20B9",
"H+	c #0C1DBC",
"I+	c #0E2DBC",
"J+	c #0E37B3",
"K+	c #0D594D",
"L+	c #0E791E",
"M+	c #13AA00",
"N+	c #14B400",
"O+	c #0F850D",
"P+	c #0A1E86",
"Q+	c #0B1EAC",
"R+	c #0F28E3",
"S+	c #09167D",
"T+	c #09198F",
"U+	c #0D22C8",
"V+	c #0E27DE",
"W+	c #0E26DB",
"X+	c #0E27E0",
"Y+	c #0E25D6",
"Z+	c #0F24E0",
"`+	c #0E22E8",
" @	c #0E1FEB",
".@	c #0D1BD2",
"+@	c #0B17AC",
"@@	c #08167D",
"#@	c #0A1B9B",
"$@	c #07115F",
"%@	c #0A1888",
"&@	c #0A198A",
"*@	c #0B1C9B",
"=@	c #0E24CD",
"-@	c #0B1EAB",
";@	c #0D24CB",
">@	c #1029EE",
",@	c #0F27DD",
"'@	c #0D20BA",
")@	c #0D20BB",
"!@	c #0E27DD",
"~@	c #07105E",
"{@	c #08167F",
"]@	c #111E7F",
"^@	c #0F2AF0",
"/@	c #0F29F0",
"(@	c #0E23CB",
"_@	c #0B1FB2",
":@	c #091782",
"<@	c #081579",
"[@	c #0F26DB",
"}@	c #0F29EB",
"|@	c #06115D",
"1@	c #07136E",
"2@	c #08167B",
"3@	c #0D22BE",
"4@	c #0D20B1",
"5@	c #0D24CD",
"6@	c #060E52",
"7@	c #060D4C",
"8@	c #0A1991",
"9@	c #0C1FAC",
"0@	c #0E22C9",
"a@	c #0F26D7",
"b@	c #112AE7",
"c@	c #07126A",
"d@	c #0A1992",
"e@	c #0D22C6",
"f@	c #0E23CE",
"g@	c #0A1B95",
"h@	c #06115F",
"i@	c #091885",
"j@	c #0D23CB",
"k@	c #0B1EA9",
"l@	c #0D23C5",
"m@	c #0C1DA7",
"n@	c #091680",
"o@	c #0B1B9B",
"p@	c #091784",
"q@	c #091780",
"r@	c #050D4B",
"s@	c #06105F",
"t@	c #061058",
"                                        .                                                           ",
"                                      + @ #                                                         ",
"                                    $ @ @ @ $ %                                                     ",
"                                    $ @ @ @ @ & *                                                   ",
"                                    = @ @ @ @ @ - *                                                 ",
"                                    ; @ @ @ @ @ @ + >                                               ",
"                                    @ @ @ @ @ @ @ @ $                                               ",
"                                  , ' ) & ; = @ @ @ @ !                                             ",
"                                  ~ { ] ^ / ( _ @ @ @ @ :                                           ",
"                                  @ & + < [ } ] | 1 ; @ +                                           ",
"                                2 3 4 @ = ; 5 6 7 ^ 8 9 ; 0                                         ",
"                                a ^ b = @ @ @ @ ; c d e f g                                         ",
"                              $ 1 h i j & @ @ @ @ @ $ ' k ^ l                                       ",
"                            = @ @ & m i n & @ @ @ @ @ @ o p q                                       ",
"                            @ @ @ @ $ r a s t @ @ @ @ @ @ # u                                       ",
"                          v & @ @ @ @ $ 3 f q w @ @ @ @ @ @ @ x                                     ",
"                    y     z ; = @ @ @ @ @ A B C + @ @ @ @ @ @ &                                     ",
"      q D E F G H & & & = I J K L M o o @ = N O P = @ @ @ @ @ @ Q                                   ",
"      B R S T U & @ @ @ @ @ = V W X Y Z ` ; & 6 B  .$ @ @ @ @ @ @                                   ",
"    ..+.@.S #.$.@ = $ $ $ $ @ %.&.*.= - f v Q =.-.O 5 @ @ @ @ @ & Y                                 ",
"    ] ;.>.S ,.'.] n ).!.j !.] &.&.~.@ @ @ ~ i @ {.).].= @ @ @ @ @ J                                 ",
"    B ^./.(._.:.<.[.}.|.B O n 1.2.@ @ @ @ ; 3.4.5.6.Y 7.8.@ @ @ @ + 9.                              ",
"    0.a.S b.c.d.o ; # e.f.; g.; @ @ @ @ @ @ $ N ^ h.+ i.j.k.t @ @ @ g.                              ",
"      l.m.n.o.| ] p.= @ @ @ @ @ @ @ @ & q.& @ = r.O s.= + t.u.v.& @ =                               ",
"        w.x.@ @ y.] z.$ @ @ @ @ & A.B.C.D.E.F.G.& H.^ s.= @ @ I.J.t @ K.                            ",
"          @ @ @ @ L.O [.; @ @ M.N.O.P.Q.R.S.T.U.V.W.X.i Y.; @ & # Z.`.o  +                          ",
"          Z @ @ @ # L.^ .+@ @ @ ++@+#+$+%+%+%+%+&+*+=+-+;+X $ @ @ w >+,+v.                          ",
"            Z @ @ @ g.8 f t @ @ @ '+)+!+%+%+%+%+%+%+%+~+{+]+^++ @ @ @ + /+(+                        ",
"              0 l @ =  .&., = @ @ _+:+<+[+&+%+%+%+%+%+%+}+|+1+] [.@ = @ + I 2+                      ",
"              Y Z.3+4+C &.5+= @ @ @ 6+7+8+9+0+a+%+%+%+%+%+$+b+c+9 i m 1 ; @ o d+                    ",
"              v.o e+7.C ].& @ @ @ @ @ f+g+h+i+j+k+l+$+%+%+%+&+m+n+; o+h ].) & & p+                  ",
"              @ @ @ o q+,+@ @ @ @ @ @ @ @ - r+s+t+u+v+$+%+%+&+w+x+@ @ = ( k f y+= 6.                ",
"            # @ @ @ @ + ! z+A+B+C+D+r.E+( F+G+H+I+J+K+L+M+N+O+P+@ @ @ @ = o Q+R+s X S+              ",
"            $ @ @ @ @ @ @ - T+q++ U+2 V+W+X+h C ).Y+Z+`+ @.@+@# = @ @ @ @ @ = $ c f j @@            ",
"            ' #@- @ = = = = = = 8.$@J.%@&@; # g.$ $ ; 4 *@=@h C -@8.@ @ @ @ @ @ @ ; ;@>@3+          ",
"            &.] f C ,@C+o+'@)@o+[.}.!@n u ~@{@- @ @ @ @ @ @ & :.d B B+A = @ @ @ @ @ @ p.} ]@        ",
"          :.V }.| |.} ^ ^@/@/@/@} 2 (@_@A 5+:@<@d+Z.Z t + @ @ @ 4 :.7.[@}@y.F+; # = @ @ *@s         ",
"          $ = # e.e.; $ l = + = # g.; @ @ @ @ @ t $ Z.|@1@i.2@@ w + @ g.:.3@W+^ / ^+Q+5+) 4@        ",
"          5@w @ @ @ @ @ @ @ @ @ @ @ @ @ @ @ @ @ @ @ @ @ & 8.K.6@7@Z.4 # 4 8@# $ 9@0@a@n b@c@        ",
"        d@e@&.f@g@= @ @ @ @ @ @ @ @ @ @ @ @ @ @ @ @ @ @ - e.h@                                      ",
"        @ ; Y.f &.1.w ; @ @ @ @ @ @ @ @ @ @ @ @ & + i@Y                                             ",
"      = @ @ @ # j@C ^ ~ k@g@$ = @ @ @ @ @ & & e.:@                                                  ",
"    = @ @ @ @ @ @ @ l@i &.B !.m@o @ @ @ & n@                                                        ",
"  T+@ @ @ @ @ @ @ @ $ o k@q 4.e &.C !.e+                                                            ",
"  + @ @ @ @ @ @ @ @ @ @ @ g.o@( 3.8.                                                                ",
"  p@@ & & & & @ & & & @ # e.q@                                                                      ",
"      r@s@J.,+n@>+p+t@                                                                              ",
"                                                                                                    ",
"                                                                                                    ",
"                                                                                                    "};
