/* XPM */
static char * blueship01_xpm[] = {
"50 50 353 2",
"  	c None",
". 	c #0A1779",
"+ 	c #08167D",
"@ 	c #091680",
"# 	c #08167A",
"$ 	c #09177F",
"% 	c #091887",
"& 	c #091780",
"* 	c #091782",
"= 	c #081577",
"- 	c #07136C",
"; 	c #08167C",
"> 	c #0A1A94",
", 	c #0A1A93",
"' 	c #0A1A95",
") 	c #0A1B97",
"! 	c #09188A",
"~ 	c #07136A",
"{ 	c #09198D",
"] 	c #0B1C9C",
"^ 	c #0D22C3",
"/ 	c #0E26DC",
"( 	c #0C1FB4",
"_ 	c #0A1A91",
": 	c #0A1B96",
"< 	c #0D23CA",
"[ 	c #0F27E1",
"} 	c #0F28EB",
"| 	c #0F29ED",
"1 	c #0E25D3",
"2 	c #0C20B1",
"3 	c #0A198D",
"4 	c #081478",
"5 	c #0A1A90",
"6 	c #0B1CA0",
"7 	c #0E24CF",
"8 	c #0F29EF",
"9 	c #0E25D4",
"0 	c #0C20BA",
"a 	c #0B1C9F",
"b 	c #0A198F",
"c 	c #0A1A92",
"d 	c #08167B",
"e 	c #0A1B99",
"f 	c #0F29EC",
"g 	c #0F27E2",
"h 	c #0D21BE",
"i 	c #0A1B9A",
"j 	c #071264",
"k 	c #0D21BD",
"l 	c #0F28E9",
"m 	c #0F28E6",
"n 	c #0C1FAE",
"o 	c #071161",
"p 	c #0E24D1",
"q 	c #0A1B98",
"r 	c #091784",
"s 	c #0A198C",
"t 	c #050D4D",
"u 	c #051057",
"v 	c #07115D",
"w 	c #060F55",
"x 	c #050F54",
"y 	c #060D4D",
"z 	c #0C22C3",
"A 	c #0A1990",
"B 	c #081572",
"C 	c #071369",
"D 	c #08146F",
"E 	c #0A1C99",
"F 	c #0A1A96",
"G 	c #0B1EAD",
"H 	c #0D23C6",
"I 	c #0F26DB",
"J 	c #0F29EA",
"K 	c #0F28E7",
"L 	c #1129E4",
"M 	c #0C1DAA",
"N 	c #0A1B9C",
"O 	c #0B1CA1",
"P 	c #0B1C9E",
"Q 	c #0A198E",
"R 	c #0A198B",
"S 	c #060E52",
"T 	c #050E4A",
"U 	c #0A188A",
"V 	c #0C1EA8",
"W 	c #0D23CB",
"X 	c #0F28EC",
"Y 	c #0F27E3",
"Z 	c #0E23C9",
"` 	c #0B1EA8",
" .	c #040E54",
"..	c #0E26DE",
"+.	c #0F27E4",
"@.	c #0F28E8",
"#.	c #0F28EA",
"$.	c #0E27DE",
"%.	c #0D23C8",
"&.	c #0C21BD",
"*.	c #08167E",
"=.	c #060F51",
"-.	c #09198C",
";.	c #0C1DA5",
">.	c #0D20B3",
",.	c #1029E7",
"'.	c #0F28E5",
").	c #0D24CF",
"!.	c #0D22C0",
"~.	c #0D20B7",
"{.	c #0B1DA6",
"].	c #0B1DA3",
"^.	c #0B1DA4",
"/.	c #0B1DA5",
"(.	c #0C1DA8",
"_.	c #0C1FB1",
":.	c #0D21BB",
"<.	c #0B1DA9",
"[.	c #091783",
"}.	c #0A1B95",
"|.	c #0C21BE",
"1.	c #0F28E2",
"2.	c #0F26DF",
"3.	c #0C22C1",
"4.	c #0C20B4",
"5.	c #0B1879",
"6.	c #09167E",
"7.	c #07146F",
"8.	c #060F58",
"9.	c #0A1889",
"0.	c #0B1CA2",
"a.	c #0B1DA2",
"b.	c #0A1B9B",
"c.	c #0B1C9D",
"d.	c #0B1EAB",
"e.	c #0E25D9",
"f.	c #0F29E9",
"g.	c #0E25D2",
"h.	c #0E24D0",
"i.	c #06105B",
"j.	c #0F2BE7",
"k.	c #0E28DC",
"l.	c #0D25BB",
"m.	c #0A1C8C",
"n.	c #0D23C5",
"o.	c #0E23C8",
"p.	c #081573",
"q.	c #08136C",
"r.	c #0A1992",
"s.	c #0C1EAD",
"t.	c #0B1CA3",
"u.	c #0B1B9B",
"v.	c #0B1B9C",
"w.	c #0B1B9E",
"x.	c #0A13A3",
"y.	c #0C3F6A",
"z.	c #107456",
"A.	c #18D224",
"B.	c #19DB19",
"C.	c #1AEB0D",
"D.	c #1BF00C",
"E.	c #1AE70E",
"F.	c #0B4A42",
"G.	c #0A1996",
"H.	c #0D23CD",
"I.	c #0E25D1",
"J.	c #07136F",
"K.	c #081575",
"L.	c #0A1DA0",
"M.	c #091D7C",
"N.	c #107247",
"O.	c #17C813",
"P.	c #1CFB0C",
"Q.	c #1CF70E",
"R.	c #1BF110",
"S.	c #1BF210",
"T.	c #19DF0B",
"U.	c #09158C",
"V.	c #0B1B9A",
"W.	c #0D22C6",
"X.	c #0E24CE",
"Y.	c #091888",
"Z.	c #091889",
"`.	c #060F54",
" +	c #0A1991",
".+	c #0D5151",
"++	c #1BF709",
"@+	c #1BF410",
"#+	c #1AEB0F",
"$+	c #108C0D",
"%+	c #09168E",
"&+	c #0D22C5",
"*+	c #0E24D2",
"=+	c #071368",
"-+	c #07115A",
";+	c #0D23C9",
">+	c #091390",
",+	c #13A615",
"'+	c #19E00F",
")+	c #129F0D",
"!+	c #0D24B6",
"~+	c #040C42",
"{+	c #0A198A",
"]+	c #0C1FB0",
"^+	c #0D23C7",
"/+	c #0A119C",
"(+	c #13A521",
"_+	c #1BF510",
":+	c #1CF510",
"<+	c #18D90F",
"[+	c #15BE0B",
"}+	c #0F7329",
"|+	c #0F2CCF",
"1+	c #081579",
"2+	c #020623",
"3+	c #0E26DB",
"4+	c #0E5C4B",
"5+	c #1BF310",
"6+	c #1AE60F",
"7+	c #17D00E",
"8+	c #15B20A",
"9+	c #119010",
"0+	c #0E506E",
"a+	c #0F21ED",
"b+	c #0C1FB3",
"c+	c #071265",
"d+	c #071263",
"e+	c #0E25D5",
"f+	c #0C21BC",
"g+	c #0A1C8F",
"h+	c #19DC15",
"i+	c #1BEE10",
"j+	c #1AEC10",
"k+	c #1AEA10",
"l+	c #19DE0F",
"m+	c #15C00D",
"n+	c #13A80B",
"o+	c #13A80A",
"p+	c #12A20F",
"q+	c #0D6424",
"r+	c #0D1EE1",
"s+	c #07115F",
"t+	c #0F26DC",
"u+	c #0D1D82",
"v+	c #0E5D3D",
"w+	c #12A006",
"x+	c #14B008",
"y+	c #13AD09",
"z+	c #13AE09",
"A+	c #13AC06",
"B+	c #108E08",
"C+	c #092B5A",
"D+	c #0A1C8D",
"E+	c #0B1B97",
"F+	c #050E4F",
"G+	c #A7A6A3",
"H+	c #152077",
"I+	c #0B1B99",
"J+	c #0E25D8",
"K+	c #0F29EB",
"L+	c #0C1EAC",
"M+	c #0A1897",
"N+	c #091590",
"O+	c #091F7B",
"P+	c #0A2A73",
"Q+	c #0A2875",
"R+	c #091687",
"S+	c #091496",
"T+	c #0A1994",
"U+	c #0D21BA",
"V+	c #0F29EE",
"W+	c #0C20B6",
"X+	c #A7A6A6",
"Y+	c #B8B8B8",
"Z+	c #888891",
"`+	c #081AA7",
" @	c #0F27E6",
".@	c #0B1C9B",
"+@	c #0C1FAF",
"@@	c #0D21B9",
"#@	c #081578",
"$@	c #06105A",
"%@	c #0D27E8",
"&@	c #797EA8",
"*@	c #B7B7B7",
"=@	c #B8B8B7",
"-@	c #1C32DA",
";@	c #0C20B8",
">@	c #0C1EA5",
",@	c #0B1EAA",
"'@	c #09157A",
")@	c #060D4E",
"!@	c #2F3EB4",
"~@	c #C0C0BC",
"{@	c #464D84",
"]@	c #0A1EB3",
"^@	c #0F27E0",
"/@	c #0C1EAB",
"(@	c #121267",
"_@	c #0C21B9",
":@	c #071266",
"<@	c #0F27E5",
"[@	c #051FE3",
"}@	c #9D9C9B",
"|@	c #AFAEA9",
"1@	c #061ED6",
"2@	c #0E26D9",
"3@	c #081472",
"4@	c #0C22C4",
"5@	c #3B48AC",
"6@	c #BCBCBB",
"7@	c #3C4483",
"8@	c #0D22C4",
"9@	c #0D21BF",
"0@	c #071267",
"a@	c #0D22C2",
"b@	c #162CD4",
"c@	c #BABAB9",
"d@	c #828596",
"e@	c #071796",
"f@	c #0B1EAE",
"g@	c #060E53",
"h@	c #0D20B8",
"i@	c #0719A0",
"j@	c #565864",
"k@	c #08178C",
"l@	c #0A1A97",
"m@	c #08136D",
"n@	c #091885",
"o@	c #0C1FAC",
"p@	c #0F26DA",
"q@	c #0C1EAA",
"r@	c #0D24CC",
"s@	c #0D24CE",
"t@	c #0E25D7",
"u@	c #0E26DD",
"v@	c #0D23CC",
"w@	c #0D21BC",
"x@	c #0B1CA6",
"y@	c #0D21C0",
"z@	c #0F28E4",
"A@	c #0B1B9D",
"B@	c #0E23CB",
"C@	c #0F26DE",
"D@	c #0F29F0",
"E@	c #0E24D3",
"F@	c #0E26DA",
"G@	c #0B1DA8",
"H@	c #061162",
"I@	c #050D4A",
"J@	c #0A188B",
"K@	c #091886",
"L@	c #091158",
"                                                                                                    ",
"                                                                                                    ",
"                                                                                                    ",
"    . + @ # $ % & * * = -                                                                           ",
"  ; > , , , , , , , , , ' ) ! ~                                                                     ",
"  { , , , , , , , , , , , , ] ^ / (                                                                 ",
"    , , , , , , , , _ : < [ } | | 1 2 3 4                                                           ",
"      , , , , , 5 6 7 8 | 9 0 a , b c , > 3 d                                                       ",
"      b , , c e 7 f g h i _ , , , , , , , , , > _ j                                                 ",
"        c , k l m n , , , , , , , , , , , , , , , , c 5 o                                           ",
"          p l n q c , , , , , , , , , , , , , , , , , , > _ r s =         t u v w x y               ",
"          z 5 , , , , , , , , , , , , , , , , , , , : ) A d B C o D > E F , ] G H I J K L M         ",
"          A , : q ) e N O a a P e q F , , , , > Q R S T C U e > , , , F V W X Y Z ` _ A A P  .      ",
"            ..+.m K @.l } } } #.l K +.$.%.&.*.=.# -._ > , , , , A ;.7 K @.>.e > , , , , a ,.        ",
"            X '.).!.~.G {.].^./.(._.:.<.[.d * ) > , , , , Q }.|.1.2.3.a _ c , , , , 5 4.#.5.        ",
"            a A 5 c , , , , , ' 6.7.8.9.0.P O a.N b.b.c.d.e.f.g.0.3 c , , , , , _ ] h.'.*           ",
"            3 , , , , , , c [.i.).} l @.@.@.@.@.l l K j.k.l.m., , , , , , , , > n.} o.p.            ",
"              , , , , ) q.r.s._.t.c.u.e b.v.w.x.y.z.A.B.C.D.E.F.G., , , c q H.l I.] J.              ",
"              r., q K.[.L.c _ c , , , , G.M.N.O.P.Q.R.R.R.R.S.T.U., 5 V.W.@.X.P , B                 ",
"              Y.Z.`.0 8 l i , , , , ,  +.+++@+R.R.R.R.R.R.S.#+$+%+P &+l *+, _ ' =+                  ",
"                -+, _ &+@.;+_ , , , >+,+R.R.R.R.R.R.R.R.R.'+)+!+g l :.> , , > ~+                    ",
"              {+' , , ]+l ^+_ , , /+(+_+R.R.R.R.R.S.:+<+[+}+|+K n ' c , ) 1+2+                      ",
"            A , , , _ 3+@.e , , , 4+P.R.R.S.5+@+6+7+8+9+0+a+b+Q c , > Q c+d+                        ",
"          > , , , > e+#.f+c , , g+h+i+j+k+l+m+n+o+p+q+r+l ` , , , , p.s+q                           ",
"          > , , , t+f h c , , > u+v+w+x+y+z+A+B+C+D+~.@.0., , , E+F+ +, 8.                          ",
"        G+H+> I+J+K+L+A , , , , > M+N+O+P+Q+R+S+T+U+V+W+c , ' o D > , Q                             ",
"      X+Y+Z+`+ @3+.@c , , , , , , , , , , , , c +@} @@, ' #@$@: , , c                               ",
"    %@&@*@=@-@;@_ > ' ' : ) : ' , , , , , , , >@l ,@c '@)@c , , , , b                               ",
"    @.!@~@*@{@]@I.^@Y m @.l m g h., , , , b k #./@(@, _@> , , , , F :@                              ",
"    <@[@}@*@|@1@%.k b+b+b+_.^ @.l ` , , _ 2@p 3@:@4@[ A , , , , , Z.                                ",
"      X 5@*@6@7@c , , , , , _ _.@.8@, : 9@0@~ i a@8 6 , , , , , , d                                 ",
"      m b@c@*@d@e@, , , , , , ,@#.f@g@d+> , c ,@@.h@c , , , , , '                                   ",
"        i@j@    k@> F l@5 =+`.m@% n@' > , c o@#.1 , , , , , , , q.                                  ",
"                          c e : , , , , c /@} p@, , , , , , , ,                                     ",
"                            > , , , , , q@#.3+5 , , , , , , , s                                     ",
"                            c , , , b r@@.I , , , , , , , _ 2                                       ",
"                              , c E+2@} s@' , , , , , c t.t@u@                                      ",
"                              ' @@#.J v@5 , , , , _ ' w@#.#.x@                                      ",
"                                @.K 0 _ , , , , ' y@f @.z@A@                                        ",
"                                s@] , , c Q {.B@+.f C@/., d                                         ",
"                                  b c ` W ^@D@[ ^ a.b , ,                                           ",
"                                  E@ @+.F@&+G@3 c , , , ~                                           ",
"                                    c c , , , , , , , Q                                             ",
"                                    c , , , , , , , Q                                               ",
"                                    A , , , , , , > H@                                              ",
"                                    b , , , , , c d+                                                ",
"                                      , , , , , I@                                                  ",
"                                      , , , J@                                                      ",
"                                      3 ' K@                                                        ",
"                                        L@                                                          "};
