/* XPM */
static char * redship14_xpm[] = {
"50 50 253 2",
"  	c None",
". 	c #910000",
"+ 	c #960000",
"@ 	c #820000",
"# 	c #950000",
"$ 	c #970000",
"% 	c #810000",
"& 	c #BE0000",
"* 	c #790000",
"= 	c #9B0000",
"- 	c #EC0000",
"; 	c #F90000",
"> 	c #A80000",
", 	c #BB0000",
"' 	c #D40000",
") 	c #FF0000",
"! 	c #CF0000",
"~ 	c #A00000",
"{ 	c #FD0000",
"] 	c #9E0000",
"^ 	c #930000",
"/ 	c #C20000",
"( 	c #E00000",
"_ 	c #700000",
": 	c #F40000",
"< 	c #B30707",
"[ 	c #E30000",
"} 	c #920000",
"| 	c #B80000",
"1 	c #FE0000",
"2 	c #ED0000",
"3 	c #990000",
"4 	c #830000",
"5 	c #F00000",
"6 	c #948C8C",
"7 	c #B9B9B9",
"8 	c #959595",
"9 	c #720000",
"0 	c #EA0000",
"a 	c #9F0000",
"b 	c #EF0000",
"c 	c #8D0000",
"d 	c #F50000",
"e 	c #A29090",
"f 	c #B8B8B8",
"g 	c #B7B7B7",
"h 	c #8A8181",
"i 	c #900000",
"j 	c #570000",
"k 	c #AB0000",
"l 	c #940000",
"m 	c #F30000",
"n 	c #A29191",
"o 	c #B9BABA",
"p 	c #B8BBBB",
"q 	c #AC8484",
"r 	c #980000",
"s 	c #750000",
"t 	c #550000",
"u 	c #9A0000",
"v 	c #DD0000",
"w 	c #A20000",
"x 	c #B90000",
"y 	c #E50000",
"z 	c #CE0505",
"A 	c #958D8D",
"B 	c #9F8787",
"C 	c #E80000",
"D 	c #A60000",
"E 	c #680000",
"F 	c #D10000",
"G 	c #D30000",
"H 	c #C30000",
"I 	c #787A7A",
"J 	c #B8B7B7",
"K 	c #A48484",
"L 	c #DC0000",
"M 	c #E20000",
"N 	c #E10000",
"O 	c #9C0000",
"P 	c #F70000",
"Q 	c #880000",
"R 	c #850000",
"S 	c #DE0000",
"T 	c #B0B0B0",
"U 	c #898080",
"V 	c #BA0000",
"W 	c #B00000",
"X 	c #FA0000",
"Y 	c #BD0000",
"Z 	c #A50000",
"` 	c #CE0000",
" .	c #8E0000",
"..	c #670000",
"+.	c #C40000",
"@.	c #F80000",
"#.	c #B30000",
"$.	c #760000",
"%.	c #E60000",
"&.	c #C50000",
"*.	c #FC0000",
"=.	c #DB0000",
"-.	c #D50000",
";.	c #E40000",
">.	c #B50000",
",.	c #6E0000",
"'.	c #CC0000",
").	c #6B0000",
"!.	c #B70000",
"~.	c #AD0000",
"{.	c #A10000",
"].	c #B40000",
"^.	c #F20000",
"/.	c #B10000",
"(.	c #6F0000",
"_.	c #A90000",
":.	c #BC0000",
"<.	c #45374A",
"[.	c #612735",
"}.	c #73161D",
"|.	c #8C090D",
"1.	c #710000",
"2.	c #5F0000",
"3.	c #9D0000",
"4.	c #D60000",
"5.	c #CB0000",
"6.	c #374A64",
"7.	c #16A6E1",
"8.	c #16A5E0",
"9.	c #18A1DB",
"0.	c #1D8CBF",
"a.	c #6D1117",
"b.	c #C00000",
"c.	c #600000",
"d.	c #6D0000",
"e.	c #4D2F3F",
"f.	c #1598CD",
"g.	c #17A6E1",
"h.	c #17A5E0",
"i.	c #12A7E2",
"j.	c #375C7D",
"k.	c #650000",
"l.	c #8A0000",
"m.	c #C90000",
"n.	c #F60000",
"o.	c #760F14",
"p.	c #1289B9",
"q.	c #17A1DB",
"r.	c #17AAE7",
"s.	c #266F97",
"t.	c #5B0000",
"u.	c #770000",
"v.	c #900405",
"w.	c #1785B4",
"x.	c #1593C7",
"y.	c #17A7E3",
"z.	c #1D729C",
"A.	c #B20000",
"B.	c #560000",
"C.	c #FB0000",
"D.	c #AC0000",
"E.	c #640000",
"F.	c #383B4F",
"G.	c #118FC2",
"H.	c #159AD1",
"I.	c #17A6E2",
"J.	c #3B5473",
"K.	c #C60000",
"L.	c #840000",
"M.	c #A40000",
"N.	c #1E6F96",
"O.	c #148CBD",
"P.	c #16A2DC",
"Q.	c #11ABE7",
"R.	c #942E3E",
"S.	c #660000",
"T.	c #D00000",
"U.	c #7A080A",
"V.	c #1480AD",
"W.	c #138CBD",
"X.	c #17A4DF",
"Y.	c #129AD1",
"Z.	c #E50001",
"`.	c #AE0000",
" +	c #D90000",
".+	c #C80000",
"++	c #420000",
"@+	c #81080A",
"#+	c #108ABA",
"$+	c #148CBE",
"%+	c #2D83B2",
"&+	c #6A0000",
"*+	c #DF0000",
"=+	c #500000",
"-+	c #AA0000",
";+	c #D80000",
">+	c #87080B",
",+	c #0E759F",
"'+	c #1392C5",
")+	c #16A3DE",
"!+	c #BB0C10",
"~+	c #780000",
"{+	c #A70000",
"]+	c #7E0000",
"^+	c #504C67",
"/+	c #0B93C7",
"(+	c #17A3DC",
"_+	c #16A7E3",
":+	c #422D3C",
"<+	c #C10000",
"[+	c #620000",
"}+	c #D70000",
"|+	c #8C0000",
"1+	c #9E151D",
"2+	c #1C7FAD",
"3+	c #149DD6",
"4+	c #17A5DF",
"5+	c #15A3DE",
"6+	c #720D11",
"7+	c #120000",
"8+	c #EE0000",
"9+	c #860000",
"0+	c #D20000",
"a+	c #F80203",
"b+	c #6C232F",
"c+	c #1F4E69",
"d+	c #62131A",
"e+	c #800000",
"f+	c #630000",
"g+	c #490000",
"h+	c #8B0000",
"i+	c #690000",
"j+	c #5C0000",
"k+	c #A30000",
"l+	c #480000",
"m+	c #4D0000",
"n+	c #BF0000",
"o+	c #7A0000",
"p+	c #F10000",
"q+	c #5E0000",
"r+	c #870000",
"s+	c #7D0000",
"t+	c #740000",
"u+	c #7F0000",
"v+	c #380000",
"w+	c #3F0000",
"x+	c #CD0000",
"y+	c #E90000",
"z+	c #F90101",
"A+	c #A30A0A",
"B+	c #4E0000",
"C+	c #4C0909",
"D+	c #BF0707",
"                                                                                                    ",
"                                                                                                    ",
"                                                                    . + +                           ",
"                                                                    + + + @                         ",
"                                                                  # + + + #                         ",
"                                                                . + + + + $ %                       ",
"                                                                + + + + + + +                       ",
"                                                              & # + + + + + + *                     ",
"                                                            = - ; > # + + + + =                     ",
"                                                          , + $ ' ) ! + + + + $                     ",
"                                                      ~ { { ] + ^ / ) ( # + + + _                   ",
"                            : <                     ^ + ! ) [ + + } | 1 2 3 + + 4                   ",
"                          ) 5 6 7 8   9           + + + . 0 1 3 + + + a { b + + c                   ",
"                        ) d e f g h i + + ^ j   # + + + + k ) [ l + + + | ) m $ 3                   ",
"                      ) b n o p q c + + + + r s t u + + + } v ) w + + + ^ x ) y r                   ",
"                      z A f p B - C D ^ + + + + = E i $ + + a ) F ^ + + + ^ G ) H                   ",
"                      I J g K L l M ) N O + + + ^ P Q R + + l S ) + + + + + r d )                   ",
"                        T U # ) V l W X ) 5 Y Z ` ) 5  ...u + O ) H + + + + + a )                   ",
"                          . # , ) ] # # +.@.) ) ) ) | + #.$.= # 5 %.^ + + + + # &.                  ",
"                        @ + + $ *.=.^ + + i W -.;.>.l + i G ,.$ '.) l + + + + + r                   ",
"                        ).+ + # !.) ~.+ + + + + + + + + + & N ..{.) ].+ + + + + 3                   ",
"                          l + + $ @.M ^ + + + + + + + + + } ^./.(.5 -.+ + + + + 3                   ",
"                          $.r + + S ) + + + + u r $ + + + + _.) _ !.b + + + + + 3                   ",
"                          j % + + :.) | + + u <.[.}.|.l $ + # P | 1.F r + + + + r                   ",
"                          + 2.3.l 4.) 5.+ + = 6.7.8.9.0.a.u # b.d } % u + + + + 3 c.                ",
"                        + + $ d.0 ) ) ~.+ + 3 e.f.g.h.g.i.j.3 r ) x + k. .+ + + r                   ",
"                      l + + + l.m.n., l + + $ o.p.q.h.h.h.r.s.l %.;.^ u t.# + + r (.                ",
"                    $ + + + + $ u.R + + + + + v.w.x.g.h.h.h.y.z.A.) . + 3 B.$ + r u.                ",
"                    C.D.# + + + $ E.w ^ + + + $ F.G.H.h.h.h.h.I.J.) K.+ + L.d.$ r d.                ",
"                  -.) ) F $ l + + = s '.M.^ + + = N.O.P.h.h.h.h.Q.R.P $ + r s l $ %                 ",
"                # l V : ) ) :.r # + O S.{ T.3.l + U.V.W.X.h.h.h.h.Y.Z.`.# + # t.$ l.                ",
"               +.++ + + /.C.) C.>.# + + ++y )  +~ # @+#+$+h.h.h.h.g.%+1 ~.+ + u &+c                 ",
"            + {.) D.# + # r A.^.) @.*+~.. =+-+;+) m ! >+,+'+g.h.h.h.)+!+) ~ + + ~+1.                ",
"        # + + ^ K.) {++ + + + . -+ +; ) { v ]+R 3.T.X ) C.^+/+(+g.h._+:+<+C.~ + = [+                ",
"    . $ + + + + r b { 3.+ + + + + # . D.}+2 ) l.|++ i Z %.) 1+2+3+4+5+6++ V { a + + 7+              ",
"    + + + + + + + $ n.8+. + + + + + + + + + r = 9+]++ + + r 0+a+b+c+d++ + # ].) = + i               ",
"    r + + + + + + + M.) 8+O + + + + + + + + + + $ e+f+u + + # 5.) _.r + + + + 0+8+^ + g+            ",
"    (.h+3 + + + + + # k ) { ~ # + + + + + + + + + + l.i++ + + ^ & X {.+ + + + . N 2 ^ e+            ",
"        j+^ + + + + + + k+*.) `.+ + + + + + + + + + + r l+ .$ + # x { ] + + + + } - =.3             ",
"            E.i 3 + + + + M.{ 1 M l + + + + + + + + + + $ % m+u + # /.) W # + + + = 1 n+$.          ",
"                  ~+o+c r 3 ~ S ) p+k r 3 3 r $ r r $ $ $ $ c q+i $ # ~.C.+.^ + + # O ) W           ",
"                          k...* r+O {+,.S.[+9 s+u.t+u+9+L. .h+# j+u+u + _.) +.# + + + x X _         ",
"                                                                  v+w++ + 3 C.*+^ + + l v x+        ",
"                                                                        [++ = y+5 = + + ] z+        ",
"                                                                            _ 4 0+) <+^ } 0+A+      ",
"                                                                                B+$ y+^.].`.        ",
"                                                                                      C+D+]+        ",
"                                                                                                    ",
"                                                                                                    ",
"                                                                                                    "};
