/* XPM */
static char * redship08_xpm[] = {
"50 50 236 2",
"  	c None",
". 	c #710000",
"+ 	c #860000",
"@ 	c #6F0000",
"# 	c #660000",
"$ 	c #8D0000",
"% 	c #990000",
"& 	c #960000",
"* 	c #8B0000",
"= 	c #950000",
"- 	c #970000",
"; 	c #7B0000",
"> 	c #910000",
", 	c #900000",
"' 	c #980000",
") 	c #8F0000",
"! 	c #940000",
"~ 	c #B70000",
"{ 	c #E80000",
"] 	c #FC0000",
"^ 	c #FF0000",
"/ 	c #FE0000",
"( 	c #ED0000",
"_ 	c #D80000",
": 	c #BE0000",
"< 	c #A20000",
"[ 	c #CB0000",
"} 	c #F50000",
"| 	c #EA0000",
"1 	c #DB0000",
"2 	c #CA0000",
"3 	c #B60000",
"4 	c #B10000",
"5 	c #CC0000",
"6 	c #E10000",
"7 	c #E00000",
"8 	c #F00000",
"9 	c #F70000",
"0 	c #850000",
"a 	c #9B0000",
"b 	c #7A0000",
"c 	c #A30000",
"d 	c #820000",
"e 	c #9A0000",
"f 	c #930000",
"g 	c #9F0000",
"h 	c #E40000",
"i 	c #AF0000",
"j 	c #EB0000",
"k 	c #F80000",
"l 	c #F30000",
"m 	c #D40000",
"n 	c #F90000",
"o 	c #DE0000",
"p 	c #AB0000",
"q 	c #D50000",
"r 	c #920000",
"s 	c #B00000",
"t 	c #9D0000",
"u 	c #890000",
"v 	c #6C0000",
"w 	c #5A0000",
"x 	c #560000",
"y 	c #570000",
"z 	c #780000",
"A 	c #730000",
"B 	c #510000",
"C 	c #760000",
"D 	c #640000",
"E 	c #740000",
"F 	c #9E0000",
"G 	c #6A0000",
"H 	c #600000",
"I 	c #6B0000",
"J 	c #6E0000",
"K 	c #7C0000",
"L 	c #9C0000",
"M 	c #C00000",
"N 	c #EE0000",
"O 	c #E60000",
"P 	c #AD0000",
"Q 	c #750000",
"R 	c #700000",
"S 	c #4C0000",
"T 	c #8A0000",
"U 	c #A70000",
"V 	c #DC0000",
"W 	c #F60000",
"X 	c #C10000",
"Y 	c #C40000",
"Z 	c #C60000",
"` 	c #880000",
" .	c #670000",
"..	c #A60000",
"+.	c #E90000",
"@.	c #F40000",
"#.	c #AE0000",
"$.	c #E70000",
"%.	c #AA0000",
"&.	c #BF0000",
"*.	c #CF0000",
"=.	c #FB0000",
"-.	c #8D0608",
";.	c #780608",
">.	c #780609",
",.	c #B90000",
"'.	c #949393",
").	c #AAABAB",
"!.	c #706262",
"~.	c #E50000",
"{.	c #E30000",
"].	c #C51015",
"^.	c #80364A",
"/.	c #4B4C67",
"(.	c #197199",
"_.	c #0E7DA9",
":.	c #0B92C6",
"<.	c #0C92C6",
"[.	c #0B88B9",
"}.	c #176E95",
"|.	c #4A3B50",
"1.	c #7C0A0D",
"2.	c #C70000",
"3.	c #C80000",
"4.	c #9C9C9C",
"5.	c #B8B8B8",
"6.	c #948282",
"7.	c #EF0000",
"8.	c #E00606",
"9.	c #A10000",
"0.	c #2E445C",
"a.	c #0D98CE",
"b.	c #169BD2",
"c.	c #16A3DD",
"d.	c #17A4DD",
"e.	c #16A4DD",
"f.	c #17A4DE",
"g.	c #169FD8",
"h.	c #1492C6",
"i.	c #138EC0",
"j.	c #138DBE",
"k.	c #118CBD",
"l.	c #582835",
"m.	c #E20000",
"n.	c #AF9C9C",
"o.	c #928080",
"p.	c #D60101",
"q.	c #A40000",
"r.	c #870507",
"s.	c #149FD7",
"t.	c #17A5E0",
"u.	c #17A4DF",
"v.	c #17A2DB",
"w.	c #1599D0",
"x.	c #2B5E7F",
"y.	c #A59D9D",
"z.	c #918080",
"A.	c #B70101",
"B.	c #8B0405",
"C.	c #16A1DB",
"D.	c #13ADEA",
"E.	c #4B4962",
"F.	c #920101",
"G.	c #DA0000",
"H.	c #A19C9C",
"I.	c #948181",
"J.	c #D00505",
"K.	c #FA0000",
"L.	c #B20000",
"M.	c #424760",
"N.	c #169AD1",
"O.	c #11AAE7",
"P.	c #15A9E5",
"Q.	c #17A6E1",
"R.	c #14AAE7",
"S.	c #1991C5",
"T.	c #5E2836",
"U.	c #BA0000",
"V.	c #AA9D9D",
"W.	c #928181",
"X.	c #490000",
"Y.	c #F10000",
"Z.	c #96202C",
"`.	c #494B67",
" +	c #1E8CBD",
".+	c #1C96CC",
"++	c #18A4DD",
"@+	c #19A4DD",
"#+	c #19A3DD",
"$+	c #18A3DD",
"%+	c #199FD8",
"&+	c #1A87B7",
"*+	c #542736",
"=+	c #BC0000",
"-+	c #9D9D9D",
";+	c #B80000",
">+	c #F70001",
",+	c #B6090C",
"'+	c #87080C",
")+	c #8B090C",
"!+	c #900304",
"~+	c #908F8F",
"{+	c #8B8B8B",
"]+	c #7D0000",
"^+	c #D00000",
"/+	c #DD0000",
"(+	c #530000",
"_+	c #720000",
":+	c #840000",
"<+	c #8C0000",
"[+	c #D60000",
"}+	c #5D0000",
"|+	c #540000",
"1+	c #D70000",
"2+	c #4A0000",
"3+	c #7F0000",
"4+	c #8E0000",
"5+	c #5C0000",
"6+	c #5E0000",
"7+	c #690000",
"8+	c #790000",
"9+	c #7E0000",
"0+	c #6D0000",
"a+	c #870000",
"b+	c #D10000",
"c+	c #800000",
"d+	c #EC0000",
"e+	c #A80000",
"f+	c #770000",
"g+	c #A50000",
"h+	c #CD0000",
"i+	c #BB0000",
"j+	c #630000",
"k+	c #810000",
"l+	c #5B0000",
"m+	c #810202",
"                                                                          . + @                     ",
"                                                                    # $ % & & %                     ",
"                                                                * = - & & & & -                     ",
"                                                            ; - & & & & & & & -                     ",
"                                                          > - & & & & & & & & &                     ",
"                                                      ; - & & & & & & & & & &                       ",
"                                                    + , - ' ' ' % ) , > ! & &                       ",
"                                                  ~ { ] ^ ^ ^ ^ ^ / ] ( _ : <                       ",
"                                                [ / } | 1 2 [ 3 4 2 5 6 7 8 9                       ",
"                                              0 a - - & & & & & & & & & & & -                       ",
"                                            b - & & & & & & & & & & & = > ! c                       ",
"                                          d e & & & & & & & & & = f g : h ^ ^                       ",
"                                        , - & & & & & & & & = % i j ^ ^ ] k l                       ",
"                                      $ & & & & & & & & = ' m n ^ ^ o p a ' &                       ",
"                                    $ - & & & & & & = & q / ^ 1 i & r = & & & !                     ",
"                                  r & & & & & & & ! s ^ ] _ a f & & & & & & & &                     ",
"                                % & & & & & & & = 1 ^ 7 - = = & & & & & & & & )                     ",
"                            b - e t e u v w x y z A + A ; t % f r ; B C D E > F                     ",
"                          G v v H I J K $ ' a a = L M N ^ O 2 P ' - p ^ } + Q R J                   ",
"                      S J T F t % & & & & & = U V ^ W X ! r & & & ! Y ^ Z = & & - e `               ",
"                 .& & & & & & & & & & & = ..+.^ @.#.= & & & & & & ! : ^ $.> & & & & & -             ",
"          x d $ e - %.%.i X &.M M *.q 1 n ^ =.-.;.;.>.> g % & & & & % ( ^ N ,., = & & - '.).!.      ",
"      ; ~ ~.W ] ^ 9 k 8 j {.V V V O ].^./.(._.:.<.<.<.[.}.|.1.% & & & , 2.9 ^ n 3.%.= r 4.5.6.7.    ",
"    8.] {.: 9.= r > > f ! = = = & 0.a.b.c.d.c.e.f.g.b.h.i.j.k.l.- & & & & f i h k ^ ^ m.n.5.o.^     ",
"  p.q.- & & & & & & & & & & & & r.s.t.t.t.t.t.t.t.t.t.t.t.u.v.w.x.& & & & & & & ' e ..M y.5.z.^     ",
"  A.X ! > = & & & & & & & & & & B.C.t.t.t.t.t.t.t.t.t.t.t.t.t.D.E.F.& & & & = > - #.Z G.H.5.I.^     ",
"    J.K.O Z L.%...F F % & ! f f ! M.N.O.P.Q.t.t.t.t.t.t.Q.R.S.T.e & & & ! 9.U.~.^ ^ ( _ V.5.W.^     ",
"      X.p V l K./ / ^ / / W Y.8 8 k K.Z.`. +.+++@+#+$+%+&+*+& & & & & & m ^ / 9 =+f = & -+5.z.l     ",
"            R % L a F F F q.q.c q.#.L.;+j ^ >+,+'+)+)+!+= - & & & & a @.^ 6 < - = & & - ~+{+        ",
"                G ]+' e - & & & & = = = > ..^+^ l 3.e ! & & & & & ! &.^ /+> & & & & & r             ",
"                      (+_+:+u <+! ' - & & & ! t [+l ^ Y q.- ! & & ! X ^ 3.! & - - , $               ",
"                          * <+z }+|+G u - % ' - & = q.+.^ n 1+q.= & 9./ ] ' * # 2+                  ",
"                            }+a ' ' > 0 :+d 3+b t 4+0 5+6+7+8+9+C # 0+d * a+:+>                     ",
"                                <+- & & & & - - % b+^ $.L.% L L L L % ' & & & ,                     ",
"                                  4+& & & & & & & = c @.^ m.< - = & & & & & & =                     ",
"                                    a+- & & & & & & & - &.^ ^ W ~ f = & & & & f                     ",
"                                      c+- & & & & & & & ! e ,.d+^ =.+.[ e+f ,                       ",
"                                        u - & & & & & & & & & > i G.} ^ ^ ^ W                       ",
"                                          3+- & & & & & & & & & & & r i ~.n ]                       ",
"                                            f+' & & & & & & & & & & & & = % a                       ",
"                                              ; ,.g+= , > ! ! = = ! f > > , &                       ",
"                                                5 ^ ^ 8 o 5 h+i+~ 5 h+{.h n 9                       ",
"                                                  q.$.] / / / / / ] K.7.h+g+!                       ",
"                                                    Q % L L L L L - & ! ! & &                       ",
"                                                      z & & & & & & & & & & &                       ",
"                                                          , - & & & & & & & & '                     ",
"                                                            j+' & & & & & & & &                     ",
"                                                                @ % % & & & & -                     ",
"                                                                    @ k+) ' - -                     ",
"                                                                          l+m+                      "};
