/* XPM */
static char * redship15_xpm[] = {
"50 50 243 2",
"  	c None",
". 	c #870000",
"+ 	c #960000",
"@ 	c #930000",
"# 	c #570000",
"$ 	c #970000",
"% 	c #6E0000",
"& 	c #9A0000",
"* 	c #710000",
"= 	c #860000",
"- 	c #7D0000",
"; 	c #640000",
"> 	c #9E0000",
", 	c #9B0000",
"' 	c #950000",
") 	c #980000",
"! 	c #FD0000",
"~ 	c #FE0000",
"{ 	c #F90000",
"] 	c #DE0000",
"^ 	c #B00000",
"/ 	c #940000",
"( 	c #840000",
"_ 	c #920000",
": 	c #A80000",
"< 	c #C50000",
"[ 	c #F70000",
"} 	c #FF0000",
"| 	c #F50000",
"1 	c #E40000",
"2 	c #B20000",
"3 	c #8F0000",
"4 	c #740000",
"5 	c #B40000",
"6 	c #CF0000",
"7 	c #F00000",
"8 	c #F30000",
"9 	c #BF0000",
"0 	c #900000",
"a 	c #FC0000",
"b 	c #E10000",
"c 	c #990000",
"d 	c #910000",
"e 	c #C40000",
"f 	c #F80000",
"g 	c #AF0000",
"h 	c #F60000",
"i 	c #B50000",
"j 	c #FA0000",
"k 	c #DC0000",
"l 	c #F40000",
"m 	c #A50000",
"n 	c #9C0000",
"o 	c #D10000",
"p 	c #BE0000",
"q 	c #FB0000",
"r 	c #A70000",
"s 	c #9D0000",
"t 	c #A00000",
"u 	c #790000",
"v 	c #720000",
"w 	c #872B2B",
"x 	c #8E9292",
"y 	c #780000",
"z 	c #660000",
"A 	c #700000",
"B 	c #750000",
"C 	c #730000",
"D 	c #890000",
"E 	c #AB8B8B",
"F 	c #BAB9B9",
"G 	c #B2B2B2",
"H 	c #8F0505",
"I 	c #E70000",
"J 	c #600000",
"K 	c #EB0000",
"L 	c #6A0000",
"M 	c #EC0202",
"N 	c #ADB0B0",
"O 	c #B8B8B8",
"P 	c #998989",
"Q 	c #DF0000",
"R 	c #C70000",
"S 	c #935454",
"T 	c #B8BABA",
"U 	c #B6C0C0",
"V 	c #BC1414",
"W 	c #E30000",
"X 	c #D50000",
"Y 	c #C10000",
"Z 	c #BD0000",
"` 	c #BC0000",
" .	c #B80000",
"..	c #CB0000",
"+.	c #F20000",
"@.	c #A20000",
"#.	c #500000",
"$.	c #ED0303",
"%.	c #B1B6B6",
"&.	c #B7B7B7",
"*.	c #A19191",
"=.	c #BA0000",
"-.	c #D40000",
";.	c #E80000",
">.	c #E60000",
",.	c #AB0000",
"'.	c #D20000",
").	c #830000",
"!.	c #C62B2B",
"~.	c #B9BABA",
"{.	c #BC4848",
"].	c #DA0000",
"^.	c #A60000",
"/.	c #D80000",
"(.	c #850000",
"_.	c #5E0000",
":.	c #8D0000",
"<.	c #8E7878",
"[.	c #B3BDBD",
"}.	c #EE0000",
"|.	c #B10000",
"1.	c #E20000",
"2.	c #480000",
"3.	c #939393",
"4.	c #815B5B",
"5.	c #760508",
"6.	c #780608",
"7.	c #8A0000",
"8.	c #770000",
"9.	c #5B0000",
"0.	c #940100",
"a.	c #543A50",
"b.	c #256D93",
"c.	c #0DA4DE",
"d.	c #12B1F0",
"e.	c #11B0EF",
"f.	c #0FA7E3",
"g.	c #1683B2",
"h.	c #4F3E55",
"i.	c #7F0D11",
"j.	c #CE0000",
"k.	c #670000",
"l.	c #810000",
"m.	c #C30000",
"n.	c #325C7C",
"o.	c #17A5E0",
"p.	c #14AAE6",
"q.	c #1F6D95",
"r.	c #B30A0E",
"s.	c #CD0000",
"t.	c #5C0000",
"u.	c #C90000",
"v.	c #7C0A0E",
"w.	c #0B94C8",
"x.	c #159AD1",
"y.	c #17A6E1",
"z.	c #17A0D9",
"A.	c #4D5676",
"B.	c #4E2C3B",
"C.	c #128EBF",
"D.	c #1595C9",
"E.	c #15AAE7",
"F.	c #1B8CBD",
"G.	c #A2232F",
"H.	c #8C0000",
"I.	c #460000",
"J.	c #560000",
"K.	c #AA0000",
"L.	c #374259",
"M.	c #118CBD",
"N.	c #138CBE",
"O.	c #169ED7",
"P.	c #12ABE8",
"Q.	c #882A39",
"R.	c #ED0000",
"S.	c #D00000",
"T.	c #A40000",
"U.	c #6C0000",
"V.	c #C20000",
"W.	c #6D0E13",
"X.	c #1185B4",
"Y.	c #138BBC",
"Z.	c #148FC2",
"`.	c #17A2DC",
" +	c #12AEEC",
".+	c #760304",
"++	c #880000",
"@+	c #8E0000",
"#+	c #8C0405",
"$+	c #63212D",
"%+	c #146D93",
"&+	c #0F92C5",
"*+	c #1391C4",
"=+	c #1598CF",
"-+	c #14B2F1",
";+	c #6B1219",
">+	c #EF0000",
",+	c #B30000",
"'+	c #8B0000",
")+	c #A90000",
"!+	c #A30000",
"~+	c #7F171F",
"{+	c #753A4D",
"]+	c #3D5F80",
"^+	c #1277A1",
"/+	c #0997CD",
"(+	c #0D9FD6",
"_+	c #0F9DD5",
":+	c #226385",
"<+	c #C80000",
"[+	c #590000",
"}+	c #AE0000",
"|+	c #D50101",
"1+	c #B20B0F",
"2+	c #870304",
"3+	c #530000",
"4+	c #E50000",
"5+	c #F10000",
"6+	c #BB0000",
"7+	c #690000",
"8+	c #7B0000",
"9+	c #E00000",
"0+	c #AC0000",
"a+	c #BB0202",
"b+	c #DD0000",
"c+	c #620000",
"d+	c #D60000",
"e+	c #B60000",
"f+	c #630000",
"g+	c #4A0000",
"h+	c #DB0000",
"i+	c #AD0000",
"j+	c #610000",
"k+	c #9F0000",
"l+	c #CC0000",
"m+	c #820000",
"n+	c #D30000",
"o+	c #E90000",
"p+	c #680000",
"q+	c #5A0000",
"r+	c #760000",
"s+	c #7A0000",
"t+	c #7F0000",
"                                                                                                    ",
"                                                                                                    ",
"                                        . + @ #                                                     ",
"                                        $ + + $ %                                                   ",
"                                        + + + + & *                                                 ",
"                                        + + + + + + =                                               ",
"                                        + + + + + + + -                                             ",
"                                      @ + + + + + + + + ;                                           ",
"                                      > , $ ' + + + + + )                                           ",
"                                      ! ~ { ] ^ / + + + + (                                         ",
"                                    _ + : < [ } | 1 2 3 ' ) 4                                       ",
"                                    5 @ + / 3 : 6 7 } 8 9 & 0                                       ",
"                                  a } b c + + + + d e f } ! 2 4                                     ",
"                                  g [ } h ) + + + + ' $ i j } k                                     ",
"                                + ' $ 6 } l m + + + + + ' n o }                                     ",
"                                + + + / p ~ q r + + + + + + @ m ^                                   ",
"                              @ + + + + + s q a t + + + + + + + c                                   ",
"                            u n & + + + + + s a a m + + + + + + $ v                                 ",
"          e w x     _ $ $ d y z A B C / , + + , f f > + + + + + + D                                 ",
"          } E F G H + + + + + + $ } I ; J D d $ & j K + + + + + + ) L                               ",
"        ! M N O P ' + + + + + + + a | 0 + Q + J c g } R ' + + + + + d                               ",
"        } S T U V W X Y Z `  ...+.} k / + / < { @.#.9 } s + + + + + '                               ",
"      ! $.%.&.*.=.-.;.j } } } } a >.@.+ + + @ ,.} '.z + =.t + + + + + ).                            ",
"      1 !.&.~.{.].& @ d _ ) ^.t d / + + + + + + ) f /.) (._.:.$ + + + $                             ",
"        <.&.[.D }.a |.' + + + + + + + + + + + + + > } 1.+ + . 2.d $ + + v                           ",
"          3.4.c ' 6 } o 0 + + + + + ) > / 5.6.7.t ) r } W @ + c 8.9.c + c                           ",
"            7.+ + @ ..} b $ + + + 0.a.b.c.d.e.f.g.h.i.: } j.@ + + ' k.l.c (.                        ",
"            7.+ + + / m.} K _ + + , n.o.o.o.o.o.o.o.p.q.r.} s.+ + + $ ( t.) k.                      ",
"              ( + + + / u.} 9 ' + + v.w.x.y.o.o.o.o.o.y.z.A.q ].d ' + + @ y 9.                      ",
"                y , + + & a f 0 + + , B.C.D.o.o.o.o.o.o.o.E.F.G.} 6 $ @ + ) H.I.                    ",
"                  J.H.$ K.~ j 0 + + + ) L.M.N.O.o.o.o.o.o.o.o.P.Q.R.} S.T.' + & U.                  ",
"                  + u C } } V.' + + + + + W.X.Y.Z.`.o.o.o.o.o.o. +.++ u.! l c + + ++                ",
"                  + $ _ ( @+& / + + + + + ) #+$+%+&+*+=+y.y.o.o.-+;++ ' ) 9 q >+,+d D               ",
"                ' + + + $ '+4 '+Y =.)+@.& & @.!+)+~+{+]+^+/+(+_+:+$ + + + ' _ <+| R.g (             ",
"                + + + + + + $ $ [+}+| } } } } } } } a } } |+1+2+) ' + + + + + + 3 R j I _           ",
"                _ ' + + + + + + + ' v 3+, & c , n c c c c !+4+} 5+}+@ + + + + + + + $ ..}  .        ",
"              f j ;.].u.` ,.t m ^.)+i 9 6+@.7+8+n $ + + + + @ ) 5 K { 9+0+3 / + + + + @ ^.| a+      ",
"              b+h ~ } } } } } } } } } ~ K b './ c+C - + & $ + + + 0 ^.d+8 } s.,.+ @ ' + + / R.      ",
"              ' @ @ c n 0+g e+^ i ^., d / + + + + c @ f+g+- 0 _ + + + + @ ^.d+a q h+i+, c ) ' 0+    ",
"            ;.@ + + + + + + + + + + + + + + + + + + + $ $ 3 :.( 3+3+v , & c $ n @.<+8 } } ~ 1.      ",
"            V.} s.> / + + + + + + + + + + + + + + + + + + $ c _ ( u             z j+t.c+            ",
"          ' ' i+h } < k+/ + + + + + + + + + + + + + $ $ 3 -                                         ",
"          + + + ' j.} } j.k++ + + + + + + + + + + $ ).                                              ",
"        + + + + + ' n S.} } 8 S.@.0 @ + + + , ).U.                                                  ",
"      ' + + + + + + + @ c e }.} } } 1 l+t m+                                                        ",
"    = + + + + + + + + + + + 0 T.n+o+I |.                                                            ",
"    p+) + + + + + + + + + + $ $ ( q+                                                                ",
"      C C r+s+(.0 0 '+t+p+U.                                                                        ",
"                                                                                                    ",
"                                                                                                    "};
