/* XPM */
static char * redship10_xpm[] = {
"50 50 252 2",
"  	c None",
". 	c #940000",
"+ 	c #950000",
"@ 	c #850000",
"# 	c #960000",
"$ 	c #980000",
"% 	c #970000",
"& 	c #7B0000",
"* 	c #630000",
"= 	c #9A0000",
"- 	c #8A0000",
"; 	c #C90000",
"> 	c #920000",
", 	c #AA0000",
"' 	c #FB0000",
") 	c #E40000",
"! 	c #990000",
"~ 	c #5E0000",
"{ 	c #930000",
"] 	c #CF0000",
"^ 	c #FF0000",
"/ 	c #C00000",
"( 	c #C50000",
"_ 	c #7D0000",
": 	c #BC0000",
"< 	c #A30000",
"[ 	c #FE0000",
"} 	c #9B0000",
"| 	c #F60000",
"1 	c #FC0000",
"2 	c #B60000",
"3 	c #E60000",
"4 	c #BB0000",
"5 	c #F50000",
"6 	c #9C0000",
"7 	c #FA0000",
"8 	c #A10000",
"9 	c #B00000",
"0 	c #EC0000",
"a 	c #720000",
"b 	c #9B9B9B",
"c 	c #BFBFBF",
"d 	c #9B8484",
"e 	c #F70101",
"f 	c #F70000",
"g 	c #A80000",
"h 	c #E10000",
"i 	c #580000",
"j 	c #920202",
"k 	c #A39E9E",
"l 	c #B8B7B7",
"m 	c #B7B8B8",
"n 	c #9A8686",
"o 	c #F30000",
"p 	c #ED0000",
"q 	c #B20000",
"r 	c #A60000",
"s 	c #DC0000",
"t 	c #6C0000",
"u 	c #770000",
"v 	c #810303",
"w 	c #B19292",
"x 	c #B9BABA",
"y 	c #A27B7B",
"z 	c #F00000",
"A 	c #CD0000",
"B 	c #CB0000",
"C 	c #E90000",
"D 	c #680000",
"E 	c #A70000",
"F 	c #EF0000",
"G 	c #D70404",
"H 	c #9E9B9B",
"I 	c #B7B7B7",
"J 	c #BCBCBC",
"K 	c #A17C7C",
"L 	c #E50000",
"M 	c #FD0000",
"N 	c #EB0000",
"O 	c #910000",
"P 	c #CC0000",
"Q 	c #8B0000",
"R 	c #F10000",
"S 	c #E00000",
"T 	c #D70000",
"U 	c #8F0000",
"V 	c #DE0404",
"W 	c #B5A6A6",
"X 	c #BBBBBB",
"Y 	c #565757",
"Z 	c #A00000",
"` 	c #6D0000",
" .	c #C10000",
"..	c #F80000",
"+.	c #AB0000",
"@.	c #C30000",
"#.	c #F90000",
"$.	c #940303",
"%.	c #9F9999",
"&.	c #ABAAAA",
"*.	c #AE0000",
"=.	c #E70000",
"-.	c #700000",
";.	c #BD0000",
">.	c #A40000",
",.	c #B70000",
"'.	c #890808",
").	c #7E0000",
"!.	c #D00000",
"~.	c #C60000",
"{.	c #D50000",
"].	c #E80000",
"^.	c #B80000",
"/.	c #610000",
"(.	c #B90000",
"_.	c #7C0000",
":.	c #D10000",
"<.	c #900000",
"[.	c #8E0000",
"}.	c #CA0000",
"|.	c #D30000",
"1.	c #89090C",
"2.	c #76141B",
"3.	c #5F232F",
"4.	c #582E3C",
"5.	c #A90000",
"6.	c #5C0000",
"7.	c #641218",
"8.	c #19759E",
"9.	c #1388B8",
"0.	c #1490C2",
"a.	c #15A6E1",
"b.	c #415675",
"c.	c #460000",
"d.	c #690000",
"e.	c #BA0000",
"f.	c #920101",
"g.	c #345473",
"h.	c #108DBE",
"i.	c #138DC0",
"j.	c #169DD5",
"k.	c #17A6E1",
"l.	c #16AAE7",
"m.	c #4E3F56",
"n.	c #B30000",
"o.	c #7A0000",
"p.	c #6A0000",
"q.	c #560000",
"r.	c #8C0001",
"s.	c #1F6082",
"t.	c #138CBD",
"u.	c #1594C7",
"v.	c #17A6E2",
"w.	c #17A5E0",
"x.	c #12AFEE",
"y.	c #6F1117",
"z.	c #840000",
"A.	c #520000",
"B.	c #206588",
"C.	c #138BBC",
"D.	c #169ED7",
"E.	c #178BBD",
"F.	c #600000",
"G.	c #670000",
"H.	c #2D6587",
"I.	c #138DBF",
"J.	c #17A2DD",
"K.	c #17A8E4",
"L.	c #583548",
"M.	c #760000",
"N.	c #7F0000",
"O.	c #710000",
"P.	c #7F2E3E",
"Q.	c #128BBB",
"R.	c #17A1DA",
"S.	c #1C7AA5",
"T.	c #DA0000",
"U.	c #5D0000",
"V.	c #CC0E13",
"W.	c #0E92C6",
"X.	c #17A2DC",
"Y.	c #17A7E2",
"Z.	c #1B90C4",
"`.	c #8C0304",
" +	c #730000",
".+	c #BF0000",
"++	c #F20000",
"@+	c #B50000",
"#+	c #5A0000",
"$+	c #1F6C92",
"%+	c #16A2DD",
"&+	c #198FC2",
"*+	c #DB0000",
"=+	c #8C2330",
"-+	c #0F9AD1",
";+	c #1182B1",
">+	c #8C0709",
",+	c #D40000",
"'+	c #AD0000",
")+	c #DF0000",
"!+	c #AF0000",
"~+	c #A50000",
"{+	c #354A64",
"]+	c #17A3DD",
"^+	c #10AAE7",
"/+	c #5B526F",
"(+	c #D60000",
"_+	c #C40000",
":+	c #390000",
"<+	c #9E0000",
"[+	c #502B3B",
"}+	c #15ACE9",
"|+	c #15A6E2",
"1+	c #1B9AD1",
"2+	c #A31117",
"3+	c #8D0000",
"4+	c #AC0000",
"5+	c #E20000",
"6+	c #55212E",
"7+	c #206587",
"8+	c #7E2634",
"9+	c #FC0202",
"0+	c #880000",
"a+	c #C80000",
"b+	c #620000",
"c+	c #810000",
"d+	c #9D0000",
"e+	c #B10000",
"f+	c #5B0000",
"g+	c #890000",
"h+	c #670303",
"i+	c #470000",
"j+	c #DE0000",
"k+	c #D20000",
"l+	c #8C0000",
"m+	c #740000",
"n+	c #830000",
"o+	c #750000",
"p+	c #6B0000",
"q+	c #C20000",
"r+	c #A20000",
"s+	c #780000",
"t+	c #D90000",
"u+	c #EE0000",
"v+	c #430000",
"w+	c #6B0909",
"x+	c #D20606",
"y+	c #6F0000",
"z+	c #B40000",
"A+	c #4C0000",
"B+	c #E10A0A",
"C+	c #4F0707",
"                                                                                                    ",
"                                                                                                    ",
"                          . + +                                                                     ",
"                        @ # # #                                                                     ",
"                        $ # # # %                                                                   ",
"                      & # # # # #                                                                   ",
"                    * = # # # # # %                                                                 ",
"                    - # # # # # # + ;                                                               ",
"                    > # # # # # , ' ) !                                                             ",
"                  ~ $ # # # { ] ^ / + + (                                                           ",
"                  _ % # # . ) ^ : + # < [ ^                                                         ",
"                  # # # } | 1 2 + # { 3 ^ / . .                     4 5                             ",
"                  % # 6 7 [ 8 # # # 9 ^ 0 . # # #           a   b c d e ^                           ",
"                  + % f ^ g + # # > h 1 ! # # # # #   i > + % j k l m n o [                         ",
"                  { p ^ q + # # # r ^ s # # # # 6 t u $ # # # # v w l x y z 1                       ",
"                  A ^ B + # # # # C 1 { # # % > D - % # # # . E F G H I J K L                       ",
"                  M N O # # # # $ ' P + # # Q @ R > # # % 8 S ^ T U V W I X Y                       ",
"                  [ Z # # # # . ; ^ < # # _ ` ^ ^  .Z : z ^ ..+.. @.#.$.%.&.                        ",
"                  *.. # # # # # ' =.O $ -.# % ;.^ ^ ^ ^ ../ . # >.^ ,.# '.                          ",
"                  # # # # # # r ^ 9 % ).!.! # + ~.3 {.q O # # + 0 ].O # # -                         ",
"                  # # # # # + ^.[ Z /.N r # # # # # # # # # # g ^ (.# # % _.                        ",
"                  + # # # # { :.5 i / p # # # # # # # # # # % | ' . # # O                           ",
"                  # # # # # <.R # [.^ >.# # # # % $ ! # # # < ^ / . # # -.                          ",
"                  # # # # # % }.[.|.h > # % . 1.2.3.4.% # + ,.^ 5.# # O                             ",
"                6.# # # # # 6 a # f : # ! 7.8.9.0.a.b.# # . ; ^ ^.{ + c.$                           ",
"                  # # # # % d.$ e.^ ! f.g.h.i.j.k.l.m.# # + n.^ ^ N o.. # #                         ",
"                p.# # # # q.! # 7 |.r.s.t.u.v.w.w.x.y.# # # . P #.^.z.# # # .                       ",
"                -.# # ! A.. # < ^ r B.C.D.w.w.w.w.E.} # # # # # $ F.# # # # #                       ",
"                G.# % a . # . ( ^ H.I.J.w.w.w.w.K.L.$ # # # > 4 -.$ # # # . , 7                     ",
"                M.# N.O.# # { 1 P.Q.R.w.w.w.w.v.S.% # # > E T.M.. # # . = {.^ ^ }.                  ",
"                z.! U.6 # + ( V.W.X.w.w.w.w.Y.Z.`.# . Z !.#. += # + $ .+^ ^ ++@+> =                 ",
"                + #+[.# # n.^ $+%+w.w.w.w.w.&+<.+ 8 *+^ 3 U.= # + e.M ^ ' 9 # # { ; {.              ",
"                z.- % + Z ^ =+-+w.w.w.w.K.;+>+] o ^ ,+8 6.<.'+)+#.^ R !+% + # + 4 M # %             ",
"                ~ # + ~+^ 2 {+]+w.w.w.^+/+' ^ #.] } @ - T.' ^ ..(+g O # # # # 9 ^ _+# # # .         ",
"              :+<+# 8 ^ ,.# [+}+v.|+1+2+^ L >.O # 3+[...N {.4+<.+ # # # # # 8 1 5+O # # # # $       ",
"              @ # + ^ ,.# # $ 6+7+8+9+!.$ # # % & 0+} $ # # # # # # # # # $ 1 ..! # # # # # # $     ",
"            F.= $ o a+. # # # $ 5.^ ~.{ # # = b+c+% # # # # # # # # # # E z [ d+# # # # # # # 6     ",
"            3+# ++s { # # # + E ^ e+{ # # <.f+g+# # # # # # # # # # + >.7 7 >.+ # # # # # $ Q h+    ",
"          i++ j+3 + # # # # ~+^ '++ # # { q.= # # # # # # # # # # # *.^ [ >.# # # # # # > U.        ",
"          U k+++{ # # # + : ^ !++ # d+q.- # # # # # # # # # # # <.S ^ ' >.+ # # # ! U ~             ",
"          2 ^ d+# # # { A 1 , . # l+~ . # % # % $ % % $ ! $ % +...^ s = ! % [.M.u                   ",
"        m+^ E # # # # P 7 d+# $ u D . Q Q n+- n+o+).c+o+p+p. +q+r+0+s+a /.                          ",
"        !.t++ # # + =.u+> # ! v+c.                                                                  ",
"      w+M # # . <+5 (+} # F.                                                                        ",
"      x+,++ . ~.^ ; @ y+                                                                            ",
"      9 4+z+| 3 + A+                                                                                ",
"        0+B+C+                                                                                      ",
"                                                                                                    ",
"                                                                                                    ",
"                                                                                                    "};
