/* XPM */
static char * redship06_xpm[] = {
"50 50 239 2",
"  	c None",
". 	c #9F0303",
"+ 	c #CF0000",
"@ 	c #D40606",
"# 	c #8E0202",
"$ 	c #C70000",
"% 	c #940000",
"& 	c #9D0000",
"* 	c #EA0000",
"= 	c #F90000",
"- 	c #A80000",
"; 	c #640000",
"> 	c #C80707",
", 	c #950000",
"' 	c #B30000",
") 	c #FF0000",
"! 	c #D70000",
"~ 	c #8C0000",
"{ 	c #830000",
"] 	c #820101",
"^ 	c #F30000",
"/ 	c #970000",
"( 	c #960000",
"_ 	c #9B0000",
": 	c #EE0000",
"< 	c #E20000",
"[ 	c #990000",
"} 	c #710000",
"| 	c #BE0000",
"1 	c #910000",
"2 	c #E30000",
"3 	c #F20000",
"4 	c #4B0000",
"5 	c #610000",
"6 	c #6F0000",
"7 	c #A40000",
"8 	c #FD0000",
"9 	c #A00000",
"0 	c #890000",
"a 	c #590000",
"b 	c #8E0000",
"c 	c #840000",
"d 	c #8F0000",
"e 	c #DD0000",
"f 	c #BB0000",
"g 	c #7A0000",
"h 	c #6A0000",
"i 	c #560000",
"j 	c #C80000",
"k 	c #F70000",
"l 	c #B40000",
"m 	c #5B0000",
"n 	c #930000",
"o 	c #A10000",
"p 	c #E90000",
"q 	c #980000",
"r 	c #8B0000",
"s 	c #740000",
"t 	c #8A0000",
"u 	c #EF0000",
"v 	c #BC0000",
"w 	c #FB0000",
"x 	c #AE0000",
"y 	c #9A0000",
"z 	c #720000",
"A 	c #D30000",
"B 	c #750000",
"C 	c #7B0000",
"D 	c #E70000",
"E 	c #DF0000",
"F 	c #A60000",
"G 	c #AB0000",
"H 	c #5A0000",
"I 	c #B10000",
"J 	c #6E0000",
"K 	c #920000",
"L 	c #A20000",
"M 	c #B80000",
"N 	c #580000",
"O 	c #A30000",
"P 	c #FA0000",
"Q 	c #7D0000",
"R 	c #6B0000",
"S 	c #F60000",
"T 	c #C60000",
"U 	c #AC0000",
"V 	c #8D0000",
"W 	c #AA0000",
"X 	c #AF0000",
"Y 	c #6D1A23",
"Z 	c #0C85B4",
"` 	c #0885B4",
" .	c #59445B",
"..	c #DA0B0F",
"+.	c #E00000",
"@.	c #6D0000",
"#.	c #B60000",
"$.	c #A50000",
"%.	c #EC0000",
"&.	c #3B0000",
"*.	c #108ABA",
"=.	c #17A5E0",
"-.	c #169DD6",
";.	c #1187B6",
">.	c #8F1F2A",
",.	c #C00000",
"'.	c #870000",
").	c #CA0000",
"!.	c #9C0000",
"~.	c #FE0000",
"{.	c #570000",
"].	c #7C0000",
"^.	c #BD0000",
"/.	c #0E8CBE",
"(.	c #17A3DE",
"_.	c #108DBF",
":.	c #4D4C67",
"<.	c #D90000",
"[.	c #5E0000",
"}.	c #B90000",
"|.	c #E50000",
"1.	c #F00000",
"2.	c #B70000",
"3.	c #690000",
"4.	c #744158",
"5.	c #17A6E1",
"6.	c #17A5DF",
"7.	c #1192C5",
"8.	c #14739B",
"9.	c #850202",
"0.	c #B50000",
"a.	c #DE0000",
"b.	c #5C0000",
"c.	c #C30000",
"d.	c #CC0000",
"e.	c #F80000",
"f.	c #E50709",
"g.	c #179BD2",
"h.	c #17A5E1",
"i.	c #148EC0",
"j.	c #137CA7",
"k.	c #8A0507",
"l.	c #900000",
"m.	c #A90000",
"n.	c #D20000",
"o.	c #B3151D",
"p.	c #13A6E2",
"q.	c #17A2DD",
"r.	c #138ABB",
"s.	c #1180AC",
"t.	c #890305",
"u.	c #670000",
"v.	c #800000",
"w.	c #69445D",
"x.	c #13ACE9",
"y.	c #169FD8",
"z.	c #138CBD",
"A.	c #384861",
"B.	c #9F0000",
"C.	c #C10000",
"D.	c #EB0000",
"E.	c #1D7AA5",
"F.	c #17A8E4",
"G.	c #1493C8",
"H.	c #0B92C6",
"I.	c #6C1218",
"J.	c #B20000",
"K.	c #440000",
"L.	c #1C83B1",
"M.	c #17A6E2",
"N.	c #138EC0",
"O.	c #2D5B7C",
"P.	c #660000",
"Q.	c #FC0000",
"R.	c #8F0303",
"S.	c #1886B6",
"T.	c #169AD0",
"U.	c #1B779F",
"V.	c #A70000",
"W.	c #B00000",
"X.	c #850000",
"Y.	c #680000",
"Z.	c #E60000",
"`.	c #47445C",
" +	c #0EABE8",
".+	c #17A7E3",
"++	c #1289BA",
"@+	c #530000",
"#+	c #7A090C",
"$+	c #385F81",
"%+	c #2487B7",
"&+	c #1896CC",
"*+	c #0EA0DA",
"=+	c #830607",
"-+	c #780000",
";+	c #D00000",
">+	c #8E0001",
",+	c #8B0606",
"'+	c #7E0000",
")+	c #CD0000",
"!+	c #630000",
"~+	c #CE0000",
"{+	c #5D0000",
"]+	c #F40000",
"^+	c #D80000",
"/+	c #C90000",
"(+	c #856363",
"_+	c #8D6666",
":+	c #BEC0C0",
"<+	c #9E9E9E",
"[+	c #DC0000",
"}+	c #9A6363",
"|+	c #B8BDBD",
"1+	c #B7B8B8",
"2+	c #AEAAAA",
"3+	c #F10000",
"4+	c #500000",
"5+	c #976464",
"6+	c #B7B7B7",
"7+	c #A8A7A7",
"8+	c #DF0505",
"9+	c #AD0000",
"0+	c #C20000",
"a+	c #6C0000",
"b+	c #8C6666",
"c+	c #B9BCBC",
"d+	c #9FA3A3",
"e+	c #D80E0E",
"f+	c #F50000",
"g+	c #880000",
"h+	c #815E5E",
"i+	c #BEC2C2",
"j+	c #A7A7A7",
"k+	c #D70D0D",
"l+	c #949494",
"m+	c #AFAAAA",
"n+	c #E00505",
"o+	c #E10000",
"p+	c #660606",
"                                                                                                    ",
"                                                                                                    ",
"                                                                                                    ",
"                                                                                                    ",
"        . + @ #                                                                                     ",
"        $ % & * = - ;                                                                               ",
"        > - , , ' ) ! ~ {                                                                           ",
"        ] ^ / ( , _ : < ( [ }                                                                       ",
"          ^ | % ( ( 1 2 3 & , [ 4 5 6                                                               ",
"          [ ) 7 ( ( ( % + 8 9 ( ( 0 a _ ( / / [ ( , ( ( b c d % 2 e f 1 ~ g h                       ",
"          i j k , ( ( ( , f = l ( / b m n / ( ( ( ( ( ( ( / ( ( o : ) p _ / q / b r s               ",
"            t ! u % ( ( ( % v w x , ( y ; z y ( ( ( ( ( ( ( ( ( ( , A ) w 7 ( ( ( ( q / B           ",
"            C % D E , ( ( ( ( F ) G , ( ( t H , ( ( ( ( ( ( ( ( ( ( , I w w & ( ( ( ( ( ( q J       ",
"              , y = $ K ( ( ( ( L 8 M % ( ( / N % ( ( ( ( ( ( ( ( ( ( ( O ) P & ( ( ( ( ( ( ( % Q   ",
"              R ( y S T , ( ( q % U ) j K ( ( [ R Q , ( ( ( ( ( ( ( ( ( , 9 3 P [ ( ( ( ( ( ( ( V   ",
"                / ( W P X , q Y Z `  ...+.- ( % / @.F #.$.& % % ( ( ( ( ( ( q P %.n ( ( ( ( ( ( 1   ",
"                &.( ( $.) W ( *.=.=.-.;.>.) k ,.y ( '.9 ) ) ^ ).!.( ( ( ( ( ( 9 ~.e ( ( ( ( / /     ",
"                {.]./ , O ~.^./.=.=.=.(._.:.<.w ) D $.~ [.}.|.) ) 1.| K , ( ( , 2.) - , q /         ",
"                  3.0 ( , U ) 4.5.=.=.=.6.7.8.9.0.a.) %.0.b.q !.c.%.) = d.y n ( K ,.e.q             ",
"                  / m q ( , v f.g.h.=.=.=.6.i.j.k.% n c.e.|.[./ ( l.m.%.) ) d.!., n 2               ",
"                  q [ ; ( ( n n.o.p.=.=.=.=.q.r.s.t.( ( , ,.p u.q ( ( ( x e.) ~.}.(                 ",
"                  q ( v.]./ ( O ) w.x.=.=.=.=.y.z.A.& ( ( % B.l z _ ( ( , / C.) )                   ",
"                  ( ( y {., ( % u D.E.F.=.=.=.=.G.H.I.( ( ( ( n K s / ( ( ( % J.:                   ",
"                  q ( ( / K.[ , ' ) K L.h.=.=.=.M.N.O./ ( ( ( ( _ d r ( ( ( ( /                     ",
"                  % ( ( ( ( P.y q Q.v R.S.F.=.=.=.T.U._ ( ( ( V.w ) W./ ( ( q                       ",
"                  l.( ( ( ( X.Y.( a.Z.K l.`. +.+=.5.++q ( ( / Q.) a.G @+q (                         ",
"                  n ( ( ( ( % V.v.!.) q ( _ #+$+%+&+*+=+( ( q ~.) 1 ( % -+1                         ",
"                  n ( ( ( ( ( X c.{ < ;+( ( ( / y y >+,+( ( % %.) % ( ( 3.                          ",
"                  c / ( ( ( ( 9 ) c % 8 q ( ( ( ( ( ( ( ( ( , | ) J.( ( [ u.                        ",
"                  '+/ ( ( ( ( [ ) c.5 + )+% ( ( ( ( ( ( ( ( ( ( e.E n ( ( r                         ",
"                  r / ( ( ( ( n * 1.q !+3 L ( ( , [ _ , % ( ( ( ~+) y ( ( ,                         ",
"                  d ( ( ( ( ( , ^.) O / {+j K ( V.8 ) ]+d.y ( ( 1 k E ( ( q                         ",
"                  ^+F ( ( ( ( ( q Q./+, q 6 9 [ w ) Q.= ) Q.^+, , ' ) & % (+                        ",
"                  d.k [ ( ( ( ( ( * ^ l.( !.6 l.) +.d 1 m.! 8 ) v b n.D._+:+<+                      ",
"                  U ) [+% ( ( ( ( W.) 0.( ( q c n J.( ( ( % % n.~.E _ }+|+1+2+                      ",
"                  V < ) ,., ( ( ( 1 3 3+, ( ( ( / 4+q ( ( ( ( ( [ 2 5+6+6+7+8+'                     ",
"                  c ( ^ 8 9+% ( ( ( 0+) f % ( ( ( , a+h y ( ( ( , b+c+6+d+e+)                       ",
"                  z q & f+) V.( ( ( ( w ~.y ( ( ( (       g+n / h+i+1+j+k+)                         ",
"                    q ( [ k w & ( ( % ,.) ~+% ( q                 l+m+n+)                           ",
"                    , ( ( [ 3 ~.9+% ( [ w ) v /                       o                             ",
"                    V ( ( ( , o+) c.1 , x ~.^                                                       ",
"                    g+( ( ( ( K A ) )+% (                                                           ",
"                    3.[ ( ( ( ( ( B.1.:                                                             ",
"                      , ( ( ( ( ( ( q                                                               ",
"                      6 / ( ( ( ( /                                                                 ",
"                        q ( ( ( ( (                                                                 ",
"                        !+( ( ( q                                                                   ",
"                          , ( ( /                                                                   ",
"                          p+V 1                                                                     ",
"                                                                                                    "};
