/* XPM */
static char * redship00_xpm[] = {
"50 50 238 2",
"  	c None",
". 	c #6C0606",
"+ 	c #8C0000",
"@ 	c #960000",
"# 	c #970000",
"$ 	c #980000",
"% 	c #760000",
"& 	c #430000",
"* 	c #920000",
"= 	c #810000",
"- 	c #940000",
"; 	c #7D0000",
"> 	c #950000",
", 	c #750000",
"' 	c #930000",
") 	c #900000",
"! 	c #910000",
"~ 	c #840000",
"{ 	c #9C0000",
"] 	c #B60000",
"^ 	c #CB0000",
"/ 	c #D70000",
"( 	c #DF0000",
"_ 	c #ED0000",
": 	c #F10000",
"< 	c #F00000",
"[ 	c #EF0000",
"} 	c #E30000",
"| 	c #D30000",
"1 	c #B40000",
"2 	c #EB0000",
"3 	c #FE0000",
"4 	c #F70000",
"5 	c #F50000",
"6 	c #DE0000",
"7 	c #EE0000",
"8 	c #FC0000",
"9 	c #FF0000",
"0 	c #CA0000",
"a 	c #9E0000",
"b 	c #8E0000",
"c 	c #850000",
"d 	c #FD0000",
"e 	c #CD0000",
"f 	c #7E0000",
"g 	c #A00000",
"h 	c #8F0000",
"i 	c #990000",
"j 	c #A20000",
"k 	c #C50000",
"l 	c #F80000",
"m 	c #BE0000",
"n 	c #8D0000",
"o 	c #A10000",
"p 	c #BC0000",
"q 	c #F90000",
"r 	c #CE0000",
"s 	c #8B0000",
"t 	c #A90000",
"u 	c #E20000",
"v 	c #B20000",
"w 	c #EA0000",
"x 	c #D80000",
"y 	c #5D0000",
"z 	c #820000",
"A 	c #780000",
"B 	c #580000",
"C 	c #5E0000",
"D 	c #790000",
"E 	c #730000",
"F 	c #740000",
"G 	c #590000",
"H 	c #510000",
"I 	c #4C0000",
"J 	c #6E0000",
"K 	c #770000",
"L 	c #6C0000",
"M 	c #880000",
"N 	c #9B0000",
"O 	c #700000",
"P 	c #690000",
"Q 	c #630000",
"R 	c #710000",
"S 	c #E80000",
"T 	c #A80000",
"U 	c #C10000",
"V 	c #DD0000",
"W 	c #FB0000",
"X 	c #B80000",
"Y 	c #7B0000",
"Z 	c #660000",
"` 	c #9A0000",
" .	c #9F0000",
"..	c #670000",
"+.	c #480000",
"@.	c #280000",
"#.	c #830000",
"$.	c #F20000",
"%.	c #C30000",
"&.	c #4E0000",
"*.	c #787878",
"=.	c #A6AAAA",
"-.	c #7B0404",
";.	c #BA0000",
">.	c #BF0000",
",.	c #AF0000",
"'.	c #B00000",
").	c #8A0000",
"!.	c #800000",
"~.	c #410000",
"{.	c #C20000",
"].	c #AB2929",
"^.	c #BCC3C3",
"/.	c #B6BABA",
"(.	c #790505",
"_.	c #A50000",
":.	c #FA0000",
"<.	c #B50000",
"[.	c #7A0D11",
"}.	c #4D4057",
"|.	c #316589",
"1.	c #138CBD",
"2.	c #128DC0",
"3.	c #118EC1",
"4.	c #2976A0",
"5.	c #5D5674",
"6.	c #7D3F55",
"7.	c #B02634",
"8.	c #E70304",
"9.	c #F60000",
"0.	c #E50000",
"a.	c #AD2626",
"b.	c #B9BFBF",
"c.	c #970505",
"d.	c #CF0000",
"e.	c #EC0000",
"f.	c #920203",
"g.	c #365473",
"h.	c #13ADEB",
"i.	c #17A6E1",
"j.	c #17A5E0",
"k.	c #15A8E5",
"l.	c #0EABE8",
"m.	c #314760",
"n.	c #A70000",
"o.	c #E00000",
"p.	c #C90707",
"q.	c #AD2727",
"r.	c #B5BABA",
"s.	c #CE0505",
"t.	c #B90000",
"u.	c #870507",
"v.	c #1D8DC0",
"w.	c #552836",
"x.	c #B30000",
"y.	c #AF2727",
"z.	c #9B0505",
"A.	c #AB0000",
"B.	c #4A3A4F",
"C.	c #129CD3",
"D.	c #169FD7",
"E.	c #17A6E2",
"F.	c #463B51",
"G.	c #D20000",
"H.	c #B4BABA",
"I.	c #C60505",
"J.	c #CC0000",
"K.	c #5F1F2A",
"L.	c #167EAB",
"M.	c #128EC0",
"N.	c #1494C9",
"O.	c #169AD1",
"P.	c #16A0DA",
"Q.	c #17A2DC",
"R.	c #17A3DD",
"S.	c #16A1DB",
"T.	c #11A0D9",
"U.	c #137DA8",
"V.	c #7B0B0E",
"W.	c #B70000",
"X.	c #D90000",
"Y.	c #FB0303",
"Z.	c #BF0202",
"`.	c #AC2626",
" +	c #760505",
".+	c #373D53",
"++	c #1582B0",
"@+	c #1488B9",
"#+	c #138ABB",
"$+	c #128ABB",
"%+	c #1389B9",
"&+	c #1888B7",
"*+	c #1783B0",
"=+	c #206A90",
"-+	c #7F2735",
";+	c #C40000",
">+	c #B10000",
",+	c #601A1A",
"'+	c #9A9C9C",
")+	c #BBBFBF",
"!+	c #8F0102",
"~+	c #8A090C",
"{+	c #771218",
"]+	c #761117",
"^+	c #761218",
"/+	c #711218",
"(+	c #C50D11",
"_+	c #EB0608",
":+	c #F70101",
"<+	c #C60000",
"[+	c #C70000",
"}+	c #AD0000",
"|+	c #AE0000",
"1+	c #A60000",
"2+	c #720000",
"3+	c #890101",
"4+	c #D00000",
"5+	c #A40000",
"6+	c #680000",
"7+	c #870000",
"8+	c #6B0000",
"9+	c #650000",
"0+	c #9D0000",
"a+	c #E90000",
"b+	c #470000",
"c+	c #6A0000",
"d+	c #890000",
"e+	c #610000",
"f+	c #600000",
"g+	c #620000",
"h+	c #7A0000",
"i+	c #AC0000",
"j+	c #DC0000",
"k+	c #F30000",
"l+	c #C00000",
"m+	c #BD0000",
"n+	c #F40000",
"o+	c #6F0000",
"                    .                                                                               ",
"                  + @ # $ % &                                                                       ",
"                  @ @ @ @ @ # * =                                                                   ",
"                  * @ @ @ @ @ @ # - ;                                                               ",
"                    @ @ @ @ @ @ @ @ # @                                                             ",
"                    > @ @ @ @ @ @ @ @ @ @ ,                                                         ",
"                    > @ @ > - ' * ) ! ! ! - ~                                                       ",
"                    ) { ] ^ / ( _ : < [ < } | 1                                                     ",
"                    2 3 4 5 : < } 6 7 [ < 5 8 9 0                                                   ",
"                    $ $ # # @ @ @ @ @ @ @ # $ a ] $                                                 ",
"                    b ! - @ @ @ @ @ @ @ @ @ @ @ > # c                                               ",
"                    d 2 e 1 # ' @ @ @ @ @ @ @ @ @ @ $ f                                             ",
"                    4 8 9 9 9 | g # @ @ @ @ @ @ @ @ @ @ h                                           ",
"                    i { j k l 9 9 4 m * @ @ @ @ @ @ @ @ @ n                                         ",
"                    @ @ @ - * o p 2 9 q r @ > @ @ @ @ @ @ # s                                       ",
"                    @ @ @ @ @ @ @ ) t u 9 4 v ' @ @ @ @ @ @ @ -                                     ",
"                    @ @ @ @ @ @ @ @ @ @ i w 9 x $ @ @ @ @ @ @ @ @ y                                 ",
"                  ' a @ z A B C D E F G H I J c f K L M * a N $ @ @ O                               ",
"                  P Q R p S ^ g T U V W 9 u X > $ ) n Y L Z L % J J Y z                             ",
"              z ` $ @ @  .9 2 ! @ @ > * o / 8 W k j - @ @ @ @ $ N # s ..+.@.                        ",
"          #.@ @ @ @ @ @ o 9 $.) @ @ @ @ @ @ @ %.3 9 6 i @ @ @ @ @ @ @ @ @ @ > + &.                  ",
"      *.=.-.# @ @ > ) p 8 9 m > @ @ @ @ $ { g a j ;.9 9 _ >.,.'.` ` ` ` @ b b ) ' ).!.~.            ",
"  {.].^./.(.- ' _.0 :.9 5 <.' @ @ @ i [.}.|.1.2.2.3.4.5.6.7.8.9 9.4 4 4 9 d 9 4 $.0.V e N ..        ",
"  9 a.b./.c.d.:.9 q e.;.) @ @ @ @ f.g.h.i.j.j.j.j.j.j.j.i.k.l.m.) ' ' ' ) ) ` i n.v 0 o.4 9 p.      ",
"  9 q.b.r.s.V t.o i @ @ @ @ @ # u.v.i.j.j.j.j.j.j.j.j.j.j.j.j.i.w.i @ @ @ @ @ @ @ @ @ > # ` x.[     ",
"  9 y.b./.z.A.- h - @ @ @ @ @ # B.C.D.i.i.j.j.j.j.j.j.j.j.j.j.E.F.` @ @ @ @ @ @ @ @ @ @ @ ' * G.    ",
"  9 y.b.H.I.8 9 4 J.,.N - @ @ @ i K.L.M.N.O.D.P.Q.R.R.Q.R.S.T.U.V.> - - ' ' * * > # g n.W.X.Y.Z.    ",
"  W `.b./. +' o | 8 9 9 r # @ @ @ @ + .+++@+#+$+$+$+%+&+*+=+-+o.{.;+%.%.( ( q 4 d 9 9 d 7 >+        ",
"    ,+'+)+(.# @ > ` A.2 9 l o @ @ @ @ $ !+~+{+]+^+/+(+_+:+< ( 6 <+[+<+<+m }+|+1+o o o 2+            ",
"          3+@ @ @ @ @ * r 9 S ! @ @ @ @ @ @ ' a e 4 3 4+5+! ' * - - - - - @ $ N ; 6+                ",
"            b - # # @ @ ` d : ) @ @ @ > > j d.9 5 x - > @ @ @ @ $ $ $ ) 7+; 8+                      ",
"                9+!.> > U 9 X.' @ > 0+[+q 9 a+g @ @ @ @ @ # # n H b+&.L c+                          ",
"                  c c #.d+7+e+c+K ~ n a = O f+g+8+P y ..h+~ #.~ - i n                               ",
"                    # @ # i { ` N ` N ) + ,.7 9 k N N i # @ @ @ i z                                 ",
"                    @ @ @ @ @ @ @ > # 1+_ 9 } ' @ @ @ @ @ @ @ @ P                                   ",
"                    @ @ @ @ @ > * m 9.9 3 i+@ @ @ @ @ @ @ @ @ c+                                    ",
"                    - ' ) { [+} q 9 e.t.# > @ @ @ @ @ @ @ $ f+                                      ",
"                    0 j+k+9 9 q 6 |+) > @ @ @ @ @ @ @ @ @ 6+                                        ",
"                    8 3 W $.,.) > @ @ @ @ @ @ @ @ @ @ >                                             ",
"                    A.a ` @ @ @ @ @ @ @ @ @ @ @ @ @ h                                               ",
"                    h ' > > @ @ @ @ @ @ @ > * ) > @                                                 ",
"                    a+| l+m+>+}+1+_.i+i+'.l+o.n+W                                                   ",
"                    > l+< 3 3 9 9 9 9 9 9 9 3 k+                                                    ",
"                    > > - i a o _.1+1+1+_.j ` f+                                                    ",
"                    > @ @ @ @ @ @ @ @ @ @ n                                                         ",
"                    @ @ @ @ @ @ @ @ @ @ +                                                           ",
"                    @ @ @ @ @ @ @ @ ' &.                                                            ",
"                  @ @ @ @ @ @ $ > o+                                                                ",
"                  - @ @ $ h z E                                                                     ",
"                    ' ).y                                                                           "};
