/* XPM */
static char * redship05_xpm[] = {
"50 50 246 2",
"  	c None",
". 	c #D30101",
"+ 	c #C80D0D",
"@ 	c #D70000",
"# 	c #970000",
"$ 	c #F00000",
"% 	c #AD0303",
"& 	c #F20000",
"* 	c #920000",
"= 	c #930000",
"- 	c #FA0000",
"; 	c #AC0000",
"> 	c #650000",
", 	c #960000",
"' 	c #AF0000",
") 	c #FE0000",
"! 	c #940000",
"~ 	c #670000",
"{ 	c #950000",
"] 	c #CC0000",
"^ 	c #E80000",
"/ 	c #8D0000",
"( 	c #640000",
"_ 	c #F50000",
": 	c #A80000",
"< 	c #9C0000",
"[ 	c #FD0000",
"} 	c #A60000",
"| 	c #830000",
"1 	c #6E0000",
"2 	c #CF0000",
"3 	c #D80000",
"4 	c #C80000",
"5 	c #E70000",
"6 	c #850000",
"7 	c #B00000",
"8 	c #F70000",
"9 	c #F90000",
"0 	c #6A0000",
"a 	c #9E0000",
"b 	c #FF0000",
"c 	c #D50000",
"d 	c #E20000",
"e 	c #980000",
"f 	c #440000",
"g 	c #600000",
"h 	c #DA0000",
"i 	c #C30000",
"j 	c #9F0000",
"k 	c #840000",
"l 	c #6D0000",
"m 	c #520000",
"n 	c #9A0000",
"o 	c #AB0000",
"p 	c #CE0000",
"q 	c #EA0000",
"r 	c #800000",
"s 	c #9B0000",
"t 	c #FB0000",
"u 	c #4C0000",
"v 	c #CB0000",
"w 	c #CD0000",
"x 	c #8B0000",
"y 	c #890000",
"z 	c #3F0000",
"A 	c #770000",
"B 	c #910000",
"C 	c #A00000",
"D 	c #990000",
"E 	c #4B0000",
"F 	c #8C0000",
"G 	c #8F0000",
"H 	c #AD0000",
"I 	c #970101",
"J 	c #810608",
"K 	c #8A0303",
"L 	c #F10000",
"M 	c #C20000",
"N 	c #700000",
"O 	c #5B0000",
"P 	c #660000",
"Q 	c #E40000",
"R 	c #930101",
"S 	c #227DA9",
"T 	c #14A2DD",
"U 	c #1288B8",
"V 	c #861F2A",
"W 	c #680000",
"X 	c #900000",
"Y 	c #740000",
"Z 	c #810D13",
"` 	c #14A6E1",
" .	c #17A5E0",
"..	c #0C90C2",
"+.	c #C0141C",
"@.	c #7E0000",
"#.	c #540000",
"$.	c #7F0000",
"%.	c #B2151C",
"&.	c #13A7E2",
"*.	c #16A3DC",
"=.	c #1C698E",
"-.	c #C10000",
";.	c #7B0000",
">.	c #DF0000",
",.	c #B10000",
"'.	c #CD0A0D",
").	c #13A5E0",
"!.	c #1494C8",
"~.	c #713D52",
"{.	c #C50000",
"].	c #560000",
"^.	c #8E0000",
"/.	c #A40000",
"(.	c #F80203",
"_.	c #1C9AD1",
":.	c #169ED7",
"<.	c #1482B0",
"[.	c #A80508",
"}.	c #D90000",
"|.	c #8A0000",
"1.	c #BD0000",
"2.	c #A30000",
"3.	c #FE0101",
"4.	c #2B89B9",
"5.	c #17A5E1",
"6.	c #17A7E2",
"7.	c #1391C4",
"8.	c #265978",
"9.	c #AE0000",
"0.	c #D30000",
"a.	c #BF0000",
"b.	c #760000",
"c.	c #535775",
"d.	c #16A9E5",
"e.	c #159AD1",
"f.	c #1686B5",
"g.	c #900406",
"h.	c #B60000",
"i.	c #E90000",
"j.	c #C40000",
"k.	c #720000",
"l.	c #6E1922",
"m.	c #12AEEC",
"n.	c #16A0DA",
"o.	c #128BBC",
"p.	c #542633",
"q.	c #A20000",
"r.	c #CA0000",
"s.	c #690000",
"t.	c #A10000",
"u.	c #D40000",
"v.	c #4D0000",
"w.	c #1D85B5",
"x.	c #17A6E1",
"y.	c #138CBC",
"z.	c #146E96",
"A.	c #DE0000",
"B.	c #F60000",
"C.	c #4E435A",
"D.	c #17A8E4",
"E.	c #17A6E2",
"F.	c #1493C7",
"G.	c #0D89B9",
"H.	c #FC0000",
"I.	c #A90000",
"J.	c #D60000",
"K.	c #850406",
"L.	c #10A6E0",
"M.	c #169DD4",
"N.	c #0F91C4",
"O.	c #80080A",
"P.	c #F40000",
"Q.	c #EC0000",
"R.	c #69232F",
"S.	c #17A8E3",
"T.	c #1092C5",
"U.	c #7E090C",
"V.	c #F80000",
"W.	c #3B516D",
"X.	c #15A9E5",
"Y.	c #17A4DE",
"Z.	c #0C8CBD",
"`.	c #BB0000",
" +	c #B40000",
".+	c #3F4F6B",
"++	c #15A2DC",
"@+	c #16A6E2",
"#+	c #235B7A",
"$+	c #DB0000",
"%+	c #870406",
"&+	c #2079A4",
"*+	c #5D2837",
"=+	c #9D0000",
"-+	c #E30000",
";+	c #6F0000",
">+	c #A50000",
",+	c #860000",
"'+	c #D10000",
")+	c #940202",
"!+	c #B90000",
"~+	c #B20000",
"{+	c #610000",
"]+	c #EB0000",
"^+	c #6C0000",
"/+	c #C00000",
"(+	c #BA0000",
"_+	c #590000",
":+	c #AA0000",
"<+	c #880000",
"[+	c #B30000",
"}+	c #B50000",
"|+	c #C60000",
"1+	c #DC0000",
"2+	c #E00000",
"3+	c #800D0D",
"4+	c #BE0000",
"5+	c #870000",
"6+	c #D20000",
"7+	c #B60101",
"8+	c #CE2424",
"9+	c #857575",
"0+	c #BAC1C1",
"a+	c #A60202",
"b+	c #A13D3D",
"c+	c #AEAEAE",
"d+	c #B8B9B9",
"e+	c #B7B7B7",
"f+	c #B8B8B8",
"g+	c #E10000",
"h+	c #810101",
"i+	c #967D7D",
"j+	c #AFADAD",
"k+	c #B8BABA",
"l+	c #B9B9B9",
"m+	c #B3BFBF",
"n+	c #946E6E",
"o+	c #871818",
"p+	c #A4A4A4",
"q+	c #B9BFBF",
"r+	c #A19C9C",
"s+	c #B35555",
"t+	c #D40A0A",
"u+	c #9F8F8F",
"v+	c #AC2B2B",
"w+	c #7C0404",
"                                                                                                    ",
"                                                                                                    ",
"                        . +                                                                         ",
"                      @ # $ %                                                                       ",
"                      & * = - ;                                                                     ",
"                    > - * , ' ) !                                                                   ",
"                    ~ ) { , = ] ^ /                                                                 ",
"                    ( _ : , , < [ } |                                                               ",
"                    1 2 3 { , ! 4 5 = 6                                                             ",
"                    1 7 8 # , , # 9 7 # 1                                                           ",
"                    0 a b < , , , c d * e f                                                         ",
"                    g , h i ! , , = 9 j , k l                                                       ",
"                    m n o ) { , , { p q , # 0 < r                                                   ",
"                      s e t : , , , # [ # , ! u # # r                                               ",
"                      s { d v { , , = v w ! # r x , # # y                                           ",
"                    z A , } $ B , , # C b D , # E { , , # s F                                       ",
"                    G > , * $ H , I J K L M ! , D N # , , , , # ! O                                 ",
"                    * P # , i Q R S T U V b * , , W ! , , , , , , # { h                             ",
"                    X Y < , # b Z `  . ...+.p * , e g , , , , , , , { o [ M @.                      ",
"                  #.# $.B , B ^ %.&. . .*.=.8 -.{ , ;.B , , , , , , , ! >.b o * 0                   ",
"                  ;.# G A , , ,.'.). . . .!.~.b {.= # ].e , , , , , , , e [ 8 e # ^.                ",
"                  e , n E # , /.(._. . . .:.<.[.b }.* |.@ a { , , , , , { 1.b ,.{ # * W             ",
"                  , , n #.! , 2.3.4.5. . .6.7.8.9.b 0.* |.b a.= , , , , , # ) L = , , n b.          ",
"                @., , , |.^., /.b c.d. . . .e.f.g.' b ] ;.h.b i.s , , , , ! j.b o , , , D 6         ",
"                s , , , = k.e } b l.m. . . .n.o.p.D q.) r.s.9.b 9 t., , , , e 9 u.! , , , # 1       ",
"              r , , , , , v.s ; ) /.w. . . .x.y.z.n { q.b | n /.9 9 C , , , , A.B.G , , , , # P     ",
"              y , , , , , { 6 o ) a C.D. . .E.F.G./ , , h.5 l , q.8 H.q.{ , , I.b H , , , , , {     ",
"              D , , , , { J.;.} ) < K.L. . . .M.N.O., , { J.k., , j ) ) a , , X P.J., , , , , , X   ",
"            G , , , , , , Q./ 9.) n e R.S. . .n.T.U., , , ! 7 D , { } b P.= , { c q , , , , , , ,   ",
"            n , , , , , e V.I.x ) n , , W.X. .Y.Z./ , , , , # k.# , { -.b q * , 7 8 { , # e # , x   ",
"          I.`.{ , , , , s )  +( b < , , < .+++@+#+s , , , { s E # , , = $+b J., = B.! D             ",
"          B.>.* , , , , 2.b ; Y b j , , , # %+&+*+D , , =+Q.b -+F , , , { 8 ) } ,                   ",
"        ;+P.b ! , , , { o b >+,+'+} , , , , # , )+, , # L b b b ^., , , { !+[                       ",
"        @.2 b /., , , { ~+b q.e {+9., , , , , , , , , # H.]+=+n ^+D , , #                           ",
"        s >+b /+, , , { ~+b q., |.9.! { n e { , , , , 2.b (+, , _+< #                               ",
"        D { P.^ B , , { h.b C , { ;+# v t - 1.! , , { :+b ~+, , P <+                                ",
"      | , , '+b s , , { ~+b } , , b.1.b b b b >.{ , , a b ~+, , G                                   ",
"      r , , e b r., , { o b ,., , n @.b ; =+J.b h ! , D b [+, , D                                   ",
"      y , , = }.- e , , >+b !+, , , @.s , , = ] b i { e H.}+, , e                                   ",
"      x , , , t.b 1.! , q.b |+{ , , D ( D , , { 2 b ~+# B.a., , !                                   ",
"      X , , , = 2 ) =+, s [ }.= , , , ! _+e , , * 1+P.! 2+'+, 3+                                    ",
"      X , , , , s t 4+{ n - - * , e !     5+# , , * & 6+7+8+9+0+                                    ",
"      F , , , , { 9.b , # & )               5+, # , a+b+c+d+e+f+                                    ",
"      6 , , , , , , v g+                      r h+i+j+k+e+l+m+n+o+                                  ",
"      5+, , , , e D                               p+l+q+r+s+t+b                                     ",
"      k , , , D                                     u+v+9 b )                                       ",
"      w+# , #                                         q )                                           ",
"                                                                                                    ",
"                                                                                                    ",
"                                                                                                    "};
