/* XPM */
static char * redship14_xpm[] = {
"50 50 258 2",
"  	c None",
". 	c #770707",
"+ 	c #D80404",
"@ 	c #B90101",
"# 	c #7A0000",
"$ 	c #DC0000",
"% 	c #FC0000",
"& 	c #CE0000",
"* 	c #A80000",
"= 	c #800000",
"- 	c #4E0000",
"; 	c #940000",
"> 	c #BD0000",
", 	c #FF0000",
"' 	c #D20000",
") 	c #950000",
"! 	c #B80000",
"~ 	c #DB0B0B",
"{ 	c #670000",
"] 	c #8E0000",
"^ 	c #D90000",
"/ 	c #FE0000",
"( 	c #A20000",
"_ 	c #960000",
": 	c #F90000",
"< 	c #410303",
"[ 	c #3F0000",
"} 	c #8C0000",
"| 	c #990000",
"1 	c #980000",
"2 	c #E50000",
"3 	c #EE0000",
"4 	c #CB0000",
"5 	c #E40000",
"6 	c #690000",
"7 	c #6A0000",
"8 	c #610000",
"9 	c #5E0000",
"0 	c #6D0000",
"a 	c #740000",
"b 	c #6B0000",
"c 	c #770000",
"d 	c #870000",
"e 	c #7D0000",
"f 	c #620000",
"g 	c #9C0000",
"h 	c #E30000",
"i 	c #930000",
"j 	c #A30000",
"k 	c #650000",
"l 	c #840000",
"m 	c #D80000",
"n 	c #A90000",
"o 	c #970000",
"p 	c #4D0000",
"q 	c #F80000",
"r 	c #D60000",
"s 	c #F70000",
"t 	c #C50000",
"u 	c #480000",
"v 	c #8A0000",
"w 	c #9B0000",
"x 	c #F20000",
"y 	c #E60000",
"z 	c #830000",
"A 	c #660000",
"B 	c #A50000",
"C 	c #C30000",
"D 	c #920000",
"E 	c #EC0000",
"F 	c #D10000",
"G 	c #7F0000",
"H 	c #9E0000",
"I 	c #FB0000",
"J 	c #FD0000",
"K 	c #C70000",
"L 	c #910000",
"M 	c #790000",
"N 	c #9A0000",
"O 	c #B00000",
"P 	c #D30000",
"Q 	c #EB0000",
"R 	c #6C0000",
"S 	c #AD0000",
"T 	c #4A0000",
"U 	c #AF0000",
"V 	c #560000",
"W 	c #C60000",
"X 	c #FA0000",
"Y 	c #580000",
"Z 	c #EA0000",
"` 	c #8F0000",
" .	c #803547",
"..	c #326184",
"+.	c #4E3649",
"@.	c #AB0000",
"#.	c #B10000",
"$.	c #BE0000",
"%.	c #780000",
"&.	c #A70000",
"*.	c #CC0000",
"=.	c #C3141C",
"-.	c #158CBF",
";.	c #14ABE8",
">.	c #17A5E1",
",.	c #15AAE7",
"'.	c #521C26",
").	c #370000",
"!.	c #EF0000",
"~.	c #9F0000",
"{.	c #890000",
"].	c #C20000",
"^.	c #743F56",
"/.	c #15ABE9",
"(.	c #17A5E0",
"_.	c #16A4DE",
":.	c #20516D",
"<.	c #AE0000",
"[.	c #7C0000",
"}.	c #530000",
"|.	c #B90000",
"1.	c #E00000",
"2.	c #AA0000",
"3.	c #520000",
"4.	c #DB0000",
"5.	c #CA0000",
"6.	c #A10000",
"7.	c #2C80AC",
"8.	c #16A5E0",
"9.	c #17A6E1",
"0.	c #139AD1",
"a.	c #911820",
"b.	c #860000",
"c.	c #680000",
"d.	c #B50000",
"e.	c #E70000",
"f.	c #C80000",
"g.	c #9D0000",
"h.	c #5F0000",
"i.	c #C90000",
"j.	c #B70000",
"k.	c #8A0202",
"l.	c #1D7FAC",
"m.	c #17A7E2",
"n.	c #17A1DB",
"o.	c #1A7DA9",
"p.	c #FF0101",
"q.	c #C00000",
"r.	c #910102",
"s.	c #1B7AA5",
"t.	c #17A3DE",
"u.	c #0C90C4",
"v.	c #B40406",
"w.	c #490000",
"x.	c #8B0000",
"y.	c #CF0000",
"z.	c #E80000",
"A.	c #A00000",
"B.	c #336A90",
"C.	c #1390C3",
"D.	c #683B50",
"E.	c #BB0000",
"F.	c #5E1A24",
"G.	c #14A7E3",
"H.	c #17A4DE",
"I.	c #138CBE",
"J.	c #126488",
"K.	c #5C0000",
"L.	c #820000",
"M.	c #1991C5",
"N.	c #169ED7",
"O.	c #138EC0",
"P.	c #18729B",
"Q.	c #930203",
"R.	c #900000",
"S.	c #880B0F",
"T.	c #17A5DF",
"U.	c #1597CE",
"V.	c #128BBC",
"W.	c #1B749D",
"X.	c #D40000",
"Y.	c #640000",
"Z.	c #75151C",
"`.	c #16A5E1",
" +	c #17A1D9",
".+	c #138DC0",
"++	c #205A7B",
"@+	c #920101",
"#+	c #F50000",
"$+	c #710000",
"%+	c #700000",
"&+	c #BF0000",
"*+	c #582B3A",
"=+	c #15A8E4",
"-+	c #1298CD",
";+	c #0C92C6",
">+	c #196B91",
",+	c #612532",
"'+	c #7B0000",
")+	c #582E3D",
"!+	c #453E54",
"~+	c #562B3B",
"{+	c #760506",
"]+	c #E10000",
"^+	c #5D0000",
"/+	c #A60000",
"(+	c #810000",
"_+	c #DF0000",
":+	c #630000",
"<+	c #ED0000",
"[+	c #E90000",
"}+	c #B30000",
"|+	c #920303",
"1+	c #D00000",
"2+	c #9E9E9E",
"3+	c #A6A1A1",
"4+	c #800404",
"5+	c #F60000",
"6+	c #F10000",
"7+	c #BCBDBD",
"8+	c #B7B7B7",
"9+	c #B29696",
"0+	c #D40404",
"a+	c #760000",
"b+	c #7E0000",
"c+	c #987E7E",
"d+	c #B7B8B8",
"e+	c #A29F9F",
"f+	c #E80404",
"g+	c #570000",
"h+	c #B40000",
"i+	c #D70000",
"j+	c #730000",
"k+	c #9D8181",
"l+	c #B9BABA",
"m+	c #B6A8A8",
"n+	c #950404",
"o+	c #C40000",
"p+	c #AC0000",
"q+	c #720000",
"r+	c #A27575",
"s+	c #BCBCBC",
"t+	c #A39D9D",
"u+	c #860909",
"v+	c #5B0000",
"w+	c #A17575",
"x+	c #BABABA",
"y+	c #A6A6A6",
"z+	c #6F0000",
"A+	c #DA0000",
"B+	c #F30000",
"C+	c #474B4B",
"D+	c #F00000",
"E+	c #A40000",
"F+	c #DD0000",
"G+	c #750000",
"H+	c #510000",
"I+	c #540000",
"                                                                                                    ",
"                                                                                                    ",
"                                                                                                    ",
"                                                                                      . + @         ",
"                                                                                  # $ % & * =       ",
"                                                                            - ; > , ' ) ) ! ~       ",
"                                                                        { ] ) ^ / ( ; _ _ : <       ",
"                                                                    [ } | 1 2 3 | _ _ ; 4 5         ",
"                              6               7 8 9 0 a b c d | e f g _ | : h i _ _ _ j , }         ",
"                  k l _ ) _ ; m / , n _ _ _ _ _ _ _ _ _ _ _ o p ] _ _ 1 q r _ _ _ _ _ s t u         ",
"            { v ; o o _ _ w x , y g ) _ _ _ _ _ _ _ _ _ o z A i _ ) B , C D _ _ _ _ E F =           ",
"          G | _ _ _ _ ) H I J K L _ _ _ _ _ _ _ _ _ _ 1 0 M N _ ) n , O ; _ _ _ ; P Q N R           ",
"      v o _ _ _ _ _ _ H , , S _ _ _ _ _ _ _ _ _ _ _ D T _ _ _ _ B , U _ _ _ _ ) P s D _             ",
"    ) _ _ _ _ _ _ _ _ % / B ) _ _ _ _ _ _ _ _ _ _ D V ) _ _ ; > , O _ _ _ _ _ W X | _ Y             ",
"    ) _ _ _ _ _ _ ; Z I H ) _ _ _ _ _ _ ) i ` N _ 0 N _ ; _ 4 ,  ...+.1 _ ; @., B _ o               ",
"    L _ _ _ _ _ _ r , #._ _ _ _ _ ; 1 n $.^ X t %.o o &.*., =.-.;.>.,.'.o @., n ) o ).              ",
"        i _ _ ) S , ! ) _ _ _ _ | ' , , / !.~.{.o ]./ , , ^./.(.(.(._.:.<., B _ o [.}.              ",
"            _ o , |.) _ _ D S !.J , 1.2.~.3.v 4.X , 5.6.7.8.(.(.(.9.0.a., @.) _ b.c.                ",
"              *.1._ _ ; d.e., X f.g.D _ h.i., $ j._ k.l.m.(.(.(.(.n.o.p.q.i _ g.h.i                 ",
"                i ) &.3 , I m ` _ _ _ c / Q g.; _ r.s.(.(.(.(.(.t.u.v.5.i _ _ w.D x.                ",
"                  y., , z.| _ _ _ 1 R X A._ _ _ 1 B.9.(.(.(.(.(.C.D.% | _ _ ] v _ }                 ",
"                    , E.i _ _ _ _ }.O ) _ _ _ o F.G.(.(.(.(.H.I.J., h _ _ x.K._ o L.                ",
"                      ; _ _ _ o e 1 D _ _ _ _ i M.(.(.(.9.N.O.P.Q., A._ N k w _ _ {.                ",
"                      R._ _ _ ] ; , ].) _ _ _ S.n.(.(.T.U.V.W._ X.q R.o K.o _ _ o e                 ",
"                        ; _ H Y.E , , i._ _ o Z.`.>. +.+O.++@+_ #+& _ $+z _ _ _ 1 %+                ",
"                          o V o D &+, z._ _ | *+=+-+;+>+,+1 ) B , | ] v o _ _ _ 1 %.                ",
"                            '+_ _ B , F _ _ | )+!+~+{+H o _ ; ]+y.d _ | _ _ _ _ 1 M                 ",
"                          ^+1 _ _ ]., #._ _ _ _ _ _ _ _ _ _ j , /+(+: 1 _ _ _ _ 1 R                 ",
"                          L _ _ o x #+R._ _ _ _ _ _ _ _ _ D r _+:+4.<+_ _ _ _ _ 1 {                 ",
"                          _ _ _ ( , > _ _ _ _ ) i ) _ _ _ S 3 ^+R., ' _ _ _ _ _ 1 c.                ",
"                        $+_ _ ; [+s L _ ) 1 &.$.F ! ; _ i i.^+1 }+, n _ _ _ _ _ 1 %+                ",
"                          |+_ 2., &._ ) U X , , , , 1+_ #.%+_ _ 2 #+D _ _ _ _ _ U f.                ",
"                        2+3+4+5+F ; n 6+, #+E.&.}+, % $+G o _ ; I X.) _ _ _ _ R.% g.                ",
"                        7+8+9+0+` i., h }+D ) _ ; E 2.a+o _ ; ]., B _ _ _ _ _ z., b+                ",
"                      t c+d+8+e+f+q <.i _ _ _ _ R.g+| _ _ _ N , 3 R._ _ _ ) h+, i+j+                ",
"                      X : k+l+8+m+n+_ _ _ _ 1 [.%._ _ _ _ ; o+, p+_ _ _ _ n , % o q+                ",
"                        / 5+r+s+8+t+u+_ 1 x.{   ) _ _ _ _ g., X _ _ _ _ S J / 6.1 v+                ",
"                          J 5+w+x+y+  d z+        ; _ _ i A+, 2.) _ ) g B+: H _ N                   ",
"                            I y C+                  L _ O , D+_ _ _ E+, / ~._ _ v                   ",
"                                                        I , U _ ) j./ #+N _ _ _ q+                  ",
"                                                          C i i ]., F+_ _ _ _ _ G+                  ",
"                                                            | F X $.D _ _ _ _ |                     ",
"                                                              4 _ _ _ _ _ _ _ ]                     ",
"                                                                _ _ _ _ _ _ _ H+                    ",
"                                                                  ) _ _ _ _ R.                      ",
"                                                                  i _ _ _ o I+                      ",
"                                                                    _ _ _ v                         ",
"                                                                      o w 9                         ",
"                                                                                                    ",
"                                                                                                    "};
