/* XPM */
static char * redship_xpm[] = {
"50 50 247 2",
"  	c None",
". 	c #6A0000",
"+ 	c #890202",
"@ 	c #770808",
"# 	c #DA0000",
"$ 	c #BB0000",
"% 	c #D60202",
"& 	c #F60303",
"* 	c #A00000",
"= 	c #920000",
"- 	c #F90101",
"; 	c #430000",
"> 	c #7E0000",
", 	c #FB0000",
"' 	c #990000",
") 	c #930000",
"! 	c #D60000",
"~ 	c #C40000",
"{ 	c #BA0000",
"] 	c #F40000",
"^ 	c #950000",
"/ 	c #960000",
"( 	c #B70000",
"_ 	c #660000",
": 	c #D50000",
"< 	c #CC0000",
"[ 	c #A80000",
"} 	c #FD0000",
"| 	c #790000",
"1 	c #820000",
"2 	c #E80000",
"3 	c #B90000",
"4 	c #A10000",
"5 	c #FF0000",
"6 	c #A20000",
"7 	c #910000",
"8 	c #F20000",
"9 	c #AA0000",
"0 	c #9B0000",
"a 	c #640000",
"b 	c #FA0000",
"c 	c #7B0000",
"d 	c #8F0000",
"e 	c #900000",
"f 	c #A50000",
"g 	c #9C0000",
"h 	c #280000",
"i 	c #8E0000",
"j 	c #FC0000",
"k 	c #A60000",
"l 	c #980000",
"m 	c #6B0000",
"n 	c #2E0000",
"o 	c #E90000",
"p 	c #A70000",
"q 	c #7A0000",
"r 	c #730000",
"s 	c #4A0000",
"t 	c #A30000",
"u 	c #EA0000",
"v 	c #BD0000",
"w 	c #840000",
"x 	c #7F0000",
"y 	c #A40000",
"z 	c #F10000",
"A 	c #940000",
"B 	c #CE0000",
"C 	c #BF0000",
"D 	c #610000",
"E 	c #690000",
"F 	c #9D0000",
"G 	c #CF0000",
"H 	c #470000",
"I 	c #780000",
"J 	c #970000",
"K 	c #940001",
"L 	c #420000",
"M 	c #890000",
"N 	c #680000",
"O 	c #700000",
"P 	c #9A0000",
"Q 	c #7E0303",
"R 	c #2385B5",
"S 	c #208BBC",
"T 	c #46232F",
"U 	c #C20000",
"V 	c #550000",
"W 	c #870000",
"X 	c #720000",
"Y 	c #1282B1",
"Z 	c #17A6E1",
"` 	c #17A6E2",
" .	c #0F8BBC",
"..	c #E60000",
"+.	c #D80000",
"@.	c #650000",
"#.	c #C8151C",
"$.	c #13ABE8",
"%.	c #17A5E0",
"&.	c #13A1D9",
"*.	c #6D3143",
"=.	c #D90000",
"-.	c #810000",
";.	c #6C0000",
">.	c #A03041",
",.	c #17A7E3",
"'.	c #17A2DC",
").	c #1A6284",
"!.	c #850000",
"~.	c #7C0000",
"{.	c #595775",
"].	c #16A2DB",
"^.	c #1884B3",
"/.	c #F50203",
"(.	c #AB0000",
"_.	c #770000",
":.	c #750000",
"<.	c #8D0000",
"[.	c #860000",
"}.	c #B00000",
"|.	c #4B6386",
"1.	c #16A1DB",
"2.	c #1786B5",
"3.	c #EF0406",
"4.	c #5E0000",
"5.	c #520000",
"6.	c #EE0000",
"7.	c #0D8ABC",
"8.	c #1389B9",
"9.	c #B70D11",
"0.	c #560000",
"a.	c #B60000",
"b.	c #AC0000",
"c.	c #AE0000",
"d.	c #0B95CB",
"e.	c #1289BA",
"f.	c #7F0F14",
"g.	c #E20000",
"h.	c #CD0000",
"i.	c #F60000",
"j.	c #DF0000",
"k.	c #EB0000",
"l.	c #9E0000",
"m.	c #16A1DA",
"n.	c #820F14",
"o.	c #C30000",
"p.	c #F80000",
"q.	c #C70000",
"r.	c #FE0000",
"s.	c #7D0000",
"t.	c #9F0000",
"u.	c #0B96CB",
"v.	c #169FD7",
"w.	c #128ABA",
"x.	c #F90000",
"y.	c #E00000",
"z.	c #D00000",
"A.	c #5B0000",
"B.	c #CA0000",
"C.	c #F00000",
"D.	c #108DBF",
"E.	c #169DD4",
"F.	c #1389BA",
"G.	c #840D12",
"H.	c #C10000",
"I.	c #510000",
"J.	c #EC0000",
"K.	c #CB0000",
"L.	c #4D0000",
"M.	c #BE0000",
"N.	c #326386",
"O.	c #1596CC",
"P.	c #1587B7",
"Q.	c #8C0406",
"R.	c #620000",
"S.	c #B10000",
"T.	c #C50000",
"U.	c #C80000",
"V.	c #F70000",
"W.	c #EF0000",
"X.	c #E30000",
"Y.	c #4F0000",
"Z.	c #54384C",
"`.	c #17A7E2",
" +	c #148FC2",
".+	c #176D93",
"++	c #E10000",
"@+	c #B20000",
"#+	c #ED0000",
"$+	c #800405",
"%+	c #11A9E5",
"&+	c #16A2DC",
"*+	c #0F8DBE",
"=+	c #5C1219",
"-+	c #580000",
";+	c #562634",
">+	c #169BD3",
",+	c #286689",
"'+	c #AF0000",
")+	c #570000",
"!+	c #D10000",
"~+	c #27698F",
"{+	c #1384B3",
"]+	c #A90000",
"^+	c #6E0000",
"/+	c #E50000",
"(+	c #73161E",
"_+	c #710000",
":+	c #E40000",
"<+	c #530000",
"[+	c #B50000",
"}+	c #C00000",
"|+	c #8C0000",
"1+	c #F30000",
"2+	c #C60000",
"3+	c #F50000",
"4+	c #760000",
"5+	c #D30000",
"6+	c #600000",
"7+	c #690303",
"8+	c #830000",
"9+	c #6A0303",
"0+	c #5D0000",
"a+	c #8A0000",
"b+	c #630000",
"c+	c #500000",
"d+	c #DE0000",
"e+	c #894D4D",
"f+	c #8F5858",
"g+	c #A75858",
"h+	c #BA5858",
"i+	c #B85858",
"j+	c #905858",
"k+	c #925A5A",
"l+	c #750E0E",
"m+	c #A4A4A4",
"n+	c #B8B8B8",
"o+	c #B7B7B7",
"p+	c #B2B2B2",
"q+	c #686868",
"r+	c #BBBEBE",
"s+	c #B7BABA",
"t+	c #B7BBBB",
"u+	c #7E7F7F",
"v+	c #D40808",
"w+	c #E70808",
"x+	c #E60808",
"                                                                                                    ",
"                                                . +                                                 ",
"                                              @ # $ %                                               ",
"                                              & * = - ;                                             ",
"                                            > , ' ) ! ~                                             ",
"                                            { ] ^ / ( ]                                             ",
"                                          _ : < / / [ } |                                           ",
"                                          1 2 3 / / 4 5 6                                           ",
"                                          7 8 9 / / 0 5 * _                                         ",
"                                        a = b 7 / / = 5 4 c                                         ",
"                                        / d 5 e / / = 5 f g h                                       ",
"                                        ^ i 5 7 / / = j k l m                                       ",
"                                      n / d 5 = / / ) o p / q                                       ",
"                                    r s / t 5 = / / ) u v ^ w x                                     ",
"                                    x | / y z ) / / A B C A i . D                                   ",
"                                  w E F / y 8 ) / / A G C A ' H 7                                   ",
"                                I J m 0 / y 8 ) ^ K A G C A l L l M                                 ",
"                              N J / O P / p 8 Q R S T B U A l V ^ J W                               ",
"                            m P / P X / / { 5 Y Z `  ...+.) / d w / J q                             ",
"                            7 / / g @./ / { #.$.%.%.&.*.=.) / / -./ / J r                           ",
"                          ^ / / / 0 ;./ / +.>.,.%.%.'.).} 7 / / !./ / / J x                         ",
"                        ^ / / / / ~.| / A , {.%.%.%.].^./.(./ / _.J / / / J :.                      ",
"                      <./ / / / / :.[.^ }.5 |.%.%.%.1.2.3.+.A / m ' / / / / / 4.                    ",
"                    = / / / / / / 5.g J b 6.7.%.%.%.1.8.9.5 P / 0.0 / / / / / l r                   ",
"                  a.^ / / / / / / c l b.5 c.d.%.%.%.1.e.f.6.g./ c 0 / / / / / / f h.                ",
"                i.4 / / / / / / 4 ~.^ j.k.l.d.%.%.%.m.e.n.o.p./ m ! / / / / / / ) 5 F               ",
"              q.r.' / / / / / / p.s.l.5 p t.u.%.%.%.v.w.n.' 5 (.4.5 F / / / / / e x.} X             ",
"            i y.p.l / / / / ) z.} A.B.C./ t.D.%.%.%.E.F.G.A H.] I.J.p.l / / / / = j.r.t.m           ",
"          e 7 C.] J / / / / (.5 K.L.z M./ 0 N.%.%.Z O.P.Q./ * 5 R.S.5 T.A / / / A U.5 t /           ",
"        X / e V.W./ / / / A X.V.= Y.5 ) / J Z.`.%.`. +.+^ / A b O / ++5 g / / / / @+5 f / i         ",
"        0 / e i.W./ / / / F 5 G / m #+) / / $+%+%.&+*+=+J / ^ o.d ' l.r.H.^ / / / S.5 f / J -+      ",
"      1 / / e V.o / / / ^ g.5 A / ~.B / / / ' ;+Z >+,+l / / / / W ' / ] x.e / / / '+5 f / / J       ",
"    )+l / / e p.! / / / P , !+A / x @+/ / / / / ~+{+d / / / / / q ' / (.5 { / / / ]+5 f / / / ^+    ",
"    i / / / = #+/+/ / ^ @+5 '+/ / ~.F / / / / / e (+J / / / / / _+' / ) i.:+^ / / c.5 6 / / / J     ",
"    ) / / / = ..6./ / ) z 5 l / / D 0 t.4 J / / / / / / ^ t.* 0 D P / ^ X.j A / / }.r.t./ / / l _+  ",
"  Y.J / / / A +.8 J / * 5 g.= / / <+, } r.g.7 / / / / / q.5 r.j N 0 / / U 5 [+/ ^ }+r.P / / / / ~.  ",
"  |+/ / / / / < 1+J ^ H.5 '+^ / / X #+5 5 5 2+/ / / / P r.5 3+5 -.' / / ' 5 i./ A 2+5 ^ / / / / )   ",
"  l / / / / / [+p.J = g.} F / / / 4+9 <.) ] } A / / A 8 5 b.d (.i / / / e 1+j g ) 5+# A / / / / l 6+",
"7+/ / / / / / ' } l e i., 0 / / / g m / / }.5 2+/ / k 5 K.) / / 8+/ / / = y.r.t.= y.k / / / / / / e ",
"9+J / / / i i           o 7 J / / F 0+/ / 7 z 1+/ ^ v r.4 / / [.a+J / / e T.            |+J / / J a+",
"    |+                              b+l / ^ T., P = X.i./ / J a                                 W   ",
"                                      P / / 4 5 4 e 5 ( ^ / J c+                                    ",
"                                      r / / 7 x.3 4 5 ) / / <.                                      ",
"                                        / l / G d+$ ] J ' l 1                                       ",
"                                          e+f+g+h+g+i+j+k+l+                                        ",
"                                          m+n+o+o+o+o+o+p+                                          ",
"                                          q+r+s+s+s+s+t+u+                                          ",
"                                            v+w+w+w+w+x+                                            ",
"                                            { b b b b V.                                            ",
"                                                                                                    "};
