/* XPM */
static char * redship12_xpm[] = {
"50 50 242 2",
"  	c None",
". 	c #DA0000",
"+ 	c #FB0000",
"@ 	c #FC0000",
"# 	c #FE0000",
"$ 	c #A70000",
"% 	c #930000",
"& 	c #EB0000",
"* 	c #E90000",
"= 	c #E70000",
"- 	c #E80000",
"; 	c #E20000",
"> 	c #9BA0A0",
", 	c #A8B5B5",
"' 	c #A7B3B3",
") 	c #A8B4B4",
"! 	c #A8B3B3",
"~ 	c #B0B1B1",
"{ 	c #B9BABA",
"] 	c #B7BABA",
"^ 	c #B8BABA",
"/ 	c #B8BBBB",
"( 	c #B9BBBB",
"_ 	c #8A8C8C",
": 	c #784D4D",
"< 	c #784F4F",
"[ 	c #B95050",
"} 	c #8D5050",
"| 	c #965050",
"1 	c #A45050",
"2 	c #7C5050",
"3 	c #6F4040",
"4 	c #7B0000",
"5 	c #960000",
"6 	c #970000",
"7 	c #950000",
"8 	c #FF0000",
"9 	c #A20000",
"0 	c #E10000",
"a 	c #D30000",
"b 	c #980000",
"c 	c #9A0000",
"d 	c #CF0000",
"e 	c #940000",
"f 	c #8A0000",
"g 	c #740000",
"h 	c #BF0000",
"i 	c #F80000",
"j 	c #B50000",
"k 	c #900000",
"l 	c #830000",
"m 	c #700000",
"n 	c #EC0000",
"o 	c #C10000",
"p 	c #3F0000",
"q 	c #840000",
"r 	c #9F0000",
"s 	c #F50000",
"t 	c #BD0000",
"u 	c #D20000",
"v 	c #750000",
"w 	c #A90000",
"x 	c #BA0000",
"y 	c #530000",
"z 	c #8F0000",
"A 	c #F60000",
"B 	c #990000",
"C 	c #660303",
"D 	c #820000",
"E 	c #AD0000",
"F 	c #6D0000",
"G 	c #8C0000",
"H 	c #E00000",
"I 	c #A50000",
"J 	c #810000",
"K 	c #870000",
"L 	c #FA0000",
"M 	c #610303",
"N 	c #710000",
"O 	c #D80000",
"P 	c #F70000",
"Q 	c #5D0000",
"R 	c #AA0000",
"S 	c #DC0000",
"T 	c #F30000",
"U 	c #C40000",
"V 	c #A80000",
"W 	c #920000",
"X 	c #A10000",
"Y 	c #910000",
"Z 	c #F00000",
"` 	c #CD0000",
" .	c #9B0000",
"..	c #6E0000",
"+.	c #9D0000",
"@.	c #860000",
"#.	c #C80000",
"$.	c #BC0000",
"%.	c #F90000",
"&.	c #8D0000",
"*.	c #BB0000",
"=.	c #AC0000",
"-.	c #780000",
";.	c #B30000",
">.	c #DF0000",
",.	c #7C0000",
"'.	c #E60000",
").	c #ED0000",
"!.	c #DE0000",
"~.	c #720000",
"{.	c #640000",
"].	c #B40000",
"^.	c #A00000",
"/.	c #6A0000",
"(.	c #9C0000",
"_.	c #9E0000",
":.	c #691A23",
"<.	c #8B080A",
"[.	c #730000",
"}.	c #B80000",
"|.	c #AB0000",
"1.	c #B20000",
"2.	c #B60000",
"3.	c #8B0405",
"4.	c #1793C7",
"5.	c #2F6183",
"6.	c #7A0000",
"7.	c #EA0000",
"8.	c #CA0000",
"9.	c #FD0000",
"0.	c #AE0000",
"a.	c #BE0000",
"b.	c #187097",
"c.	c #16A2DC",
"d.	c #14ADEC",
"e.	c #4B4158",
"f.	c #D10000",
"g.	c #C50000",
"h.	c #DB0000",
"i.	c #C90000",
"j.	c #C30000",
"k.	c #582D3D",
"l.	c #138EC1",
"m.	c #17A5DF",
"n.	c #17A5E0",
"o.	c #1598CE",
"p.	c #A30000",
"q.	c #E50000",
"r.	c #1F6083",
"s.	c #138DC0",
"t.	c #15AAE7",
"u.	c #4E2432",
"v.	c #DD0000",
"w.	c #760000",
"x.	c #CC0000",
"y.	c #0989B9",
"z.	c #1494C9",
"A.	c #17A7E2",
"B.	c #21729C",
"C.	c #B90000",
"D.	c #F20000",
"E.	c #610000",
"F.	c #CE0000",
"G.	c #68141C",
"H.	c #0E93C7",
"I.	c #169BD3",
"J.	c #199DD5",
"K.	c #910101",
"L.	c #F40000",
"M.	c #B70000",
"N.	c #F10000",
"O.	c #A40000",
"P.	c #5D1D27",
"Q.	c #1091C4",
"R.	c #16A3DD",
"S.	c #19A1DB",
"T.	c #8F0203",
"U.	c #C00000",
"V.	c #1092C6",
"W.	c #17A6E1",
"X.	c #1AA2DB",
"Y.	c #8C0203",
"Z.	c #EE0000",
"`.	c #B00000",
" +	c #D70000",
".+	c #5D1E28",
"++	c #17A6E2",
"@+	c #1AA1DB",
"#+	c #9C0203",
"$+	c #790000",
"%+	c #5F0000",
"&+	c #8D131A",
"*+	c #0D93C6",
"=+	c #1A9CD3",
"-+	c #E90101",
";+	c #670000",
">+	c #550000",
",+	c #0587B6",
"'+	c #16A7E3",
")+	c #316B91",
"!+	c #560000",
"~+	c #0C7EAA",
"{+	c #15A8E4",
"]+	c #495B7C",
"^+	c #620000",
"/+	c #385A79",
"(+	c #12ABE9",
"_+	c #951821",
":+	c #7F0000",
"<+	c #7E0000",
"[+	c #7E374A",
"}+	c #169DD4",
"|+	c #139FD8",
"1+	c #EF0000",
"2+	c #5E0000",
"3+	c #E40000",
"4+	c #C00C11",
"5+	c #17A5E1",
"6+	c #3277A1",
"7+	c #5D1B25",
"8+	c #157DA9",
"9+	c #236183",
"0+	c #820608",
"a+	c #5B0000",
"b+	c #D50000",
"c+	c #890000",
"d+	c #D40000",
"e+	c #850000",
"f+	c #6F0000",
"g+	c #570000",
"h+	c #4E0000",
"i+	c #A60000",
"j+	c #680000",
"k+	c #AF0000",
"l+	c #480000",
"m+	c #500000",
"n+	c #760101",
"o+	c #B10000",
"p+	c #E00808",
"q+	c #B80C0C",
"r+	c #B80202",
"s+	c #820202",
"                                                                                                    ",
"                                            . + + @ # $                                             ",
"                                          % & * = - - ;                                             ",
"                                          > , ' ) ! ) '                                             ",
"                                          ~ { ] { ^ / ( _                                           ",
"                                          : < [ } | 1 2 3                                           ",
"                                      4 5 6 7 8 9 0 a 6 6 5                                         ",
"                                      b 5 5 $ 8 c d & e 5 5 f                                       ",
"                                    g 6 5 5 h i b j 8 e 5 5 k                                       ",
"  l %                               m 5 5 k n * 5 b 8 o 7 5 b p                               5     ",
"q 6 5 5 5 5 5 r s 7 t # u e 5 5 7 6 v 5 5 w 8 x 5 k = i b 5 b y e 7 5 7 z A A B w * 5 7 7 5 5 5 6 C ",
"D 5 5 5 5 5 5 x - 5 E 8 & 7 5 5 5 F G 5 7 H 8 % 5 7 t # I 5 6 J K 5 5 5 7 8 L b b + e 5 5 5 5 5 b M ",
"N 5 5 5 5 5 e O . 5 5 8 P 6 5 5 5 Q E b R 8 S 7 5 5 r 8 T c B U K 5 5 5 V 8 * 7 W 8 X 5 5 5 5 5 W   ",
"  b 5 5 5 5 Y Z ` 5 k * @  .5 5 5 ..8 i # 8 +.5 5 5 7 t 8 + L # @.5 5 5 #.8 $.7 z %.U 7 5 5 5 5 @.  ",
"  &.5 5 5 5 k 8 o 5 5 *.8 =.7 5 5 -.L 8 8 ;.e 5 5 5 5 7 >.8 8 ; ,.6 5 7 '.L % 5 k ).!.e 5 5 5 b ~.  ",
"  {.6 5 5 5 6 8 ].5 5 ^.8 O % 5 5 /.% (.e 7 5 5 6 5 5 5 W B b k -.b 5 W %.0 7 5 Y ; T e 5 5 5 c     ",
"    e 5 5 5 _.8 E 5 5 W * 8 7 5 7 b 7 5 5 5 5 6 :.<.5 5 5 5 5 7 [.c 5 R 8 }.5 5 % . s 7 5 5 5 q     ",
"    l 6 5 5 |.8 +.5 5 7 E 8 1.5 7 2.7 5 5 5 5 3.4.5._.5 5 5 5 9 6.c 7 7.# % 5 5 e 8.9.6 5 5 b       ",
"      e 5 5 R 8 0.5 5 5 6 i 0 Y 7 a.V 5 5 5 W b.c.d.e.5 5 5 e f.4 c _.# g.7 5 5 W h.9.6 5 6 @.      ",
"      N 6 5 R 8 ].5 5 5 7 u 8 r 7 i.j.5 5 6 k.l.m.n.o.7 5 5 5 i ~.b g.8 p.5 5 5 Y 0 9.6 5 %         ",
"        f 5 R 8 ].5 5 5 5 % L H 5 ].q.% 5 _.r.s.n.n.t.u.b 5 X 8 /.^.8 v.% 5 5 5 W 0 9.6 b w.        ",
"          B _.8 x.5 5 5 5 5 i.8 6 f 8 % 5 W y.z.n.n.A.B.6 7 C.D.E.F.@ (.5 5 5 5 z A A 7 l           ",
"          ..W 8 = 5 5 5 5 5 % D.).q 7.i.5 G.H.I.n.n.n.J.K.W L.M.q 8 x.5 5 5 5 5 B 8 = &.            ",
"            ,.7.N.6 5 5 5 5 5 O.9.&.x %.6 P.Q.R.n.n.n.S.T.C.%.7 2.* W 5 5 5 5 5 $ 8 t               ",
"              7 9.6 5 5 5 5 5 7 U.q B 8 j P.V.W.n.n.n.X.Y.= H 5 2.p.5 5 5 5 5 5 C.Z.                ",
"                `.c 5 5 5 5 5 5 5 ..7  +P .+V.++n.n.n.@+#+8 |.6 _.e 5 5 5 5 5 5 C.                  ",
"                  $+5 5 5 5 5 5 5 %+c X 8 &+*+++n.n.n.=+-+q.Y 6 l 5 5 5 5 5 5 k                     ",
"                    ;+b 5 5 5 5 5 >+(.e - L ,+++n.n.'+)+8 1.5 B q 5 5 5 5 5 %                       ",
"                      w.6 5 5 5 5 !+ .5 r 8 ~+++n.n.{+]+L W 5 &.J 5 5 5 5 W                         ",
"                        ,.5 5 5 5 ^+5 5 e + /+m.n.n.(+_+t 7 6 :+K 5 5 5 %                           ",
"                          <+6 5 5 v @.5 5 = [+}+n.n.|+1+p.5 b 2+W 5 5 7                             ",
"                            q 5 5 z v 5 5 3+4+H.n.5+6+8 O.5 b 2+b 5 5                               ",
"                              6.5 +.F 5 5  +f.7+8+9+0+# ^.5 7 a+b 7 ^+                              ",
"                                G  .{.b 5 b+F.b _._.5 # r 5 c+q B w.                                ",
"                                  e ..c 5 d+F.5 5 5 7 # r 5 e+6 :+                                  ",
"                                  m f++.5 d+F.5 5 5 7 # r 5 @.B                                     ",
"                                    g+z 5 d+h.7 5 5 (.8 r b F                                       ",
"                                      ,.5 t !.7 5 5 +.#  .c h+                                      ",
"                                      !+5 a.7.e 5 5 I #  . .                                        ",
"                                        7 C.& e 5 5 i+9.c <+                                        ",
"                                        e V Z % 5 5 w + 6 ..                                        ",
"                                        j+O.%.Y 5 5 k+P c                                           ",
"                                          % 8 Y 5 7 *.Z.:+                                          ",
"                                          J # c 5 e i.. l+                                          ",
"                                          m+* 2.5 Y q.1.                                            ",
"                                            2.!.7 W # /.                                            ",
"                                            n+@ b o+0                                               ",
"                                              p+R q.q+                                              ",
"                                                r+s+                                                ",
"                                                                                                    "};
