/* XPM */
static char * redship09_xpm[] = {
"50 50 238 2",
"  	c None",
". 	c #760000",
"+ 	c #990000",
"@ 	c #980000",
"# 	c #860000",
"$ 	c #960000",
"% 	c #970000",
"& 	c #900000",
"* 	c #8D0000",
"= 	c #890000",
"- 	c #6A0000",
"; 	c #950000",
"> 	c #910000",
", 	c #940000",
"' 	c #9E0000",
") 	c #A90000",
"! 	c #B80000",
"~ 	c #EA0000",
"{ 	c #FF0000",
"] 	c #F20000",
"^ 	c #810000",
"/ 	c #930000",
"( 	c #C30000",
"_ 	c #FA0000",
": 	c #FE0000",
"< 	c #EE0000",
"[ 	c #AC0000",
"} 	c #A50000",
"| 	c #DE0000",
"1 	c #DD0000",
"2 	c #B60000",
"3 	c #9D0000",
"4 	c #D00000",
"5 	c #CF0000",
"6 	c #E00000",
"7 	c #AE0000",
"8 	c #F30000",
"9 	c #F50000",
"0 	c #EB0000",
"a 	c #9C0000",
"b 	c #E60000",
"c 	c #B40000",
"d 	c #BB0000",
"e 	c #B10000",
"f 	c #CE0000",
"g 	c #C80000",
"h 	c #A10000",
"i 	c #BF0000",
"j 	c #BE0000",
"k 	c #DA0000",
"l 	c #7D0000",
"m 	c #DB0000",
"n 	c #9A0000",
"o 	c #780000",
"p 	c #650000",
"q 	c #850000",
"r 	c #8A0000",
"s 	c #920000",
"t 	c #848484",
"u 	c #8B8F8F",
"v 	c #C90000",
"w 	c #A20000",
"x 	c #E80000",
"y 	c #730000",
"z 	c #800000",
"A 	c #750000",
"B 	c #792727",
"C 	c #BCC1C1",
"D 	c #BABDBD",
"E 	c #9B4848",
"F 	c #820000",
"G 	c #A60000",
"H 	c #FC0000",
"I 	c #A29999",
"J 	c #B7B7B7",
"K 	c #AEB1B1",
"L 	c #F10202",
"M 	c #BD0000",
"N 	c #510000",
"O 	c #D40000",
"P 	c #FB0000",
"Q 	c #A40000",
"R 	c #F60000",
"S 	c #BA0000",
"T 	c #B75555",
"U 	c #B9BABA",
"V 	c #CB2121",
"W 	c #AA0000",
"X 	c #8F0000",
"Y 	c #F10000",
"Z 	c #E90000",
"` 	c #9B0000",
" .	c #A70000",
"..	c #8D0404",
"+.	c #B7BDBD",
"@.	c #937F7F",
"#.	c #6D0000",
"$.	c #740000",
"%.	c #F00000",
"&.	c #AB0000",
"*.	c #A86868",
"=.	c #B6C2C2",
"-.	c #D01212",
";.	c #C60000",
">.	c #8E0000",
",.	c #8B0000",
"'.	c #520000",
").	c #F70000",
"!.	c #E70000",
"~.	c #CD0000",
"{.	c #D10000",
"].	c #861D1D",
"^.	c #B9B8B8",
"/.	c #B8B8B8",
"(.	c #855E5E",
"_.	c #710000",
":.	c #4D0000",
"<.	c #7B0407",
"[.	c #780304",
"}.	c #A4A6A6",
"|.	c #5F0000",
"1.	c #770000",
"2.	c #ED0000",
"3.	c #9F0000",
"4.	c #631A22",
"5.	c #2E5D7E",
"6.	c #1878A2",
"7.	c #0E89B9",
"8.	c #0E8DBF",
"9.	c #0D8CBD",
"0.	c #1183B0",
"a.	c #2B688D",
"b.	c #4A4860",
"c.	c #960101",
"d.	c #A80000",
"e.	c #7C0707",
"f.	c #7F0000",
"g.	c #550000",
"h.	c #602937",
"i.	c #147199",
"j.	c #0F93C6",
"k.	c #138EBF",
"l.	c #1491C5",
"m.	c #1597CD",
"n.	c #169FD7",
"o.	c #17A2DB",
"p.	c #17A6E1",
"q.	c #14ACEA",
"r.	c #503B51",
"s.	c #FD0000",
"t.	c #480000",
"u.	c #C70D12",
"v.	c #246386",
"w.	c #138CBE",
"x.	c #1591C5",
"y.	c #17A2DD",
"z.	c #17A5E0",
"A.	c #2081AF",
"B.	c #E50000",
"C.	c #790000",
"D.	c #A00000",
"E.	c #544862",
"F.	c #1388B8",
"G.	c #169DD5",
"H.	c #17A3DE",
"I.	c #0FAAE6",
"J.	c #72141B",
"K.	c #F90000",
"L.	c #CA0000",
"M.	c #405776",
"N.	c #129AD0",
"O.	c #17A7E3",
"P.	c #11A1DA",
"Q.	c #6E1922",
"R.	c #630000",
"S.	c #BC0000",
"T.	c #EC0000",
"U.	c #B50000",
"V.	c #5E1F2A",
"W.	c #169AD1",
"X.	c #14A3DE",
"Y.	c #2876A0",
"Z.	c #6E0000",
"`.	c #430000",
" +	c #592E3E",
".+	c #16A6E3",
"++	c #266689",
"@+	c #7F090B",
"#+	c #AD0000",
"$+	c #7E0000",
"%+	c #530000",
"&+	c #E20000",
"*+	c #8A0406",
"=+	c #0E8ABA",
"-+	c #12B0EF",
";+	c #0EB0EF",
">+	c #0AACE8",
",+	c #138DBF",
"'+	c #67455F",
")+	c #A1232F",
"!+	c #980A0D",
"~+	c #A30000",
"{+	c #B00000",
"]+	c #6C0000",
"^+	c #A0131A",
"/+	c #C31218",
"(+	c #DD0203",
"_+	c #D30000",
":+	c #6F0000",
"<+	c #460000",
"[+	c #DC0000",
"}+	c #C10000",
"|+	c #EC0101",
"1+	c #D60000",
"2+	c #5B0000",
"3+	c #D10404",
"4+	c #C40000",
"5+	c #B90000",
"6+	c #620000",
"7+	c #CB0000",
"8+	c #DE0101",
"9+	c #AF0000",
"0+	c #C70000",
"a+	c #7C0000",
"b+	c #7A0000",
"c+	c #600000",
"d+	c #800101",
"e+	c #FA0101",
"f+	c #570000",
"g+	c #700000",
"h+	c #B20000",
"i+	c #DF0000",
"j+	c #880000",
"k+	c #E10000",
"l+	c #B30000",
"m+	c #F40000",
"n+	c #670000",
"o+	c #690000",
"                                                                                                    ",
"                                                  . + @                                             ",
"                                                # $ $ $ %                                           ",
"                                              # % $ $ $ $                                           ",
"                                            & $ $ $ $ $ %                                           ",
"                                          * $ $ $ $ $ $ %                                           ",
"                                        = % $ $ $ $ $ $ $                                           ",
"                                      - % $ $ $ $ ; > , ' )                                         ",
"                                      + $ $ ; % ' ! ~ { { ]                                         ",
"                                    ^ $ $ / ( _ : { < [ % $ %                                       ",
"                                    , } | _ { 1 2 3 / ; $ / 4                                       ",
"                                  / 5 { : 6 7 > $ $ $ $ } 8 { 9                                     ",
"                                  ] { 0 a , $ $ $ $ $ } { { b %                                     ",
"                                ) { c $ $ $ $ $ $ / d : { e $ $ ;                                   ",
"                                f + , $ $ $ $ $ / g { 8 h , $ $ $                                   ",
"                                , $ $ $ $ $ $ ; i { 6 > $ $ $ $ $ &                                 ",
"                              . $ $ $ $ $ $ , j { k > $ $ $ $ $ ; % l                               ",
"                              + $ $ $ $ $ $ 2 { m ; $ $ % n o - p q r s , ; s   t u ( v             ",
"                            # $ $ $ $ $ $ w { x , @ $ y z A < { @ $ $ $ $ $ $ B C D E {             ",
"                            , $ $ $ $ $ ; 0 9 s # l F i % G { H % ; ; ; ; ; , ; I J K L H           ",
"                          o @ $ $ $ $ ; M { ^ N O P Q $ $ s _ { R ( S M j g 1 9 T U J V {           ",
"                          , $ $ $ $ $ W + ^ X Y Z ` ; $ $ ;  .~ { { { { { R k 2 ..+.J @.{ :         ",
"                        #.$ $ $ $ + y $., ` %.1 / $ $ $ $ $ $ & , } ) ` , & X &.9 *.J =.-.;.        ",
"                        >.$ $ $ ,.'./ $ ` ).!.> $ $ $ $ $ $ $ $ $ $ $ $ $ $ ~.{ {.].^./.(.          ",
"                      _.$ $ > :./ $ $ 3 _ 0 ; + 3 r <.[.+ n $ $ $ $ $ $ @ %.{ 7 ; & }.              ",
"                      / n |.1.n $ $ @ 2.] 3.4.5.6.7.8.9.0.a.b.c.$ $ ; } ).H d.; $ % e.              ",
"                    X f.g.% $ $ $ % Z { h.i.j.k.l.m.n.o.p.q.r.$ $ $ a s._ W $ $ $ %                 ",
"                  t.g.= $ $ $ $ ` ] u.v.w.x.y.p.z.z.z.z.z.A.3 $ $ s B.{ W $ $ $ % o                 ",
"                  C.; $ $ s D.%.{ E.F.G.H.z.z.z.z.z.z.z.I.J.$ $ $ W { K./ $ $ ' p                   ",
"                q % ; , d ~ ).L.M.N.z.z.z.z.z.z.z.z.O.P.Q.+ $ $ $ } { { h + C.R.                    ",
"              / , ` S.: T.U.s V.W.p.z.z.z.z.z.z.O.X.Y.r % $ $ $ $ s | { B.A Z.`                     ",
"          `.; / 5 : 2.d.$ $ @  +z.z.z.z.z.z.z..+++@+@ $ $ $ $ $ $ $ % #+$+@ $ $                     ",
"        %+> 5 _ &+&., $ $ $ $ *+=+-+;+>+,+'+)+!+} w a ; + ~+{+;.| / ]+r % $ $ $ ;                   ",
"      '.S { &+#+> $ $ $ $ $ $ ; X ^+/+(+{ { { { { { { { { s._+Q :+,.+ $ $ $ $ $ ;                   ",
"    <+[+K.&., $ $ $ $ $ ; ; 3 }+H 9 {.$ > & > , @ $ s = _.:.1.n $ $ $ $ ; ; ; @ D.                  ",
"    |+k $ $ $ $ $ $ ; s M ] { 1+a % $ $ $ $ $ % a l 2+5 1+i 7 ~+D.3.3.W ;.1+0 K.:                   ",
"  3+4+/ $ $ ; & + 5+x { 1 5+a / $ $ $ @ 3 ; 6+R.. % S f < { { { { { { { { { { : 0 7+                ",
"  8++ ` ~+9+i !.{ ~ 0+3 s ; % n $ f.a+b+c+6+* a % $ $ , & , w &.{+{+U.#+ .D.' s & ,                 ",
"  d+e+H P R !.! > , ; / / s $.f+'.,.a @ $ $ $ $ $ $ $ $ $ $ $ $ $ $ $ $ $ $ $ $ $ d.9               ",
"                              g+f.% @ $ $ $ $ $ $ $ $ $ $ $ $ $ $ $ $ $ $ $ , ) ~ K.h               ",
"                                      o > + $ $ $ $ $ $ $ $ $ $ $ $ $ $ & h+6 { i+a $               ",
"                                            j+, % $ $ $ $ $ $ $ ; , ' 9+k+{ %.l+s $ $ @             ",
"                                                Z.& % $ $ $ $ % h+| { { _ ! , $ $ $ $ $ %           ",
"                                                      a+j b m+s.{ { 1  .% ; $ $ $ $ $ $ $ %         ",
"                                                          2 _+_+! 3.> $ $ $ $ $ $ $ $ $ $ $         ",
"                                                              #.,.s ; % % $ $ $ $ $ $ $ % ,         ",
"                                                                      n+g+# > @ / j+l $.o+          ",
"                                                                                                    ",
"                                                                                                    ",
"                                                                                                    "};
