/* XPM */
static char * redship1_xpm[] = {
"50 50 251 2",
"  	c None",
". 	c #720505",
"+ 	c #820000",
"@ 	c #840000",
"# 	c #860000",
"$ 	c #8A0000",
"% 	c #930000",
"& 	c #980000",
"* 	c #920000",
"= 	c #830000",
"- 	c #7E0000",
"; 	c #960000",
"> 	c #970000",
", 	c #760000",
"' 	c #A40000",
") 	c #D30000",
"! 	c #FA0000",
"~ 	c #FF0000",
"{ 	c #D50000",
"] 	c #940000",
"^ 	c #CF0000",
"/ 	c #F40000",
"( 	c #DD0000",
"_ 	c #B40000",
": 	c #8F0000",
"< 	c #730000",
"[ 	c #9F0000",
"} 	c #D00000",
"| 	c #EC0000",
"1 	c #C20000",
"2 	c #A60000",
"3 	c #900000",
"4 	c #950000",
"5 	c #9A0000",
"6 	c #C30000",
"7 	c #FC0000",
"8 	c #D10000",
"9 	c #910000",
"0 	c #710000",
"a 	c #A50000",
"b 	c #FB0000",
"c 	c #C60000",
"d 	c #8E0000",
"e 	c #6C0000",
"f 	c #C40000",
"g 	c #550000",
"h 	c #070000",
"i 	c #470000",
"j 	c #560000",
"k 	c #690000",
"l 	c #7D0000",
"m 	c #730404",
"n 	c #9E0000",
"o 	c #990000",
"p 	c #9B0000",
"q 	c #8B0000",
"r 	c #7C0000",
"s 	c #740000",
"t 	c #660000",
"u 	c #650000",
"v 	c #7A0000",
"w 	c #9C0000",
"x 	c #B20000",
"y 	c #F70000",
"z 	c #EF0000",
"A 	c #E80000",
"B 	c #9A0202",
"C 	c #AA0000",
"D 	c #A90000",
"E 	c #B70000",
"F 	c #C00000",
"G 	c #C90000",
"H 	c #C10000",
"I 	c #BC0000",
"J 	c #B00000",
"K 	c #580000",
"L 	c #460000",
"M 	c #770000",
"N 	c #A80000",
"O 	c #E00000",
"P 	c #D40000",
"Q 	c #A30000",
"R 	c #D80000",
"S 	c #F00000",
"T 	c #FE0000",
"U 	c #F80000",
"V 	c #EE0000",
"W 	c #AB0000",
"X 	c #4D0000",
"Y 	c #790000",
"Z 	c #A00000",
"` 	c #E70000",
" .	c #FD0000",
"..	c #C70000",
"+.	c #9D0000",
"@.	c #E60000",
"#.	c #CE0808",
"$.	c #D70000",
"%.	c #AE0000",
"&.	c #A10000",
"*.	c #AF0000",
"=.	c #890000",
"-.	c #670000",
";.	c #B30000",
">.	c #B10000",
",.	c #590000",
"'.	c #F80303",
").	c #C80A0E",
"!.	c #92222F",
"~.	c #63222F",
"{.	c #860405",
"].	c #BB0000",
"^.	c #750000",
"/.	c #6E151D",
"(.	c #3A6589",
"_.	c #2D88B9",
":.	c #189CD3",
"<.	c #13A5E0",
"[.	c #14A8E4",
"}.	c #15A8E4",
"|.	c #13A2DC",
"1.	c #6F1319",
"2.	c #D20000",
"3.	c #ED0000",
"4.	c #CC0000",
"5.	c #8D0102",
"6.	c #523E53",
"7.	c #1E81AF",
"8.	c #12ACEA",
"9.	c #17A7E3",
"0.	c #17A5E0",
"a.	c #18A8E4",
"b.	c #42465E",
"c.	c #E40000",
"d.	c #B60000",
"e.	c #F60000",
"f.	c #771319",
"g.	c #138FC3",
"h.	c #17A8E4",
"i.	c #1199D0",
"j.	c #5A1F2A",
"k.	c #C80000",
"l.	c #4B0000",
"m.	c #4D2E3F",
"n.	c #15A5DF",
"o.	c #17A5DF",
"p.	c #148FC2",
"q.	c #703141",
"r.	c #7B0000",
"s.	c #72171F",
"t.	c #15A6E2",
"u.	c #17A6E2",
"v.	c #169FD7",
"w.	c #1394C8",
"x.	c #127FAB",
"y.	c #AD1D26",
"z.	c #800000",
"A.	c #B80000",
"B.	c #109BD2",
"C.	c #17A5E1",
"D.	c #17A6E1",
"E.	c #16A0D9",
"F.	c #169AD2",
"G.	c #1490C4",
"H.	c #0B8ABB",
"I.	c #64425A",
"J.	c #E20102",
"K.	c #DE0000",
"L.	c #6E0000",
"M.	c #620000",
"N.	c #4B4963",
"O.	c #16A7E3",
"P.	c #17A3DE",
"Q.	c #169ED6",
"R.	c #159AD1",
"S.	c #1593C7",
"T.	c #138ABB",
"U.	c #128BBD",
"V.	c #1585B4",
"W.	c #235E7F",
"X.	c #8B0507",
"Y.	c #DF0000",
"Z.	c #4C0000",
"`.	c #810000",
" +	c #5E0808",
".+	c #F10000",
"++	c #820B0F",
"@+	c #4C2F3F",
"#+	c #0E77A1",
"$+	c #0F90C2",
"%+	c #0F91C4",
"&+	c #0E8CBD",
"*+	c #1B6083",
"=+	c #4F2735",
"-+	c #910405",
";+	c #F90000",
">+	c #DA0000",
",+	c #570000",
"'+	c #850000",
")+	c #9C9C9C",
"!+	c #AAB2B2",
"~+	c #870000",
"{+	c #880000",
"]+	c #EA0000",
"^+	c #700000",
"/+	c #963232",
"(+	c #B8B8B8",
"_+	c #BBBCBC",
":+	c #953C3C",
"<+	c #E20000",
"[+	c #F50000",
"}+	c #5F0000",
"|+	c #E90808",
"1+	c #B8B9B9",
"2+	c #B7B7B7",
"3+	c #A58585",
"4+	c #B50000",
"5+	c #F20000",
"6+	c #5C0000",
"7+	c #966767",
"8+	c #B7BEBE",
"9+	c #A10707",
"0+	c #C50000",
"a+	c #6D0000",
"b+	c #E90000",
"c+	c #DB0404",
"d+	c #B0B4B4",
"e+	c #AB7979",
"f+	c #CB0000",
"g+	c #AC0000",
"h+	c #CE0000",
"i+	c #E50000",
"j+	c #8C0000",
"k+	c #600000",
"l+	c #B09393",
"m+	c #AEACAC",
"n+	c #930303",
"o+	c #6F0000",
"p+	c #A20000",
"q+	c #AE3434",
"r+	c #BABFBF",
"s+	c #B8BABA",
"t+	c #743030",
"u+	c #8D0000",
"v+	c #610000",
"w+	c #7F0000",
"x+	c #F30000",
"y+	c #A70000",
"z+	c #EB0000",
"A+	c #AD0000",
"B+	c #6B0000",
"                                                                                                    ",
"                                                                                                    ",
"                                                                                                    ",
"      . + @ # $ % & * $ = + -                                                                       ",
"      ; ; ; ; ; ; ; ; ; ; ; > & * ,                                                                 ",
"      ; ; ; ; ; ; ; ; ; ; ; ; ' ) ! ~ {                                                             ",
"        ; ; ; ; ; ; ; ] ] ^ / ~ ~ ~ ( _ ' : <                                                       ",
"        ] ; ; ; ; ] [ } ~ ~ | 1 2 3 * 4 ; ; & * +                                                   ",
"          4 ; 4 5 6 ~ 7 8 > * ; ; ; ; ; ; ; ; ; ; > 9 0                                             ",
"            ; a b ~ c > ; ; ; ; ; ; ; ; ; ; ; ; ; ; ; ; 4 d e                                       ",
"            f ~ c [ ] ; ; ; ; ; ; ; ; ; ; ; ; ; ; ; ; ; ; ; > > : % g h i j k 0 , , e < l m         ",
"              n ] ; 4 4 4 ] ] ] ] 4 4 ; ; ; ; ; ; ; ; o p q r s t u v n p o 4 w x { b ~ y z A B     ",
"              ; 5 w C D E F G H 6 I J n p > 4 ; > * $ K L M 5 5 > ; ; ; & N O ~ ! P Q 9 % ] 4 R     ",
"              S ! T ~ ~ ~ ~ ~ ~ ~ ~ ~ ~ 7 U V W X Y : 4 > ; ; ; ; % Z ` b  ...+.& 4 ; ; ; 4 @.#.    ",
"                b $.F _ %.&.5 p p +.Q *.[ =.l = 5 > ; ; ; ; 9 & 1 S y G C 9 ] ; ; ; ; ] ' S G       ",
"                3 % ; ; ; ; ; ; & @ M -.d ;.W J >.*.C N D >.` ~ A x : 4 ; ; ; ; ; 4 & 6 ~ f         ",
"                ] ; ; ; ; ; 4 d ,.R ~ T  . . . . .T ~ T '.).!.~.{.; ; ; ; ; ; ; ; ].~ / &           ",
"                : ; ; ; > ^.e N D Q n w & > o p ' /.(._.:.<.[.}.|.1.; ; ; 4 * 2.! 3.D *             ",
"                  ; o # v 4.2 4 ; ; ; ; ; > 5.6.7.8.9.0.0.0.0.0.a.b.> ] 4 G b c.d.3 q               ",
"                  4 -.s e.~ V 9 ; ; ; ; & f.g.h.0.0.0.0.0.0.0.0.i.j.&.k.T 3.2 % > =.                ",
"                  l.] ; & U ~ %.; ; ; & m.n.0.0.0.0.0.0.0.0.o.p.q.T ~ 8 o ; ; ; ^.                  ",
"                r.& ; ; > y ~ n ; ; > s.t.0.0.0.0.0.0.u.v.w.x.y.~ ..5 ] ; > 4 g                     ",
"              z.& ; ; ] A.~ ) * ; ; * B.0.0.C.D.0.E.F.G.H.I.J.K.% ] ; ; 4 L.M.                      ",
"            0 o ; ; 4 E ~ e.o ; ; > N.O.P.Q.R.S.T.U.V.W.X.~ Y.4 ; ; ; : Z.n `.                      ",
"             +& ; ; H ~ .+o ; ; ; ; ++@+#+$+%+&+*+=+-+p ;+>+4 ; ; & ,+'+; $                         ",
"          )+!+~+% 8 ~ $.4 ; ; ; ; ; > o 5 {+{+: w o [ ;+]+o ; p -.^+] > o 0                         ",
"        /+(+_+:+<+U I 3 ; ; 4 4 ; ; ; ; ; ; ; ; ; o [+@.4 & l }+9 > ; ; @                           ",
"      ( |+1+2+3+| ; > o 5 a 4+x +.& ; ; ; ; ; ; 4 5+c.] > 6+d ; ; ; ; ;                             ",
"        ~ 7+1+8+9+A e.T ~ ~ ~ ~ ~ ! 0+4 ; ; 4 Z ! R @ a+b+p ; ; ; ; ; 4                             ",
"        T c+d+1+e+f+].>.g+W C g+h+T T % ; 3 G i+j+k ] ~ g+4 ; ; ; ; > k+                            ",
"        [+~ l+2+m+n+; ; ; ; ; ; ; .+~ a > *.r o+w p+~ ` 4 ; ; ; ; ; %                               ",
"          ~ q+r+s+t+> ; ; ; ; ; ; 5+c.l.0 ; ; ; % / e.] ; ; ; ; ; > =                               ",
"                    {+; > u+k+v+< q {+& > ; ; ; .+~ a ; ; ; ; ; ; %                                 ",
"                              5 & ; ; ; ; ; o 3.~ >.4 ; ; ; ; ; ; w+                                ",
"                              = ; ; ; ; ; p x+T N 4 ; ; ; ; ; ; 5                                   ",
"                                ; ; ; 4 g+ .~ D ; ; ; ; ; ; 4 o Y.                                  ",
"                                9 ; % 2.~ T y+4 ; ; ; ; 4 ; ( ~ n                                   ",
"                                  >./ ~ [++.; ; ; ; ] 4 A.y ~ <+                                    ",
"                                    ~ z+] ; ; ; 4 > I ~ ~ ! I q                                     ",
"                                    N ; ; 4 9 ' c.y ~ U ;.o %                                       ",
"                                      ] E P y ~ e.) A+* 4 & r.                                      ",
"                                      ;+x+b+P y+3 ] ; ; ; 3                                         ",
"                                      3 ; ; ; ; ; ; ; ; & u                                         ",
"                                        ; ; ; ; ; ; ; ; B+                                          ",
"                                        ; ; ; ; ; ; > +                                             ",
"                                        ; ; ; ; ; > {+                                              ",
"                                        4 ; ; ; ; ^.                                                ",
"                                        * ; ; > k                                                   ",
"                                          : 9 a+                                                    ",
"                                                                                                    "};
