/* XPM */
static char * redship11_xpm[] = {
"50 50 242 2",
"  	c None",
". 	c #840000",
"+ 	c #980000",
"@ 	c #960000",
"# 	c #F10000",
"$ 	c #8B0000",
"% 	c #970000",
"& 	c #940000",
"* 	c #B23131",
"= 	c #EA0505",
"- 	c #FF0000",
"; 	c #FE0000",
"> 	c #8F0000",
", 	c #A8A8A8",
"' 	c #B7B7B7",
") 	c #B5B8B8",
"! 	c #945858",
"~ 	c #E20404",
"{ 	c #950000",
"] 	c #DF0000",
"^ 	c #830000",
"/ 	c #683232",
"( 	c #B0B8B8",
"_ 	c #BABBBB",
": 	c #B9BABA",
"< 	c #B0B2B2",
"[ 	c #AC8E8E",
"} 	c #AF2727",
"| 	c #C10000",
"1 	c #F00000",
"2 	c #930000",
"3 	c #F40000",
"4 	c #9A0000",
"5 	c #9E4444",
"6 	c #AB8E8E",
"7 	c #B5BEBE",
"8 	c #B8B9B9",
"9 	c #B8B7B7",
"0 	c #BAC1C1",
"a 	c #990000",
"b 	c #A20000",
"c 	c #AE0000",
"d 	c #A10000",
"e 	c #DE0000",
"f 	c #8A0000",
"g 	c #C30000",
"h 	c #B11313",
"i 	c #AA8484",
"j 	c #B0AFAF",
"k 	c #BBBCBC",
"l 	c #600000",
"m 	c #910000",
"n 	c #E80000",
"o 	c #F90000",
"p 	c #B40000",
"q 	c #BE0000",
"r 	c #5F0000",
"s 	c #E70000",
"t 	c #F70000",
"u 	c #920404",
"v 	c #733B3B",
"w 	c #A60000",
"x 	c #CD0000",
"y 	c #AD0000",
"z 	c #9B0000",
"A 	c #670000",
"B 	c #DB0000",
"C 	c #A70000",
"D 	c #7F0000",
"E 	c #E90000",
"F 	c #A30000",
"G 	c #820000",
"H 	c #770000",
"I 	c #CF0000",
"J 	c #B90000",
"K 	c #A50000",
"L 	c #9D0000",
"M 	c #850000",
"N 	c #B00000",
"O 	c #AA0000",
"P 	c #DC0000",
"Q 	c #9C0000",
"R 	c #DD0000",
"S 	c #D10000",
"T 	c #D00000",
"U 	c #B50000",
"V 	c #7E0000",
"W 	c #890000",
"X 	c #F50000",
"Y 	c #900000",
"Z 	c #920000",
"` 	c #E60000",
" .	c #FD0000",
"..	c #CA0000",
"+.	c #780000",
"@.	c #D40000",
"#.	c #EE0000",
"$.	c #6A0000",
"%.	c #F80000",
"&.	c #750000",
"*.	c #CB0000",
"=.	c #A90000",
"-.	c #F60000",
";.	c #AC0000",
">.	c #D70000",
",.	c #4F0000",
"'.	c #EA0000",
").	c #610000",
"!.	c #BB0000",
"~.	c #E10000",
"{.	c #E30000",
"].	c #C90000",
"^.	c #6E0000",
"/.	c #830506",
"(.	c #3A5878",
"_.	c #910507",
":.	c #D20000",
"<.	c #A00000",
"[.	c #B80000",
"}.	c #8D0000",
"|.	c #4E2E3F",
"1.	c #0B94C8",
"2.	c #16A6E1",
"3.	c #77131A",
"4.	c #460000",
"5.	c #6F0000",
"6.	c #C60000",
"7.	c #255A79",
"8.	c #128BBC",
"9.	c #17A0D9",
"0.	c #17A6E1",
"a.	c #335675",
"b.	c #7A0000",
"c.	c #E20000",
"d.	c #C40000",
"e.	c #4A3041",
"f.	c #128CBE",
"g.	c #169CD3",
"h.	c #17A5E1",
"i.	c #1581AF",
"j.	c #BC0000",
"k.	c #B10000",
"l.	c #7B0000",
"m.	c #BF0000",
"n.	c #741217",
"o.	c #0B8FC2",
"p.	c #1491C3",
"q.	c #17A5E0",
"r.	c #1585B5",
"s.	c #6B0000",
"t.	c #F30000",
"u.	c #860202",
"v.	c #335471",
"w.	c #138CBD",
"x.	c #1D76A0",
"y.	c #CE0000",
"z.	c #6D0000",
"A.	c #8C0000",
"B.	c #0C88B8",
"C.	c #1495C9",
"D.	c #16A7E2",
"E.	c #4A384B",
"F.	c #A40000",
"G.	c #760000",
"H.	c #FB0000",
"I.	c #DA0000",
"J.	c #800000",
"K.	c #394159",
"L.	c #1290C3",
"M.	c #17A7E2",
"N.	c #16A3DD",
"O.	c #7E1016",
"P.	c #9F0000",
"Q.	c #5B0000",
"R.	c #BA0000",
"S.	c #2577A0",
"T.	c #1596CB",
"U.	c #1D90C4",
"V.	c #930101",
"W.	c #4D0000",
"X.	c #C80000",
"Y.	c #7D0000",
"Z.	c #520000",
"`.	c #F70202",
" +	c #1A80AD",
".+	c #16A1DA",
"++	c #15ABE8",
"@+	c #4B3345",
"#+	c #AF0000",
"$+	c #CC0000",
"%+	c #730000",
"&+	c #BE0B0E",
"*+	c #1091C4",
"=+	c #148FC3",
"-+	c #700000",
";+	c #6D3143",
">+	c #14A0D9",
",+	c #10AFEE",
"'+	c #9F2430",
")+	c #870000",
"!+	c #3C526E",
"~+	c #32729B",
"{+	c #9E0000",
"]+	c #680000",
"^+	c #650000",
"/+	c #254F6C",
"(+	c #16A3DF",
"_+	c #15A7E2",
":+	c #D90D12",
"<+	c #5E0000",
"[+	c #620000",
"}+	c #641218",
"|+	c #12A6E0",
"1+	c #17A8E4",
"2+	c #11A6E2",
"3+	c #B9171F",
"4+	c #E40000",
"5+	c #7C0000",
"6+	c #FC0000",
"7+	c #67212C",
"8+	c #46455C",
"9+	c #790E13",
"0+	c #710000",
"a+	c #4B0000",
"b+	c #D80000",
"c+	c #510000",
"d+	c #3E0000",
"e+	c #ED0000",
"f+	c #FA0000",
"g+	c #6C0000",
"h+	c #400000",
"i+	c #860000",
"j+	c #C50000",
"k+	c #590000",
"l+	c #AB0000",
"m+	c #790000",
"n+	c #BD0000",
"o+	c #B40505",
"p+	c #D50C0C",
"q+	c #D60000",
"r+	c #B10101",
"s+	c #AC0B0B",
"                                                                                                    ",
"                                                                                                    ",
"                                                                                                    ",
"      . + @                                           #                                             ",
"      $ @ @ % &                                     * = - ;                                         ",
"      > @ @ @ @ %                                 , ' ) ! ~ - -                                     ",
"      { @ @ @ @ @ & ]                         ^ / ( _ ' : < [ }                                     ",
"      + @ @ @ @ { | 1 2 + 3                 $ % 4 . 5 6 7 8 9 0                                     ",
"      a @ @ @ @ b - c @ d - e 2 {         f @ @ @ % ; g h i j k                                     ",
"    l + @ @ @ m n o { { p - q @ @ @ @ 2 r + @ @ 2 s n @ t p u v                                     ",
"      a @ @ @ p - w { & x - y @ @ @ z A @ @ @ & B - b + - C @ + D                                   ",
"      % @ @ m E # % @ & x - F @ @ @ G H @ @ & I - J & K - L @ @ M                                   ",
"      > @ @ N - O @ @ 2 P - Q @ @ a { R % % S - T 2 { U - a @ @ V                                   ",
"      W @ @ n X Y @ @ Z `  .2 @ @ A ` - t o - ] @ @ & ..- + @ @ +.                                  ",
"      . @ %  .@.{ @ @ m #.X Z @ % $.y %.- - q & @ @ 2 P - % @ @ r                                   ",
"      &.@ *.- =.@ @ @ Z s -.m % M { @ m ;.{ { @ @ @ 2 >.- 4 @ @ ,.4                                 ",
"        a X ; 2 @ @ @ Z '.o Z + ).b @ @ @ @ @ @ @ @ { !.- !.% % +.% @ @                             ",
"        m - R Z @ @ @ Z ~.o m . {.Q @ @ @ @ @ 4 @ @ @ L ;  .# n M @ @ @ & ].                        ",
"        ^ - !.{ @ @ @ 2 @.- 4 ^. .% @ @ @ z /.(._.@ @ % :.- - Q Z @ @ @ <.-  .L                     ",
"          -.F @ @ @ @ { [.- f }.X { @ @ { |.1.2.3.% @ @ & Z b 4.+ @ @ & n - x { ;.1                 ",
"          J Q @ @ @ @ @ <.- 5.6.E & @ { 7.8.9.0.a.z @ @ @ @ m b.% @ { :.- {.{ @ I c.@ @ @ % % @     ",
"            2 @ @ @ @ @ 4 - G d.{.& Q e.f.g.h.h.i.a @ @ @ { j.% @ { k.- ` @ @ Z '.T @ @ @ @ @ @ f   ",
"            ^ % @ @ @ @ + B l.m.1 & n.o.p.q.q.h.r.a @ @ Z c.s.@ @ w - t.4 @ @ a - k.@ @ @ @ @ @ u.  ",
"              a @ @ @ @ % . & ].t.4 v.w.q.q.q.0.x.z @ @ q y.D @ d ; %.+ @ @ @ ].- Y @ @ @ @ @ %     ",
"              $ @ @ @ @ 2 z.@ x t.A.B.C.q.q.q.D.E.4 { F.- G.z L H.-.+ @ @ @ % X I.2 @ @ @ @ 4       ",
"              J.@ @ @ @ m > & 6.%.K.L.M.q.q.q.N.O.@ w - p $.p ; t.P.@ @ @ @ a ; !.@ @ @ @ % Q.      ",
"                % @ @ + ^.2 { R. .S.T.q.q.q.q.U.V.N - ..W.X.- E + @ @ @ @ 2 c.- z @ @ @ % Y.        ",
"                ^ @ @ 4 Z.% { J `. +.+q.q.q.++@+#+- $+& I - T { @ @ @ @ @ F.- S 2 @ @ @ %+          ",
"                  @ @ f 5.@ { j.&+*+M.q.q.q.=+g - I @ -+~.<.{ @ @ @ @ @ 2 :.; P.@ @ 4               ",
"                  @ @ H + @ & I ;+>+q.q.q.,+'+- d.{ $ )+@ @ @ @ @ @ @ @ w - E @ a W                 ",
"                  $ % &.z @ & - !+N.q.q.q.~+- d.{ + %+4 @ @ @ @ @ @ @ { #.; {+m ^.                  ",
"                  ]+Q ^+% @ k.- /+(+q.q._+:+g @ @ a <+@ @ @ @ @ @ @ { !.- ..G.                      ",
"                    a [+@ { B y.}+|+1+2+3+4+m @ @ <++ @ @ @ @ @ @ @ P.:.                            ",
"                    G.5+@ 2 6+% a 7+8+9+- y @ @ A.0+@ @ @ @ @ + $ J.                                ",
"                    a+a @ 6.b+& @ @ @ c 1 2 @ @ c+z @ @ @ @ 2 %+                                    ",
"                    d+Q + %.p @ @ @ m e+=.{ + G.Z @ @ % .                                           ",
"                    ^.+ 4 ; a @ @ @ C f+@ @ M $.@ + l.                                              ",
"                    +.& ..b+2 @ @ Z {.T @ 4 $.L f                                                   ",
"                    . & ; w @ @ @ {+H.& @ b.+.g+                                                    ",
"                    M O H.+ @ @ @ '.*.{ a h+                                                        ",
"                    i+j+c.@ @ @ a - <.% k+                                                          ",
"                    D t.l+@ @ & ~.6.{ m+                                                            ",
"                    $ - m @ @ K ; L b.                                                              ",
"                    b 1 & @ m 4+y.5+                                                                ",
"                    #+c.{ @ n+f+V                                                                   ",
"                    o+b+@ z ; Q                                                                     ",
"                    p+q+% o Q                                                                       ",
"                      r+*.s+                                                                        ",
"                                                                                                    ",
"                                                                                                    "};
