/* XPM */
static char * redship15_xpm[] = {
"50 50 248 2",
"  	c None",
". 	c #AD0404",
"+ 	c #E40202",
"@ 	c #BE0404",
"# 	c #E10000",
"$ 	c #9D0000",
"% 	c #EB0000",
"& 	c #BD0000",
"* 	c #F30000",
"= 	c #940000",
"- 	c #FA0000",
"; 	c #AB0000",
"> 	c #FE0000",
", 	c #9A0000",
"' 	c #960000",
") 	c #A20000",
"! 	c #FB0000",
"~ 	c #880000",
"{ 	c #F60000",
"] 	c #BF0000",
"^ 	c #AD0000",
"/ 	c #8F0000",
"( 	c #BE0000",
"_ 	c #F20000",
": 	c #900000",
"< 	c #BC0000",
"[ 	c #EE0000",
"} 	c #860000",
"| 	c #950000",
"1 	c #F70000",
"2 	c #BB0000",
"3 	c #920000",
"4 	c #E20000",
"5 	c #750000",
"6 	c #910000",
"7 	c #FF0000",
"8 	c #930000",
"9 	c #5B0000",
"0 	c #980000",
"a 	c #FD0000",
"b 	c #B20000",
"c 	c #B50000",
"d 	c #F10000",
"e 	c #780000",
"f 	c #690000",
"g 	c #B00000",
"h 	c #F80000",
"i 	c #E30000",
"j 	c #CD0000",
"k 	c #770000",
"l 	c #970000",
"m 	c #A60000",
"n 	c #7F0000",
"o 	c #9B0000",
"p 	c #5C0000",
"q 	c #B40000",
"r 	c #F40000",
"s 	c #B10000",
"t 	c #E90000",
"u 	c #710000",
"v 	c #C40000",
"w 	c #6F0000",
"x 	c #8B0000",
"y 	c #990000",
"z 	c #A10000",
"A 	c #7A0000",
"B 	c #560000",
"C 	c #430000",
"D 	c #D00000",
"E 	c #880304",
"F 	c #870304",
"G 	c #E50000",
"H 	c #570000",
"I 	c #620000",
"J 	c #C50000",
"K 	c #8A0000",
"L 	c #67455D",
"M 	c #159FD8",
"N 	c #14A1DB",
"O 	c #215573",
"P 	c #A00000",
"Q 	c #490000",
"R 	c #800000",
"S 	c #CF0000",
"T 	c #DE0000",
"U 	c #8B3142",
"V 	c #0EA9E5",
"W 	c #17A5E0",
"X 	c #0E9DD4",
"Y 	c #9A0405",
"Z 	c #850000",
"` 	c #660000",
" .	c #C00000",
"..	c #D20000",
"+.	c #EA0507",
"@.	c #1D9BD2",
"#.	c #0C99CE",
"$.	c #C31016",
"%.	c #DD0000",
"&.	c #385E7F",
"*.	c #16A6E2",
"=.	c #099AD0",
"-.	c #DA0101",
";.	c #760000",
">.	c #D80000",
",.	c #A70000",
"'.	c #AA0000",
").	c #ED0000",
"!.	c #8A1C27",
"~.	c #14A6E1",
"{.	c #17A6E0",
"].	c #09769F",
"^.	c #5F0000",
"/.	c #E70000",
"(.	c #CB0000",
"_.	c #7B0000",
":.	c #1F749D",
"<.	c #17A5E1",
"[.	c #1596CC",
"}.	c #494963",
"|.	c #640000",
"1.	c #B60000",
"2.	c #B90000",
"3.	c #7E0000",
"4.	c #DC0000",
"5.	c #700C10",
"6.	c #13B1F0",
"7.	c #17A4DF",
"8.	c #138BBC",
"9.	c #AB1B24",
"0.	c #630000",
"a.	c #7C0000",
"b.	c #E80000",
"c.	c #FC0000",
"d.	c #9F0000",
"e.	c #410000",
"f.	c #F00000",
"g.	c #386285",
"h.	c #17A6E1",
"i.	c #169FD8",
"j.	c #138CBD",
"k.	c #9E0C10",
"l.	c #5E0000",
"m.	c #700000",
"n.	c #9C0000",
"o.	c #B70000",
"p.	c #F90000",
"q.	c #1C8CBE",
"r.	c #138FC1",
"s.	c #18678C",
"t.	c #5D0000",
"u.	c #129FD8",
"v.	c #159AD1",
"w.	c #108CBD",
"x.	c #6F0B0F",
"y.	c #A50000",
"z.	c #870000",
"A.	c #8D0000",
"B.	c #730000",
"C.	c #13AAE7",
"D.	c #1D759E",
"E.	c #A30000",
"F.	c #520000",
"G.	c #B80000",
"H.	c #720000",
"I.	c #6D0203",
"J.	c #13ADEB",
"K.	c #1491C4",
"L.	c #0A93C7",
"M.	c #790203",
"N.	c #8E0000",
"O.	c #CC0000",
"P.	c #9E0000",
"Q.	c #810000",
"R.	c #10A1DA",
"S.	c #1598CE",
"T.	c #0F93C6",
"U.	c #522938",
"V.	c #840000",
"W.	c #A90000",
"X.	c #C60000",
"Y.	c #2481B0",
"Z.	c #15A2DB",
"`.	c #1481AF",
" +	c #492330",
".+	c #550000",
"++	c #AF0000",
"@+	c #C20000",
"#+	c #6B0000",
"$+	c #E60000",
"%+	c #3A6386",
"&+	c #2E5473",
"*+	c #DF0000",
"=+	c #650000",
"-+	c #CA0000",
";+	c #DA0000",
">+	c #8D0405",
",+	c #C80000",
"'+	c #D50000",
")+	c #830000",
"!+	c #A40000",
"~+	c #820000",
"{+	c #890000",
"]+	c #C10000",
"^+	c #CE0000",
"/+	c #C30000",
"(+	c #EA0000",
"_+	c #EC0000",
":+	c #AE0000",
"<+	c #EF0000",
"[+	c #D60000",
"}+	c #A80000",
"|+	c #D90000",
"1+	c #F50000",
"2+	c #711111",
"3+	c #830606",
"4+	c #6E0000",
"5+	c #7D7E7E",
"6+	c #B6C0C0",
"7+	c #8B6565",
"8+	c #E01C1C",
"9+	c #680000",
"0+	c #898989",
"a+	c #BABABA",
"b+	c #B7B7B7",
"c+	c #B7B8B8",
"d+	c #ABA5A5",
"e+	c #B82A2A",
"f+	c #920101",
"g+	c #D30000",
"h+	c #B01919",
"i+	c #947C7C",
"j+	c #BCC4C4",
"k+	c #B8B8B8",
"l+	c #B6BABA",
"m+	c #ABA7A7",
"n+	c #8E7171",
"o+	c #860202",
"p+	c #740000",
"q+	c #CD0D0D",
"r+	c #B45D5D",
"s+	c #A1A6A6",
"t+	c #BBBFBF",
"u+	c #B8B7B7",
"v+	c #929292",
"w+	c #A73535",
"x+	c #9D9494",
"y+	c #4E0000",
"                                                                                                    ",
"                                                                                                    ",
"                                                                        . +                         ",
"                                                                      @ # $ %                       ",
"                                                                    & * = $ -                       ",
"                                                                  ; > , ' ) !                       ",
"                                                                ~ { ] ' ' ^ -                       ",
"                                                              / ( _ : ' ' < [                       ",
"                                                            } | 1 2 ' ' 3 4 (                       ",
"                                                          5 | & [ 6 ' ' 6 7 8                       ",
"                                                        9 , 0 a b ' ' ' c d 8                       ",
"                                                    e f : | g h ' ' ' | i j =                       ",
"                                                  } } k l 6 ! c | ' ' 8 7 m 8                       ",
"                                              n | o p l ' q r ' ' ' ' s t 6 3                       ",
"                                          } l l ' u } ' = 4 v ' ' ' | _ < | :                       ",
"                                    w x y ' ' ' 0 k l ' | 7 : ' ' ' o 7 z l A                       ",
"                                B ' ' ' ' ' ' ' C ' ' ' % D E F ' | c G 8 y H I                     ",
"                            J : l ' ' ' ' ' ' K K ' ' l 7 L M N O = - P ' , Q u                     ",
"                      R S 7 ) ' ' ' ' ' ' ' o Q | ' | T U V W W X Y h 0 ' n Z 6                     ",
"                  ` |  .7 J = ' ' ' ' ' ' ' e K ' | ..+.@.W W W #.$.# ' ' 5 , 0                     ",
"                6 ' , 7 { 0 ' ' ' ' ' ' ' o u l = %.7 &.*.W W W =.-.o ' ' ;.y l w                   ",
"            e 8 ' ' >.7 ; ' ' ' ' ' ' = ,.'.K | ).7 !.~.W W W {.].7 : ' o ^.' ' ~                   ",
"          ;.l ' ' 8 { /.8 ' ' ' ' ' 0 (.7 _.y G ! '.:.W W W <.[.}.7 : ' o |.' ' y                   ",
"        R ' ' ' | 1.7 < ' ' ' ' ' $ 1 > 2.3.4.h l 5.6.W W W 7.8.9.> : ' 0.' ' ' l a.                ",
"      A ' ' ' ' ' h b.3 ' ' ' | m c.! d.e.# f.0 l g.h.W W W i.j.k.7 / ' l.o ' ' ' /                 ",
"    m.0 ' ' ' ' $ a 2.' ' ' = ; 7 f.n.~ o.p.o ' o q.W W W h.r.s.,.7 8 y ;.l ' ' ' l t.              ",
"  l.' ' ' ' ' | c 7 ) ' ' | b 7 _ l y ;.7 m ' ' 6 u.W W W v.w.x.y.7 8 z.A.' ' ' ' ' }               ",
"  0 ' ' ' ' ' 3 G { 3 ' ' ) 7 f.8 ' = ' q | ' ' B.C.W W h.8.D.' E.7 : F.1.' ' ' ' ' |               ",
"  l ' ' ' ' ' 6 7 G.| ' l ! 7 y ' ' H.T ' ' ' ' I.J.W W K.L.M.' | 7 N.l O.= ' ' ' ' ' H.            ",
"  ~ = ' ' ' ' P.7 0 ' P.p.7 s | ' , Q.l ' ' ' ' | R.h.S.T.U., ' ' 7 V.# i 3 ' ' ' ' ' W.            ",
"            = ,.{ l 8 4 7 X.8 ' ' ' _.y = ' ' ' , Y.Z.`. +n.' ' E.a .+v 7 N.' ' ' ' ' b.++          ",
"                  ' @+7 * l ' ' ' #+- 7 $+, ' ' l %+&+0 ' ' ' ' ++*+=+1.7 P.' ' ' ' ' _ -+          ",
"                      p.) ' ' ' ' 0.7 7 7 ;+8 ' ' >+l ' ' ' ' ' ,+n.y W.7 ,.' ' ' ' ' c.'+          ",
"                          | ' ' | )+y E.7 7 / ' ' ' ' ' ' ' ' ' ;+#+' !+7 g ' ' ' ' m 7  .n         ",
"                            : = = } ' | D 7 z ' ' ' ' | o y | ' A l ' !+7 s ' ' ' = '+7 y.:         ",
"                                ~+{+' | ]+7 W.' ' ' = ^+c.a /+' A l ' z 7 b ' ' ' o 7 (+3 8         ",
"                                  6 ' | /+7 $ ' ' y _+7 7 7 7 } / ' ' ; 7 g ' ' ' ^ 7 :+' l         ",
"                                  | ' | @+7 3 ' | <+7 O.| < r A l ' | v 7 ,.' ' 3 [+> , ' l I       ",
"                                  | ' | X.! : | $+7 ] ' ' 0 ;.' ' ' | >.7 ) ' ' }+7 j | ' l e       ",
"                                  8 ' = 4.*+: < 7 2 | ' ' e a.' ' ' | _+7 d.' | |+1+| ' ' ' /       ",
"                                  2+3+l { 2 z 7 X.8 ' ' , 4+y ' ' ' l - 7 : ' d.7 X.' ' ' ' 0       ",
"                                  5+6+7+8+d.# /.| ' ' ' 9+    3 | | d.a * : ' # d 6 ' ' ' ' 0       ",
"                                  0+a+b+c+d+e+f+' ' l Q.              1+g+8 n.7 ,.' ' ' ' ' N.      ",
"                                  h+i+j+k+b+l+m+n+o+p+                      $+g | ' ' ' ' l p+      ",
"                                  S 7 q+r+s+t+u+v+                              3 l ' ' ' l 4+      ",
"                                    1 a 7 p.w+x+                                    ' ' ' l f       ",
"                                          c.>.                                        | ' l y+      ",
"                                                                                                    ",
"                                                                                                    ",
"                                                                                                    "};
