/* XPM */
static char * redship07_xpm[] = {
"50 50 249 2",
"  	c None",
". 	c #6F0000",
"+ 	c #840000",
"@ 	c #8B0000",
"# 	c #920000",
"$ 	c #980000",
"% 	c #960000",
"& 	c #8F0000",
"* 	c #8E0000",
"= 	c #890000",
"- 	c #880000",
"; 	c #710000",
"> 	c #7D0000",
", 	c #970000",
"' 	c #B30000",
") 	c #F50000",
"! 	c #FF0000",
"~ 	c #FB0000",
"{ 	c #DB0000",
"] 	c #A90000",
"^ 	c #950000",
"/ 	c #8A0000",
"( 	c #930000",
"_ 	c #A40000",
": 	c #B10000",
"< 	c #D60000",
"[ 	c #F40000",
"} 	c #CD0000",
"| 	c #820000",
"1 	c #990000",
"2 	c #900000",
"3 	c #A00000",
"4 	c #C00000",
"5 	c #EB0000",
"6 	c #CB0000",
"7 	c #9F0000",
"8 	c #800000",
"9 	c #9B0000",
"0 	c #D10000",
"a 	c #5D0000",
"b 	c #CF0000",
"c 	c #F30000",
"d 	c #9A0000",
"e 	c #9D0C0C",
"f 	c #990404",
"g 	c #7C0000",
"h 	c #7F0000",
"i 	c #790000",
"j 	c #650000",
"k 	c #520000",
"l 	c #2C0000",
"m 	c #940000",
"n 	c #9E0000",
"o 	c #FD0000",
"p 	c #BB0000",
"q 	c #E40000",
"r 	c #E50000",
"s 	c #F10000",
"t 	c #F80000",
"u 	c #DA0000",
"v 	c #B40000",
"w 	c #830000",
"x 	c #620000",
"y 	c #660000",
"z 	c #6C0000",
"A 	c #7A0000",
"B 	c #C70000",
"C 	c #A10000",
"D 	c #CE0000",
"E 	c #A70000",
"F 	c #500000",
"G 	c #630000",
"H 	c #AD0000",
"I 	c #C20000",
"J 	c #D00000",
"K 	c #D20000",
"L 	c #D90000",
"M 	c #C50000",
"N 	c #B50000",
"O 	c #B20000",
"P 	c #A30000",
"Q 	c #E00303",
"R 	c #910000",
"S 	c #A20000",
"T 	c #7E0000",
"U 	c #530000",
"V 	c #B60000",
"W 	c #F90000",
"X 	c #EA0000",
"Y 	c #AA0000",
"Z 	c #C40000",
"` 	c #EF0000",
" .	c #9C0000",
"..	c #850000",
"+.	c #7B0000",
"@.	c #A60000",
"#.	c #BA0000",
"$.	c #D30000",
"%.	c #4F0000",
"&.	c #C10000",
"*.	c #E80000",
"=.	c #E70000",
"-.	c #B70000",
";.	c #B00000",
">.	c #AF0000",
",.	c #BD0000",
"'.	c #BE0000",
").	c #B80000",
"!.	c #6A0000",
"~.	c #9D0000",
"{.	c #FE0000",
"].	c #621319",
"^.	c #4C3A4D",
"/.	c #723040",
"(.	c #B80F13",
"_.	c #E90404",
":.	c #FE0001",
"<.	c #FC0000",
"[.	c #AC0000",
"}.	c #E90000",
"|.	c #473648",
"1.	c #13A1DC",
"2.	c #15A3DE",
"3.	c #14A1DA",
"4.	c #1198CE",
"5.	c #1186B6",
"6.	c #27769F",
"7.	c #2F5F80",
"8.	c #6B1118",
"9.	c #540000",
"0.	c #1280AD",
"a.	c #17A6E1",
"b.	c #17A5E0",
"c.	c #17A4DF",
"d.	c #159CD3",
"e.	c #1492C5",
"f.	c #0D90C3",
"g.	c #1C6D94",
"h.	c #503547",
"i.	c #EC0000",
"j.	c #C80000",
"k.	c #42374B",
"l.	c #15A8E3",
"m.	c #17A2DA",
"n.	c #148FC1",
"o.	c #128EC0",
"p.	c #12759E",
"q.	c #790F14",
"r.	c #860000",
"s.	c #FA0000",
"t.	c #465E7F",
"u.	c #15A9E6",
"v.	c #17A5E1",
"w.	c #169DD6",
"x.	c #138BBB",
"y.	c #118DBF",
"z.	c #651E29",
"A.	c #8D0000",
"B.	c #400000",
"C.	c #430000",
"D.	c #C60000",
"E.	c #9B2532",
"F.	c #0AA3DE",
"G.	c #16A7E3",
"H.	c #17A3DE",
"I.	c #1490C3",
"J.	c #0D87B7",
"K.	c #7D0608",
"L.	c #D70000",
"M.	c #780000",
"N.	c #740000",
"O.	c #680000",
"P.	c #DE0405",
"Q.	c #5F5473",
"R.	c #11A8E3",
"S.	c #17A7E3",
"T.	c #17A6E2",
"U.	c #1598CD",
"V.	c #236B91",
"W.	c #4D0000",
"X.	c #7E0B0F",
"Y.	c #286F96",
"Z.	c #199FD8",
"`.	c #16A6E2",
" +	c #13A2DD",
".+	c #6E161E",
"++	c #A50000",
"@+	c #5C0000",
"#+	c #8F0608",
"$+	c #4E3345",
"%+	c #286285",
"&+	c #0F9AD1",
"*+	c #10A2DC",
"=+	c #1295CA",
"-+	c #2B6285",
";+	c #6F1821",
">+	c #910506",
",+	c #A80000",
"'+	c #730000",
")+	c #EE0000",
"!+	c #DC0000",
"~+	c #810D0D",
"{+	c #B3B5B5",
"]+	c #919090",
"^+	c #5E0000",
"/+	c #ED0000",
"(+	c #8B7373",
"_+	c #B8B9B9",
":+	c #B3BCBC",
"<+	c #9C0808",
"[+	c #870000",
"}+	c #D10C0C",
"|+	c #B7BBBB",
"1+	c #B7B7B7",
"2+	c #A57F7F",
"3+	c #670000",
"4+	c #F60000",
"5+	c #A33D3D",
"6+	c #BCBEBE",
"7+	c #BE3333",
"8+	c #AB0000",
"9+	c #C30000",
"0+	c #A8A1A1",
"a+	c #A1AAAA",
"b+	c #610000",
"c+	c #AE0000",
"d+	c #BC0000",
"e+	c #812C2C",
"f+	c #BDC1C1",
"g+	c #A74242",
"h+	c #5B0000",
"i+	c #6E0000",
"j+	c #C90000",
"k+	c #9A7F7F",
"l+	c #B9B9B9",
"m+	c #E60E0E",
"n+	c #E30000",
"o+	c #810000",
"p+	c #490000",
"q+	c #E10000",
"r+	c #6D0000",
"s+	c #D50000",
"t+	c #640000",
"u+	c #F20000",
"v+	c #F00000",
"w+	c #720000",
"x+	c #E20000",
"y+	c #6F0101",
"z+	c #8C0000",
"                                                                                                    ",
"                                                                                                    ",
"                                                                                                    ",
"                                                                    . + + @ # $ $ % & * = - ;       ",
"                                                              > + $ , % % % % % % % % % % % $       ",
"                                                          ' ) ! ~ { ] ^ % % % % % % % % % % $       ",
"                                                      / ( _ : < ) ! ! [ } % ^ % % % % % % ,         ",
"                                                | @ 1 % % % % # 2 3 4 5 ! ! 6 7 ( % % % ,           ",
"                                            8 9 % % % % % % % % % % % # % 0 ~ ! 4 , % % %           ",
"                                    a - , % % % % % % % % % % % % % % % % % $ b ! c d ,             ",
"      e f , - g h | g i j k l j 2 , d % % % % % % % % % % % % % % % % % % % % m n 6 o p             ",
"    4 q r s o t u v 9 ( $ 9 9 w x y z A + $ 1 % % % % % % % ^ m ( ( ( ( ( m ^ ^ % ( 7               ",
"    B ( ^ m # C D t o q E $ % % % , 9 9 g F G = # % % , 1 3 H I J < K L D M N O P d 1               ",
"    Q K R % % % ^ $ 9 B c ~ q S ( % % % % , m R T U V W o ! ! ! ! ! ! ! ! ! ! ! ! ~                 ",
"      u X n m % % % % m # Y Z c ` 4  .R % % % % % 1 ..+...T E 9 ^ % ^ %  .@.H #.$.c                 ",
"      %.} ! &., ^ % % % % % ^ R : *.! =.-.;.>.>.,.'.-.O ).] !.A R $ % % % % % % m 2                 ",
"          ~.s {.).% % % % % % % % ].^./.(._.:.{.<.~ ~ t s t o {.( y , % % % % % % ,                 ",
"            m [.}.t M 2 ^ % % 1 |.1.2.3.4.5.6.7.8.7 $ % ^ % $ 9 C 7 R 9.& , % % ,                   ",
"              & # -.r W M ^ m $ 0.a.b.b.a.c.d.e.f.g.h.m , % % % % % ^ '.#.g % % (                   ",
"                * % R [.i.o j.S k.l.b.b.b.b.b.a.m.n.o.p.q.$ % % % % 7 ! ! J U r.(                   ",
"                  @ , % % 1 0 {.s.t.u.b.b.b.b.b.b.v.w.x.y.z., % % m I ! K ( % A.B.                  ",
"                    C., % % m  .D.{.E.F.G.b.b.b.b.b.b.H.I.J.K.% % ^ H ! L.# % % ^ M.                ",
"                    N.O.N.1 % % m ^ i.P.Q.R.S.b.b.b.b.b.T.U.V.$ % % , 5 ! H % % % % A               ",
"                      + 1 W.A., % % ( X ! X.Y.Z.`.a.b.b.b.T. +.+, % % 1 t ! ++% % % ,               ",
"                        9 % w @+9 % % $ c c , #+$+%+&+*+=+-+;+>+% % % % 9 c o ,+^ % $               ",
"                        '+% , 2 a z n ^  .) )+m d 9 m # m  .$ % % % % % % 1 !+! I R ~+{+]+          ",
"                          ^ % % 1 g ^+8 $ d /+i.% % % % % % % % % ^ m ^ ^ % ( M {.!+(+_+:+<+        ",
"                          [+, % % % , R j & % [ }., % % % % % , 9 ;.M 4 O C 1 , ^ }+|+1+2+!         ",
"                            # % % % % % 7 q w 3+r 4+ .% % % , X {.! ! ! ! ! ! t /+5+1+6+7+!         ",
"                            ..% % % % % % j.! ( O.( 4+#.m % ] ! s.).C C C P 8+N 9+0+1+a+i.o         ",
"                              1 % % % % % & )+t 9 $ b+C c+, d+! D.m % % % % % % e+f+1+g+!           ",
"                              r.% % % % % % _ ! )+^ % % @ h+i+M j+m % % % % % 9 k+l+l+m+{.          ",
"                                , % % % % % ^ >.! n+2 % % $ ( / o+^+p+'+[+A.* >                     ",
"                                m % % % % % % ^ 4 ! q+m % % % % , 9  .                              ",
"                                r+, % % % % % % % I ! /+ .^ % % % ,                                 ",
"                                  }.9 % % % % % % ^ -.! o E % % % ,                                 ",
"                                  D ! s+2 % % % % % m >.{.{.j+2 ,                                   ",
"                                  t+*.! [ v , m % % % % [.t ! u+8+                                  ",
"                                    = '.~ ! o ).$ % % % % 1 v+!                                     ",
"                                    w+$ d v [ ! 4+q @.R ^ % % c+                                    ",
"                                      | % ^ ( H } ) ! s.K N 9                                       ",
"                                        , % % % ^ R _ 6 x+)+W                                       ",
"                                        b+$ % % % % % % % ,                                         ",
"                                          [+, % % % % % % ,                                         ",
"                                            - % % % % % % ^                                         ",
"                                              R , % % % % $                                         ",
"                                                w $ % % % m                                         ",
"                                                  M.d % %                                           ",
"                                                    y+& z+                                          ",
"                                                                                                    "};
