/* XPM */
static char * redship13_xpm[] = {
"50 50 247 2",
"  	c None",
". 	c #B90000",
"+ 	c #930000",
"@ 	c #950000",
"# 	c #8E0000",
"$ 	c #F80000",
"% 	c #FF0000",
"& 	c #E80A0A",
"* 	c #713737",
"= 	c #960000",
"- 	c #970000",
"; 	c #620101",
"> 	c #D10000",
", 	c #D10606",
"' 	c #917373",
") 	c #B8BBBB",
"! 	c #B5B5B5",
"~ 	c #6B0000",
"{ 	c #CC0000",
"] 	c #A93B3B",
"^ 	c #B09999",
"/ 	c #B1B6B6",
"( 	c #B8B9B9",
"_ 	c #B7B7B7",
": 	c #BBBDBD",
"< 	c #A0A8A8",
"[ 	c #750000",
"} 	c #9A0000",
"| 	c #760000",
"1 	c #879292",
"2 	c #BDC1C1",
"3 	c #B9BABA",
"4 	c #B7BBBB",
"5 	c #AC8181",
"6 	c #823636",
"7 	c #8B0000",
"8 	c #980000",
"9 	c #6A0000",
"0 	c #BF0000",
"a 	c #B70000",
"b 	c #F00000",
"c 	c #7E0000",
"d 	c #8B8B8B",
"e 	c #B9BBBB",
"f 	c #B0ABAB",
"g 	c #A07272",
"h 	c #860606",
"i 	c #BE0000",
"j 	c #920000",
"k 	c #940000",
"l 	c #A20000",
"m 	c #E00000",
"n 	c #F30000",
"o 	c #8D0000",
"p 	c #7A3131",
"q 	c #960202",
"r 	c #F90000",
"s 	c #B10000",
"t 	c #B50000",
"u 	c #9C0000",
"v 	c #660000",
"w 	c #990000",
"x 	c #FB0000",
"y 	c #8F0000",
"z 	c #A50000",
"A 	c #E70000",
"B 	c #CF0000",
"C 	c #910000",
"D 	c #DF0000",
"E 	c #9F0000",
"F 	c #6C0000",
"G 	c #800000",
"H 	c #EA0000",
"I 	c #D40000",
"J 	c #EE0000",
"K 	c #900000",
"L 	c #F70000",
"M 	c #F50000",
"N 	c #9E0000",
"O 	c #630000",
"P 	c #A70000",
"Q 	c #810000",
"R 	c #C70000",
"S 	c #FD0000",
"T 	c #9B0000",
"U 	c #DD0000",
"V 	c #A00000",
"W 	c #EF0000",
"X 	c #F40000",
"Y 	c #700000",
"Z 	c #C50000",
"` 	c #FC0000",
" .	c #ED0000",
"..	c #FA0000",
"+.	c #B40000",
"@.	c #5E0000",
"#.	c #C20000",
"$.	c #A80000",
"%.	c #F10000",
"&.	c #E40000",
"*.	c #B00000",
"=.	c #A30000",
"-.	c #880000",
";.	c #8A0000",
">.	c #B80000",
",.	c #AD0000",
"'.	c #A40000",
").	c #AA0000",
"!.	c #6D0000",
"~.	c #F60000",
"{.	c #A60000",
"].	c #AB0000",
"^.	c #710000",
"/.	c #E90000",
"(.	c #CD0000",
"_.	c #DA0000",
":.	c #D90000",
"<.	c #680000",
"[.	c #AC0000",
"}.	c #543A4E",
"|.	c #6B2330",
"1.	c #9D0000",
"2.	c #B30000",
"3.	c #FE0000",
"4.	c #2C6C91",
"5.	c #13ACE9",
"6.	c #286B91",
"7.	c #87070A",
"8.	c #4A0000",
"9.	c #EC0000",
"0.	c #AF0000",
"a.	c #7F0000",
"b.	c #1085B3",
"c.	c #17A7E2",
"d.	c #17A5E0",
"e.	c #129FD6",
"f.	c #7F0A0E",
"g.	c #640000",
"h.	c #CE0000",
"i.	c #730000",
"j.	c #BB0000",
"k.	c #730405",
"l.	c #0E8DBE",
"m.	c #17A3DE",
"n.	c #17A5E1",
"o.	c #178FC2",
"p.	c #860000",
"q.	c #E30000",
"r.	c #7C0000",
"s.	c #E10000",
"t.	c #D00000",
"u.	c #D20000",
"v.	c #72090C",
"w.	c #0E8FC1",
"x.	c #16A0D9",
"y.	c #17A9E6",
"z.	c #335E80",
"A.	c #820000",
"B.	c #C10000",
"C.	c #D80000",
"D.	c #C90000",
"E.	c #7D0101",
"F.	c #0E8DBF",
"G.	c #169AD1",
"H.	c #159FD8",
"I.	c #8E0203",
"J.	c #6F0000",
"K.	c #CB0000",
"L.	c #E80000",
"M.	c #DB0000",
"N.	c #137DA9",
"O.	c #1493C7",
"P.	c #16A8E3",
"Q.	c #354D68",
"R.	c #7A0000",
"S.	c #8C0000",
"T.	c #D70000",
"U.	c #610000",
"V.	c #26688C",
"W.	c #148EC0",
"X.	c #15A3DD",
"Y.	c #A00406",
"Z.	c #690000",
"`.	c #D60000",
" +	c #552938",
".+	c #1191C4",
"++	c #AB1D27",
"@+	c #5C0000",
"#+	c #840000",
"$+	c #A10000",
"%+	c #0C7FAC",
"&+	c #1495C9",
"*+	c #853345",
"=+	c #6E0000",
"-+	c #E60000",
";+	c #890000",
">+	c #483547",
",+	c #138CBE",
"'+	c #17A4DF",
")+	c #1E7EAC",
"!+	c #5B0000",
"~+	c #780000",
"{+	c #16769F",
"]+	c #169FD7",
"^+	c #0AA1DB",
"/+	c #720000",
"(+	c #DE0000",
"_+	c #A31821",
":+	c #128DBF",
"<+	c #17A6E1",
"[+	c #0DB1EF",
"}+	c #D0090D",
"|+	c #C30000",
"1+	c #7D0000",
"2+	c #5D0000",
"3+	c #580000",
"4+	c #345F81",
"5+	c #159CD3",
"6+	c #11B0EF",
"7+	c #AF0E12",
"8+	c #F20000",
"9+	c #7B0000",
"0+	c #BD0000",
"a+	c #C80000",
"b+	c #2B6A8E",
"c+	c #17A0D8",
"d+	c #17A6E2",
"e+	c #0B8EC0",
"f+	c #5F0000",
"g+	c #5A0000",
"h+	c #C00000",
"i+	c #403D52",
"j+	c #3F516E",
"k+	c #820608",
"l+	c #510000",
"m+	c #480000",
"n+	c #CA0000",
"o+	c #520000",
"p+	c #E20000",
"q+	c #490000",
"r+	c #4E0000",
"s+	c #570000",
"t+	c #C60000",
"u+	c #560000",
"v+	c #FF0202",
"w+	c #DB0303",
"x+	c #D50101",
"                                                                                                    ",
"                                                                                                    ",
"                                                                                                    ",
"                                            .                                         + @ #         ",
"                                      $ % % & *                                     @ = = - ;       ",
"                                  > % % , ' ) !                                   - = = = - ~       ",
"                                  { ] ^ / ( _ : < [                           } = = = = = - |       ",
"                                  1 2 _ 3 4 5 6 7 8 = 9                 0 + a b 8 = = = = = c       ",
"                                  d e f g h % i = = = -         j k l % m j 8 n > k = = = = o       ",
"                                    p q r s t % l = = = u v - = = = w x x y = a % z = = = = 8       ",
"                                  + 8 k A B C D r E = = = F G = = = @ n % 8 = + H H = = = = o       ",
"                                  = = @ I J K - L M N = = u O = = = @ m % w = = i % P @ = = Q       ",
"                                  @ = @ R % K = E S M T = } U K = = @ > % V = = y W X @ = - Y       ",
"                                  k = @ Z % = = = s % `  ...% - o = = +.% P = = @ a % l = - @.      ",
"                                  7 = @ #.% l = = k $.%.% % &.w | 8 = z % *.= = = =.% B + @         ",
"                              -.- ;.= @ R % V = = = = C >.,.C = c @ = '.% ).= = = k  .% - K         ",
"                          k = = @ !.8 = ~.% + = = = = = = = = = D 9 = {.% ].= = = @ 0 % *.7         ",
"                        C = = = = ^.%.b % /.C = = 8 = = = = = = > T w $.% P = = = = w % (.9         ",
"                    _.% :.@ = = = <.x % x [.= = = }.|.1.= = = = . #.-.2.% E = = = = = L >           ",
"              *.J = - 3.3.z @ = = = c [.K = = = w 4.5.6.7.- = = [.r 8.R % C = = = = = 9.s           ",
"    = @ - = = '.S - = 0.% ` } = = 8 a.= = = = = 8 b.c.d.e.f.= = N % g.:.9.K = = = = = h.            ",
"  = = = = = = - % l = @ a % A y = = i.j.= = = = k.l.m.d.n.o.= = 8 % p.q.{ k = = = = = r.            ",
"  8 = = = = = C X s.+ = @ t.% u.+ = y = u = = = v.w.x.d.d.y.z.- V % K 9 j.= = = = = -               ",
"  A.= = = = = k B.% 8 = = k C.% D.@ w | X - = = E.F.G.d.d.d.H.I.{.% j J.V = = = = = K               ",
"    o = = = = = l % *.= = = @ h.% K.j p.L.M.K = T N.O.d.d.d.P.Q.[.% k } R.= = = = - F               ",
"      S.= = = = w ` t.+ = = = @ u.% T.# U...h.C } V.W.n.d.d.d.X.Y.% + - Z.} = = = +                 ",
"        @ = = = @ I % l = = = = k { % 9.v N ` `.@  +.+d.d.d.d.d.++` K = @+- = = = -.                ",
"          = = = = = % C.= = = = = = ].` % #+$+% U = %+&+d.d.d.d.*+` K = S.=+= = w                   ",
"            o - = @ -+..= = = = = = @ 8 { ;+} z % A >+,+'+d.d.d.)+% K = 1.!+= = K                   ",
"              ~+w = s % U = = = = = = = + . J.@ ].L ~.{+]+d.d.d.^+9.C = w /+- = R.                  ",
"                  # C (+% P = = = = = = = - Y 8 = N .._+:+<+d.d.[+}+|+= = 1+} 8                     ",
"                    2+N % S + = = = = = = = k 3+= = 1.S 4+5+d.d.6+7+8+= = 9+k w                     ",
"                          0+a+@ = = = = = = - c @ = @ '.r b+c+d+e+@ % 8 = K f+9+                    ",
"                              Q Q 8 = = = = = @ g+w = - M h+i+j+k+k > Z k } l+J.                    ",
"                                    y @ = = = = p.c = = [.J + 8 = = E % - 8 Z.                      ",
"                                        R.8 = = - @+N = C 8+$.= = = = ..2.= #                       ",
"                                            R.C = j 3+= = Z &.= = = @ (.u.k +                       ",
"                                                A.k 1++ = w % N = = = k % @ j                       ",
"                                                    = m+= k n+m k = = k W 0 k                       ",
"                                                      o+p.= N % '.= = = |+p+k                       ",
"                                                          # k D I j = = l 3.K                       ",
"                                                          q+- + 3.$+= = y b [.                      ",
"                                                            r+= (+T.@ = @ R (+                      ",
"                                                              s+- % N = = +.n                       ",
"                                                                v Z n @ = P ..                      ",
"                                                                  f+W t+k N x                       ",
"                                                                    u+` t T v+                      ",
"                                                                        w+x+;+                      ",
"                                                                                                    ",
"                                                                                                    "};
