/* XPM */
static char * shot_xpm[] = {
"12 12 4 1",
" 	c None",
".	c #3F80DF",
"+	c #3068CF",
"@	c #BFC0D0",
"            ",
"    ....    ",
"   .++++.   ",
"  .++..++.  ",
" .++.@@.++. ",
" .+.@@@@.+. ",
" .+.@@@@.+. ",
" .++.@@.++. ",
"  .++..++.  ",
"   .++++.   ",
"    ....    ",
"            "};
